<svg width="175" height="90" viewBox="0 0 175 90" fill="none" xmlns="http://www.w3.org/2000/svg">
<rect width="175" height="90" rx="20" fill="#4862C9" fill-opacity="0.3"/>
<path d="M59.1338 56.74C59.5071 56.74 59.7871 56.8533 59.9738 57.08C60.1738 57.2933 60.2471 57.5733 60.1938 57.92L59.9538 60H42.2738L42.4137 58.82C42.4404 58.58 42.5204 58.3267 42.6538 58.06C42.7871 57.7933 42.9804 57.5533 43.2338 57.34L52.7538 48.08C53.6471 47.2 54.4538 46.3733 55.1738 45.6C55.8938 44.8133 56.5004 44.0333 56.9938 43.26C57.4871 42.4733 57.8671 41.68 58.1338 40.88C58.4004 40.0667 58.5338 39.1867 58.5338 38.24C58.5338 37.5333 58.4271 36.92 58.2138 36.4C58.0138 35.8667 57.7338 35.4267 57.3738 35.08C57.0138 34.72 56.5871 34.4533 56.0938 34.28C55.6004 34.0933 55.0604 34 54.4738 34C53.8204 34 53.2071 34.1067 52.6338 34.32C52.0604 34.5333 51.5338 34.8333 51.0538 35.22C50.5871 35.6067 50.1738 36.0667 49.8138 36.6C49.4538 37.1333 49.1738 37.72 48.9738 38.36C48.7738 38.8133 48.5338 39.12 48.2538 39.28C47.9738 39.4267 47.6004 39.46 47.1338 39.38L45.3738 39.08C45.7071 37.7733 46.1804 36.62 46.7938 35.62C47.4204 34.62 48.1538 33.78 48.9938 33.1C49.8338 32.42 50.7604 31.9067 51.7738 31.56C52.8004 31.2133 53.8871 31.04 55.0338 31.04C56.0738 31.04 57.0204 31.2 57.8738 31.52C58.7404 31.8267 59.4871 32.28 60.1138 32.88C60.7404 33.4667 61.2271 34.1867 61.5738 35.04C61.9204 35.88 62.0938 36.84 62.0938 37.92C62.0938 39.1467 61.9071 40.2667 61.5338 41.28C61.1738 42.2933 60.6804 43.2533 60.0538 44.16C59.4404 45.0533 58.7204 45.9267 57.8938 46.78C57.0804 47.62 56.2138 48.4867 55.2938 49.38L47.2738 57.24C47.8338 57.0933 48.3938 56.9733 48.9538 56.88C49.5138 56.7867 50.0471 56.74 50.5538 56.74H59.1338ZM85.9769 42.54C85.9769 45.54 85.6635 48.1533 85.0369 50.38C84.4102 52.6067 83.5635 54.46 82.4969 55.94C81.4435 57.4067 80.2102 58.5 78.7969 59.22C77.3835 59.94 75.8969 60.3 74.3369 60.3C73.1635 60.3 72.0835 60.06 71.0969 59.58C70.1235 59.1 69.2769 58.3867 68.5569 57.44C67.8502 56.48 67.2969 55.2867 66.8969 53.86C66.5102 52.42 66.3169 50.74 66.3169 48.82C66.3169 45.82 66.6235 43.2067 67.2369 40.98C67.8635 38.7533 68.7035 36.9067 69.7569 35.44C70.8235 33.96 72.0569 32.86 73.4569 32.14C74.8702 31.4067 76.3635 31.04 77.9369 31.04C79.0969 31.04 80.1702 31.28 81.1569 31.76C82.1435 32.24 82.9902 32.96 83.6969 33.92C84.4169 34.8667 84.9769 36.06 85.3769 37.5C85.7769 38.94 85.9769 40.62 85.9769 42.54ZM82.4369 42.36C82.4369 40.8533 82.3102 39.5667 82.0569 38.5C81.8035 37.4333 81.4569 36.5667 81.0169 35.9C80.5769 35.22 80.0569 34.7267 79.4569 34.42C78.8702 34.1 78.2435 33.94 77.5769 33.94C76.6035 33.94 75.6502 34.2133 74.7169 34.76C73.7969 35.2933 72.9769 36.16 72.2569 37.36C71.5369 38.5467 70.9569 40.1 70.5169 42.02C70.0769 43.9267 69.8569 46.26 69.8569 49.02C69.8569 50.5267 69.9835 51.8133 70.2369 52.88C70.4902 53.9467 70.8302 54.8133 71.2569 55.48C71.6969 56.1467 72.2102 56.6333 72.7969 56.94C73.3835 57.2467 74.0102 57.4 74.6769 57.4C75.6502 57.4 76.6035 57.14 77.5369 56.62C78.4702 56.0867 79.2969 55.2267 80.0169 54.04C80.7502 52.84 81.3369 51.2867 81.7769 49.38C82.2169 47.46 82.4369 45.12 82.4369 42.36ZM109.18 42.54C109.18 45.54 108.867 48.1533 108.24 50.38C107.613 52.6067 106.767 54.46 105.7 55.94C104.647 57.4067 103.413 58.5 102 59.22C100.587 59.94 99.1 60.3 97.54 60.3C96.3667 60.3 95.2867 60.06 94.3 59.58C93.3267 59.1 92.48 58.3867 91.76 57.44C91.0533 56.48 90.5 55.2867 90.1 53.86C89.7133 52.42 89.52 50.74 89.52 48.82C89.52 45.82 89.8267 43.2067 90.44 40.98C91.0667 38.7533 91.9067 36.9067 92.96 35.44C94.0267 33.96 95.26 32.86 96.66 32.14C98.0733 31.4067 99.5667 31.04 101.14 31.04C102.3 31.04 103.373 31.28 104.36 31.76C105.347 32.24 106.193 32.96 106.9 33.92C107.62 34.8667 108.18 36.06 108.58 37.5C108.98 38.94 109.18 40.62 109.18 42.54ZM105.64 42.36C105.64 40.8533 105.513 39.5667 105.26 38.5C105.007 37.4333 104.66 36.5667 104.22 35.9C103.78 35.22 103.26 34.7267 102.66 34.42C102.073 34.1 101.447 33.94 100.78 33.94C99.8067 33.94 98.8533 34.2133 97.92 34.76C97 35.2933 96.18 36.16 95.46 37.36C94.74 38.5467 94.16 40.1 93.72 42.02C93.28 43.9267 93.06 46.26 93.06 49.02C93.06 50.5267 93.1867 51.8133 93.44 52.88C93.6933 53.9467 94.0333 54.8133 94.46 55.48C94.9 56.1467 95.4133 56.6333 96 56.94C96.5867 57.2467 97.2133 57.4 97.88 57.4C98.8533 57.4 99.8067 57.14 100.74 56.62C101.673 56.0867 102.5 55.2267 103.22 54.04C103.953 52.84 104.54 51.2867 104.98 49.38C105.42 47.46 105.64 45.12 105.64 42.36ZM124.823 49.7L126.303 37.66C126.33 37.3533 126.376 37.0333 126.443 36.7C126.51 36.3533 126.583 35.9933 126.663 35.62L115.443 49.7H124.823ZM131.743 49.7L131.503 51.68C131.476 51.8933 131.39 52.0733 131.243 52.22C131.096 52.3533 130.903 52.42 130.663 52.42H127.503L126.563 60H123.563L124.483 52.42H112.843C112.576 52.42 112.363 52.3467 112.203 52.2C112.043 52.0533 111.95 51.8667 111.923 51.64L111.783 49.88L126.863 31.34H130.083L127.823 49.7H131.743Z" fill="#4862C9"/>
</svg>
