<svg width="175" height="90" viewBox="0 0 175 90" fill="none" xmlns="http://www.w3.org/2000/svg">
<rect width="175" height="90" rx="20" fill="#7048C5" fill-opacity="0.3"/>
<path d="M60.0713 56.74C60.4446 56.74 60.7246 56.8533 60.9113 57.08C61.1113 57.2933 61.1846 57.5733 61.1313 57.92L60.8913 60H43.2113L43.3512 58.82C43.3779 58.58 43.4579 58.3267 43.5913 58.06C43.7246 57.7933 43.9179 57.5533 44.1713 57.34L53.6913 48.08C54.5846 47.2 55.3913 46.3733 56.1113 45.6C56.8313 44.8133 57.4379 44.0333 57.9313 43.26C58.4246 42.4733 58.8046 41.68 59.0713 40.88C59.3379 40.0667 59.4713 39.1867 59.4713 38.24C59.4713 37.5333 59.3646 36.92 59.1513 36.4C58.9513 35.8667 58.6713 35.4267 58.3113 35.08C57.9513 34.72 57.5246 34.4533 57.0313 34.28C56.5379 34.0933 55.9979 34 55.4113 34C54.7579 34 54.1446 34.1067 53.5713 34.32C52.9979 34.5333 52.4713 34.8333 51.9913 35.22C51.5246 35.6067 51.1113 36.0667 50.7513 36.6C50.3913 37.1333 50.1113 37.72 49.9113 38.36C49.7113 38.8133 49.4713 39.12 49.1913 39.28C48.9113 39.4267 48.5379 39.46 48.0713 39.38L46.3113 39.08C46.6446 37.7733 47.1179 36.62 47.7313 35.62C48.3579 34.62 49.0913 33.78 49.9313 33.1C50.7713 32.42 51.6979 31.9067 52.7113 31.56C53.7379 31.2133 54.8246 31.04 55.9713 31.04C57.0113 31.04 57.9579 31.2 58.8113 31.52C59.6779 31.8267 60.4246 32.28 61.0513 32.88C61.6779 33.4667 62.1646 34.1867 62.5113 35.04C62.8579 35.88 63.0313 36.84 63.0313 37.92C63.0313 39.1467 62.8446 40.2667 62.4713 41.28C62.1113 42.2933 61.6179 43.2533 60.9913 44.16C60.3779 45.0533 59.6579 45.9267 58.8313 46.78C58.0179 47.62 57.1513 48.4867 56.2313 49.38L48.2113 57.24C48.7713 57.0933 49.3313 56.9733 49.8913 56.88C50.4513 56.7867 50.9846 56.74 51.4913 56.74H60.0713ZM86.9144 42.54C86.9144 45.54 86.601 48.1533 85.9744 50.38C85.3477 52.6067 84.501 54.46 83.4344 55.94C82.381 57.4067 81.1477 58.5 79.7344 59.22C78.321 59.94 76.8344 60.3 75.2744 60.3C74.101 60.3 73.021 60.06 72.0344 59.58C71.061 59.1 70.2144 58.3867 69.4944 57.44C68.7877 56.48 68.2344 55.2867 67.8344 53.86C67.4477 52.42 67.2544 50.74 67.2544 48.82C67.2544 45.82 67.561 43.2067 68.1744 40.98C68.801 38.7533 69.641 36.9067 70.6944 35.44C71.761 33.96 72.9944 32.86 74.3944 32.14C75.8077 31.4067 77.301 31.04 78.8744 31.04C80.0344 31.04 81.1077 31.28 82.0944 31.76C83.081 32.24 83.9277 32.96 84.6344 33.92C85.3544 34.8667 85.9144 36.06 86.3144 37.5C86.7144 38.94 86.9144 40.62 86.9144 42.54ZM83.3744 42.36C83.3744 40.8533 83.2477 39.5667 82.9944 38.5C82.741 37.4333 82.3944 36.5667 81.9544 35.9C81.5144 35.22 80.9944 34.7267 80.3944 34.42C79.8077 34.1 79.181 33.94 78.5144 33.94C77.541 33.94 76.5877 34.2133 75.6544 34.76C74.7344 35.2933 73.9144 36.16 73.1944 37.36C72.4744 38.5467 71.8944 40.1 71.4544 42.02C71.0144 43.9267 70.7944 46.26 70.7944 49.02C70.7944 50.5267 70.921 51.8133 71.1744 52.88C71.4277 53.9467 71.7677 54.8133 72.1944 55.48C72.6344 56.1467 73.1477 56.6333 73.7344 56.94C74.321 57.2467 74.9477 57.4 75.6144 57.4C76.5877 57.4 77.541 57.14 78.4744 56.62C79.4077 56.0867 80.2344 55.2267 80.9544 54.04C81.6877 52.84 82.2744 51.2867 82.7144 49.38C83.1544 47.46 83.3744 45.12 83.3744 42.36ZM110.118 42.54C110.118 45.54 109.804 48.1533 109.178 50.38C108.551 52.6067 107.704 54.46 106.638 55.94C105.584 57.4067 104.351 58.5 102.938 59.22C101.524 59.94 100.038 60.3 98.4775 60.3C97.3042 60.3 96.2242 60.06 95.2375 59.58C94.2642 59.1 93.4175 58.3867 92.6975 57.44C91.9908 56.48 91.4375 55.2867 91.0375 53.86C90.6508 52.42 90.4575 50.74 90.4575 48.82C90.4575 45.82 90.7642 43.2067 91.3775 40.98C92.0042 38.7533 92.8442 36.9067 93.8975 35.44C94.9642 33.96 96.1975 32.86 97.5975 32.14C99.0108 31.4067 100.504 31.04 102.078 31.04C103.238 31.04 104.311 31.28 105.298 31.76C106.284 32.24 107.131 32.96 107.838 33.92C108.558 34.8667 109.118 36.06 109.518 37.5C109.918 38.94 110.118 40.62 110.118 42.54ZM106.578 42.36C106.578 40.8533 106.451 39.5667 106.198 38.5C105.944 37.4333 105.598 36.5667 105.158 35.9C104.718 35.22 104.198 34.7267 103.598 34.42C103.011 34.1 102.384 33.94 101.718 33.94C100.744 33.94 99.7908 34.2133 98.8575 34.76C97.9375 35.2933 97.1175 36.16 96.3975 37.36C95.6775 38.5467 95.0975 40.1 94.6575 42.02C94.2175 43.9267 93.9975 46.26 93.9975 49.02C93.9975 50.5267 94.1242 51.8133 94.3775 52.88C94.6308 53.9467 94.9708 54.8133 95.3975 55.48C95.8375 56.1467 96.3508 56.6333 96.9375 56.94C97.5242 57.2467 98.1508 57.4 98.8175 57.4C99.7908 57.4 100.744 57.14 101.678 56.62C102.611 56.0867 103.438 55.2267 104.158 54.04C104.891 52.84 105.478 51.2867 105.918 49.38C106.358 47.46 106.578 45.12 106.578 42.36ZM122.021 57.46C122.967 57.46 123.841 57.28 124.641 56.92C125.441 56.56 126.127 56.0667 126.701 55.44C127.287 54.8 127.741 54.0467 128.061 53.18C128.394 52.3133 128.561 51.3667 128.561 50.34C128.561 49.54 128.447 48.82 128.221 48.18C127.994 47.5267 127.674 46.98 127.261 46.54C126.847 46.0867 126.341 45.74 125.741 45.5C125.154 45.2467 124.494 45.12 123.761 45.12C122.814 45.12 121.947 45.3133 121.161 45.7C120.374 46.0733 119.694 46.58 119.121 47.22C118.561 47.86 118.121 48.6067 117.801 49.46C117.481 50.3133 117.321 51.22 117.321 52.18C117.321 52.94 117.421 53.6467 117.621 54.3C117.834 54.94 118.134 55.5 118.521 55.98C118.921 56.4467 119.414 56.8133 120.001 57.08C120.587 57.3333 121.261 57.46 122.021 57.46ZM122.101 42.12C121.847 42.4267 121.607 42.72 121.381 43C121.154 43.28 120.927 43.5533 120.701 43.82C121.354 43.3933 122.061 43.0667 122.821 42.84C123.581 42.6 124.381 42.48 125.221 42.48C126.181 42.48 127.074 42.6467 127.901 42.98C128.741 43.3133 129.467 43.7933 130.081 44.42C130.694 45.0467 131.174 45.8133 131.521 46.72C131.881 47.6267 132.061 48.66 132.061 49.82C132.061 51.3 131.794 52.68 131.261 53.96C130.741 55.24 130.021 56.3533 129.101 57.3C128.181 58.2333 127.087 58.9733 125.821 59.52C124.567 60.0533 123.207 60.32 121.741 60.32C120.541 60.32 119.461 60.1267 118.501 59.74C117.554 59.34 116.747 58.78 116.081 58.06C115.427 57.3267 114.921 56.4533 114.561 55.44C114.214 54.4133 114.041 53.2733 114.041 52.02C114.041 51.18 114.127 50.36 114.301 49.56C114.474 48.76 114.741 47.9533 115.101 47.14C115.461 46.3267 115.914 45.5 116.461 44.66C117.007 43.8067 117.654 42.92 118.401 42L126.261 32.2C126.461 31.96 126.734 31.76 127.081 31.6C127.427 31.44 127.801 31.36 128.201 31.36H131.261L122.101 42.12Z" fill="#7048C5"/>
</svg>
