<svg width="175" height="90" viewBox="0 0 175 90" fill="none" xmlns="http://www.w3.org/2000/svg">
<rect width="175" height="90" rx="20" fill="#F59EE2" fill-opacity="0.3"/>
<path d="M59.1338 56.74C59.5071 56.74 59.7871 56.8533 59.9738 57.08C60.1738 57.2933 60.2471 57.5733 60.1938 57.92L59.9538 60H42.2738L42.4137 58.82C42.4404 58.58 42.5204 58.3267 42.6538 58.06C42.7871 57.7933 42.9804 57.5533 43.2338 57.34L52.7538 48.08C53.6471 47.2 54.4538 46.3733 55.1738 45.6C55.8938 44.8133 56.5004 44.0333 56.9938 43.26C57.4871 42.4733 57.8671 41.68 58.1338 40.88C58.4004 40.0667 58.5338 39.1867 58.5338 38.24C58.5338 37.5333 58.4271 36.92 58.2138 36.4C58.0138 35.8667 57.7338 35.4267 57.3738 35.08C57.0138 34.72 56.5871 34.4533 56.0938 34.28C55.6004 34.0933 55.0604 34 54.4738 34C53.8204 34 53.2071 34.1067 52.6338 34.32C52.0604 34.5333 51.5338 34.8333 51.0538 35.22C50.5871 35.6067 50.1738 36.0667 49.8138 36.6C49.4538 37.1333 49.1738 37.72 48.9738 38.36C48.7738 38.8133 48.5338 39.12 48.2538 39.28C47.9738 39.4267 47.6004 39.46 47.1338 39.38L45.3738 39.08C45.7071 37.7733 46.1804 36.62 46.7938 35.62C47.4204 34.62 48.1538 33.78 48.9938 33.1C49.8338 32.42 50.7604 31.9067 51.7738 31.56C52.8004 31.2133 53.8871 31.04 55.0338 31.04C56.0738 31.04 57.0204 31.2 57.8738 31.52C58.7404 31.8267 59.4871 32.28 60.1138 32.88C60.7404 33.4667 61.2271 34.1867 61.5738 35.04C61.9204 35.88 62.0938 36.84 62.0938 37.92C62.0938 39.1467 61.9071 40.2667 61.5338 41.28C61.1738 42.2933 60.6804 43.2533 60.0538 44.16C59.4404 45.0533 58.7204 45.9267 57.8938 46.78C57.0804 47.62 56.2138 48.4867 55.2938 49.38L47.2738 57.24C47.8338 57.0933 48.3938 56.9733 48.9538 56.88C49.5138 56.7867 50.0471 56.74 50.5538 56.74H59.1338ZM85.9769 42.54C85.9769 45.54 85.6635 48.1533 85.0369 50.38C84.4102 52.6067 83.5635 54.46 82.4969 55.94C81.4435 57.4067 80.2102 58.5 78.7969 59.22C77.3835 59.94 75.8969 60.3 74.3369 60.3C73.1635 60.3 72.0835 60.06 71.0969 59.58C70.1235 59.1 69.2769 58.3867 68.5569 57.44C67.8502 56.48 67.2969 55.2867 66.8969 53.86C66.5102 52.42 66.3169 50.74 66.3169 48.82C66.3169 45.82 66.6235 43.2067 67.2369 40.98C67.8635 38.7533 68.7035 36.9067 69.7569 35.44C70.8235 33.96 72.0569 32.86 73.4569 32.14C74.8702 31.4067 76.3635 31.04 77.9369 31.04C79.0969 31.04 80.1702 31.28 81.1569 31.76C82.1435 32.24 82.9902 32.96 83.6969 33.92C84.4169 34.8667 84.9769 36.06 85.3769 37.5C85.7769 38.94 85.9769 40.62 85.9769 42.54ZM82.4369 42.36C82.4369 40.8533 82.3102 39.5667 82.0569 38.5C81.8035 37.4333 81.4569 36.5667 81.0169 35.9C80.5769 35.22 80.0569 34.7267 79.4569 34.42C78.8702 34.1 78.2435 33.94 77.5769 33.94C76.6035 33.94 75.6502 34.2133 74.7169 34.76C73.7969 35.2933 72.9769 36.16 72.2569 37.36C71.5369 38.5467 70.9569 40.1 70.5169 42.02C70.0769 43.9267 69.8569 46.26 69.8569 49.02C69.8569 50.5267 69.9835 51.8133 70.2369 52.88C70.4902 53.9467 70.8302 54.8133 71.2569 55.48C71.6969 56.1467 72.2102 56.6333 72.7969 56.94C73.3835 57.2467 74.0102 57.4 74.6769 57.4C75.6502 57.4 76.6035 57.14 77.5369 56.62C78.4702 56.0867 79.2969 55.2267 80.0169 54.04C80.7502 52.84 81.3369 51.2867 81.7769 49.38C82.2169 47.46 82.4369 45.12 82.4369 42.36ZM106.14 57.38L105.8 60H91.58L91.92 57.38H97.54L99.98 37.56C100.007 37.2933 100.04 37.02 100.08 36.74C100.133 36.46 100.187 36.1733 100.24 35.88L95.12 40.28C94.9333 40.4133 94.7533 40.5 94.58 40.54C94.4067 40.58 94.2467 40.5867 94.1 40.56C93.9667 40.52 93.8467 40.4667 93.74 40.4C93.6333 40.32 93.5533 40.24 93.5 40.16L92.62 38.66L101.38 31.28H104.2L101 57.38H106.14ZM132.383 42.54C132.383 45.54 132.07 48.1533 131.443 50.38C130.816 52.6067 129.97 54.46 128.903 55.94C127.85 57.4067 126.616 58.5 125.203 59.22C123.79 59.94 122.303 60.3 120.743 60.3C119.57 60.3 118.49 60.06 117.503 59.58C116.53 59.1 115.683 58.3867 114.963 57.44C114.256 56.48 113.703 55.2867 113.303 53.86C112.916 52.42 112.723 50.74 112.723 48.82C112.723 45.82 113.03 43.2067 113.643 40.98C114.27 38.7533 115.11 36.9067 116.163 35.44C117.23 33.96 118.463 32.86 119.863 32.14C121.276 31.4067 122.77 31.04 124.343 31.04C125.503 31.04 126.576 31.28 127.563 31.76C128.55 32.24 129.396 32.96 130.103 33.92C130.823 34.8667 131.383 36.06 131.783 37.5C132.183 38.94 132.383 40.62 132.383 42.54ZM128.843 42.36C128.843 40.8533 128.716 39.5667 128.463 38.5C128.21 37.4333 127.863 36.5667 127.423 35.9C126.983 35.22 126.463 34.7267 125.863 34.42C125.276 34.1 124.65 33.94 123.983 33.94C123.01 33.94 122.056 34.2133 121.123 34.76C120.203 35.2933 119.383 36.16 118.663 37.36C117.943 38.5467 117.363 40.1 116.923 42.02C116.483 43.9267 116.263 46.26 116.263 49.02C116.263 50.5267 116.39 51.8133 116.643 52.88C116.896 53.9467 117.236 54.8133 117.663 55.48C118.103 56.1467 118.616 56.6333 119.203 56.94C119.79 57.2467 120.416 57.4 121.083 57.4C122.056 57.4 123.01 57.14 123.943 56.62C124.876 56.0867 125.703 55.2267 126.423 54.04C127.156 52.84 127.743 51.2867 128.183 49.38C128.623 47.46 128.843 45.12 128.843 42.36Z" fill="#FB5CC2"/>
</svg>
