<svg width="175" height="90" viewBox="0 0 175 90" fill="none" xmlns="http://www.w3.org/2000/svg">
<rect width="175" height="90" rx="20" fill="#E7476E" fill-opacity="0.3"/>
<path d="M59.1338 56.74C59.5071 56.74 59.7871 56.8533 59.9738 57.08C60.1738 57.2933 60.2471 57.5733 60.1938 57.92L59.9538 60H42.2738L42.4137 58.82C42.4404 58.58 42.5204 58.3267 42.6538 58.06C42.7871 57.7933 42.9804 57.5533 43.2338 57.34L52.7538 48.08C53.6471 47.2 54.4538 46.3733 55.1738 45.6C55.8938 44.8133 56.5004 44.0333 56.9938 43.26C57.4871 42.4733 57.8671 41.68 58.1338 40.88C58.4004 40.0667 58.5338 39.1867 58.5338 38.24C58.5338 37.5333 58.4271 36.92 58.2138 36.4C58.0138 35.8667 57.7338 35.4267 57.3738 35.08C57.0138 34.72 56.5871 34.4533 56.0938 34.28C55.6004 34.0933 55.0604 34 54.4738 34C53.8204 34 53.2071 34.1067 52.6338 34.32C52.0604 34.5333 51.5338 34.8333 51.0538 35.22C50.5871 35.6067 50.1738 36.0667 49.8138 36.6C49.4538 37.1333 49.1738 37.72 48.9738 38.36C48.7738 38.8133 48.5338 39.12 48.2538 39.28C47.9738 39.4267 47.6004 39.46 47.1338 39.38L45.3738 39.08C45.7071 37.7733 46.1804 36.62 46.7938 35.62C47.4204 34.62 48.1538 33.78 48.9938 33.1C49.8338 32.42 50.7604 31.9067 51.7738 31.56C52.8004 31.2133 53.8871 31.04 55.0338 31.04C56.0738 31.04 57.0204 31.2 57.8738 31.52C58.7404 31.8267 59.4871 32.28 60.1138 32.88C60.7404 33.4667 61.2271 34.1867 61.5738 35.04C61.9204 35.88 62.0938 36.84 62.0938 37.92C62.0938 39.1467 61.9071 40.2667 61.5338 41.28C61.1738 42.2933 60.6804 43.2533 60.0538 44.16C59.4404 45.0533 58.7204 45.9267 57.8938 46.78C57.0804 47.62 56.2138 48.4867 55.2938 49.38L47.2738 57.24C47.8338 57.0933 48.3938 56.9733 48.9538 56.88C49.5138 56.7867 50.0471 56.74 50.5538 56.74H59.1338ZM85.9769 42.54C85.9769 45.54 85.6635 48.1533 85.0369 50.38C84.4102 52.6067 83.5635 54.46 82.4969 55.94C81.4435 57.4067 80.2102 58.5 78.7969 59.22C77.3835 59.94 75.8969 60.3 74.3369 60.3C73.1635 60.3 72.0835 60.06 71.0969 59.58C70.1235 59.1 69.2769 58.3867 68.5569 57.44C67.8502 56.48 67.2969 55.2867 66.8969 53.86C66.5102 52.42 66.3169 50.74 66.3169 48.82C66.3169 45.82 66.6235 43.2067 67.2369 40.98C67.8635 38.7533 68.7035 36.9067 69.7569 35.44C70.8235 33.96 72.0569 32.86 73.4569 32.14C74.8702 31.4067 76.3635 31.04 77.9369 31.04C79.0969 31.04 80.1702 31.28 81.1569 31.76C82.1435 32.24 82.9902 32.96 83.6969 33.92C84.4169 34.8667 84.9769 36.06 85.3769 37.5C85.7769 38.94 85.9769 40.62 85.9769 42.54ZM82.4369 42.36C82.4369 40.8533 82.3102 39.5667 82.0569 38.5C81.8035 37.4333 81.4569 36.5667 81.0169 35.9C80.5769 35.22 80.0569 34.7267 79.4569 34.42C78.8702 34.1 78.2435 33.94 77.5769 33.94C76.6035 33.94 75.6502 34.2133 74.7169 34.76C73.7969 35.2933 72.9769 36.16 72.2569 37.36C71.5369 38.5467 70.9569 40.1 70.5169 42.02C70.0769 43.9267 69.8569 46.26 69.8569 49.02C69.8569 50.5267 69.9835 51.8133 70.2369 52.88C70.4902 53.9467 70.8302 54.8133 71.2569 55.48C71.6969 56.1467 72.2102 56.6333 72.7969 56.94C73.3835 57.2467 74.0102 57.4 74.6769 57.4C75.6502 57.4 76.6035 57.14 77.5369 56.62C78.4702 56.0867 79.2969 55.2267 80.0169 54.04C80.7502 52.84 81.3369 51.2867 81.7769 49.38C82.2169 47.46 82.4369 45.12 82.4369 42.36ZM106.14 57.38L105.8 60H91.58L91.92 57.38H97.54L99.98 37.56C100.007 37.2933 100.04 37.02 100.08 36.74C100.133 36.46 100.187 36.1733 100.24 35.88L95.12 40.28C94.9333 40.4133 94.7533 40.5 94.58 40.54C94.4067 40.58 94.2467 40.5867 94.1 40.56C93.9667 40.52 93.8467 40.4667 93.74 40.4C93.6333 40.32 93.5533 40.24 93.5 40.16L92.62 38.66L101.38 31.28H104.2L101 57.38H106.14ZM121.083 57.58C122.03 57.58 122.883 57.4267 123.643 57.12C124.403 56.8 125.05 56.36 125.583 55.8C126.116 55.2267 126.523 54.5467 126.803 53.76C127.096 52.96 127.243 52.08 127.243 51.12C127.243 50.2933 127.11 49.5933 126.843 49.02C126.59 48.4333 126.243 47.9533 125.803 47.58C125.363 47.2067 124.85 46.94 124.263 46.78C123.69 46.6067 123.083 46.52 122.443 46.52C121.696 46.52 120.956 46.6333 120.223 46.86C119.503 47.0733 118.85 47.4333 118.263 47.94C117.69 48.4333 117.223 49.0933 116.863 49.92C116.503 50.7333 116.323 51.7333 116.323 52.92C116.323 53.6 116.43 54.2267 116.643 54.8C116.856 55.3733 117.163 55.8667 117.563 56.28C117.963 56.68 118.456 57 119.043 57.24C119.643 57.4667 120.323 57.58 121.083 57.58ZM124.043 33.7C123.176 33.7 122.41 33.8533 121.743 34.16C121.076 34.4667 120.516 34.88 120.063 35.4C119.623 35.92 119.283 36.5333 119.043 37.24C118.816 37.9333 118.703 38.68 118.703 39.48C118.703 40.04 118.776 40.58 118.923 41.1C119.07 41.6067 119.303 42.06 119.623 42.46C119.956 42.8467 120.383 43.16 120.903 43.4C121.423 43.64 122.05 43.76 122.783 43.76C123.676 43.76 124.456 43.6067 125.123 43.3C125.803 42.98 126.363 42.5533 126.803 42.02C127.256 41.4867 127.59 40.8667 127.803 40.16C128.03 39.44 128.143 38.6867 128.143 37.9C128.143 37.3267 128.056 36.7867 127.883 36.28C127.71 35.76 127.45 35.3133 127.103 34.94C126.77 34.5533 126.343 34.2533 125.823 34.04C125.316 33.8133 124.723 33.7 124.043 33.7ZM126.383 45.08C127.81 45.5467 128.896 46.2867 129.643 47.3C130.403 48.3133 130.783 49.5933 130.783 51.14C130.783 52.5533 130.53 53.8267 130.023 54.96C129.516 56.0933 128.816 57.06 127.923 57.86C127.043 58.6467 125.99 59.2533 124.763 59.68C123.536 60.1067 122.203 60.32 120.763 60.32C119.55 60.32 118.45 60.1533 117.463 59.82C116.476 59.4733 115.636 58.9933 114.943 58.38C114.25 57.7533 113.71 57 113.323 56.12C112.95 55.24 112.763 54.26 112.763 53.18C112.763 51.0333 113.283 49.2733 114.323 47.9C115.376 46.5267 116.896 45.5667 118.883 45.02C117.71 44.5133 116.823 43.7867 116.223 42.84C115.636 41.88 115.343 40.7533 115.343 39.46C115.343 38.2867 115.57 37.1867 116.023 36.16C116.476 35.1333 117.103 34.24 117.903 33.48C118.703 32.72 119.65 32.1267 120.743 31.7C121.85 31.26 123.056 31.04 124.363 31.04C125.47 31.04 126.463 31.2133 127.343 31.56C128.223 31.9067 128.97 32.38 129.583 32.98C130.21 33.58 130.69 34.2867 131.023 35.1C131.356 35.9 131.523 36.7667 131.523 37.7C131.523 39.4733 131.083 41 130.203 42.28C129.336 43.5467 128.063 44.48 126.383 45.08Z" fill="#E7476E"/>
</svg>
