<svg width="550" height="550" viewBox="0 0 550 550" fill="none" xmlns="http://www.w3.org/2000/svg">
<rect width="550" height="550" fill="#D9D9D9"/>
<path d="M131.2 275L129.16 269H112.96L111.22 275H101.14L113.5 234.2C115.66 232.34 126.76 231.08 128.56 236.36L141.76 275H131.2ZM120.76 243.5L115.06 261.5H126.82L120.76 243.5ZM159.536 275.24C156.956 275.24 142.976 275 142.976 275V233.3C146.336 233.18 153.776 232.94 159.296 232.94C176.336 232.94 181.136 243.98 181.136 254.3C181.136 264.68 177.296 275.24 159.536 275.24ZM152.876 241.46V267.2C161.756 267.2 171.476 268.46 171.356 254.36C171.236 240.38 162.476 241.46 152.876 241.46ZM199.966 275.24C197.386 275.24 183.406 275 183.406 275V233.3C186.766 233.18 194.206 232.94 199.726 232.94C216.766 232.94 221.566 243.98 221.566 254.3C221.566 264.68 217.726 275.24 199.966 275.24ZM193.306 241.46V267.2C202.186 267.2 211.906 268.46 211.786 254.36C211.666 240.38 202.906 241.46 193.306 241.46ZM233.735 237.5V275H223.835V233H227.615C230.195 233 233.735 233.66 233.735 237.5ZM246.164 254.3C246.164 265.64 252.464 268.16 258.284 268.16C264.284 268.16 269.684 265.46 271.244 262.1C271.244 262.1 271.844 262.34 272.564 263C273.224 263.84 273.884 264.86 273.884 266.48C273.884 272.66 264.044 275.66 257.144 275.66C241.184 275.66 235.964 266.84 235.964 254.3C235.964 241.76 240.944 232.58 256.964 232.58C265.364 232.58 273.164 236.18 273.164 242.54C273.164 245.66 269.684 247.1 269.684 247.1C268.784 244.4 264.764 241.1 257.624 241.1C251.324 241.1 246.164 244.16 246.164 254.3ZM286.36 254.3C286.36 265.64 292.66 268.16 298.48 268.16C304.48 268.16 309.88 265.46 311.44 262.1C311.44 262.1 312.04 262.34 312.76 263C313.42 263.84 314.08 264.86 314.08 266.48C314.08 272.66 304.24 275.66 297.34 275.66C281.38 275.66 276.16 266.84 276.16 254.3C276.16 241.76 281.14 232.58 297.16 232.58C305.56 232.58 313.36 236.18 313.36 242.54C313.36 245.66 309.88 247.1 309.88 247.1C308.98 244.4 304.96 241.1 297.82 241.1C291.52 241.1 286.36 244.16 286.36 254.3ZM326.555 254.3C326.555 265.64 332.855 268.16 338.675 268.16C344.675 268.16 350.075 265.46 351.635 262.1C351.635 262.1 352.235 262.34 352.955 263C353.615 263.84 354.275 264.86 354.275 266.48C354.275 272.66 344.435 275.66 337.535 275.66C321.575 275.66 316.355 266.84 316.355 254.3C316.355 241.76 321.335 232.58 337.355 232.58C345.755 232.58 353.555 236.18 353.555 242.54C353.555 245.66 350.075 247.1 350.075 247.1C349.175 244.4 345.155 241.1 338.015 241.1C331.715 241.1 326.555 244.16 326.555 254.3ZM366.45 237.5V275H356.55V233H360.33C362.91 233 366.45 233.66 366.45 237.5ZM368.679 254.3C368.679 239.18 374.259 232.28 389.139 232.28C403.899 232.28 409.899 239.18 409.899 254.24C409.899 269.24 403.899 275.66 389.139 275.66C374.259 275.66 368.679 269.3 368.679 254.3ZM378.759 254.48C378.759 263.54 381.579 267.38 389.139 267.38C396.939 267.38 399.759 263.54 399.759 254.48C399.759 245.24 396.939 241.34 389.139 241.34C381.579 241.34 378.759 245.36 378.759 254.48ZM385.779 228.5L386.679 224.24C386.859 223.1 387.639 222.5 388.659 222.5H393.939L390.879 228.5H385.779ZM438.436 275L421.936 246.98V275H412.156V233H417.856C424.036 233 424.636 234.98 427.036 239L438.436 258.56V233H442.276C446.836 233 448.276 233.36 448.276 237.5V275H438.436Z" fill="black"/>
<rect width="550" height="550" fill="#F5A7E4"/>
<path d="M171.2 291L169.16 285H152.96L151.22 291H141.14L153.5 250.2C155.66 248.34 166.76 247.08 168.56 252.36L181.76 291H171.2ZM160.76 259.5L155.06 277.5H166.82L160.76 259.5ZM199.536 291.24C196.956 291.24 182.976 291 182.976 291V249.3C186.336 249.18 193.776 248.94 199.296 248.94C216.336 248.94 221.136 259.98 221.136 270.3C221.136 280.68 217.296 291.24 199.536 291.24ZM192.876 257.46V283.2C201.756 283.2 211.476 284.46 211.356 270.36C211.236 256.38 202.476 257.46 192.876 257.46ZM233.306 253.5V291H223.406V249H227.186C229.766 249 233.306 249.66 233.306 253.5ZM245.735 270.3C245.735 281.64 252.035 284.16 257.855 284.16C263.855 284.16 269.255 281.46 270.815 278.1C270.815 278.1 271.415 278.34 272.135 279C272.795 279.84 273.455 280.86 273.455 282.48C273.455 288.66 263.615 291.66 256.715 291.66C240.755 291.66 235.535 282.84 235.535 270.3C235.535 257.76 240.515 248.58 256.535 248.58C264.935 248.58 272.735 252.18 272.735 258.54C272.735 261.66 269.255 263.1 269.255 263.1C268.355 260.4 264.335 257.1 257.195 257.1C250.895 257.1 245.735 260.16 245.735 270.3ZM285.93 270.3C285.93 281.64 292.23 284.16 298.05 284.16C304.05 284.16 309.45 281.46 311.01 278.1C311.01 278.1 311.61 278.34 312.33 279C312.99 279.84 313.65 280.86 313.65 282.48C313.65 288.66 303.81 291.66 296.91 291.66C280.95 291.66 275.73 282.84 275.73 270.3C275.73 257.76 280.71 248.58 296.73 248.58C305.13 248.58 312.93 252.18 312.93 258.54C312.93 261.66 309.45 263.1 309.45 263.1C308.55 260.4 304.53 257.1 297.39 257.1C291.09 257.1 285.93 260.16 285.93 270.3ZM325.825 253.5V291H315.925V249H319.705C322.285 249 325.825 249.66 325.825 253.5ZM328.054 270.3C328.054 255.18 333.634 248.28 348.514 248.28C363.274 248.28 369.274 255.18 369.274 270.24C369.274 285.24 363.274 291.66 348.514 291.66C333.634 291.66 328.054 285.3 328.054 270.3ZM338.134 270.48C338.134 279.54 340.954 283.38 348.514 283.38C356.314 283.38 359.134 279.54 359.134 270.48C359.134 261.24 356.314 257.34 348.514 257.34C340.954 257.34 338.134 261.36 338.134 270.48ZM345.154 244.5L346.054 240.24C346.234 239.1 347.014 238.5 348.034 238.5H353.314L350.254 244.5H345.154ZM397.811 291L381.311 262.98V291H371.531V249H377.231C383.411 249 384.011 250.98 386.411 255L397.811 274.56V249H401.651C406.211 249 407.651 249.36 407.651 253.5V291H397.811Z" fill="white"/>
</svg>
