<svg width="550" height="550" viewBox="0 0 550 550" fill="none" xmlns="http://www.w3.org/2000/svg">
<rect width="550" height="550" fill="#D9D9D9"/>
<path d="M131.2 275L129.16 269H112.96L111.22 275H101.14L113.5 234.2C115.66 232.34 126.76 231.08 128.56 236.36L141.76 275H131.2ZM120.76 243.5L115.06 261.5H126.82L120.76 243.5ZM159.536 275.24C156.956 275.24 142.976 275 142.976 275V233.3C146.336 233.18 153.776 232.94 159.296 232.94C176.336 232.94 181.136 243.98 181.136 254.3C181.136 264.68 177.296 275.24 159.536 275.24ZM152.876 241.46V267.2C161.756 267.2 171.476 268.46 171.356 254.36C171.236 240.38 162.476 241.46 152.876 241.46ZM199.966 275.24C197.386 275.24 183.406 275 183.406 275V233.3C186.766 233.18 194.206 232.94 199.726 232.94C216.766 232.94 221.566 243.98 221.566 254.3C221.566 264.68 217.726 275.24 199.966 275.24ZM193.306 241.46V267.2C202.186 267.2 211.906 268.46 211.786 254.36C211.666 240.38 202.906 241.46 193.306 241.46ZM233.735 237.5V275H223.835V233H227.615C230.195 233 233.735 233.66 233.735 237.5ZM246.164 254.3C246.164 265.64 252.464 268.16 258.284 268.16C264.284 268.16 269.684 265.46 271.244 262.1C271.244 262.1 271.844 262.34 272.564 263C273.224 263.84 273.884 264.86 273.884 266.48C273.884 272.66 264.044 275.66 257.144 275.66C241.184 275.66 235.964 266.84 235.964 254.3C235.964 241.76 240.944 232.58 256.964 232.58C265.364 232.58 273.164 236.18 273.164 242.54C273.164 245.66 269.684 247.1 269.684 247.1C268.784 244.4 264.764 241.1 257.624 241.1C251.324 241.1 246.164 244.16 246.164 254.3ZM286.36 254.3C286.36 265.64 292.66 268.16 298.48 268.16C304.48 268.16 309.88 265.46 311.44 262.1C311.44 262.1 312.04 262.34 312.76 263C313.42 263.84 314.08 264.86 314.08 266.48C314.08 272.66 304.24 275.66 297.34 275.66C281.38 275.66 276.16 266.84 276.16 254.3C276.16 241.76 281.14 232.58 297.16 232.58C305.56 232.58 313.36 236.18 313.36 242.54C313.36 245.66 309.88 247.1 309.88 247.1C308.98 244.4 304.96 241.1 297.82 241.1C291.52 241.1 286.36 244.16 286.36 254.3ZM326.555 254.3C326.555 265.64 332.855 268.16 338.675 268.16C344.675 268.16 350.075 265.46 351.635 262.1C351.635 262.1 352.235 262.34 352.955 263C353.615 263.84 354.275 264.86 354.275 266.48C354.275 272.66 344.435 275.66 337.535 275.66C321.575 275.66 316.355 266.84 316.355 254.3C316.355 241.76 321.335 232.58 337.355 232.58C345.755 232.58 353.555 236.18 353.555 242.54C353.555 245.66 350.075 247.1 350.075 247.1C349.175 244.4 345.155 241.1 338.015 241.1C331.715 241.1 326.555 244.16 326.555 254.3ZM366.45 237.5V275H356.55V233H360.33C362.91 233 366.45 233.66 366.45 237.5ZM368.679 254.3C368.679 239.18 374.259 232.28 389.139 232.28C403.899 232.28 409.899 239.18 409.899 254.24C409.899 269.24 403.899 275.66 389.139 275.66C374.259 275.66 368.679 269.3 368.679 254.3ZM378.759 254.48C378.759 263.54 381.579 267.38 389.139 267.38C396.939 267.38 399.759 263.54 399.759 254.48C399.759 245.24 396.939 241.34 389.139 241.34C381.579 241.34 378.759 245.36 378.759 254.48ZM385.779 228.5L386.679 224.24C386.859 223.1 387.639 222.5 388.659 222.5H393.939L390.879 228.5H385.779ZM438.436 275L421.936 246.98V275H412.156V233H417.856C424.036 233 424.636 234.98 427.036 239L438.436 258.56V233H442.276C446.836 233 448.276 233.36 448.276 237.5V275H438.436Z" fill="black"/>
<rect width="550" height="550" fill="#F5A7E4"/>
<path d="M131.2 291L129.16 285H112.96L111.22 291H101.14L113.5 250.2C115.66 248.34 126.76 247.08 128.56 252.36L141.76 291H131.2ZM120.76 259.5L115.06 277.5H126.82L120.76 259.5ZM159.536 291.24C156.956 291.24 142.976 291 142.976 291V249.3C146.336 249.18 153.776 248.94 159.296 248.94C176.336 248.94 181.136 259.98 181.136 270.3C181.136 280.68 177.296 291.24 159.536 291.24ZM152.876 257.46V283.2C161.756 283.2 171.476 284.46 171.356 270.36C171.236 256.38 162.476 257.46 152.876 257.46ZM199.966 291.24C197.386 291.24 183.406 291 183.406 291V249.3C186.766 249.18 194.206 248.94 199.726 248.94C216.766 248.94 221.566 259.98 221.566 270.3C221.566 280.68 217.726 291.24 199.966 291.24ZM193.306 257.46V283.2C202.186 283.2 211.906 284.46 211.786 270.36C211.666 256.38 202.906 257.46 193.306 257.46ZM233.735 253.5V291H223.835V249H227.615C230.195 249 233.735 249.66 233.735 253.5ZM246.164 270.3C246.164 281.64 252.464 284.16 258.284 284.16C264.284 284.16 269.684 281.46 271.244 278.1C271.244 278.1 271.844 278.34 272.564 279C273.224 279.84 273.884 280.86 273.884 282.48C273.884 288.66 264.044 291.66 257.144 291.66C241.184 291.66 235.964 282.84 235.964 270.3C235.964 257.76 240.944 248.58 256.964 248.58C265.364 248.58 273.164 252.18 273.164 258.54C273.164 261.66 269.684 263.1 269.684 263.1C268.784 260.4 264.764 257.1 257.624 257.1C251.324 257.1 246.164 260.16 246.164 270.3ZM286.36 270.3C286.36 281.64 292.66 284.16 298.48 284.16C304.48 284.16 309.88 281.46 311.44 278.1C311.44 278.1 312.04 278.34 312.76 279C313.42 279.84 314.08 280.86 314.08 282.48C314.08 288.66 304.24 291.66 297.34 291.66C281.38 291.66 276.16 282.84 276.16 270.3C276.16 257.76 281.14 248.58 297.16 248.58C305.56 248.58 313.36 252.18 313.36 258.54C313.36 261.66 309.88 263.1 309.88 263.1C308.98 260.4 304.96 257.1 297.82 257.1C291.52 257.1 286.36 260.16 286.36 270.3ZM326.555 270.3C326.555 281.64 332.855 284.16 338.675 284.16C344.675 284.16 350.075 281.46 351.635 278.1C351.635 278.1 352.235 278.34 352.955 279C353.615 279.84 354.275 280.86 354.275 282.48C354.275 288.66 344.435 291.66 337.535 291.66C321.575 291.66 316.355 282.84 316.355 270.3C316.355 257.76 321.335 248.58 337.355 248.58C345.755 248.58 353.555 252.18 353.555 258.54C353.555 261.66 350.075 263.1 350.075 263.1C349.175 260.4 345.155 257.1 338.015 257.1C331.715 257.1 326.555 260.16 326.555 270.3ZM366.45 253.5V291H356.55V249H360.33C362.91 249 366.45 249.66 366.45 253.5ZM368.679 270.3C368.679 255.18 374.259 248.28 389.139 248.28C403.899 248.28 409.899 255.18 409.899 270.24C409.899 285.24 403.899 291.66 389.139 291.66C374.259 291.66 368.679 285.3 368.679 270.3ZM378.759 270.48C378.759 279.54 381.579 283.38 389.139 283.38C396.939 283.38 399.759 279.54 399.759 270.48C399.759 261.24 396.939 257.34 389.139 257.34C381.579 257.34 378.759 261.36 378.759 270.48ZM385.779 244.5L386.679 240.24C386.859 239.1 387.639 238.5 388.659 238.5H393.939L390.879 244.5H385.779ZM438.436 291L421.936 262.98V291H412.156V249H417.856C424.036 249 424.636 250.98 427.036 255L438.436 274.56V249H442.276C446.836 249 448.276 249.36 448.276 253.5V291H438.436Z" fill="white"/>
</svg>
