<svg width="367" height="370" viewBox="0 0 367 370" fill="none" xmlns="http://www.w3.org/2000/svg">
<g clip-path="url(#clip0_2_7)">
<path d="M259 0H108C48.3532 0 0 48.3532 0 108V262C0 321.647 48.3532 370 108 370H259C318.647 370 367 321.647 367 262V108C367 48.3532 318.647 0 259 0Z" fill="black"/>
<path d="M227.532 173.722H235.737L237.375 162.464H228.627L227.532 173.722Z" fill="#E7476E"/>
<path d="M184.335 49.3035C108.322 49.3035 46.5264 103.216 46.5264 170.163C46.5264 222.298 84.2602 266.732 137.306 283.909C134.024 311.161 124.181 334.862 109.965 350.264C138.948 341.379 161.915 318.864 171.761 290.426C175.589 291.017 179.962 291.017 183.791 291.017C259.804 291.017 321.599 237.104 321.599 170.158C322.145 103.212 260.899 49.2988 184.336 49.2988L184.335 49.3035ZM298.08 141.727L295.893 180.829H286.596L284.955 141.727H298.08ZM276.207 141.727L274.566 180.829H265.815L264.174 141.727H276.207ZM81.526 141.727L79.3391 180.829H70.0423L68.4013 141.727H81.526ZM74.9654 200.974C70.5915 200.974 67.8554 197.418 67.8554 193.271C67.8554 188.533 70.5882 185.568 74.9654 185.568C79.3392 185.568 82.0753 189.124 82.0753 193.271C82.0719 197.418 79.3391 200.974 74.9654 200.974ZM146.055 174.313L121.993 171.353V171.944L137.304 192.679L127.462 198.605L118.165 174.904H117.619L107.231 198.013L98.4797 192.088L113.246 171.353V170.761L89.7322 173.722V161.872L113.246 164.833V164.241L98.4797 143.506L108.322 137.581L118.165 161.281L128.008 137.581L137.304 143.506L122.538 164.833V165.424L146.601 161.868V174.313H146.055ZM205.115 177.869C203.474 186.163 198.555 193.275 191.444 198.013C187.616 200.383 183.243 202.16 178.866 202.16C170.664 202.16 162.459 197.422 157.539 189.127C154.806 184.389 153.711 178.464 155.352 172.538C156.447 166.613 159.726 161.875 164.649 158.911C168.477 156.542 172.85 155.355 177.227 156.542C181.601 157.728 185.429 160.689 187.616 164.836C189.803 168.392 190.348 172.539 189.257 176.686C188.162 180.833 185.975 183.793 182.696 186.166C177.227 189.722 169.571 187.944 166.289 182.019C163.556 176.686 164.648 169.578 169.571 166.613C171.212 165.427 173.399 166.022 174.494 167.8C175.59 169.577 175.04 171.947 173.399 173.133C171.758 174.32 171.212 176.689 172.304 178.467C173.945 181.428 177.227 182.023 179.414 180.245C181.055 179.058 182.147 177.284 182.696 175.506C183.242 173.137 182.696 171.359 181.601 169.581C178.868 164.247 172.304 162.473 167.93 166.025C164.648 167.803 162.461 171.359 161.915 174.911C160.82 178.467 161.369 182.614 163.556 186.166C166.289 190.313 170.117 193.869 174.494 195.051C178.868 196.238 183.791 195.643 188.165 192.682C193.634 189.126 196.916 183.796 198.553 177.276C200.194 170.759 199.099 164.243 195.82 158.318C191.446 151.21 185.432 145.877 177.227 143.507C169.571 141.729 161.369 142.916 154.805 147.063C153.164 148.249 150.977 147.654 149.882 145.876C148.786 144.099 149.336 141.729 150.977 140.543C159.178 135.209 169.025 133.435 178.867 135.804C188.164 138.173 196.366 144.69 201.289 153.579C205.663 161.279 207.304 169.573 205.114 177.867L205.115 177.869ZM254.882 162.463H246.131L244.49 173.718H252.146V183.198H242.849L240.662 201.565H232.46L234.647 183.198H225.896L223.709 201.565H215.508L217.694 183.198H210.039V173.718H219.335L220.976 162.463H212.775V152.982L222.068 152.986L224.255 135.211H232.457L230.27 152.986H239.021L241.208 135.211H249.413L247.226 152.986H254.882V162.463ZM270.194 200.974C265.82 200.974 263.084 197.418 263.084 193.271C263.084 188.532 265.817 185.568 270.194 185.568C274.568 185.568 277.304 189.124 277.304 193.271C277.304 197.418 274.568 200.974 270.194 200.974ZM291.521 200.974C287.147 200.974 284.411 197.418 284.411 193.271C284.411 188.532 287.144 185.568 291.521 185.568C295.895 185.571 298.631 188.532 298.631 192.679C298.631 197.418 295.894 200.974 291.521 200.974Z" fill="#E7476E"/>
</g>
<defs>
<clipPath id="clip0_2_7">
<rect width="367" height="370" fill="white"/>
</clipPath>
</defs>
</svg>
