<svg width="367" height="370" viewBox="0 0 367 370" fill="none" xmlns="http://www.w3.org/2000/svg">
<g clip-path="url(#clip0_2_4)">
<path d="M259 0H108C48.3532 0 0 48.3532 0 108V262C0 321.647 48.3532 370 108 370H259C318.647 370 367 321.647 367 262V108C367 48.3532 318.647 0 259 0Z" fill="#FFDA76"/>
<path d="M130.996 152.172V137.655C135.192 136.271 140.787 134.198 148.48 132.125C155.476 130.052 163.17 128.668 171.56 127.285C179.95 125.901 187.644 124.522 195.337 123.828C203.031 123.139 210.027 122.444 216.32 122.444L224.013 127.285L184.849 310.442H214.92V325.648C211.422 328.41 206.529 330.488 201.631 333.251C196.733 335.324 191.142 337.397 185.546 339.47C179.951 341.543 174.355 342.927 168.76 343.616C163.165 344.306 157.569 345 152.676 345C141.485 345 134.493 342.927 130.293 338.781C126.098 334.639 124 329.799 124 324.964C124 319.434 124.698 313.904 125.4 308.375C126.098 302.845 127.498 297.315 128.898 290.406L158.272 158.394L130.996 152.172ZM167.365 56.1007C167.365 46.4247 170.863 38.8217 177.156 33.2924C183.449 27.7625 191.845 25 202.333 25C213.524 25 221.916 27.7625 228.209 33.2924C234.502 38.8223 238 46.4257 238 56.1007C238 65.0873 234.502 72.6898 228.209 77.5255C221.916 83.0554 212.823 85.8179 202.333 85.8179C192.542 85.8179 184.151 83.0554 177.156 77.5255C170.858 72.685 167.365 65.7763 167.365 56.1007Z" fill="#7048C5"/>
</g>
<defs>
<clipPath id="clip0_2_4">
<rect width="367" height="370" fill="white"/>
</clipPath>
</defs>
</svg>
