<svg width="367" height="370" viewBox="0 0 367 370" fill="none" xmlns="http://www.w3.org/2000/svg">
<rect width="367" height="370" rx="108" fill="#FB5CC2"/>
<path d="M319.027 169.194L199.098 59.138C190.183 50.954 175.817 50.954 166.902 59.138L46.9732 169.194C42.7825 173.036 45.7137 179.637 51.572 179.637H81.2774V301.161C81.2774 309.901 88.9012 317 98.288 317H146.676L146.678 230.351C146.678 221.611 154.302 214.512 163.72 214.512H202.28C211.698 214.512 219.322 221.611 219.322 230.351V317H267.71C277.097 317 284.721 309.901 284.721 301.161V179.637H314.426C320.286 179.637 323.218 173.036 319.027 169.194Z" fill="#4862C9"/>
</svg>
