<svg width="90" height="93" viewBox="0 0 90 93" fill="none" xmlns="http://www.w3.org/2000/svg">
<rect width="90" height="90" rx="30" fill="white"/>
<path d="M52.2273 36.5V79H45.7273C40.2273 79 35.7273 76.5 35.7273 70V29H43.4273C48.7273 29 52.2273 30.8 52.2273 36.5ZM34.9273 15.9C34.9273 11.9 39.0273 8.5 43.9273 8.5C49.0273 8.5 53.1273 11.9 53.1273 15.9C53.1273 19.9 49.0273 23.3 43.9273 23.3C39.0273 23.3 34.9273 19.9 34.9273 15.9Z" fill="#FE9359"/>
<path d="M52.2273 79V82H55.2273V79H52.2273ZM35.7273 29V26H32.7273V29H35.7273ZM49.2273 36.5V79H55.2273V36.5H49.2273ZM52.2273 76H45.7273V82H52.2273V76ZM45.7273 76C43.372 76 41.6258 75.4569 40.529 74.587C39.5476 73.8086 38.7273 72.4896 38.7273 70H32.7273C32.7273 74.0104 34.1571 77.1914 36.8007 79.288C39.3289 81.2931 42.5827 82 45.7273 82V76ZM38.7273 70V29H32.7273V70H38.7273ZM35.7273 32H43.4273V26H35.7273V32ZM43.4273 32C45.8436 32 47.2459 32.4311 48.0055 33.0055C48.5889 33.4465 49.2273 34.3006 49.2273 36.5H55.2273C55.2273 32.9994 54.1158 30.1035 51.6242 28.2195C49.3088 26.4689 46.3111 26 43.4273 26V32ZM37.9273 15.9C37.9273 14.0727 40.1163 11.5 43.9273 11.5V5.5C37.9384 5.5 31.9273 9.72728 31.9273 15.9H37.9273ZM43.9273 11.5C47.9844 11.5 50.1273 14.1103 50.1273 15.9H56.1273C56.1273 9.68966 50.0703 5.5 43.9273 5.5V11.5ZM50.1273 15.9C50.1273 17.6897 47.9844 20.3 43.9273 20.3V26.3C50.0703 26.3 56.1273 22.1103 56.1273 15.9H50.1273ZM43.9273 20.3C40.1163 20.3 37.9273 17.7273 37.9273 15.9H31.9273C31.9273 22.0727 37.9384 26.3 43.9273 26.3V20.3Z" fill="white"/>
</svg>
