<svg width="90" height="90" viewBox="0 0 90 90" fill="none" xmlns="http://www.w3.org/2000/svg">
<rect width="90" height="90" rx="30" fill="white"/>
<path d="M54.7915 14.2886C49.0428 10.1121 40.9583 10.1121 35.2088 14.2886L17.0754 27.4613C13.2454 30.2434 11 34.5051 11 39.0259V60.1579C11 68.3012 18.1318 74.8545 26.8667 74.8545H33.6667C34.9184 74.8545 35.9333 73.9038 35.9333 72.7313V55.7451C35.9333 51.0545 39.9926 47.2521 45 47.2521C50.0074 47.2521 54.0667 51.0545 54.0667 55.7451V72.7313C54.0667 73.9038 55.0816 74.8545 56.3333 74.8545H63.1333C71.8682 74.8545 79 68.3008 79 60.1579V39.0259C79 34.505 76.7546 30.2433 72.9246 27.4613L54.7915 14.2886Z" fill="#FE9359"/>
</svg>
