<svg width="90" height="90" viewBox="0 0 90 90" fill="none" xmlns="http://www.w3.org/2000/svg">
<rect width="90" height="90" rx="30" fill="white"/>
<path d="M11.2564 73.0252C10.0117 73.6128 9.38933 74.7879 9.59628 76.0614C9.80398 77.3349 10.841 78.314 12.1899 78.5101C14.1613 78.8039 21.0087 79.3914 27.7518 74.8862C33.1468 77.6287 39.06 79 44.9739 79C54.3107 79 63.5444 75.5715 70.4954 69.0093C84.5015 55.7861 84.5015 34.1402 70.4954 20.9174C56.4893 7.69421 33.5618 7.69421 19.5561 20.9174C6.38015 33.3568 5.44662 53.2398 17.2737 66.6585C15.6136 69.7932 13.6422 71.948 11.2564 73.0254L11.2564 73.0252ZM21.9422 23.2683C28.0631 17.4896 36.2594 14.2572 44.9739 14.2572C53.6884 14.2572 61.8847 17.4894 68.0055 23.2683C80.6625 35.2178 80.6625 54.8071 68.0055 66.7566C57.5273 76.6491 41.239 78.6086 28.4782 71.5562L27.4405 70.9686L26.5069 71.6546C22.2532 74.7892 17.3771 75.5721 13.8499 75.3768C16.6512 73.7117 19.0372 70.9693 20.8009 67.1494L21.2156 66.1696L20.489 65.386C9.18159 53.2397 9.80389 34.7269 21.9421 23.2689L21.9422 23.2683ZM44.9739 64.6018H45.1816H45.3893H46.1158C48.3982 64.5041 50.5765 64.0142 52.7556 63.1329C57.8393 61.1741 61.8854 57.3542 63.9602 52.5546C66.0349 47.7551 66.0349 42.3685 63.9602 37.5688C61.8854 32.769 57.8393 28.9493 52.7556 26.9905C47.6718 25.0318 41.9664 25.0318 36.8824 26.9905C31.7987 28.9493 27.7526 32.7692 25.6779 37.5688C23.6031 42.3684 23.6031 47.7549 25.6779 52.5546C29.1009 59.9984 36.8819 64.6019 44.9746 64.6019L44.9739 64.6018ZM30.2419 53.5337H34.4957C35.3258 55.7863 36.3628 58.0396 37.7116 59.8022C34.7026 58.431 32.0054 56.2762 30.2419 53.5337ZM36.3628 45.0125C36.3628 43.2498 36.5705 41.4864 36.8816 39.8213H43.7291V50.3019H36.9859C36.5705 48.4408 36.3628 46.6774 36.3628 45.0125ZM61.3656 39.8213C62.6103 43.2498 62.6103 46.8734 61.3656 50.3019H57.423C57.8377 48.4408 58.0454 46.6781 58.0454 45.1108C58.0454 43.3481 57.8377 41.5847 57.5265 39.9196L61.3657 39.9189L61.3656 39.8213ZM54.6217 45.0125C54.6217 46.6775 54.414 48.4409 53.8951 50.2036H47.152V39.723H53.9994C54.4148 41.4864 54.6217 43.2498 54.6217 45.0125ZM47.1527 60.8797V53.4359H52.8589C51.51 56.962 49.4346 59.9005 47.1527 60.8797ZM47.1527 36.4909V29.0471C49.5387 30.0269 51.6134 32.8671 53.0666 36.4909H47.1527ZM43.7291 29.0466V36.4904H37.8152C39.2676 32.8665 41.3424 30.0264 43.7291 29.0466ZM43.7291 53.5333V60.9771C41.4467 59.8996 39.4753 57.0596 38.0229 53.5333H43.7291ZM53.7925 59.0181C54.9337 57.3531 55.7638 55.3943 56.4897 53.4348H59.7056C58.2532 55.7864 56.1784 57.6469 53.7925 59.0181ZM59.7056 36.4904H56.6974C56.075 34.6292 55.245 32.8665 54.3114 31.2992C56.4897 32.572 58.3567 34.3354 59.7056 36.4904ZM37.1927 30.4172C35.948 32.1799 35.0137 34.2371 34.2878 36.4897H30.2417C31.9018 33.9432 34.2878 31.7884 37.1927 30.4172ZM28.5818 39.8204H33.3545C33.0433 41.5831 32.8356 43.3465 32.8356 45.0116C32.8356 46.6767 33.0433 48.4401 33.458 50.2028H28.4783C27.3371 46.7743 27.3371 43.1506 28.5818 39.8206L28.5818 39.8204Z" fill="#FE9359"/>
</svg>
