<svg width="1264" height="105" viewBox="0 0 1264 105" fill="none" xmlns="http://www.w3.org/2000/svg">
<rect width="643" height="45" rx="10" transform="matrix(-1 0 0 1 1248 0)" fill="#F5A7E4"/>
<rect width="1233" height="75" rx="20" transform="matrix(-1 0 0 1 1233 30)" fill="#F5A7E4" fill-opacity="0.7"/>
<path d="M633.995 24.9L631.025 17.01C630.785 16.4 630.54 15.625 630.29 14.685C630.18 15.155 630.06 15.59 629.93 15.99C629.8 16.38 629.68 16.725 629.57 17.025L626.6 24.9H633.995ZM640.64 33H637.925C637.615 33 637.365 32.925 637.175 32.775C636.985 32.615 636.84 32.42 636.74 32.19L634.94 27.42H625.64L623.84 32.19C623.76 32.39 623.62 32.575 623.42 32.745C623.22 32.915 622.97 33 622.67 33H619.955L628.52 11.4H632.075L640.64 33ZM645.727 29.16C646.177 29.74 646.667 30.15 647.197 30.39C647.737 30.62 648.332 30.735 648.982 30.735C650.242 30.735 651.222 30.275 651.922 29.355C652.632 28.435 652.987 27.065 652.987 25.245C652.987 24.305 652.907 23.505 652.747 22.845C652.587 22.175 652.357 21.63 652.057 21.21C651.757 20.79 651.392 20.485 650.962 20.295C650.532 20.105 650.047 20.01 649.507 20.01C648.687 20.01 647.977 20.19 647.377 20.55C646.787 20.9 646.237 21.405 645.727 22.065V29.16ZM645.562 19.92C646.202 19.17 646.927 18.565 647.737 18.105C648.557 17.645 649.507 17.415 650.587 17.415C651.447 17.415 652.227 17.59 652.927 17.94C653.627 18.28 654.227 18.78 654.727 19.44C655.227 20.1 655.612 20.92 655.882 21.9C656.162 22.87 656.302 23.985 656.302 25.245C656.302 26.375 656.147 27.43 655.837 28.41C655.537 29.38 655.102 30.225 654.532 30.945C653.962 31.655 653.272 32.215 652.462 32.625C651.652 33.025 650.737 33.225 649.717 33.225C648.817 33.225 648.052 33.08 647.422 32.79C646.802 32.5 646.237 32.1 645.727 31.59V38.085H642.502V17.7H644.452C644.892 17.7 645.172 17.905 645.292 18.315L645.562 19.92ZM666.051 17.46C667.181 17.46 668.201 17.645 669.111 18.015C670.031 18.385 670.811 18.91 671.451 19.59C672.101 20.27 672.601 21.095 672.951 22.065C673.301 23.035 673.476 24.125 673.476 25.335C673.476 26.545 673.301 27.635 672.951 28.605C672.601 29.575 672.101 30.405 671.451 31.095C670.811 31.775 670.031 32.3 669.111 32.67C668.201 33.04 667.181 33.225 666.051 33.225C664.911 33.225 663.881 33.04 662.961 32.67C662.051 32.3 661.271 31.775 660.621 31.095C659.971 30.405 659.471 29.575 659.121 28.605C658.771 27.635 658.596 26.545 658.596 25.335C658.596 24.125 658.771 23.035 659.121 22.065C659.471 21.095 659.971 20.27 660.621 19.59C661.271 18.91 662.051 18.385 662.961 18.015C663.881 17.645 664.911 17.46 666.051 17.46ZM666.051 30.705C667.431 30.705 668.456 30.245 669.126 29.325C669.806 28.395 670.146 27.07 670.146 25.35C670.146 23.63 669.806 22.305 669.126 21.375C668.456 20.435 667.431 19.965 666.051 19.965C664.651 19.965 663.611 20.435 662.931 21.375C662.251 22.305 661.911 23.63 661.911 25.35C661.911 27.07 662.251 28.395 662.931 29.325C663.611 30.245 664.651 30.705 666.051 30.705ZM689.651 17.7L681.221 37.35C681.111 37.58 680.976 37.76 680.816 37.89C680.666 38.02 680.431 38.085 680.111 38.085H677.726L680.546 31.965L674.306 17.7H677.111C677.381 17.7 677.586 17.765 677.726 17.895C677.876 18.015 677.986 18.16 678.056 18.33L681.701 27.015C681.791 27.265 681.871 27.515 681.941 27.765C682.021 28.005 682.096 28.255 682.166 28.515C682.246 28.255 682.326 28 682.406 27.75C682.486 27.5 682.576 27.25 682.676 27L686.171 18.33C686.241 18.15 686.356 18 686.516 17.88C686.686 17.76 686.871 17.7 687.071 17.7H689.651ZM697.926 17.46C699.056 17.46 700.076 17.645 700.986 18.015C701.906 18.385 702.686 18.91 703.326 19.59C703.976 20.27 704.476 21.095 704.826 22.065C705.176 23.035 705.351 24.125 705.351 25.335C705.351 26.545 705.176 27.635 704.826 28.605C704.476 29.575 703.976 30.405 703.326 31.095C702.686 31.775 701.906 32.3 700.986 32.67C700.076 33.04 699.056 33.225 697.926 33.225C696.786 33.225 695.756 33.04 694.836 32.67C693.926 32.3 693.146 31.775 692.496 31.095C691.846 30.405 691.346 29.575 690.996 28.605C690.646 27.635 690.471 26.545 690.471 25.335C690.471 24.125 690.646 23.035 690.996 22.065C691.346 21.095 691.846 20.27 692.496 19.59C693.146 18.91 693.926 18.385 694.836 18.015C695.756 17.645 696.786 17.46 697.926 17.46ZM697.926 30.705C699.306 30.705 700.331 30.245 701.001 29.325C701.681 28.395 702.021 27.07 702.021 25.35C702.021 23.63 701.681 22.305 701.001 21.375C700.331 20.435 699.306 19.965 697.926 19.965C696.526 19.965 695.486 20.435 694.806 21.375C694.126 22.305 693.786 23.63 693.786 25.35C693.786 27.07 694.126 28.395 694.806 29.325C695.486 30.245 696.526 30.705 697.926 30.705ZM724.095 26.31C722.945 26.35 721.975 26.445 721.185 26.595C720.395 26.735 719.755 26.92 719.265 27.15C718.775 27.37 718.42 27.635 718.2 27.945C717.99 28.255 717.885 28.595 717.885 28.965C717.885 29.325 717.94 29.635 718.05 29.895C718.17 30.145 718.33 30.355 718.53 30.525C718.74 30.685 718.98 30.805 719.25 30.885C719.53 30.955 719.835 30.99 720.165 30.99C721.005 30.99 721.725 30.835 722.325 30.525C722.935 30.205 723.525 29.745 724.095 29.145V26.31ZM715.545 19.83C717.275 18.22 719.335 17.415 721.725 17.415C722.605 17.415 723.385 17.56 724.065 17.85C724.755 18.13 725.33 18.53 725.79 19.05C726.26 19.57 726.615 20.19 726.855 20.91C727.105 21.62 727.23 22.41 727.23 23.28V33H725.79C725.48 33 725.245 32.955 725.085 32.865C724.925 32.765 724.79 32.57 724.68 32.28L724.365 31.035C723.975 31.385 723.59 31.7 723.21 31.98C722.83 32.25 722.435 32.48 722.025 32.67C721.625 32.86 721.19 33 720.72 33.09C720.26 33.19 719.75 33.24 719.19 33.24C718.57 33.24 717.99 33.155 717.45 32.985C716.92 32.815 716.46 32.56 716.07 32.22C715.68 31.87 715.37 31.44 715.14 30.93C714.92 30.42 714.81 29.82 714.81 29.13C714.81 28.54 714.965 27.965 715.275 27.405C715.595 26.845 716.115 26.345 716.835 25.905C717.565 25.455 718.52 25.085 719.7 24.795C720.89 24.505 722.355 24.34 724.095 24.3V23.28C724.095 22.18 723.86 21.36 723.39 20.82C722.92 20.28 722.23 20.01 721.32 20.01C720.7 20.01 720.18 20.09 719.76 20.25C719.34 20.4 718.975 20.565 718.665 20.745C718.355 20.925 718.08 21.095 717.84 21.255C717.6 21.405 717.345 21.48 717.075 21.48C716.855 21.48 716.665 21.425 716.505 21.315C716.355 21.195 716.23 21.05 716.13 20.88L715.545 19.83ZM756.04 11.4L747.28 33H744.115L735.355 11.4H738.16C738.47 11.4 738.72 11.48 738.91 11.64C739.1 11.79 739.245 11.98 739.345 12.21L744.91 26.295C745.21 27.085 745.485 27.995 745.735 29.025C745.845 28.515 745.96 28.03 746.08 27.57C746.21 27.11 746.35 26.685 746.5 26.295L752.05 12.21C752.13 12.01 752.27 11.825 752.47 11.655C752.67 11.485 752.92 11.4 753.22 11.4H756.04ZM760.589 17.7V33H757.379V17.7H760.589ZM763.874 11.16L760.259 15.045C760.099 15.225 759.939 15.35 759.779 15.42C759.629 15.49 759.429 15.525 759.179 15.525H757.259L759.434 11.895C759.574 11.645 759.734 11.46 759.914 11.34C760.104 11.22 760.379 11.16 760.739 11.16H763.874ZM775.456 20.7C775.356 20.83 775.261 20.93 775.171 21C775.081 21.07 774.951 21.105 774.781 21.105C774.611 21.105 774.431 21.045 774.241 20.925C774.061 20.805 773.841 20.675 773.581 20.535C773.331 20.385 773.026 20.25 772.666 20.13C772.306 20.01 771.856 19.95 771.316 19.95C770.616 19.95 770.001 20.075 769.471 20.325C768.951 20.575 768.511 20.935 768.151 21.405C767.801 21.865 767.536 22.43 767.356 23.1C767.186 23.76 767.101 24.505 767.101 25.335C767.101 26.195 767.196 26.96 767.386 27.63C767.576 28.3 767.846 28.865 768.196 29.325C768.556 29.785 768.986 30.135 769.486 30.375C769.996 30.615 770.566 30.735 771.196 30.735C771.816 30.735 772.321 30.66 772.711 30.51C773.101 30.36 773.426 30.195 773.686 30.015C773.946 29.835 774.166 29.67 774.346 29.52C774.536 29.37 774.736 29.295 774.946 29.295C775.206 29.295 775.406 29.395 775.546 29.595L776.461 30.78C776.091 31.23 775.681 31.61 775.231 31.92C774.781 32.23 774.306 32.485 773.806 32.685C773.306 32.875 772.786 33.01 772.246 33.09C771.706 33.18 771.161 33.225 770.611 33.225C769.661 33.225 768.771 33.05 767.941 32.7C767.121 32.34 766.401 31.825 765.781 31.155C765.171 30.475 764.686 29.65 764.326 28.68C763.976 27.7 763.801 26.585 763.801 25.335C763.801 24.205 763.961 23.16 764.281 22.2C764.601 21.23 765.066 20.395 765.676 19.695C766.296 18.995 767.061 18.45 767.971 18.06C768.881 17.66 769.931 17.46 771.121 17.46C772.231 17.46 773.206 17.64 774.046 18C774.896 18.36 775.651 18.87 776.311 19.53L775.456 20.7ZM793.905 33H790.68V20.235H783.225V28.92C783.225 29.47 783.36 29.89 783.63 30.18C783.9 30.47 784.26 30.615 784.71 30.615C784.96 30.615 785.175 30.585 785.355 30.525C785.535 30.455 785.69 30.385 785.82 30.315C785.95 30.235 786.06 30.165 786.15 30.105C786.25 30.035 786.345 30 786.435 30C786.615 30 786.76 30.1 786.87 30.3L787.83 31.875C787.33 32.315 786.74 32.655 786.06 32.895C785.38 33.125 784.68 33.24 783.96 33.24C782.69 33.24 781.71 32.885 781.02 32.175C780.34 31.455 780 30.445 780 29.145V20.235H778.32C778.14 20.235 777.985 20.18 777.855 20.07C777.725 19.95 777.66 19.775 777.66 19.545V18.24L780.135 17.88L780.84 13.455C780.89 13.285 780.975 13.15 781.095 13.05C781.215 12.94 781.375 12.885 781.575 12.885H783.225V17.91H793.905V33ZM794.565 13.005C794.565 13.295 794.505 13.57 794.385 13.83C794.275 14.08 794.12 14.305 793.92 14.505C793.72 14.695 793.485 14.85 793.215 14.97C792.955 15.08 792.68 15.135 792.39 15.135C792.1 15.135 791.825 15.08 791.565 14.97C791.315 14.85 791.09 14.695 790.89 14.505C790.7 14.305 790.545 14.08 790.425 13.83C790.315 13.57 790.26 13.295 790.26 13.005C790.26 12.705 790.315 12.425 790.425 12.165C790.545 11.895 790.7 11.665 790.89 11.475C791.09 11.275 791.315 11.12 791.565 11.01C791.825 10.89 792.1 10.83 792.39 10.83C792.68 10.83 792.955 10.89 793.215 11.01C793.485 11.12 793.72 11.275 793.92 11.475C794.12 11.665 794.275 11.895 794.385 12.165C794.505 12.425 794.565 12.705 794.565 13.005ZM797.981 33V17.7H799.931C800.371 17.7 800.651 17.905 800.771 18.315L800.981 19.65C801.261 19.33 801.551 19.04 801.851 18.78C802.151 18.51 802.471 18.28 802.811 18.09C803.161 17.89 803.531 17.735 803.921 17.625C804.321 17.515 804.751 17.46 805.211 17.46C805.701 17.46 806.151 17.53 806.561 17.67C806.971 17.81 807.331 18.01 807.641 18.27C807.961 18.53 808.236 18.845 808.466 19.215C808.696 19.585 808.886 20 809.036 20.46C809.266 19.93 809.556 19.475 809.906 19.095C810.256 18.715 810.646 18.405 811.076 18.165C811.506 17.925 811.961 17.75 812.441 17.64C812.931 17.52 813.426 17.46 813.926 17.46C814.746 17.46 815.476 17.59 816.116 17.85C816.766 18.11 817.311 18.49 817.751 18.99C818.201 19.48 818.541 20.085 818.771 20.805C819.001 21.525 819.116 22.345 819.116 23.265V33H815.891V23.265C815.891 22.185 815.656 21.375 815.186 20.835C814.726 20.285 814.041 20.01 813.131 20.01C812.721 20.01 812.336 20.08 811.976 20.22C811.616 20.36 811.301 20.565 811.031 20.835C810.761 21.105 810.546 21.445 810.386 21.855C810.236 22.255 810.161 22.725 810.161 23.265V33H806.936V23.265C806.936 22.145 806.711 21.325 806.261 20.805C805.811 20.275 805.151 20.01 804.281 20.01C803.681 20.01 803.126 20.165 802.616 20.475C802.106 20.775 801.636 21.19 801.206 21.72V33H797.981ZM831.058 26.31C829.908 26.35 828.938 26.445 828.148 26.595C827.358 26.735 826.718 26.92 826.228 27.15C825.738 27.37 825.383 27.635 825.163 27.945C824.953 28.255 824.848 28.595 824.848 28.965C824.848 29.325 824.903 29.635 825.013 29.895C825.133 30.145 825.293 30.355 825.493 30.525C825.703 30.685 825.943 30.805 826.213 30.885C826.493 30.955 826.798 30.99 827.128 30.99C827.968 30.99 828.688 30.835 829.288 30.525C829.898 30.205 830.488 29.745 831.058 29.145V26.31ZM822.508 19.83C824.238 18.22 826.298 17.415 828.688 17.415C829.568 17.415 830.348 17.56 831.028 17.85C831.718 18.13 832.293 18.53 832.753 19.05C833.223 19.57 833.578 20.19 833.818 20.91C834.068 21.62 834.193 22.41 834.193 23.28V33H832.753C832.443 33 832.208 32.955 832.048 32.865C831.888 32.765 831.753 32.57 831.643 32.28L831.328 31.035C830.938 31.385 830.553 31.7 830.173 31.98C829.793 32.25 829.398 32.48 828.988 32.67C828.588 32.86 828.153 33 827.683 33.09C827.223 33.19 826.713 33.24 826.153 33.24C825.533 33.24 824.953 33.155 824.413 32.985C823.883 32.815 823.423 32.56 823.033 32.22C822.643 31.87 822.333 31.44 822.103 30.93C821.883 30.42 821.773 29.82 821.773 29.13C821.773 28.54 821.928 27.965 822.238 27.405C822.558 26.845 823.078 26.345 823.798 25.905C824.528 25.455 825.483 25.085 826.663 24.795C827.853 24.505 829.318 24.34 831.058 24.3V23.28C831.058 22.18 830.823 21.36 830.353 20.82C829.883 20.28 829.193 20.01 828.283 20.01C827.663 20.01 827.143 20.09 826.723 20.25C826.303 20.4 825.938 20.565 825.628 20.745C825.318 20.925 825.043 21.095 824.803 21.255C824.563 21.405 824.308 21.48 824.038 21.48C823.818 21.48 823.628 21.425 823.468 21.315C823.318 21.195 823.193 21.05 823.093 20.88L822.508 19.83ZM847.106 20.475C847.026 20.615 846.936 20.715 846.836 20.775C846.736 20.835 846.611 20.865 846.461 20.865C846.291 20.865 846.106 20.815 845.906 20.715C845.706 20.605 845.471 20.485 845.201 20.355C844.931 20.225 844.611 20.11 844.241 20.01C843.881 19.9 843.456 19.845 842.966 19.845C842.566 19.845 842.201 19.895 841.871 19.995C841.551 20.085 841.276 20.22 841.046 20.4C840.826 20.57 840.656 20.775 840.536 21.015C840.416 21.245 840.356 21.495 840.356 21.765C840.356 22.125 840.466 22.425 840.686 22.665C840.906 22.905 841.196 23.115 841.556 23.295C841.916 23.465 842.326 23.62 842.786 23.76C843.246 23.9 843.716 24.05 844.196 24.21C844.676 24.37 845.146 24.555 845.606 24.765C846.066 24.975 846.476 25.235 846.836 25.545C847.196 25.845 847.486 26.215 847.706 26.655C847.926 27.085 848.036 27.61 848.036 28.23C848.036 28.95 847.906 29.615 847.646 30.225C847.386 30.835 847.006 31.365 846.506 31.815C846.006 32.265 845.381 32.615 844.631 32.865C843.891 33.115 843.041 33.24 842.081 33.24C841.551 33.24 841.036 33.19 840.536 33.09C840.046 33 839.576 32.875 839.126 32.715C838.686 32.545 838.271 32.345 837.881 32.115C837.501 31.885 837.161 31.635 836.861 31.365L837.611 30.135C837.701 29.985 837.811 29.87 837.941 29.79C838.081 29.7 838.251 29.655 838.451 29.655C838.661 29.655 838.866 29.725 839.066 29.865C839.276 29.995 839.516 30.14 839.786 30.3C840.066 30.46 840.401 30.61 840.791 30.75C841.181 30.88 841.666 30.945 842.246 30.945C842.726 30.945 843.141 30.89 843.491 30.78C843.841 30.66 844.131 30.5 844.361 30.3C844.591 30.1 844.761 29.875 844.871 29.625C844.981 29.365 845.036 29.09 845.036 28.8C845.036 28.41 844.926 28.09 844.706 27.84C844.486 27.59 844.191 27.375 843.821 27.195C843.461 27.015 843.046 26.855 842.576 26.715C842.116 26.575 841.646 26.425 841.166 26.265C840.686 26.105 840.211 25.92 839.741 25.71C839.281 25.5 838.866 25.235 838.496 24.915C838.136 24.585 837.846 24.19 837.626 23.73C837.406 23.26 837.296 22.69 837.296 22.02C837.296 21.41 837.416 20.83 837.656 20.28C837.906 19.73 838.266 19.245 838.736 18.825C839.216 18.405 839.801 18.075 840.491 17.835C841.191 17.585 841.996 17.46 842.906 17.46C843.936 17.46 844.871 17.625 845.711 17.955C846.551 18.285 847.256 18.735 847.826 19.305L847.106 20.475ZM868.302 21.465C867.852 20.885 867.357 20.48 866.817 20.25C866.277 20.02 865.692 19.905 865.062 19.905C863.802 19.905 862.817 20.37 862.107 21.3C861.397 22.22 861.042 23.585 861.042 25.395C861.042 26.335 861.122 27.14 861.282 27.81C861.442 28.47 861.672 29.01 861.972 29.43C862.272 29.85 862.637 30.155 863.067 30.345C863.497 30.535 863.982 30.63 864.522 30.63C865.342 30.63 866.047 30.455 866.637 30.105C867.237 29.745 867.792 29.24 868.302 28.59V21.465ZM871.527 10.8V33H869.577C869.147 33 868.872 32.795 868.752 32.385L868.467 30.72C867.827 31.47 867.097 32.075 866.277 32.535C865.467 32.995 864.522 33.225 863.442 33.225C862.582 33.225 861.802 33.055 861.102 32.715C860.402 32.365 859.802 31.86 859.302 31.2C858.802 30.54 858.412 29.725 858.132 28.755C857.862 27.775 857.727 26.655 857.727 25.395C857.727 24.255 857.877 23.2 858.177 22.23C858.487 21.26 858.927 20.42 859.497 19.71C860.067 18.99 860.757 18.43 861.567 18.03C862.387 17.62 863.302 17.415 864.312 17.415C865.212 17.415 865.977 17.56 866.607 17.85C867.237 18.13 867.802 18.525 868.302 19.035V10.8H871.527ZM885.506 23.625C885.506 23.085 885.426 22.585 885.266 22.125C885.116 21.655 884.891 21.25 884.591 20.91C884.291 20.56 883.916 20.29 883.466 20.1C883.026 19.9 882.516 19.8 881.936 19.8C880.766 19.8 879.846 20.135 879.176 20.805C878.506 21.475 878.081 22.415 877.901 23.625H885.506ZM877.811 25.605C877.851 26.475 877.986 27.23 878.216 27.87C878.446 28.5 878.751 29.025 879.131 29.445C879.521 29.865 879.981 30.18 880.511 30.39C881.051 30.59 881.651 30.69 882.311 30.69C882.941 30.69 883.486 30.62 883.946 30.48C884.406 30.33 884.806 30.17 885.146 30C885.486 29.82 885.776 29.66 886.016 29.52C886.256 29.37 886.476 29.295 886.676 29.295C886.936 29.295 887.136 29.395 887.276 29.595L888.191 30.78C887.811 31.23 887.381 31.61 886.901 31.92C886.421 32.23 885.911 32.485 885.371 32.685C884.831 32.875 884.276 33.01 883.706 33.09C883.136 33.18 882.581 33.225 882.041 33.225C880.981 33.225 879.996 33.05 879.086 32.7C878.186 32.34 877.401 31.815 876.731 31.125C876.071 30.435 875.551 29.58 875.171 28.56C874.801 27.54 874.616 26.365 874.616 25.035C874.616 23.975 874.781 22.985 875.111 22.065C875.451 21.145 875.931 20.345 876.551 19.665C877.181 18.985 877.941 18.45 878.831 18.06C879.731 17.66 880.746 17.46 881.876 17.46C882.816 17.46 883.686 17.615 884.486 17.925C885.286 18.225 885.976 18.67 886.556 19.26C887.136 19.85 887.586 20.575 887.906 21.435C888.236 22.285 888.401 23.255 888.401 24.345C888.401 24.845 888.346 25.18 888.236 25.35C888.126 25.52 887.926 25.605 887.636 25.605H877.811ZM916.441 11.4L907.681 33H904.516L895.756 11.4H898.561C898.871 11.4 899.121 11.48 899.311 11.64C899.501 11.79 899.646 11.98 899.746 12.21L905.311 26.295C905.611 27.085 905.886 27.995 906.136 29.025C906.246 28.515 906.361 28.03 906.481 27.57C906.611 27.11 906.751 26.685 906.901 26.295L912.451 12.21C912.531 12.01 912.671 11.825 912.871 11.655C913.071 11.485 913.321 11.4 913.621 11.4H916.441ZM921.721 17.7V33H918.496V17.7H921.721ZM922.261 13.08C922.261 13.37 922.201 13.645 922.081 13.905C921.971 14.165 921.816 14.395 921.616 14.595C921.416 14.785 921.181 14.94 920.911 15.06C920.651 15.17 920.371 15.225 920.071 15.225C919.781 15.225 919.506 15.17 919.246 15.06C918.996 14.94 918.776 14.785 918.586 14.595C918.396 14.395 918.241 14.165 918.121 13.905C918.011 13.645 917.956 13.37 917.956 13.08C917.956 12.78 918.011 12.5 918.121 12.24C918.241 11.98 918.396 11.755 918.586 11.565C918.776 11.365 918.996 11.21 919.246 11.1C919.506 10.98 919.781 10.92 920.071 10.92C920.371 10.92 920.651 10.98 920.911 11.1C921.181 11.21 921.416 11.365 921.616 11.565C921.816 11.755 921.971 11.98 922.081 12.24C922.201 12.5 922.261 12.78 922.261 13.08ZM932.389 17.46C933.519 17.46 934.539 17.645 935.449 18.015C936.369 18.385 937.149 18.91 937.789 19.59C938.439 20.27 938.939 21.095 939.289 22.065C939.639 23.035 939.814 24.125 939.814 25.335C939.814 26.545 939.639 27.635 939.289 28.605C938.939 29.575 938.439 30.405 937.789 31.095C937.149 31.775 936.369 32.3 935.449 32.67C934.539 33.04 933.519 33.225 932.389 33.225C931.249 33.225 930.219 33.04 929.299 32.67C928.389 32.3 927.609 31.775 926.959 31.095C926.309 30.405 925.809 29.575 925.459 28.605C925.109 27.635 924.934 26.545 924.934 25.335C924.934 24.125 925.109 23.035 925.459 22.065C925.809 21.095 926.309 20.27 926.959 19.59C927.609 18.91 928.389 18.385 929.299 18.015C930.219 17.645 931.249 17.46 932.389 17.46ZM932.389 30.705C933.769 30.705 934.794 30.245 935.464 29.325C936.144 28.395 936.484 27.07 936.484 25.35C936.484 23.63 936.144 22.305 935.464 21.375C934.794 20.435 933.769 19.965 932.389 19.965C930.989 19.965 929.949 20.435 929.269 21.375C928.589 22.305 928.249 23.63 928.249 25.35C928.249 27.07 928.589 28.395 929.269 29.325C929.949 30.245 930.989 30.705 932.389 30.705ZM946.197 10.8V33H942.972V10.8H946.197ZM960.213 23.625C960.213 23.085 960.133 22.585 959.973 22.125C959.823 21.655 959.598 21.25 959.298 20.91C958.998 20.56 958.623 20.29 958.173 20.1C957.733 19.9 957.223 19.8 956.643 19.8C955.473 19.8 954.553 20.135 953.883 20.805C953.213 21.475 952.788 22.415 952.608 23.625H960.213ZM952.518 25.605C952.558 26.475 952.693 27.23 952.923 27.87C953.153 28.5 953.458 29.025 953.838 29.445C954.228 29.865 954.688 30.18 955.218 30.39C955.758 30.59 956.358 30.69 957.018 30.69C957.648 30.69 958.193 30.62 958.653 30.48C959.113 30.33 959.513 30.17 959.853 30C960.193 29.82 960.483 29.66 960.723 29.52C960.963 29.37 961.183 29.295 961.383 29.295C961.643 29.295 961.843 29.395 961.983 29.595L962.898 30.78C962.518 31.23 962.088 31.61 961.608 31.92C961.128 32.23 960.618 32.485 960.078 32.685C959.538 32.875 958.983 33.01 958.413 33.09C957.843 33.18 957.288 33.225 956.748 33.225C955.688 33.225 954.703 33.05 953.793 32.7C952.893 32.34 952.108 31.815 951.438 31.125C950.778 30.435 950.258 29.58 949.878 28.56C949.508 27.54 949.323 26.365 949.323 25.035C949.323 23.975 949.488 22.985 949.818 22.065C950.158 21.145 950.638 20.345 951.258 19.665C951.888 18.985 952.648 18.45 953.538 18.06C954.438 17.66 955.453 17.46 956.583 17.46C957.523 17.46 958.393 17.615 959.193 17.925C959.993 18.225 960.683 18.67 961.263 19.26C961.843 19.85 962.293 20.575 962.613 21.435C962.943 22.285 963.108 23.255 963.108 24.345C963.108 24.845 963.053 25.18 962.943 25.35C962.833 25.52 962.633 25.605 962.343 25.605H952.518ZM969.13 19.725C969.46 19.385 969.8 19.08 970.15 18.81C970.51 18.53 970.89 18.29 971.29 18.09C971.69 17.89 972.115 17.735 972.565 17.625C973.015 17.515 973.505 17.46 974.035 17.46C974.875 17.46 975.61 17.6 976.24 17.88C976.88 18.16 977.415 18.555 977.845 19.065C978.285 19.575 978.615 20.19 978.835 20.91C979.055 21.62 979.165 22.405 979.165 23.265V33H975.955V23.265C975.955 22.235 975.715 21.435 975.235 20.865C974.765 20.295 974.045 20.01 973.075 20.01C972.355 20.01 971.685 20.175 971.065 20.505C970.455 20.835 969.88 21.285 969.34 21.855V33H966.115V17.7H968.065C968.505 17.7 968.785 17.905 968.905 18.315L969.13 19.725ZM993.747 20.7C993.647 20.83 993.552 20.93 993.462 21C993.372 21.07 993.242 21.105 993.072 21.105C992.902 21.105 992.722 21.045 992.532 20.925C992.352 20.805 992.132 20.675 991.872 20.535C991.622 20.385 991.317 20.25 990.957 20.13C990.597 20.01 990.147 19.95 989.607 19.95C988.907 19.95 988.292 20.075 987.762 20.325C987.242 20.575 986.802 20.935 986.442 21.405C986.092 21.865 985.827 22.43 985.647 23.1C985.477 23.76 985.392 24.505 985.392 25.335C985.392 26.195 985.487 26.96 985.677 27.63C985.867 28.3 986.137 28.865 986.487 29.325C986.847 29.785 987.277 30.135 987.777 30.375C988.287 30.615 988.857 30.735 989.487 30.735C990.107 30.735 990.612 30.66 991.002 30.51C991.392 30.36 991.717 30.195 991.977 30.015C992.237 29.835 992.457 29.67 992.637 29.52C992.827 29.37 993.027 29.295 993.237 29.295C993.497 29.295 993.697 29.395 993.837 29.595L994.752 30.78C994.382 31.23 993.972 31.61 993.522 31.92C993.072 32.23 992.597 32.485 992.097 32.685C991.597 32.875 991.077 33.01 990.537 33.09C989.997 33.18 989.452 33.225 988.902 33.225C987.952 33.225 987.062 33.05 986.232 32.7C985.412 32.34 984.692 31.825 984.072 31.155C983.462 30.475 982.977 29.65 982.617 28.68C982.267 27.7 982.092 26.585 982.092 25.335C982.092 24.205 982.252 23.16 982.572 22.2C982.892 21.23 983.357 20.395 983.967 19.695C984.587 18.995 985.352 18.45 986.262 18.06C987.172 17.66 988.222 17.46 989.412 17.46C990.522 17.46 991.497 17.64 992.337 18C993.187 18.36 993.942 18.87 994.602 19.53L993.747 20.7ZM1000.71 17.7V33H997.481V17.7H1000.71ZM1001.25 13.08C1001.25 13.37 1001.19 13.645 1001.07 13.905C1000.96 14.165 1000.8 14.395 1000.6 14.595C1000.4 14.785 1000.17 14.94 999.896 15.06C999.636 15.17 999.356 15.225 999.056 15.225C998.766 15.225 998.491 15.17 998.231 15.06C997.981 14.94 997.761 14.785 997.571 14.595C997.381 14.395 997.226 14.165 997.106 13.905C996.996 13.645 996.941 13.37 996.941 13.08C996.941 12.78 996.996 12.5 997.106 12.24C997.226 11.98 997.381 11.755 997.571 11.565C997.761 11.365 997.981 11.21 998.231 11.1C998.491 10.98 998.766 10.92 999.056 10.92C999.356 10.92 999.636 10.98 999.896 11.1C1000.17 11.21 1000.4 11.365 1000.6 11.565C1000.8 11.755 1000.96 11.98 1001.07 12.24C1001.19 12.5 1001.25 12.78 1001.25 13.08ZM1012.93 26.31C1011.78 26.35 1010.81 26.445 1010.02 26.595C1009.23 26.735 1008.59 26.92 1008.1 27.15C1007.61 27.37 1007.26 27.635 1007.04 27.945C1006.83 28.255 1006.72 28.595 1006.72 28.965C1006.72 29.325 1006.78 29.635 1006.89 29.895C1007.01 30.145 1007.17 30.355 1007.37 30.525C1007.58 30.685 1007.82 30.805 1008.09 30.885C1008.37 30.955 1008.67 30.99 1009 30.99C1009.84 30.99 1010.56 30.835 1011.16 30.525C1011.77 30.205 1012.36 29.745 1012.93 29.145V26.31ZM1004.38 19.83C1006.11 18.22 1008.17 17.415 1010.56 17.415C1011.44 17.415 1012.22 17.56 1012.9 17.85C1013.59 18.13 1014.17 18.53 1014.63 19.05C1015.1 19.57 1015.45 20.19 1015.69 20.91C1015.94 21.62 1016.07 22.41 1016.07 23.28V33H1014.63C1014.32 33 1014.08 32.955 1013.92 32.865C1013.76 32.765 1013.63 32.57 1013.52 32.28L1013.2 31.035C1012.81 31.385 1012.43 31.7 1012.05 31.98C1011.67 32.25 1011.27 32.48 1010.86 32.67C1010.46 32.86 1010.03 33 1009.56 33.09C1009.1 33.19 1008.59 33.24 1008.03 33.24C1007.41 33.24 1006.83 33.155 1006.29 32.985C1005.76 32.815 1005.3 32.56 1004.91 32.22C1004.52 31.87 1004.21 31.44 1003.98 30.93C1003.76 30.42 1003.65 29.82 1003.65 29.13C1003.65 28.54 1003.8 27.965 1004.11 27.405C1004.43 26.845 1004.95 26.345 1005.67 25.905C1006.4 25.455 1007.36 25.085 1008.54 24.795C1009.73 24.505 1011.19 24.34 1012.93 24.3V23.28C1012.93 22.18 1012.7 21.36 1012.23 20.82C1011.76 20.28 1011.07 20.01 1010.16 20.01C1009.54 20.01 1009.02 20.09 1008.6 20.25C1008.18 20.4 1007.81 20.565 1007.5 20.745C1007.19 20.925 1006.92 21.095 1006.68 21.255C1006.44 21.405 1006.18 21.48 1005.91 21.48C1005.69 21.48 1005.5 21.425 1005.34 21.315C1005.19 21.195 1005.07 21.05 1004.97 20.88L1004.38 19.83ZM1027.14 22.605H1034.74V25.335H1027.14V22.605ZM1052.65 30.57C1053.3 30.57 1053.9 30.465 1054.44 30.255C1054.98 30.035 1055.44 29.735 1055.82 29.355C1056.21 28.975 1056.51 28.525 1056.72 28.005C1056.93 27.485 1057.03 26.92 1057.03 26.31C1057.03 25.65 1056.93 25.06 1056.72 24.54C1056.52 24.01 1056.23 23.565 1055.85 23.205C1055.48 22.845 1055.03 22.57 1054.5 22.38C1053.98 22.18 1053.4 22.08 1052.77 22.08C1052.12 22.08 1051.53 22.19 1051 22.41C1050.48 22.63 1050.04 22.93 1049.67 23.31C1049.3 23.69 1049.01 24.135 1048.81 24.645C1048.61 25.155 1048.51 25.695 1048.51 26.265C1048.51 26.905 1048.6 27.49 1048.78 28.02C1048.96 28.55 1049.23 29.005 1049.58 29.385C1049.93 29.755 1050.36 30.045 1050.87 30.255C1051.39 30.465 1051.98 30.57 1052.65 30.57ZM1051.47 19.35C1051.31 19.55 1051.15 19.74 1051 19.92C1050.86 20.1 1050.72 20.28 1050.58 20.46C1051.04 20.2 1051.55 19.995 1052.1 19.845C1052.65 19.695 1053.24 19.62 1053.87 19.62C1054.71 19.62 1055.51 19.76 1056.28 20.04C1057.05 20.31 1057.73 20.72 1058.31 21.27C1058.9 21.81 1059.37 22.485 1059.72 23.295C1060.07 24.095 1060.24 25.02 1060.24 26.07C1060.24 27.07 1060.06 28.005 1059.69 28.875C1059.33 29.745 1058.82 30.505 1058.16 31.155C1057.5 31.795 1056.7 32.305 1055.77 32.685C1054.85 33.055 1053.83 33.24 1052.71 33.24C1051.59 33.24 1050.58 33.06 1049.68 32.7C1048.78 32.34 1048.01 31.835 1047.37 31.185C1046.74 30.525 1046.26 29.735 1045.92 28.815C1045.58 27.895 1045.41 26.87 1045.41 25.74C1045.41 24.76 1045.62 23.735 1046.04 22.665C1046.46 21.595 1047.11 20.47 1047.99 19.29L1053.3 12.165C1053.46 11.955 1053.69 11.775 1053.99 11.625C1054.3 11.475 1054.64 11.4 1055.02 11.4H1057.87L1051.47 19.35ZM1077.96 22.2C1077.96 24.09 1077.76 25.725 1077.35 27.105C1076.95 28.485 1076.39 29.63 1075.68 30.54C1074.97 31.45 1074.14 32.125 1073.18 32.565C1072.22 33.005 1071.18 33.225 1070.07 33.225C1068.96 33.225 1067.93 33.005 1066.97 32.565C1066.01 32.125 1065.17 31.45 1064.46 30.54C1063.76 29.63 1063.21 28.485 1062.81 27.105C1062.41 25.725 1062.21 24.09 1062.21 22.2C1062.21 20.31 1062.41 18.675 1062.81 17.295C1063.21 15.905 1063.76 14.76 1064.46 13.86C1065.17 12.95 1066.01 12.275 1066.97 11.835C1067.93 11.385 1068.96 11.16 1070.07 11.16C1071.18 11.16 1072.22 11.385 1073.18 11.835C1074.14 12.275 1074.97 12.95 1075.68 13.86C1076.39 14.76 1076.95 15.905 1077.35 17.295C1077.76 18.675 1077.96 20.31 1077.96 22.2ZM1074.63 22.2C1074.63 20.6 1074.5 19.27 1074.24 18.21C1073.99 17.14 1073.66 16.285 1073.24 15.645C1072.82 15.005 1072.33 14.55 1071.78 14.28C1071.23 14.01 1070.66 13.875 1070.07 13.875C1069.47 13.875 1068.9 14.01 1068.35 14.28C1067.81 14.55 1067.33 15.005 1066.91 15.645C1066.49 16.285 1066.15 17.14 1065.9 18.21C1065.65 19.27 1065.53 20.6 1065.53 22.2C1065.53 23.8 1065.65 25.135 1065.9 26.205C1066.15 27.265 1066.49 28.115 1066.91 28.755C1067.33 29.395 1067.81 29.85 1068.35 30.12C1068.9 30.39 1069.47 30.525 1070.07 30.525C1070.66 30.525 1071.23 30.39 1071.78 30.12C1072.33 29.85 1072.82 29.395 1073.24 28.755C1073.66 28.115 1073.99 27.265 1074.24 26.205C1074.5 25.135 1074.63 23.8 1074.63 22.2ZM1095.36 22.2C1095.36 24.09 1095.16 25.725 1094.75 27.105C1094.35 28.485 1093.79 29.63 1093.08 30.54C1092.37 31.45 1091.54 32.125 1090.58 32.565C1089.62 33.005 1088.58 33.225 1087.47 33.225C1086.36 33.225 1085.33 33.005 1084.37 32.565C1083.41 32.125 1082.57 31.45 1081.86 30.54C1081.16 29.63 1080.61 28.485 1080.21 27.105C1079.81 25.725 1079.61 24.09 1079.61 22.2C1079.61 20.31 1079.81 18.675 1080.21 17.295C1080.61 15.905 1081.16 14.76 1081.86 13.86C1082.57 12.95 1083.41 12.275 1084.37 11.835C1085.33 11.385 1086.36 11.16 1087.47 11.16C1088.58 11.16 1089.62 11.385 1090.58 11.835C1091.54 12.275 1092.37 12.95 1093.08 13.86C1093.79 14.76 1094.35 15.905 1094.75 17.295C1095.16 18.675 1095.36 20.31 1095.36 22.2ZM1092.03 22.2C1092.03 20.6 1091.9 19.27 1091.64 18.21C1091.39 17.14 1091.06 16.285 1090.64 15.645C1090.22 15.005 1089.73 14.55 1089.18 14.28C1088.63 14.01 1088.06 13.875 1087.47 13.875C1086.87 13.875 1086.3 14.01 1085.75 14.28C1085.21 14.55 1084.73 15.005 1084.31 15.645C1083.89 16.285 1083.55 17.14 1083.3 18.21C1083.05 19.27 1082.93 20.6 1082.93 22.2C1082.93 23.8 1083.05 25.135 1083.3 26.205C1083.55 27.265 1083.89 28.115 1084.31 28.755C1084.73 29.395 1085.21 29.85 1085.75 30.12C1086.3 30.39 1086.87 30.525 1087.47 30.525C1088.06 30.525 1088.63 30.39 1089.18 30.12C1089.73 29.85 1090.22 29.395 1090.64 28.755C1091.06 28.115 1091.39 27.265 1091.64 26.205C1091.9 25.135 1092.03 23.8 1092.03 22.2ZM1112.36 30.69C1113.01 30.69 1113.59 30.6 1114.1 30.42C1114.61 30.23 1115.04 29.97 1115.38 29.64C1115.73 29.3 1115.99 28.9 1116.17 28.44C1116.35 27.98 1116.44 27.48 1116.44 26.94C1116.44 26.28 1116.34 25.71 1116.13 25.23C1115.93 24.75 1115.64 24.355 1115.27 24.045C1114.91 23.725 1114.48 23.49 1113.98 23.34C1113.48 23.18 1112.94 23.1 1112.36 23.1C1111.78 23.1 1111.24 23.18 1110.74 23.34C1110.24 23.49 1109.81 23.725 1109.44 24.045C1109.08 24.355 1108.79 24.75 1108.58 25.23C1108.38 25.71 1108.28 26.28 1108.28 26.94C1108.28 27.48 1108.37 27.98 1108.55 28.44C1108.73 28.9 1108.99 29.3 1109.33 29.64C1109.68 29.97 1110.11 30.23 1110.62 30.42C1111.13 30.6 1111.71 30.69 1112.36 30.69ZM1112.36 13.635C1111.77 13.635 1111.25 13.725 1110.8 13.905C1110.36 14.085 1110 14.325 1109.71 14.625C1109.42 14.925 1109.2 15.28 1109.05 15.69C1108.91 16.09 1108.84 16.515 1108.84 16.965C1108.84 17.415 1108.9 17.855 1109.02 18.285C1109.15 18.715 1109.35 19.1 1109.62 19.44C1109.9 19.77 1110.26 20.035 1110.71 20.235C1111.16 20.435 1111.71 20.535 1112.36 20.535C1113.01 20.535 1113.56 20.435 1114.01 20.235C1114.46 20.035 1114.82 19.77 1115.09 19.44C1115.37 19.1 1115.57 18.715 1115.69 18.285C1115.82 17.855 1115.89 17.415 1115.89 16.965C1115.89 16.515 1115.81 16.09 1115.66 15.69C1115.52 15.28 1115.3 14.925 1115 14.625C1114.71 14.325 1114.35 14.085 1113.91 13.905C1113.47 13.725 1112.95 13.635 1112.36 13.635ZM1115.77 21.735C1117.1 22.145 1118.09 22.795 1118.75 23.685C1119.42 24.575 1119.76 25.68 1119.76 27C1119.76 27.95 1119.58 28.81 1119.22 29.58C1118.86 30.35 1118.35 31.005 1117.7 31.545C1117.05 32.085 1116.27 32.505 1115.36 32.805C1114.46 33.095 1113.46 33.24 1112.36 33.24C1111.26 33.24 1110.26 33.095 1109.35 32.805C1108.45 32.505 1107.67 32.085 1107.02 31.545C1106.37 31.005 1105.87 30.35 1105.51 29.58C1105.15 28.81 1104.97 27.95 1104.97 27C1104.97 25.68 1105.3 24.575 1105.96 23.685C1106.63 22.795 1107.63 22.145 1108.96 21.735C1107.88 21.305 1107.06 20.68 1106.51 19.86C1105.97 19.04 1105.7 18.055 1105.7 16.905C1105.7 16.095 1105.86 15.34 1106.18 14.64C1106.5 13.94 1106.95 13.335 1107.53 12.825C1108.12 12.305 1108.83 11.9 1109.65 11.61C1110.47 11.31 1111.37 11.16 1112.36 11.16C1113.35 11.16 1114.25 11.31 1115.06 11.61C1115.88 11.9 1116.58 12.305 1117.16 12.825C1117.75 13.335 1118.21 13.94 1118.53 14.64C1118.86 15.34 1119.02 16.095 1119.02 16.905C1119.02 18.055 1118.75 19.04 1118.2 19.86C1117.66 20.68 1116.85 21.305 1115.77 21.735ZM1136.47 30.555V33H1124.69V30.555H1129.19V17.025C1129.19 16.545 1129.21 16.055 1129.24 15.555L1125.77 18.48C1125.62 18.6 1125.47 18.68 1125.31 18.72C1125.16 18.75 1125.01 18.75 1124.87 18.72C1124.74 18.69 1124.62 18.645 1124.51 18.585C1124.41 18.515 1124.33 18.44 1124.27 18.36L1123.27 16.95L1129.78 11.355H1132.4V30.555H1136.47ZM1147.17 30.69C1147.82 30.69 1148.4 30.6 1148.91 30.42C1149.42 30.23 1149.84 29.97 1150.18 29.64C1150.53 29.3 1150.8 28.9 1150.98 28.44C1151.16 27.98 1151.25 27.48 1151.25 26.94C1151.25 26.28 1151.14 25.71 1150.93 25.23C1150.73 24.75 1150.45 24.355 1150.08 24.045C1149.72 23.725 1149.29 23.49 1148.79 23.34C1148.29 23.18 1147.75 23.1 1147.17 23.1C1146.59 23.1 1146.05 23.18 1145.55 23.34C1145.05 23.49 1144.61 23.725 1144.24 24.045C1143.88 24.355 1143.6 24.75 1143.39 25.23C1143.19 25.71 1143.09 26.28 1143.09 26.94C1143.09 27.48 1143.18 27.98 1143.36 28.44C1143.54 28.9 1143.8 29.3 1144.14 29.64C1144.49 29.97 1144.92 30.23 1145.43 30.42C1145.94 30.6 1146.52 30.69 1147.17 30.69ZM1147.17 13.635C1146.58 13.635 1146.06 13.725 1145.61 13.905C1145.17 14.085 1144.8 14.325 1144.51 14.625C1144.22 14.925 1144 15.28 1143.85 15.69C1143.71 16.09 1143.64 16.515 1143.64 16.965C1143.64 17.415 1143.7 17.855 1143.82 18.285C1143.95 18.715 1144.15 19.1 1144.42 19.44C1144.7 19.77 1145.07 20.035 1145.52 20.235C1145.97 20.435 1146.52 20.535 1147.17 20.535C1147.82 20.535 1148.37 20.435 1148.82 20.235C1149.27 20.035 1149.63 19.77 1149.9 19.44C1150.18 19.1 1150.38 18.715 1150.5 18.285C1150.63 17.855 1150.69 17.415 1150.69 16.965C1150.69 16.515 1150.62 16.09 1150.47 15.69C1150.33 15.28 1150.11 14.925 1149.81 14.625C1149.52 14.325 1149.15 14.085 1148.71 13.905C1148.27 13.725 1147.76 13.635 1147.17 13.635ZM1150.57 21.735C1151.9 22.145 1152.9 22.795 1153.56 23.685C1154.23 24.575 1154.56 25.68 1154.56 27C1154.56 27.95 1154.38 28.81 1154.02 29.58C1153.66 30.35 1153.16 31.005 1152.51 31.545C1151.86 32.085 1151.08 32.505 1150.17 32.805C1149.27 33.095 1148.27 33.24 1147.17 33.24C1146.07 33.24 1145.06 33.095 1144.15 32.805C1143.25 32.505 1142.48 32.085 1141.83 31.545C1141.18 31.005 1140.67 30.35 1140.31 29.58C1139.95 28.81 1139.77 27.95 1139.77 27C1139.77 25.68 1140.1 24.575 1140.76 23.685C1141.43 22.795 1142.43 22.145 1143.76 21.735C1142.68 21.305 1141.87 20.68 1141.32 19.86C1140.78 19.04 1140.51 18.055 1140.51 16.905C1140.51 16.095 1140.67 15.34 1140.99 14.64C1141.31 13.94 1141.76 13.335 1142.34 12.825C1142.93 12.305 1143.63 11.9 1144.45 11.61C1145.27 11.31 1146.18 11.16 1147.17 11.16C1148.16 11.16 1149.06 11.31 1149.87 11.61C1150.69 11.9 1151.39 12.305 1151.97 12.825C1152.56 13.335 1153.01 13.94 1153.33 14.64C1153.66 15.34 1153.83 16.095 1153.83 16.905C1153.83 18.055 1153.55 19.04 1153 19.86C1152.46 20.68 1151.65 21.305 1150.57 21.735ZM1178.74 30.555V33H1166.97V30.555H1171.47V17.025C1171.47 16.545 1171.48 16.055 1171.51 15.555L1168.05 18.48C1167.9 18.6 1167.74 18.68 1167.58 18.72C1167.43 18.75 1167.29 18.75 1167.15 18.72C1167.02 18.69 1166.9 18.645 1166.79 18.585C1166.69 18.515 1166.61 18.44 1166.55 18.36L1165.54 16.95L1172.05 11.355H1174.68V30.555H1178.74ZM1197.32 22.2C1197.32 24.09 1197.11 25.725 1196.7 27.105C1196.3 28.485 1195.75 29.63 1195.04 30.54C1194.33 31.45 1193.49 32.125 1192.53 32.565C1191.57 33.005 1190.54 33.225 1189.43 33.225C1188.32 33.225 1187.28 33.005 1186.32 32.565C1185.36 32.125 1184.53 31.45 1183.82 30.54C1183.12 29.63 1182.57 28.485 1182.17 27.105C1181.77 25.725 1181.57 24.09 1181.57 22.2C1181.57 20.31 1181.77 18.675 1182.17 17.295C1182.57 15.905 1183.12 14.76 1183.82 13.86C1184.53 12.95 1185.36 12.275 1186.32 11.835C1187.28 11.385 1188.32 11.16 1189.43 11.16C1190.54 11.16 1191.57 11.385 1192.53 11.835C1193.49 12.275 1194.33 12.95 1195.04 13.86C1195.75 14.76 1196.3 15.905 1196.7 17.295C1197.11 18.675 1197.32 20.31 1197.32 22.2ZM1193.99 22.2C1193.99 20.6 1193.86 19.27 1193.6 18.21C1193.35 17.14 1193.01 16.285 1192.59 15.645C1192.17 15.005 1191.69 14.55 1191.14 14.28C1190.59 14.01 1190.02 13.875 1189.43 13.875C1188.83 13.875 1188.25 14.01 1187.7 14.28C1187.16 14.55 1186.68 15.005 1186.26 15.645C1185.84 16.285 1185.51 17.14 1185.26 18.21C1185.01 19.27 1184.88 20.6 1184.88 22.2C1184.88 23.8 1185.01 25.135 1185.26 26.205C1185.51 27.265 1185.84 28.115 1186.26 28.755C1186.68 29.395 1187.16 29.85 1187.7 30.12C1188.25 30.39 1188.83 30.525 1189.43 30.525C1190.02 30.525 1190.59 30.39 1191.14 30.12C1191.69 29.85 1192.17 29.395 1192.59 28.755C1193.01 28.115 1193.35 27.265 1193.6 26.205C1193.86 25.135 1193.99 23.8 1193.99 22.2ZM1214.72 22.2C1214.72 24.09 1214.51 25.725 1214.1 27.105C1213.7 28.485 1213.15 29.63 1212.44 30.54C1211.73 31.45 1210.89 32.125 1209.93 32.565C1208.97 33.005 1207.94 33.225 1206.83 33.225C1205.72 33.225 1204.68 33.005 1203.72 32.565C1202.76 32.125 1201.93 31.45 1201.22 30.54C1200.52 29.63 1199.97 28.485 1199.57 27.105C1199.17 25.725 1198.97 24.09 1198.97 22.2C1198.97 20.31 1199.17 18.675 1199.57 17.295C1199.97 15.905 1200.52 14.76 1201.22 13.86C1201.93 12.95 1202.76 12.275 1203.72 11.835C1204.68 11.385 1205.72 11.16 1206.83 11.16C1207.94 11.16 1208.97 11.385 1209.93 11.835C1210.89 12.275 1211.73 12.95 1212.44 13.86C1213.15 14.76 1213.7 15.905 1214.1 17.295C1214.51 18.675 1214.72 20.31 1214.72 22.2ZM1211.39 22.2C1211.39 20.6 1211.26 19.27 1211 18.21C1210.75 17.14 1210.41 16.285 1209.99 15.645C1209.57 15.005 1209.09 14.55 1208.54 14.28C1207.99 14.01 1207.42 13.875 1206.83 13.875C1206.23 13.875 1205.65 14.01 1205.1 14.28C1204.56 14.55 1204.08 15.005 1203.66 15.645C1203.24 16.285 1202.91 17.14 1202.66 18.21C1202.41 19.27 1202.28 20.6 1202.28 22.2C1202.28 23.8 1202.41 25.135 1202.66 26.205C1202.91 27.265 1203.24 28.115 1203.66 28.755C1204.08 29.395 1204.56 29.85 1205.1 30.12C1205.65 30.39 1206.23 30.525 1206.83 30.525C1207.42 30.525 1207.99 30.39 1208.54 30.12C1209.09 29.85 1209.57 29.395 1209.99 28.755C1210.41 28.115 1210.75 27.265 1211 26.205C1211.26 25.135 1211.39 23.8 1211.39 22.2ZM1232.12 22.2C1232.12 24.09 1231.92 25.725 1231.51 27.105C1231.11 28.485 1230.55 29.63 1229.84 30.54C1229.13 31.45 1228.3 32.125 1227.34 32.565C1226.38 33.005 1225.34 33.225 1224.23 33.225C1223.12 33.225 1222.09 33.005 1221.13 32.565C1220.17 32.125 1219.33 31.45 1218.62 30.54C1217.92 29.63 1217.37 28.485 1216.97 27.105C1216.57 25.725 1216.37 24.09 1216.37 22.2C1216.37 20.31 1216.57 18.675 1216.97 17.295C1217.37 15.905 1217.92 14.76 1218.62 13.86C1219.33 12.95 1220.17 12.275 1221.13 11.835C1222.09 11.385 1223.12 11.16 1224.23 11.16C1225.34 11.16 1226.38 11.385 1227.34 11.835C1228.3 12.275 1229.13 12.95 1229.84 13.86C1230.55 14.76 1231.11 15.905 1231.51 17.295C1231.92 18.675 1232.12 20.31 1232.12 22.2ZM1228.79 22.2C1228.79 20.6 1228.66 19.27 1228.4 18.21C1228.15 17.14 1227.82 16.285 1227.4 15.645C1226.98 15.005 1226.49 14.55 1225.94 14.28C1225.39 14.01 1224.82 13.875 1224.23 13.875C1223.63 13.875 1223.06 14.01 1222.51 14.28C1221.97 14.55 1221.49 15.005 1221.07 15.645C1220.65 16.285 1220.31 17.14 1220.06 18.21C1219.81 19.27 1219.69 20.6 1219.69 22.2C1219.69 23.8 1219.81 25.135 1220.06 26.205C1220.31 27.265 1220.65 28.115 1221.07 28.755C1221.49 29.395 1221.97 29.85 1222.51 30.12C1223.06 30.39 1223.63 30.525 1224.23 30.525C1224.82 30.525 1225.39 30.39 1225.94 30.12C1226.49 29.85 1226.98 29.395 1227.4 28.755C1227.82 28.115 1228.15 27.265 1228.4 26.205C1228.66 25.135 1228.79 23.8 1228.79 22.2Z" fill="white"/>
<path d="M667.05 70.84C667.05 71.9133 666.88 72.9 666.54 73.8C666.2 74.6933 665.72 75.4633 665.1 76.11C664.48 76.7567 663.733 77.26 662.86 77.62C661.993 77.9733 661.033 78.15 659.98 78.15C658.927 78.15 657.967 77.9733 657.1 77.62C656.233 77.26 655.49 76.7567 654.87 76.11C654.25 75.4633 653.77 74.6933 653.43 73.8C653.09 72.9 652.92 71.9133 652.92 70.84C652.92 69.7667 653.09 68.7833 653.43 67.89C653.77 66.99 654.25 66.2167 654.87 65.57C655.49 64.9167 656.233 64.41 657.1 64.05C657.967 63.69 658.927 63.51 659.98 63.51C661.033 63.51 661.993 63.69 662.86 64.05C663.733 64.41 664.48 64.9167 665.1 65.57C665.72 66.2167 666.2 66.99 666.54 67.89C666.88 68.7833 667.05 69.7667 667.05 70.84ZM665.06 70.84C665.06 69.96 664.94 69.17 664.7 68.47C664.46 67.77 664.12 67.18 663.68 66.7C663.24 66.2133 662.707 65.84 662.08 65.58C661.453 65.32 660.753 65.19 659.98 65.19C659.213 65.19 658.517 65.32 657.89 65.58C657.263 65.84 656.727 66.2133 656.28 66.7C655.84 67.18 655.5 67.77 655.26 68.47C655.02 69.17 654.9 69.96 654.9 70.84C654.9 71.72 655.02 72.51 655.26 73.21C655.5 73.9033 655.84 74.4933 656.28 74.98C656.727 75.46 657.263 75.83 657.89 76.09C658.517 76.3433 659.213 76.47 659.98 76.47C660.753 76.47 661.453 76.3433 662.08 76.09C662.707 75.83 663.24 75.46 663.68 74.98C664.12 74.4933 664.46 73.9033 664.7 73.21C664.94 72.51 665.06 71.72 665.06 70.84ZM669.417 78V67.87H670.437C670.63 67.87 670.764 67.9067 670.837 67.98C670.91 68.0533 670.96 68.18 670.987 68.36L671.107 69.94C671.454 69.2333 671.88 68.6833 672.387 68.29C672.9 67.89 673.5 67.69 674.187 67.69C674.467 67.69 674.72 67.7233 674.947 67.79C675.174 67.85 675.384 67.9367 675.577 68.05L675.347 69.38C675.3 69.5467 675.197 69.63 675.037 69.63C674.944 69.63 674.8 69.6 674.607 69.54C674.414 69.4733 674.144 69.44 673.797 69.44C673.177 69.44 672.657 69.62 672.237 69.98C671.824 70.34 671.477 70.8633 671.197 71.55V78H669.417ZM679.463 67.87V78H677.683V67.87H679.463ZM679.863 64.69C679.863 64.8633 679.827 65.0267 679.753 65.18C679.687 65.3267 679.593 65.46 679.473 65.58C679.36 65.6933 679.227 65.7833 679.073 65.85C678.92 65.9167 678.757 65.95 678.583 65.95C678.41 65.95 678.247 65.9167 678.093 65.85C677.947 65.7833 677.813 65.6933 677.693 65.58C677.58 65.46 677.49 65.3267 677.423 65.18C677.357 65.0267 677.323 64.8633 677.323 64.69C677.323 64.5167 677.357 64.3533 677.423 64.2C677.49 64.04 677.58 63.9033 677.693 63.79C677.813 63.67 677.947 63.5767 678.093 63.51C678.247 63.4433 678.41 63.41 678.583 63.41C678.757 63.41 678.92 63.4433 679.073 63.51C679.227 63.5767 679.36 63.67 679.473 63.79C679.593 63.9033 679.687 64.04 679.753 64.2C679.827 64.3533 679.863 64.5167 679.863 64.69ZM686.611 67.71C687.217 67.71 687.777 67.8133 688.291 68.02C688.804 68.22 689.247 68.5133 689.621 68.9C689.994 69.28 690.284 69.7533 690.491 70.32C690.704 70.88 690.811 71.52 690.811 72.24C690.811 72.52 690.781 72.7067 690.721 72.8C690.661 72.8933 690.547 72.94 690.381 72.94H683.641C683.654 73.58 683.741 74.1367 683.901 74.61C684.061 75.0833 684.281 75.48 684.561 75.8C684.841 76.1133 685.174 76.35 685.561 76.51C685.947 76.6633 686.381 76.74 686.861 76.74C687.307 76.74 687.691 76.69 688.011 76.59C688.337 76.4833 688.617 76.37 688.851 76.25C689.084 76.13 689.277 76.02 689.431 75.92C689.591 75.8133 689.727 75.76 689.841 75.76C689.987 75.76 690.101 75.8167 690.181 75.93L690.681 76.58C690.461 76.8467 690.197 77.08 689.891 77.28C689.584 77.4733 689.254 77.6333 688.901 77.76C688.554 77.8867 688.194 77.98 687.821 78.04C687.447 78.1067 687.077 78.14 686.711 78.14C686.011 78.14 685.364 78.0233 684.771 77.79C684.184 77.55 683.674 77.2033 683.241 76.75C682.814 76.29 682.481 75.7233 682.241 75.05C682.001 74.3767 681.881 73.6033 681.881 72.73C681.881 72.0233 681.987 71.3633 682.201 70.75C682.421 70.1367 682.734 69.6067 683.141 69.16C683.547 68.7067 684.044 68.3533 684.631 68.1C685.217 67.84 685.877 67.71 686.611 67.71ZM686.651 69.02C685.791 69.02 685.114 69.27 684.621 69.77C684.127 70.2633 683.821 70.95 683.701 71.83H689.211C689.211 71.4167 689.154 71.04 689.041 70.7C688.927 70.3533 688.761 70.0567 688.541 69.81C688.321 69.5567 688.051 69.3633 687.731 69.23C687.417 69.09 687.057 69.02 686.651 69.02ZM693.089 78V67.87H694.149C694.402 67.87 694.562 67.9933 694.629 68.24L694.769 69.34C695.209 68.8533 695.699 68.46 696.239 68.16C696.786 67.86 697.416 67.71 698.129 67.71C698.682 67.71 699.169 67.8033 699.589 67.99C700.016 68.17 700.369 68.43 700.649 68.77C700.936 69.1033 701.152 69.5067 701.299 69.98C701.446 70.4533 701.519 70.9767 701.519 71.55V78H699.739V71.55C699.739 70.7833 699.562 70.19 699.209 69.77C698.862 69.3433 698.329 69.13 697.609 69.13C697.082 69.13 696.589 69.2567 696.129 69.51C695.676 69.7633 695.256 70.1067 694.869 70.54V78H693.089ZM707.272 78.16C706.472 78.16 705.856 77.9367 705.422 77.49C704.996 77.0433 704.782 76.4 704.782 75.56V69.36H703.562C703.456 69.36 703.366 69.33 703.292 69.27C703.219 69.2033 703.182 69.1033 703.182 68.97V68.26L704.842 68.05L705.252 64.92C705.266 64.82 705.309 64.74 705.382 64.68C705.456 64.6133 705.549 64.58 705.662 64.58H706.562V68.07H709.462V69.36H706.562V75.44C706.562 75.8667 706.666 76.1833 706.872 76.39C707.079 76.5967 707.346 76.7 707.672 76.7C707.859 76.7 708.019 76.6767 708.152 76.63C708.292 76.5767 708.412 76.52 708.512 76.46C708.612 76.4 708.696 76.3467 708.762 76.3C708.836 76.2467 708.899 76.22 708.952 76.22C709.046 76.22 709.129 76.2767 709.202 76.39L709.722 77.24C709.416 77.5267 709.046 77.7533 708.612 77.92C708.179 78.08 707.732 78.16 707.272 78.16ZM719.103 78H718.313C718.14 78 718 77.9733 717.893 77.92C717.786 77.8667 717.716 77.7533 717.683 77.58L717.483 76.64C717.216 76.88 716.956 77.0967 716.703 77.29C716.45 77.4767 716.183 77.6367 715.903 77.77C715.623 77.8967 715.323 77.9933 715.003 78.06C714.69 78.1267 714.34 78.16 713.953 78.16C713.56 78.16 713.19 78.1067 712.843 78C712.503 77.8867 712.206 77.72 711.953 77.5C711.7 77.28 711.496 77.0033 711.343 76.67C711.196 76.33 711.123 75.93 711.123 75.47C711.123 75.07 711.233 74.6867 711.453 74.32C711.673 73.9467 712.026 73.6167 712.513 73.33C713.006 73.0433 713.65 72.81 714.443 72.63C715.236 72.4433 716.206 72.3367 717.353 72.31V71.52C717.353 70.7333 717.183 70.14 716.843 69.74C716.51 69.3333 716.013 69.13 715.353 69.13C714.92 69.13 714.553 69.1867 714.253 69.3C713.96 69.4067 713.703 69.53 713.483 69.67C713.27 69.8033 713.083 69.9267 712.923 70.04C712.77 70.1467 712.616 70.2 712.463 70.2C712.343 70.2 712.236 70.17 712.143 70.11C712.056 70.0433 711.986 69.9633 711.933 69.87L711.613 69.3C712.173 68.76 712.776 68.3567 713.423 68.09C714.07 67.8233 714.786 67.69 715.573 67.69C716.14 67.69 716.643 67.7833 717.083 67.97C717.523 68.1567 717.893 68.4167 718.193 68.75C718.493 69.0833 718.72 69.4867 718.873 69.96C719.026 70.4333 719.103 70.9533 719.103 71.52V78ZM714.483 76.91C714.796 76.91 715.083 76.88 715.343 76.82C715.603 76.7533 715.846 76.6633 716.073 76.55C716.306 76.43 716.526 76.2867 716.733 76.12C716.946 75.9533 717.153 75.7633 717.353 75.55V73.44C716.533 73.4667 715.836 73.5333 715.263 73.64C714.69 73.74 714.223 73.8733 713.863 74.04C713.503 74.2067 713.24 74.4033 713.073 74.63C712.913 74.8567 712.833 75.11 712.833 75.39C712.833 75.6567 712.876 75.8867 712.963 76.08C713.05 76.2733 713.166 76.4333 713.313 76.56C713.46 76.68 713.633 76.77 713.833 76.83C714.033 76.8833 714.25 76.91 714.483 76.91ZM728.71 69.67C728.657 69.7433 728.603 69.8 728.55 69.84C728.497 69.88 728.42 69.9 728.32 69.9C728.22 69.9 728.11 69.86 727.99 69.78C727.877 69.6933 727.73 69.6 727.55 69.5C727.37 69.4 727.15 69.31 726.89 69.23C726.637 69.1433 726.323 69.1 725.95 69.1C725.457 69.1 725.02 69.19 724.64 69.37C724.26 69.5433 723.94 69.7967 723.68 70.13C723.427 70.4633 723.233 70.8667 723.1 71.34C722.973 71.8133 722.91 72.3433 722.91 72.93C722.91 73.5433 722.98 74.09 723.12 74.57C723.26 75.0433 723.457 75.4433 723.71 75.77C723.963 76.09 724.27 76.3367 724.63 76.51C724.997 76.6767 725.407 76.76 725.86 76.76C726.293 76.76 726.65 76.71 726.93 76.61C727.21 76.5033 727.443 76.3867 727.63 76.26C727.817 76.1333 727.97 76.02 728.09 75.92C728.21 75.8133 728.33 75.76 728.45 75.76C728.603 75.76 728.717 75.8167 728.79 75.93L729.29 76.58C728.85 77.12 728.3 77.5167 727.64 77.77C726.98 78.0167 726.283 78.14 725.55 78.14C724.917 78.14 724.327 78.0233 723.78 77.79C723.24 77.5567 722.77 77.22 722.37 76.78C721.97 76.3333 721.653 75.7867 721.42 75.14C721.193 74.4933 721.08 73.7567 721.08 72.93C721.08 72.1767 721.183 71.48 721.39 70.84C721.603 70.2 721.91 69.65 722.31 69.19C722.717 68.7233 723.217 68.36 723.81 68.1C724.403 67.84 725.083 67.71 725.85 67.71C726.557 67.71 727.183 67.8267 727.73 68.06C728.277 68.2867 728.76 68.61 729.18 69.03L728.71 69.67ZM733.116 67.87V78H731.336V67.87H733.116ZM733.516 64.69C733.516 64.8633 733.479 65.0267 733.406 65.18C733.339 65.3267 733.246 65.46 733.126 65.58C733.012 65.6933 732.879 65.7833 732.726 65.85C732.572 65.9167 732.409 65.95 732.236 65.95C732.062 65.95 731.899 65.9167 731.746 65.85C731.599 65.7833 731.466 65.6933 731.346 65.58C731.232 65.46 731.142 65.3267 731.076 65.18C731.009 65.0267 730.976 64.8633 730.976 64.69C730.976 64.5167 731.009 64.3533 731.076 64.2C731.142 64.04 731.232 63.9033 731.346 63.79C731.466 63.67 731.599 63.5767 731.746 63.51C731.899 63.4433 732.062 63.41 732.236 63.41C732.409 63.41 732.572 63.4433 732.726 63.51C732.879 63.5767 733.012 63.67 733.126 63.79C733.246 63.9033 733.339 64.04 733.406 64.2C733.479 64.3533 733.516 64.5167 733.516 64.69ZM740.353 67.71C741.093 67.71 741.76 67.8333 742.353 68.08C742.953 68.3267 743.46 68.6767 743.873 69.13C744.293 69.5833 744.613 70.1333 744.833 70.78C745.06 71.42 745.173 72.1367 745.173 72.93C745.173 73.73 745.06 74.45 744.833 75.09C744.613 75.73 744.293 76.2767 743.873 76.73C743.46 77.1833 742.953 77.5333 742.353 77.78C741.76 78.02 741.093 78.14 740.353 78.14C739.613 78.14 738.943 78.02 738.343 77.78C737.75 77.5333 737.243 77.1833 736.823 76.73C736.403 76.2767 736.08 75.73 735.853 75.09C735.626 74.45 735.513 73.73 735.513 72.93C735.513 72.1367 735.626 71.42 735.853 70.78C736.08 70.1333 736.403 69.5833 736.823 69.13C737.243 68.6767 737.75 68.3267 738.343 68.08C738.943 67.8333 739.613 67.71 740.353 67.71ZM740.353 76.75C741.353 76.75 742.1 76.4167 742.593 75.75C743.086 75.0767 743.333 74.14 743.333 72.94C743.333 71.7333 743.086 70.7933 742.593 70.12C742.1 69.4467 741.353 69.11 740.353 69.11C739.846 69.11 739.406 69.1967 739.033 69.37C738.66 69.5433 738.346 69.7933 738.093 70.12C737.846 70.4467 737.66 70.85 737.533 71.33C737.413 71.8033 737.353 72.34 737.353 72.94C737.353 73.54 737.413 74.0767 737.533 74.55C737.66 75.0233 737.846 75.4233 738.093 75.75C738.346 76.07 738.66 76.3167 739.033 76.49C739.406 76.6633 739.846 76.75 740.353 76.75ZM743.273 63.51L740.943 66.09C740.85 66.19 740.756 66.2633 740.663 66.31C740.576 66.35 740.463 66.37 740.323 66.37H739.263L740.743 63.95C740.836 63.7967 740.936 63.6867 741.043 63.62C741.156 63.5467 741.32 63.51 741.533 63.51H743.273ZM747.366 78V67.87H748.426C748.68 67.87 748.84 67.9933 748.906 68.24L749.046 69.34C749.486 68.8533 749.976 68.46 750.516 68.16C751.063 67.86 751.693 67.71 752.406 67.71C752.96 67.71 753.446 67.8033 753.866 67.99C754.293 68.17 754.646 68.43 754.926 68.77C755.213 69.1033 755.43 69.5067 755.576 69.98C755.723 70.4533 755.796 70.9767 755.796 71.55V78H754.016V71.55C754.016 70.7833 753.84 70.19 753.486 69.77C753.14 69.3433 752.606 69.13 751.886 69.13C751.36 69.13 750.866 69.2567 750.406 69.51C749.953 69.7633 749.533 70.1067 749.146 70.54V78H747.366ZM766.357 67.71C766.963 67.71 767.523 67.8133 768.037 68.02C768.55 68.22 768.993 68.5133 769.367 68.9C769.74 69.28 770.03 69.7533 770.237 70.32C770.45 70.88 770.557 71.52 770.557 72.24C770.557 72.52 770.527 72.7067 770.467 72.8C770.407 72.8933 770.293 72.94 770.127 72.94H763.387C763.4 73.58 763.487 74.1367 763.647 74.61C763.807 75.0833 764.027 75.48 764.307 75.8C764.587 76.1133 764.92 76.35 765.307 76.51C765.693 76.6633 766.127 76.74 766.607 76.74C767.053 76.74 767.437 76.69 767.757 76.59C768.083 76.4833 768.363 76.37 768.597 76.25C768.83 76.13 769.023 76.02 769.177 75.92C769.337 75.8133 769.473 75.76 769.587 75.76C769.733 75.76 769.847 75.8167 769.927 75.93L770.427 76.58C770.207 76.8467 769.943 77.08 769.637 77.28C769.33 77.4733 769 77.6333 768.647 77.76C768.3 77.8867 767.94 77.98 767.567 78.04C767.193 78.1067 766.823 78.14 766.457 78.14C765.757 78.14 765.11 78.0233 764.517 77.79C763.93 77.55 763.42 77.2033 762.987 76.75C762.56 76.29 762.227 75.7233 761.987 75.05C761.747 74.3767 761.627 73.6033 761.627 72.73C761.627 72.0233 761.733 71.3633 761.947 70.75C762.167 70.1367 762.48 69.6067 762.887 69.16C763.293 68.7067 763.79 68.3533 764.377 68.1C764.963 67.84 765.623 67.71 766.357 67.71ZM766.397 69.02C765.537 69.02 764.86 69.27 764.367 69.77C763.873 70.2633 763.567 70.95 763.447 71.83H768.957C768.957 71.4167 768.9 71.04 768.787 70.7C768.673 70.3533 768.507 70.0567 768.287 69.81C768.067 69.5567 767.797 69.3633 767.477 69.23C767.163 69.09 766.803 69.02 766.397 69.02ZM778.682 67.87V78H776.902V67.87H778.682ZM779.082 64.69C779.082 64.8633 779.046 65.0267 778.972 65.18C778.906 65.3267 778.812 65.46 778.692 65.58C778.579 65.6933 778.446 65.7833 778.292 65.85C778.139 65.9167 777.976 65.95 777.802 65.95C777.629 65.95 777.466 65.9167 777.312 65.85C777.166 65.7833 777.032 65.6933 776.912 65.58C776.799 65.46 776.709 65.3267 776.642 65.18C776.576 65.0267 776.542 64.8633 776.542 64.69C776.542 64.5167 776.576 64.3533 776.642 64.2C776.709 64.04 776.799 63.9033 776.912 63.79C777.032 63.67 777.166 63.5767 777.312 63.51C777.466 63.4433 777.629 63.41 777.802 63.41C777.976 63.41 778.139 63.4433 778.292 63.51C778.446 63.5767 778.579 63.67 778.692 63.79C778.812 63.9033 778.906 64.04 778.972 64.2C779.046 64.3533 779.082 64.5167 779.082 64.69ZM781.819 78V67.87H782.879C783.133 67.87 783.293 67.9933 783.359 68.24L783.499 69.34C783.939 68.8533 784.429 68.46 784.969 68.16C785.516 67.86 786.146 67.71 786.859 67.71C787.413 67.71 787.899 67.8033 788.319 67.99C788.746 68.17 789.099 68.43 789.379 68.77C789.666 69.1033 789.883 69.5067 790.029 69.98C790.176 70.4533 790.249 70.9767 790.249 71.55V78H788.469V71.55C788.469 70.7833 788.293 70.19 787.939 69.77C787.593 69.3433 787.059 69.13 786.339 69.13C785.813 69.13 785.319 69.2567 784.859 69.51C784.406 69.7633 783.986 70.1067 783.599 70.54V78H781.819ZM793.333 78V69.39L792.213 69.26C792.073 69.2267 791.956 69.1767 791.863 69.11C791.776 69.0367 791.733 68.9333 791.733 68.8V68.07H793.333V67.09C793.333 66.51 793.413 65.9967 793.573 65.55C793.739 65.0967 793.973 64.7167 794.273 64.41C794.579 64.0967 794.946 63.86 795.373 63.7C795.799 63.54 796.279 63.46 796.813 63.46C797.266 63.46 797.686 63.5267 798.073 63.66L798.033 64.55C798.026 64.6833 797.969 64.7633 797.863 64.79C797.756 64.8167 797.606 64.83 797.413 64.83H797.103C796.796 64.83 796.516 64.87 796.263 64.95C796.016 65.03 795.803 65.16 795.623 65.34C795.443 65.52 795.303 65.7567 795.203 66.05C795.109 66.3433 795.063 66.7067 795.063 67.14V68.07H797.993V69.36H795.123V78H793.333ZM803.771 67.71C804.511 67.71 805.178 67.8333 805.771 68.08C806.371 68.3267 806.878 68.6767 807.291 69.13C807.711 69.5833 808.031 70.1333 808.251 70.78C808.478 71.42 808.591 72.1367 808.591 72.93C808.591 73.73 808.478 74.45 808.251 75.09C808.031 75.73 807.711 76.2767 807.291 76.73C806.878 77.1833 806.371 77.5333 805.771 77.78C805.178 78.02 804.511 78.14 803.771 78.14C803.031 78.14 802.361 78.02 801.761 77.78C801.168 77.5333 800.661 77.1833 800.241 76.73C799.821 76.2767 799.498 75.73 799.271 75.09C799.044 74.45 798.931 73.73 798.931 72.93C798.931 72.1367 799.044 71.42 799.271 70.78C799.498 70.1333 799.821 69.5833 800.241 69.13C800.661 68.6767 801.168 68.3267 801.761 68.08C802.361 67.8333 803.031 67.71 803.771 67.71ZM803.771 76.75C804.771 76.75 805.518 76.4167 806.011 75.75C806.504 75.0767 806.751 74.14 806.751 72.94C806.751 71.7333 806.504 70.7933 806.011 70.12C805.518 69.4467 804.771 69.11 803.771 69.11C803.264 69.11 802.824 69.1967 802.451 69.37C802.078 69.5433 801.764 69.7933 801.511 70.12C801.264 70.4467 801.078 70.85 800.951 71.33C800.831 71.8033 800.771 72.34 800.771 72.94C800.771 73.54 800.831 74.0767 800.951 74.55C801.078 75.0233 801.264 75.4233 801.511 75.75C801.764 76.07 802.078 76.3167 802.451 76.49C802.824 76.6633 803.264 76.75 803.771 76.75ZM810.784 78V67.87H811.804C811.998 67.87 812.131 67.9067 812.204 67.98C812.278 68.0533 812.328 68.18 812.354 68.36L812.474 69.94C812.821 69.2333 813.248 68.6833 813.754 68.29C814.268 67.89 814.868 67.69 815.554 67.69C815.834 67.69 816.088 67.7233 816.314 67.79C816.541 67.85 816.751 67.9367 816.944 68.05L816.714 69.38C816.668 69.5467 816.564 69.63 816.404 69.63C816.311 69.63 816.168 69.6 815.974 69.54C815.781 69.4733 815.511 69.44 815.164 69.44C814.544 69.44 814.024 69.62 813.604 69.98C813.191 70.34 812.844 70.8633 812.564 71.55V78H810.784ZM818.851 78V67.87H819.911C820.164 67.87 820.324 67.9933 820.391 68.24L820.521 69.28C820.894 68.82 821.311 68.4433 821.771 68.15C822.237 67.8567 822.777 67.71 823.391 67.71C824.077 67.71 824.631 67.9 825.051 68.28C825.477 68.66 825.784 69.1733 825.971 69.82C826.111 69.4533 826.294 69.1367 826.521 68.87C826.754 68.6033 827.014 68.3833 827.301 68.21C827.587 68.0367 827.891 67.91 828.211 67.83C828.537 67.75 828.867 67.71 829.201 67.71C829.734 67.71 830.207 67.7967 830.621 67.97C831.041 68.1367 831.394 68.3833 831.681 68.71C831.974 69.0367 832.197 69.44 832.351 69.92C832.504 70.3933 832.581 70.9367 832.581 71.55V78H830.801V71.55C830.801 70.7567 830.627 70.1567 830.281 69.75C829.934 69.3367 829.431 69.13 828.771 69.13C828.477 69.13 828.197 69.1833 827.931 69.29C827.671 69.39 827.441 69.54 827.241 69.74C827.041 69.94 826.881 70.1933 826.761 70.5C826.647 70.8 826.591 71.15 826.591 71.55V78H824.811V71.55C824.811 70.7367 824.647 70.13 824.321 69.73C823.994 69.33 823.517 69.13 822.891 69.13C822.451 69.13 822.041 69.25 821.661 69.49C821.287 69.7233 820.944 70.0433 820.631 70.45V78H818.851ZM842.716 78H841.926C841.753 78 841.613 77.9733 841.506 77.92C841.4 77.8667 841.33 77.7533 841.296 77.58L841.096 76.64C840.83 76.88 840.57 77.0967 840.316 77.29C840.063 77.4767 839.796 77.6367 839.516 77.77C839.236 77.8967 838.936 77.9933 838.616 78.06C838.303 78.1267 837.953 78.16 837.566 78.16C837.173 78.16 836.803 78.1067 836.456 78C836.116 77.8867 835.82 77.72 835.566 77.5C835.313 77.28 835.11 77.0033 834.956 76.67C834.81 76.33 834.736 75.93 834.736 75.47C834.736 75.07 834.846 74.6867 835.066 74.32C835.286 73.9467 835.64 73.6167 836.126 73.33C836.62 73.0433 837.263 72.81 838.056 72.63C838.85 72.4433 839.82 72.3367 840.966 72.31V71.52C840.966 70.7333 840.796 70.14 840.456 69.74C840.123 69.3333 839.626 69.13 838.966 69.13C838.533 69.13 838.166 69.1867 837.866 69.3C837.573 69.4067 837.316 69.53 837.096 69.67C836.883 69.8033 836.696 69.9267 836.536 70.04C836.383 70.1467 836.23 70.2 836.076 70.2C835.956 70.2 835.85 70.17 835.756 70.11C835.67 70.0433 835.6 69.9633 835.546 69.87L835.226 69.3C835.786 68.76 836.39 68.3567 837.036 68.09C837.683 67.8233 838.4 67.69 839.186 67.69C839.753 67.69 840.256 67.7833 840.696 67.97C841.136 68.1567 841.506 68.4167 841.806 68.75C842.106 69.0833 842.333 69.4867 842.486 69.96C842.64 70.4333 842.716 70.9533 842.716 71.52V78ZM838.096 76.91C838.41 76.91 838.696 76.88 838.956 76.82C839.216 76.7533 839.46 76.6633 839.686 76.55C839.92 76.43 840.14 76.2867 840.346 76.12C840.56 75.9533 840.766 75.7633 840.966 75.55V73.44C840.146 73.4667 839.45 73.5333 838.876 73.64C838.303 73.74 837.836 73.8733 837.476 74.04C837.116 74.2067 836.853 74.4033 836.686 74.63C836.526 74.8567 836.446 75.11 836.446 75.39C836.446 75.6567 836.49 75.8867 836.576 76.08C836.663 76.2733 836.78 76.4333 836.926 76.56C837.073 76.68 837.246 76.77 837.446 76.83C837.646 76.8833 837.863 76.91 838.096 76.91ZM852.323 69.67C852.27 69.7433 852.216 69.8 852.163 69.84C852.11 69.88 852.033 69.9 851.933 69.9C851.833 69.9 851.723 69.86 851.603 69.78C851.49 69.6933 851.343 69.6 851.163 69.5C850.983 69.4 850.763 69.31 850.503 69.23C850.25 69.1433 849.936 69.1 849.563 69.1C849.07 69.1 848.633 69.19 848.253 69.37C847.873 69.5433 847.553 69.7967 847.293 70.13C847.04 70.4633 846.846 70.8667 846.713 71.34C846.586 71.8133 846.523 72.3433 846.523 72.93C846.523 73.5433 846.593 74.09 846.733 74.57C846.873 75.0433 847.07 75.4433 847.323 75.77C847.576 76.09 847.883 76.3367 848.243 76.51C848.61 76.6767 849.02 76.76 849.473 76.76C849.906 76.76 850.263 76.71 850.543 76.61C850.823 76.5033 851.056 76.3867 851.243 76.26C851.43 76.1333 851.583 76.02 851.703 75.92C851.823 75.8133 851.943 75.76 852.063 75.76C852.216 75.76 852.33 75.8167 852.403 75.93L852.903 76.58C852.463 77.12 851.913 77.5167 851.253 77.77C850.593 78.0167 849.896 78.14 849.163 78.14C848.53 78.14 847.94 78.0233 847.393 77.79C846.853 77.5567 846.383 77.22 845.983 76.78C845.583 76.3333 845.266 75.7867 845.033 75.14C844.806 74.4933 844.693 73.7567 844.693 72.93C844.693 72.1767 844.796 71.48 845.003 70.84C845.216 70.2 845.523 69.65 845.923 69.19C846.33 68.7233 846.83 68.36 847.423 68.1C848.016 67.84 848.696 67.71 849.463 67.71C850.17 67.71 850.796 67.8267 851.343 68.06C851.89 68.2867 852.373 68.61 852.793 69.03L852.323 69.67ZM856.729 67.87V78H854.949V67.87H856.729ZM857.129 64.69C857.129 64.8633 857.092 65.0267 857.019 65.18C856.952 65.3267 856.859 65.46 856.739 65.58C856.626 65.6933 856.492 65.7833 856.339 65.85C856.186 65.9167 856.022 65.95 855.849 65.95C855.676 65.95 855.512 65.9167 855.359 65.85C855.212 65.7833 855.079 65.6933 854.959 65.58C854.846 65.46 854.756 65.3267 854.689 65.18C854.622 65.0267 854.589 64.8633 854.589 64.69C854.589 64.5167 854.622 64.3533 854.689 64.2C854.756 64.04 854.846 63.9033 854.959 63.79C855.079 63.67 855.212 63.5767 855.359 63.51C855.512 63.4433 855.676 63.41 855.849 63.41C856.022 63.41 856.186 63.4433 856.339 63.51C856.492 63.5767 856.626 63.67 856.739 63.79C856.859 63.9033 856.952 64.04 857.019 64.2C857.092 64.3533 857.129 64.5167 857.129 64.69ZM863.966 67.71C864.706 67.71 865.373 67.8333 865.966 68.08C866.566 68.3267 867.073 68.6767 867.486 69.13C867.906 69.5833 868.226 70.1333 868.446 70.78C868.673 71.42 868.786 72.1367 868.786 72.93C868.786 73.73 868.673 74.45 868.446 75.09C868.226 75.73 867.906 76.2767 867.486 76.73C867.073 77.1833 866.566 77.5333 865.966 77.78C865.373 78.02 864.706 78.14 863.966 78.14C863.226 78.14 862.556 78.02 861.956 77.78C861.363 77.5333 860.856 77.1833 860.436 76.73C860.016 76.2767 859.693 75.73 859.466 75.09C859.24 74.45 859.126 73.73 859.126 72.93C859.126 72.1367 859.24 71.42 859.466 70.78C859.693 70.1333 860.016 69.5833 860.436 69.13C860.856 68.6767 861.363 68.3267 861.956 68.08C862.556 67.8333 863.226 67.71 863.966 67.71ZM863.966 76.75C864.966 76.75 865.713 76.4167 866.206 75.75C866.7 75.0767 866.946 74.14 866.946 72.94C866.946 71.7333 866.7 70.7933 866.206 70.12C865.713 69.4467 864.966 69.11 863.966 69.11C863.46 69.11 863.02 69.1967 862.646 69.37C862.273 69.5433 861.96 69.7933 861.706 70.12C861.46 70.4467 861.273 70.85 861.146 71.33C861.026 71.8033 860.966 72.34 860.966 72.94C860.966 73.54 861.026 74.0767 861.146 74.55C861.273 75.0233 861.46 75.4233 861.706 75.75C861.96 76.07 862.273 76.3167 862.646 76.49C863.02 76.6633 863.46 76.75 863.966 76.75ZM866.886 63.51L864.556 66.09C864.463 66.19 864.37 66.2633 864.276 66.31C864.19 66.35 864.076 66.37 863.936 66.37H862.876L864.356 63.95C864.45 63.7967 864.55 63.6867 864.656 63.62C864.77 63.5467 864.933 63.51 865.146 63.51H866.886ZM870.98 78V67.87H872.04C872.293 67.87 872.453 67.9933 872.52 68.24L872.66 69.34C873.1 68.8533 873.59 68.46 874.13 68.16C874.676 67.86 875.306 67.71 876.02 67.71C876.573 67.71 877.06 67.8033 877.48 67.99C877.906 68.17 878.26 68.43 878.54 68.77C878.826 69.1033 879.043 69.5067 879.19 69.98C879.336 70.4533 879.41 70.9767 879.41 71.55V78H877.63V71.55C877.63 70.7833 877.453 70.19 877.1 69.77C876.753 69.3433 876.22 69.13 875.5 69.13C874.973 69.13 874.48 69.2567 874.02 69.51C873.566 69.7633 873.146 70.1067 872.76 70.54V78H870.98ZM889.97 67.71C890.577 67.71 891.137 67.8133 891.65 68.02C892.163 68.22 892.607 68.5133 892.98 68.9C893.353 69.28 893.643 69.7533 893.85 70.32C894.063 70.88 894.17 71.52 894.17 72.24C894.17 72.52 894.14 72.7067 894.08 72.8C894.02 72.8933 893.907 72.94 893.74 72.94H887C887.013 73.58 887.1 74.1367 887.26 74.61C887.42 75.0833 887.64 75.48 887.92 75.8C888.2 76.1133 888.533 76.35 888.92 76.51C889.307 76.6633 889.74 76.74 890.22 76.74C890.667 76.74 891.05 76.69 891.37 76.59C891.697 76.4833 891.977 76.37 892.21 76.25C892.443 76.13 892.637 76.02 892.79 75.92C892.95 75.8133 893.087 75.76 893.2 75.76C893.347 75.76 893.46 75.8167 893.54 75.93L894.04 76.58C893.82 76.8467 893.557 77.08 893.25 77.28C892.943 77.4733 892.613 77.6333 892.26 77.76C891.913 77.8867 891.553 77.98 891.18 78.04C890.807 78.1067 890.437 78.14 890.07 78.14C889.37 78.14 888.723 78.0233 888.13 77.79C887.543 77.55 887.033 77.2033 886.6 76.75C886.173 76.29 885.84 75.7233 885.6 75.05C885.36 74.3767 885.24 73.6033 885.24 72.73C885.24 72.0233 885.347 71.3633 885.56 70.75C885.78 70.1367 886.093 69.6067 886.5 69.16C886.907 68.7067 887.403 68.3533 887.99 68.1C888.577 67.84 889.237 67.71 889.97 67.71ZM890.01 69.02C889.15 69.02 888.473 69.27 887.98 69.77C887.487 70.2633 887.18 70.95 887.06 71.83H892.57C892.57 71.4167 892.513 71.04 892.4 70.7C892.287 70.3533 892.12 70.0567 891.9 69.81C891.68 69.5567 891.41 69.3633 891.09 69.23C890.777 69.09 890.417 69.02 890.01 69.02ZM896.448 78V67.87H897.508C897.762 67.87 897.922 67.9933 897.988 68.24L898.128 69.34C898.568 68.8533 899.058 68.46 899.598 68.16C900.145 67.86 900.775 67.71 901.488 67.71C902.042 67.71 902.528 67.8033 902.948 67.99C903.375 68.17 903.728 68.43 904.008 68.77C904.295 69.1033 904.512 69.5067 904.658 69.98C904.805 70.4533 904.878 70.9767 904.878 71.55V78H903.098V71.55C903.098 70.7833 902.922 70.19 902.568 69.77C902.222 69.3433 901.688 69.13 900.968 69.13C900.442 69.13 899.948 69.2567 899.488 69.51C899.035 69.7633 898.615 70.1067 898.228 70.54V78H896.448ZM917.229 69.54C917.149 69.6867 917.025 69.76 916.859 69.76C916.759 69.76 916.645 69.7233 916.519 69.65C916.392 69.5767 916.235 69.4967 916.049 69.41C915.869 69.3167 915.652 69.2333 915.399 69.16C915.145 69.08 914.845 69.04 914.499 69.04C914.199 69.04 913.929 69.08 913.689 69.16C913.449 69.2333 913.242 69.3367 913.069 69.47C912.902 69.6033 912.772 69.76 912.679 69.94C912.592 70.1133 912.549 70.3033 912.549 70.51C912.549 70.77 912.622 70.9867 912.769 71.16C912.922 71.3333 913.122 71.4833 913.369 71.61C913.615 71.7367 913.895 71.85 914.209 71.95C914.522 72.0433 914.842 72.1467 915.169 72.26C915.502 72.3667 915.825 72.4867 916.139 72.62C916.452 72.7533 916.732 72.92 916.979 73.12C917.225 73.32 917.422 73.5667 917.569 73.86C917.722 74.1467 917.799 74.4933 917.799 74.9C917.799 75.3667 917.715 75.8 917.549 76.2C917.382 76.5933 917.135 76.9367 916.809 77.23C916.482 77.5167 916.082 77.7433 915.609 77.91C915.135 78.0767 914.589 78.16 913.969 78.16C913.262 78.16 912.622 78.0467 912.049 77.82C911.475 77.5867 910.989 77.29 910.589 76.93L911.009 76.25C911.062 76.1633 911.125 76.0967 911.199 76.05C911.272 76.0033 911.369 75.98 911.489 75.98C911.609 75.98 911.735 76.0267 911.869 76.12C912.002 76.2133 912.162 76.3167 912.349 76.43C912.542 76.5433 912.772 76.6467 913.039 76.74C913.312 76.8333 913.652 76.88 914.059 76.88C914.405 76.88 914.709 76.8367 914.969 76.75C915.229 76.6567 915.445 76.5333 915.619 76.38C915.792 76.2267 915.919 76.05 915.999 75.85C916.085 75.65 916.129 75.4367 916.129 75.21C916.129 74.93 916.052 74.7 915.899 74.52C915.752 74.3333 915.555 74.1767 915.309 74.05C915.062 73.9167 914.779 73.8033 914.459 73.71C914.145 73.61 913.822 73.5067 913.489 73.4C913.162 73.2933 912.839 73.1733 912.519 73.04C912.205 72.9 911.925 72.7267 911.679 72.52C911.432 72.3133 911.232 72.06 911.079 71.76C910.932 71.4533 910.859 71.0833 910.859 70.65C910.859 70.2633 910.939 69.8933 911.099 69.54C911.259 69.18 911.492 68.8667 911.799 68.6C912.105 68.3267 912.482 68.11 912.929 67.95C913.375 67.79 913.885 67.71 914.459 67.71C915.125 67.71 915.722 67.8167 916.249 68.03C916.782 68.2367 917.242 68.5233 917.629 68.89L917.229 69.54ZM927.541 78H926.751C926.577 78 926.437 77.9733 926.331 77.92C926.224 77.8667 926.154 77.7533 926.121 77.58L925.921 76.64C925.654 76.88 925.394 77.0967 925.141 77.29C924.887 77.4767 924.621 77.6367 924.341 77.77C924.061 77.8967 923.761 77.9933 923.441 78.06C923.127 78.1267 922.777 78.16 922.391 78.16C921.997 78.16 921.627 78.1067 921.281 78C920.941 77.8867 920.644 77.72 920.391 77.5C920.137 77.28 919.934 77.0033 919.781 76.67C919.634 76.33 919.561 75.93 919.561 75.47C919.561 75.07 919.671 74.6867 919.891 74.32C920.111 73.9467 920.464 73.6167 920.951 73.33C921.444 73.0433 922.087 72.81 922.881 72.63C923.674 72.4433 924.644 72.3367 925.791 72.31V71.52C925.791 70.7333 925.621 70.14 925.281 69.74C924.947 69.3333 924.451 69.13 923.791 69.13C923.357 69.13 922.991 69.1867 922.691 69.3C922.397 69.4067 922.141 69.53 921.921 69.67C921.707 69.8033 921.521 69.9267 921.361 70.04C921.207 70.1467 921.054 70.2 920.901 70.2C920.781 70.2 920.674 70.17 920.581 70.11C920.494 70.0433 920.424 69.9633 920.371 69.87L920.051 69.3C920.611 68.76 921.214 68.3567 921.861 68.09C922.507 67.8233 923.224 67.69 924.011 67.69C924.577 67.69 925.081 67.7833 925.521 67.97C925.961 68.1567 926.331 68.4167 926.631 68.75C926.931 69.0833 927.157 69.4867 927.311 69.96C927.464 70.4333 927.541 70.9533 927.541 71.52V78ZM922.921 76.91C923.234 76.91 923.521 76.88 923.781 76.82C924.041 76.7533 924.284 76.6633 924.511 76.55C924.744 76.43 924.964 76.2867 925.171 76.12C925.384 75.9533 925.591 75.7633 925.791 75.55V73.44C924.971 73.4667 924.274 73.5333 923.701 73.64C923.127 73.74 922.661 73.8733 922.301 74.04C921.941 74.2067 921.677 74.4033 921.511 74.63C921.351 74.8567 921.271 75.11 921.271 75.39C921.271 75.6567 921.314 75.8867 921.401 76.08C921.487 76.2733 921.604 76.4333 921.751 76.56C921.897 76.68 922.071 76.77 922.271 76.83C922.471 76.8833 922.687 76.91 922.921 76.91ZM932.217 63.27V78H930.437V63.27H932.217ZM936.895 67.87V74.33C936.895 75.0967 937.071 75.69 937.425 76.11C937.778 76.53 938.311 76.74 939.025 76.74C939.545 76.74 940.035 76.6167 940.495 76.37C940.955 76.1233 941.378 75.78 941.765 75.34V67.87H943.545V78H942.485C942.231 78 942.071 77.8767 942.005 77.63L941.865 76.54C941.425 77.0267 940.931 77.42 940.385 77.72C939.838 78.0133 939.211 78.16 938.505 78.16C937.951 78.16 937.461 78.07 937.035 77.89C936.615 77.7033 936.261 77.4433 935.975 77.11C935.688 76.7767 935.471 76.3733 935.325 75.9C935.185 75.4267 935.115 74.9033 935.115 74.33V67.87H936.895ZM953.598 78C953.344 78 953.184 77.8767 953.118 77.63L952.958 76.4C952.524 76.9267 952.028 77.35 951.468 77.67C950.914 77.9833 950.278 78.14 949.558 78.14C948.978 78.14 948.451 78.03 947.978 77.81C947.504 77.5833 947.101 77.2533 946.768 76.82C946.434 76.3867 946.178 75.8467 945.998 75.2C945.818 74.5533 945.728 73.81 945.728 72.97C945.728 72.2233 945.828 71.53 946.028 70.89C946.228 70.2433 946.514 69.6833 946.888 69.21C947.268 68.7367 947.728 68.3667 948.268 68.1C948.808 67.8267 949.421 67.69 950.108 67.69C950.728 67.69 951.258 67.7967 951.698 68.01C952.138 68.2167 952.531 68.51 952.878 68.89V63.27H954.658V78H953.598ZM950.148 76.7C950.728 76.7 951.234 76.5667 951.668 76.3C952.108 76.0333 952.511 75.6567 952.878 75.17V70.27C952.551 69.83 952.191 69.5233 951.798 69.35C951.411 69.17 950.981 69.08 950.508 69.08C949.561 69.08 948.834 69.4167 948.328 70.09C947.821 70.7633 947.568 71.7233 947.568 72.97C947.568 73.63 947.624 74.1967 947.738 74.67C947.851 75.1367 948.018 75.5233 948.238 75.83C948.458 76.13 948.728 76.35 949.048 76.49C949.368 76.63 949.734 76.7 950.148 76.7ZM961.507 78V67.87H962.567C962.82 67.87 962.98 67.9933 963.047 68.24L963.177 69.28C963.55 68.82 963.967 68.4433 964.427 68.15C964.894 67.8567 965.434 67.71 966.047 67.71C966.734 67.71 967.287 67.9 967.707 68.28C968.134 68.66 968.44 69.1733 968.627 69.82C968.767 69.4533 968.95 69.1367 969.177 68.87C969.41 68.6033 969.67 68.3833 969.957 68.21C970.244 68.0367 970.547 67.91 970.867 67.83C971.194 67.75 971.524 67.71 971.857 67.71C972.39 67.71 972.864 67.7967 973.277 67.97C973.697 68.1367 974.05 68.3833 974.337 68.71C974.63 69.0367 974.854 69.44 975.007 69.92C975.16 70.3933 975.237 70.9367 975.237 71.55V78H973.457V71.55C973.457 70.7567 973.284 70.1567 972.937 69.75C972.59 69.3367 972.087 69.13 971.427 69.13C971.134 69.13 970.854 69.1833 970.587 69.29C970.327 69.39 970.097 69.54 969.897 69.74C969.697 69.94 969.537 70.1933 969.417 70.5C969.304 70.8 969.247 71.15 969.247 71.55V78H967.467V71.55C967.467 70.7367 967.304 70.13 966.977 69.73C966.65 69.33 966.174 69.13 965.547 69.13C965.107 69.13 964.697 69.25 964.317 69.49C963.944 69.7233 963.6 70.0433 963.287 70.45V78H961.507ZM981.943 67.71C982.549 67.71 983.109 67.8133 983.623 68.02C984.136 68.22 984.579 68.5133 984.953 68.9C985.326 69.28 985.616 69.7533 985.823 70.32C986.036 70.88 986.143 71.52 986.143 72.24C986.143 72.52 986.113 72.7067 986.053 72.8C985.993 72.8933 985.879 72.94 985.713 72.94H978.973C978.986 73.58 979.073 74.1367 979.233 74.61C979.393 75.0833 979.613 75.48 979.893 75.8C980.173 76.1133 980.506 76.35 980.893 76.51C981.279 76.6633 981.713 76.74 982.193 76.74C982.639 76.74 983.023 76.69 983.343 76.59C983.669 76.4833 983.949 76.37 984.183 76.25C984.416 76.13 984.609 76.02 984.763 75.92C984.923 75.8133 985.059 75.76 985.173 75.76C985.319 75.76 985.433 75.8167 985.513 75.93L986.013 76.58C985.793 76.8467 985.529 77.08 985.223 77.28C984.916 77.4733 984.586 77.6333 984.233 77.76C983.886 77.8867 983.526 77.98 983.153 78.04C982.779 78.1067 982.409 78.14 982.043 78.14C981.343 78.14 980.696 78.0233 980.103 77.79C979.516 77.55 979.006 77.2033 978.573 76.75C978.146 76.29 977.813 75.7233 977.573 75.05C977.333 74.3767 977.213 73.6033 977.213 72.73C977.213 72.0233 977.319 71.3633 977.533 70.75C977.753 70.1367 978.066 69.6067 978.473 69.16C978.879 68.7067 979.376 68.3533 979.963 68.1C980.549 67.84 981.209 67.71 981.943 67.71ZM981.983 69.02C981.123 69.02 980.446 69.27 979.953 69.77C979.459 70.2633 979.153 70.95 979.033 71.83H984.543C984.543 71.4167 984.486 71.04 984.373 70.7C984.259 70.3533 984.093 70.0567 983.873 69.81C983.653 69.5567 983.383 69.3633 983.063 69.23C982.749 69.09 982.389 69.02 981.983 69.02ZM988.421 78V67.87H989.481C989.734 67.87 989.894 67.9933 989.961 68.24L990.101 69.34C990.541 68.8533 991.031 68.46 991.571 68.16C992.118 67.86 992.748 67.71 993.461 67.71C994.014 67.71 994.501 67.8033 994.921 67.99C995.348 68.17 995.701 68.43 995.981 68.77C996.268 69.1033 996.484 69.5067 996.631 69.98C996.778 70.4533 996.851 70.9767 996.851 71.55V78H995.071V71.55C995.071 70.7833 994.894 70.19 994.541 69.77C994.194 69.3433 993.661 69.13 992.941 69.13C992.414 69.13 991.921 69.2567 991.461 69.51C991.008 69.7633 990.588 70.1067 990.201 70.54V78H988.421ZM1002.6 78.16C1001.8 78.16 1001.19 77.9367 1000.75 77.49C1000.33 77.0433 1000.11 76.4 1000.11 75.56V69.36H998.894C998.788 69.36 998.698 69.33 998.624 69.27C998.551 69.2033 998.514 69.1033 998.514 68.97V68.26L1000.17 68.05L1000.58 64.92C1000.6 64.82 1000.64 64.74 1000.71 64.68C1000.79 64.6133 1000.88 64.58 1000.99 64.58H1001.89V68.07H1004.79V69.36H1001.89V75.44C1001.89 75.8667 1002 76.1833 1002.2 76.39C1002.41 76.5967 1002.68 76.7 1003 76.7C1003.19 76.7 1003.35 76.6767 1003.48 76.63C1003.62 76.5767 1003.74 76.52 1003.84 76.46C1003.94 76.4 1004.03 76.3467 1004.09 76.3C1004.17 76.2467 1004.23 76.22 1004.28 76.22C1004.38 76.22 1004.46 76.2767 1004.53 76.39L1005.05 77.24C1004.75 77.5267 1004.38 77.7533 1003.94 77.92C1003.51 78.08 1003.06 78.16 1002.6 78.16ZM1014.44 78H1013.65C1013.47 78 1013.33 77.9733 1013.23 77.92C1013.12 77.8667 1013.05 77.7533 1013.02 77.58L1012.82 76.64C1012.55 76.88 1012.29 77.0967 1012.04 77.29C1011.78 77.4767 1011.52 77.6367 1011.24 77.77C1010.96 77.8967 1010.66 77.9933 1010.34 78.06C1010.02 78.1267 1009.67 78.16 1009.29 78.16C1008.89 78.16 1008.52 78.1067 1008.18 78C1007.84 77.8867 1007.54 77.72 1007.29 77.5C1007.03 77.28 1006.83 77.0033 1006.68 76.67C1006.53 76.33 1006.46 75.93 1006.46 75.47C1006.46 75.07 1006.57 74.6867 1006.79 74.32C1007.01 73.9467 1007.36 73.6167 1007.85 73.33C1008.34 73.0433 1008.98 72.81 1009.78 72.63C1010.57 72.4433 1011.54 72.3367 1012.69 72.31V71.52C1012.69 70.7333 1012.52 70.14 1012.18 69.74C1011.84 69.3333 1011.35 69.13 1010.69 69.13C1010.25 69.13 1009.89 69.1867 1009.59 69.3C1009.29 69.4067 1009.04 69.53 1008.82 69.67C1008.6 69.8033 1008.42 69.9267 1008.26 70.04C1008.1 70.1467 1007.95 70.2 1007.8 70.2C1007.68 70.2 1007.57 70.17 1007.48 70.11C1007.39 70.0433 1007.32 69.9633 1007.27 69.87L1006.95 69.3C1007.51 68.76 1008.11 68.3567 1008.76 68.09C1009.4 67.8233 1010.12 67.69 1010.91 67.69C1011.47 67.69 1011.98 67.7833 1012.42 67.97C1012.86 68.1567 1013.23 68.4167 1013.53 68.75C1013.83 69.0833 1014.05 69.4867 1014.21 69.96C1014.36 70.4333 1014.44 70.9533 1014.44 71.52V78ZM1009.82 76.91C1010.13 76.91 1010.42 76.88 1010.68 76.82C1010.94 76.7533 1011.18 76.6633 1011.41 76.55C1011.64 76.43 1011.86 76.2867 1012.07 76.12C1012.28 75.9533 1012.49 75.7633 1012.69 75.55V73.44C1011.87 73.4667 1011.17 73.5333 1010.6 73.64C1010.02 73.74 1009.56 73.8733 1009.2 74.04C1008.84 74.2067 1008.57 74.4033 1008.41 74.63C1008.25 74.8567 1008.17 75.11 1008.17 75.39C1008.17 75.6567 1008.21 75.8867 1008.3 76.08C1008.38 76.2733 1008.5 76.4333 1008.65 76.56C1008.79 76.68 1008.97 76.77 1009.17 76.83C1009.37 76.8833 1009.58 76.91 1009.82 76.91ZM1019.11 63.27V78H1017.33V63.27H1019.11ZM1029.09 80.99C1029.03 81.1233 1028.95 81.23 1028.86 81.31C1028.77 81.39 1028.63 81.43 1028.45 81.43H1027.13L1028.98 77.41L1024.8 67.87H1026.34C1026.49 67.87 1026.61 67.91 1026.7 67.99C1026.78 68.0633 1026.85 68.1467 1026.89 68.24L1029.6 74.62C1029.66 74.7667 1029.71 74.9133 1029.75 75.06C1029.79 75.2067 1029.83 75.3567 1029.87 75.51C1029.91 75.3567 1029.96 75.2067 1030.01 75.06C1030.05 74.9133 1030.11 74.7633 1030.17 74.61L1032.8 68.24C1032.84 68.1333 1032.9 68.0467 1033 67.98C1033.1 67.9067 1033.2 67.87 1033.32 67.87H1034.74L1029.09 80.99ZM1047.66 78H1046.87C1046.69 78 1046.55 77.9733 1046.45 77.92C1046.34 77.8667 1046.27 77.7533 1046.24 77.58L1046.04 76.64C1045.77 76.88 1045.51 77.0967 1045.26 77.29C1045 77.4767 1044.74 77.6367 1044.46 77.77C1044.18 77.8967 1043.88 77.9933 1043.56 78.06C1043.24 78.1267 1042.89 78.16 1042.51 78.16C1042.11 78.16 1041.74 78.1067 1041.4 78C1041.06 77.8867 1040.76 77.72 1040.51 77.5C1040.25 77.28 1040.05 77.0033 1039.9 76.67C1039.75 76.33 1039.68 75.93 1039.68 75.47C1039.68 75.07 1039.79 74.6867 1040.01 74.32C1040.23 73.9467 1040.58 73.6167 1041.07 73.33C1041.56 73.0433 1042.2 72.81 1043 72.63C1043.79 72.4433 1044.76 72.3367 1045.91 72.31V71.52C1045.91 70.7333 1045.74 70.14 1045.4 69.74C1045.06 69.3333 1044.57 69.13 1043.91 69.13C1043.47 69.13 1043.11 69.1867 1042.81 69.3C1042.51 69.4067 1042.26 69.53 1042.04 69.67C1041.82 69.8033 1041.64 69.9267 1041.48 70.04C1041.32 70.1467 1041.17 70.2 1041.02 70.2C1040.9 70.2 1040.79 70.17 1040.7 70.11C1040.61 70.0433 1040.54 69.9633 1040.49 69.87L1040.17 69.3C1040.73 68.76 1041.33 68.3567 1041.98 68.09C1042.62 67.8233 1043.34 67.69 1044.13 67.69C1044.69 67.69 1045.2 67.7833 1045.64 67.97C1046.08 68.1567 1046.45 68.4167 1046.75 68.75C1047.05 69.0833 1047.27 69.4867 1047.43 69.96C1047.58 70.4333 1047.66 70.9533 1047.66 71.52V78ZM1043.04 76.91C1043.35 76.91 1043.64 76.88 1043.9 76.82C1044.16 76.7533 1044.4 76.6633 1044.63 76.55C1044.86 76.43 1045.08 76.2867 1045.29 76.12C1045.5 75.9533 1045.71 75.7633 1045.91 75.55V73.44C1045.09 73.4667 1044.39 73.5333 1043.82 73.64C1043.24 73.74 1042.78 73.8733 1042.42 74.04C1042.06 74.2067 1041.79 74.4033 1041.63 74.63C1041.47 74.8567 1041.39 75.11 1041.39 75.39C1041.39 75.6567 1041.43 75.8867 1041.52 76.08C1041.6 76.2733 1041.72 76.4333 1041.87 76.56C1042.01 76.68 1042.19 76.77 1042.39 76.83C1042.59 76.8833 1042.8 76.91 1043.04 76.91ZM1050.35 81.43V67.87H1051.41C1051.67 67.87 1051.83 67.9933 1051.89 68.24L1052.04 69.44C1052.48 68.9133 1052.97 68.49 1053.52 68.17C1054.08 67.85 1054.73 67.69 1055.45 67.69C1056.03 67.69 1056.56 67.8033 1057.03 68.03C1057.51 68.25 1057.91 68.58 1058.24 69.02C1058.58 69.4533 1058.83 69.9933 1059.01 70.64C1059.19 71.2867 1059.28 72.03 1059.28 72.87C1059.28 73.6167 1059.18 74.3133 1058.98 74.96C1058.78 75.6 1058.5 76.1567 1058.12 76.63C1057.75 77.0967 1057.29 77.4667 1056.74 77.74C1056.2 78.0067 1055.59 78.14 1054.91 78.14C1054.29 78.14 1053.75 78.0367 1053.3 77.83C1052.86 77.6233 1052.47 77.33 1052.13 76.95V81.43H1050.35ZM1054.86 69.13C1054.28 69.13 1053.77 69.2633 1053.33 69.53C1052.9 69.7967 1052.5 70.1733 1052.13 70.66V75.56C1052.46 76 1052.82 76.31 1053.2 76.49C1053.6 76.67 1054.03 76.76 1054.51 76.76C1055.45 76.76 1056.18 76.4233 1056.68 75.75C1057.19 75.0767 1057.44 74.1167 1057.44 72.87C1057.44 72.21 1057.38 71.6433 1057.26 71.17C1057.15 70.6967 1056.98 70.31 1056.76 70.01C1056.54 69.7033 1056.27 69.48 1055.95 69.34C1055.63 69.2 1055.27 69.13 1054.86 69.13ZM1065.49 67.71C1066.23 67.71 1066.9 67.8333 1067.49 68.08C1068.09 68.3267 1068.6 68.6767 1069.01 69.13C1069.43 69.5833 1069.75 70.1333 1069.97 70.78C1070.2 71.42 1070.31 72.1367 1070.31 72.93C1070.31 73.73 1070.2 74.45 1069.97 75.09C1069.75 75.73 1069.43 76.2767 1069.01 76.73C1068.6 77.1833 1068.09 77.5333 1067.49 77.78C1066.9 78.02 1066.23 78.14 1065.49 78.14C1064.75 78.14 1064.08 78.02 1063.48 77.78C1062.89 77.5333 1062.38 77.1833 1061.96 76.73C1061.54 76.2767 1061.22 75.73 1060.99 75.09C1060.76 74.45 1060.65 73.73 1060.65 72.93C1060.65 72.1367 1060.76 71.42 1060.99 70.78C1061.22 70.1333 1061.54 69.5833 1061.96 69.13C1062.38 68.6767 1062.89 68.3267 1063.48 68.08C1064.08 67.8333 1064.75 67.71 1065.49 67.71ZM1065.49 76.75C1066.49 76.75 1067.24 76.4167 1067.73 75.75C1068.22 75.0767 1068.47 74.14 1068.47 72.94C1068.47 71.7333 1068.22 70.7933 1067.73 70.12C1067.24 69.4467 1066.49 69.11 1065.49 69.11C1064.98 69.11 1064.54 69.1967 1064.17 69.37C1063.8 69.5433 1063.48 69.7933 1063.23 70.12C1062.98 70.4467 1062.8 70.85 1062.67 71.33C1062.55 71.8033 1062.49 72.34 1062.49 72.94C1062.49 73.54 1062.55 74.0767 1062.67 74.55C1062.8 75.0233 1062.98 75.4233 1063.23 75.75C1063.48 76.07 1063.8 76.3167 1064.17 76.49C1064.54 76.6633 1064.98 76.75 1065.49 76.75ZM1075.22 80.99C1075.16 81.1233 1075.08 81.23 1074.99 81.31C1074.9 81.39 1074.77 81.43 1074.58 81.43H1073.26L1075.11 77.41L1070.93 67.87H1072.47C1072.62 67.87 1072.74 67.91 1072.83 67.99C1072.92 68.0633 1072.98 68.1467 1073.02 68.24L1075.73 74.62C1075.79 74.7667 1075.84 74.9133 1075.88 75.06C1075.93 75.2067 1075.97 75.3567 1076 75.51C1076.05 75.3567 1076.09 75.2067 1076.14 75.06C1076.19 74.9133 1076.24 74.7633 1076.3 74.61L1078.93 68.24C1078.97 68.1333 1079.04 68.0467 1079.13 67.98C1079.23 67.9067 1079.34 67.87 1079.45 67.87H1080.87L1075.22 80.99ZM1086.33 67.71C1087.07 67.71 1087.74 67.8333 1088.33 68.08C1088.93 68.3267 1089.44 68.6767 1089.85 69.13C1090.27 69.5833 1090.59 70.1333 1090.81 70.78C1091.04 71.42 1091.15 72.1367 1091.15 72.93C1091.15 73.73 1091.04 74.45 1090.81 75.09C1090.59 75.73 1090.27 76.2767 1089.85 76.73C1089.44 77.1833 1088.93 77.5333 1088.33 77.78C1087.74 78.02 1087.07 78.14 1086.33 78.14C1085.59 78.14 1084.92 78.02 1084.32 77.78C1083.73 77.5333 1083.22 77.1833 1082.8 76.73C1082.38 76.2767 1082.06 75.73 1081.83 75.09C1081.6 74.45 1081.49 73.73 1081.49 72.93C1081.49 72.1367 1081.6 71.42 1081.83 70.78C1082.06 70.1333 1082.38 69.5833 1082.8 69.13C1083.22 68.6767 1083.73 68.3267 1084.32 68.08C1084.92 67.8333 1085.59 67.71 1086.33 67.71ZM1086.33 76.75C1087.33 76.75 1088.08 76.4167 1088.57 75.75C1089.06 75.0767 1089.31 74.14 1089.31 72.94C1089.31 71.7333 1089.06 70.7933 1088.57 70.12C1088.08 69.4467 1087.33 69.11 1086.33 69.11C1085.82 69.11 1085.38 69.1967 1085.01 69.37C1084.64 69.5433 1084.32 69.7933 1084.07 70.12C1083.82 70.4467 1083.64 70.85 1083.51 71.33C1083.39 71.8033 1083.33 72.34 1083.33 72.94C1083.33 73.54 1083.39 74.0767 1083.51 74.55C1083.64 75.0233 1083.82 75.4233 1084.07 75.75C1084.32 76.07 1084.64 76.3167 1085.01 76.49C1085.38 76.6633 1085.82 76.75 1086.33 76.75ZM1097.21 81.43V67.87H1098.27C1098.52 67.87 1098.68 67.9933 1098.75 68.24L1098.9 69.44C1099.33 68.9133 1099.83 68.49 1100.38 68.17C1100.94 67.85 1101.58 67.69 1102.31 67.69C1102.89 67.69 1103.42 67.8033 1103.89 68.03C1104.36 68.25 1104.77 68.58 1105.1 69.02C1105.43 69.4533 1105.69 69.9933 1105.87 70.64C1106.05 71.2867 1106.14 72.03 1106.14 72.87C1106.14 73.6167 1106.04 74.3133 1105.84 74.96C1105.64 75.6 1105.35 76.1567 1104.98 76.63C1104.61 77.0967 1104.15 77.4667 1103.6 77.74C1103.06 78.0067 1102.45 78.14 1101.77 78.14C1101.14 78.14 1100.61 78.0367 1100.16 77.83C1099.72 77.6233 1099.33 77.33 1098.99 76.95V81.43H1097.21ZM1101.72 69.13C1101.14 69.13 1100.63 69.2633 1100.19 69.53C1099.76 69.7967 1099.36 70.1733 1098.99 70.66V75.56C1099.32 76 1099.67 76.31 1100.06 76.49C1100.45 76.67 1100.89 76.76 1101.37 76.76C1102.31 76.76 1103.03 76.4233 1103.54 75.75C1104.05 75.0767 1104.3 74.1167 1104.3 72.87C1104.3 72.21 1104.24 71.6433 1104.12 71.17C1104.01 70.6967 1103.84 70.31 1103.62 70.01C1103.4 69.7033 1103.13 69.48 1102.81 69.34C1102.49 69.2 1102.13 69.13 1101.72 69.13ZM1114.05 69.54C1113.97 69.6867 1113.84 69.76 1113.68 69.76C1113.58 69.76 1113.46 69.7233 1113.34 69.65C1113.21 69.5767 1113.05 69.4967 1112.87 69.41C1112.69 69.3167 1112.47 69.2333 1112.22 69.16C1111.96 69.08 1111.66 69.04 1111.32 69.04C1111.02 69.04 1110.75 69.08 1110.51 69.16C1110.27 69.2333 1110.06 69.3367 1109.89 69.47C1109.72 69.6033 1109.59 69.76 1109.5 69.94C1109.41 70.1133 1109.37 70.3033 1109.37 70.51C1109.37 70.77 1109.44 70.9867 1109.59 71.16C1109.74 71.3333 1109.94 71.4833 1110.19 71.61C1110.43 71.7367 1110.71 71.85 1111.03 71.95C1111.34 72.0433 1111.66 72.1467 1111.99 72.26C1112.32 72.3667 1112.64 72.4867 1112.96 72.62C1113.27 72.7533 1113.55 72.92 1113.8 73.12C1114.04 73.32 1114.24 73.5667 1114.39 73.86C1114.54 74.1467 1114.62 74.4933 1114.62 74.9C1114.62 75.3667 1114.53 75.8 1114.37 76.2C1114.2 76.5933 1113.95 76.9367 1113.63 77.23C1113.3 77.5167 1112.9 77.7433 1112.43 77.91C1111.95 78.0767 1111.41 78.16 1110.79 78.16C1110.08 78.16 1109.44 78.0467 1108.87 77.82C1108.29 77.5867 1107.81 77.29 1107.41 76.93L1107.83 76.25C1107.88 76.1633 1107.94 76.0967 1108.02 76.05C1108.09 76.0033 1108.19 75.98 1108.31 75.98C1108.43 75.98 1108.55 76.0267 1108.69 76.12C1108.82 76.2133 1108.98 76.3167 1109.17 76.43C1109.36 76.5433 1109.59 76.6467 1109.86 76.74C1110.13 76.8333 1110.47 76.88 1110.88 76.88C1111.22 76.88 1111.53 76.8367 1111.79 76.75C1112.05 76.6567 1112.26 76.5333 1112.44 76.38C1112.61 76.2267 1112.74 76.05 1112.82 75.85C1112.9 75.65 1112.95 75.4367 1112.95 75.21C1112.95 74.93 1112.87 74.7 1112.72 74.52C1112.57 74.3333 1112.37 74.1767 1112.13 74.05C1111.88 73.9167 1111.6 73.8033 1111.28 73.71C1110.96 73.61 1110.64 73.5067 1110.31 73.4C1109.98 73.2933 1109.66 73.1733 1109.34 73.04C1109.02 72.9 1108.74 72.7267 1108.5 72.52C1108.25 72.3133 1108.05 72.06 1107.9 71.76C1107.75 71.4533 1107.68 71.0833 1107.68 70.65C1107.68 70.2633 1107.76 69.8933 1107.92 69.54C1108.08 69.18 1108.31 68.8667 1108.62 68.6C1108.92 68.3267 1109.3 68.11 1109.75 67.95C1110.19 67.79 1110.7 67.71 1111.28 67.71C1111.94 67.71 1112.54 67.8167 1113.07 68.03C1113.6 68.2367 1114.06 68.5233 1114.45 68.89L1114.05 69.54ZM1118.9 67.87V78H1117.12V67.87H1118.9ZM1119.3 64.69C1119.3 64.8633 1119.26 65.0267 1119.19 65.18C1119.12 65.3267 1119.03 65.46 1118.91 65.58C1118.79 65.6933 1118.66 65.7833 1118.51 65.85C1118.35 65.9167 1118.19 65.95 1118.02 65.95C1117.84 65.95 1117.68 65.9167 1117.53 65.85C1117.38 65.7833 1117.25 65.6933 1117.13 65.58C1117.01 65.46 1116.92 65.3267 1116.86 65.18C1116.79 65.0267 1116.76 64.8633 1116.76 64.69C1116.76 64.5167 1116.79 64.3533 1116.86 64.2C1116.92 64.04 1117.01 63.9033 1117.13 63.79C1117.25 63.67 1117.38 63.5767 1117.53 63.51C1117.68 63.4433 1117.84 63.41 1118.02 63.41C1118.19 63.41 1118.35 63.4433 1118.51 63.51C1118.66 63.5767 1118.79 63.67 1118.91 63.79C1119.03 63.9033 1119.12 64.04 1119.19 64.2C1119.26 64.3533 1119.3 64.5167 1119.3 64.69ZM1128.94 69.67C1128.89 69.7433 1128.84 69.8 1128.78 69.84C1128.73 69.88 1128.65 69.9 1128.55 69.9C1128.45 69.9 1128.34 69.86 1128.22 69.78C1128.11 69.6933 1127.96 69.6 1127.78 69.5C1127.6 69.4 1127.38 69.31 1127.12 69.23C1126.87 69.1433 1126.56 69.1 1126.18 69.1C1125.69 69.1 1125.25 69.19 1124.87 69.37C1124.49 69.5433 1124.17 69.7967 1123.91 70.13C1123.66 70.4633 1123.47 70.8667 1123.33 71.34C1123.21 71.8133 1123.14 72.3433 1123.14 72.93C1123.14 73.5433 1123.21 74.09 1123.35 74.57C1123.49 75.0433 1123.69 75.4433 1123.94 75.77C1124.2 76.09 1124.5 76.3367 1124.86 76.51C1125.23 76.6767 1125.64 76.76 1126.09 76.76C1126.53 76.76 1126.88 76.71 1127.16 76.61C1127.44 76.5033 1127.68 76.3867 1127.86 76.26C1128.05 76.1333 1128.2 76.02 1128.32 75.92C1128.44 75.8133 1128.56 75.76 1128.68 75.76C1128.84 75.76 1128.95 75.8167 1129.02 75.93L1129.52 76.58C1129.08 77.12 1128.53 77.5167 1127.87 77.77C1127.21 78.0167 1126.52 78.14 1125.78 78.14C1125.15 78.14 1124.56 78.0233 1124.01 77.79C1123.47 77.5567 1123 77.22 1122.6 76.78C1122.2 76.3333 1121.89 75.7867 1121.65 75.14C1121.43 74.4933 1121.31 73.7567 1121.31 72.93C1121.31 72.1767 1121.42 71.48 1121.62 70.84C1121.84 70.2 1122.14 69.65 1122.54 69.19C1122.95 68.7233 1123.45 68.36 1124.04 68.1C1124.64 67.84 1125.32 67.71 1126.08 67.71C1126.79 67.71 1127.42 67.8267 1127.96 68.06C1128.51 68.2867 1128.99 68.61 1129.41 69.03L1128.94 69.67ZM1135.47 67.71C1136.21 67.71 1136.88 67.8333 1137.47 68.08C1138.07 68.3267 1138.58 68.6767 1138.99 69.13C1139.41 69.5833 1139.73 70.1333 1139.95 70.78C1140.18 71.42 1140.29 72.1367 1140.29 72.93C1140.29 73.73 1140.18 74.45 1139.95 75.09C1139.73 75.73 1139.41 76.2767 1138.99 76.73C1138.58 77.1833 1138.07 77.5333 1137.47 77.78C1136.88 78.02 1136.21 78.14 1135.47 78.14C1134.73 78.14 1134.06 78.02 1133.46 77.78C1132.87 77.5333 1132.36 77.1833 1131.94 76.73C1131.52 76.2767 1131.2 75.73 1130.97 75.09C1130.74 74.45 1130.63 73.73 1130.63 72.93C1130.63 72.1367 1130.74 71.42 1130.97 70.78C1131.2 70.1333 1131.52 69.5833 1131.94 69.13C1132.36 68.6767 1132.87 68.3267 1133.46 68.08C1134.06 67.8333 1134.73 67.71 1135.47 67.71ZM1135.47 76.75C1136.47 76.75 1137.22 76.4167 1137.71 75.75C1138.2 75.0767 1138.45 74.14 1138.45 72.94C1138.45 71.7333 1138.2 70.7933 1137.71 70.12C1137.22 69.4467 1136.47 69.11 1135.47 69.11C1134.96 69.11 1134.52 69.1967 1134.15 69.37C1133.78 69.5433 1133.46 69.7933 1133.21 70.12C1132.96 70.4467 1132.78 70.85 1132.65 71.33C1132.53 71.8033 1132.47 72.34 1132.47 72.94C1132.47 73.54 1132.53 74.0767 1132.65 74.55C1132.78 75.0233 1132.96 75.4233 1133.21 75.75C1133.46 76.07 1133.78 76.3167 1134.15 76.49C1134.52 76.6633 1134.96 76.75 1135.47 76.75ZM1148.28 69.54C1148.2 69.6867 1148.08 69.76 1147.91 69.76C1147.81 69.76 1147.7 69.7233 1147.57 69.65C1147.45 69.5767 1147.29 69.4967 1147.1 69.41C1146.92 69.3167 1146.71 69.2333 1146.45 69.16C1146.2 69.08 1145.9 69.04 1145.55 69.04C1145.25 69.04 1144.98 69.08 1144.74 69.16C1144.5 69.2333 1144.3 69.3367 1144.12 69.47C1143.96 69.6033 1143.83 69.76 1143.73 69.94C1143.65 70.1133 1143.6 70.3033 1143.6 70.51C1143.6 70.77 1143.68 70.9867 1143.82 71.16C1143.98 71.3333 1144.18 71.4833 1144.42 71.61C1144.67 71.7367 1144.95 71.85 1145.26 71.95C1145.58 72.0433 1145.9 72.1467 1146.22 72.26C1146.56 72.3667 1146.88 72.4867 1147.19 72.62C1147.51 72.7533 1147.79 72.92 1148.03 73.12C1148.28 73.32 1148.48 73.5667 1148.62 73.86C1148.78 74.1467 1148.85 74.4933 1148.85 74.9C1148.85 75.3667 1148.77 75.8 1148.6 76.2C1148.44 76.5933 1148.19 76.9367 1147.86 77.23C1147.54 77.5167 1147.14 77.7433 1146.66 77.91C1146.19 78.0767 1145.64 78.16 1145.02 78.16C1144.32 78.16 1143.68 78.0467 1143.1 77.82C1142.53 77.5867 1142.04 77.29 1141.64 76.93L1142.06 76.25C1142.12 76.1633 1142.18 76.0967 1142.25 76.05C1142.33 76.0033 1142.42 75.98 1142.54 75.98C1142.66 75.98 1142.79 76.0267 1142.92 76.12C1143.06 76.2133 1143.22 76.3167 1143.4 76.43C1143.6 76.5433 1143.83 76.6467 1144.09 76.74C1144.37 76.8333 1144.71 76.88 1145.11 76.88C1145.46 76.88 1145.76 76.8367 1146.02 76.75C1146.28 76.6567 1146.5 76.5333 1146.67 76.38C1146.85 76.2267 1146.97 76.05 1147.05 75.85C1147.14 75.65 1147.18 75.4367 1147.18 75.21C1147.18 74.93 1147.11 74.7 1146.95 74.52C1146.81 74.3333 1146.61 74.1767 1146.36 74.05C1146.12 73.9167 1145.83 73.8033 1145.51 73.71C1145.2 73.61 1144.88 73.5067 1144.54 73.4C1144.22 73.2933 1143.89 73.1733 1143.57 73.04C1143.26 72.9 1142.98 72.7267 1142.73 72.52C1142.49 72.3133 1142.29 72.06 1142.13 71.76C1141.99 71.4533 1141.91 71.0833 1141.91 70.65C1141.91 70.2633 1141.99 69.8933 1142.15 69.54C1142.31 69.18 1142.55 68.8667 1142.85 68.6C1143.16 68.3267 1143.54 68.11 1143.98 67.95C1144.43 67.79 1144.94 67.71 1145.51 67.71C1146.18 67.71 1146.78 67.8167 1147.3 68.03C1147.84 68.2367 1148.3 68.5233 1148.68 68.89L1148.28 69.54ZM1155.26 67.71C1156 67.71 1156.66 67.8333 1157.26 68.08C1157.86 68.3267 1158.36 68.6767 1158.78 69.13C1159.2 69.5833 1159.52 70.1333 1159.74 70.78C1159.96 71.42 1160.08 72.1367 1160.08 72.93C1160.08 73.73 1159.96 74.45 1159.74 75.09C1159.52 75.73 1159.2 76.2767 1158.78 76.73C1158.36 77.1833 1157.86 77.5333 1157.26 77.78C1156.66 78.02 1156 78.14 1155.26 78.14C1154.52 78.14 1153.85 78.02 1153.25 77.78C1152.65 77.5333 1152.15 77.1833 1151.73 76.73C1151.31 76.2767 1150.98 75.73 1150.76 75.09C1150.53 74.45 1150.42 73.73 1150.42 72.93C1150.42 72.1367 1150.53 71.42 1150.76 70.78C1150.98 70.1333 1151.31 69.5833 1151.73 69.13C1152.15 68.6767 1152.65 68.3267 1153.25 68.08C1153.85 67.8333 1154.52 67.71 1155.26 67.71ZM1155.26 76.75C1156.26 76.75 1157 76.4167 1157.5 75.75C1157.99 75.0767 1158.24 74.14 1158.24 72.94C1158.24 71.7333 1157.99 70.7933 1157.5 70.12C1157 69.4467 1156.26 69.11 1155.26 69.11C1154.75 69.11 1154.31 69.1967 1153.94 69.37C1153.56 69.5433 1153.25 69.7933 1153 70.12C1152.75 70.4467 1152.56 70.85 1152.44 71.33C1152.32 71.8033 1152.26 72.34 1152.26 72.94C1152.26 73.54 1152.32 74.0767 1152.44 74.55C1152.56 75.0233 1152.75 75.4233 1153 75.75C1153.25 76.07 1153.56 76.3167 1153.94 76.49C1154.31 76.6633 1154.75 76.75 1155.26 76.75ZM1169.18 69.67C1169.13 69.7433 1169.07 69.8 1169.02 69.84C1168.97 69.88 1168.89 69.9 1168.79 69.9C1168.69 69.9 1168.58 69.86 1168.46 69.78C1168.35 69.6933 1168.2 69.6 1168.02 69.5C1167.84 69.4 1167.62 69.31 1167.36 69.23C1167.11 69.1433 1166.79 69.1 1166.42 69.1C1165.93 69.1 1165.49 69.19 1165.11 69.37C1164.73 69.5433 1164.41 69.7967 1164.15 70.13C1163.9 70.4633 1163.7 70.8667 1163.57 71.34C1163.44 71.8133 1163.38 72.3433 1163.38 72.93C1163.38 73.5433 1163.45 74.09 1163.59 74.57C1163.73 75.0433 1163.93 75.4433 1164.18 75.77C1164.43 76.09 1164.74 76.3367 1165.1 76.51C1165.47 76.6767 1165.88 76.76 1166.33 76.76C1166.76 76.76 1167.12 76.71 1167.4 76.61C1167.68 76.5033 1167.91 76.3867 1168.1 76.26C1168.29 76.1333 1168.44 76.02 1168.56 75.92C1168.68 75.8133 1168.8 75.76 1168.92 75.76C1169.07 75.76 1169.19 75.8167 1169.26 75.93L1169.76 76.58C1169.32 77.12 1168.77 77.5167 1168.11 77.77C1167.45 78.0167 1166.75 78.14 1166.02 78.14C1165.39 78.14 1164.8 78.0233 1164.25 77.79C1163.71 77.5567 1163.24 77.22 1162.84 76.78C1162.44 76.3333 1162.12 75.7867 1161.89 75.14C1161.66 74.4933 1161.55 73.7567 1161.55 72.93C1161.55 72.1767 1161.65 71.48 1161.86 70.84C1162.07 70.2 1162.38 69.65 1162.78 69.19C1163.19 68.7233 1163.69 68.36 1164.28 68.1C1164.87 67.84 1165.55 67.71 1166.32 67.71C1167.03 67.71 1167.65 67.8267 1168.2 68.06C1168.75 68.2867 1169.23 68.61 1169.65 69.03L1169.18 69.67ZM1173.58 67.87V78H1171.8V67.87H1173.58ZM1173.98 64.69C1173.98 64.8633 1173.95 65.0267 1173.87 65.18C1173.81 65.3267 1173.71 65.46 1173.59 65.58C1173.48 65.6933 1173.35 65.7833 1173.19 65.85C1173.04 65.9167 1172.88 65.95 1172.7 65.95C1172.53 65.95 1172.37 65.9167 1172.21 65.85C1172.07 65.7833 1171.93 65.6933 1171.81 65.58C1171.7 65.46 1171.61 65.3267 1171.54 65.18C1171.48 65.0267 1171.44 64.8633 1171.44 64.69C1171.44 64.5167 1171.48 64.3533 1171.54 64.2C1171.61 64.04 1171.7 63.9033 1171.81 63.79C1171.93 63.67 1172.07 63.5767 1172.21 63.51C1172.37 63.4433 1172.53 63.41 1172.7 63.41C1172.88 63.41 1173.04 63.4433 1173.19 63.51C1173.35 63.5767 1173.48 63.67 1173.59 63.79C1173.71 63.9033 1173.81 64.04 1173.87 64.2C1173.95 64.3533 1173.98 64.5167 1173.98 64.69ZM1184.16 78H1183.37C1183.2 78 1183.06 77.9733 1182.95 77.92C1182.85 77.8667 1182.78 77.7533 1182.74 77.58L1182.54 76.64C1182.28 76.88 1182.02 77.0967 1181.76 77.29C1181.51 77.4767 1181.24 77.6367 1180.96 77.77C1180.68 77.8967 1180.38 77.9933 1180.06 78.06C1179.75 78.1267 1179.4 78.16 1179.01 78.16C1178.62 78.16 1178.25 78.1067 1177.9 78C1177.56 77.8867 1177.27 77.72 1177.01 77.5C1176.76 77.28 1176.56 77.0033 1176.4 76.67C1176.26 76.33 1176.18 75.93 1176.18 75.47C1176.18 75.07 1176.29 74.6867 1176.51 74.32C1176.73 73.9467 1177.09 73.6167 1177.57 73.33C1178.07 73.0433 1178.71 72.81 1179.5 72.63C1180.3 72.4433 1181.27 72.3367 1182.41 72.31V71.52C1182.41 70.7333 1182.24 70.14 1181.9 69.74C1181.57 69.3333 1181.07 69.13 1180.41 69.13C1179.98 69.13 1179.61 69.1867 1179.31 69.3C1179.02 69.4067 1178.76 69.53 1178.54 69.67C1178.33 69.8033 1178.14 69.9267 1177.98 70.04C1177.83 70.1467 1177.68 70.2 1177.52 70.2C1177.4 70.2 1177.3 70.17 1177.2 70.11C1177.12 70.0433 1177.05 69.9633 1176.99 69.87L1176.67 69.3C1177.23 68.76 1177.84 68.3567 1178.48 68.09C1179.13 67.8233 1179.85 67.69 1180.63 67.69C1181.2 67.69 1181.7 67.7833 1182.14 67.97C1182.58 68.1567 1182.95 68.4167 1183.25 68.75C1183.55 69.0833 1183.78 69.4867 1183.93 69.96C1184.09 70.4333 1184.16 70.9533 1184.16 71.52V78ZM1179.54 76.91C1179.86 76.91 1180.14 76.88 1180.4 76.82C1180.66 76.7533 1180.91 76.6633 1181.13 76.55C1181.37 76.43 1181.59 76.2867 1181.79 76.12C1182.01 75.9533 1182.21 75.7633 1182.41 75.55V73.44C1181.59 73.4667 1180.9 73.5333 1180.32 73.64C1179.75 73.74 1179.28 73.8733 1178.92 74.04C1178.56 74.2067 1178.3 74.4033 1178.13 74.63C1177.97 74.8567 1177.89 75.11 1177.89 75.39C1177.89 75.6567 1177.94 75.8867 1178.02 76.08C1178.11 76.2733 1178.23 76.4333 1178.37 76.56C1178.52 76.68 1178.69 76.77 1178.89 76.83C1179.09 76.8833 1179.31 76.91 1179.54 76.91ZM1188.84 63.27V78H1187.06V63.27H1188.84ZM1191.4 76.9C1191.4 76.7267 1191.43 76.5633 1191.49 76.41C1191.55 76.2567 1191.64 76.1233 1191.75 76.01C1191.86 75.8967 1191.99 75.8067 1192.15 75.74C1192.3 75.6733 1192.46 75.64 1192.64 75.64C1192.81 75.64 1192.97 75.6733 1193.13 75.74C1193.28 75.8067 1193.41 75.8967 1193.53 76.01C1193.64 76.1233 1193.73 76.2567 1193.79 76.41C1193.85 76.5633 1193.89 76.7267 1193.89 76.9C1193.89 77.08 1193.85 77.2467 1193.79 77.4C1193.73 77.5467 1193.64 77.6767 1193.53 77.79C1193.41 77.9033 1193.28 77.99 1193.13 78.05C1192.97 78.1167 1192.81 78.15 1192.64 78.15C1192.46 78.15 1192.3 78.1167 1192.15 78.05C1191.99 77.99 1191.86 77.9033 1191.75 77.79C1191.64 77.6767 1191.55 77.5467 1191.49 77.4C1191.43 77.2467 1191.4 77.08 1191.4 76.9Z" fill="white"/>
</svg>
