<svg width="1248" height="105" viewBox="0 0 1248 105" fill="none" xmlns="http://www.w3.org/2000/svg">
<rect width="450" height="45" rx="10" fill="#A29AFF"/>
<rect x="15" y="30" width="1233" height="75" rx="20" fill="#A29AFF" fill-opacity="0.7"/>
<path d="M28.86 16.09C28.75 16.27 28.635 16.405 28.515 16.495C28.395 16.575 28.245 16.615 28.065 16.615C27.875 16.615 27.66 16.535 27.42 16.375C27.19 16.215 26.9 16.04 26.55 15.85C26.21 15.65 25.805 15.47 25.335 15.31C24.865 15.14 24.305 15.055 23.655 15.055C23.055 15.055 22.525 15.13 22.065 15.28C21.615 15.43 21.235 15.64 20.925 15.91C20.615 16.18 20.38 16.5 20.22 16.87C20.07 17.23 19.995 17.625 19.995 18.055C19.995 18.605 20.14 19.065 20.43 19.435C20.72 19.795 21.1 20.105 21.57 20.365C22.05 20.625 22.595 20.855 23.205 21.055C23.815 21.245 24.435 21.45 25.065 21.67C25.705 21.89 26.33 22.14 26.94 22.42C27.55 22.7 28.09 23.055 28.56 23.485C29.04 23.915 29.425 24.44 29.715 25.06C30.005 25.68 30.15 26.435 30.15 27.325C30.15 28.285 29.985 29.185 29.655 30.025C29.325 30.865 28.845 31.6 28.215 32.23C27.595 32.85 26.825 33.34 25.905 33.7C24.995 34.06 23.955 34.24 22.785 34.24C22.095 34.24 21.42 34.17 20.76 34.03C20.11 33.9 19.485 33.715 18.885 33.475C18.295 33.225 17.74 32.925 17.22 32.575C16.7 32.225 16.235 31.835 15.825 31.405L16.845 29.725C16.935 29.585 17.05 29.475 17.19 29.395C17.33 29.315 17.485 29.275 17.655 29.275C17.885 29.275 18.14 29.385 18.42 29.605C18.7 29.815 19.035 30.05 19.425 30.31C19.825 30.56 20.305 30.795 20.865 31.015C21.425 31.225 22.095 31.33 22.875 31.33C24.145 31.33 25.125 31.02 25.815 30.4C26.515 29.78 26.865 28.925 26.865 27.835C26.865 27.225 26.72 26.73 26.43 26.35C26.14 25.96 25.755 25.635 25.275 25.375C24.805 25.115 24.265 24.895 23.655 24.715C23.045 24.535 22.425 24.345 21.795 24.145C21.165 23.935 20.545 23.695 19.935 23.425C19.325 23.145 18.78 22.785 18.3 22.345C17.83 21.895 17.45 21.345 17.16 20.695C16.87 20.035 16.725 19.215 16.725 18.235C16.725 17.455 16.875 16.7 17.175 15.97C17.485 15.24 17.93 14.595 18.51 14.035C19.1 13.465 19.825 13.01 20.685 12.67C21.545 12.33 22.525 12.16 23.625 12.16C24.865 12.16 26 12.355 27.03 12.745C28.07 13.135 28.965 13.69 29.715 14.41L28.86 16.09ZM41.3119 27.31C40.1619 27.35 39.1919 27.445 38.4019 27.595C37.6119 27.735 36.9719 27.92 36.4819 28.15C35.9919 28.37 35.6369 28.635 35.4169 28.945C35.2069 29.255 35.1019 29.595 35.1019 29.965C35.1019 30.325 35.1569 30.635 35.2669 30.895C35.3869 31.145 35.5469 31.355 35.7469 31.525C35.9569 31.685 36.1969 31.805 36.4669 31.885C36.7469 31.955 37.0519 31.99 37.3819 31.99C38.2219 31.99 38.9419 31.835 39.5419 31.525C40.1519 31.205 40.7419 30.745 41.3119 30.145V27.31ZM32.7619 20.83C34.4919 19.22 36.5519 18.415 38.9419 18.415C39.8219 18.415 40.6019 18.56 41.2819 18.85C41.9719 19.13 42.5469 19.53 43.0069 20.05C43.4769 20.57 43.8319 21.19 44.0719 21.91C44.3219 22.62 44.4469 23.41 44.4469 24.28V34H43.0069C42.6969 34 42.4619 33.955 42.3019 33.865C42.1419 33.765 42.0069 33.57 41.8969 33.28L41.5819 32.035C41.1919 32.385 40.8069 32.7 40.4269 32.98C40.0469 33.25 39.6519 33.48 39.2419 33.67C38.8419 33.86 38.4069 34 37.9369 34.09C37.4769 34.19 36.9669 34.24 36.4069 34.24C35.7869 34.24 35.2069 34.155 34.6669 33.985C34.1369 33.815 33.6769 33.56 33.2869 33.22C32.8969 32.87 32.5869 32.44 32.3569 31.93C32.1369 31.42 32.0269 30.82 32.0269 30.13C32.0269 29.54 32.1819 28.965 32.4919 28.405C32.8119 27.845 33.3319 27.345 34.0519 26.905C34.7819 26.455 35.7369 26.085 36.9169 25.795C38.1069 25.505 39.5719 25.34 41.3119 25.3V24.28C41.3119 23.18 41.0769 22.36 40.6069 21.82C40.1369 21.28 39.4469 21.01 38.5369 21.01C37.9169 21.01 37.3969 21.09 36.9769 21.25C36.5569 21.4 36.1919 21.565 35.8819 21.745C35.5719 21.925 35.2969 22.095 35.0569 22.255C34.8169 22.405 34.5619 22.48 34.2919 22.48C34.0719 22.48 33.8819 22.425 33.7219 22.315C33.5719 22.195 33.4469 22.05 33.3469 21.88L32.7619 20.83ZM51.5098 11.8V34H48.2848V11.8H51.5098ZM68.3904 18.7V34H66.4404C66.0104 34 65.7354 33.795 65.6154 33.385L65.3754 31.96C65.0554 32.3 64.7154 32.61 64.3554 32.89C64.0054 33.17 63.6304 33.41 63.2304 33.61C62.8304 33.81 62.4004 33.965 61.9404 34.075C61.4904 34.185 61.0054 34.24 60.4854 34.24C59.6454 34.24 58.9054 34.1 58.2654 33.82C57.6254 33.54 57.0854 33.145 56.6454 32.635C56.2154 32.125 55.8904 31.515 55.6704 30.805C55.4504 30.085 55.3404 29.295 55.3404 28.435V18.7H58.5654V28.435C58.5654 29.465 58.8004 30.265 59.2704 30.835C59.7504 31.405 60.4754 31.69 61.4454 31.69C62.1554 31.69 62.8154 31.53 63.4254 31.21C64.0454 30.88 64.6254 30.43 65.1654 29.86V18.7H68.3904ZM82.0718 22.465C81.6218 21.885 81.1268 21.48 80.5868 21.25C80.0468 21.02 79.4618 20.905 78.8318 20.905C77.5718 20.905 76.5868 21.37 75.8768 22.3C75.1668 23.22 74.8118 24.585 74.8118 26.395C74.8118 27.335 74.8918 28.14 75.0518 28.81C75.2118 29.47 75.4418 30.01 75.7418 30.43C76.0418 30.85 76.4068 31.155 76.8368 31.345C77.2668 31.535 77.7518 31.63 78.2918 31.63C79.1118 31.63 79.8168 31.455 80.4068 31.105C81.0068 30.745 81.5618 30.24 82.0718 29.59V22.465ZM85.2968 11.8V34H83.3468C82.9168 34 82.6418 33.795 82.5218 33.385L82.2368 31.72C81.5968 32.47 80.8668 33.075 80.0468 33.535C79.2368 33.995 78.2918 34.225 77.2118 34.225C76.3518 34.225 75.5718 34.055 74.8718 33.715C74.1718 33.365 73.5718 32.86 73.0718 32.2C72.5718 31.54 72.1818 30.725 71.9018 29.755C71.6318 28.775 71.4968 27.655 71.4968 26.395C71.4968 25.255 71.6468 24.2 71.9468 23.23C72.2568 22.26 72.6968 21.42 73.2668 20.71C73.8368 19.99 74.5268 19.43 75.3368 19.03C76.1568 18.62 77.0718 18.415 78.0818 18.415C78.9818 18.415 79.7468 18.56 80.3768 18.85C81.0068 19.13 81.5718 19.525 82.0718 20.035V11.8H85.2968ZM99.7561 21.535C100.236 20.565 100.816 19.805 101.496 19.255C102.176 18.695 102.991 18.415 103.941 18.415C104.271 18.415 104.581 18.455 104.871 18.535C105.161 18.605 105.421 18.715 105.651 18.865L105.426 21.295C105.386 21.465 105.321 21.585 105.231 21.655C105.151 21.715 105.041 21.745 104.901 21.745C104.751 21.745 104.536 21.72 104.256 21.67C103.976 21.61 103.681 21.58 103.371 21.58C102.921 21.58 102.521 21.645 102.171 21.775C101.831 21.905 101.521 22.095 101.241 22.345C100.971 22.595 100.731 22.9 100.521 23.26C100.311 23.62 100.116 24.03 99.9361 24.49V34H96.7111V18.7H98.5861C98.9261 18.7 99.1611 18.765 99.2911 18.895C99.4211 19.015 99.5111 19.23 99.5611 19.54L99.7561 21.535ZM117.293 24.625C117.293 24.085 117.213 23.585 117.053 23.125C116.903 22.655 116.678 22.25 116.378 21.91C116.078 21.56 115.703 21.29 115.253 21.1C114.813 20.9 114.303 20.8 113.723 20.8C112.553 20.8 111.633 21.135 110.963 21.805C110.293 22.475 109.868 23.415 109.688 24.625H117.293ZM109.598 26.605C109.638 27.475 109.773 28.23 110.003 28.87C110.233 29.5 110.538 30.025 110.918 30.445C111.308 30.865 111.768 31.18 112.298 31.39C112.838 31.59 113.438 31.69 114.098 31.69C114.728 31.69 115.273 31.62 115.733 31.48C116.193 31.33 116.593 31.17 116.933 31C117.273 30.82 117.563 30.66 117.803 30.52C118.043 30.37 118.263 30.295 118.463 30.295C118.723 30.295 118.923 30.395 119.063 30.595L119.978 31.78C119.598 32.23 119.168 32.61 118.688 32.92C118.208 33.23 117.698 33.485 117.158 33.685C116.618 33.875 116.063 34.01 115.493 34.09C114.923 34.18 114.368 34.225 113.828 34.225C112.768 34.225 111.783 34.05 110.873 33.7C109.973 33.34 109.188 32.815 108.518 32.125C107.858 31.435 107.338 30.58 106.958 29.56C106.588 28.54 106.403 27.365 106.403 26.035C106.403 24.975 106.568 23.985 106.898 23.065C107.238 22.145 107.718 21.345 108.338 20.665C108.968 19.985 109.728 19.45 110.618 19.06C111.518 18.66 112.533 18.46 113.663 18.46C114.603 18.46 115.473 18.615 116.273 18.925C117.073 19.225 117.763 19.67 118.343 20.26C118.923 20.85 119.373 21.575 119.693 22.435C120.023 23.285 120.188 24.255 120.188 25.345C120.188 25.845 120.133 26.18 120.023 26.35C119.913 26.52 119.713 26.605 119.423 26.605H109.598ZM132.33 21.475C132.25 21.615 132.16 21.715 132.06 21.775C131.96 21.835 131.835 21.865 131.685 21.865C131.515 21.865 131.33 21.815 131.13 21.715C130.93 21.605 130.695 21.485 130.425 21.355C130.155 21.225 129.835 21.11 129.465 21.01C129.105 20.9 128.68 20.845 128.19 20.845C127.79 20.845 127.425 20.895 127.095 20.995C126.775 21.085 126.5 21.22 126.27 21.4C126.05 21.57 125.88 21.775 125.76 22.015C125.64 22.245 125.58 22.495 125.58 22.765C125.58 23.125 125.69 23.425 125.91 23.665C126.13 23.905 126.42 24.115 126.78 24.295C127.14 24.465 127.55 24.62 128.01 24.76C128.47 24.9 128.94 25.05 129.42 25.21C129.9 25.37 130.37 25.555 130.83 25.765C131.29 25.975 131.7 26.235 132.06 26.545C132.42 26.845 132.71 27.215 132.93 27.655C133.15 28.085 133.26 28.61 133.26 29.23C133.26 29.95 133.13 30.615 132.87 31.225C132.61 31.835 132.23 32.365 131.73 32.815C131.23 33.265 130.605 33.615 129.855 33.865C129.115 34.115 128.265 34.24 127.305 34.24C126.775 34.24 126.26 34.19 125.76 34.09C125.27 34 124.8 33.875 124.35 33.715C123.91 33.545 123.495 33.345 123.105 33.115C122.725 32.885 122.385 32.635 122.085 32.365L122.835 31.135C122.925 30.985 123.035 30.87 123.165 30.79C123.305 30.7 123.475 30.655 123.675 30.655C123.885 30.655 124.09 30.725 124.29 30.865C124.5 30.995 124.74 31.14 125.01 31.3C125.29 31.46 125.625 31.61 126.015 31.75C126.405 31.88 126.89 31.945 127.47 31.945C127.95 31.945 128.365 31.89 128.715 31.78C129.065 31.66 129.355 31.5 129.585 31.3C129.815 31.1 129.985 30.875 130.095 30.625C130.205 30.365 130.26 30.09 130.26 29.8C130.26 29.41 130.15 29.09 129.93 28.84C129.71 28.59 129.415 28.375 129.045 28.195C128.685 28.015 128.27 27.855 127.8 27.715C127.34 27.575 126.87 27.425 126.39 27.265C125.91 27.105 125.435 26.92 124.965 26.71C124.505 26.5 124.09 26.235 123.72 25.915C123.36 25.585 123.07 25.19 122.85 24.73C122.63 24.26 122.52 23.69 122.52 23.02C122.52 22.41 122.64 21.83 122.88 21.28C123.13 20.73 123.49 20.245 123.96 19.825C124.44 19.405 125.025 19.075 125.715 18.835C126.415 18.585 127.22 18.46 128.13 18.46C129.16 18.46 130.095 18.625 130.935 18.955C131.775 19.285 132.48 19.735 133.05 20.305L132.33 21.475ZM139.516 30.16C139.966 30.74 140.456 31.15 140.986 31.39C141.526 31.62 142.121 31.735 142.771 31.735C144.031 31.735 145.011 31.275 145.711 30.355C146.421 29.435 146.776 28.065 146.776 26.245C146.776 25.305 146.696 24.505 146.536 23.845C146.376 23.175 146.146 22.63 145.846 22.21C145.546 21.79 145.181 21.485 144.751 21.295C144.321 21.105 143.836 21.01 143.296 21.01C142.476 21.01 141.766 21.19 141.166 21.55C140.576 21.9 140.026 22.405 139.516 23.065V30.16ZM139.351 20.92C139.991 20.17 140.716 19.565 141.526 19.105C142.346 18.645 143.296 18.415 144.376 18.415C145.236 18.415 146.016 18.59 146.716 18.94C147.416 19.28 148.016 19.78 148.516 20.44C149.016 21.1 149.401 21.92 149.671 22.9C149.951 23.87 150.091 24.985 150.091 26.245C150.091 27.375 149.936 28.43 149.626 29.41C149.326 30.38 148.891 31.225 148.321 31.945C147.751 32.655 147.061 33.215 146.251 33.625C145.441 34.025 144.526 34.225 143.506 34.225C142.606 34.225 141.841 34.08 141.211 33.79C140.591 33.5 140.026 33.1 139.516 32.59V39.085H136.291V18.7H138.241C138.681 18.7 138.961 18.905 139.081 19.315L139.351 20.92ZM159.84 18.46C160.97 18.46 161.99 18.645 162.9 19.015C163.82 19.385 164.6 19.91 165.24 20.59C165.89 21.27 166.39 22.095 166.74 23.065C167.09 24.035 167.265 25.125 167.265 26.335C167.265 27.545 167.09 28.635 166.74 29.605C166.39 30.575 165.89 31.405 165.24 32.095C164.6 32.775 163.82 33.3 162.9 33.67C161.99 34.04 160.97 34.225 159.84 34.225C158.7 34.225 157.67 34.04 156.75 33.67C155.84 33.3 155.06 32.775 154.41 32.095C153.76 31.405 153.26 30.575 152.91 29.605C152.56 28.635 152.385 27.545 152.385 26.335C152.385 25.125 152.56 24.035 152.91 23.065C153.26 22.095 153.76 21.27 154.41 20.59C155.06 19.91 155.84 19.385 156.75 19.015C157.67 18.645 158.7 18.46 159.84 18.46ZM159.84 31.705C161.22 31.705 162.245 31.245 162.915 30.325C163.595 29.395 163.935 28.07 163.935 26.35C163.935 24.63 163.595 23.305 162.915 22.375C162.245 21.435 161.22 20.965 159.84 20.965C158.44 20.965 157.4 21.435 156.72 22.375C156.04 23.305 155.7 24.63 155.7 26.35C155.7 28.07 156.04 29.395 156.72 30.325C157.4 31.245 158.44 31.705 159.84 31.705ZM173.378 20.725C173.708 20.385 174.048 20.08 174.398 19.81C174.758 19.53 175.138 19.29 175.538 19.09C175.938 18.89 176.363 18.735 176.813 18.625C177.263 18.515 177.753 18.46 178.283 18.46C179.123 18.46 179.858 18.6 180.488 18.88C181.128 19.16 181.663 19.555 182.093 20.065C182.533 20.575 182.863 21.19 183.083 21.91C183.303 22.62 183.413 23.405 183.413 24.265V34H180.203V24.265C180.203 23.235 179.963 22.435 179.483 21.865C179.013 21.295 178.293 21.01 177.323 21.01C176.603 21.01 175.933 21.175 175.313 21.505C174.703 21.835 174.128 22.285 173.588 22.855V34H170.363V18.7H172.313C172.753 18.7 173.033 18.905 173.153 19.315L173.378 20.725ZM196.945 22.465C196.495 21.885 196 21.48 195.46 21.25C194.92 21.02 194.335 20.905 193.705 20.905C192.445 20.905 191.46 21.37 190.75 22.3C190.04 23.22 189.685 24.585 189.685 26.395C189.685 27.335 189.765 28.14 189.925 28.81C190.085 29.47 190.315 30.01 190.615 30.43C190.915 30.85 191.28 31.155 191.71 31.345C192.14 31.535 192.625 31.63 193.165 31.63C193.985 31.63 194.69 31.455 195.28 31.105C195.88 30.745 196.435 30.24 196.945 29.59V22.465ZM200.17 11.8V34H198.22C197.79 34 197.515 33.795 197.395 33.385L197.11 31.72C196.47 32.47 195.74 33.075 194.92 33.535C194.11 33.995 193.165 34.225 192.085 34.225C191.225 34.225 190.445 34.055 189.745 33.715C189.045 33.365 188.445 32.86 187.945 32.2C187.445 31.54 187.055 30.725 186.775 29.755C186.505 28.775 186.37 27.655 186.37 26.395C186.37 25.255 186.52 24.2 186.82 23.23C187.13 22.26 187.57 21.42 188.14 20.71C188.71 19.99 189.4 19.43 190.21 19.03C191.03 18.62 191.945 18.415 192.955 18.415C193.855 18.415 194.62 18.56 195.25 18.85C195.88 19.13 196.445 19.525 196.945 20.035V11.8H200.17ZM214.148 24.625C214.148 24.085 214.068 23.585 213.908 23.125C213.758 22.655 213.533 22.25 213.233 21.91C212.933 21.56 212.558 21.29 212.108 21.1C211.668 20.9 211.158 20.8 210.578 20.8C209.408 20.8 208.488 21.135 207.818 21.805C207.148 22.475 206.723 23.415 206.543 24.625H214.148ZM206.453 26.605C206.493 27.475 206.628 28.23 206.858 28.87C207.088 29.5 207.393 30.025 207.773 30.445C208.163 30.865 208.623 31.18 209.153 31.39C209.693 31.59 210.293 31.69 210.953 31.69C211.583 31.69 212.128 31.62 212.588 31.48C213.048 31.33 213.448 31.17 213.788 31C214.128 30.82 214.418 30.66 214.658 30.52C214.898 30.37 215.118 30.295 215.318 30.295C215.578 30.295 215.778 30.395 215.918 30.595L216.833 31.78C216.453 32.23 216.023 32.61 215.543 32.92C215.063 33.23 214.553 33.485 214.013 33.685C213.473 33.875 212.918 34.01 212.348 34.09C211.778 34.18 211.223 34.225 210.683 34.225C209.623 34.225 208.638 34.05 207.728 33.7C206.828 33.34 206.043 32.815 205.373 32.125C204.713 31.435 204.193 30.58 203.813 29.56C203.443 28.54 203.258 27.365 203.258 26.035C203.258 24.975 203.423 23.985 203.753 23.065C204.093 22.145 204.573 21.345 205.193 20.665C205.823 19.985 206.583 19.45 207.473 19.06C208.373 18.66 209.388 18.46 210.518 18.46C211.458 18.46 212.328 18.615 213.128 18.925C213.928 19.225 214.618 19.67 215.198 20.26C215.778 20.85 216.228 21.575 216.548 22.435C216.878 23.285 217.043 24.255 217.043 25.345C217.043 25.845 216.988 26.18 216.878 26.35C216.768 26.52 216.568 26.605 216.278 26.605H206.453ZM227.342 23.605H234.947V26.335H227.342V23.605ZM252.859 31.57C253.509 31.57 254.104 31.465 254.644 31.255C255.184 31.035 255.644 30.735 256.024 30.355C256.414 29.975 256.714 29.525 256.924 29.005C257.134 28.485 257.239 27.92 257.239 27.31C257.239 26.65 257.134 26.06 256.924 25.54C256.724 25.01 256.434 24.565 256.054 24.205C255.684 23.845 255.234 23.57 254.704 23.38C254.184 23.18 253.609 23.08 252.979 23.08C252.329 23.08 251.739 23.19 251.209 23.41C250.689 23.63 250.244 23.93 249.874 24.31C249.504 24.69 249.219 25.135 249.019 25.645C248.819 26.155 248.719 26.695 248.719 27.265C248.719 27.905 248.809 28.49 248.989 29.02C249.169 29.55 249.434 30.005 249.784 30.385C250.134 30.755 250.564 31.045 251.074 31.255C251.594 31.465 252.189 31.57 252.859 31.57ZM251.674 20.35C251.514 20.55 251.359 20.74 251.209 20.92C251.069 21.1 250.929 21.28 250.789 21.46C251.249 21.2 251.754 20.995 252.304 20.845C252.854 20.695 253.444 20.62 254.074 20.62C254.914 20.62 255.719 20.76 256.489 21.04C257.259 21.31 257.934 21.72 258.514 22.27C259.104 22.81 259.574 23.485 259.924 24.295C260.274 25.095 260.449 26.02 260.449 27.07C260.449 28.07 260.264 29.005 259.894 29.875C259.534 30.745 259.024 31.505 258.364 32.155C257.704 32.795 256.909 33.305 255.979 33.685C255.059 34.055 254.039 34.24 252.919 34.24C251.799 34.24 250.789 34.06 249.889 33.7C248.989 33.34 248.219 32.835 247.579 32.185C246.949 31.525 246.464 30.735 246.124 29.815C245.784 28.895 245.614 27.87 245.614 26.74C245.614 25.76 245.824 24.735 246.244 23.665C246.664 22.595 247.314 21.47 248.194 20.29L253.504 13.165C253.664 12.955 253.894 12.775 254.194 12.625C254.504 12.475 254.849 12.4 255.229 12.4H258.079L251.674 20.35ZM278.167 23.2C278.167 25.09 277.962 26.725 277.552 28.105C277.152 29.485 276.597 30.63 275.887 31.54C275.177 32.45 274.342 33.125 273.382 33.565C272.422 34.005 271.387 34.225 270.277 34.225C269.167 34.225 268.132 34.005 267.172 33.565C266.212 33.125 265.377 32.45 264.667 31.54C263.967 30.63 263.417 29.485 263.017 28.105C262.617 26.725 262.417 25.09 262.417 23.2C262.417 21.31 262.617 19.675 263.017 18.295C263.417 16.905 263.967 15.76 264.667 14.86C265.377 13.95 266.212 13.275 267.172 12.835C268.132 12.385 269.167 12.16 270.277 12.16C271.387 12.16 272.422 12.385 273.382 12.835C274.342 13.275 275.177 13.95 275.887 14.86C276.597 15.76 277.152 16.905 277.552 18.295C277.962 19.675 278.167 21.31 278.167 23.2ZM274.837 23.2C274.837 21.6 274.707 20.27 274.447 19.21C274.197 18.14 273.862 17.285 273.442 16.645C273.022 16.005 272.537 15.55 271.987 15.28C271.437 15.01 270.867 14.875 270.277 14.875C269.677 14.875 269.102 15.01 268.552 15.28C268.012 15.55 267.532 16.005 267.112 16.645C266.692 17.285 266.357 18.14 266.107 19.21C265.857 20.27 265.732 21.6 265.732 23.2C265.732 24.8 265.857 26.135 266.107 27.205C266.357 28.265 266.692 29.115 267.112 29.755C267.532 30.395 268.012 30.85 268.552 31.12C269.102 31.39 269.677 31.525 270.277 31.525C270.867 31.525 271.437 31.39 271.987 31.12C272.537 30.85 273.022 30.395 273.442 29.755C273.862 29.115 274.197 28.265 274.447 27.205C274.707 26.135 274.837 24.8 274.837 23.2ZM295.569 23.2C295.569 25.09 295.364 26.725 294.954 28.105C294.554 29.485 293.999 30.63 293.289 31.54C292.579 32.45 291.744 33.125 290.784 33.565C289.824 34.005 288.789 34.225 287.679 34.225C286.569 34.225 285.534 34.005 284.574 33.565C283.614 33.125 282.779 32.45 282.069 31.54C281.369 30.63 280.819 29.485 280.419 28.105C280.019 26.725 279.819 25.09 279.819 23.2C279.819 21.31 280.019 19.675 280.419 18.295C280.819 16.905 281.369 15.76 282.069 14.86C282.779 13.95 283.614 13.275 284.574 12.835C285.534 12.385 286.569 12.16 287.679 12.16C288.789 12.16 289.824 12.385 290.784 12.835C291.744 13.275 292.579 13.95 293.289 14.86C293.999 15.76 294.554 16.905 294.954 18.295C295.364 19.675 295.569 21.31 295.569 23.2ZM292.239 23.2C292.239 21.6 292.109 20.27 291.849 19.21C291.599 18.14 291.264 17.285 290.844 16.645C290.424 16.005 289.939 15.55 289.389 15.28C288.839 15.01 288.269 14.875 287.679 14.875C287.079 14.875 286.504 15.01 285.954 15.28C285.414 15.55 284.934 16.005 284.514 16.645C284.094 17.285 283.759 18.14 283.509 19.21C283.259 20.27 283.134 21.6 283.134 23.2C283.134 24.8 283.259 26.135 283.509 27.205C283.759 28.265 284.094 29.115 284.514 29.755C284.934 30.395 285.414 30.85 285.954 31.12C286.504 31.39 287.079 31.525 287.679 31.525C288.269 31.525 288.839 31.39 289.389 31.12C289.939 30.85 290.424 30.395 290.844 29.755C291.264 29.115 291.599 28.265 291.849 27.205C292.109 26.135 292.239 24.8 292.239 23.2ZM305.637 18.34C305.787 17.32 306.067 16.425 306.477 15.655C306.897 14.885 307.422 14.245 308.052 13.735C308.682 13.215 309.402 12.825 310.212 12.565C311.032 12.295 311.917 12.16 312.867 12.16C313.827 12.16 314.697 12.3 315.477 12.58C316.267 12.85 316.942 13.23 317.502 13.72C318.072 14.21 318.507 14.795 318.807 15.475C319.117 16.155 319.272 16.9 319.272 17.71C319.272 18.4 319.187 19.01 319.017 19.54C318.857 20.06 318.622 20.52 318.312 20.92C318.012 21.32 317.642 21.655 317.202 21.925C316.762 22.195 316.267 22.42 315.717 22.6C317.057 22.99 318.062 23.615 318.732 24.475C319.402 25.325 319.737 26.395 319.737 27.685C319.737 28.725 319.542 29.65 319.152 30.46C318.762 31.27 318.232 31.955 317.562 32.515C316.902 33.075 316.127 33.505 315.237 33.805C314.357 34.095 313.422 34.24 312.432 34.24C311.322 34.24 310.362 34.11 309.552 33.85C308.742 33.58 308.042 33.2 307.452 32.71C306.872 32.21 306.387 31.61 305.997 30.91C305.607 30.21 305.277 29.425 305.007 28.555L306.402 27.97C306.772 27.81 307.122 27.765 307.452 27.835C307.792 27.905 308.037 28.09 308.187 28.39C308.347 28.71 308.527 29.055 308.727 29.425C308.927 29.785 309.182 30.12 309.492 30.43C309.812 30.73 310.202 30.985 310.662 31.195C311.132 31.395 311.707 31.495 312.387 31.495C313.077 31.495 313.677 31.385 314.187 31.165C314.707 30.935 315.137 30.645 315.477 30.295C315.827 29.935 316.087 29.535 316.257 29.095C316.427 28.655 316.512 28.22 316.512 27.79C316.512 27.25 316.447 26.755 316.317 26.305C316.187 25.845 315.932 25.455 315.552 25.135C315.182 24.815 314.652 24.565 313.962 24.385C313.282 24.195 312.387 24.1 311.277 24.1V21.775C312.187 21.765 312.952 21.675 313.572 21.505C314.202 21.325 314.702 21.085 315.072 20.785C315.452 20.475 315.722 20.105 315.882 19.675C316.052 19.245 316.137 18.775 316.137 18.265C316.137 17.715 316.052 17.23 315.882 16.81C315.712 16.39 315.472 16.04 315.162 15.76C314.862 15.47 314.502 15.255 314.082 15.115C313.662 14.975 313.197 14.905 312.687 14.905C312.197 14.905 311.742 14.975 311.322 15.115C310.912 15.255 310.542 15.45 310.212 15.7C309.892 15.95 309.622 16.25 309.402 16.6C309.182 16.94 309.022 17.315 308.922 17.725C308.782 18.135 308.592 18.41 308.352 18.55C308.122 18.69 307.782 18.72 307.332 18.64L305.637 18.34ZM329.94 31.57C330.59 31.57 331.185 31.465 331.725 31.255C332.265 31.035 332.725 30.735 333.105 30.355C333.495 29.975 333.795 29.525 334.005 29.005C334.215 28.485 334.32 27.92 334.32 27.31C334.32 26.65 334.215 26.06 334.005 25.54C333.805 25.01 333.515 24.565 333.135 24.205C332.765 23.845 332.315 23.57 331.785 23.38C331.265 23.18 330.69 23.08 330.06 23.08C329.41 23.08 328.82 23.19 328.29 23.41C327.77 23.63 327.325 23.93 326.955 24.31C326.585 24.69 326.3 25.135 326.1 25.645C325.9 26.155 325.8 26.695 325.8 27.265C325.8 27.905 325.89 28.49 326.07 29.02C326.25 29.55 326.515 30.005 326.865 30.385C327.215 30.755 327.645 31.045 328.155 31.255C328.675 31.465 329.27 31.57 329.94 31.57ZM328.755 20.35C328.595 20.55 328.44 20.74 328.29 20.92C328.15 21.1 328.01 21.28 327.87 21.46C328.33 21.2 328.835 20.995 329.385 20.845C329.935 20.695 330.525 20.62 331.155 20.62C331.995 20.62 332.8 20.76 333.57 21.04C334.34 21.31 335.015 21.72 335.595 22.27C336.185 22.81 336.655 23.485 337.005 24.295C337.355 25.095 337.53 26.02 337.53 27.07C337.53 28.07 337.345 29.005 336.975 29.875C336.615 30.745 336.105 31.505 335.445 32.155C334.785 32.795 333.99 33.305 333.06 33.685C332.14 34.055 331.12 34.24 330 34.24C328.88 34.24 327.87 34.06 326.97 33.7C326.07 33.34 325.3 32.835 324.66 32.185C324.03 31.525 323.545 30.735 323.205 29.815C322.865 28.895 322.695 27.87 322.695 26.74C322.695 25.76 322.905 24.735 323.325 23.665C323.745 22.595 324.395 21.47 325.275 20.29L330.585 13.165C330.745 12.955 330.975 12.775 331.275 12.625C331.585 12.475 331.93 12.4 332.31 12.4H335.16L328.755 20.35ZM355.247 23.2C355.247 25.09 355.042 26.725 354.632 28.105C354.232 29.485 353.677 30.63 352.967 31.54C352.257 32.45 351.422 33.125 350.462 33.565C349.502 34.005 348.467 34.225 347.357 34.225C346.247 34.225 345.212 34.005 344.252 33.565C343.292 33.125 342.457 32.45 341.747 31.54C341.047 30.63 340.497 29.485 340.097 28.105C339.697 26.725 339.497 25.09 339.497 23.2C339.497 21.31 339.697 19.675 340.097 18.295C340.497 16.905 341.047 15.76 341.747 14.86C342.457 13.95 343.292 13.275 344.252 12.835C345.212 12.385 346.247 12.16 347.357 12.16C348.467 12.16 349.502 12.385 350.462 12.835C351.422 13.275 352.257 13.95 352.967 14.86C353.677 15.76 354.232 16.905 354.632 18.295C355.042 19.675 355.247 21.31 355.247 23.2ZM351.917 23.2C351.917 21.6 351.787 20.27 351.527 19.21C351.277 18.14 350.942 17.285 350.522 16.645C350.102 16.005 349.617 15.55 349.067 15.28C348.517 15.01 347.947 14.875 347.357 14.875C346.757 14.875 346.182 15.01 345.632 15.28C345.092 15.55 344.612 16.005 344.192 16.645C343.772 17.285 343.437 18.14 343.187 19.21C342.937 20.27 342.812 21.6 342.812 23.2C342.812 24.8 342.937 26.135 343.187 27.205C343.437 28.265 343.772 29.115 344.192 29.755C344.612 30.395 345.092 30.85 345.632 31.12C346.182 31.39 346.757 31.525 347.357 31.525C347.947 31.525 348.517 31.39 349.067 31.12C349.617 30.85 350.102 30.395 350.522 29.755C350.942 29.115 351.277 28.265 351.527 27.205C351.787 26.135 351.917 24.8 351.917 23.2ZM379.85 12.4V13.825C379.85 14.245 379.805 14.585 379.715 14.845C379.625 15.105 379.535 15.325 379.445 15.505L370.91 32.875C370.76 33.195 370.545 33.465 370.265 33.685C369.995 33.895 369.635 34 369.185 34H366.86L375.56 16.915C375.72 16.605 375.88 16.325 376.04 16.075C376.2 15.825 376.38 15.585 376.58 15.355H365.795C365.595 15.355 365.42 15.28 365.27 15.13C365.12 14.97 365.045 14.79 365.045 14.59V12.4H379.85ZM397.252 12.4V13.825C397.252 14.245 397.207 14.585 397.117 14.845C397.027 15.105 396.937 15.325 396.847 15.505L388.312 32.875C388.162 33.195 387.947 33.465 387.667 33.685C387.397 33.895 387.037 34 386.587 34H384.262L392.962 16.915C393.122 16.605 393.282 16.325 393.442 16.075C393.602 15.825 393.782 15.585 393.982 15.355H383.197C382.997 15.355 382.822 15.28 382.672 15.13C382.522 14.97 382.447 14.79 382.447 14.59V12.4H397.252ZM414.655 12.4V13.825C414.655 14.245 414.61 14.585 414.52 14.845C414.43 15.105 414.34 15.325 414.25 15.505L405.715 32.875C405.565 33.195 405.35 33.465 405.07 33.685C404.8 33.895 404.44 34 403.99 34H401.665L410.365 16.915C410.525 16.605 410.685 16.325 410.845 16.075C411.005 15.825 411.185 15.585 411.385 15.355H400.6C400.4 15.355 400.225 15.28 400.075 15.13C399.925 14.97 399.85 14.79 399.85 14.59V12.4H414.655ZM432.057 12.4V13.825C432.057 14.245 432.012 14.585 431.922 14.845C431.832 15.105 431.742 15.325 431.652 15.505L423.117 32.875C422.967 33.195 422.752 33.465 422.472 33.685C422.202 33.895 421.842 34 421.392 34H419.067L427.767 16.915C427.927 16.605 428.087 16.325 428.247 16.075C428.407 15.825 428.587 15.585 428.787 15.355H418.002C417.802 15.355 417.627 15.28 417.477 15.13C417.327 14.97 417.252 14.79 417.252 14.59V12.4H432.057Z" fill="white"/>
<path d="M39.68 78.37H45.88V80H37.74V65.67H39.68V78.37ZM49.7134 69.87V80H47.9334V69.87H49.7134ZM51.7934 65.51L49.4634 68.09C49.3701 68.19 49.2768 68.2633 49.1834 68.31C49.0968 68.35 48.9834 68.37 48.8434 68.37H47.7834L49.2634 65.95C49.3568 65.7967 49.4568 65.6867 49.5634 65.62C49.6768 65.5467 49.8401 65.51 50.0534 65.51H51.7934ZM52.8506 80V69.87H53.9106C54.164 69.87 54.324 69.9933 54.3906 70.24L54.5306 71.34C54.9706 70.8533 55.4606 70.46 56.0006 70.16C56.5473 69.86 57.1773 69.71 57.8906 69.71C58.444 69.71 58.9306 69.8033 59.3506 69.99C59.7773 70.17 60.1306 70.43 60.4106 70.77C60.6973 71.1033 60.914 71.5067 61.0606 71.98C61.2073 72.4533 61.2806 72.9767 61.2806 73.55V80H59.5006V73.55C59.5006 72.7833 59.324 72.19 58.9706 71.77C58.624 71.3433 58.0906 71.13 57.3706 71.13C56.844 71.13 56.3506 71.2567 55.8906 71.51C55.4373 71.7633 55.0173 72.1067 54.6306 72.54V80H52.8506ZM67.9739 69.71C68.5806 69.71 69.1406 69.8133 69.6539 70.02C70.1672 70.22 70.6106 70.5133 70.9839 70.9C71.3572 71.28 71.6472 71.7533 71.8539 72.32C72.0672 72.88 72.1739 73.52 72.1739 74.24C72.1739 74.52 72.1439 74.7067 72.0839 74.8C72.0239 74.8933 71.9106 74.94 71.7439 74.94H65.0039C65.0172 75.58 65.1039 76.1367 65.2639 76.61C65.4239 77.0833 65.6439 77.48 65.9239 77.8C66.2039 78.1133 66.5372 78.35 66.9239 78.51C67.3106 78.6633 67.7439 78.74 68.2239 78.74C68.6706 78.74 69.0539 78.69 69.3739 78.59C69.7006 78.4833 69.9806 78.37 70.2139 78.25C70.4472 78.13 70.6406 78.02 70.7939 77.92C70.9539 77.8133 71.0906 77.76 71.2039 77.76C71.3506 77.76 71.4639 77.8167 71.5439 77.93L72.0439 78.58C71.8239 78.8467 71.5606 79.08 71.2539 79.28C70.9472 79.4733 70.6172 79.6333 70.2639 79.76C69.9172 79.8867 69.5572 79.98 69.1839 80.04C68.8106 80.1067 68.4406 80.14 68.0739 80.14C67.3739 80.14 66.7272 80.0233 66.1339 79.79C65.5472 79.55 65.0372 79.2033 64.6039 78.75C64.1772 78.29 63.8439 77.7233 63.6039 77.05C63.3639 76.3767 63.2439 75.6033 63.2439 74.73C63.2439 74.0233 63.3506 73.3633 63.5639 72.75C63.7839 72.1367 64.0972 71.6067 64.5039 71.16C64.9106 70.7067 65.4072 70.3533 65.9939 70.1C66.5806 69.84 67.2406 69.71 67.9739 69.71ZM68.0139 71.02C67.1539 71.02 66.4772 71.27 65.9839 71.77C65.4906 72.2633 65.1839 72.95 65.0639 73.83H70.5739C70.5739 73.4167 70.5172 73.04 70.4039 72.7C70.2906 72.3533 70.1239 72.0567 69.9039 71.81C69.6839 71.5567 69.4139 71.3633 69.0939 71.23C68.7806 71.09 68.4206 71.02 68.0139 71.02ZM81.8922 80H81.1022C80.9289 80 80.7889 79.9733 80.6822 79.92C80.5755 79.8667 80.5055 79.7533 80.4722 79.58L80.2722 78.64C80.0055 78.88 79.7455 79.0967 79.4922 79.29C79.2389 79.4767 78.9722 79.6367 78.6922 79.77C78.4122 79.8967 78.1122 79.9933 77.7922 80.06C77.4789 80.1267 77.1289 80.16 76.7422 80.16C76.3489 80.16 75.9789 80.1067 75.6322 80C75.2922 79.8867 74.9955 79.72 74.7422 79.5C74.4889 79.28 74.2855 79.0033 74.1322 78.67C73.9855 78.33 73.9122 77.93 73.9122 77.47C73.9122 77.07 74.0222 76.6867 74.2422 76.32C74.4622 75.9467 74.8155 75.6167 75.3022 75.33C75.7955 75.0433 76.4389 74.81 77.2322 74.63C78.0255 74.4433 78.9955 74.3367 80.1422 74.31V73.52C80.1422 72.7333 79.9722 72.14 79.6322 71.74C79.2989 71.3333 78.8022 71.13 78.1422 71.13C77.7089 71.13 77.3422 71.1867 77.0422 71.3C76.7489 71.4067 76.4922 71.53 76.2722 71.67C76.0589 71.8033 75.8722 71.9267 75.7122 72.04C75.5589 72.1467 75.4055 72.2 75.2522 72.2C75.1322 72.2 75.0255 72.17 74.9322 72.11C74.8455 72.0433 74.7755 71.9633 74.7222 71.87L74.4022 71.3C74.9622 70.76 75.5655 70.3567 76.2122 70.09C76.8589 69.8233 77.5755 69.69 78.3622 69.69C78.9289 69.69 79.4322 69.7833 79.8722 69.97C80.3122 70.1567 80.6822 70.4167 80.9822 70.75C81.2822 71.0833 81.5089 71.4867 81.6622 71.96C81.8155 72.4333 81.8922 72.9533 81.8922 73.52V80ZM77.2722 78.91C77.5855 78.91 77.8722 78.88 78.1322 78.82C78.3922 78.7533 78.6355 78.6633 78.8622 78.55C79.0955 78.43 79.3155 78.2867 79.5222 78.12C79.7355 77.9533 79.9422 77.7633 80.1422 77.55V75.44C79.3222 75.4667 78.6255 75.5333 78.0522 75.64C77.4789 75.74 77.0122 75.8733 76.6522 76.04C76.2922 76.2067 76.0289 76.4033 75.8622 76.63C75.7022 76.8567 75.6222 77.11 75.6222 77.39C75.6222 77.6567 75.6655 77.8867 75.7522 78.08C75.8389 78.2733 75.9555 78.4333 76.1022 78.56C76.2489 78.68 76.4222 78.77 76.6222 78.83C76.8222 78.8833 77.0389 78.91 77.2722 78.91ZM92.4661 69.71C93.0728 69.71 93.6328 69.8133 94.1461 70.02C94.6594 70.22 95.1028 70.5133 95.4761 70.9C95.8494 71.28 96.1394 71.7533 96.3461 72.32C96.5594 72.88 96.6661 73.52 96.6661 74.24C96.6661 74.52 96.6361 74.7067 96.5761 74.8C96.5161 74.8933 96.4028 74.94 96.2361 74.94H89.4961C89.5094 75.58 89.5961 76.1367 89.7561 76.61C89.9161 77.0833 90.1361 77.48 90.4161 77.8C90.6961 78.1133 91.0294 78.35 91.4161 78.51C91.8028 78.6633 92.2361 78.74 92.7161 78.74C93.1628 78.74 93.5461 78.69 93.8661 78.59C94.1928 78.4833 94.4728 78.37 94.7061 78.25C94.9394 78.13 95.1328 78.02 95.2861 77.92C95.4461 77.8133 95.5828 77.76 95.6961 77.76C95.8428 77.76 95.9561 77.8167 96.0361 77.93L96.5361 78.58C96.3161 78.8467 96.0528 79.08 95.7461 79.28C95.4394 79.4733 95.1094 79.6333 94.7561 79.76C94.4094 79.8867 94.0494 79.98 93.6761 80.04C93.3028 80.1067 92.9328 80.14 92.5661 80.14C91.8661 80.14 91.2194 80.0233 90.6261 79.79C90.0394 79.55 89.5294 79.2033 89.0961 78.75C88.6694 78.29 88.3361 77.7233 88.0961 77.05C87.8561 76.3767 87.7361 75.6033 87.7361 74.73C87.7361 74.0233 87.8428 73.3633 88.0561 72.75C88.2761 72.1367 88.5894 71.6067 88.9961 71.16C89.4028 70.7067 89.8994 70.3533 90.4861 70.1C91.0728 69.84 91.7328 69.71 92.4661 69.71ZM92.5061 71.02C91.6461 71.02 90.9694 71.27 90.4761 71.77C89.9828 72.2633 89.6761 72.95 89.5561 73.83H95.0661C95.0661 73.4167 95.0094 73.04 94.8961 72.7C94.7828 72.3533 94.6161 72.0567 94.3961 71.81C94.1761 71.5567 93.9061 71.3633 93.5861 71.23C93.2728 71.09 92.9128 71.02 92.5061 71.02ZM104.744 71.54C104.664 71.6867 104.541 71.76 104.374 71.76C104.274 71.76 104.161 71.7233 104.034 71.65C103.908 71.5767 103.751 71.4967 103.564 71.41C103.384 71.3167 103.168 71.2333 102.914 71.16C102.661 71.08 102.361 71.04 102.014 71.04C101.714 71.04 101.444 71.08 101.204 71.16C100.964 71.2333 100.758 71.3367 100.584 71.47C100.418 71.6033 100.288 71.76 100.194 71.94C100.108 72.1133 100.064 72.3033 100.064 72.51C100.064 72.77 100.138 72.9867 100.284 73.16C100.438 73.3333 100.638 73.4833 100.884 73.61C101.131 73.7367 101.411 73.85 101.724 73.95C102.038 74.0433 102.358 74.1467 102.684 74.26C103.018 74.3667 103.341 74.4867 103.654 74.62C103.968 74.7533 104.248 74.92 104.494 75.12C104.741 75.32 104.938 75.5667 105.084 75.86C105.238 76.1467 105.314 76.4933 105.314 76.9C105.314 77.3667 105.231 77.8 105.064 78.2C104.898 78.5933 104.651 78.9367 104.324 79.23C103.998 79.5167 103.598 79.7433 103.124 79.91C102.651 80.0767 102.104 80.16 101.484 80.16C100.778 80.16 100.138 80.0467 99.5644 79.82C98.991 79.5867 98.5044 79.29 98.1044 78.93L98.5244 78.25C98.5777 78.1633 98.641 78.0967 98.7144 78.05C98.7877 78.0033 98.8844 77.98 99.0044 77.98C99.1244 77.98 99.251 78.0267 99.3844 78.12C99.5177 78.2133 99.6777 78.3167 99.8644 78.43C100.058 78.5433 100.288 78.6467 100.554 78.74C100.828 78.8333 101.168 78.88 101.574 78.88C101.921 78.88 102.224 78.8367 102.484 78.75C102.744 78.6567 102.961 78.5333 103.134 78.38C103.308 78.2267 103.434 78.05 103.514 77.85C103.601 77.65 103.644 77.4367 103.644 77.21C103.644 76.93 103.568 76.7 103.414 76.52C103.268 76.3333 103.071 76.1767 102.824 76.05C102.578 75.9167 102.294 75.8033 101.974 75.71C101.661 75.61 101.338 75.5067 101.004 75.4C100.678 75.2933 100.354 75.1733 100.034 75.04C99.721 74.9 99.441 74.7267 99.1944 74.52C98.9477 74.3133 98.7477 74.06 98.5944 73.76C98.4477 73.4533 98.3744 73.0833 98.3744 72.65C98.3744 72.2633 98.4544 71.8933 98.6144 71.54C98.7744 71.18 99.0077 70.8667 99.3144 70.6C99.621 70.3267 99.9977 70.11 100.444 69.95C100.891 69.79 101.401 69.71 101.974 69.71C102.641 69.71 103.238 69.8167 103.764 70.03C104.298 70.2367 104.758 70.5233 105.144 70.89L104.744 71.54ZM107.616 83.43V69.87H108.676C108.93 69.87 109.09 69.9933 109.156 70.24L109.306 71.44C109.74 70.9133 110.233 70.49 110.786 70.17C111.346 69.85 111.99 69.69 112.716 69.69C113.296 69.69 113.823 69.8033 114.296 70.03C114.77 70.25 115.173 70.58 115.506 71.02C115.84 71.4533 116.096 71.9933 116.276 72.64C116.456 73.2867 116.546 74.03 116.546 74.87C116.546 75.6167 116.446 76.3133 116.246 76.96C116.046 77.6 115.76 78.1567 115.386 78.63C115.013 79.0967 114.553 79.4667 114.006 79.74C113.466 80.0067 112.856 80.14 112.176 80.14C111.55 80.14 111.013 80.0367 110.566 79.83C110.126 79.6233 109.736 79.33 109.396 78.95V83.43H107.616ZM112.126 71.13C111.546 71.13 111.036 71.2633 110.596 71.53C110.163 71.7967 109.763 72.1733 109.396 72.66V77.56C109.723 78 110.08 78.31 110.466 78.49C110.86 78.67 111.296 78.76 111.776 78.76C112.716 78.76 113.44 78.4233 113.946 77.75C114.453 77.0767 114.706 76.1167 114.706 74.87C114.706 74.21 114.646 73.6433 114.526 73.17C114.413 72.6967 114.246 72.31 114.026 72.01C113.806 71.7033 113.536 71.48 113.216 71.34C112.896 71.2 112.533 71.13 112.126 71.13ZM122.661 69.71C123.268 69.71 123.828 69.8133 124.341 70.02C124.855 70.22 125.298 70.5133 125.671 70.9C126.045 71.28 126.335 71.7533 126.541 72.32C126.755 72.88 126.861 73.52 126.861 74.24C126.861 74.52 126.831 74.7067 126.771 74.8C126.711 74.8933 126.598 74.94 126.431 74.94H119.691C119.705 75.58 119.791 76.1367 119.951 76.61C120.111 77.0833 120.331 77.48 120.611 77.8C120.891 78.1133 121.225 78.35 121.611 78.51C121.998 78.6633 122.431 78.74 122.911 78.74C123.358 78.74 123.741 78.69 124.061 78.59C124.388 78.4833 124.668 78.37 124.901 78.25C125.135 78.13 125.328 78.02 125.481 77.92C125.641 77.8133 125.778 77.76 125.891 77.76C126.038 77.76 126.151 77.8167 126.231 77.93L126.731 78.58C126.511 78.8467 126.248 79.08 125.941 79.28C125.635 79.4733 125.305 79.6333 124.951 79.76C124.605 79.8867 124.245 79.98 123.871 80.04C123.498 80.1067 123.128 80.14 122.761 80.14C122.061 80.14 121.415 80.0233 120.821 79.79C120.235 79.55 119.725 79.2033 119.291 78.75C118.865 78.29 118.531 77.7233 118.291 77.05C118.051 76.3767 117.931 75.6033 117.931 74.73C117.931 74.0233 118.038 73.3633 118.251 72.75C118.471 72.1367 118.785 71.6067 119.191 71.16C119.598 70.7067 120.095 70.3533 120.681 70.1C121.268 69.84 121.928 69.71 122.661 69.71ZM122.701 71.02C121.841 71.02 121.165 71.27 120.671 71.77C120.178 72.2633 119.871 72.95 119.751 73.83H125.261C125.261 73.4167 125.205 73.04 125.091 72.7C124.978 72.3533 124.811 72.0567 124.591 71.81C124.371 71.5567 124.101 71.3633 123.781 71.23C123.468 71.09 123.108 71.02 122.701 71.02ZM136.05 71.67C135.996 71.7433 135.943 71.8 135.89 71.84C135.836 71.88 135.76 71.9 135.66 71.9C135.56 71.9 135.45 71.86 135.33 71.78C135.216 71.6933 135.07 71.6 134.89 71.5C134.71 71.4 134.49 71.31 134.23 71.23C133.976 71.1433 133.663 71.1 133.29 71.1C132.796 71.1 132.36 71.19 131.98 71.37C131.6 71.5433 131.28 71.7967 131.02 72.13C130.766 72.4633 130.573 72.8667 130.44 73.34C130.313 73.8133 130.25 74.3433 130.25 74.93C130.25 75.5433 130.32 76.09 130.46 76.57C130.6 77.0433 130.796 77.4433 131.05 77.77C131.303 78.09 131.61 78.3367 131.97 78.51C132.336 78.6767 132.746 78.76 133.2 78.76C133.633 78.76 133.99 78.71 134.27 78.61C134.55 78.5033 134.783 78.3867 134.97 78.26C135.156 78.1333 135.31 78.02 135.43 77.92C135.55 77.8133 135.67 77.76 135.79 77.76C135.943 77.76 136.056 77.8167 136.13 77.93L136.63 78.58C136.19 79.12 135.64 79.5167 134.98 79.77C134.32 80.0167 133.623 80.14 132.89 80.14C132.256 80.14 131.666 80.0233 131.12 79.79C130.58 79.5567 130.11 79.22 129.71 78.78C129.31 78.3333 128.993 77.7867 128.76 77.14C128.533 76.4933 128.42 75.7567 128.42 74.93C128.42 74.1767 128.523 73.48 128.73 72.84C128.943 72.2 129.25 71.65 129.65 71.19C130.056 70.7233 130.556 70.36 131.15 70.1C131.743 69.84 132.423 69.71 133.19 69.71C133.896 69.71 134.523 69.8267 135.07 70.06C135.616 70.2867 136.1 70.61 136.52 71.03L136.05 71.67ZM140.456 69.87V80H138.676V69.87H140.456ZM140.856 66.69C140.856 66.8633 140.819 67.0267 140.746 67.18C140.679 67.3267 140.586 67.46 140.466 67.58C140.352 67.6933 140.219 67.7833 140.066 67.85C139.912 67.9167 139.749 67.95 139.576 67.95C139.402 67.95 139.239 67.9167 139.086 67.85C138.939 67.7833 138.806 67.6933 138.686 67.58C138.572 67.46 138.482 67.3267 138.416 67.18C138.349 67.0267 138.316 66.8633 138.316 66.69C138.316 66.5167 138.349 66.3533 138.416 66.2C138.482 66.04 138.572 65.9033 138.686 65.79C138.806 65.67 138.939 65.5767 139.086 65.51C139.239 65.4433 139.402 65.41 139.576 65.41C139.749 65.41 139.912 65.4433 140.066 65.51C140.219 65.5767 140.352 65.67 140.466 65.79C140.586 65.9033 140.679 66.04 140.746 66.2C140.819 66.3533 140.856 66.5167 140.856 66.69ZM151.033 80H150.243C150.069 80 149.929 79.9733 149.823 79.92C149.716 79.8667 149.646 79.7533 149.613 79.58L149.413 78.64C149.146 78.88 148.886 79.0967 148.633 79.29C148.379 79.4767 148.113 79.6367 147.833 79.77C147.553 79.8967 147.253 79.9933 146.933 80.06C146.619 80.1267 146.269 80.16 145.883 80.16C145.489 80.16 145.119 80.1067 144.773 80C144.433 79.8867 144.136 79.72 143.883 79.5C143.629 79.28 143.426 79.0033 143.273 78.67C143.126 78.33 143.053 77.93 143.053 77.47C143.053 77.07 143.163 76.6867 143.383 76.32C143.603 75.9467 143.956 75.6167 144.443 75.33C144.936 75.0433 145.579 74.81 146.373 74.63C147.166 74.4433 148.136 74.3367 149.283 74.31V73.52C149.283 72.7333 149.113 72.14 148.773 71.74C148.439 71.3333 147.943 71.13 147.283 71.13C146.849 71.13 146.483 71.1867 146.183 71.3C145.889 71.4067 145.633 71.53 145.413 71.67C145.199 71.8033 145.013 71.9267 144.853 72.04C144.699 72.1467 144.546 72.2 144.393 72.2C144.273 72.2 144.166 72.17 144.073 72.11C143.986 72.0433 143.916 71.9633 143.863 71.87L143.543 71.3C144.103 70.76 144.706 70.3567 145.353 70.09C145.999 69.8233 146.716 69.69 147.503 69.69C148.069 69.69 148.573 69.7833 149.013 69.97C149.453 70.1567 149.823 70.4167 150.123 70.75C150.423 71.0833 150.649 71.4867 150.803 71.96C150.956 72.4333 151.033 72.9533 151.033 73.52V80ZM146.413 78.91C146.726 78.91 147.013 78.88 147.273 78.82C147.533 78.7533 147.776 78.6633 148.003 78.55C148.236 78.43 148.456 78.2867 148.663 78.12C148.876 77.9533 149.083 77.7633 149.283 77.55V75.44C148.463 75.4667 147.766 75.5333 147.193 75.64C146.619 75.74 146.153 75.8733 145.793 76.04C145.433 76.2067 145.169 76.4033 145.003 76.63C144.843 76.8567 144.763 77.11 144.763 77.39C144.763 77.6567 144.806 77.8867 144.893 78.08C144.979 78.2733 145.096 78.4333 145.243 78.56C145.389 78.68 145.563 78.77 145.763 78.83C145.963 78.8833 146.179 78.91 146.413 78.91ZM155.71 65.27V80H153.93V65.27H155.71ZM169.844 80C169.591 80 169.431 79.8767 169.364 79.63L169.204 78.4C168.771 78.9267 168.274 79.35 167.714 79.67C167.161 79.9833 166.524 80.14 165.804 80.14C165.224 80.14 164.697 80.03 164.224 79.81C163.751 79.5833 163.347 79.2533 163.014 78.82C162.681 78.3867 162.424 77.8467 162.244 77.2C162.064 76.5533 161.974 75.81 161.974 74.97C161.974 74.2233 162.074 73.53 162.274 72.89C162.474 72.2433 162.761 71.6833 163.134 71.21C163.514 70.7367 163.974 70.3667 164.514 70.1C165.054 69.8267 165.667 69.69 166.354 69.69C166.974 69.69 167.504 69.7967 167.944 70.01C168.384 70.2167 168.777 70.51 169.124 70.89V65.27H170.904V80H169.844ZM166.394 78.7C166.974 78.7 167.481 78.5667 167.914 78.3C168.354 78.0333 168.757 77.6567 169.124 77.17V72.27C168.797 71.83 168.437 71.5233 168.044 71.35C167.657 71.17 167.227 71.08 166.754 71.08C165.807 71.08 165.081 71.4167 164.574 72.09C164.067 72.7633 163.814 73.7233 163.814 74.97C163.814 75.63 163.871 76.1967 163.984 76.67C164.097 77.1367 164.264 77.5233 164.484 77.83C164.704 78.13 164.974 78.35 165.294 78.49C165.614 78.63 165.981 78.7 166.394 78.7ZM177.896 69.71C178.502 69.71 179.062 69.8133 179.576 70.02C180.089 70.22 180.532 70.5133 180.906 70.9C181.279 71.28 181.569 71.7533 181.776 72.32C181.989 72.88 182.096 73.52 182.096 74.24C182.096 74.52 182.066 74.7067 182.006 74.8C181.946 74.8933 181.832 74.94 181.666 74.94H174.926C174.939 75.58 175.026 76.1367 175.186 76.61C175.346 77.0833 175.566 77.48 175.846 77.8C176.126 78.1133 176.459 78.35 176.846 78.51C177.232 78.6633 177.666 78.74 178.146 78.74C178.592 78.74 178.976 78.69 179.296 78.59C179.622 78.4833 179.902 78.37 180.136 78.25C180.369 78.13 180.562 78.02 180.716 77.92C180.876 77.8133 181.012 77.76 181.126 77.76C181.272 77.76 181.386 77.8167 181.466 77.93L181.966 78.58C181.746 78.8467 181.482 79.08 181.176 79.28C180.869 79.4733 180.539 79.6333 180.186 79.76C179.839 79.8867 179.479 79.98 179.106 80.04C178.732 80.1067 178.362 80.14 177.996 80.14C177.296 80.14 176.649 80.0233 176.056 79.79C175.469 79.55 174.959 79.2033 174.526 78.75C174.099 78.29 173.766 77.7233 173.526 77.05C173.286 76.3767 173.166 75.6033 173.166 74.73C173.166 74.0233 173.272 73.3633 173.486 72.75C173.706 72.1367 174.019 71.6067 174.426 71.16C174.832 70.7067 175.329 70.3533 175.916 70.1C176.502 69.84 177.162 69.71 177.896 69.71ZM177.936 71.02C177.076 71.02 176.399 71.27 175.906 71.77C175.412 72.2633 175.106 72.95 174.986 73.83H180.496C180.496 73.4167 180.439 73.04 180.326 72.7C180.212 72.3533 180.046 72.0567 179.826 71.81C179.606 71.5567 179.336 71.3633 179.016 71.23C178.702 71.09 178.342 71.02 177.936 71.02ZM195.681 80H194.891C194.718 80 194.578 79.9733 194.471 79.92C194.365 79.8667 194.295 79.7533 194.261 79.58L194.061 78.64C193.795 78.88 193.535 79.0967 193.281 79.29C193.028 79.4767 192.761 79.6367 192.481 79.77C192.201 79.8967 191.901 79.9933 191.581 80.06C191.268 80.1267 190.918 80.16 190.531 80.16C190.138 80.16 189.768 80.1067 189.421 80C189.081 79.8867 188.785 79.72 188.531 79.5C188.278 79.28 188.075 79.0033 187.921 78.67C187.775 78.33 187.701 77.93 187.701 77.47C187.701 77.07 187.811 76.6867 188.031 76.32C188.251 75.9467 188.605 75.6167 189.091 75.33C189.585 75.0433 190.228 74.81 191.021 74.63C191.815 74.4433 192.785 74.3367 193.931 74.31V73.52C193.931 72.7333 193.761 72.14 193.421 71.74C193.088 71.3333 192.591 71.13 191.931 71.13C191.498 71.13 191.131 71.1867 190.831 71.3C190.538 71.4067 190.281 71.53 190.061 71.67C189.848 71.8033 189.661 71.9267 189.501 72.04C189.348 72.1467 189.195 72.2 189.041 72.2C188.921 72.2 188.815 72.17 188.721 72.11C188.635 72.0433 188.565 71.9633 188.511 71.87L188.191 71.3C188.751 70.76 189.355 70.3567 190.001 70.09C190.648 69.8233 191.365 69.69 192.151 69.69C192.718 69.69 193.221 69.7833 193.661 69.97C194.101 70.1567 194.471 70.4167 194.771 70.75C195.071 71.0833 195.298 71.4867 195.451 71.96C195.605 72.4333 195.681 72.9533 195.681 73.52V80ZM191.061 78.91C191.375 78.91 191.661 78.88 191.921 78.82C192.181 78.7533 192.425 78.6633 192.651 78.55C192.885 78.43 193.105 78.2867 193.311 78.12C193.525 77.9533 193.731 77.7633 193.931 77.55V75.44C193.111 75.4667 192.415 75.5333 191.841 75.64C191.268 75.74 190.801 75.8733 190.441 76.04C190.081 76.2067 189.818 76.4033 189.651 76.63C189.491 76.8567 189.411 77.11 189.411 77.39C189.411 77.6567 189.455 77.8867 189.541 78.08C189.628 78.2733 189.745 78.4333 189.891 78.56C190.038 78.68 190.211 78.77 190.411 78.83C190.611 78.8833 190.828 78.91 191.061 78.91ZM201.448 80.16C200.648 80.16 200.031 79.9367 199.598 79.49C199.171 79.0433 198.958 78.4 198.958 77.56V71.36H197.738C197.631 71.36 197.541 71.33 197.468 71.27C197.395 71.2033 197.358 71.1033 197.358 70.97V70.26L199.018 70.05L199.428 66.92C199.441 66.82 199.485 66.74 199.558 66.68C199.631 66.6133 199.725 66.58 199.838 66.58H200.738V70.07H203.638V71.36H200.738V77.44C200.738 77.8667 200.841 78.1833 201.048 78.39C201.255 78.5967 201.521 78.7 201.848 78.7C202.035 78.7 202.195 78.6767 202.328 78.63C202.468 78.5767 202.588 78.52 202.688 78.46C202.788 78.4 202.871 78.3467 202.938 78.3C203.011 78.2467 203.075 78.22 203.128 78.22C203.221 78.22 203.305 78.2767 203.378 78.39L203.898 79.24C203.591 79.5267 203.221 79.7533 202.788 79.92C202.355 80.08 201.908 80.16 201.448 80.16ZM209.849 69.71C210.456 69.71 211.016 69.8133 211.529 70.02C212.042 70.22 212.486 70.5133 212.859 70.9C213.232 71.28 213.522 71.7533 213.729 72.32C213.942 72.88 214.049 73.52 214.049 74.24C214.049 74.52 214.019 74.7067 213.959 74.8C213.899 74.8933 213.786 74.94 213.619 74.94H206.879C206.892 75.58 206.979 76.1367 207.139 76.61C207.299 77.0833 207.519 77.48 207.799 77.8C208.079 78.1133 208.412 78.35 208.799 78.51C209.186 78.6633 209.619 78.74 210.099 78.74C210.546 78.74 210.929 78.69 211.249 78.59C211.576 78.4833 211.856 78.37 212.089 78.25C212.322 78.13 212.516 78.02 212.669 77.92C212.829 77.8133 212.966 77.76 213.079 77.76C213.226 77.76 213.339 77.8167 213.419 77.93L213.919 78.58C213.699 78.8467 213.436 79.08 213.129 79.28C212.822 79.4733 212.492 79.6333 212.139 79.76C211.792 79.8867 211.432 79.98 211.059 80.04C210.686 80.1067 210.316 80.14 209.949 80.14C209.249 80.14 208.602 80.0233 208.009 79.79C207.422 79.55 206.912 79.2033 206.479 78.75C206.052 78.29 205.719 77.7233 205.479 77.05C205.239 76.3767 205.119 75.6033 205.119 74.73C205.119 74.0233 205.226 73.3633 205.439 72.75C205.659 72.1367 205.972 71.6067 206.379 71.16C206.786 70.7067 207.282 70.3533 207.869 70.1C208.456 69.84 209.116 69.71 209.849 69.71ZM209.889 71.02C209.029 71.02 208.352 71.27 207.859 71.77C207.366 72.2633 207.059 72.95 206.939 73.83H212.449C212.449 73.4167 212.392 73.04 212.279 72.7C212.166 72.3533 211.999 72.0567 211.779 71.81C211.559 71.5567 211.289 71.3633 210.969 71.23C210.656 71.09 210.296 71.02 209.889 71.02ZM216.327 80V69.87H217.387C217.641 69.87 217.801 69.9933 217.867 70.24L218.007 71.34C218.447 70.8533 218.937 70.46 219.477 70.16C220.024 69.86 220.654 69.71 221.367 69.71C221.921 69.71 222.407 69.8033 222.827 69.99C223.254 70.17 223.607 70.43 223.887 70.77C224.174 71.1033 224.391 71.5067 224.537 71.98C224.684 72.4533 224.757 72.9767 224.757 73.55V80H222.977V73.55C222.977 72.7833 222.801 72.19 222.447 71.77C222.101 71.3433 221.567 71.13 220.847 71.13C220.321 71.13 219.827 71.2567 219.367 71.51C218.914 71.7633 218.494 72.1067 218.107 72.54V80H216.327ZM234.35 71.67C234.297 71.7433 234.244 71.8 234.19 71.84C234.137 71.88 234.06 71.9 233.96 71.9C233.86 71.9 233.75 71.86 233.63 71.78C233.517 71.6933 233.37 71.6 233.19 71.5C233.01 71.4 232.79 71.31 232.53 71.23C232.277 71.1433 231.964 71.1 231.59 71.1C231.097 71.1 230.66 71.19 230.28 71.37C229.9 71.5433 229.58 71.7967 229.32 72.13C229.067 72.4633 228.874 72.8667 228.74 73.34C228.614 73.8133 228.55 74.3433 228.55 74.93C228.55 75.5433 228.62 76.09 228.76 76.57C228.9 77.0433 229.097 77.4433 229.35 77.77C229.604 78.09 229.91 78.3367 230.27 78.51C230.637 78.6767 231.047 78.76 231.5 78.76C231.934 78.76 232.29 78.71 232.57 78.61C232.85 78.5033 233.084 78.3867 233.27 78.26C233.457 78.1333 233.61 78.02 233.73 77.92C233.85 77.8133 233.97 77.76 234.09 77.76C234.244 77.76 234.357 77.8167 234.43 77.93L234.93 78.58C234.49 79.12 233.94 79.5167 233.28 79.77C232.62 80.0167 231.924 80.14 231.19 80.14C230.557 80.14 229.967 80.0233 229.42 79.79C228.88 79.5567 228.41 79.22 228.01 78.78C227.61 78.3333 227.294 77.7867 227.06 77.14C226.834 76.4933 226.72 75.7567 226.72 74.93C226.72 74.1767 226.824 73.48 227.03 72.84C227.244 72.2 227.55 71.65 227.95 71.19C228.357 70.7233 228.857 70.36 229.45 70.1C230.044 69.84 230.724 69.71 231.49 69.71C232.197 69.71 232.824 69.8267 233.37 70.06C233.917 70.2867 234.4 70.61 234.82 71.03L234.35 71.67ZM238.756 69.87V80H236.976V69.87H238.756ZM239.156 66.69C239.156 66.8633 239.12 67.0267 239.046 67.18C238.98 67.3267 238.886 67.46 238.766 67.58C238.653 67.6933 238.52 67.7833 238.366 67.85C238.213 67.9167 238.05 67.95 237.876 67.95C237.703 67.95 237.54 67.9167 237.386 67.85C237.24 67.7833 237.106 67.6933 236.986 67.58C236.873 67.46 236.783 67.3267 236.716 67.18C236.65 67.0267 236.616 66.8633 236.616 66.69C236.616 66.5167 236.65 66.3533 236.716 66.2C236.783 66.04 236.873 65.9033 236.986 65.79C237.106 65.67 237.24 65.5767 237.386 65.51C237.54 65.4433 237.703 65.41 237.876 65.41C238.05 65.41 238.213 65.4433 238.366 65.51C238.52 65.5767 238.653 65.67 238.766 65.79C238.886 65.9033 238.98 66.04 239.046 66.2C239.12 66.3533 239.156 66.5167 239.156 66.69ZM245.994 69.71C246.734 69.71 247.4 69.8333 247.994 70.08C248.594 70.3267 249.1 70.6767 249.514 71.13C249.934 71.5833 250.254 72.1333 250.474 72.78C250.7 73.42 250.814 74.1367 250.814 74.93C250.814 75.73 250.7 76.45 250.474 77.09C250.254 77.73 249.934 78.2767 249.514 78.73C249.1 79.1833 248.594 79.5333 247.994 79.78C247.4 80.02 246.734 80.14 245.994 80.14C245.254 80.14 244.584 80.02 243.984 79.78C243.39 79.5333 242.884 79.1833 242.464 78.73C242.044 78.2767 241.72 77.73 241.494 77.09C241.267 76.45 241.154 75.73 241.154 74.93C241.154 74.1367 241.267 73.42 241.494 72.78C241.72 72.1333 242.044 71.5833 242.464 71.13C242.884 70.6767 243.39 70.3267 243.984 70.08C244.584 69.8333 245.254 69.71 245.994 69.71ZM245.994 78.75C246.994 78.75 247.74 78.4167 248.234 77.75C248.727 77.0767 248.974 76.14 248.974 74.94C248.974 73.7333 248.727 72.7933 248.234 72.12C247.74 71.4467 246.994 71.11 245.994 71.11C245.487 71.11 245.047 71.1967 244.674 71.37C244.3 71.5433 243.987 71.7933 243.734 72.12C243.487 72.4467 243.3 72.85 243.174 73.33C243.054 73.8033 242.994 74.34 242.994 74.94C242.994 75.54 243.054 76.0767 243.174 76.55C243.3 77.0233 243.487 77.4233 243.734 77.75C243.987 78.07 244.3 78.3167 244.674 78.49C245.047 78.6633 245.487 78.75 245.994 78.75ZM248.914 65.51L246.584 68.09C246.49 68.19 246.397 68.2633 246.304 68.31C246.217 68.35 246.104 68.37 245.964 68.37H244.904L246.384 65.95C246.477 65.7967 246.577 65.6867 246.684 65.62C246.797 65.5467 246.96 65.51 247.174 65.51H248.914ZM253.007 80V69.87H254.067C254.32 69.87 254.48 69.9933 254.547 70.24L254.687 71.34C255.127 70.8533 255.617 70.46 256.157 70.16C256.704 69.86 257.334 69.71 258.047 69.71C258.6 69.71 259.087 69.8033 259.507 69.99C259.934 70.17 260.287 70.43 260.567 70.77C260.854 71.1033 261.07 71.5067 261.217 71.98C261.364 72.4533 261.437 72.9767 261.437 73.55V80H259.657V73.55C259.657 72.7833 259.48 72.19 259.127 71.77C258.78 71.3433 258.247 71.13 257.527 71.13C257 71.13 256.507 71.2567 256.047 71.51C255.594 71.7633 255.174 72.1067 254.787 72.54V80H253.007ZM267.987 83.43V69.87H269.047C269.301 69.87 269.461 69.9933 269.527 70.24L269.677 71.44C270.111 70.9133 270.604 70.49 271.157 70.17C271.717 69.85 272.361 69.69 273.087 69.69C273.667 69.69 274.194 69.8033 274.667 70.03C275.141 70.25 275.544 70.58 275.877 71.02C276.211 71.4533 276.467 71.9933 276.647 72.64C276.827 73.2867 276.917 74.03 276.917 74.87C276.917 75.6167 276.817 76.3133 276.617 76.96C276.417 77.6 276.131 78.1567 275.757 78.63C275.384 79.0967 274.924 79.4667 274.377 79.74C273.837 80.0067 273.227 80.14 272.547 80.14C271.921 80.14 271.384 80.0367 270.937 79.83C270.497 79.6233 270.107 79.33 269.767 78.95V83.43H267.987ZM272.497 71.13C271.917 71.13 271.407 71.2633 270.967 71.53C270.534 71.7967 270.134 72.1733 269.767 72.66V77.56C270.094 78 270.451 78.31 270.837 78.49C271.231 78.67 271.667 78.76 272.147 78.76C273.087 78.76 273.811 78.4233 274.317 77.75C274.824 77.0767 275.077 76.1167 275.077 74.87C275.077 74.21 275.017 73.6433 274.897 73.17C274.784 72.6967 274.617 72.31 274.397 72.01C274.177 71.7033 273.907 71.48 273.587 71.34C273.267 71.2 272.904 71.13 272.497 71.13ZM284.823 71.54C284.743 71.6867 284.619 71.76 284.453 71.76C284.353 71.76 284.239 71.7233 284.113 71.65C283.986 71.5767 283.829 71.4967 283.643 71.41C283.463 71.3167 283.246 71.2333 282.993 71.16C282.739 71.08 282.439 71.04 282.093 71.04C281.793 71.04 281.523 71.08 281.283 71.16C281.043 71.2333 280.836 71.3367 280.663 71.47C280.496 71.6033 280.366 71.76 280.273 71.94C280.186 72.1133 280.143 72.3033 280.143 72.51C280.143 72.77 280.216 72.9867 280.363 73.16C280.516 73.3333 280.716 73.4833 280.963 73.61C281.209 73.7367 281.489 73.85 281.803 73.95C282.116 74.0433 282.436 74.1467 282.763 74.26C283.096 74.3667 283.419 74.4867 283.733 74.62C284.046 74.7533 284.326 74.92 284.573 75.12C284.819 75.32 285.016 75.5667 285.163 75.86C285.316 76.1467 285.393 76.4933 285.393 76.9C285.393 77.3667 285.309 77.8 285.143 78.2C284.976 78.5933 284.729 78.9367 284.403 79.23C284.076 79.5167 283.676 79.7433 283.203 79.91C282.729 80.0767 282.183 80.16 281.563 80.16C280.856 80.16 280.216 80.0467 279.643 79.82C279.069 79.5867 278.583 79.29 278.183 78.93L278.603 78.25C278.656 78.1633 278.719 78.0967 278.793 78.05C278.866 78.0033 278.963 77.98 279.083 77.98C279.203 77.98 279.329 78.0267 279.463 78.12C279.596 78.2133 279.756 78.3167 279.943 78.43C280.136 78.5433 280.366 78.6467 280.633 78.74C280.906 78.8333 281.246 78.88 281.653 78.88C281.999 78.88 282.303 78.8367 282.562 78.75C282.823 78.6567 283.039 78.5333 283.212 78.38C283.386 78.2267 283.513 78.05 283.593 77.85C283.679 77.65 283.723 77.4367 283.723 77.21C283.723 76.93 283.646 76.7 283.493 76.52C283.346 76.3333 283.149 76.1767 282.903 76.05C282.656 75.9167 282.373 75.8033 282.053 75.71C281.739 75.61 281.416 75.5067 281.083 75.4C280.756 75.2933 280.433 75.1733 280.113 75.04C279.799 74.9 279.519 74.7267 279.273 74.52C279.026 74.3133 278.826 74.06 278.673 73.76C278.526 73.4533 278.453 73.0833 278.453 72.65C278.453 72.2633 278.533 71.8933 278.693 71.54C278.853 71.18 279.086 70.8667 279.393 70.6C279.699 70.3267 280.076 70.11 280.523 69.95C280.969 69.79 281.479 69.71 282.053 69.71C282.719 69.71 283.316 69.8167 283.843 70.03C284.376 70.2367 284.836 70.5233 285.223 70.89L284.823 71.54ZM289.674 69.87V80H287.894V69.87H289.674ZM290.074 66.69C290.074 66.8633 290.038 67.0267 289.964 67.18C289.898 67.3267 289.804 67.46 289.684 67.58C289.571 67.6933 289.438 67.7833 289.284 67.85C289.131 67.9167 288.968 67.95 288.794 67.95C288.621 67.95 288.458 67.9167 288.304 67.85C288.158 67.7833 288.024 67.6933 287.904 67.58C287.791 67.46 287.701 67.3267 287.634 67.18C287.568 67.0267 287.534 66.8633 287.534 66.69C287.534 66.5167 287.568 66.3533 287.634 66.2C287.701 66.04 287.791 65.9033 287.904 65.79C288.024 65.67 288.158 65.5767 288.304 65.51C288.458 65.4433 288.621 65.41 288.794 65.41C288.968 65.41 289.131 65.4433 289.284 65.51C289.438 65.5767 289.571 65.67 289.684 65.79C289.804 65.9033 289.898 66.04 289.964 66.2C290.038 66.3533 290.074 66.5167 290.074 66.69ZM299.722 71.67C299.668 71.7433 299.615 71.8 299.562 71.84C299.508 71.88 299.432 71.9 299.332 71.9C299.232 71.9 299.122 71.86 299.002 71.78C298.888 71.6933 298.742 71.6 298.562 71.5C298.382 71.4 298.162 71.31 297.902 71.23C297.648 71.1433 297.335 71.1 296.962 71.1C296.468 71.1 296.032 71.19 295.652 71.37C295.272 71.5433 294.952 71.7967 294.692 72.13C294.438 72.4633 294.245 72.8667 294.112 73.34C293.985 73.8133 293.922 74.3433 293.922 74.93C293.922 75.5433 293.992 76.09 294.132 76.57C294.272 77.0433 294.468 77.4433 294.722 77.77C294.975 78.09 295.282 78.3367 295.642 78.51C296.008 78.6767 296.418 78.76 296.872 78.76C297.305 78.76 297.662 78.71 297.942 78.61C298.222 78.5033 298.455 78.3867 298.642 78.26C298.828 78.1333 298.982 78.02 299.102 77.92C299.222 77.8133 299.342 77.76 299.462 77.76C299.615 77.76 299.728 77.8167 299.802 77.93L300.302 78.58C299.862 79.12 299.312 79.5167 298.652 79.77C297.992 80.0167 297.295 80.14 296.562 80.14C295.928 80.14 295.338 80.0233 294.792 79.79C294.252 79.5567 293.782 79.22 293.382 78.78C292.982 78.3333 292.665 77.7867 292.432 77.14C292.205 76.4933 292.092 75.7567 292.092 74.93C292.092 74.1767 292.195 73.48 292.402 72.84C292.615 72.2 292.922 71.65 293.322 71.19C293.728 70.7233 294.228 70.36 294.822 70.1C295.415 69.84 296.095 69.71 296.862 69.71C297.568 69.71 298.195 69.8267 298.742 70.06C299.288 70.2867 299.772 70.61 300.192 71.03L299.722 71.67ZM306.248 69.71C306.988 69.71 307.654 69.8333 308.248 70.08C308.848 70.3267 309.354 70.6767 309.768 71.13C310.188 71.5833 310.508 72.1333 310.728 72.78C310.954 73.42 311.068 74.1367 311.068 74.93C311.068 75.73 310.954 76.45 310.728 77.09C310.508 77.73 310.188 78.2767 309.768 78.73C309.354 79.1833 308.848 79.5333 308.248 79.78C307.654 80.02 306.988 80.14 306.248 80.14C305.508 80.14 304.838 80.02 304.238 79.78C303.644 79.5333 303.138 79.1833 302.718 78.73C302.298 78.2767 301.974 77.73 301.748 77.09C301.521 76.45 301.408 75.73 301.408 74.93C301.408 74.1367 301.521 73.42 301.748 72.78C301.974 72.1333 302.298 71.5833 302.718 71.13C303.138 70.6767 303.644 70.3267 304.238 70.08C304.838 69.8333 305.508 69.71 306.248 69.71ZM306.248 78.75C307.248 78.75 307.994 78.4167 308.488 77.75C308.981 77.0767 309.228 76.14 309.228 74.94C309.228 73.7333 308.981 72.7933 308.488 72.12C307.994 71.4467 307.248 71.11 306.248 71.11C305.741 71.11 305.301 71.1967 304.928 71.37C304.554 71.5433 304.241 71.7933 303.988 72.12C303.741 72.4467 303.554 72.85 303.428 73.33C303.308 73.8033 303.248 74.34 303.248 74.94C303.248 75.54 303.308 76.0767 303.428 76.55C303.554 77.0233 303.741 77.4233 303.988 77.75C304.241 78.07 304.554 78.3167 304.928 78.49C305.301 78.6633 305.741 78.75 306.248 78.75ZM315.241 65.27V80H313.461V65.27H315.241ZM322.478 69.71C323.218 69.71 323.885 69.8333 324.478 70.08C325.078 70.3267 325.585 70.6767 325.998 71.13C326.418 71.5833 326.738 72.1333 326.958 72.78C327.185 73.42 327.298 74.1367 327.298 74.93C327.298 75.73 327.185 76.45 326.958 77.09C326.738 77.73 326.418 78.2767 325.998 78.73C325.585 79.1833 325.078 79.5333 324.478 79.78C323.885 80.02 323.218 80.14 322.478 80.14C321.738 80.14 321.068 80.02 320.468 79.78C319.875 79.5333 319.368 79.1833 318.948 78.73C318.528 78.2767 318.205 77.73 317.978 77.09C317.751 76.45 317.638 75.73 317.638 74.93C317.638 74.1367 317.751 73.42 317.978 72.78C318.205 72.1333 318.528 71.5833 318.948 71.13C319.368 70.6767 319.875 70.3267 320.468 70.08C321.068 69.8333 321.738 69.71 322.478 69.71ZM322.478 78.75C323.478 78.75 324.225 78.4167 324.718 77.75C325.211 77.0767 325.458 76.14 325.458 74.94C325.458 73.7333 325.211 72.7933 324.718 72.12C324.225 71.4467 323.478 71.11 322.478 71.11C321.971 71.11 321.531 71.1967 321.158 71.37C320.785 71.5433 320.471 71.7933 320.218 72.12C319.971 72.4467 319.785 72.85 319.658 73.33C319.538 73.8033 319.478 74.34 319.478 74.94C319.478 75.54 319.538 76.0767 319.658 76.55C319.785 77.0233 319.971 77.4233 320.218 77.75C320.471 78.07 320.785 78.3167 321.158 78.49C321.531 78.6633 321.971 78.75 322.478 78.75ZM325.398 65.51L323.068 68.09C322.975 68.19 322.881 68.2633 322.788 68.31C322.701 68.35 322.588 68.37 322.448 68.37H321.388L322.868 65.95C322.961 65.7967 323.061 65.6867 323.168 65.62C323.281 65.5467 323.445 65.51 323.658 65.51H325.398ZM332.901 69.7C333.341 69.7 333.751 69.75 334.131 69.85C334.518 69.9433 334.868 70.0833 335.181 70.27H337.931V70.93C337.931 71.15 337.791 71.29 337.511 71.35L336.361 71.51C336.588 71.9433 336.701 72.4267 336.701 72.96C336.701 73.4533 336.605 73.9033 336.411 74.31C336.225 74.71 335.961 75.0533 335.621 75.34C335.288 75.6267 334.888 75.8467 334.421 76C333.961 76.1533 333.455 76.23 332.901 76.23C332.428 76.23 331.981 76.1733 331.561 76.06C331.348 76.1933 331.185 76.3367 331.071 76.49C330.965 76.6433 330.911 76.7933 330.911 76.94C330.911 77.18 331.008 77.3633 331.201 77.49C331.395 77.61 331.651 77.6967 331.971 77.75C332.291 77.8033 332.655 77.8367 333.061 77.85C333.468 77.8633 333.881 77.8867 334.301 77.92C334.728 77.9467 335.145 77.9967 335.551 78.07C335.958 78.1433 336.321 78.2633 336.641 78.43C336.961 78.5967 337.218 78.8267 337.411 79.12C337.605 79.4133 337.701 79.7933 337.701 80.26C337.701 80.6933 337.591 81.1133 337.371 81.52C337.158 81.9267 336.848 82.2867 336.441 82.6C336.035 82.92 335.538 83.1733 334.951 83.36C334.365 83.5533 333.701 83.65 332.961 83.65C332.221 83.65 331.571 83.5767 331.011 83.43C330.458 83.2833 329.998 83.0867 329.631 82.84C329.265 82.5933 328.988 82.3067 328.801 81.98C328.621 81.66 328.531 81.3233 328.531 80.97C328.531 80.47 328.688 80.0467 329.001 79.7C329.321 79.3467 329.758 79.0667 330.311 78.86C330.025 78.7267 329.795 78.55 329.621 78.33C329.455 78.1033 329.371 77.8033 329.371 77.43C329.371 77.2833 329.398 77.1333 329.451 76.98C329.505 76.82 329.585 76.6633 329.691 76.51C329.805 76.3567 329.941 76.21 330.101 76.07C330.261 75.93 330.448 75.8067 330.661 75.7C330.161 75.42 329.768 75.05 329.481 74.59C329.201 74.1233 329.061 73.58 329.061 72.96C329.061 72.4667 329.155 72.02 329.341 71.62C329.535 71.2133 329.801 70.87 330.141 70.59C330.481 70.3033 330.885 70.0833 331.351 69.93C331.825 69.7767 332.341 69.7 332.901 69.7ZM336.061 80.55C336.061 80.2967 335.991 80.0933 335.851 79.94C335.711 79.7867 335.521 79.67 335.281 79.59C335.041 79.5033 334.765 79.44 334.451 79.4C334.138 79.36 333.808 79.3333 333.461 79.32C333.115 79.3 332.761 79.28 332.401 79.26C332.041 79.24 331.698 79.2033 331.371 79.15C330.991 79.33 330.681 79.55 330.441 79.81C330.208 80.07 330.091 80.38 330.091 80.74C330.091 80.9667 330.148 81.1767 330.261 81.37C330.381 81.57 330.561 81.74 330.801 81.88C331.041 82.0267 331.341 82.14 331.701 82.22C332.068 82.3067 332.498 82.35 332.991 82.35C333.471 82.35 333.901 82.3067 334.281 82.22C334.661 82.1333 334.981 82.01 335.241 81.85C335.508 81.69 335.711 81.5 335.851 81.28C335.991 81.06 336.061 80.8167 336.061 80.55ZM332.901 75.05C333.261 75.05 333.578 75 333.851 74.9C334.131 74.8 334.365 74.66 334.551 74.48C334.738 74.3 334.878 74.0867 334.971 73.84C335.065 73.5867 335.111 73.31 335.111 73.01C335.111 72.39 334.921 71.8967 334.541 71.53C334.168 71.1633 333.621 70.98 332.901 70.98C332.188 70.98 331.641 71.1633 331.261 71.53C330.888 71.8967 330.701 72.39 330.701 73.01C330.701 73.31 330.748 73.5867 330.841 73.84C330.941 74.0867 331.085 74.3 331.271 74.48C331.458 74.66 331.688 74.8 331.961 74.9C332.235 75 332.548 75.05 332.901 75.05ZM341.686 69.87V80H339.906V69.87H341.686ZM342.086 66.69C342.086 66.8633 342.049 67.0267 341.976 67.18C341.909 67.3267 341.816 67.46 341.696 67.58C341.583 67.6933 341.449 67.7833 341.296 67.85C341.143 67.9167 340.979 67.95 340.806 67.95C340.633 67.95 340.469 67.9167 340.316 67.85C340.169 67.7833 340.036 67.6933 339.916 67.58C339.803 67.46 339.713 67.3267 339.646 67.18C339.579 67.0267 339.546 66.8633 339.546 66.69C339.546 66.5167 339.579 66.3533 339.646 66.2C339.713 66.04 339.803 65.9033 339.916 65.79C340.036 65.67 340.169 65.5767 340.316 65.51C340.469 65.4433 340.633 65.41 340.806 65.41C340.979 65.41 341.143 65.4433 341.296 65.51C341.449 65.5767 341.583 65.67 341.696 65.79C341.816 65.9033 341.909 66.04 341.976 66.2C342.049 66.3533 342.086 66.5167 342.086 66.69ZM351.733 71.67C351.68 71.7433 351.627 71.8 351.573 71.84C351.52 71.88 351.443 71.9 351.343 71.9C351.243 71.9 351.133 71.86 351.013 71.78C350.9 71.6933 350.753 71.6 350.573 71.5C350.393 71.4 350.173 71.31 349.913 71.23C349.66 71.1433 349.347 71.1 348.973 71.1C348.48 71.1 348.043 71.19 347.663 71.37C347.283 71.5433 346.963 71.7967 346.703 72.13C346.45 72.4633 346.257 72.8667 346.123 73.34C345.997 73.8133 345.933 74.3433 345.933 74.93C345.933 75.5433 346.003 76.09 346.143 76.57C346.283 77.0433 346.48 77.4433 346.733 77.77C346.987 78.09 347.293 78.3367 347.653 78.51C348.02 78.6767 348.43 78.76 348.883 78.76C349.317 78.76 349.673 78.71 349.953 78.61C350.233 78.5033 350.467 78.3867 350.653 78.26C350.84 78.1333 350.993 78.02 351.113 77.92C351.233 77.8133 351.353 77.76 351.473 77.76C351.627 77.76 351.74 77.8167 351.813 77.93L352.313 78.58C351.873 79.12 351.323 79.5167 350.663 79.77C350.003 80.0167 349.307 80.14 348.573 80.14C347.94 80.14 347.35 80.0233 346.803 79.79C346.263 79.5567 345.793 79.22 345.393 78.78C344.993 78.3333 344.677 77.7867 344.443 77.14C344.217 76.4933 344.103 75.7567 344.103 74.93C344.103 74.1767 344.207 73.48 344.413 72.84C344.627 72.2 344.933 71.65 345.333 71.19C345.74 70.7233 346.24 70.36 346.833 70.1C347.427 69.84 348.107 69.71 348.873 69.71C349.58 69.71 350.207 69.8267 350.753 70.06C351.3 70.2867 351.783 70.61 352.203 71.03L351.733 71.67ZM361.599 80H360.809C360.636 80 360.496 79.9733 360.389 79.92C360.283 79.8667 360.213 79.7533 360.179 79.58L359.979 78.64C359.713 78.88 359.453 79.0967 359.199 79.29C358.946 79.4767 358.679 79.6367 358.399 79.77C358.119 79.8967 357.819 79.9933 357.499 80.06C357.186 80.1267 356.836 80.16 356.449 80.16C356.056 80.16 355.686 80.1067 355.339 80C354.999 79.8867 354.703 79.72 354.449 79.5C354.196 79.28 353.993 79.0033 353.839 78.67C353.693 78.33 353.619 77.93 353.619 77.47C353.619 77.07 353.729 76.6867 353.949 76.32C354.169 75.9467 354.523 75.6167 355.009 75.33C355.503 75.0433 356.146 74.81 356.939 74.63C357.733 74.4433 358.703 74.3367 359.849 74.31V73.52C359.849 72.7333 359.679 72.14 359.339 71.74C359.006 71.3333 358.509 71.13 357.849 71.13C357.416 71.13 357.049 71.1867 356.749 71.3C356.456 71.4067 356.199 71.53 355.979 71.67C355.766 71.8033 355.579 71.9267 355.419 72.04C355.266 72.1467 355.113 72.2 354.959 72.2C354.839 72.2 354.733 72.17 354.639 72.11C354.553 72.0433 354.483 71.9633 354.429 71.87L354.109 71.3C354.669 70.76 355.273 70.3567 355.919 70.09C356.566 69.8233 357.283 69.69 358.069 69.69C358.636 69.69 359.139 69.7833 359.579 69.97C360.019 70.1567 360.389 70.4167 360.689 70.75C360.989 71.0833 361.216 71.4867 361.369 71.96C361.523 72.4333 361.599 72.9533 361.599 73.52V80ZM356.979 78.91C357.293 78.91 357.579 78.88 357.839 78.82C358.099 78.7533 358.343 78.6633 358.569 78.55C358.803 78.43 359.023 78.2867 359.229 78.12C359.443 77.9533 359.649 77.7633 359.849 77.55V75.44C359.029 75.4667 358.333 75.5333 357.759 75.64C357.186 75.74 356.719 75.8733 356.359 76.04C355.999 76.2067 355.736 76.4033 355.569 76.63C355.409 76.8567 355.329 77.11 355.329 77.39C355.329 77.6567 355.373 77.8867 355.459 78.08C355.546 78.2733 355.663 78.4333 355.809 78.56C355.956 78.68 356.129 78.77 356.329 78.83C356.529 78.8833 356.746 78.91 356.979 78.91ZM371.133 82.99C371.073 83.1233 370.996 83.23 370.903 83.31C370.816 83.39 370.68 83.43 370.493 83.43H369.173L371.023 79.41L366.843 69.87H368.383C368.536 69.87 368.656 69.91 368.743 69.99C368.83 70.0633 368.893 70.1467 368.933 70.24L371.643 76.62C371.703 76.7667 371.753 76.9133 371.793 77.06C371.84 77.2067 371.88 77.3567 371.913 77.51C371.96 77.3567 372.006 77.2067 372.053 77.06C372.1 76.9133 372.153 76.7633 372.213 76.61L374.843 70.24C374.883 70.1333 374.95 70.0467 375.043 69.98C375.143 69.9067 375.25 69.87 375.363 69.87H376.783L371.133 82.99ZM389.175 71.67C389.121 71.7433 389.068 71.8 389.015 71.84C388.961 71.88 388.885 71.9 388.785 71.9C388.685 71.9 388.575 71.86 388.455 71.78C388.341 71.6933 388.195 71.6 388.015 71.5C387.835 71.4 387.615 71.31 387.355 71.23C387.101 71.1433 386.788 71.1 386.415 71.1C385.921 71.1 385.485 71.19 385.105 71.37C384.725 71.5433 384.405 71.7967 384.145 72.13C383.891 72.4633 383.698 72.8667 383.565 73.34C383.438 73.8133 383.375 74.3433 383.375 74.93C383.375 75.5433 383.445 76.09 383.585 76.57C383.725 77.0433 383.921 77.4433 384.175 77.77C384.428 78.09 384.735 78.3367 385.095 78.51C385.461 78.6767 385.871 78.76 386.325 78.76C386.758 78.76 387.115 78.71 387.395 78.61C387.675 78.5033 387.908 78.3867 388.095 78.26C388.281 78.1333 388.435 78.02 388.555 77.92C388.675 77.8133 388.795 77.76 388.915 77.76C389.068 77.76 389.181 77.8167 389.255 77.93L389.755 78.58C389.315 79.12 388.765 79.5167 388.105 79.77C387.445 80.0167 386.748 80.14 386.015 80.14C385.381 80.14 384.791 80.0233 384.245 79.79C383.705 79.5567 383.235 79.22 382.835 78.78C382.435 78.3333 382.118 77.7867 381.885 77.14C381.658 76.4933 381.545 75.7567 381.545 74.93C381.545 74.1767 381.648 73.48 381.855 72.84C382.068 72.2 382.375 71.65 382.775 71.19C383.181 70.7233 383.681 70.36 384.275 70.1C384.868 69.84 385.548 69.71 386.315 69.71C387.021 69.71 387.648 69.8267 388.195 70.06C388.741 70.2867 389.225 70.61 389.645 71.03L389.175 71.67ZM395.701 69.71C396.441 69.71 397.107 69.8333 397.701 70.08C398.301 70.3267 398.807 70.6767 399.221 71.13C399.641 71.5833 399.961 72.1333 400.181 72.78C400.407 73.42 400.521 74.1367 400.521 74.93C400.521 75.73 400.407 76.45 400.181 77.09C399.961 77.73 399.641 78.2767 399.221 78.73C398.807 79.1833 398.301 79.5333 397.701 79.78C397.107 80.02 396.441 80.14 395.701 80.14C394.961 80.14 394.291 80.02 393.691 79.78C393.097 79.5333 392.591 79.1833 392.171 78.73C391.751 78.2767 391.427 77.73 391.201 77.09C390.974 76.45 390.861 75.73 390.861 74.93C390.861 74.1367 390.974 73.42 391.201 72.78C391.427 72.1333 391.751 71.5833 392.171 71.13C392.591 70.6767 393.097 70.3267 393.691 70.08C394.291 69.8333 394.961 69.71 395.701 69.71ZM395.701 78.75C396.701 78.75 397.447 78.4167 397.941 77.75C398.434 77.0767 398.681 76.14 398.681 74.94C398.681 73.7333 398.434 72.7933 397.941 72.12C397.447 71.4467 396.701 71.11 395.701 71.11C395.194 71.11 394.754 71.1967 394.381 71.37C394.007 71.5433 393.694 71.7933 393.441 72.12C393.194 72.4467 393.007 72.85 392.881 73.33C392.761 73.8033 392.701 74.34 392.701 74.94C392.701 75.54 392.761 76.0767 392.881 76.55C393.007 77.0233 393.194 77.4233 393.441 77.75C393.694 78.07 394.007 78.3167 394.381 78.49C394.754 78.6633 395.194 78.75 395.701 78.75ZM402.714 80V69.87H403.774C404.027 69.87 404.187 69.9933 404.254 70.24L404.394 71.34C404.834 70.8533 405.324 70.46 405.864 70.16C406.411 69.86 407.041 69.71 407.754 69.71C408.307 69.71 408.794 69.8033 409.214 69.99C409.641 70.17 409.994 70.43 410.274 70.77C410.561 71.1033 410.777 71.5067 410.924 71.98C411.071 72.4533 411.144 72.9767 411.144 73.55V80H409.364V73.55C409.364 72.7833 409.187 72.19 408.834 71.77C408.487 71.3433 407.954 71.13 407.234 71.13C406.707 71.13 406.214 71.2567 405.754 71.51C405.301 71.7633 404.881 72.1067 404.494 72.54V80H402.714ZM416.897 80.16C416.097 80.16 415.481 79.9367 415.047 79.49C414.621 79.0433 414.407 78.4 414.407 77.56V71.36H413.187C413.081 71.36 412.991 71.33 412.917 71.27C412.844 71.2033 412.807 71.1033 412.807 70.97V70.26L414.467 70.05L414.877 66.92C414.891 66.82 414.934 66.74 415.007 66.68C415.081 66.6133 415.174 66.58 415.287 66.58H416.187V70.07H419.087V71.36H416.187V77.44C416.187 77.8667 416.291 78.1833 416.497 78.39C416.704 78.5967 416.971 78.7 417.297 78.7C417.484 78.7 417.644 78.6767 417.777 78.63C417.917 78.5767 418.037 78.52 418.137 78.46C418.237 78.4 418.321 78.3467 418.387 78.3C418.461 78.2467 418.524 78.22 418.577 78.22C418.671 78.22 418.754 78.2767 418.827 78.39L419.347 79.24C419.041 79.5267 418.671 79.7533 418.237 79.92C417.804 80.08 417.357 80.16 416.897 80.16ZM425.298 69.71C425.905 69.71 426.465 69.8133 426.978 70.02C427.491 70.22 427.935 70.5133 428.308 70.9C428.681 71.28 428.971 71.7533 429.178 72.32C429.391 72.88 429.498 73.52 429.498 74.24C429.498 74.52 429.468 74.7067 429.408 74.8C429.348 74.8933 429.235 74.94 429.068 74.94H422.328C422.341 75.58 422.428 76.1367 422.588 76.61C422.748 77.0833 422.968 77.48 423.248 77.8C423.528 78.1133 423.861 78.35 424.248 78.51C424.635 78.6633 425.068 78.74 425.548 78.74C425.995 78.74 426.378 78.69 426.698 78.59C427.025 78.4833 427.305 78.37 427.538 78.25C427.771 78.13 427.965 78.02 428.118 77.92C428.278 77.8133 428.415 77.76 428.528 77.76C428.675 77.76 428.788 77.8167 428.868 77.93L429.368 78.58C429.148 78.8467 428.885 79.08 428.578 79.28C428.271 79.4733 427.941 79.6333 427.588 79.76C427.241 79.8867 426.881 79.98 426.508 80.04C426.135 80.1067 425.765 80.14 425.398 80.14C424.698 80.14 424.051 80.0233 423.458 79.79C422.871 79.55 422.361 79.2033 421.928 78.75C421.501 78.29 421.168 77.7233 420.928 77.05C420.688 76.3767 420.568 75.6033 420.568 74.73C420.568 74.0233 420.675 73.3633 420.888 72.75C421.108 72.1367 421.421 71.6067 421.828 71.16C422.235 70.7067 422.731 70.3533 423.318 70.1C423.905 69.84 424.565 69.71 425.298 69.71ZM425.338 71.02C424.478 71.02 423.801 71.27 423.308 71.77C422.815 72.2633 422.508 72.95 422.388 73.83H427.898C427.898 73.4167 427.841 73.04 427.728 72.7C427.615 72.3533 427.448 72.0567 427.228 71.81C427.008 71.5567 426.738 71.3633 426.418 71.23C426.105 71.09 425.745 71.02 425.338 71.02ZM431.776 80V69.87H432.836C433.09 69.87 433.25 69.9933 433.316 70.24L433.456 71.34C433.896 70.8533 434.386 70.46 434.926 70.16C435.473 69.86 436.103 69.71 436.816 69.71C437.37 69.71 437.856 69.8033 438.276 69.99C438.703 70.17 439.056 70.43 439.336 70.77C439.623 71.1033 439.84 71.5067 439.986 71.98C440.133 72.4533 440.206 72.9767 440.206 73.55V80H438.426V73.55C438.426 72.7833 438.25 72.19 437.896 71.77C437.55 71.3433 437.016 71.13 436.296 71.13C435.77 71.13 435.276 71.2567 434.816 71.51C434.363 71.7633 433.943 72.1067 433.556 72.54V80H431.776ZM449.8 71.67C449.746 71.7433 449.693 71.8 449.64 71.84C449.586 71.88 449.51 71.9 449.41 71.9C449.31 71.9 449.2 71.86 449.08 71.78C448.966 71.6933 448.82 71.6 448.64 71.5C448.46 71.4 448.24 71.31 447.98 71.23C447.726 71.1433 447.413 71.1 447.04 71.1C446.546 71.1 446.11 71.19 445.73 71.37C445.35 71.5433 445.03 71.7967 444.77 72.13C444.516 72.4633 444.323 72.8667 444.19 73.34C444.063 73.8133 444 74.3433 444 74.93C444 75.5433 444.07 76.09 444.21 76.57C444.35 77.0433 444.546 77.4433 444.8 77.77C445.053 78.09 445.36 78.3367 445.72 78.51C446.086 78.6767 446.496 78.76 446.95 78.76C447.383 78.76 447.74 78.71 448.02 78.61C448.3 78.5033 448.533 78.3867 448.72 78.26C448.906 78.1333 449.06 78.02 449.18 77.92C449.3 77.8133 449.42 77.76 449.54 77.76C449.693 77.76 449.806 77.8167 449.88 77.93L450.38 78.58C449.94 79.12 449.39 79.5167 448.73 79.77C448.07 80.0167 447.373 80.14 446.64 80.14C446.006 80.14 445.416 80.0233 444.87 79.79C444.33 79.5567 443.86 79.22 443.46 78.78C443.06 78.3333 442.743 77.7867 442.51 77.14C442.283 76.4933 442.17 75.7567 442.17 74.93C442.17 74.1767 442.273 73.48 442.48 72.84C442.693 72.2 443 71.65 443.4 71.19C443.806 70.7233 444.306 70.36 444.9 70.1C445.493 69.84 446.173 69.71 446.94 69.71C447.646 69.71 448.273 69.8267 448.82 70.06C449.366 70.2867 449.85 70.61 450.27 71.03L449.8 71.67ZM454.206 69.87V80H452.426V69.87H454.206ZM454.606 66.69C454.606 66.8633 454.569 67.0267 454.496 67.18C454.429 67.3267 454.336 67.46 454.216 67.58C454.102 67.6933 453.969 67.7833 453.816 67.85C453.662 67.9167 453.499 67.95 453.326 67.95C453.152 67.95 452.989 67.9167 452.836 67.85C452.689 67.7833 452.556 67.6933 452.436 67.58C452.322 67.46 452.232 67.3267 452.166 67.18C452.099 67.0267 452.066 66.8633 452.066 66.69C452.066 66.5167 452.099 66.3533 452.166 66.2C452.232 66.04 452.322 65.9033 452.436 65.79C452.556 65.67 452.689 65.5767 452.836 65.51C452.989 65.4433 453.152 65.41 453.326 65.41C453.499 65.41 453.662 65.4433 453.816 65.51C453.969 65.5767 454.102 65.67 454.216 65.79C454.336 65.9033 454.429 66.04 454.496 66.2C454.569 66.3533 454.606 66.5167 454.606 66.69ZM461.443 69.71C462.183 69.71 462.849 69.8333 463.443 70.08C464.043 70.3267 464.549 70.6767 464.963 71.13C465.383 71.5833 465.703 72.1333 465.923 72.78C466.149 73.42 466.263 74.1367 466.263 74.93C466.263 75.73 466.149 76.45 465.923 77.09C465.703 77.73 465.383 78.2767 464.963 78.73C464.549 79.1833 464.043 79.5333 463.443 79.78C462.849 80.02 462.183 80.14 461.443 80.14C460.703 80.14 460.033 80.02 459.433 79.78C458.839 79.5333 458.333 79.1833 457.913 78.73C457.493 78.2767 457.169 77.73 456.943 77.09C456.716 76.45 456.603 75.73 456.603 74.93C456.603 74.1367 456.716 73.42 456.943 72.78C457.169 72.1333 457.493 71.5833 457.913 71.13C458.333 70.6767 458.839 70.3267 459.433 70.08C460.033 69.8333 460.703 69.71 461.443 69.71ZM461.443 78.75C462.443 78.75 463.189 78.4167 463.683 77.75C464.176 77.0767 464.423 76.14 464.423 74.94C464.423 73.7333 464.176 72.7933 463.683 72.12C463.189 71.4467 462.443 71.11 461.443 71.11C460.936 71.11 460.496 71.1967 460.123 71.37C459.749 71.5433 459.436 71.7933 459.183 72.12C458.936 72.4467 458.749 72.85 458.623 73.33C458.503 73.8033 458.443 74.34 458.443 74.94C458.443 75.54 458.503 76.0767 458.623 76.55C458.749 77.0233 458.936 77.4233 459.183 77.75C459.436 78.07 459.749 78.3167 460.123 78.49C460.496 78.6633 460.936 78.75 461.443 78.75ZM464.363 65.51L462.033 68.09C461.939 68.19 461.846 68.2633 461.753 68.31C461.666 68.35 461.553 68.37 461.413 68.37H460.353L461.833 65.95C461.926 65.7967 462.026 65.6867 462.133 65.62C462.246 65.5467 462.409 65.51 462.623 65.51H464.363ZM468.456 80V69.87H469.516C469.769 69.87 469.929 69.9933 469.996 70.24L470.136 71.34C470.576 70.8533 471.066 70.46 471.606 70.16C472.153 69.86 472.783 69.71 473.496 69.71C474.049 69.71 474.536 69.8033 474.956 69.99C475.383 70.17 475.736 70.43 476.016 70.77C476.303 71.1033 476.519 71.5067 476.666 71.98C476.813 72.4533 476.886 72.9767 476.886 73.55V80H475.106V73.55C475.106 72.7833 474.929 72.19 474.576 71.77C474.229 71.3433 473.696 71.13 472.976 71.13C472.449 71.13 471.956 71.2567 471.496 71.51C471.043 71.7633 470.623 72.1067 470.236 72.54V80H468.456ZM487.447 69.71C488.053 69.71 488.613 69.8133 489.127 70.02C489.64 70.22 490.083 70.5133 490.457 70.9C490.83 71.28 491.12 71.7533 491.327 72.32C491.54 72.88 491.647 73.52 491.647 74.24C491.647 74.52 491.617 74.7067 491.557 74.8C491.497 74.8933 491.383 74.94 491.217 74.94H484.477C484.49 75.58 484.577 76.1367 484.737 76.61C484.897 77.0833 485.117 77.48 485.397 77.8C485.677 78.1133 486.01 78.35 486.397 78.51C486.783 78.6633 487.217 78.74 487.697 78.74C488.143 78.74 488.527 78.69 488.847 78.59C489.173 78.4833 489.453 78.37 489.687 78.25C489.92 78.13 490.113 78.02 490.267 77.92C490.427 77.8133 490.563 77.76 490.677 77.76C490.823 77.76 490.937 77.8167 491.017 77.93L491.517 78.58C491.297 78.8467 491.033 79.08 490.727 79.28C490.42 79.4733 490.09 79.6333 489.737 79.76C489.39 79.8867 489.03 79.98 488.657 80.04C488.283 80.1067 487.913 80.14 487.547 80.14C486.847 80.14 486.2 80.0233 485.607 79.79C485.02 79.55 484.51 79.2033 484.077 78.75C483.65 78.29 483.317 77.7233 483.077 77.05C482.837 76.3767 482.717 75.6033 482.717 74.73C482.717 74.0233 482.823 73.3633 483.037 72.75C483.257 72.1367 483.57 71.6067 483.977 71.16C484.383 70.7067 484.88 70.3533 485.467 70.1C486.053 69.84 486.713 69.71 487.447 69.71ZM487.487 71.02C486.627 71.02 485.95 71.27 485.457 71.77C484.963 72.2633 484.657 72.95 484.537 73.83H490.047C490.047 73.4167 489.99 73.04 489.877 72.7C489.763 72.3533 489.597 72.0567 489.377 71.81C489.157 71.5567 488.887 71.3633 488.567 71.23C488.253 71.09 487.893 71.02 487.487 71.02ZM493.925 80V69.87H494.985C495.238 69.87 495.398 69.9933 495.465 70.24L495.595 71.28C495.968 70.82 496.385 70.4433 496.845 70.15C497.312 69.8567 497.852 69.71 498.465 69.71C499.152 69.71 499.705 69.9 500.125 70.28C500.552 70.66 500.858 71.1733 501.045 71.82C501.185 71.4533 501.368 71.1367 501.595 70.87C501.828 70.6033 502.088 70.3833 502.375 70.21C502.662 70.0367 502.965 69.91 503.285 69.83C503.612 69.75 503.942 69.71 504.275 69.71C504.808 69.71 505.282 69.7967 505.695 69.97C506.115 70.1367 506.468 70.3833 506.755 70.71C507.048 71.0367 507.272 71.44 507.425 71.92C507.578 72.3933 507.655 72.9367 507.655 73.55V80H505.875V73.55C505.875 72.7567 505.702 72.1567 505.355 71.75C505.008 71.3367 504.505 71.13 503.845 71.13C503.552 71.13 503.272 71.1833 503.005 71.29C502.745 71.39 502.515 71.54 502.315 71.74C502.115 71.94 501.955 72.1933 501.835 72.5C501.722 72.8 501.665 73.15 501.665 73.55V80H499.885V73.55C499.885 72.7367 499.722 72.13 499.395 71.73C499.068 71.33 498.592 71.13 497.965 71.13C497.525 71.13 497.115 71.25 496.735 71.49C496.362 71.7233 496.018 72.0433 495.705 72.45V80H493.925ZM514.451 69.71C515.191 69.71 515.857 69.8333 516.451 70.08C517.051 70.3267 517.557 70.6767 517.971 71.13C518.391 71.5833 518.711 72.1333 518.931 72.78C519.157 73.42 519.271 74.1367 519.271 74.93C519.271 75.73 519.157 76.45 518.931 77.09C518.711 77.73 518.391 78.2767 517.971 78.73C517.557 79.1833 517.051 79.5333 516.451 79.78C515.857 80.02 515.191 80.14 514.451 80.14C513.711 80.14 513.041 80.02 512.441 79.78C511.847 79.5333 511.341 79.1833 510.921 78.73C510.501 78.2767 510.177 77.73 509.951 77.09C509.724 76.45 509.611 75.73 509.611 74.93C509.611 74.1367 509.724 73.42 509.951 72.78C510.177 72.1333 510.501 71.5833 510.921 71.13C511.341 70.6767 511.847 70.3267 512.441 70.08C513.041 69.8333 513.711 69.71 514.451 69.71ZM514.451 78.75C515.451 78.75 516.197 78.4167 516.691 77.75C517.184 77.0767 517.431 76.14 517.431 74.94C517.431 73.7333 517.184 72.7933 516.691 72.12C516.197 71.4467 515.451 71.11 514.451 71.11C513.944 71.11 513.504 71.1967 513.131 71.37C512.757 71.5433 512.444 71.7933 512.191 72.12C511.944 72.4467 511.757 72.85 511.631 73.33C511.511 73.8033 511.451 74.34 511.451 74.94C511.451 75.54 511.511 76.0767 511.631 76.55C511.757 77.0233 511.944 77.4233 512.191 77.75C512.444 78.07 512.757 78.3167 513.131 78.49C513.504 78.6633 513.944 78.75 514.451 78.75ZM528.374 71.67C528.321 71.7433 528.267 71.8 528.214 71.84C528.161 71.88 528.084 71.9 527.984 71.9C527.884 71.9 527.774 71.86 527.654 71.78C527.541 71.6933 527.394 71.6 527.214 71.5C527.034 71.4 526.814 71.31 526.554 71.23C526.301 71.1433 525.987 71.1 525.614 71.1C525.121 71.1 524.684 71.19 524.304 71.37C523.924 71.5433 523.604 71.7967 523.344 72.13C523.091 72.4633 522.897 72.8667 522.764 73.34C522.637 73.8133 522.574 74.3433 522.574 74.93C522.574 75.5433 522.644 76.09 522.784 76.57C522.924 77.0433 523.121 77.4433 523.374 77.77C523.627 78.09 523.934 78.3367 524.294 78.51C524.661 78.6767 525.071 78.76 525.524 78.76C525.957 78.76 526.314 78.71 526.594 78.61C526.874 78.5033 527.107 78.3867 527.294 78.26C527.481 78.1333 527.634 78.02 527.754 77.92C527.874 77.8133 527.994 77.76 528.114 77.76C528.267 77.76 528.381 77.8167 528.454 77.93L528.954 78.58C528.514 79.12 527.964 79.5167 527.304 79.77C526.644 80.0167 525.947 80.14 525.214 80.14C524.581 80.14 523.991 80.0233 523.444 79.79C522.904 79.5567 522.434 79.22 522.034 78.78C521.634 78.3333 521.317 77.7867 521.084 77.14C520.857 76.4933 520.744 75.7567 520.744 74.93C520.744 74.1767 520.847 73.48 521.054 72.84C521.267 72.2 521.574 71.65 521.974 71.19C522.381 70.7233 522.881 70.36 523.474 70.1C524.067 69.84 524.747 69.71 525.514 69.71C526.221 69.71 526.847 69.8267 527.394 70.06C527.941 70.2867 528.424 70.61 528.844 71.03L528.374 71.67ZM532.78 69.87V80H531V69.87H532.78ZM533.18 66.69C533.18 66.8633 533.143 67.0267 533.07 67.18C533.003 67.3267 532.91 67.46 532.79 67.58C532.677 67.6933 532.543 67.7833 532.39 67.85C532.237 67.9167 532.073 67.95 531.9 67.95C531.727 67.95 531.563 67.9167 531.41 67.85C531.263 67.7833 531.13 67.6933 531.01 67.58C530.897 67.46 530.807 67.3267 530.74 67.18C530.673 67.0267 530.64 66.8633 530.64 66.69C530.64 66.5167 530.673 66.3533 530.74 66.2C530.807 66.04 530.897 65.9033 531.01 65.79C531.13 65.67 531.263 65.5767 531.41 65.51C531.563 65.4433 531.727 65.41 531.9 65.41C532.073 65.41 532.237 65.4433 532.39 65.51C532.543 65.5767 532.677 65.67 532.79 65.79C532.91 65.9033 533.003 66.04 533.07 66.2C533.143 66.3533 533.18 66.5167 533.18 66.69ZM540.017 69.71C540.757 69.71 541.424 69.8333 542.017 70.08C542.617 70.3267 543.124 70.6767 543.537 71.13C543.957 71.5833 544.277 72.1333 544.497 72.78C544.724 73.42 544.837 74.1367 544.837 74.93C544.837 75.73 544.724 76.45 544.497 77.09C544.277 77.73 543.957 78.2767 543.537 78.73C543.124 79.1833 542.617 79.5333 542.017 79.78C541.424 80.02 540.757 80.14 540.017 80.14C539.277 80.14 538.607 80.02 538.007 79.78C537.414 79.5333 536.907 79.1833 536.487 78.73C536.067 78.2767 535.744 77.73 535.517 77.09C535.29 76.45 535.177 75.73 535.177 74.93C535.177 74.1367 535.29 73.42 535.517 72.78C535.744 72.1333 536.067 71.5833 536.487 71.13C536.907 70.6767 537.414 70.3267 538.007 70.08C538.607 69.8333 539.277 69.71 540.017 69.71ZM540.017 78.75C541.017 78.75 541.764 78.4167 542.257 77.75C542.75 77.0767 542.997 76.14 542.997 74.94C542.997 73.7333 542.75 72.7933 542.257 72.12C541.764 71.4467 541.017 71.11 540.017 71.11C539.51 71.11 539.07 71.1967 538.697 71.37C538.324 71.5433 538.01 71.7933 537.757 72.12C537.51 72.4467 537.324 72.85 537.197 73.33C537.077 73.8033 537.017 74.34 537.017 74.94C537.017 75.54 537.077 76.0767 537.197 76.55C537.324 77.0233 537.51 77.4233 537.757 77.75C538.01 78.07 538.324 78.3167 538.697 78.49C539.07 78.6633 539.51 78.75 540.017 78.75ZM547.03 80V69.87H548.09C548.344 69.87 548.504 69.9933 548.57 70.24L548.71 71.34C549.15 70.8533 549.64 70.46 550.18 70.16C550.727 69.86 551.357 69.71 552.07 69.71C552.624 69.71 553.11 69.8033 553.53 69.99C553.957 70.17 554.31 70.43 554.59 70.77C554.877 71.1033 555.094 71.5067 555.24 71.98C555.387 72.4533 555.46 72.9767 555.46 73.55V80H553.68V73.55C553.68 72.7833 553.504 72.19 553.15 71.77C552.804 71.3433 552.27 71.13 551.55 71.13C551.024 71.13 550.53 71.2567 550.07 71.51C549.617 71.7633 549.197 72.1067 548.81 72.54V80H547.03ZM565.584 80H564.794C564.62 80 564.48 79.9733 564.374 79.92C564.267 79.8667 564.197 79.7533 564.164 79.58L563.964 78.64C563.697 78.88 563.437 79.0967 563.184 79.29C562.93 79.4767 562.664 79.6367 562.384 79.77C562.104 79.8967 561.804 79.9933 561.484 80.06C561.17 80.1267 560.82 80.16 560.434 80.16C560.04 80.16 559.67 80.1067 559.324 80C558.984 79.8867 558.687 79.72 558.434 79.5C558.18 79.28 557.977 79.0033 557.824 78.67C557.677 78.33 557.604 77.93 557.604 77.47C557.604 77.07 557.714 76.6867 557.934 76.32C558.154 75.9467 558.507 75.6167 558.994 75.33C559.487 75.0433 560.13 74.81 560.924 74.63C561.717 74.4433 562.687 74.3367 563.834 74.31V73.52C563.834 72.7333 563.664 72.14 563.324 71.74C562.99 71.3333 562.494 71.13 561.834 71.13C561.4 71.13 561.034 71.1867 560.734 71.3C560.44 71.4067 560.184 71.53 559.964 71.67C559.75 71.8033 559.564 71.9267 559.404 72.04C559.25 72.1467 559.097 72.2 558.944 72.2C558.824 72.2 558.717 72.17 558.624 72.11C558.537 72.0433 558.467 71.9633 558.414 71.87L558.094 71.3C558.654 70.76 559.257 70.3567 559.904 70.09C560.55 69.8233 561.267 69.69 562.054 69.69C562.62 69.69 563.124 69.7833 563.564 69.97C564.004 70.1567 564.374 70.4167 564.674 70.75C564.974 71.0833 565.2 71.4867 565.354 71.96C565.507 72.4333 565.584 72.9533 565.584 73.52V80ZM560.964 78.91C561.277 78.91 561.564 78.88 561.824 78.82C562.084 78.7533 562.327 78.6633 562.554 78.55C562.787 78.43 563.007 78.2867 563.214 78.12C563.427 77.9533 563.634 77.7633 563.834 77.55V75.44C563.014 75.4667 562.317 75.5333 561.744 75.64C561.17 75.74 560.704 75.8733 560.344 76.04C559.984 76.2067 559.72 76.4033 559.554 76.63C559.394 76.8567 559.314 77.11 559.314 77.39C559.314 77.6567 559.357 77.8867 559.444 78.08C559.53 78.2733 559.647 78.4333 559.794 78.56C559.94 78.68 560.114 78.77 560.314 78.83C560.514 78.8833 560.73 78.91 560.964 78.91ZM570.26 65.27V80H568.48V65.27H570.26ZM572.818 78.9C572.818 78.7267 572.848 78.5633 572.908 78.41C572.974 78.2567 573.061 78.1233 573.168 78.01C573.281 77.8967 573.414 77.8067 573.568 77.74C573.721 77.6733 573.884 77.64 574.058 77.64C574.231 77.64 574.394 77.6733 574.548 77.74C574.701 77.8067 574.834 77.8967 574.948 78.01C575.061 78.1233 575.148 78.2567 575.208 78.41C575.274 78.5633 575.308 78.7267 575.308 78.9C575.308 79.08 575.274 79.2467 575.208 79.4C575.148 79.5467 575.061 79.6767 574.948 79.79C574.834 79.9033 574.701 79.99 574.548 80.05C574.394 80.1167 574.231 80.15 574.058 80.15C573.884 80.15 573.721 80.1167 573.568 80.05C573.414 79.99 573.281 79.9033 573.168 79.79C573.061 79.6767 572.974 79.5467 572.908 79.4C572.848 79.2467 572.818 79.08 572.818 78.9Z" fill="white"/>
</svg>
