<svg width="1280" height="1430" viewBox="0 0 1280 1430" fill="none" xmlns="http://www.w3.org/2000/svg">
<g clip-path="url(#clip0_222_103)">
<rect width="1280" height="1430" fill="#F5A7E4"/>
<path d="M262 413L1277.5 836.5V1600H-9V923.5L262 413Z" fill="white"/>
<path d="M262 413L1277.5 836.5V1600H-9M262 413L-9 1600M262 413L-9 923.5V1600" stroke="white" stroke-width="5"/>
<path d="M365.242 489.919C365.242 489.919 360.525 602.426 356.439 628.173C356.014 630.848 355.841 633.555 355.961 636.269C356.898 656.734 360.359 740.579 355.742 771.784C355.742 771.784 368.81 833.653 346.441 842.51L283.93 730.085L319.474 538.417L365.242 489.919Z" fill="#FFE3D4"/>
<path d="M249.013 1264.33L258.985 1347.85H312.799V1238.58L249.013 1264.33Z" fill="#FFE3D4"/>
<path d="M258.985 1347.85H312.799C312.799 1347.85 335.168 1378.64 356.441 1382.25C366.081 1383.89 390.723 1393.32 400.529 1418.13C402.356 1422.75 398.635 1427.67 393.427 1427.67H268.167C263.097 1427.67 258.985 1423.78 258.985 1418.98V1347.85Z" fill="#F5A7E4"/>
<path d="M263.396 1418H398.728C399.844 1418 400.754 1417.13 400.754 1416.07C400.754 1415.01 399.844 1414.15 398.728 1414.15H263.396C262.273 1414.15 261.363 1415.01 261.363 1416.07C261.363 1417.13 262.273 1418 263.396 1418Z" fill="white"/>
<path d="M71.7399 1261.72V1350.18H125.56L134.496 1230.71L71.7399 1261.72Z" fill="#FFE3D4"/>
<path d="M71.7406 1350.18H125.561C125.561 1350.18 147.924 1380.97 169.197 1384.59C178.837 1386.22 203.478 1395.64 213.291 1420.46C215.111 1425.08 211.397 1430 206.182 1430H80.9221C75.853 1430 71.7406 1426.1 71.7406 1421.31V1350.18Z" fill="#F5A7E4"/>
<path d="M76.1508 1420.32H211.489C212.605 1420.32 213.516 1419.46 213.516 1418.4C213.516 1417.34 212.605 1416.48 211.489 1416.48H76.1508C75.028 1416.48 74.1178 1417.34 74.1178 1418.4C74.1178 1419.46 75.028 1420.32 76.1508 1420.32Z" fill="white"/>
<path d="M57.8803 1305.88L138.462 1304.85C138.462 1304.85 165.136 1179.84 188.694 1048.25C193.757 1020.03 198.673 991.492 203.144 963.843C206.36 944.045 209.343 924.681 211.987 906.186L215.601 965.039L220.724 1048.23L236.795 1309.98H318.266C318.266 1309.98 323.388 1195.56 333.44 1055.63C333.494 1055.2 333.507 1054.79 333.527 1054.35C335.746 1023.66 337.772 991.725 339.506 959.537C339.506 959.424 339.526 959.292 339.526 959.172C344.276 869.863 346.495 778.482 342.469 704.986C342.469 704.986 254.274 738.439 78.5288 707.253C78.5288 707.253 52.1733 1233.03 57.8803 1305.88Z" fill="#F8DEF2"/>
<path d="M213.76 908.037C214.676 908.037 215.507 907.452 215.733 906.577C227.818 859.86 232.515 808.737 232.561 808.221C232.654 807.163 231.83 806.232 230.708 806.144C229.598 806.037 228.602 806.842 228.509 807.9C228.462 808.41 223.798 859.243 211.786 905.657C211.521 906.69 212.185 907.729 213.275 907.98C213.434 908.018 213.6 908.037 213.76 908.037Z" fill="white"/>
<path d="M345.972 793.679C346.65 793.679 347.314 793.358 347.693 792.779C348.277 791.904 348.025 790.745 347.128 790.16C346.796 789.908 335.243 780.516 334.578 719.988C334.572 718.937 333.655 718.087 332.552 718.087C332.539 718.087 332.532 718.087 332.525 718.087C331.409 718.099 330.499 718.962 330.519 720.026C331.21 783.374 343.494 792.533 344.889 793.377C345.228 793.578 345.607 793.679 345.972 793.679Z" fill="white"/>
<path d="M66.1703 783.695C66.2899 783.695 66.4029 783.682 66.5158 783.67C92.0807 779.553 99.5416 708.191 99.8472 705.157C99.9468 704.099 99.1363 703.161 98.0202 703.06C96.8907 702.96 95.9075 703.734 95.7945 704.785C93.8014 724.653 84.5202 776.865 65.8315 779.874C64.7287 780.05 63.9846 781.045 64.1706 782.09C64.3433 783.034 65.2004 783.695 66.1703 783.695Z" fill="white"/>
<path d="M178.511 368.429V324.684L243.944 329.109L245.592 381.082L178.511 368.429Z" fill="#FFE3D4"/>
<mask id="mask0_222_103" style="mask-type:luminance" maskUnits="userSpaceOnUse" x="35" y="367" width="343" height="367">
<path d="M377.203 367.302H35.0002V733.126H377.203V367.302Z" fill="white"/>
</mask>
<g mask="url(#mask0_222_103)">
<path d="M178.512 368.429C178.512 368.429 66.1805 368.429 34.9751 538.845C34.9751 538.845 101.12 568.13 125.044 564.139L82.0058 718.849C82.0058 718.849 270.686 751.898 344.564 713.957L339.263 553.538C339.263 553.538 348.962 545.782 375.703 520.488C375.703 520.488 347.408 381.082 245.195 368.429C245.195 368.429 212.056 374.755 178.512 368.429Z" fill="#A29AFF"/>
</g>
<path d="M243.945 515.376L250.815 465.443C251.719 458.877 257.631 453.973 264.627 453.973H305.918C314.415 453.973 320.939 461.112 319.69 469.069L310.668 526.859L243.945 541.885V515.376Z" fill="#191919"/>
<path d="M42.5142 671.408C43.0789 688.607 46.1283 703.532 53.2636 712.585C61.7941 723.412 80.3366 721.7 103.603 711.88C153.284 690.86 224.538 632.718 265.749 580.116C265.749 580.116 320.459 569.294 318.347 526.859C318.347 526.859 317.755 497.907 310.66 505.38C310.66 505.38 305.684 486.91 293.552 500.407C293.552 500.407 279.302 533.84 248.694 531.857C248.694 531.857 249.226 513.884 243.944 515.383C238.662 516.881 224.186 543.837 225.88 557.321L118.398 619.668L125.042 564.139C125.042 564.139 86.5751 559.694 60.7776 549.257C60.7776 549.257 40.8267 620.455 42.5142 671.408Z" fill="#FFE3D4"/>
<path d="M153.842 499.846C154.885 499.846 155.769 499.11 155.869 498.115C159.682 461.376 148.135 392.451 148.009 391.752C147.836 390.713 146.8 389.989 145.69 390.159C144.581 390.329 143.824 391.311 144.003 392.363C144.109 393.055 155.583 461.49 151.823 497.737C151.71 498.795 152.527 499.739 153.65 499.84C153.709 499.846 153.789 499.846 153.842 499.846Z" fill="white"/>
<path d="M133.928 551.75C135.031 551.75 135.941 550.906 135.961 549.855C135.974 548.797 135.084 547.922 133.961 547.897C72.9255 546.921 41.3813 519.594 41.0691 519.317C40.2452 518.593 38.963 518.631 38.1923 519.405C37.4283 520.18 37.4682 521.401 38.2854 522.125C39.6074 523.296 71.3045 550.749 133.888 551.75C133.901 551.75 133.908 551.75 133.928 551.75Z" fill="white"/>
<path d="M148.581 219.661C148.581 219.661 116.193 229.412 117.442 246.038C118.179 255.707 123.308 262.758 127.487 266.976C130.769 270.293 132.118 274.908 131.32 279.39C129.792 288.014 128.41 301.643 132.994 308.983C140.043 320.27 175.494 312.729 175.494 312.729L172.053 225.22L148.581 219.661Z" fill="#FE9359"/>
<path d="M284.33 304.86C282.503 315.801 279.58 326.773 275.175 336.336C271.733 343.821 267.388 350.431 261.921 355.504C244.335 371.84 234.542 372.47 213.176 363.222C187.206 351.973 176.908 329.537 170.743 312.716C170.743 312.716 142.873 305.836 147.284 286.283C151.682 266.705 168.69 273.082 168.69 273.082C168.69 273.082 181.512 217.565 207.841 214.581C234.143 211.597 281.825 206.441 286.336 260.542C287.266 271.747 287.067 288.253 284.33 304.86Z" fill="#FFE3D4"/>
<path d="M245.723 301.864L235.704 321.87C233.93 326.232 236.986 331.004 241.896 331.533C246.753 332.049 250.852 328.14 250.247 323.55L245.723 301.864Z" fill="#FFD5BF"/>
<path d="M231.912 314.662C230.782 324.041 221.826 330.777 211.907 329.72C201.988 328.649 194.873 320.176 195.996 310.79C197.132 301.41 206.081 294.668 216 295.738C225.919 296.802 233.041 305.282 231.912 314.662Z" fill="#FFD5BF"/>
<path d="M284.33 304.866C282.503 315.801 279.58 326.767 275.175 336.342C274.285 336.38 273.408 336.342 272.498 336.241C262.585 335.177 255.463 326.71 256.599 317.331C257.722 307.932 266.671 301.196 276.59 302.266C279.44 302.575 282.058 303.494 284.33 304.866Z" fill="#FFD5BF"/>
<path d="M175.488 286.522C175.933 286.522 176.379 286.396 176.744 286.119C177.628 285.465 177.787 284.262 177.103 283.425C176.824 283.091 170.366 275.361 160.547 275.197C159.417 275.178 158.5 276.016 158.481 277.079C158.454 278.143 159.351 279.018 160.474 279.044C168.366 279.182 173.834 285.716 173.894 285.786C174.292 286.264 174.89 286.522 175.488 286.522Z" fill="#B7B0FF"/>
<path d="M243.105 345.149C246.281 345.149 249.603 344.664 252.373 343.198C253.357 342.681 253.709 341.51 253.157 340.585C252.612 339.653 251.377 339.32 250.393 339.842C244.002 343.216 232.788 339.735 232.675 339.697C231.612 339.358 230.456 339.905 230.097 340.906C229.745 341.92 230.316 343.002 231.379 343.342C231.725 343.449 237.159 345.149 243.105 345.149Z" fill="#A29AFF"/>
<path d="M221.634 304.256C225.042 304.256 228.337 302.461 231.44 298.892C232.151 298.074 232.024 296.859 231.161 296.185C230.29 295.512 229.015 295.631 228.304 296.45C225.892 299.213 223.514 300.541 221.288 300.403C217.747 300.176 215.183 296.387 215.149 296.349C214.565 295.449 213.316 295.165 212.352 295.719C211.402 296.286 211.11 297.463 211.695 298.37C211.834 298.596 215.349 303.878 221.009 304.237C221.222 304.249 221.428 304.256 221.634 304.256Z" fill="#A29AFF"/>
<path d="M269.077 306.352C272.279 306.352 275.475 304.363 278.577 300.428C279.248 299.572 279.062 298.376 278.165 297.74C277.262 297.104 275.993 297.281 275.322 298.124C273.641 300.258 271.156 302.726 268.725 302.493C266.386 302.254 264.532 299.452 264.067 298.483C263.602 297.52 262.393 297.092 261.37 297.532C260.354 297.967 259.902 299.113 260.367 300.076C260.48 300.309 263.184 305.798 268.293 306.314C268.559 306.346 268.818 306.352 269.077 306.352Z" fill="#A29AFF"/>
<path d="M42.5195 671.408C43.0909 688.619 46.1271 703.539 53.269 712.591C61.7995 723.419 80.342 721.7 103.602 711.88C99.9077 690.678 81.7173 673.473 58.006 670.917C52.6977 670.332 47.4957 670.546 42.5195 671.408Z" fill="#FFE3D4"/>
<path d="M252.366 391.173C252.831 391.173 253.303 391.022 253.675 390.72C254.306 390.216 254.559 389.404 254.3 388.655L247.125 367.83C246.766 366.83 245.63 366.276 244.56 366.603C243.49 366.937 242.912 368.019 243.258 369.027L248.865 385.281L217.786 369.461C217.195 369.159 216.477 369.152 215.873 369.448L182.169 386.2L180.528 368.265C180.442 367.214 179.472 366.408 178.336 366.515C177.213 366.603 176.389 367.541 176.489 368.598L178.382 389.417C178.442 390.052 178.841 390.625 179.439 390.94C180.03 391.248 180.754 391.255 181.352 390.953L216.809 373.332L251.41 390.94C251.702 391.097 252.034 391.173 252.366 391.173Z" fill="white"/>
<path d="M168.683 273.076C168.683 273.076 246.241 291.609 241.71 256.394C241.71 256.394 297.417 298.817 307.576 267.423C317.734 236.035 290.016 199.221 262.213 200.19C262.213 200.19 239.491 138.662 189.703 190.571C189.703 190.571 146.054 184.339 148.572 219.661L168.683 273.076Z" fill="#FE9359"/>
</g>
<defs>
<clipPath id="clip0_222_103">
<rect width="1280" height="1430" fill="white"/>
</clipPath>
</defs>
</svg>
