<svg width="1280" height="1260" viewBox="0 0 1280 1260" fill="none" xmlns="http://www.w3.org/2000/svg">
<g clip-path="url(#clip0_233_192)">
<rect width="1280" height="1260" fill="#F5A7E4"/>
<path d="M262 413L1277.5 836.5V1600H-9V923.5L262 413Z" fill="white"/>
<path d="M262 413L1277.5 836.5V1600H-9M262 413L-9 1600M262 413L-9 923.5V1600" stroke="white" stroke-width="5"/>
<path d="M327.197 420.805C327.197 420.805 322.881 521.238 319.142 544.222C318.753 546.611 318.595 549.027 318.704 551.449C319.561 569.718 322.729 644.565 318.504 672.422C318.504 672.422 330.462 727.651 309.992 735.558L252.79 635.198L285.316 464.098L327.197 420.805Z" fill="#FFE3D4"/>
<path d="M220.838 1112.11L229.963 1186.66H279.207V1089.12L220.838 1112.11Z" fill="#FFE3D4"/>
<path d="M229.963 1186.66H279.207C279.207 1186.66 299.677 1214.16 319.143 1217.38C327.964 1218.84 350.513 1227.25 359.487 1249.41C361.159 1253.53 357.754 1257.92 352.988 1257.92H238.365C233.726 1257.92 229.963 1254.45 229.963 1250.17V1186.66Z" fill="#F5A7E4"/>
<path d="M234 1249.28H357.839C358.86 1249.28 359.693 1248.51 359.693 1247.56C359.693 1246.62 358.86 1245.85 357.839 1245.85H234C232.972 1245.85 232.139 1246.62 232.139 1247.56C232.139 1248.51 232.972 1249.28 234 1249.28Z" fill="white"/>
<path d="M58.6199 1109.78V1188.75H107.87L116.047 1082.1L58.6199 1109.78Z" fill="#FFE3D4"/>
<path d="M58.6191 1188.75H107.869C107.869 1188.75 128.333 1216.23 147.799 1219.46C156.621 1220.92 179.17 1229.33 188.149 1251.49C189.815 1255.61 186.416 1260 181.644 1260H67.021C62.3823 1260 58.6191 1256.52 58.6191 1252.24V1188.75Z" fill="#F5A7E4"/>
<path d="M62.6536 1251.36H186.499C187.521 1251.36 188.354 1250.59 188.354 1249.64C188.354 1248.7 187.521 1247.93 186.499 1247.93H62.6536C61.6262 1247.93 60.7933 1248.7 60.7933 1249.64C60.7933 1250.59 61.6262 1251.36 62.6536 1251.36Z" fill="white"/>
<path d="M45.9361 1149.2L119.674 1148.28C119.674 1148.28 144.084 1036.68 165.642 919.217C170.274 894.024 174.773 868.551 178.865 843.87C181.807 826.196 184.537 808.91 186.956 792.4L190.264 844.937L194.951 919.2L209.657 1152.86H284.21C284.21 1152.86 288.897 1050.72 298.096 925.809C298.144 925.427 298.157 925.056 298.175 924.662C300.205 897.267 302.06 868.759 303.646 840.026C303.646 839.925 303.665 839.807 303.665 839.7C308.011 759.975 310.042 678.401 306.358 612.792C306.358 612.792 225.652 642.655 64.8312 614.815C64.8312 614.815 40.7138 1084.17 45.9361 1149.2Z" fill="#F8DEF2"/>
<path d="M188.578 794.052C189.416 794.052 190.176 793.53 190.383 792.748C201.442 751.046 205.74 705.409 205.783 704.948C205.868 704.004 205.114 703.172 204.086 703.094C203.071 702.998 202.159 703.717 202.074 704.661C202.031 705.117 197.764 750.495 186.772 791.928C186.529 792.85 187.137 793.777 188.134 794.002C188.28 794.035 188.432 794.052 188.578 794.052Z" fill="white"/>
<path d="M309.563 691.967C310.183 691.967 310.791 691.68 311.138 691.163C311.673 690.382 311.442 689.348 310.621 688.825C310.317 688.601 299.745 680.216 299.137 626.184C299.131 625.245 298.292 624.487 297.282 624.487C297.27 624.487 297.264 624.487 297.258 624.487C296.237 624.498 295.404 625.268 295.422 626.218C296.054 682.767 307.295 690.944 308.572 691.697C308.882 691.877 309.229 691.967 309.563 691.967Z" fill="white"/>
<path d="M53.5231 683.054C53.6325 683.054 53.7358 683.043 53.8392 683.032C77.2331 679.356 84.0604 615.653 84.3401 612.944C84.4313 612 83.6896 611.163 82.6682 611.073C81.6347 610.983 80.7349 611.674 80.6316 612.613C78.8077 630.348 70.3147 676.957 53.213 679.643C52.2038 679.8 51.5229 680.688 51.6931 681.621C51.8512 682.464 52.6355 683.054 53.5231 683.054Z" fill="white"/>
<path d="M156.322 312.353V273.302L216.199 277.253L217.707 323.648L156.322 312.353Z" fill="#FFE3D4"/>
<mask id="mask0_233_192" style="mask-type:luminance" maskUnits="userSpaceOnUse" x="25" y="311" width="314" height="327">
<path d="M338.143 311.347H24.9994V637.912H338.143V311.347Z" fill="white"/>
</mask>
<g mask="url(#mask0_233_192)">
<path d="M156.324 312.353C156.324 312.353 53.5314 312.353 24.976 464.481C24.976 464.481 85.5035 490.623 107.396 487.06L68.0128 625.167C68.0128 625.167 240.671 654.67 308.275 620.801L303.423 477.597C303.423 477.597 312.3 470.673 336.77 448.094C336.77 448.094 310.877 323.648 217.344 312.353C217.344 312.353 187.019 318.001 156.324 312.353Z" fill="#A29AFF"/>
</g>
<path d="M216.199 443.531L222.485 398.956C223.312 393.095 228.723 388.717 235.125 388.717H272.909C280.685 388.717 286.655 395.09 285.512 402.193L277.256 453.781L216.199 467.195V443.531Z" fill="#191919"/>
<path d="M31.8744 582.818C32.3912 598.17 35.1817 611.494 41.711 619.575C49.5171 629.241 66.485 627.712 87.7754 618.946C133.238 600.182 198.441 548.28 236.152 501.322C236.152 501.322 286.217 491.662 284.283 453.781C284.283 453.781 283.742 427.936 277.249 434.607C277.249 434.607 272.696 418.119 261.595 430.167C261.595 430.167 248.554 460.013 220.546 458.243C220.546 458.243 221.032 442.199 216.199 443.536C211.366 444.874 198.118 468.937 199.669 480.974L101.315 536.63L107.394 487.06C107.394 487.06 72.1937 483.092 48.587 473.775C48.587 473.775 30.3302 537.333 31.8744 582.818Z" fill="#FFE3D4"/>
<path d="M133.748 429.667C134.702 429.667 135.511 429.009 135.602 428.122C139.092 395.326 128.526 333.797 128.41 333.173C128.252 332.246 127.304 331.6 126.288 331.751C125.273 331.903 124.58 332.78 124.744 333.718C124.841 334.336 135.341 395.427 131.9 427.784C131.796 428.729 132.544 429.571 133.572 429.661C133.626 429.667 133.699 429.667 133.748 429.667Z" fill="white"/>
<path d="M115.526 476.001C116.535 476.001 117.368 475.248 117.387 474.309C117.399 473.365 116.584 472.584 115.557 472.561C59.7042 471.69 30.8387 447.296 30.553 447.049C29.7991 446.402 28.6258 446.436 27.9206 447.127C27.2214 447.818 27.2579 448.909 28.0057 449.555C29.2155 450.6 58.2208 475.107 115.49 476.001C115.502 476.001 115.508 476.001 115.526 476.001Z" fill="white"/>
<path d="M128.934 179.551C128.934 179.551 99.2968 188.255 100.44 203.097C101.115 211.728 105.808 218.022 109.632 221.787C112.635 224.749 113.869 228.868 113.14 232.869C111.742 240.568 110.477 252.734 114.672 259.287C121.122 269.363 153.562 262.63 153.562 262.63L150.413 184.513L128.934 179.551Z" fill="#FE9359"/>
<path d="M253.154 255.606C251.482 265.373 248.807 275.168 244.777 283.704C241.627 290.385 237.651 296.286 232.648 300.815C216.556 315.398 207.594 315.96 188.043 307.705C164.278 297.663 154.855 277.635 149.213 262.619C149.213 262.619 123.709 256.477 127.746 239.022C131.771 221.546 147.334 227.238 147.334 227.238C147.334 227.238 159.068 177.679 183.161 175.015C207.23 172.352 250.862 167.749 254.99 216.044C255.841 226.047 255.659 240.781 253.154 255.606Z" fill="#FFE3D4"/>
<path d="M217.827 252.931L208.659 270.79C207.036 274.685 209.832 278.944 214.325 279.416C218.769 279.877 222.52 276.387 221.967 272.291L217.827 252.931Z" fill="#FFD5BF"/>
<path d="M205.189 264.356C204.156 272.729 195.96 278.742 186.884 277.798C177.807 276.843 171.296 269.279 172.323 260.9C173.363 252.527 181.552 246.508 190.629 247.463C199.705 248.413 206.223 255.983 205.189 264.356Z" fill="#FFD5BF"/>
<path d="M253.156 255.612C251.484 265.373 248.809 275.162 244.779 283.71C243.964 283.743 243.162 283.71 242.329 283.62C233.258 282.67 226.741 275.112 227.78 266.739C228.808 258.349 236.997 252.336 246.074 253.291C248.682 253.566 251.077 254.387 253.156 255.612Z" fill="#FFD5BF"/>
<path d="M153.556 239.236C153.963 239.236 154.371 239.124 154.705 238.877C155.514 238.292 155.66 237.219 155.033 236.472C154.778 236.174 148.869 229.273 139.883 229.127C138.85 229.11 138.011 229.857 137.992 230.807C137.968 231.757 138.789 232.538 139.816 232.56C147.039 232.684 152.042 238.517 152.097 238.579C152.462 239.006 153.009 239.236 153.556 239.236Z" fill="#B7B0FF"/>
<path d="M215.432 291.571C218.338 291.571 221.378 291.139 223.913 289.829C224.813 289.369 225.135 288.323 224.631 287.497C224.132 286.666 223.001 286.368 222.101 286.834C216.253 289.846 205.991 286.739 205.887 286.705C204.915 286.401 203.857 286.89 203.529 287.784C203.206 288.689 203.729 289.655 204.702 289.959C205.018 290.054 209.991 291.571 215.432 291.571Z" fill="#A29AFF"/>
<path d="M195.783 255.066C198.902 255.066 201.917 253.465 204.756 250.279C205.407 249.548 205.291 248.463 204.501 247.862C203.704 247.261 202.537 247.368 201.887 248.098C199.68 250.565 197.503 251.751 195.467 251.627C192.226 251.425 189.88 248.042 189.849 248.008C189.314 247.205 188.171 246.952 187.29 247.446C186.42 247.952 186.153 249.003 186.688 249.812C186.816 250.014 190.032 254.729 195.211 255.05C195.406 255.061 195.594 255.066 195.783 255.066Z" fill="#A29AFF"/>
<path d="M239.197 256.938C242.127 256.938 245.052 255.162 247.891 251.65C248.505 250.886 248.335 249.818 247.514 249.25C246.687 248.683 245.526 248.84 244.912 249.593C243.374 251.498 241.1 253.701 238.875 253.493C236.735 253.28 235.039 250.779 234.613 249.914C234.188 249.054 233.081 248.672 232.145 249.065C231.215 249.453 230.801 250.475 231.227 251.335C231.33 251.543 233.805 256.443 238.48 256.904C238.723 256.932 238.96 256.938 239.197 256.938Z" fill="#A29AFF"/>
<path d="M31.8804 582.817C32.4033 598.181 35.1816 611.5 41.7171 619.581C49.5231 629.246 66.491 627.712 87.7754 618.946C84.3952 600.019 67.7495 584.661 46.0517 582.379C41.1942 581.857 36.434 582.048 31.8804 582.817Z" fill="#FFE3D4"/>
<path d="M223.906 332.656C224.332 332.656 224.764 332.521 225.104 332.252C225.682 331.802 225.913 331.077 225.675 330.408L219.11 311.819C218.781 310.925 217.742 310.431 216.763 310.723C215.784 311.021 215.255 311.987 215.571 312.886L220.702 327.396L192.262 313.274C191.721 313.004 191.065 312.999 190.512 313.263L159.67 328.217L158.169 312.207C158.09 311.268 157.202 310.549 156.162 310.644C155.135 310.723 154.381 311.56 154.472 312.504L156.205 331.088C156.26 331.656 156.624 332.167 157.172 332.448C157.713 332.724 158.375 332.729 158.922 332.459L191.369 316.73L223.031 332.448C223.298 332.589 223.602 332.656 223.906 332.656Z" fill="white"/>
<path d="M147.33 227.233C147.33 227.233 218.302 243.777 214.156 212.341C214.156 212.341 265.132 250.211 274.428 222.186C283.723 194.167 258.36 161.304 232.917 162.169C232.917 162.169 212.125 107.244 166.565 153.583C166.565 153.583 126.623 148.019 128.927 179.551L147.33 227.233Z" fill="#FE9359"/>
</g>
<defs>
<clipPath id="clip0_233_192">
<rect width="1280" height="1260" fill="white"/>
</clipPath>
</defs>
</svg>
