<svg width="1280" height="1198" viewBox="0 0 1280 1198" fill="none" xmlns="http://www.w3.org/2000/svg">
<g clip-path="url(#clip0_293_107)">
<rect width="1280" height="1198" fill="#F5A7E4"/>
<path d="M262 413L1277.5 836.5V1600H-9V923.5L262 413Z" fill="white"/>
<path d="M262 413L1277.5 836.5V1600H-9M262 413L-9 1600M262 413L-9 923.5V1600" stroke="white" stroke-width="5"/>
<path d="M335.197 345.341C335.197 345.341 330.881 447.369 327.142 470.718C326.753 473.144 326.595 475.599 326.704 478.059C327.561 496.618 330.729 572.654 326.504 600.952C326.504 600.952 338.462 657.058 317.992 665.09L260.79 563.137L293.316 389.322L335.197 345.341Z" fill="#FFE3D4"/>
<path d="M228.838 1047.62L237.963 1123.36H287.207V1024.26L228.838 1047.62Z" fill="#FFE3D4"/>
<path d="M237.963 1123.36H287.207C287.207 1123.36 307.677 1151.28 327.143 1154.56C335.964 1156.05 358.513 1164.59 367.487 1187.1C369.159 1191.29 365.754 1195.74 360.988 1195.74H246.365C241.726 1195.74 237.963 1192.22 237.963 1187.87V1123.36Z" fill="#F5A7E4"/>
<path d="M242 1186.97H365.839C366.86 1186.97 367.693 1186.19 367.693 1185.22C367.693 1184.26 366.86 1183.48 365.839 1183.48H242C240.972 1183.48 240.139 1184.26 240.139 1185.22C240.139 1186.19 240.972 1186.97 242 1186.97Z" fill="white"/>
<path d="M66.6199 1045.26V1125.48H115.87L124.047 1017.13L66.6199 1045.26Z" fill="#FFE3D4"/>
<path d="M66.6191 1125.48H115.869C115.869 1125.48 136.333 1153.4 155.799 1156.67C164.621 1158.15 187.17 1166.7 196.149 1189.21C197.815 1193.4 194.416 1197.86 189.644 1197.86H75.021C70.3823 1197.86 66.6191 1194.32 66.6191 1189.98V1125.48Z" fill="#F5A7E4"/>
<path d="M70.6536 1189.08H194.499C195.521 1189.08 196.354 1188.29 196.354 1187.34C196.354 1186.38 195.521 1185.59 194.499 1185.59H70.6536C69.6262 1185.59 68.7933 1186.38 68.7933 1187.34C68.7933 1188.29 69.6262 1189.08 70.6536 1189.08Z" fill="white"/>
<path d="M53.9361 1085.3L127.674 1084.36C127.674 1084.36 152.084 970.996 173.642 851.665C178.274 826.072 182.773 800.194 186.865 775.121C189.807 757.167 192.537 739.607 194.956 722.835L198.264 776.206L202.951 851.648L217.657 1089.02H292.21C292.21 1089.02 296.897 985.256 306.096 858.361C306.144 857.973 306.157 857.596 306.175 857.197C308.205 829.366 310.06 800.406 311.646 771.217C311.646 771.114 311.665 770.994 311.665 770.886C316.011 689.895 318.042 607.026 314.358 540.376C314.358 540.376 233.652 570.713 72.8312 542.432C72.8312 542.432 48.7138 1019.23 53.9361 1085.3Z" fill="#F8DEF2"/>
<path d="M196.578 724.513C197.416 724.513 198.176 723.982 198.383 723.189C209.442 680.824 213.74 634.463 213.783 633.995C213.868 633.036 213.114 632.191 212.086 632.111C211.071 632.014 210.159 632.745 210.074 633.704C210.031 634.166 205.764 680.265 194.772 722.355C194.529 723.292 195.137 724.234 196.134 724.462C196.28 724.496 196.432 724.513 196.578 724.513Z" fill="white"/>
<path d="M317.563 620.807C318.183 620.807 318.791 620.516 319.138 619.991C319.673 619.198 319.442 618.147 318.621 617.616C318.317 617.388 307.745 608.87 307.137 553.98C307.131 553.027 306.292 552.256 305.282 552.256C305.27 552.256 305.264 552.256 305.258 552.256C304.237 552.268 303.404 553.05 303.422 554.015C304.054 611.462 315.295 619.768 316.572 620.533C316.882 620.716 317.229 620.807 317.563 620.807Z" fill="white"/>
<path d="M61.5231 611.753C61.6325 611.753 61.7358 611.742 61.8392 611.731C85.2331 607.997 92.0604 543.282 92.3401 540.531C92.4313 539.572 91.6896 538.721 90.6682 538.63C89.6347 538.538 88.7349 539.24 88.6316 540.194C86.8077 558.211 78.3147 605.559 61.213 608.288C60.2038 608.448 59.5229 609.35 59.6931 610.298C59.8512 611.154 60.6355 611.753 61.5231 611.753Z" fill="white"/>
<path d="M164.322 235.168V195.498L224.199 199.511L225.707 246.643L164.322 235.168Z" fill="#FFE3D4"/>
<mask id="mask0_293_107" style="mask-type:luminance" maskUnits="userSpaceOnUse" x="33" y="234" width="314" height="332">
<path d="M346.143 234.146H32.9994V565.895H346.143V234.146Z" fill="white"/>
</mask>
<g mask="url(#mask0_293_107)">
<path d="M164.324 235.168C164.324 235.168 61.5314 235.168 32.976 389.71C32.976 389.71 93.5035 416.268 115.396 412.648L76.0128 552.947C76.0128 552.947 248.671 582.918 316.275 548.512L311.423 403.035C311.423 403.035 320.3 396.001 344.77 373.064C344.77 373.064 318.877 246.643 225.344 235.168C225.344 235.168 195.019 240.905 164.324 235.168Z" fill="#A29AFF"/>
</g>
<path d="M224.199 368.428L230.485 323.146C231.312 317.192 236.723 312.745 243.125 312.745H280.909C288.685 312.745 294.655 319.218 293.512 326.434L285.256 378.841L224.199 392.468V368.428Z" fill="#191919"/>
<path d="M39.8744 509.926C40.3912 525.522 43.1817 539.058 49.711 547.267C57.5171 557.086 74.485 555.533 95.7754 546.628C141.238 527.566 206.441 474.84 244.152 427.137C244.152 427.137 294.217 417.324 292.283 378.841C292.283 378.841 291.742 352.586 285.249 359.362C285.249 359.362 280.696 342.613 269.595 354.852C269.595 354.852 256.554 385.172 228.546 383.373C228.546 383.373 229.032 367.075 224.199 368.434C219.366 369.792 206.118 394.237 207.669 406.466L109.315 463.005L115.394 412.648C115.394 412.648 80.1937 408.618 56.587 399.153C56.587 399.153 38.3302 463.719 39.8744 509.926Z" fill="#FFE3D4"/>
<path d="M141.748 354.344C142.702 354.344 143.511 353.676 143.602 352.774C147.092 319.458 136.526 256.952 136.41 256.319C136.252 255.377 135.304 254.72 134.288 254.874C133.273 255.029 132.58 255.919 132.744 256.872C132.841 257.5 143.341 319.561 139.9 352.432C139.796 353.391 140.544 354.247 141.572 354.339C141.626 354.344 141.699 354.344 141.748 354.344Z" fill="white"/>
<path d="M123.526 401.413C124.535 401.413 125.368 400.648 125.387 399.695C125.399 398.736 124.584 397.942 123.557 397.92C67.7042 397.035 38.8387 372.253 38.553 372.002C37.7991 371.345 36.6258 371.379 35.9206 372.082C35.2214 372.784 35.2579 373.891 36.0057 374.548C37.2155 375.61 66.2208 400.506 123.49 401.413C123.502 401.413 123.508 401.413 123.526 401.413Z" fill="white"/>
<path d="M136.934 100.258C136.934 100.258 107.297 109.101 108.44 124.177C109.115 132.946 113.808 139.34 117.632 143.165C120.635 146.173 121.869 150.358 121.14 154.423C119.742 162.244 118.477 174.603 122.672 181.26C129.122 191.495 161.562 184.656 161.562 184.656L158.413 105.299L136.934 100.258Z" fill="#FE9359"/>
<path d="M261.154 177.52C259.482 187.442 256.807 197.393 252.777 206.064C249.627 212.852 245.651 218.846 240.648 223.447C224.556 238.262 215.594 238.833 196.043 230.446C172.278 220.245 162.855 199.899 157.213 184.645C157.213 184.645 131.709 178.405 135.746 160.674C139.771 142.919 155.334 148.702 155.334 148.702C155.334 148.702 167.068 98.3566 191.161 95.6507C215.23 92.9447 258.862 88.2692 262.99 137.331C263.841 147.492 263.659 162.461 261.154 177.52Z" fill="#FFE3D4"/>
<path d="M225.827 174.803L216.659 192.946C215.036 196.902 217.832 201.229 222.325 201.709C226.769 202.177 230.52 198.632 229.967 194.47L225.827 174.803Z" fill="#FFD5BF"/>
<path d="M213.189 186.409C212.156 194.915 203.96 201.024 194.884 200.064C185.807 199.094 179.296 191.41 180.323 182.898C181.363 174.392 189.552 168.278 198.629 169.248C207.705 170.213 214.223 177.903 213.189 186.409Z" fill="#FFD5BF"/>
<path d="M261.156 177.526C259.484 187.442 256.809 197.387 252.779 206.07C251.964 206.104 251.162 206.07 250.329 205.979C241.258 205.014 234.741 197.336 235.78 188.83C236.808 180.306 244.997 174.198 254.074 175.168C256.682 175.448 259.077 176.282 261.156 177.526Z" fill="#FFD5BF"/>
<path d="M161.556 160.891C161.963 160.891 162.371 160.777 162.705 160.526C163.514 159.932 163.66 158.841 163.033 158.082C162.778 157.78 156.869 150.769 147.883 150.621C146.85 150.604 146.011 151.363 145.992 152.328C145.968 153.292 146.789 154.086 147.816 154.109C155.039 154.234 160.042 160.16 160.097 160.223C160.462 160.657 161.009 160.891 161.556 160.891Z" fill="#B7B0FF"/>
<path d="M223.432 214.057C226.338 214.057 229.378 213.617 231.913 212.287C232.813 211.819 233.135 210.757 232.631 209.918C232.132 209.073 231.001 208.77 230.101 209.244C224.253 212.304 213.991 209.147 213.887 209.113C212.915 208.805 211.857 209.301 211.529 210.209C211.206 211.128 211.729 212.11 212.702 212.418C213.018 212.515 217.991 214.057 223.432 214.057Z" fill="#A29AFF"/>
<path d="M203.783 176.972C206.902 176.972 209.917 175.345 212.756 172.108C213.407 171.366 213.291 170.264 212.501 169.654C211.704 169.043 210.537 169.151 209.887 169.893C207.68 172.4 205.503 173.604 203.467 173.479C200.226 173.273 197.88 169.836 197.849 169.802C197.314 168.986 196.171 168.729 195.29 169.231C194.42 169.745 194.153 170.813 194.688 171.635C194.816 171.84 198.032 176.63 203.211 176.955C203.406 176.967 203.594 176.972 203.783 176.972Z" fill="#A29AFF"/>
<path d="M247.197 178.873C250.127 178.873 253.052 177.069 255.891 173.501C256.505 172.725 256.335 171.64 255.514 171.064C254.687 170.487 253.526 170.647 252.912 171.412C251.374 173.347 249.1 175.585 246.875 175.374C244.735 175.157 243.039 172.617 242.613 171.737C242.188 170.864 241.081 170.476 240.145 170.875C239.215 171.269 238.801 172.308 239.227 173.182C239.33 173.393 241.805 178.371 246.48 178.839C246.723 178.868 246.96 178.873 247.197 178.873Z" fill="#A29AFF"/>
<path d="M39.8804 509.926C40.4033 525.534 43.1816 539.063 49.7171 547.273C57.5231 557.092 74.491 555.533 95.7754 546.627C92.3952 527.4 75.7495 511.798 54.0517 509.48C49.1942 508.95 44.434 509.144 39.8804 509.926Z" fill="#FFE3D4"/>
<path d="M231.906 255.794C232.332 255.794 232.764 255.657 233.104 255.383C233.682 254.926 233.913 254.189 233.675 253.51L227.11 234.626C226.781 233.718 225.742 233.215 224.763 233.512C223.784 233.815 223.255 234.797 223.571 235.71L228.702 250.45L200.262 236.104C199.721 235.83 199.065 235.824 198.512 236.093L167.67 251.284L166.169 235.019C166.09 234.066 165.202 233.335 164.162 233.432C163.135 233.512 162.381 234.363 162.472 235.322L164.205 254.201C164.26 254.778 164.624 255.297 165.172 255.582C165.713 255.862 166.375 255.868 166.922 255.594L199.369 239.615L231.031 255.582C231.298 255.725 231.602 255.794 231.906 255.794Z" fill="white"/>
<path d="M155.33 148.697C155.33 148.697 226.302 165.504 222.156 133.569C222.156 133.569 273.132 172.04 282.428 143.57C291.723 115.106 266.36 81.7214 240.917 82.6006C240.917 82.6006 220.125 26.803 174.565 73.8776C174.565 73.8776 134.623 68.2259 136.927 100.258L155.33 148.697Z" fill="#FE9359"/>
</g>
<defs>
<clipPath id="clip0_293_107">
<rect width="1280" height="1198" fill="white"/>
</clipPath>
</defs>
</svg>
