<svg width="165" height="68" viewBox="0 0 165 68" fill="none" xmlns="http://www.w3.org/2000/svg">
<rect x="0.1875" width="164.812" height="67.9172" rx="15" fill="#A29AFF"/>
<path d="M64.8658 36.14L63.0838 31.406C62.9398 31.04 62.7928 30.575 62.6428 30.011C62.5768 30.293 62.5048 30.554 62.4268 30.794C62.3488 31.028 62.2768 31.235 62.2108 31.415L60.4288 36.14H64.8658ZM68.8528 41H67.2238C67.0378 41 66.8878 40.955 66.7738 40.865C66.6598 40.769 66.5728 40.652 66.5128 40.514L65.4328 37.652H59.8528L58.7728 40.514C58.7248 40.634 58.6408 40.745 58.5208 40.847C58.4008 40.949 58.2508 41 58.0708 41H56.4418L61.5808 28.04H63.7138L68.8528 41ZM71.4191 33.035C71.6171 32.831 71.8211 32.648 72.0311 32.486C72.2471 32.318 72.4751 32.174 72.7151 32.054C72.9551 31.934 73.2101 31.841 73.4801 31.775C73.7501 31.709 74.0441 31.676 74.3621 31.676C74.8661 31.676 75.3071 31.76 75.6851 31.928C76.0691 32.096 76.3901 32.333 76.6481 32.639C76.9121 32.945 77.1101 33.314 77.2421 33.746C77.3741 34.172 77.4401 34.643 77.4401 35.159V41H75.5141V35.159C75.5141 34.541 75.3701 34.061 75.0821 33.719C74.8001 33.377 74.3681 33.206 73.7861 33.206C73.3541 33.206 72.9521 33.305 72.5801 33.503C72.2141 33.701 71.8691 33.971 71.5451 34.313V41H69.6101V31.82H70.7801C71.0441 31.82 71.2121 31.943 71.2841 32.189L71.4191 33.035ZM84.2449 36.986C83.5549 37.01 82.9729 37.067 82.4989 37.157C82.0249 37.241 81.6409 37.352 81.3469 37.49C81.0529 37.622 80.8399 37.781 80.7079 37.967C80.5819 38.153 80.5189 38.357 80.5189 38.579C80.5189 38.795 80.5519 38.981 80.6179 39.137C80.6899 39.287 80.7859 39.413 80.9059 39.515C81.0319 39.611 81.1759 39.683 81.3379 39.731C81.5059 39.773 81.6889 39.794 81.8869 39.794C82.3909 39.794 82.8229 39.701 83.1829 39.515C83.5489 39.323 83.9029 39.047 84.2449 38.687V36.986ZM79.1149 33.098C80.1529 32.132 81.3889 31.649 82.8229 31.649C83.3509 31.649 83.8189 31.736 84.2269 31.91C84.6409 32.078 84.9859 32.318 85.2619 32.63C85.5439 32.942 85.7569 33.314 85.9009 33.746C86.0509 34.172 86.1259 34.646 86.1259 35.168V41H85.2619C85.0759 41 84.9349 40.973 84.8389 40.919C84.7429 40.859 84.6619 40.742 84.5959 40.568L84.4069 39.821C84.1729 40.031 83.9419 40.22 83.7139 40.388C83.4859 40.55 83.2489 40.688 83.0029 40.802C82.7629 40.916 82.5019 41 82.2199 41.054C81.9439 41.114 81.6379 41.144 81.3019 41.144C80.9299 41.144 80.5819 41.093 80.2579 40.991C79.9399 40.889 79.6639 40.736 79.4299 40.532C79.1959 40.322 79.0099 40.064 78.8719 39.758C78.7399 39.452 78.6739 39.092 78.6739 38.678C78.6739 38.324 78.7669 37.979 78.9529 37.643C79.1449 37.307 79.4569 37.007 79.8889 36.743C80.3269 36.473 80.8999 36.251 81.6079 36.077C82.3219 35.903 83.2009 35.804 84.2449 35.78V35.168C84.2449 34.508 84.1039 34.016 83.8219 33.692C83.5399 33.368 83.1259 33.206 82.5799 33.206C82.2079 33.206 81.8959 33.254 81.6439 33.35C81.3919 33.44 81.1729 33.539 80.9869 33.647C80.8009 33.755 80.6359 33.857 80.4919 33.953C80.3479 34.043 80.1949 34.088 80.0329 34.088C79.9009 34.088 79.7869 34.055 79.6909 33.989C79.6009 33.917 79.5259 33.83 79.4659 33.728L79.1149 33.098ZM85.4959 27.896L83.3269 30.227C83.2309 30.335 83.1349 30.41 83.0389 30.452C82.9489 30.494 82.8289 30.515 82.6789 30.515H81.5269L82.8319 28.337C82.9159 28.187 83.0119 28.076 83.1199 28.004C83.2339 27.932 83.3989 27.896 83.6149 27.896H85.4959ZM90.0037 27.68V41H88.0687V27.68H90.0037ZM94.048 31.82V41H92.113V31.82H94.048ZM94.372 29.048C94.372 29.222 94.336 29.387 94.264 29.543C94.198 29.699 94.105 29.837 93.985 29.957C93.865 30.071 93.724 30.164 93.562 30.236C93.406 30.302 93.238 30.335 93.058 30.335C92.884 30.335 92.719 30.302 92.563 30.236C92.413 30.164 92.281 30.071 92.167 29.957C92.053 29.837 91.96 29.699 91.888 29.543C91.822 29.387 91.789 29.222 91.789 29.048C91.789 28.868 91.822 28.7 91.888 28.544C91.96 28.388 92.053 28.253 92.167 28.139C92.281 28.019 92.413 27.926 92.563 27.86C92.719 27.788 92.884 27.752 93.058 27.752C93.238 27.752 93.406 27.788 93.562 27.86C93.724 27.926 93.865 28.019 93.985 28.139C94.105 28.253 94.198 28.388 94.264 28.544C94.336 28.7 94.372 28.868 94.372 29.048ZM101.6 33.485C101.552 33.569 101.498 33.629 101.438 33.665C101.378 33.701 101.303 33.719 101.213 33.719C101.111 33.719 101 33.689 100.88 33.629C100.76 33.563 100.619 33.491 100.457 33.413C100.295 33.335 100.103 33.266 99.8813 33.206C99.6653 33.14 99.4103 33.107 99.1163 33.107C98.8763 33.107 98.6573 33.137 98.4593 33.197C98.2673 33.251 98.1023 33.332 97.9643 33.44C97.8323 33.542 97.7303 33.665 97.6583 33.809C97.5863 33.947 97.5503 34.097 97.5503 34.259C97.5503 34.475 97.6163 34.655 97.7483 34.799C97.8803 34.943 98.0543 35.069 98.2703 35.177C98.4863 35.279 98.7323 35.372 99.0083 35.456C99.2843 35.54 99.5663 35.63 99.8543 35.726C100.142 35.822 100.424 35.933 100.7 36.059C100.976 36.185 101.222 36.341 101.438 36.527C101.654 36.707 101.828 36.929 101.96 37.193C102.092 37.451 102.158 37.766 102.158 38.138C102.158 38.57 102.08 38.969 101.924 39.335C101.768 39.701 101.54 40.019 101.24 40.289C100.94 40.559 100.565 40.769 100.115 40.919C99.6713 41.069 99.1613 41.144 98.5853 41.144C98.2673 41.144 97.9583 41.114 97.6583 41.054C97.3643 41 97.0823 40.925 96.8123 40.829C96.5483 40.727 96.2993 40.607 96.0653 40.469C95.8373 40.331 95.6333 40.181 95.4533 40.019L95.9033 39.281C95.9573 39.191 96.0233 39.122 96.1013 39.074C96.1853 39.02 96.2873 38.993 96.4073 38.993C96.5333 38.993 96.6563 39.035 96.7763 39.119C96.9023 39.197 97.0463 39.284 97.2083 39.38C97.3763 39.476 97.5773 39.566 97.8113 39.65C98.0453 39.728 98.3363 39.767 98.6843 39.767C98.9723 39.767 99.2213 39.734 99.4313 39.668C99.6413 39.596 99.8153 39.5 99.9533 39.38C100.091 39.26 100.193 39.125 100.259 38.975C100.325 38.819 100.358 38.654 100.358 38.48C100.358 38.246 100.292 38.054 100.16 37.904C100.028 37.754 99.8513 37.625 99.6293 37.517C99.4133 37.409 99.1643 37.313 98.8823 37.229C98.6063 37.145 98.3243 37.055 98.0363 36.959C97.7483 36.863 97.4633 36.752 97.1813 36.626C96.9053 36.5 96.6563 36.341 96.4343 36.149C96.2183 35.951 96.0443 35.714 95.9123 35.438C95.7803 35.156 95.7143 34.814 95.7143 34.412C95.7143 34.046 95.7863 33.698 95.9303 33.368C96.0803 33.038 96.2963 32.747 96.5783 32.495C96.8663 32.243 97.2173 32.045 97.6313 31.901C98.0513 31.751 98.5343 31.676 99.0803 31.676C99.6983 31.676 100.259 31.775 100.763 31.973C101.267 32.171 101.69 32.441 102.032 32.783L101.6 33.485ZM105.633 31.82V41H103.698V31.82H105.633ZM105.957 29.048C105.957 29.222 105.921 29.387 105.849 29.543C105.783 29.699 105.69 29.837 105.57 29.957C105.45 30.071 105.309 30.164 105.147 30.236C104.991 30.302 104.823 30.335 104.643 30.335C104.469 30.335 104.304 30.302 104.148 30.236C103.998 30.164 103.866 30.071 103.752 29.957C103.638 29.837 103.545 29.699 103.473 29.543C103.407 29.387 103.374 29.222 103.374 29.048C103.374 28.868 103.407 28.7 103.473 28.544C103.545 28.388 103.638 28.253 103.752 28.139C103.866 28.019 103.998 27.926 104.148 27.86C104.304 27.788 104.469 27.752 104.643 27.752C104.823 27.752 104.991 27.788 105.147 27.86C105.309 27.926 105.45 28.019 105.57 28.139C105.69 28.253 105.783 28.388 105.849 28.544C105.921 28.7 105.957 28.868 105.957 29.048ZM113.185 33.485C113.137 33.569 113.083 33.629 113.023 33.665C112.963 33.701 112.888 33.719 112.798 33.719C112.696 33.719 112.585 33.689 112.465 33.629C112.345 33.563 112.204 33.491 112.042 33.413C111.88 33.335 111.688 33.266 111.466 33.206C111.25 33.14 110.995 33.107 110.701 33.107C110.461 33.107 110.242 33.137 110.044 33.197C109.852 33.251 109.687 33.332 109.549 33.44C109.417 33.542 109.315 33.665 109.243 33.809C109.171 33.947 109.135 34.097 109.135 34.259C109.135 34.475 109.201 34.655 109.333 34.799C109.465 34.943 109.639 35.069 109.855 35.177C110.071 35.279 110.317 35.372 110.593 35.456C110.869 35.54 111.151 35.63 111.439 35.726C111.727 35.822 112.009 35.933 112.285 36.059C112.561 36.185 112.807 36.341 113.023 36.527C113.239 36.707 113.413 36.929 113.545 37.193C113.677 37.451 113.743 37.766 113.743 38.138C113.743 38.57 113.665 38.969 113.509 39.335C113.353 39.701 113.125 40.019 112.825 40.289C112.525 40.559 112.15 40.769 111.7 40.919C111.256 41.069 110.746 41.144 110.17 41.144C109.852 41.144 109.543 41.114 109.243 41.054C108.949 41 108.667 40.925 108.397 40.829C108.133 40.727 107.884 40.607 107.65 40.469C107.422 40.331 107.218 40.181 107.038 40.019L107.488 39.281C107.542 39.191 107.608 39.122 107.686 39.074C107.77 39.02 107.872 38.993 107.992 38.993C108.118 38.993 108.241 39.035 108.361 39.119C108.487 39.197 108.631 39.284 108.793 39.38C108.961 39.476 109.162 39.566 109.396 39.65C109.63 39.728 109.921 39.767 110.269 39.767C110.557 39.767 110.806 39.734 111.016 39.668C111.226 39.596 111.4 39.5 111.538 39.38C111.676 39.26 111.778 39.125 111.844 38.975C111.91 38.819 111.943 38.654 111.943 38.48C111.943 38.246 111.877 38.054 111.745 37.904C111.613 37.754 111.436 37.625 111.214 37.517C110.998 37.409 110.749 37.313 110.467 37.229C110.191 37.145 109.909 37.055 109.621 36.959C109.333 36.863 109.048 36.752 108.766 36.626C108.49 36.5 108.241 36.341 108.019 36.149C107.803 35.951 107.629 35.714 107.497 35.438C107.365 35.156 107.299 34.814 107.299 34.412C107.299 34.046 107.371 33.698 107.515 33.368C107.665 33.038 107.881 32.747 108.163 32.495C108.451 32.243 108.802 32.045 109.216 31.901C109.636 31.751 110.119 31.676 110.665 31.676C111.283 31.676 111.844 31.775 112.348 31.973C112.852 32.171 113.275 32.441 113.617 32.783L113.185 33.485Z" fill="white"/>
</svg>
