<svg width="166" height="68" viewBox="0 0 166 68" fill="none" xmlns="http://www.w3.org/2000/svg">
<rect x="0.396484" width="164.812" height="67.9172" rx="15" fill="#F5A7E4"/>
<path d="M42.1261 18.4597C42.0601 18.5677 41.9911 18.6487 41.9191 18.7027C41.8471 18.7507 41.7571 18.7747 41.6491 18.7747C41.5351 18.7747 41.4061 18.7267 41.2621 18.6307C41.1241 18.5347 40.9501 18.4297 40.7401 18.3157C40.5361 18.1957 40.2931 18.0877 40.0111 17.9917C39.7291 17.8897 39.3931 17.8387 39.0031 17.8387C38.6431 17.8387 38.3251 17.8837 38.0491 17.9737C37.7791 18.0637 37.5511 18.1897 37.3651 18.3517C37.1791 18.5137 37.0381 18.7057 36.9421 18.9277C36.8521 19.1437 36.8071 19.3807 36.8071 19.6387C36.8071 19.9687 36.8941 20.2447 37.0681 20.4667C37.2421 20.6827 37.4701 20.8687 37.7521 21.0247C38.0401 21.1807 38.3671 21.3187 38.7331 21.4387C39.0991 21.5527 39.4711 21.6757 39.8491 21.8077C40.2331 21.9397 40.6081 22.0897 40.9741 22.2577C41.3401 22.4257 41.6641 22.6387 41.9461 22.8967C42.2341 23.1547 42.4651 23.4697 42.6391 23.8417C42.8131 24.2137 42.9001 24.6667 42.9001 25.2007C42.9001 25.7767 42.8011 26.3167 42.6031 26.8207C42.4051 27.3247 42.1171 27.7657 41.7391 28.1437C41.3671 28.5157 40.9051 28.8097 40.3531 29.0257C39.8071 29.2417 39.1831 29.3497 38.4811 29.3497C38.0671 29.3497 37.6621 29.3077 37.2661 29.2237C36.8761 29.1457 36.5011 29.0347 36.1411 28.8907C35.7871 28.7407 35.4541 28.5607 35.1421 28.3507C34.8301 28.1407 34.5511 27.9067 34.3051 27.6487L34.9171 26.6407C34.9711 26.5567 35.0401 26.4907 35.1241 26.4427C35.2081 26.3947 35.3011 26.3707 35.4031 26.3707C35.5411 26.3707 35.6941 26.4367 35.8621 26.5687C36.0301 26.6947 36.2311 26.8357 36.4651 26.9917C36.7051 27.1417 36.9931 27.2827 37.3291 27.4147C37.6651 27.5407 38.0671 27.6037 38.5351 27.6037C39.2971 27.6037 39.8851 27.4177 40.2991 27.0457C40.7191 26.6737 40.9291 26.1607 40.9291 25.5067C40.9291 25.1407 40.8421 24.8437 40.6681 24.6157C40.4941 24.3817 40.2631 24.1867 39.9751 24.0307C39.6931 23.8747 39.3691 23.7427 39.0031 23.6347C38.6371 23.5267 38.2651 23.4127 37.8871 23.2927C37.5091 23.1667 37.1371 23.0227 36.7711 22.8607C36.4051 22.6927 36.0781 22.4767 35.7901 22.2127C35.5081 21.9427 35.2801 21.6127 35.1061 21.2227C34.9321 20.8267 34.8451 20.3347 34.8451 19.7467C34.8451 19.2787 34.9351 18.8257 35.1151 18.3877C35.3011 17.9497 35.5681 17.5627 35.9161 17.2267C36.2701 16.8847 36.7051 16.6117 37.2211 16.4077C37.7371 16.2037 38.3251 16.1017 38.9851 16.1017C39.7291 16.1017 40.4101 16.2187 41.0281 16.4527C41.6521 16.6867 42.1891 17.0197 42.6391 17.4517L42.1261 18.4597ZM49.2372 25.1917C48.5472 25.2157 47.9652 25.2727 47.4912 25.3627C47.0172 25.4467 46.6332 25.5577 46.3392 25.6957C46.0452 25.8277 45.8322 25.9867 45.7002 26.1727C45.5742 26.3587 45.5112 26.5627 45.5112 26.7847C45.5112 27.0007 45.5442 27.1867 45.6102 27.3427C45.6822 27.4927 45.7782 27.6187 45.8982 27.7207C46.0242 27.8167 46.1682 27.8887 46.3302 27.9367C46.4982 27.9787 46.6812 27.9997 46.8792 27.9997C47.3832 27.9997 47.8152 27.9067 48.1752 27.7207C48.5412 27.5287 48.8952 27.2527 49.2372 26.8927V25.1917ZM44.1072 21.3037C45.1452 20.3377 46.3812 19.8547 47.8152 19.8547C48.3432 19.8547 48.8112 19.9417 49.2192 20.1157C49.6332 20.2837 49.9782 20.5237 50.2542 20.8357C50.5362 21.1477 50.7492 21.5197 50.8932 21.9517C51.0432 22.3777 51.1182 22.8517 51.1182 23.3737V29.2057H50.2542C50.0682 29.2057 49.9272 29.1787 49.8312 29.1247C49.7352 29.0647 49.6542 28.9477 49.5882 28.7737L49.3992 28.0267C49.1652 28.2367 48.9342 28.4257 48.7062 28.5937C48.4782 28.7557 48.2412 28.8937 47.9952 29.0077C47.7552 29.1217 47.4942 29.2057 47.2122 29.2597C46.9362 29.3197 46.6302 29.3497 46.2942 29.3497C45.9222 29.3497 45.5742 29.2987 45.2502 29.1967C44.9322 29.0947 44.6562 28.9417 44.4222 28.7377C44.1882 28.5277 44.0022 28.2697 43.8642 27.9637C43.7322 27.6577 43.6662 27.2977 43.6662 26.8837C43.6662 26.5297 43.7592 26.1847 43.9452 25.8487C44.1372 25.5127 44.4492 25.2127 44.8812 24.9487C45.3192 24.6787 45.8922 24.4567 46.6002 24.2827C47.3142 24.1087 48.1932 24.0097 49.2372 23.9857V23.3737C49.2372 22.7137 49.0962 22.2217 48.8142 21.8977C48.5322 21.5737 48.1182 21.4117 47.5722 21.4117C47.2002 21.4117 46.8882 21.4597 46.6362 21.5557C46.3842 21.6457 46.1652 21.7447 45.9792 21.8527C45.7932 21.9607 45.6282 22.0627 45.4842 22.1587C45.3402 22.2487 45.1872 22.2937 45.0252 22.2937C44.8932 22.2937 44.7792 22.2607 44.6832 22.1947C44.5932 22.1227 44.5182 22.0357 44.4582 21.9337L44.1072 21.3037ZM54.9959 15.8857V29.2057H53.0609V15.8857H54.9959ZM64.7643 20.0257V29.2057H63.5943C63.3363 29.2057 63.1713 29.0827 63.0993 28.8367L62.9553 27.9817C62.7633 28.1857 62.5593 28.3717 62.3433 28.5397C62.1333 28.7077 61.9083 28.8517 61.6683 28.9717C61.4283 29.0917 61.1703 29.1847 60.8943 29.2507C60.6243 29.3167 60.3333 29.3497 60.0213 29.3497C59.5173 29.3497 59.0733 29.2657 58.6893 29.0977C58.3053 28.9297 57.9813 28.6927 57.7173 28.3867C57.4593 28.0807 57.2643 27.7147 57.1323 27.2887C57.0003 26.8567 56.9343 26.3827 56.9343 25.8667V20.0257H58.8693V25.8667C58.8693 26.4847 59.0103 26.9647 59.2923 27.3067C59.5803 27.6487 60.0153 27.8197 60.5973 27.8197C61.0233 27.8197 61.4193 27.7237 61.7853 27.5317C62.1573 27.3337 62.5053 27.0637 62.8293 26.7217V20.0257H64.7643ZM72.6131 22.2847C72.3431 21.9367 72.0461 21.6937 71.7221 21.5557C71.3981 21.4177 71.0471 21.3487 70.6691 21.3487C69.9131 21.3487 69.3221 21.6277 68.8961 22.1857C68.4701 22.7377 68.2571 23.5567 68.2571 24.6427C68.2571 25.2067 68.3051 25.6897 68.4011 26.0917C68.4971 26.4877 68.6351 26.8117 68.8151 27.0637C68.9951 27.3157 69.2141 27.4987 69.4721 27.6127C69.7301 27.7267 70.0211 27.7837 70.3451 27.7837C70.8371 27.7837 71.2601 27.6787 71.6141 27.4687C71.9741 27.2527 72.3071 26.9497 72.6131 26.5597V22.2847ZM74.5481 15.8857V29.2057H73.3781C73.1201 29.2057 72.9551 29.0827 72.8831 28.8367L72.7121 27.8377C72.3281 28.2877 71.8901 28.6507 71.3981 28.9267C70.9121 29.2027 70.3451 29.3407 69.6971 29.3407C69.1811 29.3407 68.7131 29.2387 68.2931 29.0347C67.8731 28.8247 67.5131 28.5217 67.2131 28.1257C66.9131 27.7297 66.6791 27.2407 66.5111 26.6587C66.3491 26.0707 66.2681 25.3987 66.2681 24.6427C66.2681 23.9587 66.3581 23.3257 66.5381 22.7437C66.7241 22.1617 66.9881 21.6577 67.3301 21.2317C67.6721 20.7997 68.0861 20.4637 68.5721 20.2237C69.0641 19.9777 69.6131 19.8547 70.2191 19.8547C70.7591 19.8547 71.2181 19.9417 71.5961 20.1157C71.9741 20.2837 72.3131 20.5207 72.6131 20.8267V15.8857H74.5481ZM80.6767 29.2057V20.0257H81.8467C82.1107 20.0257 82.2787 20.1487 82.3507 20.3947L82.4767 21.1957C82.6447 21.0037 82.8187 20.8297 82.9987 20.6737C83.1787 20.5117 83.3707 20.3737 83.5747 20.2597C83.7847 20.1397 84.0067 20.0467 84.2407 19.9807C84.4807 19.9147 84.7387 19.8817 85.0147 19.8817C85.3087 19.8817 85.5787 19.9237 85.8247 20.0077C86.0707 20.0917 86.2867 20.2117 86.4727 20.3677C86.6647 20.5237 86.8297 20.7127 86.9677 20.9347C87.1057 21.1567 87.2197 21.4057 87.3097 21.6817C87.4477 21.3637 87.6217 21.0907 87.8317 20.8627C88.0417 20.6347 88.2757 20.4487 88.5337 20.3047C88.7917 20.1607 89.0647 20.0557 89.3527 19.9897C89.6467 19.9177 89.9437 19.8817 90.2437 19.8817C90.7357 19.8817 91.1737 19.9597 91.5577 20.1157C91.9477 20.2717 92.2747 20.4997 92.5387 20.7997C92.8087 21.0937 93.0127 21.4567 93.1507 21.8887C93.2887 22.3207 93.3577 22.8127 93.3577 23.3647V29.2057H91.4227V23.3647C91.4227 22.7167 91.2817 22.2307 90.9997 21.9067C90.7237 21.5767 90.3127 21.4117 89.7667 21.4117C89.5207 21.4117 89.2897 21.4537 89.0737 21.5377C88.8577 21.6217 88.6687 21.7447 88.5067 21.9067C88.3447 22.0687 88.2157 22.2727 88.1197 22.5187C88.0297 22.7587 87.9847 23.0407 87.9847 23.3647V29.2057H86.0497V23.3647C86.0497 22.6927 85.9147 22.2007 85.6447 21.8887C85.3747 21.5707 84.9787 21.4117 84.4567 21.4117C84.0967 21.4117 83.7637 21.5047 83.4577 21.6907C83.1517 21.8707 82.8697 22.1197 82.6117 22.4377V29.2057H80.6767ZM101.279 23.5807C101.279 23.2567 101.231 22.9567 101.135 22.6807C101.045 22.3987 100.91 22.1557 100.73 21.9517C100.55 21.7417 100.325 21.5797 100.055 21.4657C99.7911 21.3457 99.4851 21.2857 99.1371 21.2857C98.4351 21.2857 97.8831 21.4867 97.4811 21.8887C97.0791 22.2907 96.8241 22.8547 96.7161 23.5807H101.279ZM96.6621 24.7687C96.6861 25.2907 96.7671 25.7437 96.9051 26.1277C97.0431 26.5057 97.2261 26.8207 97.4541 27.0727C97.6881 27.3247 97.9641 27.5137 98.2821 27.6397C98.6061 27.7597 98.9661 27.8197 99.3621 27.8197C99.7401 27.8197 100.067 27.7777 100.343 27.6937C100.619 27.6037 100.859 27.5077 101.063 27.4057C101.267 27.2977 101.441 27.2017 101.585 27.1177C101.729 27.0277 101.861 26.9827 101.981 26.9827C102.137 26.9827 102.257 27.0427 102.341 27.1627L102.89 27.8737C102.662 28.1437 102.404 28.3717 102.116 28.5577C101.828 28.7437 101.522 28.8967 101.198 29.0167C100.874 29.1307 100.541 29.2117 100.199 29.2597C99.8571 29.3137 99.5241 29.3407 99.2001 29.3407C98.5641 29.3407 97.9731 29.2357 97.4271 29.0257C96.8871 28.8097 96.4161 28.4947 96.0141 28.0807C95.6181 27.6667 95.3061 27.1537 95.0781 26.5417C94.8561 25.9297 94.7451 25.2247 94.7451 24.4267C94.7451 23.7907 94.8441 23.1967 95.0421 22.6447C95.2461 22.0927 95.5341 21.6127 95.9061 21.2047C96.2841 20.7967 96.7401 20.4757 97.2741 20.2417C97.8141 20.0017 98.4231 19.8817 99.1011 19.8817C99.6651 19.8817 100.187 19.9747 100.667 20.1607C101.147 20.3407 101.561 20.6077 101.909 20.9617C102.257 21.3157 102.527 21.7507 102.719 22.2667C102.917 22.7767 103.016 23.3587 103.016 24.0127C103.016 24.3127 102.983 24.5137 102.917 24.6157C102.851 24.7177 102.731 24.7687 102.557 24.7687H96.6621ZM106.27 21.2407C106.468 21.0367 106.672 20.8537 106.882 20.6917C107.098 20.5237 107.326 20.3797 107.566 20.2597C107.806 20.1397 108.061 20.0467 108.331 19.9807C108.601 19.9147 108.895 19.8817 109.213 19.8817C109.717 19.8817 110.158 19.9657 110.536 20.1337C110.92 20.3017 111.241 20.5387 111.499 20.8447C111.763 21.1507 111.961 21.5197 112.093 21.9517C112.225 22.3777 112.291 22.8487 112.291 23.3647V29.2057H110.365V23.3647C110.365 22.7467 110.221 22.2667 109.933 21.9247C109.651 21.5827 109.219 21.4117 108.637 21.4117C108.205 21.4117 107.803 21.5107 107.431 21.7087C107.065 21.9067 106.72 22.1767 106.396 22.5187V29.2057H104.461V20.0257H105.631C105.895 20.0257 106.063 20.1487 106.135 20.3947L106.27 21.2407ZM117.01 29.3497C116.248 29.3497 115.66 29.1367 115.246 28.7107C114.838 28.2787 114.634 27.6727 114.634 26.8927V21.5467H113.626C113.518 21.5467 113.425 21.5137 113.347 21.4477C113.269 21.3757 113.23 21.2707 113.23 21.1327V20.3497L114.715 20.1337L115.138 17.4787C115.168 17.3767 115.219 17.2957 115.291 17.2357C115.363 17.1697 115.459 17.1367 115.579 17.1367H116.569V20.1517H119.116V21.5467H116.569V26.7577C116.569 27.0877 116.65 27.3397 116.812 27.5137C116.974 27.6877 117.19 27.7747 117.46 27.7747C117.61 27.7747 117.739 27.7567 117.847 27.7207C117.955 27.6787 118.048 27.6367 118.126 27.5947C118.204 27.5467 118.27 27.5047 118.324 27.4687C118.384 27.4267 118.441 27.4057 118.495 27.4057C118.603 27.4057 118.69 27.4657 118.756 27.5857L119.332 28.5307C119.032 28.7947 118.678 28.9987 118.27 29.1427C117.862 29.2807 117.442 29.3497 117.01 29.3497ZM125.187 25.1917C124.497 25.2157 123.915 25.2727 123.441 25.3627C122.967 25.4467 122.583 25.5577 122.289 25.6957C121.995 25.8277 121.782 25.9867 121.65 26.1727C121.524 26.3587 121.461 26.5627 121.461 26.7847C121.461 27.0007 121.494 27.1867 121.56 27.3427C121.632 27.4927 121.728 27.6187 121.848 27.7207C121.974 27.8167 122.118 27.8887 122.28 27.9367C122.448 27.9787 122.631 27.9997 122.829 27.9997C123.333 27.9997 123.765 27.9067 124.125 27.7207C124.491 27.5287 124.845 27.2527 125.187 26.8927V25.1917ZM120.057 21.3037C121.095 20.3377 122.331 19.8547 123.765 19.8547C124.293 19.8547 124.761 19.9417 125.169 20.1157C125.583 20.2837 125.928 20.5237 126.204 20.8357C126.486 21.1477 126.699 21.5197 126.843 21.9517C126.993 22.3777 127.068 22.8517 127.068 23.3737V29.2057H126.204C126.018 29.2057 125.877 29.1787 125.781 29.1247C125.685 29.0647 125.604 28.9477 125.538 28.7737L125.349 28.0267C125.115 28.2367 124.884 28.4257 124.656 28.5937C124.428 28.7557 124.191 28.8937 123.945 29.0077C123.705 29.1217 123.444 29.2057 123.162 29.2597C122.886 29.3197 122.58 29.3497 122.244 29.3497C121.872 29.3497 121.524 29.2987 121.2 29.1967C120.882 29.0947 120.606 28.9417 120.372 28.7377C120.138 28.5277 119.952 28.2697 119.814 27.9637C119.682 27.6577 119.616 27.2977 119.616 26.8837C119.616 26.5297 119.709 26.1847 119.895 25.8487C120.087 25.5127 120.399 25.2127 120.831 24.9487C121.269 24.6787 121.842 24.4567 122.55 24.2827C123.264 24.1087 124.143 24.0097 125.187 23.9857V23.3737C125.187 22.7137 125.046 22.2217 124.764 21.8977C124.482 21.5737 124.068 21.4117 123.522 21.4117C123.15 21.4117 122.838 21.4597 122.586 21.5557C122.334 21.6457 122.115 21.7447 121.929 21.8527C121.743 21.9607 121.578 22.0627 121.434 22.1587C121.29 22.2487 121.137 22.2937 120.975 22.2937C120.843 22.2937 120.729 22.2607 120.633 22.1947C120.543 22.1227 120.468 22.0357 120.408 21.9337L120.057 21.3037ZM130.945 15.8857V29.2057H129.01V15.8857H130.945ZM52.6297 42.0257L48.9397 51.2057H47.1937L43.5037 42.0257H45.0967C45.2467 42.0257 45.3697 42.0647 45.4657 42.1427C45.5677 42.2147 45.6337 42.3017 45.6637 42.4037L47.6977 47.7497C47.7817 48.0017 47.8567 48.2507 47.9227 48.4967C47.9887 48.7427 48.0457 48.9917 48.0937 49.2437C48.1417 48.9917 48.1987 48.7457 48.2647 48.5057C48.3367 48.2597 48.4147 48.0077 48.4987 47.7497L50.5687 42.4037C50.6047 42.2957 50.6707 42.2057 50.7667 42.1337C50.8627 42.0617 50.9797 42.0257 51.1177 42.0257H52.6297ZM58.8796 43.6907C58.8316 43.7747 58.7776 43.8347 58.7176 43.8707C58.6576 43.9067 58.5826 43.9247 58.4926 43.9247C58.3906 43.9247 58.2796 43.8947 58.1596 43.8347C58.0396 43.7687 57.8986 43.6967 57.7366 43.6187C57.5746 43.5407 57.3826 43.4717 57.1606 43.4117C56.9446 43.3457 56.6896 43.3127 56.3956 43.3127C56.1556 43.3127 55.9366 43.3427 55.7386 43.4027C55.5466 43.4567 55.3816 43.5377 55.2436 43.6457C55.1116 43.7477 55.0096 43.8707 54.9376 44.0147C54.8656 44.1527 54.8296 44.3027 54.8296 44.4647C54.8296 44.6807 54.8956 44.8607 55.0276 45.0047C55.1596 45.1487 55.3336 45.2747 55.5496 45.3827C55.7656 45.4847 56.0116 45.5777 56.2876 45.6617C56.5636 45.7457 56.8456 45.8357 57.1336 45.9317C57.4216 46.0277 57.7036 46.1387 57.9796 46.2647C58.2556 46.3907 58.5016 46.5467 58.7176 46.7327C58.9336 46.9127 59.1076 47.1347 59.2396 47.3987C59.3716 47.6567 59.4376 47.9717 59.4376 48.3437C59.4376 48.7757 59.3596 49.1747 59.2036 49.5407C59.0476 49.9067 58.8196 50.2247 58.5196 50.4947C58.2196 50.7647 57.8446 50.9747 57.3946 51.1247C56.9506 51.2747 56.4406 51.3497 55.8646 51.3497C55.5466 51.3497 55.2376 51.3197 54.9376 51.2597C54.6436 51.2057 54.3616 51.1307 54.0916 51.0347C53.8276 50.9327 53.5786 50.8127 53.3446 50.6747C53.1166 50.5367 52.9126 50.3867 52.7326 50.2247L53.1826 49.4867C53.2366 49.3967 53.3026 49.3277 53.3806 49.2797C53.4646 49.2257 53.5666 49.1987 53.6866 49.1987C53.8126 49.1987 53.9356 49.2407 54.0556 49.3247C54.1816 49.4027 54.3256 49.4897 54.4876 49.5857C54.6556 49.6817 54.8566 49.7717 55.0906 49.8557C55.3246 49.9337 55.6156 49.9727 55.9636 49.9727C56.2516 49.9727 56.5006 49.9397 56.7106 49.8737C56.9206 49.8017 57.0946 49.7057 57.2326 49.5857C57.3706 49.4657 57.4726 49.3307 57.5386 49.1807C57.6046 49.0247 57.6376 48.8597 57.6376 48.6857C57.6376 48.4517 57.5716 48.2597 57.4396 48.1097C57.3076 47.9597 57.1306 47.8307 56.9086 47.7227C56.6926 47.6147 56.4436 47.5187 56.1616 47.4347C55.8856 47.3507 55.6036 47.2607 55.3156 47.1647C55.0276 47.0687 54.7426 46.9577 54.4606 46.8317C54.1846 46.7057 53.9356 46.5467 53.7136 46.3547C53.4976 46.1567 53.3236 45.9197 53.1916 45.6437C53.0596 45.3617 52.9936 45.0197 52.9936 44.6177C52.9936 44.2517 53.0656 43.9037 53.2096 43.5737C53.3596 43.2437 53.5756 42.9527 53.8576 42.7007C54.1456 42.4487 54.4966 42.2507 54.9106 42.1067C55.3306 41.9567 55.8136 41.8817 56.3596 41.8817C56.9776 41.8817 57.5386 41.9807 58.0426 42.1787C58.5466 42.3767 58.9696 42.6467 59.3116 42.9887L58.8796 43.6907ZM60.5991 50.0897C60.5991 49.9157 60.6291 49.7537 60.6891 49.6037C60.7551 49.4477 60.8421 49.3127 60.9501 49.1987C61.0641 49.0847 61.1961 48.9947 61.3461 48.9287C61.5021 48.8627 61.6671 48.8297 61.8411 48.8297C62.0151 48.8297 62.1771 48.8627 62.3271 48.9287C62.4831 48.9947 62.6181 49.0847 62.7321 49.1987C62.8461 49.3127 62.9361 49.4477 63.0021 49.6037C63.0681 49.7537 63.1011 49.9157 63.1011 50.0897C63.1011 50.2697 63.0681 50.4347 63.0021 50.5847C62.9361 50.7347 62.8461 50.8667 62.7321 50.9807C62.6181 51.0947 62.4831 51.1817 62.3271 51.2417C62.1771 51.3077 62.0151 51.3407 61.8411 51.3407C61.6671 51.3407 61.5021 51.3077 61.3461 51.2417C61.1961 51.1817 61.0641 51.0947 60.9501 50.9807C60.8421 50.8667 60.7551 50.7347 60.6891 50.5847C60.6291 50.4347 60.5991 50.2697 60.5991 50.0897ZM77.8224 51.2057H75.8874V43.5467H71.4144V48.7577C71.4144 49.0877 71.4954 49.3397 71.6574 49.5137C71.8194 49.6877 72.0354 49.7747 72.3054 49.7747C72.4554 49.7747 72.5844 49.7567 72.6924 49.7207C72.8004 49.6787 72.8934 49.6367 72.9714 49.5947C73.0494 49.5467 73.1154 49.5047 73.1694 49.4687C73.2294 49.4267 73.2864 49.4057 73.3404 49.4057C73.4484 49.4057 73.5354 49.4657 73.6014 49.5857L74.1774 50.5307C73.8774 50.7947 73.5234 50.9987 73.1154 51.1427C72.7074 51.2807 72.2874 51.3497 71.8554 51.3497C71.0934 51.3497 70.5054 51.1367 70.0914 50.7107C69.6834 50.2787 69.4794 49.6727 69.4794 48.8927V43.5467H68.4714C68.3634 43.5467 68.2704 43.5137 68.1924 43.4477C68.1144 43.3757 68.0754 43.2707 68.0754 43.1327V42.3497L69.5604 42.1337L69.9834 39.4787C70.0134 39.3767 70.0644 39.2957 70.1364 39.2357C70.2084 39.1697 70.3044 39.1367 70.4244 39.1367H71.4144V42.1517H77.8224V51.2057ZM78.2184 39.2087C78.2184 39.3827 78.1824 39.5477 78.1104 39.7037C78.0444 39.8537 77.9514 39.9887 77.8314 40.1087C77.7114 40.2227 77.5704 40.3157 77.4084 40.3877C77.2524 40.4537 77.0874 40.4867 76.9134 40.4867C76.7394 40.4867 76.5744 40.4537 76.4184 40.3877C76.2684 40.3157 76.1334 40.2227 76.0134 40.1087C75.8994 39.9887 75.8064 39.8537 75.7344 39.7037C75.6684 39.5477 75.6354 39.3827 75.6354 39.2087C75.6354 39.0287 75.6684 38.8607 75.7344 38.7047C75.8064 38.5427 75.8994 38.4047 76.0134 38.2907C76.1334 38.1707 76.2684 38.0777 76.4184 38.0117C76.5744 37.9397 76.7394 37.9037 76.9134 37.9037C77.0874 37.9037 77.2524 37.9397 77.4084 38.0117C77.5704 38.0777 77.7114 38.1707 77.8314 38.2907C77.9514 38.4047 78.0444 38.5427 78.1104 38.7047C78.1824 38.8607 78.2184 39.0287 78.2184 39.2087ZM85.9289 45.5807C85.9289 45.2567 85.8809 44.9567 85.7849 44.6807C85.6949 44.3987 85.5599 44.1557 85.3799 43.9517C85.1999 43.7417 84.9749 43.5797 84.7049 43.4657C84.4409 43.3457 84.1349 43.2857 83.7869 43.2857C83.0849 43.2857 82.5329 43.4867 82.1309 43.8887C81.7289 44.2907 81.4739 44.8547 81.3659 45.5807H85.9289ZM81.3119 46.7687C81.3359 47.2907 81.4169 47.7437 81.5549 48.1277C81.6929 48.5057 81.8759 48.8207 82.1039 49.0727C82.3379 49.3247 82.6139 49.5137 82.9319 49.6397C83.2559 49.7597 83.6159 49.8197 84.0119 49.8197C84.3899 49.8197 84.7169 49.7777 84.9929 49.6937C85.2689 49.6037 85.5089 49.5077 85.7129 49.4057C85.9169 49.2977 86.0909 49.2017 86.2349 49.1177C86.3789 49.0277 86.5109 48.9827 86.6309 48.9827C86.7869 48.9827 86.9069 49.0427 86.9909 49.1627L87.5399 49.8737C87.3119 50.1437 87.0539 50.3717 86.7659 50.5577C86.4779 50.7437 86.1719 50.8967 85.8479 51.0167C85.5239 51.1307 85.1909 51.2117 84.8489 51.2597C84.5069 51.3137 84.1739 51.3407 83.8499 51.3407C83.2139 51.3407 82.6229 51.2357 82.0769 51.0257C81.5369 50.8097 81.0659 50.4947 80.6639 50.0807C80.2679 49.6667 79.9559 49.1537 79.7279 48.5417C79.5059 47.9297 79.3949 47.2247 79.3949 46.4267C79.3949 45.7907 79.4939 45.1967 79.6919 44.6447C79.8959 44.0927 80.1839 43.6127 80.5559 43.2047C80.9339 42.7967 81.3899 42.4757 81.9239 42.2417C82.4639 42.0017 83.0729 41.8817 83.7509 41.8817C84.3149 41.8817 84.8369 41.9747 85.3169 42.1607C85.7969 42.3407 86.2109 42.6077 86.5589 42.9617C86.9069 43.3157 87.1769 43.7507 87.3689 44.2667C87.5669 44.7767 87.6659 45.3587 87.6659 46.0127C87.6659 46.3127 87.6329 46.5137 87.5669 46.6157C87.5009 46.7177 87.3809 46.7687 87.2069 46.7687H81.3119ZM89.1104 51.2057V42.0257H90.2804C90.5444 42.0257 90.7124 42.1487 90.7844 42.3947L90.9104 43.1957C91.0784 43.0037 91.2524 42.8297 91.4324 42.6737C91.6124 42.5117 91.8044 42.3737 92.0084 42.2597C92.2184 42.1397 92.4404 42.0467 92.6744 41.9807C92.9144 41.9147 93.1724 41.8817 93.4484 41.8817C93.7424 41.8817 94.0124 41.9237 94.2584 42.0077C94.5044 42.0917 94.7204 42.2117 94.9064 42.3677C95.0984 42.5237 95.2634 42.7127 95.4014 42.9347C95.5394 43.1567 95.6534 43.4057 95.7434 43.6817C95.8814 43.3637 96.0554 43.0907 96.2654 42.8627C96.4754 42.6347 96.7094 42.4487 96.9674 42.3047C97.2254 42.1607 97.4984 42.0557 97.7864 41.9897C98.0804 41.9177 98.3774 41.8817 98.6774 41.8817C99.1694 41.8817 99.6074 41.9597 99.9914 42.1157C100.381 42.2717 100.708 42.4997 100.972 42.7997C101.242 43.0937 101.446 43.4567 101.584 43.8887C101.722 44.3207 101.791 44.8127 101.791 45.3647V51.2057H99.8564V45.3647C99.8564 44.7167 99.7154 44.2307 99.4334 43.9067C99.1574 43.5767 98.7464 43.4117 98.2004 43.4117C97.9544 43.4117 97.7234 43.4537 97.5074 43.5377C97.2914 43.6217 97.1024 43.7447 96.9404 43.9067C96.7784 44.0687 96.6494 44.2727 96.5534 44.5187C96.4634 44.7587 96.4184 45.0407 96.4184 45.3647V51.2057H94.4834V45.3647C94.4834 44.6927 94.3484 44.2007 94.0784 43.8887C93.8084 43.5707 93.4124 43.4117 92.8904 43.4117C92.5304 43.4117 92.1974 43.5047 91.8914 43.6907C91.5854 43.8707 91.3034 44.1197 91.0454 44.4377V51.2057H89.1104ZM105.627 48.9017C105.897 49.2497 106.191 49.4957 106.509 49.6397C106.833 49.7777 107.19 49.8467 107.58 49.8467C108.336 49.8467 108.924 49.5707 109.344 49.0187C109.77 48.4667 109.983 47.6447 109.983 46.5527C109.983 45.9887 109.935 45.5087 109.839 45.1127C109.743 44.7107 109.605 44.3837 109.425 44.1317C109.245 43.8797 109.026 43.6967 108.768 43.5827C108.51 43.4687 108.219 43.4117 107.895 43.4117C107.403 43.4117 106.977 43.5197 106.617 43.7357C106.263 43.9457 105.933 44.2487 105.627 44.6447V48.9017ZM105.528 43.3577C105.912 42.9077 106.347 42.5447 106.833 42.2687C107.325 41.9927 107.895 41.8547 108.543 41.8547C109.059 41.8547 109.527 41.9597 109.947 42.1697C110.367 42.3737 110.727 42.6737 111.027 43.0697C111.327 43.4657 111.558 43.9577 111.72 44.5457C111.888 45.1277 111.972 45.7967 111.972 46.5527C111.972 47.2307 111.879 47.8637 111.693 48.4517C111.513 49.0337 111.252 49.5407 110.91 49.9727C110.568 50.3987 110.154 50.7347 109.668 50.9807C109.182 51.2207 108.633 51.3407 108.021 51.3407C107.481 51.3407 107.022 51.2537 106.644 51.0797C106.272 50.9057 105.933 50.6657 105.627 50.3597V54.2567H103.692V42.0257H104.862C105.126 42.0257 105.294 42.1487 105.366 42.3947L105.528 43.3577ZM117.461 41.8817C118.139 41.8817 118.751 41.9927 119.297 42.2147C119.849 42.4367 120.317 42.7517 120.701 43.1597C121.091 43.5677 121.391 44.0627 121.601 44.6447C121.811 45.2267 121.916 45.8807 121.916 46.6067C121.916 47.3327 121.811 47.9867 121.601 48.5687C121.391 49.1507 121.091 49.6487 120.701 50.0627C120.317 50.4707 119.849 50.7857 119.297 51.0077C118.751 51.2297 118.139 51.3407 117.461 51.3407C116.777 51.3407 116.159 51.2297 115.607 51.0077C115.061 50.7857 114.593 50.4707 114.203 50.0627C113.813 49.6487 113.513 49.1507 113.303 48.5687C113.093 47.9867 112.988 47.3327 112.988 46.6067C112.988 45.8807 113.093 45.2267 113.303 44.6447C113.513 44.0627 113.813 43.5677 114.203 43.1597C114.593 42.7517 115.061 42.4367 115.607 42.2147C116.159 41.9927 116.777 41.8817 117.461 41.8817ZM117.461 49.8287C118.289 49.8287 118.904 49.5527 119.306 49.0007C119.714 48.4427 119.918 47.6477 119.918 46.6157C119.918 45.5837 119.714 44.7887 119.306 44.2307C118.904 43.6667 118.289 43.3847 117.461 43.3847C116.621 43.3847 115.997 43.6667 115.589 44.2307C115.181 44.7887 114.977 45.5837 114.977 46.6157C114.977 47.6477 115.181 48.4427 115.589 49.0007C115.997 49.5527 116.621 49.8287 117.461 49.8287Z" fill="white"/>
</svg>
