<svg width="165" height="68" viewBox="0 0 165 68" fill="none" xmlns="http://www.w3.org/2000/svg">
<rect x="0.1875" width="164.812" height="67.9172" rx="15" fill="#F5A7E4"/>
<path d="M41.9973 37.6C42.1113 37.6 42.2103 37.645 42.2943 37.735L43.1313 38.644C42.6033 39.28 41.9553 39.772 41.1873 40.12C40.4193 40.462 39.5013 40.633 38.4333 40.633C37.4853 40.633 36.6273 40.471 35.8593 40.147C35.0973 39.817 34.4463 39.361 33.9063 38.779C33.3663 38.191 32.9493 37.492 32.6553 36.682C32.3673 35.872 32.2233 34.981 32.2233 34.009C32.2233 33.037 32.3763 32.146 32.6823 31.336C32.9943 30.52 33.4293 29.821 33.9873 29.239C34.5513 28.651 35.2233 28.195 36.0033 27.871C36.7893 27.547 37.6533 27.385 38.5953 27.385C39.5313 27.385 40.3563 27.538 41.0703 27.844C41.7903 28.144 42.4143 28.546 42.9423 29.05L42.2493 30.031C42.2013 30.097 42.1443 30.154 42.0783 30.202C42.0123 30.25 41.9223 30.274 41.8083 30.274C41.6883 30.274 41.5503 30.22 41.3943 30.112C41.2443 29.998 41.0493 29.875 40.8093 29.743C40.5753 29.605 40.2783 29.482 39.9183 29.374C39.5643 29.26 39.1203 29.203 38.5863 29.203C37.9683 29.203 37.4013 29.311 36.8853 29.527C36.3693 29.743 35.9253 30.058 35.5533 30.472C35.1813 30.886 34.8903 31.39 34.6803 31.984C34.4763 32.578 34.3743 33.253 34.3743 34.009C34.3743 34.771 34.4823 35.452 34.6983 36.052C34.9143 36.646 35.2113 37.15 35.5893 37.564C35.9673 37.972 36.4113 38.284 36.9213 38.5C37.4313 38.716 37.9803 38.824 38.5683 38.824C38.9283 38.824 39.2493 38.806 39.5313 38.77C39.8193 38.728 40.0833 38.665 40.3233 38.581C40.5633 38.491 40.7883 38.38 40.9983 38.248C41.2143 38.116 41.4273 37.954 41.6373 37.762C41.7573 37.654 41.8773 37.6 41.9973 37.6ZM48.0061 31.165C48.6841 31.165 49.2961 31.276 49.8421 31.498C50.3941 31.72 50.8621 32.035 51.2461 32.443C51.6361 32.851 51.9361 33.346 52.1461 33.928C52.3561 34.51 52.4611 35.164 52.4611 35.89C52.4611 36.616 52.3561 37.27 52.1461 37.852C51.9361 38.434 51.6361 38.932 51.2461 39.346C50.8621 39.754 50.3941 40.069 49.8421 40.291C49.2961 40.513 48.6841 40.624 48.0061 40.624C47.3221 40.624 46.7041 40.513 46.1521 40.291C45.6061 40.069 45.1381 39.754 44.7481 39.346C44.3581 38.932 44.0581 38.434 43.8481 37.852C43.6381 37.27 43.5331 36.616 43.5331 35.89C43.5331 35.164 43.6381 34.51 43.8481 33.928C44.0581 33.346 44.3581 32.851 44.7481 32.443C45.1381 32.035 45.6061 31.72 46.1521 31.498C46.7041 31.276 47.3221 31.165 48.0061 31.165ZM48.0061 39.112C48.8341 39.112 49.4491 38.836 49.8511 38.284C50.2591 37.726 50.4631 36.931 50.4631 35.899C50.4631 34.867 50.2591 34.072 49.8511 33.514C49.4491 32.95 48.8341 32.668 48.0061 32.668C47.1661 32.668 46.5421 32.95 46.1341 33.514C45.7261 34.072 45.5221 34.867 45.5221 35.899C45.5221 36.931 45.7261 37.726 46.1341 38.284C46.5421 38.836 47.1661 39.112 48.0061 39.112ZM55.7693 32.524C55.9673 32.32 56.1713 32.137 56.3813 31.975C56.5973 31.807 56.8253 31.663 57.0653 31.543C57.3053 31.423 57.5603 31.33 57.8303 31.264C58.1003 31.198 58.3943 31.165 58.7123 31.165C59.2163 31.165 59.6573 31.249 60.0353 31.417C60.4193 31.585 60.7403 31.822 60.9983 32.128C61.2623 32.434 61.4603 32.803 61.5923 33.235C61.7243 33.661 61.7903 34.132 61.7903 34.648V40.489H59.8643V34.648C59.8643 34.03 59.7203 33.55 59.4323 33.208C59.1503 32.866 58.7183 32.695 58.1363 32.695C57.7043 32.695 57.3023 32.794 56.9303 32.992C56.5643 33.19 56.2193 33.46 55.8953 33.802V40.489H53.9603V31.309H55.1303C55.3943 31.309 55.5623 31.432 55.6343 31.678L55.7693 32.524ZM70.1792 33.109C70.1192 33.187 70.0622 33.247 70.0082 33.289C69.9542 33.331 69.8762 33.352 69.7742 33.352C69.6722 33.352 69.5642 33.316 69.4502 33.244C69.3422 33.172 69.2102 33.094 69.0542 33.01C68.9042 32.92 68.7212 32.839 68.5052 32.767C68.2892 32.695 68.0192 32.659 67.6952 32.659C67.2752 32.659 66.9062 32.734 66.5882 32.884C66.2762 33.034 66.0122 33.25 65.7962 33.532C65.5862 33.808 65.4272 34.147 65.3192 34.549C65.2172 34.945 65.1662 35.392 65.1662 35.89C65.1662 36.406 65.2232 36.865 65.3372 37.267C65.4512 37.669 65.6132 38.008 65.8232 38.284C66.0392 38.56 66.2972 38.77 66.5972 38.914C66.9032 39.058 67.2452 39.13 67.6232 39.13C67.9952 39.13 68.2982 39.085 68.5322 38.995C68.7662 38.905 68.9612 38.806 69.1172 38.698C69.2732 38.59 69.4052 38.491 69.5132 38.401C69.6272 38.311 69.7472 38.266 69.8732 38.266C70.0292 38.266 70.1492 38.326 70.2332 38.446L70.7822 39.157C70.5602 39.427 70.3142 39.655 70.0442 39.841C69.7742 40.027 69.4892 40.18 69.1892 40.3C68.8892 40.414 68.5772 40.495 68.2532 40.543C67.9292 40.597 67.6022 40.624 67.2722 40.624C66.7022 40.624 66.1682 40.519 65.6702 40.309C65.1782 40.093 64.7462 39.784 64.3742 39.382C64.0082 38.974 63.7172 38.479 63.5012 37.897C63.2912 37.309 63.1862 36.64 63.1862 35.89C63.1862 35.212 63.2822 34.585 63.4742 34.009C63.6662 33.427 63.9452 32.926 64.3112 32.506C64.6832 32.086 65.1422 31.759 65.6882 31.525C66.2342 31.285 66.8642 31.165 67.5782 31.165C68.2442 31.165 68.8292 31.273 69.3332 31.489C69.8432 31.705 70.2962 32.011 70.6922 32.407L70.1792 33.109ZM73.9496 27.169V40.489H72.0146V27.169H73.9496ZM83.718 31.309V40.489H82.548C82.29 40.489 82.125 40.366 82.053 40.12L81.909 39.265C81.717 39.469 81.513 39.655 81.297 39.823C81.087 39.991 80.862 40.135 80.622 40.255C80.382 40.375 80.124 40.468 79.848 40.534C79.578 40.6 79.287 40.633 78.975 40.633C78.471 40.633 78.027 40.549 77.643 40.381C77.259 40.213 76.935 39.976 76.671 39.67C76.413 39.364 76.218 38.998 76.086 38.572C75.954 38.14 75.888 37.666 75.888 37.15V31.309H77.823V37.15C77.823 37.768 77.964 38.248 78.246 38.59C78.534 38.932 78.969 39.103 79.551 39.103C79.977 39.103 80.373 39.007 80.739 38.815C81.111 38.617 81.459 38.347 81.783 38.005V31.309H83.718ZM91.1888 32.974C91.1408 33.058 91.0868 33.118 91.0268 33.154C90.9668 33.19 90.8918 33.208 90.8018 33.208C90.6998 33.208 90.5888 33.178 90.4688 33.118C90.3488 33.052 90.2078 32.98 90.0458 32.902C89.8838 32.824 89.6918 32.755 89.4698 32.695C89.2538 32.629 88.9988 32.596 88.7048 32.596C88.4648 32.596 88.2458 32.626 88.0478 32.686C87.8558 32.74 87.6908 32.821 87.5528 32.929C87.4208 33.031 87.3188 33.154 87.2468 33.298C87.1748 33.436 87.1388 33.586 87.1388 33.748C87.1388 33.964 87.2048 34.144 87.3368 34.288C87.4688 34.432 87.6428 34.558 87.8588 34.666C88.0748 34.768 88.3208 34.861 88.5968 34.945C88.8728 35.029 89.1548 35.119 89.4428 35.215C89.7308 35.311 90.0128 35.422 90.2888 35.548C90.5648 35.674 90.8108 35.83 91.0268 36.016C91.2428 36.196 91.4168 36.418 91.5488 36.682C91.6808 36.94 91.7468 37.255 91.7468 37.627C91.7468 38.059 91.6688 38.458 91.5128 38.824C91.3568 39.19 91.1288 39.508 90.8288 39.778C90.5288 40.048 90.1538 40.258 89.7038 40.408C89.2598 40.558 88.7498 40.633 88.1738 40.633C87.8558 40.633 87.5468 40.603 87.2468 40.543C86.9528 40.489 86.6708 40.414 86.4008 40.318C86.1368 40.216 85.8878 40.096 85.6538 39.958C85.4258 39.82 85.2218 39.67 85.0418 39.508L85.4918 38.77C85.5458 38.68 85.6118 38.611 85.6898 38.563C85.7738 38.509 85.8758 38.482 85.9958 38.482C86.1218 38.482 86.2448 38.524 86.3648 38.608C86.4908 38.686 86.6348 38.773 86.7968 38.869C86.9648 38.965 87.1658 39.055 87.3998 39.139C87.6338 39.217 87.9248 39.256 88.2728 39.256C88.5608 39.256 88.8098 39.223 89.0198 39.157C89.2298 39.085 89.4038 38.989 89.5418 38.869C89.6798 38.749 89.7818 38.614 89.8478 38.464C89.9138 38.308 89.9468 38.143 89.9468 37.969C89.9468 37.735 89.8808 37.543 89.7488 37.393C89.6168 37.243 89.4398 37.114 89.2178 37.006C89.0018 36.898 88.7528 36.802 88.4708 36.718C88.1948 36.634 87.9128 36.544 87.6248 36.448C87.3368 36.352 87.0518 36.241 86.7698 36.115C86.4938 35.989 86.2448 35.83 86.0228 35.638C85.8068 35.44 85.6328 35.203 85.5008 34.927C85.3688 34.645 85.3028 34.303 85.3028 33.901C85.3028 33.535 85.3748 33.187 85.5188 32.857C85.6688 32.527 85.8848 32.236 86.1668 31.984C86.4548 31.732 86.8058 31.534 87.2198 31.39C87.6398 31.24 88.1228 31.165 88.6688 31.165C89.2868 31.165 89.8478 31.264 90.3518 31.462C90.8558 31.66 91.2788 31.93 91.6208 32.272L91.1888 32.974ZM95.2212 31.309V40.489H93.2862V31.309H95.2212ZM95.5452 28.537C95.5452 28.711 95.5092 28.876 95.4372 29.032C95.3712 29.188 95.2782 29.326 95.1582 29.446C95.0382 29.56 94.8972 29.653 94.7352 29.725C94.5792 29.791 94.4112 29.824 94.2312 29.824C94.0572 29.824 93.8922 29.791 93.7362 29.725C93.5862 29.653 93.4542 29.56 93.3402 29.446C93.2262 29.326 93.1332 29.188 93.0612 29.032C92.9952 28.876 92.9622 28.711 92.9622 28.537C92.9622 28.357 92.9952 28.189 93.0612 28.033C93.1332 27.877 93.2262 27.742 93.3402 27.628C93.4542 27.508 93.5862 27.415 93.7362 27.349C93.8922 27.277 94.0572 27.241 94.2312 27.241C94.4112 27.241 94.5792 27.277 94.7352 27.349C94.8972 27.415 95.0382 27.508 95.1582 27.628C95.2782 27.742 95.3712 27.877 95.4372 28.033C95.5092 28.189 95.5452 28.357 95.5452 28.537ZM101.262 31.165C101.94 31.165 102.552 31.276 103.098 31.498C103.65 31.72 104.118 32.035 104.502 32.443C104.892 32.851 105.192 33.346 105.402 33.928C105.612 34.51 105.717 35.164 105.717 35.89C105.717 36.616 105.612 37.27 105.402 37.852C105.192 38.434 104.892 38.932 104.502 39.346C104.118 39.754 103.65 40.069 103.098 40.291C102.552 40.513 101.94 40.624 101.262 40.624C100.578 40.624 99.9595 40.513 99.4075 40.291C98.8615 40.069 98.3935 39.754 98.0035 39.346C97.6135 38.932 97.3135 38.434 97.1035 37.852C96.8935 37.27 96.7885 36.616 96.7885 35.89C96.7885 35.164 96.8935 34.51 97.1035 33.928C97.3135 33.346 97.6135 32.851 98.0035 32.443C98.3935 32.035 98.8615 31.72 99.4075 31.498C99.9595 31.276 100.578 31.165 101.262 31.165ZM101.262 39.112C102.09 39.112 102.705 38.836 103.107 38.284C103.515 37.726 103.719 36.931 103.719 35.899C103.719 34.867 103.515 34.072 103.107 33.514C102.705 32.95 102.09 32.668 101.262 32.668C100.422 32.668 99.7975 32.95 99.3895 33.514C98.9815 34.072 98.7775 34.867 98.7775 35.899C98.7775 36.931 98.9815 37.726 99.3895 38.284C99.7975 38.836 100.422 39.112 101.262 39.112ZM109.025 32.524C109.223 32.32 109.427 32.137 109.637 31.975C109.853 31.807 110.081 31.663 110.321 31.543C110.561 31.423 110.816 31.33 111.086 31.264C111.356 31.198 111.65 31.165 111.968 31.165C112.472 31.165 112.913 31.249 113.291 31.417C113.675 31.585 113.996 31.822 114.254 32.128C114.518 32.434 114.716 32.803 114.848 33.235C114.98 33.661 115.046 34.132 115.046 34.648V40.489H113.12V34.648C113.12 34.03 112.976 33.55 112.688 33.208C112.406 32.866 111.974 32.695 111.392 32.695C110.96 32.695 110.558 32.794 110.186 32.992C109.82 33.19 109.475 33.46 109.151 33.802V40.489H107.216V31.309H108.386C108.65 31.309 108.818 31.432 108.89 31.678L109.025 32.524ZM122.967 34.864C122.967 34.54 122.919 34.24 122.823 33.964C122.733 33.682 122.598 33.439 122.418 33.235C122.238 33.025 122.013 32.863 121.743 32.749C121.479 32.629 121.173 32.569 120.825 32.569C120.123 32.569 119.571 32.77 119.169 33.172C118.767 33.574 118.512 34.138 118.404 34.864H122.967ZM118.35 36.052C118.374 36.574 118.455 37.027 118.593 37.411C118.731 37.789 118.914 38.104 119.142 38.356C119.376 38.608 119.652 38.797 119.97 38.923C120.294 39.043 120.654 39.103 121.05 39.103C121.428 39.103 121.755 39.061 122.031 38.977C122.307 38.887 122.547 38.791 122.751 38.689C122.955 38.581 123.129 38.485 123.273 38.401C123.417 38.311 123.549 38.266 123.669 38.266C123.825 38.266 123.945 38.326 124.029 38.446L124.578 39.157C124.35 39.427 124.092 39.655 123.804 39.841C123.516 40.027 123.21 40.18 122.886 40.3C122.562 40.414 122.229 40.495 121.887 40.543C121.545 40.597 121.212 40.624 120.888 40.624C120.252 40.624 119.661 40.519 119.115 40.309C118.575 40.093 118.104 39.778 117.702 39.364C117.306 38.95 116.994 38.437 116.766 37.825C116.544 37.213 116.433 36.508 116.433 35.71C116.433 35.074 116.532 34.48 116.73 33.928C116.934 33.376 117.222 32.896 117.594 32.488C117.972 32.08 118.428 31.759 118.962 31.525C119.502 31.285 120.111 31.165 120.789 31.165C121.353 31.165 121.875 31.258 122.355 31.444C122.835 31.624 123.249 31.891 123.597 32.245C123.945 32.599 124.215 33.034 124.407 33.55C124.605 34.06 124.704 34.642 124.704 35.296C124.704 35.596 124.671 35.797 124.605 35.899C124.539 36.001 124.419 36.052 124.245 36.052H118.35ZM131.629 32.974C131.581 33.058 131.527 33.118 131.467 33.154C131.407 33.19 131.332 33.208 131.242 33.208C131.14 33.208 131.029 33.178 130.909 33.118C130.789 33.052 130.648 32.98 130.486 32.902C130.324 32.824 130.132 32.755 129.91 32.695C129.694 32.629 129.439 32.596 129.145 32.596C128.905 32.596 128.686 32.626 128.488 32.686C128.296 32.74 128.131 32.821 127.993 32.929C127.861 33.031 127.759 33.154 127.687 33.298C127.615 33.436 127.579 33.586 127.579 33.748C127.579 33.964 127.645 34.144 127.777 34.288C127.909 34.432 128.083 34.558 128.299 34.666C128.515 34.768 128.761 34.861 129.037 34.945C129.313 35.029 129.595 35.119 129.883 35.215C130.171 35.311 130.453 35.422 130.729 35.548C131.005 35.674 131.251 35.83 131.467 36.016C131.683 36.196 131.857 36.418 131.989 36.682C132.121 36.94 132.187 37.255 132.187 37.627C132.187 38.059 132.109 38.458 131.953 38.824C131.797 39.19 131.569 39.508 131.269 39.778C130.969 40.048 130.594 40.258 130.144 40.408C129.7 40.558 129.19 40.633 128.614 40.633C128.296 40.633 127.987 40.603 127.687 40.543C127.393 40.489 127.111 40.414 126.841 40.318C126.577 40.216 126.328 40.096 126.094 39.958C125.866 39.82 125.662 39.67 125.482 39.508L125.932 38.77C125.986 38.68 126.052 38.611 126.13 38.563C126.214 38.509 126.316 38.482 126.436 38.482C126.562 38.482 126.685 38.524 126.805 38.608C126.931 38.686 127.075 38.773 127.237 38.869C127.405 38.965 127.606 39.055 127.84 39.139C128.074 39.217 128.365 39.256 128.713 39.256C129.001 39.256 129.25 39.223 129.46 39.157C129.67 39.085 129.844 38.989 129.982 38.869C130.12 38.749 130.222 38.614 130.288 38.464C130.354 38.308 130.387 38.143 130.387 37.969C130.387 37.735 130.321 37.543 130.189 37.393C130.057 37.243 129.88 37.114 129.658 37.006C129.442 36.898 129.193 36.802 128.911 36.718C128.635 36.634 128.353 36.544 128.065 36.448C127.777 36.352 127.492 36.241 127.21 36.115C126.934 35.989 126.685 35.83 126.463 35.638C126.247 35.44 126.073 35.203 125.941 34.927C125.809 34.645 125.743 34.303 125.743 33.901C125.743 33.535 125.815 33.187 125.959 32.857C126.109 32.527 126.325 32.236 126.607 31.984C126.895 31.732 127.246 31.534 127.66 31.39C128.08 31.24 128.563 31.165 129.109 31.165C129.727 31.165 130.288 31.264 130.792 31.462C131.296 31.66 131.719 31.93 132.061 32.272L131.629 32.974Z" fill="white"/>
</svg>
