<svg width="165" height="68" viewBox="0 0 165 68" fill="none" xmlns="http://www.w3.org/2000/svg">
<rect width="164.812" height="67.9172" rx="15" fill="#F5A7E4"/>
<path d="M20.5645 28.299C21.0625 28.299 21.5065 28.215 21.8965 28.047C22.2925 27.879 22.6255 27.645 22.8955 27.345C23.1715 27.045 23.3815 26.685 23.5255 26.265C23.6695 25.839 23.7415 25.368 23.7415 24.852V17.04H25.8385V24.852C25.8385 25.614 25.7155 26.319 25.4695 26.967C25.2295 27.615 24.8815 28.176 24.4255 28.65C23.9695 29.118 23.4145 29.487 22.7605 29.757C22.1125 30.021 21.3805 30.153 20.5645 30.153C19.7485 30.153 19.0135 30.021 18.3595 29.757C17.7115 29.487 17.1595 29.118 16.7035 28.65C16.2475 28.176 15.8965 27.615 15.6505 26.967C15.4105 26.319 15.2905 25.614 15.2905 24.852V17.04H17.3965V24.843C17.3965 25.359 17.4685 25.83 17.6125 26.256C17.7565 26.676 17.9635 27.039 18.2335 27.345C18.5035 27.645 18.8335 27.879 19.2235 28.047C19.6195 28.215 20.0665 28.299 20.5645 28.299ZM33.1159 22.485C33.0679 22.569 33.0139 22.629 32.9539 22.665C32.8939 22.701 32.8189 22.719 32.7289 22.719C32.6269 22.719 32.5159 22.689 32.3959 22.629C32.2759 22.563 32.1349 22.491 31.9729 22.413C31.8109 22.335 31.6189 22.266 31.3969 22.206C31.1809 22.14 30.9259 22.107 30.6319 22.107C30.3919 22.107 30.1729 22.137 29.9749 22.197C29.7829 22.251 29.6179 22.332 29.4799 22.44C29.3479 22.542 29.2459 22.665 29.1739 22.809C29.1019 22.947 29.0659 23.097 29.0659 23.259C29.0659 23.475 29.1319 23.655 29.2639 23.799C29.3959 23.943 29.5699 24.069 29.7859 24.177C30.0019 24.279 30.2479 24.372 30.5239 24.456C30.7999 24.54 31.0819 24.63 31.3699 24.726C31.6579 24.822 31.9399 24.933 32.2159 25.059C32.4919 25.185 32.7379 25.341 32.9539 25.527C33.1699 25.707 33.3439 25.929 33.4759 26.193C33.6079 26.451 33.6739 26.766 33.6739 27.138C33.6739 27.57 33.5959 27.969 33.4399 28.335C33.2839 28.701 33.0559 29.019 32.7559 29.289C32.4559 29.559 32.0809 29.769 31.6309 29.919C31.1869 30.069 30.6769 30.144 30.1009 30.144C29.7829 30.144 29.4739 30.114 29.1739 30.054C28.8799 30 28.5979 29.925 28.3279 29.829C28.0639 29.727 27.8149 29.607 27.5809 29.469C27.3529 29.331 27.1489 29.181 26.9689 29.019L27.4189 28.281C27.4729 28.191 27.5389 28.122 27.6169 28.074C27.7009 28.02 27.8029 27.993 27.9229 27.993C28.0489 27.993 28.1719 28.035 28.2919 28.119C28.4179 28.197 28.5619 28.284 28.7239 28.38C28.8919 28.476 29.0929 28.566 29.3269 28.65C29.5609 28.728 29.8519 28.767 30.1999 28.767C30.4879 28.767 30.7369 28.734 30.9469 28.668C31.1569 28.596 31.3309 28.5 31.4689 28.38C31.6069 28.26 31.7089 28.125 31.7749 27.975C31.8409 27.819 31.8739 27.654 31.8739 27.48C31.8739 27.246 31.8079 27.054 31.6759 26.904C31.5439 26.754 31.3669 26.625 31.1449 26.517C30.9289 26.409 30.6799 26.313 30.3979 26.229C30.1219 26.145 29.8399 26.055 29.5519 25.959C29.2639 25.863 28.9789 25.752 28.6969 25.626C28.4209 25.5 28.1719 25.341 27.9499 25.149C27.7339 24.951 27.5599 24.714 27.4279 24.438C27.2959 24.156 27.2299 23.814 27.2299 23.412C27.2299 23.046 27.3019 22.698 27.4459 22.368C27.5959 22.038 27.8119 21.747 28.0939 21.495C28.3819 21.243 28.7329 21.045 29.1469 20.901C29.5669 20.751 30.0499 20.676 30.5959 20.676C31.2139 20.676 31.7749 20.775 32.2789 20.973C32.7829 21.171 33.2059 21.441 33.5479 21.783L33.1159 22.485ZM42.8723 20.82V30H41.7023C41.4443 30 41.2793 29.877 41.2073 29.631L41.0633 28.776C40.8713 28.98 40.6673 29.166 40.4513 29.334C40.2413 29.502 40.0163 29.646 39.7763 29.766C39.5363 29.886 39.2783 29.979 39.0023 30.045C38.7323 30.111 38.4413 30.144 38.1293 30.144C37.6253 30.144 37.1813 30.06 36.7973 29.892C36.4133 29.724 36.0893 29.487 35.8253 29.181C35.5673 28.875 35.3723 28.509 35.2403 28.083C35.1083 27.651 35.0423 27.177 35.0423 26.661V20.82H36.9773V26.661C36.9773 27.279 37.1183 27.759 37.4003 28.101C37.6883 28.443 38.1233 28.614 38.7053 28.614C39.1313 28.614 39.5273 28.518 39.8933 28.326C40.2653 28.128 40.6133 27.858 40.9373 27.516V20.82H42.8723ZM49.7671 25.986C49.0771 26.01 48.4951 26.067 48.0211 26.157C47.5471 26.241 47.1631 26.352 46.8691 26.49C46.5751 26.622 46.3621 26.781 46.2301 26.967C46.1041 27.153 46.0411 27.357 46.0411 27.579C46.0411 27.795 46.0741 27.981 46.1401 28.137C46.2121 28.287 46.3081 28.413 46.4281 28.515C46.5541 28.611 46.6981 28.683 46.8601 28.731C47.0281 28.773 47.2111 28.794 47.4091 28.794C47.9131 28.794 48.3451 28.701 48.7051 28.515C49.0711 28.323 49.4251 28.047 49.7671 27.687V25.986ZM44.6371 22.098C45.6751 21.132 46.9111 20.649 48.3451 20.649C48.8731 20.649 49.3411 20.736 49.7491 20.91C50.1631 21.078 50.5081 21.318 50.7841 21.63C51.0661 21.942 51.2791 22.314 51.4231 22.746C51.5731 23.172 51.6481 23.646 51.6481 24.168V30H50.7841C50.5981 30 50.4571 29.973 50.3611 29.919C50.2651 29.859 50.1841 29.742 50.1181 29.568L49.9291 28.821C49.6951 29.031 49.4641 29.22 49.2361 29.388C49.0081 29.55 48.7711 29.688 48.5251 29.802C48.2851 29.916 48.0241 30 47.7421 30.054C47.4661 30.114 47.1601 30.144 46.8241 30.144C46.4521 30.144 46.1041 30.093 45.7801 29.991C45.4621 29.889 45.1861 29.736 44.9521 29.532C44.7181 29.322 44.5321 29.064 44.3941 28.758C44.2621 28.452 44.1961 28.092 44.1961 27.678C44.1961 27.324 44.2891 26.979 44.4751 26.643C44.6671 26.307 44.9791 26.007 45.4111 25.743C45.8491 25.473 46.4221 25.251 47.1301 25.077C47.8441 24.903 48.7231 24.804 49.7671 24.78V24.168C49.7671 23.508 49.6261 23.016 49.3441 22.692C49.0621 22.368 48.6481 22.206 48.1021 22.206C47.7301 22.206 47.4181 22.254 47.1661 22.35C46.9141 22.44 46.6951 22.539 46.5091 22.647C46.3231 22.755 46.1581 22.857 46.0141 22.953C45.8701 23.043 45.7171 23.088 45.5551 23.088C45.4231 23.088 45.3091 23.055 45.2131 22.989C45.1231 22.917 45.0481 22.83 44.9881 22.728L44.6371 22.098ZM55.3819 22.521C55.6699 21.939 56.0179 21.483 56.4259 21.153C56.8339 20.817 57.3229 20.649 57.8929 20.649C58.0909 20.649 58.2769 20.673 58.4509 20.721C58.6249 20.763 58.7809 20.829 58.9189 20.919L58.7839 22.377C58.7599 22.479 58.7209 22.551 58.6669 22.593C58.6189 22.629 58.5529 22.647 58.4689 22.647C58.3789 22.647 58.2499 22.632 58.0819 22.602C57.9139 22.566 57.7369 22.548 57.5509 22.548C57.2809 22.548 57.0409 22.587 56.8309 22.665C56.6269 22.743 56.4409 22.857 56.2729 23.007C56.1109 23.157 55.9669 23.34 55.8409 23.556C55.7149 23.772 55.5979 24.018 55.4899 24.294V30H53.5549V20.82H54.6799C54.8839 20.82 55.0249 20.859 55.1029 20.937C55.1809 21.009 55.2349 21.138 55.2649 21.324L55.3819 22.521ZM61.8554 20.82V30H59.9204V20.82H61.8554ZM62.1794 18.048C62.1794 18.222 62.1434 18.387 62.0714 18.543C62.0054 18.699 61.9124 18.837 61.7924 18.957C61.6724 19.071 61.5314 19.164 61.3694 19.236C61.2134 19.302 61.0454 19.335 60.8654 19.335C60.6914 19.335 60.5264 19.302 60.3704 19.236C60.2204 19.164 60.0884 19.071 59.9744 18.957C59.8604 18.837 59.7674 18.699 59.6954 18.543C59.6294 18.387 59.5964 18.222 59.5964 18.048C59.5964 17.868 59.6294 17.7 59.6954 17.544C59.7674 17.388 59.8604 17.253 59.9744 17.139C60.0884 17.019 60.2204 16.926 60.3704 16.86C60.5264 16.788 60.6914 16.752 60.8654 16.752C61.0454 16.752 61.2134 16.788 61.3694 16.86C61.5314 16.926 61.6724 17.019 61.7924 17.139C61.9124 17.253 62.0054 17.388 62.0714 17.544C62.1434 17.7 62.1794 17.868 62.1794 18.048ZM67.8957 20.676C68.5737 20.676 69.1857 20.787 69.7317 21.009C70.2837 21.231 70.7517 21.546 71.1357 21.954C71.5257 22.362 71.8257 22.857 72.0357 23.439C72.2457 24.021 72.3507 24.675 72.3507 25.401C72.3507 26.127 72.2457 26.781 72.0357 27.363C71.8257 27.945 71.5257 28.443 71.1357 28.857C70.7517 29.265 70.2837 29.58 69.7317 29.802C69.1857 30.024 68.5737 30.135 67.8957 30.135C67.2117 30.135 66.5937 30.024 66.0417 29.802C65.4957 29.58 65.0277 29.265 64.6377 28.857C64.2477 28.443 63.9477 27.945 63.7377 27.363C63.5277 26.781 63.4227 26.127 63.4227 25.401C63.4227 24.675 63.5277 24.021 63.7377 23.439C63.9477 22.857 64.2477 22.362 64.6377 21.954C65.0277 21.546 65.4957 21.231 66.0417 21.009C66.5937 20.787 67.2117 20.676 67.8957 20.676ZM67.8957 28.623C68.7237 28.623 69.3387 28.347 69.7407 27.795C70.1487 27.237 70.3527 26.442 70.3527 25.41C70.3527 24.378 70.1487 23.583 69.7407 23.025C69.3387 22.461 68.7237 22.179 67.8957 22.179C67.0557 22.179 66.4317 22.461 66.0237 23.025C65.6157 23.583 65.4117 24.378 65.4117 25.41C65.4117 26.442 65.6157 27.237 66.0237 27.795C66.4317 28.347 67.0557 28.623 67.8957 28.623ZM79.3309 22.485C79.2829 22.569 79.2289 22.629 79.1689 22.665C79.1089 22.701 79.0339 22.719 78.9439 22.719C78.8419 22.719 78.7309 22.689 78.6109 22.629C78.4909 22.563 78.3499 22.491 78.1879 22.413C78.0259 22.335 77.8339 22.266 77.6119 22.206C77.3959 22.14 77.1409 22.107 76.8469 22.107C76.6069 22.107 76.3879 22.137 76.1899 22.197C75.9979 22.251 75.8329 22.332 75.6949 22.44C75.5629 22.542 75.4609 22.665 75.3889 22.809C75.3169 22.947 75.2809 23.097 75.2809 23.259C75.2809 23.475 75.3469 23.655 75.4789 23.799C75.6109 23.943 75.7849 24.069 76.0009 24.177C76.2169 24.279 76.4629 24.372 76.7389 24.456C77.0149 24.54 77.2969 24.63 77.5849 24.726C77.8729 24.822 78.1549 24.933 78.4309 25.059C78.7069 25.185 78.9529 25.341 79.1689 25.527C79.3849 25.707 79.5589 25.929 79.6909 26.193C79.8229 26.451 79.8889 26.766 79.8889 27.138C79.8889 27.57 79.8109 27.969 79.6549 28.335C79.4989 28.701 79.2709 29.019 78.9709 29.289C78.6709 29.559 78.2959 29.769 77.8459 29.919C77.4019 30.069 76.8919 30.144 76.3159 30.144C75.9979 30.144 75.6889 30.114 75.3889 30.054C75.0949 30 74.8129 29.925 74.5429 29.829C74.2789 29.727 74.0299 29.607 73.7959 29.469C73.5679 29.331 73.3639 29.181 73.1839 29.019L73.6339 28.281C73.6879 28.191 73.7539 28.122 73.8319 28.074C73.9159 28.02 74.0179 27.993 74.1379 27.993C74.2639 27.993 74.3869 28.035 74.5069 28.119C74.6329 28.197 74.7769 28.284 74.9389 28.38C75.1069 28.476 75.3079 28.566 75.5419 28.65C75.7759 28.728 76.0669 28.767 76.4149 28.767C76.7029 28.767 76.9519 28.734 77.1619 28.668C77.3719 28.596 77.5459 28.5 77.6839 28.38C77.8219 28.26 77.9239 28.125 77.9899 27.975C78.0559 27.819 78.0889 27.654 78.0889 27.48C78.0889 27.246 78.0229 27.054 77.8909 26.904C77.7589 26.754 77.5819 26.625 77.3599 26.517C77.1439 26.409 76.8949 26.313 76.6129 26.229C76.3369 26.145 76.0549 26.055 75.7669 25.959C75.4789 25.863 75.1939 25.752 74.9119 25.626C74.6359 25.5 74.3869 25.341 74.1649 25.149C73.9489 24.951 73.7749 24.714 73.6429 24.438C73.5109 24.156 73.4449 23.814 73.4449 23.412C73.4449 23.046 73.5169 22.698 73.6609 22.368C73.8109 22.038 74.0269 21.747 74.3089 21.495C74.5969 21.243 74.9479 21.045 75.3619 20.901C75.7819 20.751 76.2649 20.676 76.8109 20.676C77.4289 20.676 77.9899 20.775 78.4939 20.973C78.9979 21.171 79.4209 21.441 79.7629 21.783L79.3309 22.485ZM91.3287 23.079C91.0587 22.731 90.7617 22.488 90.4377 22.35C90.1137 22.212 89.7627 22.143 89.3847 22.143C88.6287 22.143 88.0377 22.422 87.6117 22.98C87.1857 23.532 86.9727 24.351 86.9727 25.437C86.9727 26.001 87.0207 26.484 87.1167 26.886C87.2127 27.282 87.3507 27.606 87.5307 27.858C87.7107 28.11 87.9297 28.293 88.1877 28.407C88.4457 28.521 88.7367 28.578 89.0607 28.578C89.5527 28.578 89.9757 28.473 90.3297 28.263C90.6897 28.047 91.0227 27.744 91.3287 27.354V23.079ZM93.2637 16.68V30H92.0937C91.8357 30 91.6707 29.877 91.5987 29.631L91.4277 28.632C91.0437 29.082 90.6057 29.445 90.1137 29.721C89.6277 29.997 89.0607 30.135 88.4127 30.135C87.8967 30.135 87.4287 30.033 87.0087 29.829C86.5887 29.619 86.2287 29.316 85.9287 28.92C85.6287 28.524 85.3947 28.035 85.2267 27.453C85.0647 26.865 84.9837 26.193 84.9837 25.437C84.9837 24.753 85.0737 24.12 85.2537 23.538C85.4397 22.956 85.7037 22.452 86.0457 22.026C86.3877 21.594 86.8017 21.258 87.2877 21.018C87.7797 20.772 88.3287 20.649 88.9347 20.649C89.4747 20.649 89.9337 20.736 90.3117 20.91C90.6897 21.078 91.0287 21.315 91.3287 21.621V16.68H93.2637ZM101.291 24.375C101.291 24.051 101.243 23.751 101.147 23.475C101.057 23.193 100.922 22.95 100.742 22.746C100.562 22.536 100.337 22.374 100.067 22.26C99.8029 22.14 99.4969 22.08 99.1489 22.08C98.4469 22.08 97.8949 22.281 97.4929 22.683C97.0909 23.085 96.8359 23.649 96.7279 24.375H101.291ZM96.6739 25.563C96.6979 26.085 96.7789 26.538 96.9169 26.922C97.0549 27.3 97.2379 27.615 97.4659 27.867C97.6999 28.119 97.9759 28.308 98.2939 28.434C98.6179 28.554 98.9779 28.614 99.3739 28.614C99.7519 28.614 100.079 28.572 100.355 28.488C100.631 28.398 100.871 28.302 101.075 28.2C101.279 28.092 101.453 27.996 101.597 27.912C101.741 27.822 101.873 27.777 101.993 27.777C102.149 27.777 102.269 27.837 102.353 27.957L102.902 28.668C102.674 28.938 102.416 29.166 102.128 29.352C101.84 29.538 101.534 29.691 101.21 29.811C100.886 29.925 100.553 30.006 100.211 30.054C99.8689 30.108 99.5359 30.135 99.2119 30.135C98.5759 30.135 97.9849 30.03 97.4389 29.82C96.8989 29.604 96.4279 29.289 96.0259 28.875C95.6299 28.461 95.3179 27.948 95.0899 27.336C94.8679 26.724 94.7569 26.019 94.7569 25.221C94.7569 24.585 94.8559 23.991 95.0539 23.439C95.2579 22.887 95.5459 22.407 95.9179 21.999C96.2959 21.591 96.7519 21.27 97.2859 21.036C97.8259 20.796 98.4349 20.676 99.1129 20.676C99.6769 20.676 100.199 20.769 100.679 20.955C101.159 21.135 101.573 21.402 101.921 21.756C102.269 22.11 102.539 22.545 102.731 23.061C102.929 23.571 103.028 24.153 103.028 24.807C103.028 25.107 102.995 25.308 102.929 25.41C102.863 25.512 102.743 25.563 102.569 25.563H96.6739ZM110.422 22.521C110.71 21.939 111.058 21.483 111.466 21.153C111.874 20.817 112.363 20.649 112.933 20.649C113.131 20.649 113.317 20.673 113.491 20.721C113.665 20.763 113.821 20.829 113.959 20.919L113.824 22.377C113.8 22.479 113.761 22.551 113.707 22.593C113.659 22.629 113.593 22.647 113.509 22.647C113.419 22.647 113.29 22.632 113.122 22.602C112.954 22.566 112.777 22.548 112.591 22.548C112.321 22.548 112.081 22.587 111.871 22.665C111.667 22.743 111.481 22.857 111.313 23.007C111.151 23.157 111.007 23.34 110.881 23.556C110.755 23.772 110.638 24.018 110.53 24.294V30H108.595V20.82H109.72C109.924 20.82 110.065 20.859 110.143 20.937C110.221 21.009 110.275 21.138 110.305 21.324L110.422 22.521ZM120.584 24.375C120.584 24.051 120.536 23.751 120.44 23.475C120.35 23.193 120.215 22.95 120.035 22.746C119.855 22.536 119.63 22.374 119.36 22.26C119.096 22.14 118.79 22.08 118.442 22.08C117.74 22.08 117.188 22.281 116.786 22.683C116.384 23.085 116.129 23.649 116.021 24.375H120.584ZM115.967 25.563C115.991 26.085 116.072 26.538 116.21 26.922C116.348 27.3 116.531 27.615 116.759 27.867C116.993 28.119 117.269 28.308 117.587 28.434C117.911 28.554 118.271 28.614 118.667 28.614C119.045 28.614 119.372 28.572 119.648 28.488C119.924 28.398 120.164 28.302 120.368 28.2C120.572 28.092 120.746 27.996 120.89 27.912C121.034 27.822 121.166 27.777 121.286 27.777C121.442 27.777 121.562 27.837 121.646 27.957L122.195 28.668C121.967 28.938 121.709 29.166 121.421 29.352C121.133 29.538 120.827 29.691 120.503 29.811C120.179 29.925 119.846 30.006 119.504 30.054C119.162 30.108 118.829 30.135 118.505 30.135C117.869 30.135 117.278 30.03 116.732 29.82C116.192 29.604 115.721 29.289 115.319 28.875C114.923 28.461 114.611 27.948 114.383 27.336C114.161 26.724 114.05 26.019 114.05 25.221C114.05 24.585 114.149 23.991 114.347 23.439C114.551 22.887 114.839 22.407 115.211 21.999C115.589 21.591 116.045 21.27 116.579 21.036C117.119 20.796 117.728 20.676 118.406 20.676C118.97 20.676 119.492 20.769 119.972 20.955C120.452 21.135 120.866 21.402 121.214 21.756C121.562 22.11 121.832 22.545 122.024 23.061C122.222 23.571 122.321 24.153 122.321 24.807C122.321 25.107 122.288 25.308 122.222 25.41C122.156 25.512 122.036 25.563 121.862 25.563H115.967ZM129.624 23.079C129.354 22.731 129.057 22.488 128.733 22.35C128.409 22.212 128.058 22.143 127.68 22.143C126.924 22.143 126.333 22.422 125.907 22.98C125.481 23.532 125.268 24.351 125.268 25.437C125.268 26.001 125.316 26.484 125.412 26.886C125.508 27.282 125.646 27.606 125.826 27.858C126.006 28.11 126.225 28.293 126.483 28.407C126.741 28.521 127.032 28.578 127.356 28.578C127.848 28.578 128.271 28.473 128.625 28.263C128.985 28.047 129.318 27.744 129.624 27.354V23.079ZM131.559 16.68V30H130.389C130.131 30 129.966 29.877 129.894 29.631L129.723 28.632C129.339 29.082 128.901 29.445 128.409 29.721C127.923 29.997 127.356 30.135 126.708 30.135C126.192 30.135 125.724 30.033 125.304 29.829C124.884 29.619 124.524 29.316 124.224 28.92C123.924 28.524 123.69 28.035 123.522 27.453C123.36 26.865 123.279 26.193 123.279 25.437C123.279 24.753 123.369 24.12 123.549 23.538C123.735 22.956 123.999 22.452 124.341 22.026C124.683 21.594 125.097 21.258 125.583 21.018C126.075 20.772 126.624 20.649 127.23 20.649C127.77 20.649 128.229 20.736 128.607 20.91C128.985 21.078 129.324 21.315 129.624 21.621V16.68H131.559ZM139.587 24.375C139.587 24.051 139.539 23.751 139.443 23.475C139.353 23.193 139.218 22.95 139.038 22.746C138.858 22.536 138.633 22.374 138.363 22.26C138.099 22.14 137.793 22.08 137.445 22.08C136.743 22.08 136.191 22.281 135.789 22.683C135.387 23.085 135.132 23.649 135.024 24.375H139.587ZM134.97 25.563C134.994 26.085 135.075 26.538 135.213 26.922C135.351 27.3 135.534 27.615 135.762 27.867C135.996 28.119 136.272 28.308 136.59 28.434C136.914 28.554 137.274 28.614 137.67 28.614C138.048 28.614 138.375 28.572 138.651 28.488C138.927 28.398 139.167 28.302 139.371 28.2C139.575 28.092 139.749 27.996 139.893 27.912C140.037 27.822 140.169 27.777 140.289 27.777C140.445 27.777 140.565 27.837 140.649 27.957L141.198 28.668C140.97 28.938 140.712 29.166 140.424 29.352C140.136 29.538 139.83 29.691 139.506 29.811C139.182 29.925 138.849 30.006 138.507 30.054C138.165 30.108 137.832 30.135 137.508 30.135C136.872 30.135 136.281 30.03 135.735 29.82C135.195 29.604 134.724 29.289 134.322 28.875C133.926 28.461 133.614 27.948 133.386 27.336C133.164 26.724 133.053 26.019 133.053 25.221C133.053 24.585 133.152 23.991 133.35 23.439C133.554 22.887 133.842 22.407 134.214 21.999C134.592 21.591 135.048 21.27 135.582 21.036C136.122 20.796 136.731 20.676 137.409 20.676C137.973 20.676 138.495 20.769 138.975 20.955C139.455 21.135 139.869 21.402 140.217 21.756C140.565 22.11 140.835 22.545 141.027 23.061C141.225 23.571 141.324 24.153 141.324 24.807C141.324 25.107 141.291 25.308 141.225 25.41C141.159 25.512 141.039 25.563 140.865 25.563H134.97ZM148.249 22.485C148.201 22.569 148.147 22.629 148.087 22.665C148.027 22.701 147.952 22.719 147.862 22.719C147.76 22.719 147.649 22.689 147.529 22.629C147.409 22.563 147.268 22.491 147.106 22.413C146.944 22.335 146.752 22.266 146.53 22.206C146.314 22.14 146.059 22.107 145.765 22.107C145.525 22.107 145.306 22.137 145.108 22.197C144.916 22.251 144.751 22.332 144.613 22.44C144.481 22.542 144.379 22.665 144.307 22.809C144.235 22.947 144.199 23.097 144.199 23.259C144.199 23.475 144.265 23.655 144.397 23.799C144.529 23.943 144.703 24.069 144.919 24.177C145.135 24.279 145.381 24.372 145.657 24.456C145.933 24.54 146.215 24.63 146.503 24.726C146.791 24.822 147.073 24.933 147.349 25.059C147.625 25.185 147.871 25.341 148.087 25.527C148.303 25.707 148.477 25.929 148.609 26.193C148.741 26.451 148.807 26.766 148.807 27.138C148.807 27.57 148.729 27.969 148.573 28.335C148.417 28.701 148.189 29.019 147.889 29.289C147.589 29.559 147.214 29.769 146.764 29.919C146.32 30.069 145.81 30.144 145.234 30.144C144.916 30.144 144.607 30.114 144.307 30.054C144.013 30 143.731 29.925 143.461 29.829C143.197 29.727 142.948 29.607 142.714 29.469C142.486 29.331 142.282 29.181 142.102 29.019L142.552 28.281C142.606 28.191 142.672 28.122 142.75 28.074C142.834 28.02 142.936 27.993 143.056 27.993C143.182 27.993 143.305 28.035 143.425 28.119C143.551 28.197 143.695 28.284 143.857 28.38C144.025 28.476 144.226 28.566 144.46 28.65C144.694 28.728 144.985 28.767 145.333 28.767C145.621 28.767 145.87 28.734 146.08 28.668C146.29 28.596 146.464 28.5 146.602 28.38C146.74 28.26 146.842 28.125 146.908 27.975C146.974 27.819 147.007 27.654 147.007 27.48C147.007 27.246 146.941 27.054 146.809 26.904C146.677 26.754 146.5 26.625 146.278 26.517C146.062 26.409 145.813 26.313 145.531 26.229C145.255 26.145 144.973 26.055 144.685 25.959C144.397 25.863 144.112 25.752 143.83 25.626C143.554 25.5 143.305 25.341 143.083 25.149C142.867 24.951 142.693 24.714 142.561 24.438C142.429 24.156 142.363 23.814 142.363 23.412C142.363 23.046 142.435 22.698 142.579 22.368C142.729 22.038 142.945 21.747 143.227 21.495C143.515 21.243 143.866 21.045 144.28 20.901C144.7 20.751 145.183 20.676 145.729 20.676C146.347 20.676 146.908 20.775 147.412 20.973C147.916 21.171 148.339 21.441 148.681 21.783L148.249 22.485ZM17.1106 44.485C17.0626 44.569 17.0086 44.629 16.9486 44.665C16.8886 44.701 16.8136 44.719 16.7236 44.719C16.6216 44.719 16.5106 44.689 16.3906 44.629C16.2706 44.563 16.1296 44.491 15.9676 44.413C15.8056 44.335 15.6136 44.266 15.3916 44.206C15.1756 44.14 14.9206 44.107 14.6266 44.107C14.3866 44.107 14.1676 44.137 13.9696 44.197C13.7776 44.251 13.6126 44.332 13.4746 44.44C13.3426 44.542 13.2406 44.665 13.1686 44.809C13.0966 44.947 13.0606 45.097 13.0606 45.259C13.0606 45.475 13.1266 45.655 13.2586 45.799C13.3906 45.943 13.5646 46.069 13.7806 46.177C13.9966 46.279 14.2426 46.372 14.5186 46.456C14.7946 46.54 15.0766 46.63 15.3646 46.726C15.6526 46.822 15.9346 46.933 16.2106 47.059C16.4866 47.185 16.7326 47.341 16.9486 47.527C17.1646 47.707 17.3386 47.929 17.4706 48.193C17.6026 48.451 17.6686 48.766 17.6686 49.138C17.6686 49.57 17.5906 49.969 17.4346 50.335C17.2786 50.701 17.0506 51.019 16.7506 51.289C16.4506 51.559 16.0756 51.769 15.6256 51.919C15.1816 52.069 14.6716 52.144 14.0956 52.144C13.7776 52.144 13.4686 52.114 13.1686 52.054C12.8746 52 12.5926 51.925 12.3226 51.829C12.0586 51.727 11.8096 51.607 11.5756 51.469C11.3476 51.331 11.1436 51.181 10.9636 51.019L11.4136 50.281C11.4676 50.191 11.5336 50.122 11.6116 50.074C11.6956 50.02 11.7976 49.993 11.9176 49.993C12.0436 49.993 12.1666 50.035 12.2866 50.119C12.4126 50.197 12.5566 50.284 12.7186 50.38C12.8866 50.476 13.0876 50.566 13.3216 50.65C13.5556 50.728 13.8466 50.767 14.1946 50.767C14.4826 50.767 14.7316 50.734 14.9416 50.668C15.1516 50.596 15.3256 50.5 15.4636 50.38C15.6016 50.26 15.7036 50.125 15.7696 49.975C15.8356 49.819 15.8686 49.654 15.8686 49.48C15.8686 49.246 15.8026 49.054 15.6706 48.904C15.5386 48.754 15.3616 48.625 15.1396 48.517C14.9236 48.409 14.6746 48.313 14.3926 48.229C14.1166 48.145 13.8346 48.055 13.5466 47.959C13.2586 47.863 12.9736 47.752 12.6916 47.626C12.4156 47.5 12.1666 47.341 11.9446 47.149C11.7286 46.951 11.5546 46.714 11.4226 46.438C11.2906 46.156 11.2246 45.814 11.2246 45.412C11.2246 45.046 11.2966 44.698 11.4406 44.368C11.5906 44.038 11.8066 43.747 12.0886 43.495C12.3766 43.243 12.7276 43.045 13.1416 42.901C13.5616 42.751 14.0446 42.676 14.5906 42.676C15.2086 42.676 15.7696 42.775 16.2736 42.973C16.7776 43.171 17.2006 43.441 17.5426 43.783L17.1106 44.485ZM23.096 42.676C23.774 42.676 24.386 42.787 24.932 43.009C25.484 43.231 25.952 43.546 26.336 43.954C26.726 44.362 27.026 44.857 27.236 45.439C27.446 46.021 27.551 46.675 27.551 47.401C27.551 48.127 27.446 48.781 27.236 49.363C27.026 49.945 26.726 50.443 26.336 50.857C25.952 51.265 25.484 51.58 24.932 51.802C24.386 52.024 23.774 52.135 23.096 52.135C22.412 52.135 21.794 52.024 21.242 51.802C20.696 51.58 20.228 51.265 19.838 50.857C19.448 50.443 19.148 49.945 18.938 49.363C18.728 48.781 18.623 48.127 18.623 47.401C18.623 46.675 18.728 46.021 18.938 45.439C19.148 44.857 19.448 44.362 19.838 43.954C20.228 43.546 20.696 43.231 21.242 43.009C21.794 42.787 22.412 42.676 23.096 42.676ZM23.096 50.623C23.924 50.623 24.539 50.347 24.941 49.795C25.349 49.237 25.553 48.442 25.553 47.41C25.553 46.378 25.349 45.583 24.941 45.025C24.539 44.461 23.924 44.179 23.096 44.179C22.256 44.179 21.632 44.461 21.224 45.025C20.816 45.583 20.612 46.378 20.612 47.41C20.612 48.442 20.816 49.237 21.224 49.795C21.632 50.347 22.256 50.623 23.096 50.623ZM35.5392 44.62C35.4792 44.698 35.4222 44.758 35.3682 44.8C35.3142 44.842 35.2362 44.863 35.1342 44.863C35.0322 44.863 34.9242 44.827 34.8102 44.755C34.7022 44.683 34.5702 44.605 34.4142 44.521C34.2642 44.431 34.0812 44.35 33.8652 44.278C33.6492 44.206 33.3792 44.17 33.0552 44.17C32.6352 44.17 32.2662 44.245 31.9482 44.395C31.6362 44.545 31.3722 44.761 31.1562 45.043C30.9462 45.319 30.7872 45.658 30.6792 46.06C30.5772 46.456 30.5262 46.903 30.5262 47.401C30.5262 47.917 30.5832 48.376 30.6972 48.778C30.8112 49.18 30.9732 49.519 31.1832 49.795C31.3992 50.071 31.6572 50.281 31.9572 50.425C32.2632 50.569 32.6052 50.641 32.9832 50.641C33.3552 50.641 33.6582 50.596 33.8922 50.506C34.1262 50.416 34.3212 50.317 34.4772 50.209C34.6332 50.101 34.7652 50.002 34.8732 49.912C34.9872 49.822 35.1072 49.777 35.2332 49.777C35.3892 49.777 35.5092 49.837 35.5932 49.957L36.1422 50.668C35.9202 50.938 35.6742 51.166 35.4042 51.352C35.1342 51.538 34.8492 51.691 34.5492 51.811C34.2492 51.925 33.9372 52.006 33.6132 52.054C33.2892 52.108 32.9622 52.135 32.6322 52.135C32.0622 52.135 31.5282 52.03 31.0302 51.82C30.5382 51.604 30.1062 51.295 29.7342 50.893C29.3682 50.485 29.0772 49.99 28.8612 49.408C28.6512 48.82 28.5462 48.151 28.5462 47.401C28.5462 46.723 28.6422 46.096 28.8342 45.52C29.0262 44.938 29.3052 44.437 29.6712 44.017C30.0432 43.597 30.5022 43.27 31.0482 43.036C31.5942 42.796 32.2242 42.676 32.9382 42.676C33.6042 42.676 34.1892 42.784 34.6932 43C35.2032 43.216 35.6562 43.522 36.0522 43.918L35.5392 44.62ZM39.3547 42.82V52H37.4197V42.82H39.3547ZM39.6787 40.048C39.6787 40.222 39.6427 40.387 39.5707 40.543C39.5047 40.699 39.4117 40.837 39.2917 40.957C39.1717 41.071 39.0307 41.164 38.8687 41.236C38.7127 41.302 38.5447 41.335 38.3647 41.335C38.1907 41.335 38.0257 41.302 37.8697 41.236C37.7197 41.164 37.5877 41.071 37.4737 40.957C37.3597 40.837 37.2667 40.699 37.1947 40.543C37.1287 40.387 37.0957 40.222 37.0957 40.048C37.0957 39.868 37.1287 39.7 37.1947 39.544C37.2667 39.388 37.3597 39.253 37.4737 39.139C37.5877 39.019 37.7197 38.926 37.8697 38.86C38.0257 38.788 38.1907 38.752 38.3647 38.752C38.5447 38.752 38.7127 38.788 38.8687 38.86C39.0307 38.926 39.1717 39.019 39.2917 39.139C39.4117 39.253 39.5047 39.388 39.5707 39.544C39.6427 39.7 39.6787 39.868 39.6787 40.048ZM46.331 47.986C45.641 48.01 45.059 48.067 44.585 48.157C44.111 48.241 43.727 48.352 43.433 48.49C43.139 48.622 42.926 48.781 42.794 48.967C42.668 49.153 42.605 49.357 42.605 49.579C42.605 49.795 42.638 49.981 42.704 50.137C42.776 50.287 42.872 50.413 42.992 50.515C43.118 50.611 43.262 50.683 43.424 50.731C43.592 50.773 43.775 50.794 43.973 50.794C44.477 50.794 44.909 50.701 45.269 50.515C45.635 50.323 45.989 50.047 46.331 49.687V47.986ZM41.201 44.098C42.239 43.132 43.475 42.649 44.909 42.649C45.437 42.649 45.905 42.736 46.313 42.91C46.727 43.078 47.072 43.318 47.348 43.63C47.63 43.942 47.843 44.314 47.987 44.746C48.137 45.172 48.212 45.646 48.212 46.168V52H47.348C47.162 52 47.021 51.973 46.925 51.919C46.829 51.859 46.748 51.742 46.682 51.568L46.493 50.821C46.259 51.031 46.028 51.22 45.8 51.388C45.572 51.55 45.335 51.688 45.089 51.802C44.849 51.916 44.588 52 44.306 52.054C44.03 52.114 43.724 52.144 43.388 52.144C43.016 52.144 42.668 52.093 42.344 51.991C42.026 51.889 41.75 51.736 41.516 51.532C41.282 51.322 41.096 51.064 40.958 50.758C40.826 50.452 40.76 50.092 40.76 49.678C40.76 49.324 40.853 48.979 41.039 48.643C41.231 48.307 41.543 48.007 41.975 47.743C42.413 47.473 42.986 47.251 43.694 47.077C44.408 46.903 45.287 46.804 46.331 46.78V46.168C46.331 45.508 46.19 45.016 45.908 44.692C45.626 44.368 45.212 44.206 44.666 44.206C44.294 44.206 43.982 44.254 43.73 44.35C43.478 44.44 43.259 44.539 43.073 44.647C42.887 44.755 42.722 44.857 42.578 44.953C42.434 45.043 42.281 45.088 42.119 45.088C41.987 45.088 41.873 45.055 41.777 44.989C41.687 44.917 41.612 44.83 41.552 44.728L41.201 44.098ZM52.0897 38.68V52H50.1547V38.68H52.0897ZM60.1391 46.375C60.1391 46.051 60.0911 45.751 59.9951 45.475C59.9051 45.193 59.7701 44.95 59.5901 44.746C59.4101 44.536 59.1851 44.374 58.9151 44.26C58.6511 44.14 58.3451 44.08 57.9971 44.08C57.2951 44.08 56.7431 44.281 56.3411 44.683C55.9391 45.085 55.6841 45.649 55.5761 46.375H60.1391ZM55.5221 47.563C55.5461 48.085 55.6271 48.538 55.7651 48.922C55.9031 49.3 56.0861 49.615 56.3141 49.867C56.5481 50.119 56.8241 50.308 57.1421 50.434C57.4661 50.554 57.8261 50.614 58.2221 50.614C58.6001 50.614 58.9271 50.572 59.2031 50.488C59.4791 50.398 59.7191 50.302 59.9231 50.2C60.1271 50.092 60.3011 49.996 60.4451 49.912C60.5891 49.822 60.7211 49.777 60.8411 49.777C60.9971 49.777 61.1171 49.837 61.2011 49.957L61.7501 50.668C61.5221 50.938 61.2641 51.166 60.9761 51.352C60.6881 51.538 60.3821 51.691 60.0581 51.811C59.7341 51.925 59.4011 52.006 59.0591 52.054C58.7171 52.108 58.3841 52.135 58.0601 52.135C57.4241 52.135 56.8331 52.03 56.2871 51.82C55.7471 51.604 55.2761 51.289 54.8741 50.875C54.4781 50.461 54.1661 49.948 53.9381 49.336C53.7161 48.724 53.6051 48.019 53.6051 47.221C53.6051 46.585 53.7041 45.991 53.9021 45.439C54.1061 44.887 54.3941 44.407 54.7661 43.999C55.1441 43.591 55.6001 43.27 56.1341 43.036C56.6741 42.796 57.2831 42.676 57.9611 42.676C58.5251 42.676 59.0471 42.769 59.5271 42.955C60.0071 43.135 60.4211 43.402 60.7691 43.756C61.1171 44.11 61.3871 44.545 61.5791 45.061C61.7771 45.571 61.8761 46.153 61.8761 46.807C61.8761 47.107 61.8431 47.308 61.7771 47.41C61.7111 47.512 61.5911 47.563 61.4171 47.563H55.5221ZM68.8016 44.485C68.7536 44.569 68.6996 44.629 68.6396 44.665C68.5796 44.701 68.5046 44.719 68.4146 44.719C68.3126 44.719 68.2016 44.689 68.0816 44.629C67.9616 44.563 67.8206 44.491 67.6586 44.413C67.4966 44.335 67.3046 44.266 67.0826 44.206C66.8666 44.14 66.6116 44.107 66.3176 44.107C66.0776 44.107 65.8586 44.137 65.6606 44.197C65.4686 44.251 65.3036 44.332 65.1656 44.44C65.0336 44.542 64.9316 44.665 64.8596 44.809C64.7876 44.947 64.7516 45.097 64.7516 45.259C64.7516 45.475 64.8176 45.655 64.9496 45.799C65.0816 45.943 65.2556 46.069 65.4716 46.177C65.6876 46.279 65.9336 46.372 66.2096 46.456C66.4856 46.54 66.7676 46.63 67.0556 46.726C67.3436 46.822 67.6256 46.933 67.9016 47.059C68.1776 47.185 68.4236 47.341 68.6396 47.527C68.8556 47.707 69.0296 47.929 69.1616 48.193C69.2936 48.451 69.3596 48.766 69.3596 49.138C69.3596 49.57 69.2816 49.969 69.1256 50.335C68.9696 50.701 68.7416 51.019 68.4416 51.289C68.1416 51.559 67.7666 51.769 67.3166 51.919C66.8726 52.069 66.3626 52.144 65.7866 52.144C65.4686 52.144 65.1596 52.114 64.8596 52.054C64.5656 52 64.2836 51.925 64.0136 51.829C63.7496 51.727 63.5006 51.607 63.2666 51.469C63.0386 51.331 62.8346 51.181 62.6546 51.019L63.1046 50.281C63.1586 50.191 63.2246 50.122 63.3026 50.074C63.3866 50.02 63.4886 49.993 63.6086 49.993C63.7346 49.993 63.8576 50.035 63.9776 50.119C64.1036 50.197 64.2476 50.284 64.4096 50.38C64.5776 50.476 64.7786 50.566 65.0126 50.65C65.2466 50.728 65.5376 50.767 65.8856 50.767C66.1736 50.767 66.4226 50.734 66.6326 50.668C66.8426 50.596 67.0166 50.5 67.1546 50.38C67.2926 50.26 67.3946 50.125 67.4606 49.975C67.5266 49.819 67.5596 49.654 67.5596 49.48C67.5596 49.246 67.4936 49.054 67.3616 48.904C67.2296 48.754 67.0526 48.625 66.8306 48.517C66.6146 48.409 66.3656 48.313 66.0836 48.229C65.8076 48.145 65.5256 48.055 65.2376 47.959C64.9496 47.863 64.6646 47.752 64.3826 47.626C64.1066 47.5 63.8576 47.341 63.6356 47.149C63.4196 46.951 63.2456 46.714 63.1136 46.438C62.9816 46.156 62.9156 45.814 62.9156 45.412C62.9156 45.046 62.9876 44.698 63.1316 44.368C63.2816 44.038 63.4976 43.747 63.7796 43.495C64.0676 43.243 64.4186 43.045 64.8326 42.901C65.2526 42.751 65.7356 42.676 66.2816 42.676C66.8996 42.676 67.4606 42.775 67.9646 42.973C68.4686 43.171 68.8916 43.441 69.2336 43.783L68.8016 44.485ZM82.5829 42.82L78.8929 52H77.1469L73.4569 42.82H75.0499C75.1999 42.82 75.3229 42.859 75.4189 42.937C75.5209 43.009 75.5869 43.096 75.6169 43.198L77.6509 48.544C77.7349 48.796 77.8099 49.045 77.8759 49.291C77.9419 49.537 77.9989 49.786 78.0469 50.038C78.0949 49.786 78.1519 49.54 78.2179 49.3C78.2899 49.054 78.3679 48.802 78.4519 48.544L80.5219 43.198C80.5579 43.09 80.6239 43 80.7199 42.928C80.8159 42.856 80.9329 42.82 81.0709 42.82H82.5829ZM88.8329 44.485C88.7849 44.569 88.7309 44.629 88.6709 44.665C88.6109 44.701 88.5359 44.719 88.4459 44.719C88.3439 44.719 88.2329 44.689 88.1129 44.629C87.9929 44.563 87.8519 44.491 87.6899 44.413C87.5279 44.335 87.3359 44.266 87.1139 44.206C86.8979 44.14 86.6429 44.107 86.3489 44.107C86.1089 44.107 85.8899 44.137 85.6919 44.197C85.4999 44.251 85.3349 44.332 85.1969 44.44C85.0649 44.542 84.9629 44.665 84.8909 44.809C84.8189 44.947 84.7829 45.097 84.7829 45.259C84.7829 45.475 84.8489 45.655 84.9809 45.799C85.1129 45.943 85.2869 46.069 85.5029 46.177C85.7189 46.279 85.9649 46.372 86.2409 46.456C86.5169 46.54 86.7989 46.63 87.0869 46.726C87.3749 46.822 87.6569 46.933 87.9329 47.059C88.2089 47.185 88.4549 47.341 88.6709 47.527C88.8869 47.707 89.0609 47.929 89.1929 48.193C89.3249 48.451 89.3909 48.766 89.3909 49.138C89.3909 49.57 89.3129 49.969 89.1569 50.335C89.0009 50.701 88.7729 51.019 88.4729 51.289C88.1729 51.559 87.7979 51.769 87.3479 51.919C86.9039 52.069 86.3939 52.144 85.8179 52.144C85.4999 52.144 85.1909 52.114 84.8909 52.054C84.5969 52 84.3149 51.925 84.0449 51.829C83.7809 51.727 83.5319 51.607 83.2979 51.469C83.0699 51.331 82.8659 51.181 82.6859 51.019L83.1359 50.281C83.1899 50.191 83.2559 50.122 83.3339 50.074C83.4179 50.02 83.5199 49.993 83.6399 49.993C83.7659 49.993 83.8889 50.035 84.0089 50.119C84.1349 50.197 84.2789 50.284 84.4409 50.38C84.6089 50.476 84.8099 50.566 85.0439 50.65C85.2779 50.728 85.5689 50.767 85.9169 50.767C86.2049 50.767 86.4539 50.734 86.6639 50.668C86.8739 50.596 87.0479 50.5 87.1859 50.38C87.3239 50.26 87.4259 50.125 87.4919 49.975C87.5579 49.819 87.5909 49.654 87.5909 49.48C87.5909 49.246 87.5249 49.054 87.3929 48.904C87.2609 48.754 87.0839 48.625 86.8619 48.517C86.6459 48.409 86.3969 48.313 86.1149 48.229C85.8389 48.145 85.5569 48.055 85.2689 47.959C84.9809 47.863 84.6959 47.752 84.4139 47.626C84.1379 47.5 83.8889 47.341 83.6669 47.149C83.4509 46.951 83.2769 46.714 83.1449 46.438C83.0129 46.156 82.9469 45.814 82.9469 45.412C82.9469 45.046 83.0189 44.698 83.1629 44.368C83.3129 44.038 83.5289 43.747 83.8109 43.495C84.0989 43.243 84.4499 43.045 84.8639 42.901C85.2839 42.751 85.7669 42.676 86.3129 42.676C86.9309 42.676 87.4919 42.775 87.9959 42.973C88.4999 43.171 88.9229 43.441 89.2649 43.783L88.8329 44.485ZM90.5523 50.884C90.5523 50.71 90.5823 50.548 90.6423 50.398C90.7083 50.242 90.7953 50.107 90.9033 49.993C91.0173 49.879 91.1493 49.789 91.2993 49.723C91.4553 49.657 91.6203 49.624 91.7943 49.624C91.9683 49.624 92.1303 49.657 92.2803 49.723C92.4363 49.789 92.5713 49.879 92.6853 49.993C92.7993 50.107 92.8893 50.242 92.9553 50.398C93.0213 50.548 93.0543 50.71 93.0543 50.884C93.0543 51.064 93.0213 51.229 92.9553 51.379C92.8893 51.529 92.7993 51.661 92.6853 51.775C92.5713 51.889 92.4363 51.976 92.2803 52.036C92.1303 52.102 91.9683 52.135 91.7943 52.135C91.6203 52.135 91.4553 52.102 91.2993 52.036C91.1493 51.976 91.0173 51.889 90.9033 51.775C90.7953 51.661 90.7083 51.529 90.6423 51.379C90.5823 51.229 90.5523 51.064 90.5523 50.884ZM107.776 52H105.841V44.341H101.368V49.552C101.368 49.882 101.449 50.134 101.611 50.308C101.773 50.482 101.989 50.569 102.259 50.569C102.409 50.569 102.538 50.551 102.646 50.515C102.754 50.473 102.847 50.431 102.925 50.389C103.003 50.341 103.069 50.299 103.123 50.263C103.183 50.221 103.24 50.2 103.294 50.2C103.402 50.2 103.489 50.26 103.555 50.38L104.131 51.325C103.831 51.589 103.477 51.793 103.069 51.937C102.661 52.075 102.241 52.144 101.809 52.144C101.047 52.144 100.459 51.931 100.045 51.505C99.6366 51.073 99.4326 50.467 99.4326 49.687V44.341H98.4246C98.3166 44.341 98.2236 44.308 98.1456 44.242C98.0676 44.17 98.0286 44.065 98.0286 43.927V43.144L99.5136 42.928L99.9366 40.273C99.9666 40.171 100.018 40.09 100.09 40.03C100.162 39.964 100.258 39.931 100.378 39.931H101.368V42.946H107.776V52ZM108.172 40.003C108.172 40.177 108.136 40.342 108.064 40.498C107.998 40.648 107.905 40.783 107.785 40.903C107.665 41.017 107.524 41.11 107.362 41.182C107.206 41.248 107.041 41.281 106.867 41.281C106.693 41.281 106.528 41.248 106.372 41.182C106.222 41.11 106.087 41.017 105.967 40.903C105.853 40.783 105.76 40.648 105.688 40.498C105.622 40.342 105.589 40.177 105.589 40.003C105.589 39.823 105.622 39.655 105.688 39.499C105.76 39.337 105.853 39.199 105.967 39.085C106.087 38.965 106.222 38.872 106.372 38.806C106.528 38.734 106.693 38.698 106.867 38.698C107.041 38.698 107.206 38.734 107.362 38.806C107.524 38.872 107.665 38.965 107.785 39.085C107.905 39.199 107.998 39.337 108.064 39.499C108.136 39.655 108.172 39.823 108.172 40.003ZM115.882 46.375C115.882 46.051 115.834 45.751 115.738 45.475C115.648 45.193 115.513 44.95 115.333 44.746C115.153 44.536 114.928 44.374 114.658 44.26C114.394 44.14 114.088 44.08 113.74 44.08C113.038 44.08 112.486 44.281 112.084 44.683C111.682 45.085 111.427 45.649 111.319 46.375H115.882ZM111.265 47.563C111.289 48.085 111.37 48.538 111.508 48.922C111.646 49.3 111.829 49.615 112.057 49.867C112.291 50.119 112.567 50.308 112.885 50.434C113.209 50.554 113.569 50.614 113.965 50.614C114.343 50.614 114.67 50.572 114.946 50.488C115.222 50.398 115.462 50.302 115.666 50.2C115.87 50.092 116.044 49.996 116.188 49.912C116.332 49.822 116.464 49.777 116.584 49.777C116.74 49.777 116.86 49.837 116.944 49.957L117.493 50.668C117.265 50.938 117.007 51.166 116.719 51.352C116.431 51.538 116.125 51.691 115.801 51.811C115.477 51.925 115.144 52.006 114.802 52.054C114.46 52.108 114.127 52.135 113.803 52.135C113.167 52.135 112.576 52.03 112.03 51.82C111.49 51.604 111.019 51.289 110.617 50.875C110.221 50.461 109.909 49.948 109.681 49.336C109.459 48.724 109.348 48.019 109.348 47.221C109.348 46.585 109.447 45.991 109.645 45.439C109.849 44.887 110.137 44.407 110.509 43.999C110.887 43.591 111.343 43.27 111.877 43.036C112.417 42.796 113.026 42.676 113.704 42.676C114.268 42.676 114.79 42.769 115.27 42.955C115.75 43.135 116.164 43.402 116.512 43.756C116.86 44.11 117.13 44.545 117.322 45.061C117.52 45.571 117.619 46.153 117.619 46.807C117.619 47.107 117.586 47.308 117.52 47.41C117.454 47.512 117.334 47.563 117.16 47.563H111.265ZM119.064 52V42.82H120.234C120.498 42.82 120.666 42.943 120.738 43.189L120.864 43.99C121.032 43.798 121.206 43.624 121.386 43.468C121.566 43.306 121.758 43.168 121.962 43.054C122.172 42.934 122.394 42.841 122.628 42.775C122.868 42.709 123.126 42.676 123.402 42.676C123.696 42.676 123.966 42.718 124.212 42.802C124.458 42.886 124.674 43.006 124.86 43.162C125.052 43.318 125.217 43.507 125.355 43.729C125.493 43.951 125.607 44.2 125.697 44.476C125.835 44.158 126.009 43.885 126.219 43.657C126.429 43.429 126.663 43.243 126.921 43.099C127.179 42.955 127.452 42.85 127.74 42.784C128.034 42.712 128.331 42.676 128.631 42.676C129.123 42.676 129.561 42.754 129.945 42.91C130.335 43.066 130.662 43.294 130.926 43.594C131.196 43.888 131.4 44.251 131.538 44.683C131.676 45.115 131.745 45.607 131.745 46.159V52H129.81V46.159C129.81 45.511 129.669 45.025 129.387 44.701C129.111 44.371 128.7 44.206 128.154 44.206C127.908 44.206 127.677 44.248 127.461 44.332C127.245 44.416 127.056 44.539 126.894 44.701C126.732 44.863 126.603 45.067 126.507 45.313C126.417 45.553 126.372 45.835 126.372 46.159V52H124.437V46.159C124.437 45.487 124.302 44.995 124.032 44.683C123.762 44.365 123.366 44.206 122.844 44.206C122.484 44.206 122.151 44.299 121.845 44.485C121.539 44.665 121.257 44.914 120.999 45.232V52H119.064ZM135.58 49.696C135.85 50.044 136.144 50.29 136.462 50.434C136.786 50.572 137.143 50.641 137.533 50.641C138.289 50.641 138.877 50.365 139.297 49.813C139.723 49.261 139.936 48.439 139.936 47.347C139.936 46.783 139.888 46.303 139.792 45.907C139.696 45.505 139.558 45.178 139.378 44.926C139.198 44.674 138.979 44.491 138.721 44.377C138.463 44.263 138.172 44.206 137.848 44.206C137.356 44.206 136.93 44.314 136.57 44.53C136.216 44.74 135.886 45.043 135.58 45.439V49.696ZM135.481 44.152C135.865 43.702 136.3 43.339 136.786 43.063C137.278 42.787 137.848 42.649 138.496 42.649C139.012 42.649 139.48 42.754 139.9 42.964C140.32 43.168 140.68 43.468 140.98 43.864C141.28 44.26 141.511 44.752 141.673 45.34C141.841 45.922 141.925 46.591 141.925 47.347C141.925 48.025 141.832 48.658 141.646 49.246C141.466 49.828 141.205 50.335 140.863 50.767C140.521 51.193 140.107 51.529 139.621 51.775C139.135 52.015 138.586 52.135 137.974 52.135C137.434 52.135 136.975 52.048 136.597 51.874C136.225 51.7 135.886 51.46 135.58 51.154V55.051H133.645V42.82H134.815C135.079 42.82 135.247 42.943 135.319 43.189L135.481 44.152ZM147.414 42.676C148.092 42.676 148.704 42.787 149.25 43.009C149.802 43.231 150.27 43.546 150.654 43.954C151.044 44.362 151.344 44.857 151.554 45.439C151.764 46.021 151.869 46.675 151.869 47.401C151.869 48.127 151.764 48.781 151.554 49.363C151.344 49.945 151.044 50.443 150.654 50.857C150.27 51.265 149.802 51.58 149.25 51.802C148.704 52.024 148.092 52.135 147.414 52.135C146.73 52.135 146.112 52.024 145.56 51.802C145.014 51.58 144.546 51.265 144.156 50.857C143.766 50.443 143.466 49.945 143.256 49.363C143.046 48.781 142.941 48.127 142.941 47.401C142.941 46.675 143.046 46.021 143.256 45.439C143.466 44.857 143.766 44.362 144.156 43.954C144.546 43.546 145.014 43.231 145.56 43.009C146.112 42.787 146.73 42.676 147.414 42.676ZM147.414 50.623C148.242 50.623 148.857 50.347 149.259 49.795C149.667 49.237 149.871 48.442 149.871 47.41C149.871 46.378 149.667 45.583 149.259 45.025C148.857 44.461 148.242 44.179 147.414 44.179C146.574 44.179 145.95 44.461 145.542 45.025C145.134 45.583 144.93 46.378 144.93 47.41C144.93 48.442 145.134 49.237 145.542 49.795C145.95 50.347 146.574 50.623 147.414 50.623Z" fill="white"/>
</svg>
