<svg width="166" height="68" viewBox="0 0 166 68" fill="none" xmlns="http://www.w3.org/2000/svg">
<rect x="0.791016" width="164.812" height="67.9172" rx="15" fill="#A29AFF"/>
<path d="M64.0792 36.4401L62.2972 31.7061C62.1532 31.3401 62.0062 30.8751 61.8562 30.3111C61.7902 30.5931 61.7182 30.8541 61.6402 31.0941C61.5622 31.3281 61.4902 31.5351 61.4242 31.7151L59.6422 36.4401H64.0792ZM68.0662 41.3001H66.4372C66.2512 41.3001 66.1012 41.2551 65.9872 41.1651C65.8732 41.0691 65.7862 40.9521 65.7262 40.8141L64.6462 37.9521H59.0662L57.9862 40.8141C57.9382 40.9341 57.8542 41.0451 57.7342 41.1471C57.6142 41.2491 57.4642 41.3001 57.2842 41.3001H55.6552L60.7942 28.3401H62.9272L68.0662 41.3001ZM68.8235 41.3001V32.1201H69.9935C70.2575 32.1201 70.4255 32.2431 70.4975 32.4891L70.6235 33.2901C70.7915 33.0981 70.9655 32.9241 71.1455 32.7681C71.3255 32.6061 71.5175 32.4681 71.7215 32.3541C71.9315 32.2341 72.1535 32.1411 72.3875 32.0751C72.6275 32.0091 72.8855 31.9761 73.1615 31.9761C73.4555 31.9761 73.7255 32.0181 73.9715 32.1021C74.2175 32.1861 74.4335 32.3061 74.6195 32.4621C74.8115 32.6181 74.9765 32.8071 75.1145 33.0291C75.2525 33.2511 75.3665 33.5001 75.4565 33.7761C75.5945 33.4581 75.7685 33.1851 75.9785 32.9571C76.1885 32.7291 76.4225 32.5431 76.6805 32.3991C76.9385 32.2551 77.2115 32.1501 77.4995 32.0841C77.7935 32.0121 78.0905 31.9761 78.3905 31.9761C78.8825 31.9761 79.3205 32.0541 79.7045 32.2101C80.0945 32.3661 80.4215 32.5941 80.6855 32.8941C80.9555 33.1881 81.1595 33.5511 81.2975 33.9831C81.4355 34.4151 81.5045 34.9071 81.5045 35.4591V41.3001H79.5695V35.4591C79.5695 34.8111 79.4285 34.3251 79.1465 34.0011C78.8705 33.6711 78.4595 33.5061 77.9135 33.5061C77.6675 33.5061 77.4365 33.5481 77.2205 33.6321C77.0045 33.7161 76.8155 33.8391 76.6535 34.0011C76.4915 34.1631 76.3625 34.3671 76.2665 34.6131C76.1765 34.8531 76.1315 35.1351 76.1315 35.4591V41.3001H74.1965V35.4591C74.1965 34.7871 74.0615 34.2951 73.7915 33.9831C73.5215 33.6651 73.1255 33.5061 72.6035 33.5061C72.2435 33.5061 71.9105 33.5991 71.6045 33.7851C71.2985 33.9651 71.0165 34.2141 70.7585 34.5321V41.3001H68.8235ZM85.3399 38.9961C85.6099 39.3441 85.9039 39.5901 86.2219 39.7341C86.5459 39.8721 86.8969 39.9411 87.2749 39.9411C88.0369 39.9411 88.6309 39.6651 89.0569 39.1131C89.4829 38.5611 89.6959 37.7061 89.6959 36.5481C89.6959 35.4921 89.5099 34.7211 89.1379 34.2351C88.7719 33.7491 88.2469 33.5061 87.5629 33.5061C87.0889 33.5061 86.6749 33.6141 86.3209 33.8301C85.9729 34.0401 85.6459 34.3431 85.3399 34.7391V38.9961ZM85.3399 33.3351C85.7179 32.9211 86.1409 32.5911 86.6089 32.3451C87.0769 32.0991 87.6109 31.9761 88.2109 31.9761C88.7449 31.9761 89.2249 32.0811 89.6509 32.2911C90.0829 32.4951 90.4489 32.7921 90.7489 33.1821C91.0489 33.5721 91.2799 34.0461 91.4419 34.6041C91.6039 35.1561 91.6849 35.7801 91.6849 36.4761C91.6849 37.2201 91.5919 37.8981 91.4059 38.5101C91.2259 39.1161 90.9649 39.6381 90.6229 40.0761C90.2809 40.5081 89.8669 40.8441 89.3809 41.0841C88.8949 41.3181 88.3519 41.4351 87.7519 41.4351C87.4579 41.4351 87.1909 41.4051 86.9509 41.3451C86.7109 41.2911 86.4889 41.2101 86.2849 41.1021C86.0809 40.9941 85.8919 40.8651 85.7179 40.7151C85.5499 40.5651 85.3879 40.3941 85.2319 40.2021L85.1509 40.9131C85.1209 41.0511 85.0669 41.1501 84.9889 41.2101C84.9109 41.2701 84.8029 41.3001 84.6649 41.3001H83.4049V27.9801H85.3399V33.3351ZM97.174 31.9761C97.852 31.9761 98.464 32.0871 99.01 32.3091C99.562 32.5311 100.03 32.8461 100.414 33.2541C100.804 33.6621 101.104 34.1571 101.314 34.7391C101.524 35.3211 101.629 35.9751 101.629 36.7011C101.629 37.4271 101.524 38.0811 101.314 38.6631C101.104 39.2451 100.804 39.7431 100.414 40.1571C100.03 40.5651 99.562 40.8801 99.01 41.1021C98.464 41.3241 97.852 41.4351 97.174 41.4351C96.49 41.4351 95.872 41.3241 95.32 41.1021C94.774 40.8801 94.306 40.5651 93.916 40.1571C93.526 39.7431 93.226 39.2451 93.016 38.6631C92.806 38.0811 92.701 37.4271 92.701 36.7011C92.701 35.9751 92.806 35.3211 93.016 34.7391C93.226 34.1571 93.526 33.6621 93.916 33.2541C94.306 32.8461 94.774 32.5311 95.32 32.3091C95.872 32.0871 96.49 31.9761 97.174 31.9761ZM97.174 39.9231C98.002 39.9231 98.617 39.6471 99.019 39.0951C99.427 38.5371 99.631 37.7421 99.631 36.7101C99.631 35.6781 99.427 34.8831 99.019 34.3251C98.617 33.7611 98.002 33.4791 97.174 33.4791C96.334 33.4791 95.71 33.7611 95.302 34.3251C94.894 34.8831 94.69 35.6781 94.69 36.7101C94.69 37.7421 94.894 38.5371 95.302 39.0951C95.71 39.6471 96.334 39.9231 97.174 39.9231ZM108.609 33.7851C108.561 33.8691 108.507 33.9291 108.447 33.9651C108.387 34.0011 108.312 34.0191 108.222 34.0191C108.12 34.0191 108.009 33.9891 107.889 33.9291C107.769 33.8631 107.628 33.7911 107.466 33.7131C107.304 33.6351 107.112 33.5661 106.89 33.5061C106.674 33.4401 106.419 33.4071 106.125 33.4071C105.885 33.4071 105.666 33.4371 105.468 33.4971C105.276 33.5511 105.111 33.6321 104.973 33.7401C104.841 33.8421 104.739 33.9651 104.667 34.1091C104.595 34.2471 104.559 34.3971 104.559 34.5591C104.559 34.7751 104.625 34.9551 104.757 35.0991C104.889 35.2431 105.063 35.3691 105.279 35.4771C105.495 35.5791 105.741 35.6721 106.017 35.7561C106.293 35.8401 106.575 35.9301 106.863 36.0261C107.151 36.1221 107.433 36.2331 107.709 36.3591C107.985 36.4851 108.231 36.6411 108.447 36.8271C108.663 37.0071 108.837 37.2291 108.969 37.4931C109.101 37.7511 109.167 38.0661 109.167 38.4381C109.167 38.8701 109.089 39.2691 108.933 39.6351C108.777 40.0011 108.549 40.3191 108.249 40.5891C107.949 40.8591 107.574 41.0691 107.124 41.2191C106.68 41.3691 106.17 41.4441 105.594 41.4441C105.276 41.4441 104.967 41.4141 104.667 41.3541C104.373 41.3001 104.091 41.2251 103.821 41.1291C103.557 41.0271 103.308 40.9071 103.074 40.7691C102.846 40.6311 102.642 40.4811 102.462 40.3191L102.912 39.5811C102.966 39.4911 103.032 39.4221 103.11 39.3741C103.194 39.3201 103.296 39.2931 103.416 39.2931C103.542 39.2931 103.665 39.3351 103.785 39.4191C103.911 39.4971 104.055 39.5841 104.217 39.6801C104.385 39.7761 104.586 39.8661 104.82 39.9501C105.054 40.0281 105.345 40.0671 105.693 40.0671C105.981 40.0671 106.23 40.0341 106.44 39.9681C106.65 39.8961 106.824 39.8001 106.962 39.6801C107.1 39.5601 107.202 39.4251 107.268 39.2751C107.334 39.1191 107.367 38.9541 107.367 38.7801C107.367 38.5461 107.301 38.3541 107.169 38.2041C107.037 38.0541 106.86 37.9251 106.638 37.8171C106.422 37.7091 106.173 37.6131 105.891 37.5291C105.615 37.4451 105.333 37.3551 105.045 37.2591C104.757 37.1631 104.472 37.0521 104.19 36.9261C103.914 36.8001 103.665 36.6411 103.443 36.4491C103.227 36.2511 103.053 36.0141 102.921 35.7381C102.789 35.4561 102.723 35.1141 102.723 34.7121C102.723 34.3461 102.795 33.9981 102.939 33.6681C103.089 33.3381 103.305 33.0471 103.587 32.7951C103.875 32.5431 104.226 32.3451 104.64 32.2011C105.06 32.0511 105.543 31.9761 106.089 31.9761C106.707 31.9761 107.268 32.0751 107.772 32.2731C108.276 32.4711 108.699 32.7411 109.041 33.0831L108.609 33.7851Z" fill="white"/>
</svg>
