<svg width="257" height="81" viewBox="0 0 257 81" fill="none" xmlns="http://www.w3.org/2000/svg">
<path d="M0 20C0 8.9543 8.9543 0 20 0H237C248.046 0 257 8.95431 257 20V61C257 72.0457 248.046 81 237 81H20C8.95431 81 0 72.0457 0 61V20Z" fill="#F59EE2"/>
<path d="M48.32 51.608C48.608 51.608 48.856 51.72 49.064 51.944L51.08 54.152C49.672 55.816 47.952 57.104 45.92 58.016C43.904 58.928 41.472 59.384 38.624 59.384C36.128 59.384 33.864 58.952 31.832 58.088C29.816 57.224 28.088 56.016 26.648 54.464C25.224 52.912 24.12 51.056 23.336 48.896C22.552 46.736 22.16 44.36 22.16 41.768C22.16 39.176 22.568 36.8 23.384 34.64C24.216 32.48 25.376 30.624 26.864 29.072C28.352 27.52 30.128 26.312 32.192 25.448C34.272 24.584 36.568 24.152 39.08 24.152C41.528 24.152 43.704 24.552 45.608 25.352C47.512 26.152 49.168 27.216 50.576 28.544L48.896 30.92C48.784 31.096 48.64 31.24 48.464 31.352C48.304 31.464 48.088 31.52 47.816 31.52C47.512 31.52 47.152 31.368 46.736 31.064C46.336 30.76 45.8 30.424 45.128 30.056C44.472 29.672 43.656 29.328 42.68 29.024C41.704 28.72 40.488 28.568 39.032 28.568C37.32 28.568 35.752 28.872 34.328 29.48C32.904 30.072 31.672 30.936 30.632 32.072C29.608 33.192 28.808 34.576 28.232 36.224C27.672 37.856 27.392 39.704 27.392 41.768C27.392 43.864 27.688 45.728 28.28 47.36C28.872 48.992 29.688 50.376 30.728 51.512C31.768 52.648 32.992 53.512 34.4 54.104C35.808 54.696 37.328 54.992 38.96 54.992C39.952 54.992 40.84 54.936 41.624 54.824C42.424 54.696 43.152 54.512 43.808 54.272C44.48 54.032 45.112 53.728 45.704 53.36C46.296 52.976 46.88 52.52 47.456 51.992C47.584 51.88 47.72 51.792 47.864 51.728C48.008 51.648 48.16 51.608 48.32 51.608ZM65.18 34.232C66.972 34.232 68.588 34.528 70.028 35.12C71.484 35.696 72.716 36.536 73.724 37.64C74.748 38.728 75.532 40.048 76.076 41.6C76.62 43.136 76.892 44.864 76.892 46.784C76.892 48.704 76.62 50.44 76.076 51.992C75.532 53.544 74.748 54.864 73.724 55.952C72.716 57.04 71.484 57.88 70.028 58.472C68.588 59.048 66.972 59.336 65.18 59.336C63.372 59.336 61.74 59.048 60.284 58.472C58.844 57.88 57.612 57.04 56.588 55.952C55.564 54.864 54.772 53.544 54.212 51.992C53.668 50.44 53.396 48.704 53.396 46.784C53.396 44.864 53.668 43.136 54.212 41.6C54.772 40.048 55.564 38.728 56.588 37.64C57.612 36.536 58.844 35.696 60.284 35.12C61.74 34.528 63.372 34.232 65.18 34.232ZM65.18 55.688C67.484 55.688 69.204 54.912 70.34 53.36C71.476 51.808 72.044 49.624 72.044 46.808C72.044 43.992 71.476 41.808 70.34 40.256C69.204 38.688 67.484 37.904 65.18 37.904C62.844 37.904 61.1 38.688 59.948 40.256C58.812 41.808 58.244 43.992 58.244 46.808C58.244 49.624 58.812 51.808 59.948 53.36C61.1 54.912 62.844 55.688 65.18 55.688ZM86.5081 38C87.0361 37.44 87.5881 36.928 88.1641 36.464C88.7401 36 89.3481 35.608 89.9881 35.288C90.6441 34.952 91.3401 34.696 92.0761 34.52C92.8281 34.328 93.6281 34.232 94.4761 34.232C95.8201 34.232 96.9961 34.456 98.0041 34.904C99.0281 35.352 99.8841 35.984 100.572 36.8C101.26 37.6 101.78 38.568 102.132 39.704C102.484 40.84 102.66 42.096 102.66 43.472V59H97.9561V43.472C97.9561 41.728 97.5561 40.376 96.7561 39.416C95.9561 38.44 94.7321 37.952 93.0841 37.952C91.8841 37.952 90.7561 38.24 89.7001 38.816C88.6601 39.376 87.6921 40.144 86.7961 41.12V59H82.1161V34.616H84.9241C85.5801 34.616 85.9881 34.928 86.1481 35.552L86.5081 38ZM110.233 59V38.456L107.689 38.144C107.321 38.064 107.017 37.936 106.777 37.76C106.553 37.568 106.441 37.296 106.441 36.944V35H110.233V33.824C110.233 32.336 110.465 30.968 110.929 29.72C111.409 28.456 112.121 27.368 113.065 26.456C114.025 25.544 115.209 24.84 116.617 24.344C118.041 23.832 119.705 23.576 121.609 23.576C122.217 23.576 122.857 23.616 123.529 23.696C124.201 23.776 124.769 23.896 125.233 24.056L125.065 26.504C125.033 26.824 124.833 26.992 124.465 27.008C124.097 27.024 123.585 27.032 122.929 27.032C121.473 27.032 120.233 27.176 119.209 27.464C118.185 27.752 117.345 28.184 116.689 28.76C116.033 29.336 115.553 30.064 115.249 30.944C114.945 31.808 114.793 32.816 114.793 33.968V35H129.625V59H124.921V38.408H114.937V59H110.233ZM140.813 39.296C141.597 37.696 142.541 36.44 143.645 35.528C144.749 34.616 146.077 34.16 147.629 34.16C148.157 34.16 148.653 34.224 149.117 34.352C149.597 34.464 150.013 34.64 150.365 34.88L150.053 38.408C149.941 38.84 149.677 39.056 149.261 39.056C149.037 39.056 148.701 39.016 148.253 38.936C147.805 38.84 147.325 38.792 146.813 38.792C146.061 38.792 145.397 38.904 144.821 39.128C144.245 39.336 143.725 39.656 143.261 40.088C142.813 40.504 142.413 41.024 142.061 41.648C141.709 42.256 141.381 42.952 141.077 43.736V59H136.397V34.616H139.085C139.597 34.616 139.941 34.712 140.117 34.904C140.309 35.08 140.445 35.4 140.525 35.864L140.813 39.296ZM153.976 59V34.616H156.784C157.44 34.616 157.848 34.928 158.008 35.552L158.344 37.88C159.24 36.808 160.232 35.936 161.32 35.264C162.424 34.576 163.712 34.232 165.184 34.232C166.8 34.232 168.112 34.68 169.12 35.576C170.128 36.456 170.864 37.656 171.328 39.176C171.68 38.312 172.136 37.568 172.696 36.944C173.256 36.32 173.88 35.808 174.568 35.408C175.256 35.008 175.984 34.712 176.752 34.52C177.536 34.328 178.328 34.232 179.128 34.232C180.424 34.232 181.576 34.44 182.584 34.856C183.608 35.256 184.472 35.848 185.176 36.632C185.88 37.416 186.416 38.384 186.784 39.536C187.152 40.688 187.336 42 187.336 43.472V59H182.632V43.472C182.632 41.648 182.232 40.272 181.432 39.344C180.648 38.416 179.496 37.952 177.976 37.952C177.304 37.952 176.664 38.072 176.056 38.312C175.448 38.536 174.912 38.88 174.448 39.344C174 39.808 173.64 40.384 173.368 41.072C173.112 41.76 172.984 42.56 172.984 43.472V59H168.28V43.472C168.28 41.584 167.904 40.192 167.152 39.296C166.4 38.4 165.296 37.952 163.84 37.952C162.832 37.952 161.896 38.216 161.032 38.744C160.168 39.272 159.376 39.992 158.656 40.904V59H153.976ZM206.736 48.176C204.832 48.24 203.216 48.392 201.888 48.632C200.56 48.856 199.48 49.16 198.648 49.544C197.816 49.928 197.216 50.384 196.848 50.912C196.48 51.424 196.296 52 196.296 52.64C196.296 53.248 196.392 53.776 196.584 54.224C196.792 54.656 197.064 55.016 197.4 55.304C197.752 55.576 198.16 55.776 198.624 55.904C199.088 56.032 199.592 56.096 200.136 56.096C200.856 56.096 201.512 56.024 202.104 55.88C202.712 55.736 203.28 55.536 203.808 55.28C204.336 55.008 204.84 54.68 205.32 54.296C205.8 53.912 206.272 53.472 206.736 52.976V48.176ZM193.008 38.024C194.368 36.728 195.84 35.76 197.424 35.12C199.024 34.48 200.776 34.16 202.68 34.16C204.072 34.16 205.304 34.392 206.376 34.856C207.448 35.304 208.352 35.936 209.088 36.752C209.824 37.568 210.376 38.544 210.744 39.68C211.128 40.816 211.32 42.072 211.32 43.448V59H209.232C208.768 59 208.416 58.928 208.176 58.784C207.936 58.624 207.744 58.336 207.6 57.92L207.096 55.784C206.472 56.36 205.856 56.872 205.248 57.32C204.64 57.752 204 58.128 203.328 58.448C202.672 58.752 201.968 58.984 201.216 59.144C200.464 59.304 199.632 59.384 198.72 59.384C197.76 59.384 196.856 59.256 196.008 59C195.176 58.728 194.448 58.32 193.824 57.776C193.2 57.232 192.704 56.552 192.336 55.736C191.984 54.92 191.808 53.968 191.808 52.88C191.808 51.92 192.064 51 192.576 50.12C193.104 49.224 193.952 48.424 195.12 47.72C196.304 47.016 197.84 46.44 199.728 45.992C201.632 45.544 203.968 45.288 206.736 45.224V43.448C206.736 41.608 206.344 40.232 205.56 39.32C204.776 38.408 203.624 37.952 202.104 37.952C201.08 37.952 200.216 38.08 199.512 38.336C198.824 38.592 198.224 38.88 197.712 39.2C197.216 39.504 196.776 39.784 196.392 40.04C196.024 40.296 195.64 40.424 195.24 40.424C194.92 40.424 194.64 40.336 194.4 40.16C194.176 39.984 193.992 39.776 193.848 39.536L193.008 38.024ZM222.001 39.296C222.785 37.696 223.729 36.44 224.833 35.528C225.937 34.616 227.265 34.16 228.817 34.16C229.345 34.16 229.841 34.224 230.305 34.352C230.785 34.464 231.201 34.64 231.553 34.88L231.241 38.408C231.129 38.84 230.865 39.056 230.449 39.056C230.225 39.056 229.889 39.016 229.441 38.936C228.993 38.84 228.513 38.792 228.001 38.792C227.249 38.792 226.585 38.904 226.009 39.128C225.433 39.336 224.913 39.656 224.449 40.088C224.001 40.504 223.601 41.024 223.249 41.648C222.897 42.256 222.569 42.952 222.265 43.736V59H217.585V34.616H220.273C220.785 34.616 221.129 34.712 221.305 34.904C221.497 35.08 221.633 35.4 221.713 35.864L222.001 39.296Z" fill="black"/>
</svg>
