<svg width="262" height="87" viewBox="0 0 262 87" fill="none" xmlns="http://www.w3.org/2000/svg">
<path d="M0 6H257V87H0V6Z" fill="black"/>
<path d="M5 0H262V81H5V0Z" fill="#F59EE2"/>
<path d="M53.32 52.608C53.608 52.608 53.856 52.72 54.064 52.944L56.08 55.152C54.672 56.816 52.952 58.104 50.92 59.016C48.904 59.928 46.472 60.384 43.624 60.384C41.128 60.384 38.864 59.952 36.832 59.088C34.816 58.224 33.088 57.016 31.648 55.464C30.224 53.912 29.12 52.056 28.336 49.896C27.552 47.736 27.16 45.36 27.16 42.768C27.16 40.176 27.568 37.8 28.384 35.64C29.216 33.48 30.376 31.624 31.864 30.072C33.352 28.52 35.128 27.312 37.192 26.448C39.272 25.584 41.568 25.152 44.08 25.152C46.528 25.152 48.704 25.552 50.608 26.352C52.512 27.152 54.168 28.216 55.576 29.544L53.896 31.92C53.784 32.096 53.64 32.24 53.464 32.352C53.304 32.464 53.088 32.52 52.816 32.52C52.512 32.52 52.152 32.368 51.736 32.064C51.336 31.76 50.8 31.424 50.128 31.056C49.472 30.672 48.656 30.328 47.68 30.024C46.704 29.72 45.488 29.568 44.032 29.568C42.32 29.568 40.752 29.872 39.328 30.48C37.904 31.072 36.672 31.936 35.632 33.072C34.608 34.192 33.808 35.576 33.232 37.224C32.672 38.856 32.392 40.704 32.392 42.768C32.392 44.864 32.688 46.728 33.28 48.36C33.872 49.992 34.688 51.376 35.728 52.512C36.768 53.648 37.992 54.512 39.4 55.104C40.808 55.696 42.328 55.992 43.96 55.992C44.952 55.992 45.84 55.936 46.624 55.824C47.424 55.696 48.152 55.512 48.808 55.272C49.48 55.032 50.112 54.728 50.704 54.36C51.296 53.976 51.88 53.52 52.456 52.992C52.584 52.88 52.72 52.792 52.864 52.728C53.008 52.648 53.16 52.608 53.32 52.608ZM70.18 35.232C71.972 35.232 73.588 35.528 75.028 36.12C76.484 36.696 77.716 37.536 78.724 38.64C79.748 39.728 80.532 41.048 81.076 42.6C81.62 44.136 81.892 45.864 81.892 47.784C81.892 49.704 81.62 51.44 81.076 52.992C80.532 54.544 79.748 55.864 78.724 56.952C77.716 58.04 76.484 58.88 75.028 59.472C73.588 60.048 71.972 60.336 70.18 60.336C68.372 60.336 66.74 60.048 65.284 59.472C63.844 58.88 62.612 58.04 61.588 56.952C60.564 55.864 59.772 54.544 59.212 52.992C58.668 51.44 58.396 49.704 58.396 47.784C58.396 45.864 58.668 44.136 59.212 42.6C59.772 41.048 60.564 39.728 61.588 38.64C62.612 37.536 63.844 36.696 65.284 36.12C66.74 35.528 68.372 35.232 70.18 35.232ZM70.18 56.688C72.484 56.688 74.204 55.912 75.34 54.36C76.476 52.808 77.044 50.624 77.044 47.808C77.044 44.992 76.476 42.808 75.34 41.256C74.204 39.688 72.484 38.904 70.18 38.904C67.844 38.904 66.1 39.688 64.948 41.256C63.812 42.808 63.244 44.992 63.244 47.808C63.244 50.624 63.812 52.808 64.948 54.36C66.1 55.912 67.844 56.688 70.18 56.688ZM91.5081 39C92.0361 38.44 92.5881 37.928 93.1641 37.464C93.7401 37 94.3481 36.608 94.9881 36.288C95.6441 35.952 96.3401 35.696 97.0761 35.52C97.8281 35.328 98.6281 35.232 99.4761 35.232C100.82 35.232 101.996 35.456 103.004 35.904C104.028 36.352 104.884 36.984 105.572 37.8C106.26 38.6 106.78 39.568 107.132 40.704C107.484 41.84 107.66 43.096 107.66 44.472V60H102.956V44.472C102.956 42.728 102.556 41.376 101.756 40.416C100.956 39.44 99.7321 38.952 98.0841 38.952C96.8841 38.952 95.7561 39.24 94.7001 39.816C93.6601 40.376 92.6921 41.144 91.7961 42.12V60H87.1161V35.616H89.9241C90.5801 35.616 90.9881 35.928 91.1481 36.552L91.5081 39ZM115.233 60V39.456L112.689 39.144C112.321 39.064 112.017 38.936 111.777 38.76C111.553 38.568 111.441 38.296 111.441 37.944V36H115.233V34.824C115.233 33.336 115.465 31.968 115.929 30.72C116.409 29.456 117.121 28.368 118.065 27.456C119.025 26.544 120.209 25.84 121.617 25.344C123.041 24.832 124.705 24.576 126.609 24.576C127.217 24.576 127.857 24.616 128.529 24.696C129.201 24.776 129.769 24.896 130.233 25.056L130.065 27.504C130.033 27.824 129.833 27.992 129.465 28.008C129.097 28.024 128.585 28.032 127.929 28.032C126.473 28.032 125.233 28.176 124.209 28.464C123.185 28.752 122.345 29.184 121.689 29.76C121.033 30.336 120.553 31.064 120.249 31.944C119.945 32.808 119.793 33.816 119.793 34.968V36H134.625V60H129.921V39.408H119.937V60H115.233ZM145.813 40.296C146.597 38.696 147.541 37.44 148.645 36.528C149.749 35.616 151.077 35.16 152.629 35.16C153.157 35.16 153.653 35.224 154.117 35.352C154.597 35.464 155.013 35.64 155.365 35.88L155.053 39.408C154.941 39.84 154.677 40.056 154.261 40.056C154.037 40.056 153.701 40.016 153.253 39.936C152.805 39.84 152.325 39.792 151.813 39.792C151.061 39.792 150.397 39.904 149.821 40.128C149.245 40.336 148.725 40.656 148.261 41.088C147.813 41.504 147.413 42.024 147.061 42.648C146.709 43.256 146.381 43.952 146.077 44.736V60H141.397V35.616H144.085C144.597 35.616 144.941 35.712 145.117 35.904C145.309 36.08 145.445 36.4 145.525 36.864L145.813 40.296ZM158.976 60V35.616H161.784C162.44 35.616 162.848 35.928 163.008 36.552L163.344 38.88C164.24 37.808 165.232 36.936 166.32 36.264C167.424 35.576 168.712 35.232 170.184 35.232C171.8 35.232 173.112 35.68 174.12 36.576C175.128 37.456 175.864 38.656 176.328 40.176C176.68 39.312 177.136 38.568 177.696 37.944C178.256 37.32 178.88 36.808 179.568 36.408C180.256 36.008 180.984 35.712 181.752 35.52C182.536 35.328 183.328 35.232 184.128 35.232C185.424 35.232 186.576 35.44 187.584 35.856C188.608 36.256 189.472 36.848 190.176 37.632C190.88 38.416 191.416 39.384 191.784 40.536C192.152 41.688 192.336 43 192.336 44.472V60H187.632V44.472C187.632 42.648 187.232 41.272 186.432 40.344C185.648 39.416 184.496 38.952 182.976 38.952C182.304 38.952 181.664 39.072 181.056 39.312C180.448 39.536 179.912 39.88 179.448 40.344C179 40.808 178.64 41.384 178.368 42.072C178.112 42.76 177.984 43.56 177.984 44.472V60H173.28V44.472C173.28 42.584 172.904 41.192 172.152 40.296C171.4 39.4 170.296 38.952 168.84 38.952C167.832 38.952 166.896 39.216 166.032 39.744C165.168 40.272 164.376 40.992 163.656 41.904V60H158.976ZM211.736 49.176C209.832 49.24 208.216 49.392 206.888 49.632C205.56 49.856 204.48 50.16 203.648 50.544C202.816 50.928 202.216 51.384 201.848 51.912C201.48 52.424 201.296 53 201.296 53.64C201.296 54.248 201.392 54.776 201.584 55.224C201.792 55.656 202.064 56.016 202.4 56.304C202.752 56.576 203.16 56.776 203.624 56.904C204.088 57.032 204.592 57.096 205.136 57.096C205.856 57.096 206.512 57.024 207.104 56.88C207.712 56.736 208.28 56.536 208.808 56.28C209.336 56.008 209.84 55.68 210.32 55.296C210.8 54.912 211.272 54.472 211.736 53.976V49.176ZM198.008 39.024C199.368 37.728 200.84 36.76 202.424 36.12C204.024 35.48 205.776 35.16 207.68 35.16C209.072 35.16 210.304 35.392 211.376 35.856C212.448 36.304 213.352 36.936 214.088 37.752C214.824 38.568 215.376 39.544 215.744 40.68C216.128 41.816 216.32 43.072 216.32 44.448V60H214.232C213.768 60 213.416 59.928 213.176 59.784C212.936 59.624 212.744 59.336 212.6 58.92L212.096 56.784C211.472 57.36 210.856 57.872 210.248 58.32C209.64 58.752 209 59.128 208.328 59.448C207.672 59.752 206.968 59.984 206.216 60.144C205.464 60.304 204.632 60.384 203.72 60.384C202.76 60.384 201.856 60.256 201.008 60C200.176 59.728 199.448 59.32 198.824 58.776C198.2 58.232 197.704 57.552 197.336 56.736C196.984 55.92 196.808 54.968 196.808 53.88C196.808 52.92 197.064 52 197.576 51.12C198.104 50.224 198.952 49.424 200.12 48.72C201.304 48.016 202.84 47.44 204.728 46.992C206.632 46.544 208.968 46.288 211.736 46.224V44.448C211.736 42.608 211.344 41.232 210.56 40.32C209.776 39.408 208.624 38.952 207.104 38.952C206.08 38.952 205.216 39.08 204.512 39.336C203.824 39.592 203.224 39.88 202.712 40.2C202.216 40.504 201.776 40.784 201.392 41.04C201.024 41.296 200.64 41.424 200.24 41.424C199.92 41.424 199.64 41.336 199.4 41.16C199.176 40.984 198.992 40.776 198.848 40.536L198.008 39.024ZM227.001 40.296C227.785 38.696 228.729 37.44 229.833 36.528C230.937 35.616 232.265 35.16 233.817 35.16C234.345 35.16 234.841 35.224 235.305 35.352C235.785 35.464 236.201 35.64 236.553 35.88L236.241 39.408C236.129 39.84 235.865 40.056 235.449 40.056C235.225 40.056 234.889 40.016 234.441 39.936C233.993 39.84 233.513 39.792 233.001 39.792C232.249 39.792 231.585 39.904 231.009 40.128C230.433 40.336 229.913 40.656 229.449 41.088C229.001 41.504 228.601 42.024 228.249 42.648C227.897 43.256 227.569 43.952 227.265 44.736V60H222.585V35.616H225.273C225.785 35.616 226.129 35.712 226.305 35.904C226.497 36.08 226.633 36.4 226.713 36.864L227.001 40.296Z" fill="black"/>
</svg>
