<svg width="550" height="550" viewBox="0 0 550 550" fill="none" xmlns="http://www.w3.org/2000/svg">
<rect width="550" height="550" fill="#D9D9D9"/>
<rect width="550" height="550" fill="#FE9359"/>
<path d="M52.34 270.3C52.34 281.64 58.64 284.16 64.46 284.16C70.46 284.16 75.86 281.46 77.42 278.1C77.42 278.1 78.02 278.34 78.74 279C79.4 279.84 80.06 280.86 80.06 282.48C80.06 288.66 70.22 291.66 63.32 291.66C47.36 291.66 42.14 282.84 42.14 270.3C42.14 257.76 47.12 248.58 63.14 248.58C71.54 248.58 79.34 252.18 79.34 258.54C79.34 261.66 75.86 263.1 75.86 263.1C74.96 260.4 70.94 257.1 63.8 257.1C57.5 257.1 52.34 260.16 52.34 270.3ZM95.1552 291V279L78.1752 249H82.7352C87.6552 249 89.1552 249.66 91.1952 253.44C95.6952 262.26 100.135 271.5 100.135 271.5C100.135 271.5 104.575 262.26 109.195 253.5C111.235 249.66 112.255 249 117.355 249H121.975L104.935 279V291H95.1552ZM124.171 291V249.24C127.351 248.94 136.831 248.7 141.751 248.7C154.231 248.7 158.851 253.68 158.851 260.1C158.851 266.1 154.171 267.66 153.391 267.9C154.051 268.08 160.771 269.58 160.771 278.58C160.771 287.16 154.051 291.18 143.251 291.18C137.431 291.18 130.831 291 124.171 291ZM134.071 271.86V283.2H142.831C147.451 283.2 150.391 281.4 150.391 277.56C150.391 273.6 147.451 271.86 142.831 271.86H134.071ZM134.071 256.5V264.96H141.331C146.671 264.96 148.231 263.16 148.231 260.7C148.231 258.3 146.671 256.5 141.331 256.5H134.071ZM163.019 291V249H195.839C196.439 251.58 196.739 257.16 190.919 257.16H172.919V265.5H193.619V272.64H172.919V283.2H190.739C197.219 283.2 197.339 288.54 196.619 291H163.019ZM225.45 291L218.91 280.68L209.13 280.56V291H199.23V249.6C205.11 249.06 210.63 248.64 215.25 248.64C228.75 248.64 236.79 251.94 236.79 264.78C236.79 272.04 234.45 276.54 229.23 278.88L238.23 291H225.45ZM209.13 256.68V273.3C223.53 273.84 226.35 273.3 226.35 265.08C226.35 256.68 221.25 255.84 209.13 256.68ZM240.421 291V249.24C243.601 248.94 253.081 248.7 258.001 248.7C270.481 248.7 275.101 253.68 275.101 260.1C275.101 266.1 270.421 267.66 269.641 267.9C270.301 268.08 277.021 269.58 277.021 278.58C277.021 287.16 270.301 291.18 259.501 291.18C253.681 291.18 247.081 291 240.421 291ZM250.321 271.86V283.2H259.081C263.701 283.2 266.641 281.4 266.641 277.56C266.641 273.6 263.701 271.86 259.081 271.86H250.321ZM250.321 256.5V264.96H257.581C262.921 264.96 264.481 263.16 264.481 260.7C264.481 258.3 262.921 256.5 257.581 256.5H250.321ZM289.169 253.5V270.3C289.169 277.74 289.949 283.8 299.189 283.8C308.429 283.8 309.329 277.74 309.329 270.3V249H314.189C317.429 249 319.229 249.6 319.229 253.5V270.24C319.229 285.3 313.529 291.66 299.129 291.66C284.549 291.66 279.269 285.36 279.269 270.3V249H284.129C287.369 249 289.169 249.6 289.169 253.5ZM321.515 291V249H325.415C329.615 249 331.415 249.3 331.415 253.5V283.2H351.515V291H321.515ZM353.742 291V249H357.642C361.842 249 363.642 249.3 363.642 253.5V283.2H383.742V291H353.742ZM388.475 291V279L371.495 249H376.055C380.975 249 382.475 249.66 384.515 253.44C389.015 262.26 393.455 271.5 393.455 271.5C393.455 271.5 397.895 262.26 402.515 253.5C404.555 249.66 405.575 249 410.675 249H415.295L398.255 279V291H388.475ZM427.392 253.5V291H417.492V249H421.272C423.852 249 427.392 249.66 427.392 253.5ZM455.9 291L439.4 262.98V291H429.62V249H435.32C441.5 249 442.1 250.98 444.5 255L455.9 274.56V249H459.74C464.3 249 465.74 249.36 465.74 253.5V291H455.9ZM478.079 270.78C478.079 279.36 482.519 284.16 488.759 284.16C493.859 284.16 496.199 282.3 496.199 282.3V270.24H501.119C504.779 270.24 506.159 272.46 506.159 276.24V286.44C502.619 289.98 497.219 291.6 489.419 291.6C473.819 291.6 467.999 284.16 467.999 270.24C467.999 255.18 474.899 248.7 489.419 248.7C499.919 248.7 505.199 253.86 505.199 258.24C505.199 260.58 503.219 262.14 501.719 263.1C501.119 261 497.279 257.16 490.019 257.16C482.999 257.16 478.079 260.7 478.079 270.78Z" fill="white"/>
</svg>
