<svg width="116" height="39" viewBox="0 0 116 39" fill="none" xmlns="http://www.w3.org/2000/svg">
<mask id="mask0_224_3" style="mask-type:luminance" maskUnits="userSpaceOnUse" x="7" y="0" width="105" height="39">
<path d="M7 39L112 39V-2.17371e-06L7 -2.17371e-06L7 39Z" fill="white"/>
</mask>
<g mask="url(#mask0_224_3)">
<path d="M110.403 2.34143C109.797 3.21908 109.373 4.26289 109.031 5.38416C109.059 5.6655 109.078 5.95092 109.078 6.24449V33.0613C109.078 36.3405 107.294 39 105.093 39L10.9845 39C8.78395 39 7 36.3405 7 33.0613V6.24449C7 2.96425 8.78395 0.306824 10.9845 0.306824L105.093 0.306824C105.788 0.306824 106.441 0.572872 107.009 1.03769C107.665 0.503557 108.398 0.178387 109.143 0.100917C109.97 0.0122343 110.839 0.193677 111.657 0.378178C111.772 0.403661 111.886 0.432203 112 0.460745C111.468 1.08356 110.888 1.63706 110.403 2.34143Z" fill="#A29AFF" fill-opacity="0.3"/>
<path d="M110.091 1.10614C109.795 1.07408 109.516 1.06666 109.249 1.09523L109.246 1.09556C108.723 1.14994 108.17 1.38254 107.641 1.81314L107.008 2.32836L106.376 1.81182C105.955 1.46757 105.52 1.30682 105.093 1.30682L10.9845 1.30682C10.3194 1.30682 9.5978 1.70819 8.99738 2.60283C8.40122 3.49112 8 4.77554 8 6.24449V33.0613C8 34.5297 8.4012 35.8145 8.99747 36.7032C9.59806 37.5985 10.3197 38 10.9845 38L105.093 38C105.758 38 106.48 37.5985 107.08 36.7032C107.677 35.8145 108.078 34.5297 108.078 33.0613V6.24449C108.078 5.9927 108.062 5.74165 108.036 5.48336L108.016 5.28431L108.075 5.09295C108.43 3.92493 108.891 2.77147 109.58 1.77378L110.091 1.10614ZM110.091 1.10614C109.913 1.3203 109.738 1.54358 109.58 1.7732L110.091 1.10614Z" stroke="#A29AFF" stroke-opacity="0.9" stroke-width="2"/>
</g>
<path d="M30.1109 9.8725C30.1109 10.7875 29.9684 11.6225 29.6834 12.3775C29.4034 13.1275 29.0134 13.7725 28.5134 14.3125C28.0134 14.8475 27.4184 15.2625 26.7284 15.5575C26.0434 15.8525 25.2959 16 24.4859 16H20.7809L22.1009 5.2525H25.8134C26.4734 5.2525 27.0684 5.365 27.5984 5.59C28.1284 5.815 28.5784 6.1325 28.9484 6.5425C29.3234 6.9475 29.6109 7.435 29.8109 8.005C30.0109 8.57 30.1109 9.1925 30.1109 9.8725ZM28.6634 9.9025C28.6634 9.3625 28.5959 8.875 28.4609 8.44C28.3259 8.005 28.1284 7.6375 27.8684 7.3375C27.6134 7.0325 27.3009 6.8 26.9309 6.64C26.5609 6.475 26.1434 6.3925 25.6784 6.3925H23.3759L22.3259 14.8675H24.6284C25.2234 14.8675 25.7684 14.755 26.2634 14.53C26.7584 14.3 27.1834 13.9725 27.5384 13.5475C27.8934 13.1175 28.1684 12.5975 28.3634 11.9875C28.5634 11.3725 28.6634 10.6775 28.6634 9.9025ZM34.9124 9.2575C34.5974 9.2575 34.3074 9.3225 34.0424 9.4525C33.7774 9.5825 33.5424 9.7625 33.3374 9.9925C33.1324 10.2175 32.9574 10.485 32.8124 10.795C32.6674 11.1 32.5549 11.43 32.4749 11.785C33.2449 11.69 33.8624 11.5825 34.3274 11.4625C34.7924 11.3375 35.1499 11.205 35.3999 11.065C35.6499 10.92 35.8149 10.765 35.8949 10.6C35.9749 10.435 36.0149 10.2625 36.0149 10.0825C36.0149 9.9925 35.9949 9.9 35.9549 9.805C35.9149 9.705 35.8499 9.615 35.7599 9.535C35.6749 9.455 35.5624 9.39 35.4224 9.34C35.2824 9.285 35.1124 9.2575 34.9124 9.2575ZM37.0274 14.5975C36.7724 14.8625 36.5224 15.09 36.2774 15.28C36.0324 15.465 35.7824 15.62 35.5274 15.745C35.2774 15.87 35.0124 15.96 34.7324 16.015C34.4574 16.075 34.1599 16.105 33.8399 16.105C33.4049 16.105 33.0149 16.0325 32.6699 15.8875C32.3249 15.7425 32.0324 15.5375 31.7924 15.2725C31.5524 15.0025 31.3674 14.6775 31.2374 14.2975C31.1074 13.9175 31.0424 13.4925 31.0424 13.0225C31.0424 12.6325 31.0824 12.245 31.1624 11.86C31.2474 11.47 31.3674 11.1 31.5224 10.75C31.6824 10.4 31.8749 10.075 32.0999 9.775C32.3299 9.475 32.5899 9.2175 32.8799 9.0025C33.1749 8.7825 33.4974 8.61 33.8474 8.485C34.2024 8.36 34.5824 8.2975 34.9874 8.2975C35.3724 8.2975 35.7049 8.3525 35.9849 8.4625C36.2649 8.5725 36.4949 8.7125 36.6749 8.8825C36.8549 9.0525 36.9874 9.24 37.0724 9.445C37.1624 9.65 37.2074 9.845 37.2074 10.03C37.2074 10.36 37.1399 10.665 37.0049 10.945C36.8699 11.22 36.6224 11.47 36.2624 11.695C35.9024 11.915 35.4074 12.1075 34.7774 12.2725C34.1474 12.4375 33.3374 12.57 32.3474 12.67C32.3474 12.725 32.3449 12.78 32.3399 12.835C32.3399 12.885 32.3399 12.9375 32.3399 12.9925C32.3399 13.6625 32.4849 14.175 32.7749 14.53C33.0699 14.88 33.5124 15.055 34.1024 15.055C34.3424 15.055 34.5549 15.03 34.7399 14.98C34.9299 14.93 35.0974 14.87 35.2424 14.8C35.3924 14.725 35.5224 14.645 35.6324 14.56C35.7474 14.47 35.8499 14.39 35.9399 14.32C36.0349 14.245 36.1224 14.1825 36.2024 14.1325C36.2824 14.0825 36.3624 14.0575 36.4424 14.0575C36.5374 14.0575 36.6224 14.1 36.6974 14.185L37.0274 14.5975ZM43.1252 9.6175C43.0852 9.6775 43.0452 9.7225 43.0052 9.7525C42.9652 9.7775 42.9152 9.79 42.8552 9.79C42.7852 9.79 42.7077 9.7625 42.6227 9.7075C42.5427 9.6525 42.4427 9.5925 42.3227 9.5275C42.2077 9.4575 42.0652 9.395 41.8952 9.34C41.7252 9.28 41.5202 9.25 41.2802 9.25C41.0552 9.25 40.8502 9.2825 40.6652 9.3475C40.4802 9.4075 40.3202 9.4925 40.1852 9.6025C40.0552 9.7125 39.9527 9.8425 39.8777 9.9925C39.8077 10.1375 39.7727 10.2925 39.7727 10.4575C39.7727 10.6925 39.8502 10.88 40.0052 11.02C40.1602 11.16 40.3552 11.2825 40.5902 11.3875C40.8252 11.4875 41.0777 11.585 41.3477 11.68C41.6177 11.775 41.8702 11.895 42.1052 12.04C42.3402 12.185 42.5352 12.37 42.6902 12.595C42.8452 12.82 42.9227 13.1125 42.9227 13.4725C42.9227 13.8225 42.8527 14.1575 42.7127 14.4775C42.5777 14.7975 42.3802 15.08 42.1202 15.325C41.8652 15.565 41.5552 15.7575 41.1902 15.9025C40.8302 16.0475 40.4252 16.12 39.9752 16.12C39.4902 16.12 39.0602 16.035 38.6852 15.865C38.3152 15.69 38.0127 15.4675 37.7777 15.1975L38.1077 14.6875C38.1527 14.6225 38.2002 14.5725 38.2502 14.5375C38.3052 14.5025 38.3752 14.485 38.4602 14.485C38.5402 14.485 38.6202 14.52 38.7002 14.59C38.7802 14.66 38.8802 14.74 39.0002 14.83C39.1202 14.915 39.2702 14.9925 39.4502 15.0625C39.6352 15.1325 39.8677 15.1675 40.1477 15.1675C40.3927 15.1675 40.6127 15.13 40.8077 15.055C41.0077 14.98 41.1752 14.88 41.3102 14.755C41.4502 14.63 41.5552 14.485 41.6252 14.32C41.7002 14.15 41.7377 13.97 41.7377 13.78C41.7377 13.525 41.6602 13.3225 41.5052 13.1725C41.3502 13.0225 41.1552 12.8975 40.9202 12.7975C40.6852 12.6975 40.4327 12.605 40.1627 12.52C39.8927 12.43 39.6402 12.3175 39.4052 12.1825C39.1702 12.0425 38.9752 11.8625 38.8202 11.6425C38.6652 11.4225 38.5877 11.13 38.5877 10.765C38.5877 10.445 38.6502 10.1375 38.7752 9.8425C38.9052 9.5425 39.0902 9.2775 39.3302 9.0475C39.5702 8.8175 39.8602 8.635 40.2002 8.5C40.5452 8.36 40.9327 8.29 41.3627 8.29C41.8177 8.29 42.2177 8.3675 42.5627 8.5225C42.9127 8.6725 43.2127 8.8775 43.4627 9.1375L43.1252 9.6175ZM44.271 16L45.6135 4.9525H46.926L45.5835 16H44.271ZM49.9052 8.4025L48.9902 16H47.6777L48.5927 8.4025H49.9052ZM50.4152 6.0175C50.4152 6.1475 50.3877 6.27 50.3327 6.385C50.2827 6.495 50.2127 6.595 50.1227 6.685C50.0377 6.77 49.9377 6.8375 49.8227 6.8875C49.7127 6.9375 49.5977 6.9625 49.4777 6.9625C49.3627 6.9625 49.2502 6.9375 49.1402 6.8875C49.0302 6.8375 48.9327 6.77 48.8477 6.685C48.7677 6.595 48.7027 6.495 48.6527 6.385C48.6027 6.27 48.5777 6.1475 48.5777 6.0175C48.5777 5.8875 48.6027 5.765 48.6527 5.65C48.7027 5.535 48.7702 5.435 48.8552 5.35C48.9402 5.26 49.0377 5.19 49.1477 5.14C49.2577 5.085 49.3702 5.0575 49.4852 5.0575C49.6052 5.0575 49.7202 5.0825 49.8302 5.1325C49.9452 5.1825 50.0452 5.2525 50.1302 5.3425C50.2152 5.4275 50.2827 5.53 50.3327 5.65C50.3877 5.765 50.4152 5.8875 50.4152 6.0175ZM56.8872 8.4025L56.8122 8.9725C56.8022 9.0675 56.7747 9.16 56.7297 9.25C56.6897 9.335 56.6422 9.4125 56.5872 9.4825L52.2072 14.9575H55.9497L55.8297 16H50.4822L50.5497 15.445C50.5547 15.38 50.5772 15.3025 50.6172 15.2125C50.6572 15.1225 50.7097 15.04 50.7747 14.965L55.1772 9.4525H51.4947L51.6222 8.4025H56.8872ZM62.461 9.3325C62.351 9.3075 62.241 9.2925 62.131 9.2875C62.026 9.2775 61.921 9.2725 61.816 9.2725C61.516 9.2725 61.226 9.3225 60.946 9.4225C60.666 9.5175 60.4035 9.6525 60.1585 9.8275C59.9135 10.0025 59.691 10.2125 59.491 10.4575C59.291 10.6975 59.1185 10.9625 58.9735 11.2525C58.8335 11.5425 58.7235 11.8525 58.6435 12.1825C58.5635 12.5075 58.5235 12.8425 58.5235 13.1875C58.5235 14.3925 58.9085 14.995 59.6785 14.995C59.9235 14.995 60.1635 14.92 60.3985 14.77C60.6335 14.615 60.856 14.4025 61.066 14.1325C61.281 13.8575 61.4785 13.535 61.6585 13.165C61.8385 12.79 61.9985 12.38 62.1385 11.935L62.461 9.3325ZM61.951 13.9975C61.771 14.3175 61.576 14.6075 61.366 14.8675C61.161 15.1275 60.941 15.35 60.706 15.535C60.476 15.715 60.231 15.855 59.971 15.955C59.716 16.055 59.451 16.105 59.176 16.105C58.876 16.105 58.6035 16.0475 58.3585 15.9325C58.1135 15.8125 57.9035 15.64 57.7285 15.415C57.5585 15.185 57.426 14.905 57.331 14.575C57.236 14.24 57.1885 13.8575 57.1885 13.4275C57.1885 12.9775 57.2435 12.54 57.3535 12.115C57.4685 11.685 57.6285 11.28 57.8335 10.9C58.0435 10.52 58.2935 10.1725 58.5835 9.8575C58.8735 9.5375 59.196 9.2625 59.551 9.0325C59.911 8.7975 60.296 8.6175 60.706 8.4925C61.116 8.3625 61.546 8.2975 61.996 8.2975C62.321 8.2975 62.636 8.325 62.941 8.38C63.251 8.43 63.556 8.52 63.856 8.65L62.9485 16H62.2585C62.0835 16 61.9635 15.955 61.8985 15.865C61.8385 15.775 61.8085 15.665 61.8085 15.535L61.951 13.9975ZM69.9327 14.335C70.1227 14.6 70.3502 14.79 70.6152 14.905C70.8802 15.015 71.1502 15.07 71.4252 15.07C71.6852 15.07 71.9302 15.015 72.1602 14.905C72.3902 14.795 72.6002 14.6475 72.7902 14.4625C72.9802 14.2725 73.1502 14.0525 73.3002 13.8025C73.4502 13.5475 73.5752 13.2775 73.6752 12.9925C73.7802 12.7025 73.8602 12.405 73.9152 12.1C73.9702 11.79 73.9977 11.485 73.9977 11.185C73.9977 10.59 73.8902 10.1375 73.6752 9.8275C73.4602 9.5175 73.1577 9.3625 72.7677 9.3625C72.5277 9.3625 72.2852 9.4375 72.0402 9.5875C71.7952 9.7325 71.5577 9.9375 71.3277 10.2025C71.1027 10.4675 70.8902 10.7825 70.6902 11.1475C70.4952 11.5125 70.3252 11.9125 70.1802 12.3475L69.9327 14.335ZM70.3377 10.465C70.5277 10.135 70.7352 9.8375 70.9602 9.5725C71.1852 9.3025 71.4227 9.0725 71.6727 8.8825C71.9227 8.6925 72.1802 8.5475 72.4452 8.4475C72.7152 8.3425 72.9902 8.29 73.2702 8.29C73.9202 8.29 74.4227 8.525 74.7777 8.995C75.1377 9.465 75.3177 10.1525 75.3177 11.0575C75.3177 11.4675 75.2752 11.8775 75.1902 12.2875C75.1052 12.6975 74.9827 13.09 74.8227 13.465C74.6677 13.835 74.4777 14.1825 74.2527 14.5075C74.0327 14.8275 73.7852 15.1075 73.5102 15.3475C73.2402 15.5825 72.9452 15.7675 72.6252 15.9025C72.3052 16.0375 71.9702 16.105 71.6202 16.105C71.2452 16.105 70.9052 16.0325 70.6002 15.8875C70.2952 15.7375 70.0352 15.5275 69.8202 15.2575L69.4152 18.5725H68.1177L69.3552 8.395H70.0152C70.3152 8.395 70.4652 8.545 70.4652 8.845L70.3377 10.465ZM81.5625 9.3325C81.4525 9.3075 81.3425 9.2925 81.2325 9.2875C81.1275 9.2775 81.0225 9.2725 80.9175 9.2725C80.6175 9.2725 80.3275 9.3225 80.0475 9.4225C79.7675 9.5175 79.505 9.6525 79.26 9.8275C79.015 10.0025 78.7925 10.2125 78.5925 10.4575C78.3925 10.6975 78.22 10.9625 78.075 11.2525C77.935 11.5425 77.825 11.8525 77.745 12.1825C77.665 12.5075 77.625 12.8425 77.625 13.1875C77.625 14.3925 78.01 14.995 78.78 14.995C79.025 14.995 79.265 14.92 79.5 14.77C79.735 14.615 79.9575 14.4025 80.1675 14.1325C80.3825 13.8575 80.58 13.535 80.76 13.165C80.94 12.79 81.1 12.38 81.24 11.935L81.5625 9.3325ZM81.0525 13.9975C80.8725 14.3175 80.6775 14.6075 80.4675 14.8675C80.2625 15.1275 80.0425 15.35 79.8075 15.535C79.5775 15.715 79.3325 15.855 79.0725 15.955C78.8175 16.055 78.5525 16.105 78.2775 16.105C77.9775 16.105 77.705 16.0475 77.46 15.9325C77.215 15.8125 77.005 15.64 76.83 15.415C76.66 15.185 76.5275 14.905 76.4325 14.575C76.3375 14.24 76.29 13.8575 76.29 13.4275C76.29 12.9775 76.345 12.54 76.455 12.115C76.57 11.685 76.73 11.28 76.935 10.9C77.145 10.52 77.395 10.1725 77.685 9.8575C77.975 9.5375 78.2975 9.2625 78.6525 9.0325C79.0125 8.7975 79.3975 8.6175 79.8075 8.4925C80.2175 8.3625 80.6475 8.2975 81.0975 8.2975C81.4225 8.2975 81.7375 8.325 82.0425 8.38C82.3525 8.43 82.6575 8.52 82.9575 8.65L82.05 16H81.36C81.185 16 81.065 15.955 81 15.865C80.94 15.775 80.91 15.665 80.91 15.535L81.0525 13.9975ZM85.9237 10.5175C86.1237 10.0925 86.3387 9.725 86.5687 9.415C86.8037 9.1 87.0487 8.855 87.3037 8.68C87.5587 8.5 87.8212 8.3925 88.0912 8.3575C88.3612 8.3175 88.6362 8.3575 88.9162 8.4775L88.6762 9.76C88.0262 9.5 87.4512 9.595 86.9512 10.045C86.4562 10.495 86.0537 11.3075 85.7437 12.4825L85.3237 16H84.0187L84.9337 8.395H85.5937C85.8987 8.395 86.0512 8.545 86.0512 8.845L85.9237 10.5175ZM93.9405 9.3325C93.8305 9.3075 93.7205 9.2925 93.6105 9.2875C93.5055 9.2775 93.4005 9.2725 93.2955 9.2725C92.9955 9.2725 92.7055 9.3225 92.4255 9.4225C92.1455 9.5175 91.883 9.6525 91.638 9.8275C91.393 10.0025 91.1705 10.2125 90.9705 10.4575C90.7705 10.6975 90.598 10.9625 90.453 11.2525C90.313 11.5425 90.203 11.8525 90.123 12.1825C90.043 12.5075 90.003 12.8425 90.003 13.1875C90.003 14.3925 90.388 14.995 91.158 14.995C91.403 14.995 91.643 14.92 91.878 14.77C92.113 14.615 92.3355 14.4025 92.5455 14.1325C92.7605 13.8575 92.958 13.535 93.138 13.165C93.318 12.79 93.478 12.38 93.618 11.935L93.9405 9.3325ZM93.4305 13.9975C93.2505 14.3175 93.0555 14.6075 92.8455 14.8675C92.6405 15.1275 92.4205 15.35 92.1855 15.535C91.9555 15.715 91.7105 15.855 91.4505 15.955C91.1955 16.055 90.9305 16.105 90.6555 16.105C90.3555 16.105 90.083 16.0475 89.838 15.9325C89.593 15.8125 89.383 15.64 89.208 15.415C89.038 15.185 88.9055 14.905 88.8105 14.575C88.7155 14.24 88.668 13.8575 88.668 13.4275C88.668 12.9775 88.723 12.54 88.833 12.115C88.948 11.685 89.108 11.28 89.313 10.9C89.523 10.52 89.773 10.1725 90.063 9.8575C90.353 9.5375 90.6755 9.2625 91.0305 9.0325C91.3905 8.7975 91.7755 8.6175 92.1855 8.4925C92.5955 8.3625 93.0255 8.2975 93.4755 8.2975C93.8005 8.2975 94.1155 8.325 94.4205 8.38C94.7305 8.43 95.0355 8.52 95.3355 8.65L94.428 16H93.738C93.563 16 93.443 15.955 93.378 15.865C93.318 15.775 93.288 15.665 93.288 15.535L93.4305 13.9975ZM17.0288 27.3325C16.9188 27.3075 16.8088 27.2925 16.6988 27.2875C16.5938 27.2775 16.4888 27.2725 16.3838 27.2725C16.0838 27.2725 15.7938 27.3225 15.5138 27.4225C15.2338 27.5175 14.9713 27.6525 14.7263 27.8275C14.4813 28.0025 14.2588 28.2125 14.0588 28.4575C13.8588 28.6975 13.6863 28.9625 13.5413 29.2525C13.4013 29.5425 13.2913 29.8525 13.2113 30.1825C13.1313 30.5075 13.0913 30.8425 13.0913 31.1875C13.0913 32.3925 13.4763 32.995 14.2463 32.995C14.4913 32.995 14.7313 32.92 14.9663 32.77C15.2013 32.615 15.4238 32.4025 15.6338 32.1325C15.8488 31.8575 16.0463 31.535 16.2263 31.165C16.4063 30.79 16.5663 30.38 16.7063 29.935L17.0288 27.3325ZM16.5188 31.9975C16.3388 32.3175 16.1438 32.6075 15.9338 32.8675C15.7288 33.1275 15.5088 33.35 15.2738 33.535C15.0438 33.715 14.7988 33.855 14.5388 33.955C14.2838 34.055 14.0188 34.105 13.7438 34.105C13.4438 34.105 13.1713 34.0475 12.9263 33.9325C12.6813 33.8125 12.4713 33.64 12.2963 33.415C12.1263 33.185 11.9938 32.905 11.8988 32.575C11.8038 32.24 11.7563 31.8575 11.7563 31.4275C11.7563 30.9775 11.8113 30.54 11.9213 30.115C12.0363 29.685 12.1963 29.28 12.4013 28.9C12.6113 28.52 12.8613 28.1725 13.1513 27.8575C13.4413 27.5375 13.7638 27.2625 14.1188 27.0325C14.4788 26.7975 14.8638 26.6175 15.2738 26.4925C15.6838 26.3625 16.1138 26.2975 16.5638 26.2975C16.8888 26.2975 17.2038 26.325 17.5088 26.38C17.8188 26.43 18.1238 26.52 18.4238 26.65L17.5163 34H16.8263C16.6513 34 16.5313 33.955 16.4663 33.865C16.4063 33.775 16.3763 33.665 16.3763 33.535L16.5188 31.9975ZM25.1775 32.635C24.9175 32.92 24.67 33.1575 24.435 33.3475C24.2 33.5375 23.965 33.69 23.73 33.805C23.495 33.915 23.25 33.9925 22.995 34.0375C22.745 34.0825 22.475 34.105 22.185 34.105C21.745 34.105 21.355 34.03 21.015 33.88C20.68 33.73 20.3975 33.52 20.1675 33.25C19.9425 32.975 19.77 32.6475 19.65 32.2675C19.535 31.8825 19.4775 31.46 19.4775 31C19.4775 30.385 19.5725 29.795 19.7625 29.23C19.9575 28.665 20.2275 28.165 20.5725 27.73C20.9175 27.295 21.3275 26.9475 21.8025 26.6875C22.2825 26.4275 22.805 26.2975 23.37 26.2975C23.875 26.2975 24.2975 26.3875 24.6375 26.5675C24.9775 26.7425 25.275 27 25.53 27.34L25.11 27.8425C25.075 27.8825 25.035 27.915 24.99 27.94C24.95 27.965 24.9025 27.9775 24.8475 27.9775C24.7775 27.9775 24.7075 27.9475 24.6375 27.8875C24.5725 27.8225 24.485 27.7525 24.375 27.6775C24.265 27.5975 24.1275 27.5275 23.9625 27.4675C23.8025 27.4025 23.595 27.37 23.34 27.37C22.995 27.37 22.67 27.465 22.365 27.655C22.06 27.84 21.7925 28.095 21.5625 28.42C21.3325 28.745 21.15 29.13 21.015 29.575C20.885 30.02 20.82 30.4975 20.82 31.0075C20.82 31.3175 20.855 31.6 20.925 31.855C20.995 32.105 21.1 32.32 21.24 32.5C21.38 32.675 21.55 32.8125 21.75 32.9125C21.955 33.0075 22.1925 33.055 22.4625 33.055C22.7975 33.055 23.0775 33.005 23.3025 32.905C23.5325 32.805 23.725 32.6975 23.88 32.5825C24.035 32.4625 24.165 32.3525 24.27 32.2525C24.38 32.1525 24.4875 32.1025 24.5925 32.1025C24.6875 32.1025 24.7725 32.145 24.8475 32.23L25.1775 32.635ZM29.105 33.0625C29.47 33.0625 29.8 32.9625 30.095 32.7625C30.395 32.5625 30.65 32.2975 30.86 31.9675C31.075 31.6325 31.24 31.2475 31.355 30.8125C31.47 30.3775 31.5275 29.9225 31.5275 29.4475C31.5275 28.7475 31.3875 28.2225 31.1075 27.8725C30.8325 27.5175 30.435 27.34 29.915 27.34C29.545 27.34 29.21 27.44 28.91 27.64C28.615 27.835 28.3625 28.0975 28.1525 28.4275C27.9425 28.7575 27.78 29.14 27.665 29.575C27.55 30.01 27.4925 30.465 27.4925 30.94C27.4925 31.64 27.63 32.17 27.905 32.53C28.18 32.885 28.58 33.0625 29.105 33.0625ZM28.9775 34.105C28.5625 34.105 28.1825 34.035 27.8375 33.895C27.4925 33.75 27.195 33.5425 26.945 33.2725C26.695 33.0025 26.5 32.6725 26.36 32.2825C26.22 31.8925 26.15 31.4475 26.15 30.9475C26.15 30.3075 26.25 29.705 26.45 29.14C26.65 28.575 26.925 28.0825 27.275 27.6625C27.625 27.2375 28.035 26.9025 28.505 26.6575C28.98 26.4125 29.49 26.29 30.035 26.29C30.45 26.29 30.83 26.3625 31.175 26.5075C31.52 26.6475 31.8175 26.8525 32.0675 27.1225C32.3175 27.3925 32.5125 27.7225 32.6525 28.1125C32.7925 28.5025 32.8625 28.945 32.8625 29.44C32.8625 30.075 32.7625 30.675 32.5625 31.24C32.3625 31.805 32.0875 32.3 31.7375 32.725C31.3925 33.15 30.9825 33.4875 30.5075 33.7375C30.0325 33.9825 29.5225 34.105 28.9775 34.105ZM34.3965 32.5675C34.3965 32.5375 34.3965 32.5 34.3965 32.455C34.3965 32.405 34.399 32.335 34.404 32.245C34.414 32.155 34.4265 32.0375 34.4415 31.8925C34.4615 31.7475 34.4865 31.5575 34.5165 31.3225L34.9815 27.52H34.134C34.064 27.52 34.0065 27.4975 33.9615 27.4525C33.9215 27.4025 33.9065 27.3275 33.9165 27.2275L33.9765 26.695L35.1465 26.5375L35.7165 24.19C35.7415 24.115 35.779 24.055 35.829 24.01C35.884 23.96 35.9515 23.935 36.0315 23.935H36.729L36.4065 26.5525H38.4015L38.289 27.52H36.2865L35.829 31.255C35.804 31.46 35.784 31.625 35.769 31.75C35.754 31.875 35.7415 31.975 35.7315 32.05C35.7265 32.125 35.7215 32.1775 35.7165 32.2075C35.7165 32.2375 35.7165 32.26 35.7165 32.275C35.7165 32.53 35.7765 32.72 35.8965 32.845C36.0165 32.965 36.1765 33.025 36.3765 33.025C36.5115 33.025 36.6265 33.0075 36.7215 32.9725C36.8215 32.9325 36.909 32.89 36.984 32.845C37.059 32.8 37.1215 32.76 37.1715 32.725C37.2215 32.685 37.264 32.665 37.299 32.665C37.344 32.665 37.3765 32.675 37.3965 32.695C37.4215 32.715 37.444 32.7475 37.464 32.7925L37.749 33.43C37.504 33.645 37.224 33.815 36.909 33.94C36.599 34.06 36.2865 34.12 35.9715 34.12C35.4865 34.12 35.104 33.9875 34.824 33.7225C34.549 33.4575 34.4065 33.0725 34.3965 32.5675ZM44.1724 27.3325C44.0624 27.3075 43.9524 27.2925 43.8424 27.2875C43.7374 27.2775 43.6324 27.2725 43.5274 27.2725C43.2274 27.2725 42.9374 27.3225 42.6574 27.4225C42.3774 27.5175 42.1149 27.6525 41.8699 27.8275C41.6249 28.0025 41.4024 28.2125 41.2024 28.4575C41.0024 28.6975 40.8299 28.9625 40.6849 29.2525C40.5449 29.5425 40.4349 29.8525 40.3549 30.1825C40.2749 30.5075 40.2349 30.8425 40.2349 31.1875C40.2349 32.3925 40.6199 32.995 41.3899 32.995C41.6349 32.995 41.8749 32.92 42.1099 32.77C42.3449 32.615 42.5674 32.4025 42.7774 32.1325C42.9924 31.8575 43.1899 31.535 43.3699 31.165C43.5499 30.79 43.7099 30.38 43.8499 29.935L44.1724 27.3325ZM43.6624 31.9975C43.4824 32.3175 43.2874 32.6075 43.0774 32.8675C42.8724 33.1275 42.6524 33.35 42.4174 33.535C42.1874 33.715 41.9424 33.855 41.6824 33.955C41.4274 34.055 41.1624 34.105 40.8874 34.105C40.5874 34.105 40.3149 34.0475 40.0699 33.9325C39.8249 33.8125 39.6149 33.64 39.4399 33.415C39.2699 33.185 39.1374 32.905 39.0424 32.575C38.9474 32.24 38.8999 31.8575 38.8999 31.4275C38.8999 30.9775 38.9549 30.54 39.0649 30.115C39.1799 29.685 39.3399 29.28 39.5449 28.9C39.7549 28.52 40.0049 28.1725 40.2949 27.8575C40.5849 27.5375 40.9074 27.2625 41.2624 27.0325C41.6224 26.7975 42.0074 26.6175 42.4174 26.4925C42.8274 26.3625 43.2574 26.2975 43.7074 26.2975C44.0324 26.2975 44.3474 26.325 44.6524 26.38C44.9624 26.43 45.2674 26.52 45.5674 26.65L44.6599 34H43.9699C43.7949 34 43.6749 33.955 43.6099 33.865C43.5499 33.775 43.5199 33.665 43.5199 33.535L43.6624 31.9975ZM48.5335 28.5175C48.7335 28.0925 48.9485 27.725 49.1785 27.415C49.4135 27.1 49.6585 26.855 49.9135 26.68C50.1685 26.5 50.431 26.3925 50.701 26.3575C50.971 26.3175 51.246 26.3575 51.526 26.4775L51.286 27.76C50.636 27.5 50.061 27.595 49.561 28.045C49.066 28.495 48.6635 29.3075 48.3535 30.4825L47.9335 34H46.6285L47.5435 26.395H48.2035C48.5085 26.395 48.661 26.545 48.661 26.845L48.5335 28.5175ZM55.0303 34L56.3728 22.9525H57.6853L56.3428 34H55.0303ZM61.3169 33.0625C61.6819 33.0625 62.0119 32.9625 62.3069 32.7625C62.6069 32.5625 62.8619 32.2975 63.0719 31.9675C63.2869 31.6325 63.4519 31.2475 63.5669 30.8125C63.6819 30.3775 63.7394 29.9225 63.7394 29.4475C63.7394 28.7475 63.5994 28.2225 63.3194 27.8725C63.0444 27.5175 62.6469 27.34 62.1269 27.34C61.7569 27.34 61.4219 27.44 61.1219 27.64C60.8269 27.835 60.5744 28.0975 60.3644 28.4275C60.1544 28.7575 59.9919 29.14 59.8769 29.575C59.7619 30.01 59.7044 30.465 59.7044 30.94C59.7044 31.64 59.8419 32.17 60.1169 32.53C60.3919 32.885 60.7919 33.0625 61.3169 33.0625ZM61.1894 34.105C60.7744 34.105 60.3944 34.035 60.0494 33.895C59.7044 33.75 59.4069 33.5425 59.1569 33.2725C58.9069 33.0025 58.7119 32.6725 58.5719 32.2825C58.4319 31.8925 58.3619 31.4475 58.3619 30.9475C58.3619 30.3075 58.4619 29.705 58.6619 29.14C58.8619 28.575 59.1369 28.0825 59.4869 27.6625C59.8369 27.2375 60.2469 26.9025 60.7169 26.6575C61.1919 26.4125 61.7019 26.29 62.2469 26.29C62.6619 26.29 63.0419 26.3625 63.3869 26.5075C63.7319 26.6475 64.0294 26.8525 64.2794 27.1225C64.5294 27.3925 64.7244 27.7225 64.8644 28.1125C65.0044 28.5025 65.0744 28.945 65.0744 29.44C65.0744 30.075 64.9744 30.675 64.7744 31.24C64.5744 31.805 64.2994 32.3 63.9494 32.725C63.6044 33.15 63.1944 33.4875 62.7194 33.7375C62.2444 33.9825 61.7344 34.105 61.1894 34.105ZM71.0378 27.6175C70.9978 27.6775 70.9578 27.7225 70.9178 27.7525C70.8778 27.7775 70.8278 27.79 70.7678 27.79C70.6978 27.79 70.6203 27.7625 70.5353 27.7075C70.4553 27.6525 70.3553 27.5925 70.2353 27.5275C70.1203 27.4575 69.9778 27.395 69.8078 27.34C69.6378 27.28 69.4328 27.25 69.1928 27.25C68.9678 27.25 68.7628 27.2825 68.5778 27.3475C68.3928 27.4075 68.2328 27.4925 68.0978 27.6025C67.9678 27.7125 67.8653 27.8425 67.7903 27.9925C67.7203 28.1375 67.6853 28.2925 67.6853 28.4575C67.6853 28.6925 67.7628 28.88 67.9178 29.02C68.0728 29.16 68.2678 29.2825 68.5028 29.3875C68.7378 29.4875 68.9903 29.585 69.2603 29.68C69.5303 29.775 69.7828 29.895 70.0178 30.04C70.2528 30.185 70.4478 30.37 70.6028 30.595C70.7578 30.82 70.8353 31.1125 70.8353 31.4725C70.8353 31.8225 70.7653 32.1575 70.6253 32.4775C70.4903 32.7975 70.2928 33.08 70.0328 33.325C69.7778 33.565 69.4678 33.7575 69.1028 33.9025C68.7428 34.0475 68.3378 34.12 67.8878 34.12C67.4028 34.12 66.9728 34.035 66.5978 33.865C66.2278 33.69 65.9253 33.4675 65.6903 33.1975L66.0203 32.6875C66.0653 32.6225 66.1128 32.5725 66.1628 32.5375C66.2178 32.5025 66.2878 32.485 66.3728 32.485C66.4528 32.485 66.5328 32.52 66.6128 32.59C66.6928 32.66 66.7928 32.74 66.9128 32.83C67.0328 32.915 67.1828 32.9925 67.3628 33.0625C67.5478 33.1325 67.7803 33.1675 68.0603 33.1675C68.3053 33.1675 68.5253 33.13 68.7203 33.055C68.9203 32.98 69.0878 32.88 69.2228 32.755C69.3628 32.63 69.4678 32.485 69.5378 32.32C69.6128 32.15 69.6503 31.97 69.6503 31.78C69.6503 31.525 69.5728 31.3225 69.4178 31.1725C69.2628 31.0225 69.0678 30.8975 68.8328 30.7975C68.5978 30.6975 68.3453 30.605 68.0753 30.52C67.8053 30.43 67.5528 30.3175 67.3178 30.1825C67.0828 30.0425 66.8878 29.8625 66.7328 29.6425C66.5778 29.4225 66.5003 29.13 66.5003 28.765C66.5003 28.445 66.5628 28.1375 66.6878 27.8425C66.8178 27.5425 67.0028 27.2775 67.2428 27.0475C67.4828 26.8175 67.7728 26.635 68.1128 26.5C68.4578 26.36 68.8453 26.29 69.2753 26.29C69.7303 26.29 70.1303 26.3675 70.4753 26.5225C70.8253 26.6725 71.1253 26.8775 71.3753 27.1375L71.0378 27.6175ZM80.8667 27.3325C80.7567 27.3075 80.6467 27.2925 80.5367 27.2875C80.4317 27.2775 80.3267 27.2725 80.2217 27.2725C79.9217 27.2725 79.6317 27.3225 79.3517 27.4225C79.0717 27.5175 78.8092 27.6525 78.5642 27.8275C78.3192 28.0025 78.0967 28.2125 77.8967 28.4575C77.6967 28.6975 77.5242 28.9625 77.3792 29.2525C77.2392 29.5425 77.1292 29.8525 77.0492 30.1825C76.9692 30.5075 76.9292 30.8425 76.9292 31.1875C76.9292 32.3925 77.3142 32.995 78.0842 32.995C78.3292 32.995 78.5692 32.92 78.8042 32.77C79.0392 32.615 79.2617 32.4025 79.4717 32.1325C79.6867 31.8575 79.8842 31.535 80.0642 31.165C80.2442 30.79 80.4042 30.38 80.5442 29.935L80.8667 27.3325ZM80.3567 31.9975C80.1767 32.3175 79.9817 32.6075 79.7717 32.8675C79.5667 33.1275 79.3467 33.35 79.1117 33.535C78.8817 33.715 78.6367 33.855 78.3767 33.955C78.1217 34.055 77.8567 34.105 77.5817 34.105C77.2817 34.105 77.0092 34.0475 76.7642 33.9325C76.5192 33.8125 76.3092 33.64 76.1342 33.415C75.9642 33.185 75.8317 32.905 75.7367 32.575C75.6417 32.24 75.5942 31.8575 75.5942 31.4275C75.5942 30.9775 75.6492 30.54 75.7592 30.115C75.8742 29.685 76.0342 29.28 76.2392 28.9C76.4492 28.52 76.6992 28.1725 76.9892 27.8575C77.2792 27.5375 77.6017 27.2625 77.9567 27.0325C78.3167 26.7975 78.7017 26.6175 79.1117 26.4925C79.5217 26.3625 79.9517 26.2975 80.4017 26.2975C80.7267 26.2975 81.0417 26.325 81.3467 26.38C81.6567 26.43 81.9617 26.52 82.2617 26.65L81.3542 34H80.6642C80.4892 34 80.3692 33.955 80.3042 33.865C80.2442 33.775 80.2142 33.665 80.2142 33.535L80.3567 31.9975ZM85.2354 28.3225C85.6404 27.6525 86.0979 27.1475 86.6079 26.8075C87.1179 26.4625 87.6429 26.29 88.1829 26.29C88.5029 26.29 88.7829 26.355 89.0229 26.485C89.2679 26.61 89.4654 26.795 89.6154 27.04C89.7704 27.285 89.8754 27.5875 89.9304 27.9475C89.9854 28.3025 89.9854 28.7075 89.9304 29.1625L89.3604 34H88.0329L88.6029 29.1625C88.6729 28.5625 88.6354 28.12 88.4904 27.835C88.3454 27.545 88.0779 27.4 87.6879 27.4C87.4479 27.4 87.2029 27.465 86.9529 27.595C86.7079 27.725 86.4704 27.91 86.2404 28.15C86.0104 28.39 85.7954 28.68 85.5954 29.02C85.4004 29.355 85.2329 29.73 85.0929 30.145L84.6579 34H83.3229L84.2379 26.395H84.8979C85.1979 26.395 85.3479 26.545 85.3479 26.845L85.2354 28.3225ZM88.1829 24.0625C88.5179 24.0625 88.7154 23.8475 88.7754 23.4175H89.5254C89.5004 23.6525 89.4479 23.87 89.3679 24.07C89.2879 24.265 89.1854 24.4325 89.0604 24.5725C88.9354 24.7125 88.7929 24.8225 88.6329 24.9025C88.4779 24.9775 88.3079 25.015 88.1229 25.015C87.9629 25.015 87.8154 24.98 87.6804 24.91C87.5504 24.835 87.4279 24.755 87.3129 24.67C87.1979 24.585 87.0879 24.5075 86.9829 24.4375C86.8829 24.3625 86.7804 24.325 86.6754 24.325C86.3404 24.325 86.1454 24.545 86.0904 24.985H85.3254C85.3504 24.745 85.4029 24.5275 85.4829 24.3325C85.5679 24.1325 85.6729 23.9625 85.7979 23.8225C85.9229 23.6775 86.0654 23.5675 86.2254 23.4925C86.3854 23.4125 86.5554 23.3725 86.7354 23.3725C86.9004 23.3725 87.0479 23.41 87.1779 23.485C87.3079 23.555 87.4304 23.6325 87.5454 23.7175C87.6604 23.8025 87.7679 23.8825 87.8679 23.9575C87.9729 24.0275 88.0779 24.0625 88.1829 24.0625ZM94.232 33.0625C94.597 33.0625 94.927 32.9625 95.222 32.7625C95.522 32.5625 95.777 32.2975 95.987 31.9675C96.202 31.6325 96.367 31.2475 96.482 30.8125C96.597 30.3775 96.6545 29.9225 96.6545 29.4475C96.6545 28.7475 96.5145 28.2225 96.2345 27.8725C95.9595 27.5175 95.562 27.34 95.042 27.34C94.672 27.34 94.337 27.44 94.037 27.64C93.742 27.835 93.4895 28.0975 93.2795 28.4275C93.0695 28.7575 92.907 29.14 92.792 29.575C92.677 30.01 92.6195 30.465 92.6195 30.94C92.6195 31.64 92.757 32.17 93.032 32.53C93.307 32.885 93.707 33.0625 94.232 33.0625ZM94.1045 34.105C93.6895 34.105 93.3095 34.035 92.9645 33.895C92.6195 33.75 92.322 33.5425 92.072 33.2725C91.822 33.0025 91.627 32.6725 91.487 32.2825C91.347 31.8925 91.277 31.4475 91.277 30.9475C91.277 30.3075 91.377 29.705 91.577 29.14C91.777 28.575 92.052 28.0825 92.402 27.6625C92.752 27.2375 93.162 26.9025 93.632 26.6575C94.107 26.4125 94.617 26.29 95.162 26.29C95.577 26.29 95.957 26.3625 96.302 26.5075C96.647 26.6475 96.9445 26.8525 97.1945 27.1225C97.4445 27.3925 97.6395 27.7225 97.7795 28.1125C97.9195 28.5025 97.9895 28.945 97.9895 29.44C97.9895 30.075 97.8895 30.675 97.6895 31.24C97.4895 31.805 97.2145 32.3 96.8645 32.725C96.5195 33.15 96.1095 33.4875 95.6345 33.7375C95.1595 33.9825 94.6495 34.105 94.1045 34.105ZM103.953 27.6175C103.913 27.6775 103.873 27.7225 103.833 27.7525C103.793 27.7775 103.743 27.79 103.683 27.79C103.613 27.79 103.535 27.7625 103.45 27.7075C103.37 27.6525 103.27 27.5925 103.15 27.5275C103.035 27.4575 102.893 27.395 102.723 27.34C102.553 27.28 102.348 27.25 102.108 27.25C101.883 27.25 101.678 27.2825 101.493 27.3475C101.308 27.4075 101.148 27.4925 101.013 27.6025C100.883 27.7125 100.78 27.8425 100.705 27.9925C100.635 28.1375 100.6 28.2925 100.6 28.4575C100.6 28.6925 100.678 28.88 100.833 29.02C100.988 29.16 101.183 29.2825 101.418 29.3875C101.653 29.4875 101.905 29.585 102.175 29.68C102.445 29.775 102.698 29.895 102.933 30.04C103.168 30.185 103.363 30.37 103.518 30.595C103.673 30.82 103.75 31.1125 103.75 31.4725C103.75 31.8225 103.68 32.1575 103.54 32.4775C103.405 32.7975 103.208 33.08 102.948 33.325C102.693 33.565 102.383 33.7575 102.018 33.9025C101.658 34.0475 101.253 34.12 100.803 34.12C100.318 34.12 99.8878 34.035 99.5128 33.865C99.1428 33.69 98.8403 33.4675 98.6053 33.1975L98.9353 32.6875C98.9803 32.6225 99.0278 32.5725 99.0778 32.5375C99.1328 32.5025 99.2028 32.485 99.2878 32.485C99.3678 32.485 99.4478 32.52 99.5278 32.59C99.6078 32.66 99.7078 32.74 99.8278 32.83C99.9478 32.915 100.098 32.9925 100.278 33.0625C100.463 33.1325 100.695 33.1675 100.975 33.1675C101.22 33.1675 101.44 33.13 101.635 33.055C101.835 32.98 102.003 32.88 102.138 32.755C102.278 32.63 102.383 32.485 102.453 32.32C102.528 32.15 102.565 31.97 102.565 31.78C102.565 31.525 102.488 31.3225 102.333 31.1725C102.178 31.0225 101.983 30.8975 101.748 30.7975C101.513 30.6975 101.26 30.605 100.99 30.52C100.72 30.43 100.468 30.3175 100.233 30.1825C99.9978 30.0425 99.8028 29.8625 99.6478 29.6425C99.4928 29.4225 99.4153 29.13 99.4153 28.765C99.4153 28.445 99.4778 28.1375 99.6028 27.8425C99.7328 27.5425 99.9178 27.2775 100.158 27.0475C100.398 26.8175 100.688 26.635 101.028 26.5C101.373 26.36 101.76 26.29 102.19 26.29C102.645 26.29 103.045 26.3675 103.39 26.5225C103.74 26.6725 104.04 26.8775 104.29 27.1375L103.953 27.6175Z" fill="#A29AFF"/>
</svg>
