<svg width="550" height="550" viewBox="0 0 550 550" fill="none" xmlns="http://www.w3.org/2000/svg">
<rect width="550" height="550" fill="#D9D9D9"/>
<rect width="550" height="550" fill="#BC88FF" fill-opacity="0.8"/>
<path d="M64.1752 228V186H96.9952C97.5952 188.58 97.8952 194.16 92.0752 194.16H74.0752V202.5H94.7752V209.64H74.0752V220.2H91.8952C98.3752 220.2 98.4952 225.54 97.7752 228H64.1752ZM131.166 228L121.566 212.1L111.966 228H100.386L114.906 204.96L102.846 186H109.506C113.586 186 115.566 187.5 117.366 190.5L121.566 197.4L125.886 190.5C127.746 187.5 129.666 186 133.566 186H140.346L128.406 204.9L142.866 228H131.166ZM144.038 228V186.6C149.918 186.06 155.318 185.64 159.998 185.64C173.498 185.64 181.538 188.94 181.538 201.78C181.538 215.7 171.698 217.74 162.698 217.74C161.018 217.74 155.498 217.68 153.938 217.56V228H144.038ZM153.938 193.68V210.3C168.938 211.08 171.338 210 171.338 202.08C171.338 194.04 167.138 192.66 153.938 193.68ZM183.765 228V186H216.585C217.185 188.58 217.485 194.16 211.665 194.16H193.665V202.5H214.365V209.64H193.665V220.2H211.485C217.965 220.2 218.085 225.54 217.365 228H183.765ZM227.305 207.3C227.305 218.64 233.605 221.16 239.425 221.16C245.425 221.16 250.825 218.46 252.385 215.1C252.385 215.1 252.985 215.34 253.705 216C254.365 216.84 255.025 217.86 255.025 219.48C255.025 225.66 245.185 228.66 238.285 228.66C222.325 228.66 217.105 219.84 217.105 207.3C217.105 194.76 222.085 185.58 238.105 185.58C246.505 185.58 254.305 189.18 254.305 195.54C254.305 198.66 250.825 200.1 250.825 200.1C249.925 197.4 245.905 194.1 238.765 194.1C232.465 194.1 227.305 197.16 227.305 207.3ZM256.128 188.28V186H286.788C290.628 186 291.348 187.8 291.348 191.7V194.16H278.688V228H268.788V194.16H260.928C256.548 194.16 256.128 192 256.128 188.28ZM317.36 228L315.32 222H299.12L297.38 228H287.3L299.66 187.2C301.82 185.34 312.92 184.08 314.72 189.36L327.92 228H317.36ZM306.92 196.5L301.22 214.5H312.98L306.92 196.5ZM321.812 188.28V186H352.472C356.312 186 357.032 187.8 357.032 191.7V194.16H344.372V228H334.472V194.16H326.612C322.232 194.16 321.812 192 321.812 188.28ZM369.212 190.5V228H359.312V186H363.092C365.672 186 369.212 186.66 369.212 190.5ZM414.716 186L397.676 228H387.776L370.796 186H375.956C381.056 186 381.656 186.9 383.396 190.5C386.216 197.58 392.696 215.7 392.816 217.56C392.996 215.88 399.476 197.4 402.356 190.5C403.856 186.96 404.996 186 409.796 186H414.716ZM435.251 228L433.211 222H417.011L415.271 228H405.191L417.551 187.2C419.711 185.34 430.811 184.08 432.611 189.36L445.811 228H435.251ZM424.811 196.5L419.111 214.5H430.871L424.811 196.5ZM472.962 216.66C472.962 209.28 446.742 216.18 446.742 199.2C446.742 189.24 456.042 185.58 466.362 185.58C470.982 185.58 483.402 186.9 483.402 194.64C483.402 196.8 482.682 198.66 480.162 199.26C478.602 191.4 458.262 191.4 458.262 198.36C458.262 206.1 484.842 199.26 484.842 215.58C484.842 225.24 474.762 228.48 464.502 228.48C456.762 228.48 446.382 226.08 446.382 220.08C446.382 218.28 447.042 215.76 448.962 215.34C450.702 222.9 472.962 222.9 472.962 216.66ZM68.9677 291V279L51.9877 249H56.5477C61.4677 249 62.9677 249.66 65.0077 253.44C69.5077 262.26 73.9477 271.5 73.9477 271.5C73.9477 271.5 78.3877 262.26 83.0077 253.5C85.0477 249.66 86.0677 249 91.1677 249H95.7877L78.7477 279V291H68.9677ZM171.904 249L154.864 291H144.964L127.984 249H133.144C138.244 249 138.844 249.9 140.584 253.5C143.404 260.58 149.884 278.7 150.004 280.56C150.184 278.88 156.664 260.4 159.544 253.5C161.044 249.96 162.184 249 166.984 249H171.904ZM184.056 253.5V291H174.156V249H177.936C180.516 249 184.056 249.66 184.056 253.5ZM202.845 291.24C200.265 291.24 186.285 291 186.285 291V249.3C189.645 249.18 197.085 248.94 202.605 248.94C219.645 248.94 224.445 259.98 224.445 270.3C224.445 280.68 220.605 291.24 202.845 291.24ZM196.185 257.46V283.2C205.065 283.2 214.785 284.46 214.665 270.36C214.545 256.38 205.785 257.46 196.185 257.46ZM252.263 291L250.223 285H234.023L232.283 291H222.203L234.563 250.2C236.723 248.34 247.823 247.08 249.623 252.36L262.823 291H252.263ZM241.823 259.5L236.123 277.5H247.883L241.823 259.5ZM289.974 279.66C289.974 272.28 263.754 279.18 263.754 262.2C263.754 252.24 273.054 248.58 283.374 248.58C287.994 248.58 300.414 249.9 300.414 257.64C300.414 259.8 299.694 261.66 297.174 262.26C295.614 254.4 275.274 254.4 275.274 261.36C275.274 269.1 301.854 262.26 301.854 278.58C301.854 288.24 291.774 291.48 281.514 291.48C273.774 291.48 263.394 289.08 263.394 283.08C263.394 281.28 264.054 278.76 265.974 278.34C267.714 285.9 289.974 285.9 289.974 279.66ZM334.117 291V249.6C339.997 249.06 345.397 248.64 350.077 248.64C363.577 248.64 371.617 251.94 371.617 264.78C371.617 278.7 361.777 280.74 352.777 280.74C351.097 280.74 345.577 280.68 344.017 280.56V291H334.117ZM344.017 256.68V273.3C359.017 274.08 361.417 273 361.417 265.08C361.417 257.04 357.217 255.66 344.017 256.68ZM373.843 270.3C373.843 255.18 379.423 248.28 394.303 248.28C409.063 248.28 415.063 255.18 415.063 270.24C415.063 285.24 409.063 291.66 394.303 291.66C379.423 291.66 373.843 285.3 373.843 270.3ZM383.923 270.48C383.923 279.54 386.743 283.38 394.303 283.38C402.103 283.38 404.923 279.54 404.923 270.48C404.923 261.24 402.103 257.34 394.303 257.34C386.743 257.34 383.923 261.36 383.923 270.48ZM427.52 270.3C427.52 281.64 433.82 284.16 439.64 284.16C445.64 284.16 451.04 281.46 452.6 278.1C452.6 278.1 453.2 278.34 453.92 279C454.58 279.84 455.24 280.86 455.24 282.48C455.24 288.66 445.4 291.66 438.5 291.66C422.54 291.66 417.32 282.84 417.32 270.3C417.32 257.76 422.3 248.58 438.32 248.58C446.72 248.58 454.52 252.18 454.52 258.54C454.52 261.66 451.04 263.1 451.04 263.1C450.14 260.4 446.12 257.1 438.98 257.1C432.68 257.1 427.52 260.16 427.52 270.3ZM455.816 270.3C455.816 255.18 461.396 248.28 476.276 248.28C491.036 248.28 497.036 255.18 497.036 270.24C497.036 285.24 491.036 291.66 476.276 291.66C461.396 291.66 455.816 285.3 455.816 270.3ZM465.896 270.48C465.896 279.54 468.716 283.38 476.276 283.38C484.076 283.38 486.896 279.54 486.896 270.48C486.896 261.24 484.076 257.34 476.276 257.34C468.716 257.34 465.896 261.36 465.896 270.48ZM144.008 354L137.468 343.68L127.688 343.56V354H117.788V312.6C123.668 312.06 129.188 311.64 133.808 311.64C147.308 311.64 155.348 314.94 155.348 327.78C155.348 335.04 153.008 339.54 147.788 341.88L156.788 354H144.008ZM127.688 319.68V336.3C142.088 336.84 144.908 336.3 144.908 328.08C144.908 319.68 139.808 318.84 127.688 319.68ZM158.98 354V312H191.8C192.4 314.58 192.7 320.16 186.88 320.16H168.88V328.5H189.58V335.64H168.88V346.2H186.7C193.18 346.2 193.3 351.54 192.58 354H158.98ZM225.251 354L223.211 348H207.011L205.271 354H195.191L207.551 313.2C209.711 311.34 220.811 310.08 222.611 315.36L235.811 354H225.251ZM214.811 322.5L209.111 340.5H220.871L214.811 322.5ZM237.027 354V312H240.927C245.127 312 246.927 312.3 246.927 316.5V346.2H267.027V354H237.027ZM279.153 316.5V354H269.253V312H273.033C275.613 312 279.153 312.66 279.153 316.5ZM307.962 342.66C307.962 335.28 281.742 342.18 281.742 325.2C281.742 315.24 291.042 311.58 301.362 311.58C305.982 311.58 318.402 312.9 318.402 320.64C318.402 322.8 317.682 324.66 315.162 325.26C313.602 317.4 293.262 317.4 293.262 324.36C293.262 332.1 319.842 325.26 319.842 341.58C319.842 351.24 309.762 354.48 299.502 354.48C291.762 354.48 281.382 352.08 281.382 346.08C281.382 344.28 282.042 341.76 283.962 341.34C285.702 348.9 307.962 348.9 307.962 342.66ZM320.406 314.28V312H351.066C354.906 312 355.626 313.8 355.626 317.7V320.16H342.966V354H333.066V320.16H325.206C320.826 320.16 320.406 318 320.406 314.28ZM381.638 354L379.598 348H363.398L361.658 354H351.578L363.938 313.2C366.098 311.34 377.198 310.08 378.998 315.36L392.198 354H381.638ZM371.198 322.5L365.498 340.5H377.258L371.198 322.5ZM419.349 342.66C419.349 335.28 393.129 342.18 393.129 325.2C393.129 315.24 402.429 311.58 412.749 311.58C417.369 311.58 429.789 312.9 429.789 320.64C429.789 322.8 429.069 324.66 426.549 325.26C424.989 317.4 404.649 317.4 404.649 324.36C404.649 332.1 431.229 325.26 431.229 341.58C431.229 351.24 421.149 354.48 410.889 354.48C403.149 354.48 392.769 352.08 392.769 346.08C392.769 344.28 393.429 341.76 395.349 341.34C397.089 348.9 419.349 348.9 419.349 342.66Z" fill="white"/>
</svg>
