<svg width="190" height="77" viewBox="0 0 190 77" fill="none" xmlns="http://www.w3.org/2000/svg">
<rect width="189.958" height="76.0968" rx="15" fill="#FFD76F"/>
<path d="M26.142 29.482V37.78H36.276V41.182H26.142V52H21.912V26.08H38.076V29.482H26.142ZM48.8614 43.972C47.4814 44.02 46.3174 44.134 45.3694 44.314C44.4214 44.482 43.6534 44.704 43.0654 44.98C42.4774 45.244 42.0514 45.562 41.7874 45.934C41.5354 46.306 41.4094 46.714 41.4094 47.158C41.4094 47.59 41.4754 47.962 41.6074 48.274C41.7514 48.574 41.9434 48.826 42.1834 49.03C42.4354 49.222 42.7234 49.366 43.0474 49.462C43.3834 49.546 43.7494 49.588 44.1454 49.588C45.1534 49.588 46.0174 49.402 46.7374 49.03C47.4694 48.646 48.1774 48.094 48.8614 47.374V43.972ZM38.6014 36.196C40.6774 34.264 43.1494 33.298 46.0174 33.298C47.0734 33.298 48.0094 33.472 48.8254 33.82C49.6534 34.156 50.3434 34.636 50.8954 35.26C51.4594 35.884 51.8854 36.628 52.1734 37.492C52.4734 38.344 52.6234 39.292 52.6234 40.336V52H50.8954C50.5234 52 50.2414 51.946 50.0494 51.838C49.8574 51.718 49.6954 51.484 49.5634 51.136L49.1854 49.642C48.7174 50.062 48.2554 50.44 47.7994 50.776C47.3434 51.1 46.8694 51.376 46.3774 51.604C45.8974 51.832 45.3754 52 44.8114 52.108C44.2594 52.228 43.6474 52.288 42.9754 52.288C42.2314 52.288 41.5354 52.186 40.8874 51.982C40.2514 51.778 39.6994 51.472 39.2314 51.064C38.7634 50.644 38.3914 50.128 38.1154 49.516C37.8514 48.904 37.7194 48.184 37.7194 47.356C37.7194 46.648 37.9054 45.958 38.2774 45.286C38.6614 44.614 39.2854 44.014 40.1494 43.486C41.0254 42.946 42.1714 42.502 43.5874 42.154C45.0154 41.806 46.7734 41.608 48.8614 41.56V40.336C48.8614 39.016 48.5794 38.032 48.0154 37.384C47.4514 36.736 46.6234 36.412 45.5314 36.412C44.7874 36.412 44.1634 36.508 43.6594 36.7C43.1554 36.88 42.7174 37.078 42.3454 37.294C41.9734 37.51 41.6434 37.714 41.3554 37.906C41.0674 38.086 40.7614 38.176 40.4374 38.176C40.1734 38.176 39.9454 38.11 39.7534 37.978C39.5734 37.834 39.4234 37.66 39.3034 37.456L38.6014 36.196ZM70.1348 37.24C70.0148 37.396 69.9008 37.516 69.7928 37.6C69.6848 37.684 69.5288 37.726 69.3248 37.726C69.1208 37.726 68.9048 37.654 68.6768 37.51C68.4608 37.366 68.1968 37.21 67.8848 37.042C67.5848 36.862 67.2188 36.7 66.7868 36.556C66.3548 36.412 65.8148 36.34 65.1668 36.34C64.3268 36.34 63.5888 36.49 62.9528 36.79C62.3288 37.09 61.8008 37.522 61.3688 38.086C60.9488 38.638 60.6308 39.316 60.4148 40.12C60.2108 40.912 60.1088 41.806 60.1088 42.802C60.1088 43.834 60.2228 44.752 60.4508 45.556C60.6788 46.36 61.0028 47.038 61.4228 47.59C61.8548 48.142 62.3708 48.562 62.9708 48.85C63.5828 49.138 64.2668 49.282 65.0228 49.282C65.7668 49.282 66.3728 49.192 66.8408 49.012C67.3088 48.832 67.6988 48.634 68.0108 48.418C68.3228 48.202 68.5868 48.004 68.8028 47.824C69.0308 47.644 69.2708 47.554 69.5228 47.554C69.8348 47.554 70.0748 47.674 70.2428 47.914L71.3408 49.336C70.8968 49.876 70.4048 50.332 69.8648 50.704C69.3248 51.076 68.7548 51.382 68.1548 51.622C67.5548 51.85 66.9308 52.012 66.2828 52.108C65.6348 52.216 64.9808 52.27 64.3208 52.27C63.1808 52.27 62.1128 52.06 61.1168 51.64C60.1328 51.208 59.2688 50.59 58.5248 49.786C57.7928 48.97 57.2108 47.98 56.7788 46.816C56.3588 45.64 56.1488 44.302 56.1488 42.802C56.1488 41.446 56.3408 40.192 56.7248 39.04C57.1088 37.876 57.6668 36.874 58.3988 36.034C59.1428 35.194 60.0608 34.54 61.1528 34.072C62.2448 33.592 63.5048 33.352 64.9328 33.352C66.2648 33.352 67.4348 33.568 68.4428 34C69.4628 34.432 70.3688 35.044 71.1608 35.836L70.1348 37.24ZM86.1793 40.75C86.1793 40.102 86.0833 39.502 85.8913 38.95C85.7113 38.386 85.4413 37.9 85.0813 37.492C84.7213 37.072 84.2713 36.748 83.7313 36.52C83.2033 36.28 82.5913 36.16 81.8953 36.16C80.4913 36.16 79.3873 36.562 78.5833 37.366C77.7793 38.17 77.2693 39.298 77.0533 40.75H86.1793ZM76.9453 43.126C76.9933 44.17 77.1553 45.076 77.4313 45.844C77.7073 46.6 78.0733 47.23 78.5293 47.734C78.9973 48.238 79.5493 48.616 80.1853 48.868C80.8333 49.108 81.5533 49.228 82.3453 49.228C83.1013 49.228 83.7553 49.144 84.3073 48.976C84.8593 48.796 85.3393 48.604 85.7473 48.4C86.1553 48.184 86.5033 47.992 86.7913 47.824C87.0793 47.644 87.3433 47.554 87.5833 47.554C87.8953 47.554 88.1353 47.674 88.3033 47.914L89.4013 49.336C88.9453 49.876 88.4293 50.332 87.8533 50.704C87.2773 51.076 86.6653 51.382 86.0173 51.622C85.3693 51.85 84.7033 52.012 84.0193 52.108C83.3353 52.216 82.6693 52.27 82.0213 52.27C80.7493 52.27 79.5673 52.06 78.4753 51.64C77.3953 51.208 76.4533 50.578 75.6493 49.75C74.8573 48.922 74.2333 47.896 73.7773 46.672C73.3333 45.448 73.1113 44.038 73.1113 42.442C73.1113 41.17 73.3093 39.982 73.7053 38.878C74.1133 37.774 74.6893 36.814 75.4333 35.998C76.1893 35.182 77.1013 34.54 78.1693 34.072C79.2493 33.592 80.4673 33.352 81.8233 33.352C82.9513 33.352 83.9953 33.538 84.9553 33.91C85.9153 34.27 86.7433 34.804 87.4393 35.512C88.1353 36.22 88.6753 37.09 89.0593 38.122C89.4553 39.142 89.6533 40.306 89.6533 41.614C89.6533 42.214 89.5873 42.616 89.4553 42.82C89.3233 43.024 89.0833 43.126 88.7353 43.126H76.9453ZM97.1323 47.392C97.6723 48.088 98.2603 48.58 98.8963 48.868C99.5443 49.144 100.246 49.282 101.002 49.282C102.526 49.282 103.714 48.73 104.566 47.626C105.418 46.522 105.844 44.812 105.844 42.496C105.844 40.384 105.472 38.842 104.728 37.87C103.996 36.898 102.946 36.412 101.578 36.412C100.63 36.412 99.8023 36.628 99.0943 37.06C98.3983 37.48 97.7443 38.086 97.1323 38.878V47.392ZM97.1323 36.07C97.8883 35.242 98.7343 34.582 99.6703 34.09C100.606 33.598 101.674 33.352 102.874 33.352C103.942 33.352 104.902 33.562 105.754 33.982C106.618 34.39 107.35 34.984 107.95 35.764C108.55 36.544 109.012 37.492 109.336 38.608C109.66 39.712 109.822 40.96 109.822 42.352C109.822 43.84 109.636 45.196 109.264 46.42C108.904 47.632 108.382 48.676 107.698 49.552C107.014 50.416 106.186 51.088 105.214 51.568C104.242 52.036 103.156 52.27 101.956 52.27C101.368 52.27 100.834 52.21 100.354 52.09C99.8743 51.982 99.4303 51.82 99.0223 51.604C98.6143 51.388 98.2363 51.13 97.8883 50.83C97.5523 50.53 97.2283 50.188 96.9163 49.804L96.7543 51.226C96.6943 51.502 96.5863 51.7 96.4303 51.82C96.2743 51.94 96.0583 52 95.7823 52H93.2623V25.36H97.1323V36.07ZM121.521 33.352C122.877 33.352 124.101 33.574 125.193 34.018C126.297 34.462 127.233 35.092 128.001 35.908C128.781 36.724 129.381 37.714 129.801 38.878C130.221 40.042 130.431 41.35 130.431 42.802C130.431 44.254 130.221 45.562 129.801 46.726C129.381 47.89 128.781 48.886 128.001 49.714C127.233 50.53 126.297 51.16 125.193 51.604C124.101 52.048 122.877 52.27 121.521 52.27C120.153 52.27 118.917 52.048 117.813 51.604C116.721 51.16 115.785 50.53 115.005 49.714C114.225 48.886 113.625 47.89 113.205 46.726C112.785 45.562 112.575 44.254 112.575 42.802C112.575 41.35 112.785 40.042 113.205 38.878C113.625 37.714 114.225 36.724 115.005 35.908C115.785 35.092 116.721 34.462 117.813 34.018C118.917 33.574 120.153 33.352 121.521 33.352ZM121.521 49.246C123.177 49.246 124.407 48.694 125.211 47.59C126.027 46.474 126.435 44.884 126.435 42.82C126.435 40.756 126.027 39.166 125.211 38.05C124.407 36.922 123.177 36.358 121.521 36.358C119.841 36.358 118.593 36.922 117.777 38.05C116.961 39.166 116.553 40.756 116.553 42.82C116.553 44.884 116.961 46.474 117.777 47.59C118.593 48.694 119.841 49.246 121.521 49.246ZM142.087 33.352C143.443 33.352 144.667 33.574 145.759 34.018C146.863 34.462 147.799 35.092 148.567 35.908C149.347 36.724 149.947 37.714 150.367 38.878C150.787 40.042 150.997 41.35 150.997 42.802C150.997 44.254 150.787 45.562 150.367 46.726C149.947 47.89 149.347 48.886 148.567 49.714C147.799 50.53 146.863 51.16 145.759 51.604C144.667 52.048 143.443 52.27 142.087 52.27C140.719 52.27 139.483 52.048 138.379 51.604C137.287 51.16 136.351 50.53 135.571 49.714C134.791 48.886 134.191 47.89 133.771 46.726C133.351 45.562 133.141 44.254 133.141 42.802C133.141 41.35 133.351 40.042 133.771 38.878C134.191 37.714 134.791 36.724 135.571 35.908C136.351 35.092 137.287 34.462 138.379 34.018C139.483 33.574 140.719 33.352 142.087 33.352ZM142.087 49.246C143.743 49.246 144.973 48.694 145.777 47.59C146.593 46.474 147.001 44.884 147.001 42.82C147.001 40.756 146.593 39.166 145.777 38.05C144.973 36.922 143.743 36.358 142.087 36.358C140.407 36.358 139.159 36.922 138.343 38.05C137.527 39.166 137.119 40.756 137.119 42.82C137.119 44.884 137.527 46.474 138.343 47.59C139.159 48.694 140.407 49.246 142.087 49.246ZM158.585 25.36V40.804H159.413C159.677 40.804 159.893 40.768 160.061 40.696C160.229 40.624 160.403 40.474 160.583 40.246L165.731 34.36C165.911 34.12 166.109 33.94 166.325 33.82C166.541 33.7 166.817 33.64 167.153 33.64H170.663L164.471 40.624C164.111 41.092 163.715 41.464 163.283 41.74C163.523 41.908 163.733 42.1 163.913 42.316C164.093 42.52 164.267 42.754 164.435 43.018L171.041 52H167.585C167.273 52 167.003 51.952 166.775 51.856C166.559 51.748 166.367 51.556 166.199 51.28L160.889 44.08C160.709 43.804 160.529 43.63 160.349 43.558C160.169 43.474 159.899 43.432 159.539 43.432H158.585V52H154.715V25.36H158.585Z" fill="white"/>
</svg>
