<svg width="110" height="45" viewBox="0 0 110 45" fill="none" xmlns="http://www.w3.org/2000/svg">
<mask id="mask0_224_2" style="mask-type:luminance" maskUnits="userSpaceOnUse" x="0" y="0" width="110" height="45">
<path d="M110 45L-4.45603e-06 45V2.32831e-07L110 2.32831e-07V45Z" fill="white"/>
</mask>
<g mask="url(#mask0_224_2)">
<path d="M1.67327 2.70165C2.30818 3.71433 2.75247 4.91872 3.11006 6.2125C3.08068 6.53712 3.06133 6.86644 3.06133 7.20518L3.06133 38.1477C3.06133 41.9314 4.93023 45 7.23554 45L105.826 45C108.131 45 110 41.9314 110 38.1477V7.20518C110 3.42029 108.131 0.35403 105.826 0.35403L7.23554 0.35403C6.50819 0.35403 5.82383 0.661008 5.22834 1.19734C4.54111 0.581029 3.77363 0.205833 2.99325 0.116445C2.12616 0.0141186 1.21608 0.223475 0.359018 0.436361C0.238629 0.465765 0.119673 0.498698 0 0.53163C0.557517 1.25027 1.16448 1.88892 1.67327 2.70165Z" fill="#A29AFF" fill-opacity="0.3"/>
<path d="M2.87605 1.10955C2.53798 1.06966 2.17917 1.09148 1.79142 1.15161C2.04464 1.47264 2.29727 1.81391 2.52052 2.17046C3.22911 3.30066 3.70468 4.61015 4.07392 5.9461L4.12239 6.12145L4.10599 6.30264C4.07851 6.60627 4.06133 6.90438 4.06133 7.20518L4.06133 38.1477C4.06133 39.8867 4.49286 41.4134 5.13798 42.4725C5.79386 43.5493 6.56474 44 7.23554 44L105.826 44C106.497 44 107.267 43.5493 107.923 42.4725C108.568 41.4134 109 39.8867 109 38.1477V7.20518C109 5.46549 108.568 3.93917 107.923 2.88062C107.268 1.80454 106.497 1.35403 105.826 1.35403L7.23554 1.35403C6.80601 1.35403 6.35089 1.53211 5.89756 1.9404L5.22976 2.54185L4.56068 1.94181C3.99624 1.43561 3.4154 1.17134 2.87945 1.10995L2.87605 1.10955Z" stroke="#A29AFF" stroke-opacity="0.9" stroke-width="2"/>
</g>
<path d="M20.521 8.2525L19.1935 19H17.7835L18.3835 14.095H13.141L12.541 19H11.131L12.451 8.2525H13.861L13.2685 13.075H18.511L19.1035 8.2525H20.521ZM26.4585 12.3325C26.3485 12.3075 26.2385 12.2925 26.1285 12.2875C26.0235 12.2775 25.9185 12.2725 25.8135 12.2725C25.5135 12.2725 25.2235 12.3225 24.9435 12.4225C24.6635 12.5175 24.401 12.6525 24.156 12.8275C23.911 13.0025 23.6885 13.2125 23.4885 13.4575C23.2885 13.6975 23.116 13.9625 22.971 14.2525C22.831 14.5425 22.721 14.8525 22.641 15.1825C22.561 15.5075 22.521 15.8425 22.521 16.1875C22.521 17.3925 22.906 17.995 23.676 17.995C23.921 17.995 24.161 17.92 24.396 17.77C24.631 17.615 24.8535 17.4025 25.0635 17.1325C25.2785 16.8575 25.476 16.535 25.656 16.165C25.836 15.79 25.996 15.38 26.136 14.935L26.4585 12.3325ZM25.9485 16.9975C25.7685 17.3175 25.5735 17.6075 25.3635 17.8675C25.1585 18.1275 24.9385 18.35 24.7035 18.535C24.4735 18.715 24.2285 18.855 23.9685 18.955C23.7135 19.055 23.4485 19.105 23.1735 19.105C22.8735 19.105 22.601 19.0475 22.356 18.9325C22.111 18.8125 21.901 18.64 21.726 18.415C21.556 18.185 21.4235 17.905 21.3285 17.575C21.2335 17.24 21.186 16.8575 21.186 16.4275C21.186 15.9775 21.241 15.54 21.351 15.115C21.466 14.685 21.626 14.28 21.831 13.9C22.041 13.52 22.291 13.1725 22.581 12.8575C22.871 12.5375 23.1935 12.2625 23.5485 12.0325C23.9085 11.7975 24.2935 11.6175 24.7035 11.4925C25.1135 11.3625 25.5435 11.2975 25.9935 11.2975C26.3185 11.2975 26.6335 11.325 26.9385 11.38C27.2485 11.43 27.5535 11.52 27.8535 11.65L26.946 19H26.256C26.081 19 25.961 18.955 25.896 18.865C25.836 18.775 25.806 18.665 25.806 18.535L25.9485 16.9975ZM34.7422 11.4025L34.6672 11.9725C34.6572 12.0675 34.6297 12.16 34.5847 12.25C34.5447 12.335 34.4972 12.4125 34.4422 12.4825L30.0622 17.9575H33.8047L33.6847 19H28.3372L28.4047 18.445C28.4097 18.38 28.4322 18.3025 28.4722 18.2125C28.5122 18.1225 28.5647 18.04 28.6297 17.965L33.0322 12.4525H29.3497L29.4772 11.4025H34.7422ZM44.1502 13.06C43.9602 12.79 43.7302 12.6025 43.4602 12.4975C43.1952 12.3875 42.9252 12.3325 42.6502 12.3325C42.2552 12.3325 41.9002 12.45 41.5852 12.685C41.2702 12.92 41.0002 13.225 40.7752 13.6C40.5552 13.97 40.3852 14.385 40.2652 14.845C40.1452 15.305 40.0852 15.7575 40.0852 16.2025C40.0852 16.7975 40.1902 17.2525 40.4002 17.5675C40.6152 17.8775 40.9202 18.0325 41.3152 18.0325C41.5552 18.0325 41.7977 17.9575 42.0427 17.8075C42.2877 17.6575 42.5227 17.45 42.7477 17.185C42.9777 16.915 43.1902 16.5975 43.3852 16.2325C43.5852 15.8675 43.7577 15.4675 43.9027 15.0325L44.1502 13.06ZM46.0852 7.9525L44.7277 19H44.0302C43.8552 19 43.7377 18.955 43.6777 18.865C43.6177 18.775 43.5877 18.665 43.5877 18.535L43.7302 16.9375C43.5402 17.2675 43.3327 17.565 43.1077 17.83C42.8827 18.095 42.6452 18.3225 42.3952 18.5125C42.1502 18.7025 41.8927 18.85 41.6227 18.955C41.3577 19.055 41.0877 19.105 40.8127 19.105C40.1627 19.105 39.6577 18.87 39.2977 18.4C38.9377 17.925 38.7577 17.2375 38.7577 16.3375C38.7577 15.9275 38.8002 15.5175 38.8852 15.1075C38.9702 14.6975 39.0902 14.305 39.2452 13.93C39.4052 13.555 39.5952 13.2075 39.8152 12.8875C40.0402 12.5625 40.2902 12.2825 40.5652 12.0475C40.8402 11.8125 41.1352 11.6275 41.4502 11.4925C41.7702 11.3575 42.1052 11.29 42.4552 11.29C42.8302 11.29 43.1702 11.365 43.4752 11.515C43.7852 11.66 44.0477 11.8675 44.2627 12.1375L44.7802 7.9525H46.0852ZM49.6822 18.0625C50.0472 18.0625 50.3772 17.9625 50.6722 17.7625C50.9722 17.5625 51.2272 17.2975 51.4372 16.9675C51.6522 16.6325 51.8172 16.2475 51.9322 15.8125C52.0472 15.3775 52.1047 14.9225 52.1047 14.4475C52.1047 13.7475 51.9647 13.2225 51.6847 12.8725C51.4097 12.5175 51.0122 12.34 50.4922 12.34C50.1222 12.34 49.7872 12.44 49.4872 12.64C49.1922 12.835 48.9397 13.0975 48.7297 13.4275C48.5197 13.7575 48.3572 14.14 48.2422 14.575C48.1272 15.01 48.0697 15.465 48.0697 15.94C48.0697 16.64 48.2072 17.17 48.4822 17.53C48.7572 17.885 49.1572 18.0625 49.6822 18.0625ZM49.5547 19.105C49.1397 19.105 48.7597 19.035 48.4147 18.895C48.0697 18.75 47.7722 18.5425 47.5222 18.2725C47.2722 18.0025 47.0772 17.6725 46.9372 17.2825C46.7972 16.8925 46.7272 16.4475 46.7272 15.9475C46.7272 15.3075 46.8272 14.705 47.0272 14.14C47.2272 13.575 47.5022 13.0825 47.8522 12.6625C48.2022 12.2375 48.6122 11.9025 49.0822 11.6575C49.5572 11.4125 50.0672 11.29 50.6122 11.29C51.0272 11.29 51.4072 11.3625 51.7522 11.5075C52.0972 11.6475 52.3947 11.8525 52.6447 12.1225C52.8947 12.3925 53.0897 12.7225 53.2297 13.1125C53.3697 13.5025 53.4397 13.945 53.4397 14.44C53.4397 15.075 53.3397 15.675 53.1397 16.24C52.9397 16.805 52.6647 17.3 52.3147 17.725C51.9697 18.15 51.5597 18.4875 51.0847 18.7375C50.6097 18.9825 50.0997 19.105 49.5547 19.105ZM56.0055 17.335C56.1955 17.6 56.423 17.79 56.688 17.905C56.958 18.015 57.228 18.07 57.498 18.07C57.758 18.07 58.003 18.015 58.233 17.905C58.463 17.795 58.673 17.6475 58.863 17.4625C59.053 17.2725 59.2205 17.0525 59.3655 16.8025C59.5155 16.5475 59.643 16.2775 59.748 15.9925C59.853 15.7025 59.9305 15.405 59.9805 15.1C60.0355 14.79 60.063 14.485 60.063 14.185C60.063 13.59 59.9555 13.1375 59.7405 12.8275C59.5305 12.5175 59.2305 12.3625 58.8405 12.3625C58.6005 12.3625 58.358 12.4375 58.113 12.5875C57.868 12.7375 57.6305 12.9475 57.4005 13.2175C57.1705 13.4825 56.9555 13.8 56.7555 14.17C56.5605 14.535 56.3905 14.935 56.2455 15.37L56.0055 17.335ZM56.493 13.33C56.683 13.02 56.8855 12.74 57.1005 12.49C57.3205 12.24 57.5505 12.0275 57.7905 11.8525C58.0305 11.6725 58.2805 11.535 58.5405 11.44C58.8005 11.34 59.0655 11.29 59.3355 11.29C59.9855 11.29 60.4905 11.525 60.8505 11.995C61.2105 12.465 61.3905 13.1525 61.3905 14.0575C61.3905 14.4675 61.348 14.8775 61.263 15.2875C61.178 15.6975 61.0555 16.09 60.8955 16.465C60.7405 16.835 60.5505 17.1825 60.3255 17.5075C60.1055 17.8275 59.858 18.1075 59.583 18.3475C59.313 18.5825 59.018 18.7675 58.698 18.9025C58.378 19.0375 58.043 19.105 57.693 19.105C57.288 19.105 56.923 19.02 56.598 18.85C56.273 18.68 56.003 18.4375 55.788 18.1225L55.683 18.61C55.643 18.74 55.593 18.8375 55.533 18.9025C55.473 18.9675 55.3655 19 55.2105 19H54.5055L55.8405 7.9525H57.1455L56.493 13.33ZM62.4678 19L63.8103 7.9525H65.1228L63.7803 19H62.4678ZM69.6619 12.2575C69.3469 12.2575 69.0569 12.3225 68.7919 12.4525C68.5269 12.5825 68.2919 12.7625 68.0869 12.9925C67.8819 13.2175 67.7069 13.485 67.5619 13.795C67.4169 14.1 67.3044 14.43 67.2244 14.785C67.9944 14.69 68.6119 14.5825 69.0769 14.4625C69.5419 14.3375 69.8994 14.205 70.1494 14.065C70.3994 13.92 70.5644 13.765 70.6444 13.6C70.7244 13.435 70.7644 13.2625 70.7644 13.0825C70.7644 12.9925 70.7444 12.9 70.7044 12.805C70.6644 12.705 70.5994 12.615 70.5094 12.535C70.4244 12.455 70.3119 12.39 70.1719 12.34C70.0319 12.285 69.8619 12.2575 69.6619 12.2575ZM71.7769 17.5975C71.5219 17.8625 71.2719 18.09 71.0269 18.28C70.7819 18.465 70.5319 18.62 70.2769 18.745C70.0269 18.87 69.7619 18.96 69.4819 19.015C69.2069 19.075 68.9094 19.105 68.5894 19.105C68.1544 19.105 67.7644 19.0325 67.4194 18.8875C67.0744 18.7425 66.7819 18.5375 66.5419 18.2725C66.3019 18.0025 66.1169 17.6775 65.9869 17.2975C65.8569 16.9175 65.7919 16.4925 65.7919 16.0225C65.7919 15.6325 65.8319 15.245 65.9119 14.86C65.9969 14.47 66.1169 14.1 66.2719 13.75C66.4319 13.4 66.6244 13.075 66.8494 12.775C67.0794 12.475 67.3394 12.2175 67.6294 12.0025C67.9244 11.7825 68.2469 11.61 68.5969 11.485C68.9519 11.36 69.3319 11.2975 69.7369 11.2975C70.1219 11.2975 70.4544 11.3525 70.7344 11.4625C71.0144 11.5725 71.2444 11.7125 71.4244 11.8825C71.6044 12.0525 71.7369 12.24 71.8219 12.445C71.9119 12.65 71.9569 12.845 71.9569 13.03C71.9569 13.36 71.8894 13.665 71.7544 13.945C71.6194 14.22 71.3719 14.47 71.0119 14.695C70.6519 14.915 70.1569 15.1075 69.5269 15.2725C68.8969 15.4375 68.0869 15.57 67.0969 15.67C67.0969 15.725 67.0944 15.78 67.0894 15.835C67.0894 15.885 67.0894 15.9375 67.0894 15.9925C67.0894 16.6625 67.2344 17.175 67.5244 17.53C67.8194 17.88 68.2619 18.055 68.8519 18.055C69.0919 18.055 69.3044 18.03 69.4894 17.98C69.6794 17.93 69.8469 17.87 69.9919 17.8C70.1419 17.725 70.2719 17.645 70.3819 17.56C70.4969 17.47 70.5994 17.39 70.6894 17.32C70.7844 17.245 70.8719 17.1825 70.9519 17.1325C71.0319 17.0825 71.1119 17.0575 71.1919 17.0575C71.2869 17.0575 71.3719 17.1 71.4469 17.185L71.7769 17.5975ZM82.1853 17.635C81.9253 17.92 81.6778 18.1575 81.4428 18.3475C81.2078 18.5375 80.9728 18.69 80.7378 18.805C80.5028 18.915 80.2578 18.9925 80.0028 19.0375C79.7528 19.0825 79.4828 19.105 79.1928 19.105C78.7528 19.105 78.3628 19.03 78.0228 18.88C77.6878 18.73 77.4053 18.52 77.1753 18.25C76.9503 17.975 76.7778 17.6475 76.6578 17.2675C76.5428 16.8825 76.4853 16.46 76.4853 16C76.4853 15.385 76.5803 14.795 76.7703 14.23C76.9653 13.665 77.2353 13.165 77.5803 12.73C77.9253 12.295 78.3353 11.9475 78.8103 11.6875C79.2903 11.4275 79.8128 11.2975 80.3778 11.2975C80.8828 11.2975 81.3053 11.3875 81.6453 11.5675C81.9853 11.7425 82.2828 12 82.5378 12.34L82.1178 12.8425C82.0828 12.8825 82.0428 12.915 81.9978 12.94C81.9578 12.965 81.9103 12.9775 81.8553 12.9775C81.7853 12.9775 81.7153 12.9475 81.6453 12.8875C81.5803 12.8225 81.4928 12.7525 81.3828 12.6775C81.2728 12.5975 81.1353 12.5275 80.9703 12.4675C80.8103 12.4025 80.6028 12.37 80.3478 12.37C80.0028 12.37 79.6778 12.465 79.3728 12.655C79.0678 12.84 78.8003 13.095 78.5703 13.42C78.3403 13.745 78.1578 14.13 78.0228 14.575C77.8928 15.02 77.8278 15.4975 77.8278 16.0075C77.8278 16.3175 77.8628 16.6 77.9328 16.855C78.0028 17.105 78.1078 17.32 78.2478 17.5C78.3878 17.675 78.5578 17.8125 78.7578 17.9125C78.9628 18.0075 79.2003 18.055 79.4703 18.055C79.8053 18.055 80.0853 18.005 80.3103 17.905C80.5403 17.805 80.7328 17.6975 80.8878 17.5825C81.0428 17.4625 81.1728 17.3525 81.2778 17.2525C81.3878 17.1525 81.4953 17.1025 81.6003 17.1025C81.6953 17.1025 81.7803 17.145 81.8553 17.23L82.1853 17.635ZM83.3418 19L84.6843 7.9525H85.9968L84.6543 19H83.3418ZM88.976 11.4025L88.061 19H86.7485L87.6635 11.4025H88.976ZM89.486 9.0175C89.486 9.1475 89.4585 9.27 89.4035 9.385C89.3535 9.495 89.2835 9.595 89.1935 9.685C89.1085 9.77 89.0085 9.8375 88.8935 9.8875C88.7835 9.9375 88.6685 9.9625 88.5485 9.9625C88.4335 9.9625 88.321 9.9375 88.211 9.8875C88.101 9.8375 88.0035 9.77 87.9185 9.685C87.8385 9.595 87.7735 9.495 87.7235 9.385C87.6735 9.27 87.6485 9.1475 87.6485 9.0175C87.6485 8.8875 87.6735 8.765 87.7235 8.65C87.7735 8.535 87.841 8.435 87.926 8.35C88.011 8.26 88.1085 8.19 88.2185 8.14C88.3285 8.085 88.441 8.0575 88.556 8.0575C88.676 8.0575 88.791 8.0825 88.901 8.1325C89.016 8.1825 89.116 8.2525 89.201 8.3425C89.286 8.4275 89.3535 8.53 89.4035 8.65C89.4585 8.765 89.486 8.8875 89.486 9.0175ZM95.823 17.635C95.563 17.92 95.3155 18.1575 95.0805 18.3475C94.8455 18.5375 94.6105 18.69 94.3755 18.805C94.1405 18.915 93.8955 18.9925 93.6405 19.0375C93.3905 19.0825 93.1205 19.105 92.8305 19.105C92.3905 19.105 92.0005 19.03 91.6605 18.88C91.3255 18.73 91.043 18.52 90.813 18.25C90.588 17.975 90.4155 17.6475 90.2955 17.2675C90.1805 16.8825 90.123 16.46 90.123 16C90.123 15.385 90.218 14.795 90.408 14.23C90.603 13.665 90.873 13.165 91.218 12.73C91.563 12.295 91.973 11.9475 92.448 11.6875C92.928 11.4275 93.4505 11.2975 94.0155 11.2975C94.5205 11.2975 94.943 11.3875 95.283 11.5675C95.623 11.7425 95.9205 12 96.1755 12.34L95.7555 12.8425C95.7205 12.8825 95.6805 12.915 95.6355 12.94C95.5955 12.965 95.548 12.9775 95.493 12.9775C95.423 12.9775 95.353 12.9475 95.283 12.8875C95.218 12.8225 95.1305 12.7525 95.0205 12.6775C94.9105 12.5975 94.773 12.5275 94.608 12.4675C94.448 12.4025 94.2405 12.37 93.9855 12.37C93.6405 12.37 93.3155 12.465 93.0105 12.655C92.7055 12.84 92.438 13.095 92.208 13.42C91.978 13.745 91.7955 14.13 91.6605 14.575C91.5305 15.02 91.4655 15.4975 91.4655 16.0075C91.4655 16.3175 91.5005 16.6 91.5705 16.855C91.6405 17.105 91.7455 17.32 91.8855 17.5C92.0255 17.675 92.1955 17.8125 92.3955 17.9125C92.6005 18.0075 92.838 18.055 93.108 18.055C93.443 18.055 93.723 18.005 93.948 17.905C94.178 17.805 94.3705 17.6975 94.5255 17.5825C94.6805 17.4625 94.8105 17.3525 94.9155 17.2525C95.0255 17.1525 95.133 17.1025 95.238 17.1025C95.333 17.1025 95.418 17.145 95.493 17.23L95.823 17.635ZM99.597 7.9525L98.802 14.455H99.027C99.132 14.455 99.217 14.4425 99.282 14.4175C99.347 14.3875 99.417 14.33 99.492 14.245L102.012 11.6725C102.082 11.5875 102.157 11.5225 102.237 11.4775C102.317 11.4275 102.415 11.4025 102.53 11.4025H103.715L100.782 14.38C100.632 14.555 100.48 14.6875 100.325 14.7775C100.405 14.8375 100.472 14.9075 100.527 14.9875C100.587 15.0625 100.642 15.15 100.692 15.25L102.972 19H101.825C101.715 19 101.622 18.9825 101.547 18.9475C101.477 18.9075 101.42 18.8375 101.375 18.7375L99.4395 15.625C99.3795 15.52 99.317 15.4525 99.252 15.4225C99.187 15.3875 99.0845 15.37 98.9445 15.37H98.6895L98.247 19H96.927L98.2845 7.9525H99.597ZM26.108 35.335C26.298 35.6 26.5255 35.79 26.7905 35.905C27.0555 36.015 27.3255 36.07 27.6005 36.07C27.8605 36.07 28.1055 36.015 28.3355 35.905C28.5655 35.795 28.7755 35.6475 28.9655 35.4625C29.1555 35.2725 29.3255 35.0525 29.4755 34.8025C29.6255 34.5475 29.7505 34.2775 29.8505 33.9925C29.9555 33.7025 30.0355 33.405 30.0905 33.1C30.1455 32.79 30.173 32.485 30.173 32.185C30.173 31.59 30.0655 31.1375 29.8505 30.8275C29.6355 30.5175 29.333 30.3625 28.943 30.3625C28.703 30.3625 28.4605 30.4375 28.2155 30.5875C27.9705 30.7325 27.733 30.9375 27.503 31.2025C27.278 31.4675 27.0655 31.7825 26.8655 32.1475C26.6705 32.5125 26.5005 32.9125 26.3555 33.3475L26.108 35.335ZM26.513 31.465C26.703 31.135 26.9105 30.8375 27.1355 30.5725C27.3605 30.3025 27.598 30.0725 27.848 29.8825C28.098 29.6925 28.3555 29.5475 28.6205 29.4475C28.8905 29.3425 29.1655 29.29 29.4455 29.29C30.0955 29.29 30.598 29.525 30.953 29.995C31.313 30.465 31.493 31.1525 31.493 32.0575C31.493 32.4675 31.4505 32.8775 31.3655 33.2875C31.2805 33.6975 31.158 34.09 30.998 34.465C30.843 34.835 30.653 35.1825 30.428 35.5075C30.208 35.8275 29.9605 36.1075 29.6855 36.3475C29.4155 36.5825 29.1205 36.7675 28.8005 36.9025C28.4805 37.0375 28.1455 37.105 27.7955 37.105C27.4205 37.105 27.0805 37.0325 26.7755 36.8875C26.4705 36.7375 26.2105 36.5275 25.9955 36.2575L25.5905 39.5725H24.293L25.5305 29.395H26.1905C26.4905 29.395 26.6405 29.545 26.6405 29.845L26.513 31.465ZM37.7378 30.3325C37.6278 30.3075 37.5178 30.2925 37.4078 30.2875C37.3028 30.2775 37.1978 30.2725 37.0928 30.2725C36.7928 30.2725 36.5028 30.3225 36.2228 30.4225C35.9428 30.5175 35.6803 30.6525 35.4353 30.8275C35.1903 31.0025 34.9678 31.2125 34.7678 31.4575C34.5678 31.6975 34.3953 31.9625 34.2503 32.2525C34.1103 32.5425 34.0003 32.8525 33.9203 33.1825C33.8403 33.5075 33.8003 33.8425 33.8003 34.1875C33.8003 35.3925 34.1853 35.995 34.9553 35.995C35.2003 35.995 35.4403 35.92 35.6753 35.77C35.9103 35.615 36.1328 35.4025 36.3428 35.1325C36.5578 34.8575 36.7553 34.535 36.9353 34.165C37.1153 33.79 37.2753 33.38 37.4153 32.935L37.7378 30.3325ZM37.2278 34.9975C37.0478 35.3175 36.8528 35.6075 36.6428 35.8675C36.4378 36.1275 36.2178 36.35 35.9828 36.535C35.7528 36.715 35.5078 36.855 35.2478 36.955C34.9928 37.055 34.7278 37.105 34.4528 37.105C34.1528 37.105 33.8803 37.0475 33.6353 36.9325C33.3903 36.8125 33.1803 36.64 33.0053 36.415C32.8353 36.185 32.7028 35.905 32.6078 35.575C32.5128 35.24 32.4653 34.8575 32.4653 34.4275C32.4653 33.9775 32.5203 33.54 32.6303 33.115C32.7453 32.685 32.9053 32.28 33.1103 31.9C33.3203 31.52 33.5703 31.1725 33.8603 30.8575C34.1503 30.5375 34.4728 30.2625 34.8278 30.0325C35.1878 29.7975 35.5728 29.6175 35.9828 29.4925C36.3928 29.3625 36.8228 29.2975 37.2728 29.2975C37.5978 29.2975 37.9128 29.325 38.2178 29.38C38.5278 29.43 38.8328 29.52 39.1328 29.65L38.2253 37H37.5353C37.3603 37 37.2403 36.955 37.1753 36.865C37.1153 36.775 37.0853 36.665 37.0853 36.535L37.2278 34.9975ZM42.099 31.5175C42.299 31.0925 42.514 30.725 42.744 30.415C42.979 30.1 43.224 29.855 43.479 29.68C43.734 29.5 43.9965 29.3925 44.2665 29.3575C44.5365 29.3175 44.8115 29.3575 45.0915 29.4775L44.8515 30.76C44.2015 30.5 43.6265 30.595 43.1265 31.045C42.6315 31.495 42.229 32.3075 41.919 33.4825L41.499 37H40.194L41.109 29.395H41.769C42.074 29.395 42.2265 29.545 42.2265 29.845L42.099 31.5175ZM50.1158 30.3325C50.0058 30.3075 49.8958 30.2925 49.7858 30.2875C49.6808 30.2775 49.5758 30.2725 49.4708 30.2725C49.1708 30.2725 48.8808 30.3225 48.6008 30.4225C48.3208 30.5175 48.0583 30.6525 47.8133 30.8275C47.5683 31.0025 47.3458 31.2125 47.1458 31.4575C46.9458 31.6975 46.7733 31.9625 46.6283 32.2525C46.4883 32.5425 46.3783 32.8525 46.2983 33.1825C46.2183 33.5075 46.1783 33.8425 46.1783 34.1875C46.1783 35.3925 46.5633 35.995 47.3333 35.995C47.5783 35.995 47.8183 35.92 48.0533 35.77C48.2883 35.615 48.5108 35.4025 48.7208 35.1325C48.9358 34.8575 49.1333 34.535 49.3133 34.165C49.4933 33.79 49.6533 33.38 49.7933 32.935L50.1158 30.3325ZM49.6058 34.9975C49.4258 35.3175 49.2308 35.6075 49.0208 35.8675C48.8158 36.1275 48.5958 36.35 48.3608 36.535C48.1308 36.715 47.8858 36.855 47.6258 36.955C47.3708 37.055 47.1058 37.105 46.8308 37.105C46.5308 37.105 46.2583 37.0475 46.0133 36.9325C45.7683 36.8125 45.5583 36.64 45.3833 36.415C45.2133 36.185 45.0808 35.905 44.9858 35.575C44.8908 35.24 44.8433 34.8575 44.8433 34.4275C44.8433 33.9775 44.8983 33.54 45.0083 33.115C45.1233 32.685 45.2833 32.28 45.4883 31.9C45.6983 31.52 45.9483 31.1725 46.2383 30.8575C46.5283 30.5375 46.8508 30.2625 47.2058 30.0325C47.5658 29.7975 47.9508 29.6175 48.3608 29.4925C48.7708 29.3625 49.2008 29.2975 49.6508 29.2975C49.9758 29.2975 50.2908 29.325 50.5958 29.38C50.9058 29.43 51.2108 29.52 51.5108 29.65L50.6033 37H49.9133C49.7383 37 49.6183 36.955 49.5533 36.865C49.4933 36.775 49.4633 36.665 49.4633 36.535L49.6058 34.9975ZM58.6825 29.5525H62.935L62.0275 37H60.715L61.51 30.52H58.615L57.85 36.76L57.4975 38.3125C57.4425 38.4925 57.36 38.63 57.25 38.725C57.145 38.825 56.9975 38.875 56.8075 38.875H56.2825L57.31 30.535L56.575 30.445C56.47 30.42 56.39 30.385 56.335 30.34C56.28 30.29 56.2575 30.215 56.2675 30.115L56.3275 29.5525H57.43L57.4825 29.1325C57.5375 28.6675 57.6575 28.2425 57.8425 27.8575C58.0275 27.4725 58.27 27.1425 58.57 26.8675C58.875 26.5925 59.2375 26.38 59.6575 26.23C60.0825 26.075 60.5625 25.9975 61.0975 25.9975C61.1875 25.9975 61.28 26.0025 61.375 26.0125C61.475 26.0175 61.5725 26.0275 61.6675 26.0425C61.7675 26.0525 61.86 26.0675 61.945 26.0875C62.035 26.1025 62.1125 26.1225 62.1775 26.1475L62.0425 26.8225C62.0325 26.8725 62.0075 26.9075 61.9675 26.9275C61.9325 26.9475 61.885 26.96 61.825 26.965C61.765 26.97 61.695 26.97 61.615 26.965C61.535 26.96 61.4425 26.9575 61.3375 26.9575C60.9225 26.9575 60.5625 27.0025 60.2575 27.0925C59.9525 27.1825 59.695 27.3175 59.485 27.4975C59.275 27.6775 59.1075 27.905 58.9825 28.18C58.8625 28.455 58.78 28.78 58.735 29.155L58.6825 29.5525ZM64.1231 37L65.4656 25.9525H66.7781L65.4356 37H64.1231ZM68.0547 35.5675C68.0547 35.5375 68.0547 35.5 68.0547 35.455C68.0547 35.405 68.0572 35.335 68.0622 35.245C68.0722 35.155 68.0847 35.0375 68.0997 34.8925C68.1197 34.7475 68.1447 34.5575 68.1747 34.3225L68.6397 30.52H67.7922C67.7222 30.52 67.6647 30.4975 67.6197 30.4525C67.5797 30.4025 67.5647 30.3275 67.5747 30.2275L67.6347 29.695L68.8047 29.5375L69.3747 27.19C69.3997 27.115 69.4372 27.055 69.4872 27.01C69.5422 26.96 69.6097 26.935 69.6897 26.935H70.3872L70.0647 29.5525H72.0597L71.9472 30.52H69.9447L69.4872 34.255C69.4622 34.46 69.4422 34.625 69.4272 34.75C69.4122 34.875 69.3997 34.975 69.3897 35.05C69.3847 35.125 69.3797 35.1775 69.3747 35.2075C69.3747 35.2375 69.3747 35.26 69.3747 35.275C69.3747 35.53 69.4347 35.72 69.5547 35.845C69.6747 35.965 69.8347 36.025 70.0347 36.025C70.1697 36.025 70.2847 36.0075 70.3797 35.9725C70.4797 35.9325 70.5672 35.89 70.6422 35.845C70.7172 35.8 70.7797 35.76 70.8297 35.725C70.8797 35.685 70.9222 35.665 70.9572 35.665C71.0022 35.665 71.0347 35.675 71.0547 35.695C71.0797 35.715 71.1022 35.7475 71.1222 35.7925L71.4072 36.43C71.1622 36.645 70.8822 36.815 70.5672 36.94C70.2572 37.06 69.9447 37.12 69.6297 37.12C69.1447 37.12 68.7622 36.9875 68.4822 36.7225C68.2072 36.4575 68.0647 36.0725 68.0547 35.5675ZM74.6771 31.5175C74.8771 31.0925 75.0921 30.725 75.3221 30.415C75.5571 30.1 75.8021 29.855 76.0571 29.68C76.3121 29.5 76.5746 29.3925 76.8446 29.3575C77.1146 29.3175 77.3896 29.3575 77.6696 29.4775L77.4296 30.76C76.7796 30.5 76.2046 30.595 75.7046 31.045C75.2096 31.495 74.8071 32.3075 74.4971 33.4825L74.0771 37H72.7721L73.6871 29.395H74.3471C74.6521 29.395 74.8046 29.545 74.8046 29.845L74.6771 31.5175ZM82.6939 30.3325C82.5839 30.3075 82.4739 30.2925 82.3639 30.2875C82.2589 30.2775 82.1539 30.2725 82.0489 30.2725C81.7489 30.2725 81.4589 30.3225 81.1789 30.4225C80.8989 30.5175 80.6364 30.6525 80.3914 30.8275C80.1464 31.0025 79.9239 31.2125 79.7239 31.4575C79.5239 31.6975 79.3514 31.9625 79.2064 32.2525C79.0664 32.5425 78.9564 32.8525 78.8764 33.1825C78.7964 33.5075 78.7564 33.8425 78.7564 34.1875C78.7564 35.3925 79.1414 35.995 79.9114 35.995C80.1564 35.995 80.3964 35.92 80.6314 35.77C80.8664 35.615 81.0889 35.4025 81.2989 35.1325C81.5139 34.8575 81.7114 34.535 81.8914 34.165C82.0714 33.79 82.2314 33.38 82.3714 32.935L82.6939 30.3325ZM82.1839 34.9975C82.0039 35.3175 81.8089 35.6075 81.5989 35.8675C81.3939 36.1275 81.1739 36.35 80.9389 36.535C80.7089 36.715 80.4639 36.855 80.2039 36.955C79.9489 37.055 79.6839 37.105 79.4089 37.105C79.1089 37.105 78.8364 37.0475 78.5914 36.9325C78.3464 36.8125 78.1364 36.64 77.9614 36.415C77.7914 36.185 77.6589 35.905 77.5639 35.575C77.4689 35.24 77.4214 34.8575 77.4214 34.4275C77.4214 33.9775 77.4764 33.54 77.5864 33.115C77.7014 32.685 77.8614 32.28 78.0664 31.9C78.2764 31.52 78.5264 31.1725 78.8164 30.8575C79.1064 30.5375 79.4289 30.2625 79.7839 30.0325C80.1439 29.7975 80.5289 29.6175 80.9389 29.4925C81.3489 29.3625 81.7789 29.2975 82.2289 29.2975C82.5539 29.2975 82.8689 29.325 83.1739 29.38C83.4839 29.43 83.7889 29.52 84.0889 29.65L83.1814 37H82.4914C82.3164 37 82.1964 36.955 82.1314 36.865C82.0714 36.775 82.0414 36.665 82.0414 36.535L82.1839 34.9975ZM87.055 31.5175C87.255 31.0925 87.47 30.725 87.7 30.415C87.935 30.1 88.18 29.855 88.435 29.68C88.69 29.5 88.9525 29.3925 89.2225 29.3575C89.4925 29.3175 89.7675 29.3575 90.0475 29.4775L89.8075 30.76C89.1575 30.5 88.5825 30.595 88.0825 31.045C87.5875 31.495 87.185 32.3075 86.875 33.4825L86.455 37H85.15L86.065 29.395H86.725C87.03 29.395 87.1825 29.545 87.1825 29.845L87.055 31.5175Z" fill="#A29AFF"/>
</svg>
