<svg width="619" height="129" viewBox="0 0 619 129" fill="none" xmlns="http://www.w3.org/2000/svg">
<mask id="mask0_72_787" style="mask-type:luminance" maskUnits="userSpaceOnUse" x="0" y="0" width="619" height="129">
<path d="M1 1H618V128H1V1Z" fill="white" stroke="white" stroke-width="2"/>
</mask>
<g mask="url(#mask0_72_787)">
<path d="M2.6444 127.054C6.82426 127.63 11.1333 128.142 15.2267 127.871L15.2287 127.87C19.0809 127.623 22.871 126.583 26.2625 124.877L26.713 124.65L27.1631 124.877C30.0674 126.345 33.4095 127.187 36.967 127.187H540.674C551.979 127.187 561 118.769 561 108.547V19.8455C561 9.62686 551.978 1.20215 540.674 1.20215H36.967C25.6623 1.20215 16.6406 9.62686 16.6406 19.8455V108.547C16.6406 109.451 16.7325 110.339 16.8768 111.234L16.9276 111.549L16.7866 111.835C14.9234 115.617 12.5843 119.188 9.21631 122.202L2.6444 127.054ZM2.6444 127.054C2.86279 126.905 3.08251 126.756 3.30309 126.607C5.31855 125.24 7.40622 123.824 9.21576 122.203L2.6444 127.054Z" fill="#E7476E" fill-opacity="0.3" stroke="#E7476E" stroke-width="2"/>
<path d="M66.1357 37.505L63.4807 59H60.6607L61.8607 49.19H51.3757L50.1757 59H47.3557L49.9957 37.505H52.8157L51.6307 47.15H62.1157L63.3007 37.505H66.1357ZM78.0108 45.665C77.7908 45.615 77.5708 45.585 77.3508 45.575C77.1408 45.555 76.9308 45.545 76.7208 45.545C76.1208 45.545 75.5408 45.645 74.9808 45.845C74.4208 46.035 73.8958 46.305 73.4058 46.655C72.9158 47.005 72.4708 47.425 72.0708 47.915C71.6708 48.395 71.3258 48.925 71.0358 49.505C70.7558 50.085 70.5358 50.705 70.3758 51.365C70.2158 52.015 70.1358 52.685 70.1358 53.375C70.1358 55.785 70.9058 56.99 72.4458 56.99C72.9358 56.99 73.4158 56.84 73.8858 56.54C74.3558 56.23 74.8008 55.805 75.2208 55.265C75.6508 54.715 76.0458 54.07 76.4058 53.33C76.7658 52.58 77.0858 51.76 77.3658 50.87L78.0108 45.665ZM76.9908 54.995C76.6308 55.635 76.2408 56.215 75.8208 56.735C75.4108 57.255 74.9708 57.7 74.5008 58.07C74.0408 58.43 73.5508 58.71 73.0308 58.91C72.5208 59.11 71.9908 59.21 71.4408 59.21C70.8408 59.21 70.2958 59.095 69.8058 58.865C69.3158 58.625 68.8958 58.28 68.5458 57.83C68.2058 57.37 67.9408 56.81 67.7508 56.15C67.5608 55.48 67.4658 54.715 67.4658 53.855C67.4658 52.955 67.5758 52.08 67.7958 51.23C68.0258 50.37 68.3458 49.56 68.7558 48.8C69.1758 48.04 69.6758 47.345 70.2558 46.715C70.8358 46.075 71.4808 45.525 72.1908 45.065C72.9108 44.595 73.6808 44.235 74.5008 43.985C75.3208 43.725 76.1808 43.595 77.0808 43.595C77.7308 43.595 78.3608 43.65 78.9708 43.76C79.5908 43.86 80.2008 44.04 80.8008 44.3L78.9858 59H77.6058C77.2558 59 77.0158 58.91 76.8858 58.73C76.7658 58.55 76.7058 58.33 76.7058 58.07L76.9908 54.995ZM94.5781 43.805L94.4281 44.945C94.4081 45.135 94.3531 45.32 94.2631 45.5C94.1831 45.67 94.0881 45.825 93.9781 45.965L85.2181 56.915H92.7031L92.4631 59H81.7681L81.9031 57.89C81.9131 57.76 81.9581 57.605 82.0381 57.425C82.1181 57.245 82.2231 57.08 82.3531 56.93L91.1581 45.905H83.7931L84.0481 43.805H94.5781ZM114.639 46.865C114.529 47.005 114.419 47.115 114.309 47.195C114.209 47.275 114.059 47.315 113.859 47.315C113.669 47.315 113.484 47.26 113.304 47.15C113.124 47.03 112.909 46.9 112.659 46.76C112.409 46.61 112.109 46.48 111.759 46.37C111.419 46.25 110.994 46.19 110.484 46.19C109.834 46.19 109.264 46.31 108.774 46.55C108.284 46.78 107.874 47.115 107.544 47.555C107.224 47.995 106.984 48.53 106.824 49.16C106.664 49.78 106.584 50.485 106.584 51.275C106.584 52.095 106.669 52.825 106.839 53.465C107.019 54.105 107.274 54.645 107.604 55.085C107.934 55.515 108.334 55.845 108.804 56.075C109.274 56.295 109.804 56.405 110.394 56.405C110.984 56.405 111.459 56.335 111.819 56.195C112.189 56.045 112.499 55.885 112.749 55.715C112.999 55.535 113.214 55.375 113.394 55.235C113.584 55.085 113.794 55.01 114.024 55.01C114.324 55.01 114.549 55.125 114.699 55.355L115.764 56.705C115.354 57.185 114.909 57.59 114.429 57.92C113.949 58.24 113.449 58.5 112.929 58.7C112.419 58.89 111.889 59.025 111.339 59.105C110.799 59.185 110.259 59.225 109.719 59.225C108.769 59.225 107.874 59.05 107.034 58.7C106.194 58.34 105.459 57.82 104.829 57.14C104.199 56.46 103.699 55.63 103.329 54.65C102.969 53.66 102.789 52.535 102.789 51.275C102.789 50.145 102.949 49.1 103.269 48.14C103.599 47.17 104.079 46.335 104.709 45.635C105.339 44.925 106.119 44.37 107.049 43.97C107.979 43.57 109.049 43.37 110.259 43.37C111.409 43.37 112.414 43.555 113.274 43.925C114.144 44.295 114.924 44.825 115.614 45.515L114.639 46.865ZM121.837 36.71V59H118.132V36.71H121.837ZM129.368 43.61V59H125.648V43.61H129.368ZM129.878 39.125C129.878 39.445 129.813 39.745 129.683 40.025C129.553 40.305 129.378 40.55 129.158 40.76C128.948 40.97 128.698 41.14 128.408 41.27C128.118 41.39 127.808 41.45 127.478 41.45C127.158 41.45 126.853 41.39 126.563 41.27C126.283 41.14 126.038 40.97 125.828 40.76C125.618 40.55 125.448 40.305 125.318 40.025C125.198 39.745 125.138 39.445 125.138 39.125C125.138 38.795 125.198 38.485 125.318 38.195C125.448 37.905 125.618 37.655 125.828 37.445C126.038 37.235 126.283 37.07 126.563 36.95C126.853 36.82 127.158 36.755 127.478 36.755C127.808 36.755 128.118 36.82 128.408 36.95C128.698 37.07 128.948 37.235 129.158 37.445C129.378 37.655 129.553 37.905 129.683 38.195C129.813 38.485 129.878 38.795 129.878 39.125ZM144.17 46.865C144.06 47.005 143.95 47.115 143.84 47.195C143.74 47.275 143.59 47.315 143.39 47.315C143.2 47.315 143.015 47.26 142.835 47.15C142.655 47.03 142.44 46.9 142.19 46.76C141.94 46.61 141.64 46.48 141.29 46.37C140.95 46.25 140.525 46.19 140.015 46.19C139.365 46.19 138.795 46.31 138.305 46.55C137.815 46.78 137.405 47.115 137.075 47.555C136.755 47.995 136.515 48.53 136.355 49.16C136.195 49.78 136.115 50.485 136.115 51.275C136.115 52.095 136.2 52.825 136.37 53.465C136.55 54.105 136.805 54.645 137.135 55.085C137.465 55.515 137.865 55.845 138.335 56.075C138.805 56.295 139.335 56.405 139.925 56.405C140.515 56.405 140.99 56.335 141.35 56.195C141.72 56.045 142.03 55.885 142.28 55.715C142.53 55.535 142.745 55.375 142.925 55.235C143.115 55.085 143.325 55.01 143.555 55.01C143.855 55.01 144.08 55.125 144.23 55.355L145.295 56.705C144.885 57.185 144.44 57.59 143.96 57.92C143.48 58.24 142.98 58.5 142.46 58.7C141.95 58.89 141.42 59.025 140.87 59.105C140.33 59.185 139.79 59.225 139.25 59.225C138.3 59.225 137.405 59.05 136.565 58.7C135.725 58.34 134.99 57.82 134.36 57.14C133.73 56.46 133.23 55.63 132.86 54.65C132.5 53.66 132.32 52.535 132.32 51.275C132.32 50.145 132.48 49.1 132.8 48.14C133.13 47.17 133.61 46.335 134.24 45.635C134.87 44.925 135.65 44.37 136.58 43.97C137.51 43.57 138.58 43.37 139.79 43.37C140.94 43.37 141.945 43.555 142.805 43.925C143.675 44.295 144.455 44.825 145.145 45.515L144.17 46.865ZM151.323 36.71V49.475H152.013C152.263 49.475 152.458 49.445 152.598 49.385C152.748 49.315 152.898 49.18 153.048 48.98L156.873 44.255C157.033 44.045 157.208 43.885 157.398 43.775C157.598 43.665 157.853 43.61 158.163 43.61H161.553L156.768 49.325C156.428 49.775 156.058 50.12 155.658 50.36C155.868 50.51 156.053 50.685 156.213 50.885C156.383 51.085 156.543 51.3 156.693 51.53L161.823 59H158.478C158.188 59 157.938 58.955 157.728 58.865C157.518 58.765 157.343 58.59 157.203 58.34L153.273 52.505C153.133 52.275 152.988 52.125 152.838 52.055C152.688 51.985 152.463 51.95 152.163 51.95H151.323V59H147.618V36.71H151.323ZM172.73 55.67C173.11 56.2 173.565 56.58 174.095 56.81C174.625 57.03 175.165 57.14 175.715 57.14C176.235 57.14 176.725 57.03 177.185 56.81C177.645 56.59 178.065 56.295 178.445 55.925C178.825 55.545 179.165 55.105 179.465 54.605C179.765 54.095 180.015 53.555 180.215 52.985C180.425 52.405 180.585 51.81 180.695 51.2C180.805 50.58 180.86 49.97 180.86 49.37C180.86 48.18 180.645 47.275 180.215 46.655C179.785 46.035 179.18 45.725 178.4 45.725C177.92 45.725 177.435 45.875 176.945 46.175C176.455 46.465 175.98 46.875 175.52 47.405C175.07 47.935 174.645 48.565 174.245 49.295C173.855 50.025 173.515 50.825 173.225 51.695L172.73 55.67ZM173.54 47.93C173.92 47.27 174.335 46.675 174.785 46.145C175.235 45.605 175.71 45.145 176.21 44.765C176.71 44.385 177.225 44.095 177.755 43.895C178.295 43.685 178.845 43.58 179.405 43.58C180.705 43.58 181.71 44.05 182.42 44.99C183.14 45.93 183.5 47.305 183.5 49.115C183.5 49.935 183.415 50.755 183.245 51.575C183.075 52.395 182.83 53.18 182.51 53.93C182.2 54.67 181.82 55.365 181.37 56.015C180.93 56.655 180.435 57.215 179.885 57.695C179.345 58.165 178.755 58.535 178.115 58.805C177.475 59.075 176.805 59.21 176.105 59.21C175.355 59.21 174.675 59.065 174.065 58.775C173.455 58.475 172.935 58.055 172.505 57.515L171.695 64.145H169.1L171.575 43.79H172.895C173.495 43.79 173.795 44.09 173.795 44.69L173.54 47.93ZM195.989 45.665C195.769 45.615 195.549 45.585 195.329 45.575C195.119 45.555 194.909 45.545 194.699 45.545C194.099 45.545 193.519 45.645 192.959 45.845C192.399 46.035 191.874 46.305 191.384 46.655C190.894 47.005 190.449 47.425 190.049 47.915C189.649 48.395 189.304 48.925 189.014 49.505C188.734 50.085 188.514 50.705 188.354 51.365C188.194 52.015 188.114 52.685 188.114 53.375C188.114 55.785 188.884 56.99 190.424 56.99C190.914 56.99 191.394 56.84 191.864 56.54C192.334 56.23 192.779 55.805 193.199 55.265C193.629 54.715 194.024 54.07 194.384 53.33C194.744 52.58 195.064 51.76 195.344 50.87L195.989 45.665ZM194.969 54.995C194.609 55.635 194.219 56.215 193.799 56.735C193.389 57.255 192.949 57.7 192.479 58.07C192.019 58.43 191.529 58.71 191.009 58.91C190.499 59.11 189.969 59.21 189.419 59.21C188.819 59.21 188.274 59.095 187.784 58.865C187.294 58.625 186.874 58.28 186.524 57.83C186.184 57.37 185.919 56.81 185.729 56.15C185.539 55.48 185.444 54.715 185.444 53.855C185.444 52.955 185.554 52.08 185.774 51.23C186.004 50.37 186.324 49.56 186.734 48.8C187.154 48.04 187.654 47.345 188.234 46.715C188.814 46.075 189.459 45.525 190.169 45.065C190.889 44.595 191.659 44.235 192.479 43.985C193.299 43.725 194.159 43.595 195.059 43.595C195.709 43.595 196.339 43.65 196.949 43.76C197.569 43.86 198.179 44.04 198.779 44.3L196.964 59H195.584C195.234 59 194.994 58.91 194.864 58.73C194.744 58.55 194.684 58.33 194.684 58.07L194.969 54.995ZM204.712 48.035C205.112 47.185 205.542 46.45 206.002 45.83C206.472 45.2 206.962 44.71 207.472 44.36C207.982 44 208.507 43.785 209.047 43.715C209.587 43.635 210.137 43.715 210.697 43.955L210.217 46.52C208.917 46 207.767 46.19 206.767 47.09C205.777 47.99 204.972 49.615 204.352 51.965L203.512 59H200.902L202.732 43.79H204.052C204.662 43.79 204.967 44.09 204.967 44.69L204.712 48.035ZM220.745 45.665C220.525 45.615 220.305 45.585 220.085 45.575C219.875 45.555 219.665 45.545 219.455 45.545C218.855 45.545 218.275 45.645 217.715 45.845C217.155 46.035 216.63 46.305 216.14 46.655C215.65 47.005 215.205 47.425 214.805 47.915C214.405 48.395 214.06 48.925 213.77 49.505C213.49 50.085 213.27 50.705 213.11 51.365C212.95 52.015 212.87 52.685 212.87 53.375C212.87 55.785 213.64 56.99 215.18 56.99C215.67 56.99 216.15 56.84 216.62 56.54C217.09 56.23 217.535 55.805 217.955 55.265C218.385 54.715 218.78 54.07 219.14 53.33C219.5 52.58 219.82 51.76 220.1 50.87L220.745 45.665ZM219.725 54.995C219.365 55.635 218.975 56.215 218.555 56.735C218.145 57.255 217.705 57.7 217.235 58.07C216.775 58.43 216.285 58.71 215.765 58.91C215.255 59.11 214.725 59.21 214.175 59.21C213.575 59.21 213.03 59.095 212.54 58.865C212.05 58.625 211.63 58.28 211.28 57.83C210.94 57.37 210.675 56.81 210.485 56.15C210.295 55.48 210.2 54.715 210.2 53.855C210.2 52.955 210.31 52.08 210.53 51.23C210.76 50.37 211.08 49.56 211.49 48.8C211.91 48.04 212.41 47.345 212.99 46.715C213.57 46.075 214.215 45.525 214.925 45.065C215.645 44.595 216.415 44.235 217.235 43.985C218.055 43.725 218.915 43.595 219.815 43.595C220.465 43.595 221.095 43.65 221.705 43.76C222.325 43.86 222.935 44.04 223.535 44.3L221.72 59H220.34C219.99 59 219.75 58.91 219.62 58.73C219.5 58.55 219.44 58.33 219.44 58.07L219.725 54.995ZM242.484 46.235C242.404 46.355 242.324 46.445 242.244 46.505C242.164 46.555 242.064 46.58 241.944 46.58C241.804 46.58 241.649 46.525 241.479 46.415C241.319 46.305 241.119 46.185 240.879 46.055C240.649 45.915 240.364 45.79 240.024 45.68C239.684 45.56 239.274 45.5 238.794 45.5C238.344 45.5 237.934 45.565 237.564 45.695C237.194 45.815 236.874 45.985 236.604 46.205C236.344 46.425 236.139 46.685 235.989 46.985C235.849 47.275 235.779 47.585 235.779 47.915C235.779 48.385 235.934 48.76 236.244 49.04C236.554 49.32 236.944 49.565 237.414 49.775C237.884 49.975 238.389 50.17 238.929 50.36C239.469 50.55 239.974 50.79 240.444 51.08C240.914 51.37 241.304 51.74 241.614 52.19C241.924 52.64 242.079 53.225 242.079 53.945C242.079 54.645 241.939 55.315 241.659 55.955C241.389 56.595 240.994 57.16 240.474 57.65C239.964 58.13 239.344 58.515 238.614 58.805C237.894 59.095 237.084 59.24 236.184 59.24C235.214 59.24 234.354 59.07 233.604 58.73C232.864 58.38 232.259 57.935 231.789 57.395L232.449 56.375C232.539 56.245 232.634 56.145 232.734 56.075C232.844 56.005 232.984 55.97 233.154 55.97C233.314 55.97 233.474 56.04 233.634 56.18C233.794 56.32 233.994 56.48 234.234 56.66C234.474 56.83 234.774 56.985 235.134 57.125C235.504 57.265 235.969 57.335 236.529 57.335C237.019 57.335 237.459 57.26 237.849 57.11C238.249 56.96 238.584 56.76 238.854 56.51C239.134 56.26 239.344 55.97 239.484 55.64C239.634 55.3 239.709 54.94 239.709 54.56C239.709 54.05 239.554 53.645 239.244 53.345C238.934 53.045 238.544 52.795 238.074 52.595C237.604 52.395 237.099 52.21 236.559 52.04C236.019 51.86 235.514 51.635 235.044 51.365C234.574 51.085 234.184 50.725 233.874 50.285C233.564 49.845 233.409 49.26 233.409 48.53C233.409 47.89 233.534 47.275 233.784 46.685C234.044 46.085 234.414 45.555 234.894 45.095C235.374 44.635 235.954 44.27 236.634 44C237.324 43.72 238.099 43.58 238.959 43.58C239.869 43.58 240.669 43.735 241.359 44.045C242.059 44.345 242.659 44.755 243.159 45.275L242.484 46.235ZM255.11 45.665C254.89 45.615 254.67 45.585 254.45 45.575C254.24 45.555 254.03 45.545 253.82 45.545C253.22 45.545 252.64 45.645 252.08 45.845C251.52 46.035 250.995 46.305 250.505 46.655C250.015 47.005 249.57 47.425 249.17 47.915C248.77 48.395 248.425 48.925 248.135 49.505C247.855 50.085 247.635 50.705 247.475 51.365C247.315 52.015 247.235 52.685 247.235 53.375C247.235 55.785 248.005 56.99 249.545 56.99C250.035 56.99 250.515 56.84 250.985 56.54C251.455 56.23 251.9 55.805 252.32 55.265C252.75 54.715 253.145 54.07 253.505 53.33C253.865 52.58 254.185 51.76 254.465 50.87L255.11 45.665ZM254.09 54.995C253.73 55.635 253.34 56.215 252.92 56.735C252.51 57.255 252.07 57.7 251.6 58.07C251.14 58.43 250.65 58.71 250.13 58.91C249.62 59.11 249.09 59.21 248.54 59.21C247.94 59.21 247.395 59.095 246.905 58.865C246.415 58.625 245.995 58.28 245.645 57.83C245.305 57.37 245.04 56.81 244.85 56.15C244.66 55.48 244.565 54.715 244.565 53.855C244.565 52.955 244.675 52.08 244.895 51.23C245.125 50.37 245.445 49.56 245.855 48.8C246.275 48.04 246.775 47.345 247.355 46.715C247.935 46.075 248.58 45.525 249.29 45.065C250.01 44.595 250.78 44.235 251.6 43.985C252.42 43.725 253.28 43.595 254.18 43.595C254.83 43.595 255.46 43.65 256.07 43.76C256.69 43.86 257.3 44.04 257.9 44.3L256.085 59H254.705C254.355 59 254.115 58.91 253.985 58.73C253.865 58.55 253.805 58.33 253.805 58.07L254.09 54.995ZM263.023 55.67C263.403 56.2 263.858 56.58 264.388 56.81C264.928 57.03 265.468 57.14 266.008 57.14C266.528 57.14 267.018 57.03 267.478 56.81C267.938 56.59 268.358 56.295 268.738 55.925C269.118 55.545 269.453 55.105 269.743 54.605C270.043 54.095 270.298 53.555 270.508 52.985C270.718 52.405 270.873 51.81 270.973 51.2C271.083 50.58 271.138 49.97 271.138 49.37C271.138 48.18 270.923 47.275 270.493 46.655C270.073 46.035 269.473 45.725 268.693 45.725C268.213 45.725 267.728 45.875 267.238 46.175C266.748 46.475 266.273 46.895 265.813 47.435C265.353 47.965 264.923 48.6 264.523 49.34C264.133 50.07 263.793 50.87 263.503 51.74L263.023 55.67ZM263.998 47.66C264.378 47.04 264.783 46.48 265.213 45.98C265.653 45.48 266.113 45.055 266.593 44.705C267.073 44.345 267.573 44.07 268.093 43.88C268.613 43.68 269.143 43.58 269.683 43.58C270.983 43.58 271.993 44.05 272.713 44.99C273.433 45.93 273.793 47.305 273.793 49.115C273.793 49.935 273.708 50.755 273.538 51.575C273.368 52.395 273.123 53.18 272.803 53.93C272.493 54.67 272.113 55.365 271.663 56.015C271.223 56.655 270.728 57.215 270.178 57.695C269.638 58.165 269.048 58.535 268.408 58.805C267.768 59.075 267.098 59.21 266.398 59.21C265.588 59.21 264.858 59.04 264.208 58.7C263.558 58.36 263.018 57.875 262.588 57.245L262.378 58.22C262.298 58.48 262.198 58.675 262.078 58.805C261.958 58.935 261.743 59 261.433 59H260.023L262.693 36.905H265.303L263.998 47.66ZM283.597 45.515C282.967 45.515 282.387 45.645 281.857 45.905C281.327 46.165 280.857 46.525 280.447 46.985C280.037 47.435 279.687 47.97 279.397 48.59C279.107 49.2 278.882 49.86 278.722 50.57C280.262 50.38 281.497 50.165 282.427 49.925C283.357 49.675 284.072 49.41 284.572 49.13C285.072 48.84 285.402 48.53 285.562 48.2C285.722 47.87 285.802 47.525 285.802 47.165C285.802 46.985 285.762 46.8 285.682 46.61C285.602 46.41 285.472 46.23 285.292 46.07C285.122 45.91 284.897 45.78 284.617 45.68C284.337 45.57 283.997 45.515 283.597 45.515ZM287.827 56.195C287.317 56.725 286.817 57.18 286.327 57.56C285.837 57.93 285.337 58.24 284.827 58.49C284.327 58.74 283.797 58.92 283.237 59.03C282.687 59.15 282.092 59.21 281.452 59.21C280.582 59.21 279.802 59.065 279.112 58.775C278.422 58.485 277.837 58.075 277.357 57.545C276.877 57.005 276.507 56.355 276.247 55.595C275.987 54.835 275.857 53.985 275.857 53.045C275.857 52.265 275.937 51.49 276.097 50.72C276.267 49.94 276.507 49.2 276.817 48.5C277.137 47.8 277.522 47.15 277.972 46.55C278.432 45.95 278.952 45.435 279.532 45.005C280.122 44.565 280.767 44.22 281.467 43.97C282.177 43.72 282.937 43.595 283.747 43.595C284.517 43.595 285.182 43.705 285.742 43.925C286.302 44.145 286.762 44.425 287.122 44.765C287.482 45.105 287.747 45.48 287.917 45.89C288.097 46.3 288.187 46.69 288.187 47.06C288.187 47.72 288.052 48.33 287.782 48.89C287.512 49.44 287.017 49.94 286.297 50.39C285.577 50.83 284.587 51.215 283.327 51.545C282.067 51.875 280.447 52.14 278.467 52.34C278.467 52.45 278.462 52.56 278.452 52.67C278.452 52.77 278.452 52.875 278.452 52.985C278.452 54.325 278.742 55.35 279.322 56.06C279.912 56.76 280.797 57.11 281.977 57.11C282.457 57.11 282.882 57.06 283.252 56.96C283.632 56.86 283.967 56.74 284.257 56.6C284.557 56.45 284.817 56.29 285.037 56.12C285.267 55.94 285.472 55.78 285.652 55.64C285.842 55.49 286.017 55.365 286.177 55.265C286.337 55.165 286.497 55.115 286.657 55.115C286.847 55.115 287.017 55.2 287.167 55.37L287.827 56.195ZM294.038 48.035C294.438 47.185 294.868 46.45 295.328 45.83C295.798 45.2 296.288 44.71 296.798 44.36C297.308 44 297.833 43.785 298.373 43.715C298.913 43.635 299.463 43.715 300.023 43.955L299.543 46.52C298.243 46 297.093 46.19 296.093 47.09C295.103 47.99 294.298 49.615 293.678 51.965L292.838 59H290.228L292.058 43.79H293.378C293.988 43.79 294.293 44.09 294.293 44.69L294.038 48.035ZM316.751 46.235C316.671 46.355 316.591 46.445 316.511 46.505C316.431 46.555 316.331 46.58 316.211 46.58C316.071 46.58 315.916 46.525 315.746 46.415C315.586 46.305 315.386 46.185 315.146 46.055C314.916 45.915 314.631 45.79 314.291 45.68C313.951 45.56 313.541 45.5 313.061 45.5C312.611 45.5 312.201 45.565 311.831 45.695C311.461 45.815 311.141 45.985 310.871 46.205C310.611 46.425 310.406 46.685 310.256 46.985C310.116 47.275 310.046 47.585 310.046 47.915C310.046 48.385 310.201 48.76 310.511 49.04C310.821 49.32 311.211 49.565 311.681 49.775C312.151 49.975 312.656 50.17 313.196 50.36C313.736 50.55 314.241 50.79 314.711 51.08C315.181 51.37 315.571 51.74 315.881 52.19C316.191 52.64 316.346 53.225 316.346 53.945C316.346 54.645 316.206 55.315 315.926 55.955C315.656 56.595 315.261 57.16 314.741 57.65C314.231 58.13 313.611 58.515 312.881 58.805C312.161 59.095 311.351 59.24 310.451 59.24C309.481 59.24 308.621 59.07 307.871 58.73C307.131 58.38 306.526 57.935 306.056 57.395L306.716 56.375C306.806 56.245 306.901 56.145 307.001 56.075C307.111 56.005 307.251 55.97 307.421 55.97C307.581 55.97 307.741 56.04 307.901 56.18C308.061 56.32 308.261 56.48 308.501 56.66C308.741 56.83 309.041 56.985 309.401 57.125C309.771 57.265 310.236 57.335 310.796 57.335C311.286 57.335 311.726 57.26 312.116 57.11C312.516 56.96 312.851 56.76 313.121 56.51C313.401 56.26 313.611 55.97 313.751 55.64C313.901 55.3 313.976 54.94 313.976 54.56C313.976 54.05 313.821 53.645 313.511 53.345C313.201 53.045 312.811 52.795 312.341 52.595C311.871 52.395 311.366 52.21 310.826 52.04C310.286 51.86 309.781 51.635 309.311 51.365C308.841 51.085 308.451 50.725 308.141 50.285C307.831 49.845 307.676 49.26 307.676 48.53C307.676 47.89 307.801 47.275 308.051 46.685C308.311 46.085 308.681 45.555 309.161 45.095C309.641 44.635 310.221 44.27 310.901 44C311.591 43.72 312.366 43.58 313.226 43.58C314.136 43.58 314.936 43.735 315.626 44.045C316.326 44.345 316.926 44.755 317.426 45.275L316.751 46.235ZM324.878 57.125C325.608 57.125 326.268 56.925 326.858 56.525C327.458 56.125 327.968 55.595 328.388 54.935C328.818 54.265 329.148 53.495 329.378 52.625C329.608 51.755 329.723 50.845 329.723 49.895C329.723 48.495 329.443 47.445 328.883 46.745C328.333 46.035 327.538 45.68 326.498 45.68C325.758 45.68 325.088 45.88 324.488 46.28C323.898 46.67 323.393 47.195 322.973 47.855C322.553 48.515 322.228 49.28 321.998 50.15C321.768 51.02 321.653 51.93 321.653 52.88C321.653 54.28 321.928 55.34 322.478 56.06C323.028 56.77 323.828 57.125 324.878 57.125ZM324.623 59.21C323.793 59.21 323.033 59.07 322.343 58.79C321.653 58.5 321.058 58.085 320.558 57.545C320.058 57.005 319.668 56.345 319.388 55.565C319.108 54.785 318.968 53.895 318.968 52.895C318.968 51.615 319.168 50.41 319.568 49.28C319.968 48.15 320.518 47.165 321.218 46.325C321.918 45.475 322.738 44.805 323.678 44.315C324.628 43.825 325.648 43.58 326.738 43.58C327.568 43.58 328.328 43.725 329.018 44.015C329.708 44.295 330.303 44.705 330.803 45.245C331.303 45.785 331.693 46.445 331.973 47.225C332.253 48.005 332.393 48.89 332.393 49.88C332.393 51.15 332.193 52.35 331.793 53.48C331.393 54.61 330.843 55.6 330.143 56.45C329.453 57.3 328.633 57.975 327.683 58.475C326.733 58.965 325.713 59.21 324.623 59.21ZM337.525 55.67C337.905 56.2 338.36 56.58 338.89 56.81C339.43 57.03 339.97 57.14 340.51 57.14C341.03 57.14 341.52 57.03 341.98 56.81C342.44 56.59 342.86 56.295 343.24 55.925C343.62 55.545 343.955 55.105 344.245 54.605C344.545 54.095 344.8 53.555 345.01 52.985C345.22 52.405 345.375 51.81 345.475 51.2C345.585 50.58 345.64 49.97 345.64 49.37C345.64 48.18 345.425 47.275 344.995 46.655C344.575 46.035 343.975 45.725 343.195 45.725C342.715 45.725 342.23 45.875 341.74 46.175C341.25 46.475 340.775 46.895 340.315 47.435C339.855 47.965 339.425 48.6 339.025 49.34C338.635 50.07 338.295 50.87 338.005 51.74L337.525 55.67ZM338.5 47.66C338.88 47.04 339.285 46.48 339.715 45.98C340.155 45.48 340.615 45.055 341.095 44.705C341.575 44.345 342.075 44.07 342.595 43.88C343.115 43.68 343.645 43.58 344.185 43.58C345.485 43.58 346.495 44.05 347.215 44.99C347.935 45.93 348.295 47.305 348.295 49.115C348.295 49.935 348.21 50.755 348.04 51.575C347.87 52.395 347.625 53.18 347.305 53.93C346.995 54.67 346.615 55.365 346.165 56.015C345.725 56.655 345.23 57.215 344.68 57.695C344.14 58.165 343.55 58.535 342.91 58.805C342.27 59.075 341.6 59.21 340.9 59.21C340.09 59.21 339.36 59.04 338.71 58.7C338.06 58.36 337.52 57.875 337.09 57.245L336.88 58.22C336.8 58.48 336.7 58.675 336.58 58.805C336.46 58.935 336.245 59 335.935 59H334.525L337.195 36.905H339.805L338.5 47.66ZM354.184 48.035C354.584 47.185 355.014 46.45 355.474 45.83C355.944 45.2 356.434 44.71 356.944 44.36C357.454 44 357.979 43.785 358.519 43.715C359.059 43.635 359.609 43.715 360.169 43.955L359.689 46.52C358.389 46 357.239 46.19 356.239 47.09C355.249 47.99 354.444 49.615 353.824 51.965L352.984 59H350.374L352.204 43.79H353.524C354.134 43.79 354.439 44.09 354.439 44.69L354.184 48.035ZM367.797 45.515C367.167 45.515 366.587 45.645 366.057 45.905C365.527 46.165 365.057 46.525 364.647 46.985C364.237 47.435 363.887 47.97 363.597 48.59C363.307 49.2 363.082 49.86 362.922 50.57C364.462 50.38 365.697 50.165 366.627 49.925C367.557 49.675 368.272 49.41 368.772 49.13C369.272 48.84 369.602 48.53 369.762 48.2C369.922 47.87 370.002 47.525 370.002 47.165C370.002 46.985 369.962 46.8 369.882 46.61C369.802 46.41 369.672 46.23 369.492 46.07C369.322 45.91 369.097 45.78 368.817 45.68C368.537 45.57 368.197 45.515 367.797 45.515ZM372.027 56.195C371.517 56.725 371.017 57.18 370.527 57.56C370.037 57.93 369.537 58.24 369.027 58.49C368.527 58.74 367.997 58.92 367.437 59.03C366.887 59.15 366.292 59.21 365.652 59.21C364.782 59.21 364.002 59.065 363.312 58.775C362.622 58.485 362.037 58.075 361.557 57.545C361.077 57.005 360.707 56.355 360.447 55.595C360.187 54.835 360.057 53.985 360.057 53.045C360.057 52.265 360.137 51.49 360.297 50.72C360.467 49.94 360.707 49.2 361.017 48.5C361.337 47.8 361.722 47.15 362.172 46.55C362.632 45.95 363.152 45.435 363.732 45.005C364.322 44.565 364.967 44.22 365.667 43.97C366.377 43.72 367.137 43.595 367.947 43.595C368.717 43.595 369.382 43.705 369.942 43.925C370.502 44.145 370.962 44.425 371.322 44.765C371.682 45.105 371.947 45.48 372.117 45.89C372.297 46.3 372.387 46.69 372.387 47.06C372.387 47.72 372.252 48.33 371.982 48.89C371.712 49.44 371.217 49.94 370.497 50.39C369.777 50.83 368.787 51.215 367.527 51.545C366.267 51.875 364.647 52.14 362.667 52.34C362.667 52.45 362.662 52.56 362.652 52.67C362.652 52.77 362.652 52.875 362.652 52.985C362.652 54.325 362.942 55.35 363.522 56.06C364.112 56.76 364.997 57.11 366.177 57.11C366.657 57.11 367.082 57.06 367.452 56.96C367.832 56.86 368.167 56.74 368.457 56.6C368.757 56.45 369.017 56.29 369.237 56.12C369.467 55.94 369.672 55.78 369.852 55.64C370.042 55.49 370.217 55.365 370.377 55.265C370.537 55.165 370.697 55.115 370.857 55.115C371.047 55.115 371.217 55.2 371.367 55.37L372.027 56.195ZM381.533 59L384.218 36.905H386.843L384.158 59H381.533ZM394.107 57.125C394.837 57.125 395.497 56.925 396.087 56.525C396.687 56.125 397.197 55.595 397.617 54.935C398.047 54.265 398.377 53.495 398.607 52.625C398.837 51.755 398.952 50.845 398.952 49.895C398.952 48.495 398.672 47.445 398.112 46.745C397.562 46.035 396.767 45.68 395.727 45.68C394.987 45.68 394.317 45.88 393.717 46.28C393.127 46.67 392.622 47.195 392.202 47.855C391.782 48.515 391.457 49.28 391.227 50.15C390.997 51.02 390.882 51.93 390.882 52.88C390.882 54.28 391.157 55.34 391.707 56.06C392.257 56.77 393.057 57.125 394.107 57.125ZM393.852 59.21C393.022 59.21 392.262 59.07 391.572 58.79C390.882 58.5 390.287 58.085 389.787 57.545C389.287 57.005 388.897 56.345 388.617 55.565C388.337 54.785 388.197 53.895 388.197 52.895C388.197 51.615 388.397 50.41 388.797 49.28C389.197 48.15 389.747 47.165 390.447 46.325C391.147 45.475 391.967 44.805 392.907 44.315C393.857 43.825 394.877 43.58 395.967 43.58C396.797 43.58 397.557 43.725 398.247 44.015C398.937 44.295 399.532 44.705 400.032 45.245C400.532 45.785 400.922 46.445 401.202 47.225C401.482 48.005 401.622 48.89 401.622 49.88C401.622 51.15 401.422 52.35 401.022 53.48C400.622 54.61 400.072 55.6 399.372 56.45C398.682 57.3 397.862 57.975 396.912 58.475C395.962 58.965 394.942 59.21 393.852 59.21ZM413.548 46.235C413.468 46.355 413.388 46.445 413.308 46.505C413.228 46.555 413.128 46.58 413.008 46.58C412.868 46.58 412.713 46.525 412.543 46.415C412.383 46.305 412.183 46.185 411.943 46.055C411.713 45.915 411.428 45.79 411.088 45.68C410.748 45.56 410.338 45.5 409.858 45.5C409.408 45.5 408.998 45.565 408.628 45.695C408.258 45.815 407.938 45.985 407.668 46.205C407.408 46.425 407.203 46.685 407.053 46.985C406.913 47.275 406.843 47.585 406.843 47.915C406.843 48.385 406.998 48.76 407.308 49.04C407.618 49.32 408.008 49.565 408.478 49.775C408.948 49.975 409.453 50.17 409.993 50.36C410.533 50.55 411.038 50.79 411.508 51.08C411.978 51.37 412.368 51.74 412.678 52.19C412.988 52.64 413.143 53.225 413.143 53.945C413.143 54.645 413.003 55.315 412.723 55.955C412.453 56.595 412.058 57.16 411.538 57.65C411.028 58.13 410.408 58.515 409.678 58.805C408.958 59.095 408.148 59.24 407.248 59.24C406.278 59.24 405.418 59.07 404.668 58.73C403.928 58.38 403.323 57.935 402.853 57.395L403.513 56.375C403.603 56.245 403.698 56.145 403.798 56.075C403.908 56.005 404.048 55.97 404.218 55.97C404.378 55.97 404.538 56.04 404.698 56.18C404.858 56.32 405.058 56.48 405.298 56.66C405.538 56.83 405.838 56.985 406.198 57.125C406.568 57.265 407.033 57.335 407.593 57.335C408.083 57.335 408.523 57.26 408.913 57.11C409.313 56.96 409.648 56.76 409.918 56.51C410.198 56.26 410.408 55.97 410.548 55.64C410.698 55.3 410.773 54.94 410.773 54.56C410.773 54.05 410.618 53.645 410.308 53.345C409.998 53.045 409.608 52.795 409.138 52.595C408.668 52.395 408.163 52.21 407.623 52.04C407.083 51.86 406.578 51.635 406.108 51.365C405.638 51.085 405.248 50.725 404.938 50.285C404.628 49.845 404.473 49.26 404.473 48.53C404.473 47.89 404.598 47.275 404.848 46.685C405.108 46.085 405.478 45.555 405.958 45.095C406.438 44.635 407.018 44.27 407.698 44C408.388 43.72 409.163 43.58 410.023 43.58C410.933 43.58 411.733 43.735 412.423 44.045C413.123 44.345 413.723 44.755 414.223 45.275L413.548 46.235ZM427.401 43.805L425.571 59H422.946L424.776 43.805H427.401ZM428.421 39.035C428.421 39.295 428.366 39.54 428.256 39.77C428.156 39.99 428.016 40.19 427.836 40.37C427.666 40.54 427.466 40.675 427.236 40.775C427.016 40.875 426.786 40.925 426.546 40.925C426.316 40.925 426.091 40.875 425.871 40.775C425.651 40.675 425.456 40.54 425.286 40.37C425.126 40.19 424.996 39.99 424.896 39.77C424.796 39.54 424.746 39.295 424.746 39.035C424.746 38.775 424.796 38.53 424.896 38.3C424.996 38.07 425.131 37.87 425.301 37.7C425.471 37.52 425.666 37.38 425.886 37.28C426.106 37.17 426.331 37.115 426.561 37.115C426.801 37.115 427.031 37.165 427.251 37.265C427.481 37.365 427.681 37.505 427.851 37.685C428.021 37.855 428.156 38.06 428.256 38.3C428.366 38.53 428.421 38.775 428.421 39.035ZM429.71 59L431.54 43.79H432.86C433.47 43.79 433.775 44.09 433.775 44.69L433.565 47.39C434.315 46.14 435.135 45.195 436.025 44.555C436.925 43.905 437.865 43.58 438.845 43.58C439.875 43.58 440.635 43.935 441.125 44.645C441.615 45.345 441.86 46.35 441.86 47.66C442.61 46.27 443.455 45.245 444.395 44.585C445.345 43.915 446.345 43.58 447.395 43.58C448.695 43.58 449.615 44.08 450.155 45.08C450.695 46.08 450.855 47.495 450.635 49.325L449.495 59H446.855L448.01 49.325C448.15 48.135 448.11 47.25 447.89 46.67C447.68 46.09 447.2 45.8 446.45 45.8C446.02 45.8 445.59 45.91 445.16 46.13C444.74 46.34 444.33 46.655 443.93 47.075C443.53 47.485 443.155 48 442.805 48.62C442.465 49.23 442.16 49.935 441.89 50.735V50.75L440.915 59H438.275L439.415 49.325C439.565 48.135 439.545 47.25 439.355 46.67C439.165 46.09 438.695 45.8 437.945 45.8C437.465 45.8 437 45.92 436.55 46.16C436.11 46.4 435.69 46.75 435.29 47.21C434.9 47.66 434.535 48.215 434.195 48.875C433.855 49.525 433.545 50.26 433.265 51.08L432.32 59H429.71ZM456.323 55.67C456.703 56.2 457.158 56.58 457.688 56.81C458.218 57.03 458.758 57.14 459.308 57.14C459.828 57.14 460.318 57.03 460.778 56.81C461.238 56.59 461.658 56.295 462.038 55.925C462.418 55.545 462.758 55.105 463.058 54.605C463.358 54.095 463.608 53.555 463.808 52.985C464.018 52.405 464.178 51.81 464.288 51.2C464.398 50.58 464.453 49.97 464.453 49.37C464.453 48.18 464.238 47.275 463.808 46.655C463.378 46.035 462.773 45.725 461.993 45.725C461.513 45.725 461.028 45.875 460.538 46.175C460.048 46.465 459.573 46.875 459.113 47.405C458.663 47.935 458.238 48.565 457.838 49.295C457.448 50.025 457.108 50.825 456.818 51.695L456.323 55.67ZM457.133 47.93C457.513 47.27 457.928 46.675 458.378 46.145C458.828 45.605 459.303 45.145 459.803 44.765C460.303 44.385 460.818 44.095 461.348 43.895C461.888 43.685 462.438 43.58 462.998 43.58C464.298 43.58 465.303 44.05 466.013 44.99C466.733 45.93 467.093 47.305 467.093 49.115C467.093 49.935 467.008 50.755 466.838 51.575C466.668 52.395 466.423 53.18 466.103 53.93C465.793 54.67 465.413 55.365 464.963 56.015C464.523 56.655 464.028 57.215 463.478 57.695C462.938 58.165 462.348 58.535 461.708 58.805C461.068 59.075 460.398 59.21 459.698 59.21C458.948 59.21 458.268 59.065 457.658 58.775C457.048 58.475 456.528 58.055 456.098 57.515L455.288 64.145H452.693L455.168 43.79H456.488C457.088 43.79 457.388 44.09 457.388 44.69L457.133 47.93ZM479.583 45.665C479.363 45.615 479.143 45.585 478.923 45.575C478.713 45.555 478.503 45.545 478.293 45.545C477.693 45.545 477.113 45.645 476.553 45.845C475.993 46.035 475.468 46.305 474.978 46.655C474.488 47.005 474.043 47.425 473.643 47.915C473.243 48.395 472.898 48.925 472.608 49.505C472.328 50.085 472.108 50.705 471.948 51.365C471.788 52.015 471.708 52.685 471.708 53.375C471.708 55.785 472.478 56.99 474.018 56.99C474.508 56.99 474.988 56.84 475.458 56.54C475.928 56.23 476.373 55.805 476.793 55.265C477.223 54.715 477.618 54.07 477.978 53.33C478.338 52.58 478.658 51.76 478.938 50.87L479.583 45.665ZM478.563 54.995C478.203 55.635 477.813 56.215 477.393 56.735C476.983 57.255 476.543 57.7 476.073 58.07C475.613 58.43 475.123 58.71 474.603 58.91C474.093 59.11 473.563 59.21 473.013 59.21C472.413 59.21 471.868 59.095 471.378 58.865C470.888 58.625 470.468 58.28 470.118 57.83C469.778 57.37 469.513 56.81 469.323 56.15C469.133 55.48 469.038 54.715 469.038 53.855C469.038 52.955 469.148 52.08 469.368 51.23C469.598 50.37 469.918 49.56 470.328 48.8C470.748 48.04 471.248 47.345 471.828 46.715C472.408 46.075 473.053 45.525 473.763 45.065C474.483 44.595 475.253 44.235 476.073 43.985C476.893 43.725 477.753 43.595 478.653 43.595C479.303 43.595 479.933 43.65 480.543 43.76C481.163 43.86 481.773 44.04 482.373 44.3L480.558 59H479.178C478.828 59 478.588 58.91 478.458 58.73C478.338 58.55 478.278 58.33 478.278 58.07L478.563 54.995ZM495.88 56.27C495.36 56.84 494.865 57.315 494.395 57.695C493.925 58.075 493.455 58.38 492.985 58.61C492.515 58.83 492.025 58.985 491.515 59.075C491.015 59.165 490.475 59.21 489.895 59.21C489.015 59.21 488.235 59.06 487.555 58.76C486.885 58.46 486.32 58.04 485.86 57.5C485.41 56.95 485.065 56.295 484.825 55.535C484.595 54.765 484.48 53.92 484.48 53C484.48 51.77 484.67 50.59 485.05 49.46C485.44 48.33 485.98 47.33 486.67 46.46C487.36 45.59 488.18 44.895 489.13 44.375C490.09 43.855 491.135 43.595 492.265 43.595C493.275 43.595 494.12 43.775 494.8 44.135C495.48 44.485 496.075 45 496.585 45.68L495.745 46.685C495.675 46.765 495.595 46.83 495.505 46.88C495.425 46.93 495.33 46.955 495.22 46.955C495.08 46.955 494.94 46.895 494.8 46.775C494.67 46.645 494.495 46.505 494.275 46.355C494.055 46.195 493.78 46.055 493.45 45.935C493.13 45.805 492.715 45.74 492.205 45.74C491.515 45.74 490.865 45.93 490.255 46.31C489.645 46.68 489.11 47.19 488.65 47.84C488.19 48.49 487.825 49.26 487.555 50.15C487.295 51.04 487.165 51.995 487.165 53.015C487.165 53.635 487.235 54.2 487.375 54.71C487.515 55.21 487.725 55.64 488.005 56C488.285 56.35 488.625 56.625 489.025 56.825C489.435 57.015 489.91 57.11 490.45 57.11C491.12 57.11 491.68 57.01 492.13 56.81C492.59 56.61 492.975 56.395 493.285 56.165C493.595 55.925 493.855 55.705 494.065 55.505C494.285 55.305 494.5 55.205 494.71 55.205C494.9 55.205 495.07 55.29 495.22 55.46L495.88 56.27ZM499.318 56.135C499.318 56.075 499.318 56 499.318 55.91C499.318 55.81 499.323 55.67 499.333 55.49C499.353 55.31 499.378 55.075 499.408 54.785C499.448 54.495 499.498 54.115 499.558 53.645L500.488 46.04H498.793C498.653 46.04 498.538 45.995 498.448 45.905C498.368 45.805 498.338 45.655 498.358 45.455L498.478 44.39L500.818 44.075L501.958 39.38C502.008 39.23 502.083 39.11 502.183 39.02C502.293 38.92 502.428 38.87 502.588 38.87H503.983L503.338 44.105H507.328L507.103 46.04H503.098L502.183 53.51C502.133 53.92 502.093 54.25 502.063 54.5C502.033 54.75 502.008 54.95 501.988 55.1C501.978 55.25 501.968 55.355 501.958 55.415C501.958 55.475 501.958 55.52 501.958 55.55C501.958 56.06 502.078 56.44 502.318 56.69C502.558 56.93 502.878 57.05 503.278 57.05C503.548 57.05 503.778 57.015 503.968 56.945C504.168 56.865 504.343 56.78 504.493 56.69C504.643 56.6 504.768 56.52 504.868 56.45C504.968 56.37 505.053 56.33 505.123 56.33C505.213 56.33 505.278 56.35 505.318 56.39C505.368 56.43 505.413 56.495 505.453 56.585L506.023 57.86C505.533 58.29 504.973 58.63 504.343 58.88C503.723 59.12 503.098 59.24 502.468 59.24C501.498 59.24 500.733 58.975 500.173 58.445C499.623 57.915 499.338 57.145 499.318 56.135ZM514.341 57.125C515.071 57.125 515.731 56.925 516.321 56.525C516.921 56.125 517.431 55.595 517.851 54.935C518.281 54.265 518.611 53.495 518.841 52.625C519.071 51.755 519.186 50.845 519.186 49.895C519.186 48.495 518.906 47.445 518.346 46.745C517.796 46.035 517.001 45.68 515.961 45.68C515.221 45.68 514.551 45.88 513.951 46.28C513.361 46.67 512.856 47.195 512.436 47.855C512.016 48.515 511.691 49.28 511.461 50.15C511.231 51.02 511.116 51.93 511.116 52.88C511.116 54.28 511.391 55.34 511.941 56.06C512.491 56.77 513.291 57.125 514.341 57.125ZM514.086 59.21C513.256 59.21 512.496 59.07 511.806 58.79C511.116 58.5 510.521 58.085 510.021 57.545C509.521 57.005 509.131 56.345 508.851 55.565C508.571 54.785 508.431 53.895 508.431 52.895C508.431 51.615 508.631 50.41 509.031 49.28C509.431 48.15 509.981 47.165 510.681 46.325C511.381 45.475 512.201 44.805 513.141 44.315C514.091 43.825 515.111 43.58 516.201 43.58C517.031 43.58 517.791 43.725 518.481 44.015C519.171 44.295 519.766 44.705 520.266 45.245C520.766 45.785 521.156 46.445 521.436 47.225C521.716 48.005 521.856 48.89 521.856 49.88C521.856 51.15 521.656 52.35 521.256 53.48C520.856 54.61 520.306 55.6 519.606 56.45C518.916 57.3 518.096 57.975 517.146 58.475C516.196 58.965 515.176 59.21 514.086 59.21ZM533.783 46.235C533.703 46.355 533.623 46.445 533.543 46.505C533.463 46.555 533.363 46.58 533.243 46.58C533.103 46.58 532.948 46.525 532.778 46.415C532.618 46.305 532.418 46.185 532.178 46.055C531.948 45.915 531.663 45.79 531.323 45.68C530.983 45.56 530.573 45.5 530.093 45.5C529.643 45.5 529.233 45.565 528.863 45.695C528.493 45.815 528.173 45.985 527.903 46.205C527.643 46.425 527.438 46.685 527.288 46.985C527.148 47.275 527.078 47.585 527.078 47.915C527.078 48.385 527.233 48.76 527.543 49.04C527.853 49.32 528.243 49.565 528.713 49.775C529.183 49.975 529.688 50.17 530.228 50.36C530.768 50.55 531.273 50.79 531.743 51.08C532.213 51.37 532.603 51.74 532.913 52.19C533.223 52.64 533.378 53.225 533.378 53.945C533.378 54.645 533.238 55.315 532.958 55.955C532.688 56.595 532.293 57.16 531.773 57.65C531.263 58.13 530.643 58.515 529.913 58.805C529.193 59.095 528.383 59.24 527.483 59.24C526.513 59.24 525.653 59.07 524.903 58.73C524.163 58.38 523.558 57.935 523.088 57.395L523.748 56.375C523.838 56.245 523.933 56.145 524.033 56.075C524.143 56.005 524.283 55.97 524.453 55.97C524.613 55.97 524.773 56.04 524.933 56.18C525.093 56.32 525.293 56.48 525.533 56.66C525.773 56.83 526.073 56.985 526.433 57.125C526.803 57.265 527.268 57.335 527.828 57.335C528.318 57.335 528.758 57.26 529.148 57.11C529.548 56.96 529.883 56.76 530.153 56.51C530.433 56.26 530.643 55.97 530.783 55.64C530.933 55.3 531.008 54.94 531.008 54.56C531.008 54.05 530.853 53.645 530.543 53.345C530.233 53.045 529.843 52.795 529.373 52.595C528.903 52.395 528.398 52.21 527.858 52.04C527.318 51.86 526.813 51.635 526.343 51.365C525.873 51.085 525.483 50.725 525.173 50.285C524.863 49.845 524.708 49.26 524.708 48.53C524.708 47.89 524.833 47.275 525.083 46.685C525.343 46.085 525.713 45.555 526.193 45.095C526.673 44.635 527.253 44.27 527.933 44C528.623 43.72 529.398 43.58 530.258 43.58C531.168 43.58 531.968 43.735 532.658 44.045C533.358 44.345 533.958 44.755 534.458 45.275L533.783 46.235ZM114.375 83.645C115.185 82.305 116.1 81.295 117.12 80.615C118.14 79.925 119.19 79.58 120.27 79.58C120.91 79.58 121.47 79.71 121.95 79.97C122.44 80.22 122.835 80.59 123.135 81.08C123.445 81.57 123.655 82.175 123.765 82.895C123.875 83.605 123.875 84.415 123.765 85.325L122.625 95H119.97L121.11 85.325C121.25 84.125 121.175 83.24 120.885 82.67C120.595 82.09 120.06 81.8 119.28 81.8C118.8 81.8 118.31 81.93 117.81 82.19C117.32 82.45 116.845 82.82 116.385 83.3C115.925 83.78 115.495 84.36 115.095 85.04C114.705 85.71 114.37 86.46 114.09 87.29L113.22 95H110.55L112.38 79.79H113.7C114.3 79.79 114.6 80.09 114.6 80.69L114.375 83.645ZM134.183 81.515C133.553 81.515 132.973 81.645 132.443 81.905C131.913 82.165 131.443 82.525 131.033 82.985C130.623 83.435 130.273 83.97 129.983 84.59C129.693 85.2 129.468 85.86 129.308 86.57C130.848 86.38 132.083 86.165 133.013 85.925C133.943 85.675 134.658 85.41 135.158 85.13C135.658 84.84 135.988 84.53 136.148 84.2C136.308 83.87 136.388 83.525 136.388 83.165C136.388 82.985 136.348 82.8 136.268 82.61C136.188 82.41 136.058 82.23 135.878 82.07C135.708 81.91 135.483 81.78 135.203 81.68C134.923 81.57 134.583 81.515 134.183 81.515ZM138.413 92.195C137.903 92.725 137.403 93.18 136.913 93.56C136.423 93.93 135.923 94.24 135.413 94.49C134.913 94.74 134.383 94.92 133.823 95.03C133.273 95.15 132.678 95.21 132.038 95.21C131.168 95.21 130.388 95.065 129.698 94.775C129.008 94.485 128.423 94.075 127.943 93.545C127.463 93.005 127.093 92.355 126.833 91.595C126.573 90.835 126.443 89.985 126.443 89.045C126.443 88.265 126.523 87.49 126.683 86.72C126.853 85.94 127.093 85.2 127.403 84.5C127.723 83.8 128.108 83.15 128.558 82.55C129.018 81.95 129.538 81.435 130.118 81.005C130.708 80.565 131.353 80.22 132.053 79.97C132.763 79.72 133.523 79.595 134.333 79.595C135.103 79.595 135.768 79.705 136.328 79.925C136.888 80.145 137.348 80.425 137.708 80.765C138.068 81.105 138.333 81.48 138.503 81.89C138.683 82.3 138.773 82.69 138.773 83.06C138.773 83.72 138.638 84.33 138.368 84.89C138.098 85.44 137.603 85.94 136.883 86.39C136.163 86.83 135.173 87.215 133.913 87.545C132.653 87.875 131.033 88.14 129.053 88.34C129.053 88.45 129.048 88.56 129.038 88.67C129.038 88.77 129.038 88.875 129.038 88.985C129.038 90.325 129.328 91.35 129.908 92.06C130.498 92.76 131.383 93.11 132.563 93.11C133.043 93.11 133.468 93.06 133.838 92.96C134.218 92.86 134.553 92.74 134.843 92.6C135.143 92.45 135.403 92.29 135.623 92.12C135.853 91.94 136.058 91.78 136.238 91.64C136.428 91.49 136.603 91.365 136.763 91.265C136.923 91.165 137.083 91.115 137.243 91.115C137.433 91.115 137.603 91.2 137.753 91.37L138.413 92.195ZM146.514 88.145C147.054 88.145 147.529 88.03 147.939 87.8C148.359 87.56 148.709 87.25 148.989 86.87C149.279 86.48 149.499 86.045 149.649 85.565C149.799 85.085 149.874 84.6 149.874 84.11C149.874 83.23 149.649 82.565 149.199 82.115C148.759 81.665 148.149 81.44 147.369 81.44C146.829 81.44 146.354 81.55 145.944 81.77C145.534 81.99 145.184 82.285 144.894 82.655C144.614 83.025 144.399 83.445 144.249 83.915C144.109 84.385 144.039 84.875 144.039 85.385C144.039 86.285 144.254 86.97 144.684 87.44C145.124 87.91 145.734 88.145 146.514 88.145ZM149.529 95.375C149.529 95.105 149.504 94.86 149.454 94.64C149.404 94.41 149.339 94.195 149.259 93.995C147.939 93.785 146.799 93.71 145.839 93.77C144.879 93.82 144.084 93.965 143.454 94.205C142.834 94.445 142.374 94.755 142.074 95.135C141.774 95.515 141.624 95.925 141.624 96.365C141.624 97.085 141.924 97.635 142.524 98.015C143.134 98.395 143.994 98.585 145.104 98.585C145.764 98.585 146.364 98.495 146.904 98.315C147.454 98.145 147.919 97.915 148.299 97.625C148.689 97.335 148.989 96.995 149.199 96.605C149.419 96.215 149.529 95.805 149.529 95.375ZM154.629 80.36L154.524 81.245C154.474 81.605 154.274 81.845 153.924 81.965L152.019 82.295C152.209 82.815 152.304 83.39 152.304 84.02C152.304 84.52 152.244 84.97 152.124 85.37C152.014 85.77 151.874 86.14 151.704 86.48C151.534 86.82 151.349 87.14 151.149 87.44C150.949 87.74 150.764 88.04 150.594 88.34C150.424 88.63 150.279 88.935 150.159 89.255C150.049 89.565 149.994 89.905 149.994 90.275C149.994 90.545 150.039 90.805 150.129 91.055C150.229 91.295 150.349 91.535 150.489 91.775C150.639 92.005 150.799 92.24 150.969 92.48C151.149 92.72 151.309 92.975 151.449 93.245C151.599 93.515 151.719 93.81 151.809 94.13C151.909 94.44 151.959 94.785 151.959 95.165C151.949 95.875 151.779 96.545 151.449 97.175C151.119 97.815 150.649 98.38 150.039 98.87C149.429 99.36 148.689 99.745 147.819 100.025C146.949 100.315 145.969 100.46 144.879 100.46C144.009 100.46 143.214 100.37 142.494 100.19C141.784 100.01 141.174 99.755 140.664 99.425C140.164 99.095 139.779 98.695 139.509 98.225C139.229 97.765 139.089 97.255 139.089 96.695C139.089 96.055 139.224 95.49 139.494 95C139.764 94.51 140.129 94.09 140.589 93.74C141.049 93.38 141.584 93.085 142.194 92.855C142.804 92.625 143.449 92.455 144.129 92.345C144.819 92.235 145.524 92.185 146.244 92.195C146.964 92.195 147.669 92.245 148.359 92.345C148.269 92.155 148.194 91.96 148.134 91.76C148.084 91.55 148.059 91.325 148.059 91.085C148.059 90.775 148.104 90.455 148.194 90.125C148.294 89.795 148.454 89.42 148.674 89C148.294 89.26 147.869 89.465 147.399 89.615C146.929 89.755 146.394 89.825 145.794 89.825C145.214 89.825 144.669 89.73 144.159 89.54C143.659 89.35 143.219 89.07 142.839 88.7C142.459 88.33 142.159 87.87 141.939 87.32C141.719 86.76 141.609 86.11 141.609 85.37C141.609 84.65 141.739 83.945 141.999 83.255C142.269 82.555 142.659 81.935 143.169 81.395C143.679 80.845 144.309 80.405 145.059 80.075C145.809 79.745 146.674 79.58 147.654 79.58C148.194 79.58 148.709 79.645 149.199 79.775C149.689 79.905 150.129 80.1 150.519 80.36H154.629ZM165.286 81.665C165.066 81.615 164.846 81.585 164.626 81.575C164.416 81.555 164.206 81.545 163.996 81.545C163.396 81.545 162.816 81.645 162.256 81.845C161.696 82.035 161.171 82.305 160.681 82.655C160.191 83.005 159.746 83.425 159.346 83.915C158.946 84.395 158.601 84.925 158.311 85.505C158.031 86.085 157.811 86.705 157.651 87.365C157.491 88.015 157.411 88.685 157.411 89.375C157.411 91.785 158.181 92.99 159.721 92.99C160.211 92.99 160.691 92.84 161.161 92.54C161.631 92.23 162.076 91.805 162.496 91.265C162.926 90.715 163.321 90.07 163.681 89.33C164.041 88.58 164.361 87.76 164.641 86.87L165.286 81.665ZM164.266 90.995C163.906 91.635 163.516 92.215 163.096 92.735C162.686 93.255 162.246 93.7 161.776 94.07C161.316 94.43 160.826 94.71 160.306 94.91C159.796 95.11 159.266 95.21 158.716 95.21C158.116 95.21 157.571 95.095 157.081 94.865C156.591 94.625 156.171 94.28 155.821 93.83C155.481 93.37 155.216 92.81 155.026 92.15C154.836 91.48 154.741 90.715 154.741 89.855C154.741 88.955 154.851 88.08 155.071 87.23C155.301 86.37 155.621 85.56 156.031 84.8C156.451 84.04 156.951 83.345 157.531 82.715C158.111 82.075 158.756 81.525 159.466 81.065C160.186 80.595 160.956 80.235 161.776 79.985C162.596 79.725 163.456 79.595 164.356 79.595C165.006 79.595 165.636 79.65 166.246 79.76C166.866 79.86 167.476 80.04 168.076 80.3L166.261 95H164.881C164.531 95 164.291 94.91 164.161 94.73C164.041 94.55 163.981 94.33 163.981 94.07L164.266 90.995ZM184.853 82.01L183.263 95H180.668L182.273 82.01H175.178L174.248 89.51C174.198 89.92 174.158 90.25 174.128 90.5C174.098 90.75 174.073 90.95 174.053 91.1C174.043 91.25 174.033 91.355 174.023 91.415C174.023 91.475 174.023 91.52 174.023 91.55C174.023 92.06 174.143 92.44 174.383 92.69C174.623 92.93 174.948 93.05 175.358 93.05C175.618 93.05 175.848 93.015 176.048 92.945C176.248 92.865 176.418 92.78 176.558 92.69C176.708 92.6 176.833 92.52 176.933 92.45C177.033 92.37 177.123 92.33 177.203 92.33C177.283 92.33 177.343 92.35 177.383 92.39C177.433 92.43 177.483 92.495 177.533 92.585L178.088 93.86C177.608 94.29 177.053 94.63 176.423 94.88C175.803 95.12 175.178 95.24 174.548 95.24C173.578 95.24 172.813 94.975 172.253 94.445C171.693 93.915 171.403 93.145 171.383 92.135C171.383 92.075 171.383 92 171.383 91.91C171.393 91.81 171.403 91.67 171.413 91.49C171.433 91.31 171.458 91.075 171.488 90.785C171.518 90.495 171.563 90.115 171.623 89.645L172.568 82.01H170.918C170.768 82.01 170.648 81.96 170.558 81.86C170.468 81.76 170.433 81.615 170.453 81.425L170.573 80.405L172.883 80.105L174.023 75.38C174.073 75.23 174.148 75.11 174.248 75.02C174.358 74.92 174.493 74.87 174.653 74.87H176.063L175.418 80.12H185.078L184.853 82.01ZM186.398 75.035C186.398 75.295 186.343 75.54 186.233 75.77C186.133 75.99 185.993 76.19 185.813 76.37C185.643 76.54 185.443 76.675 185.213 76.775C184.993 76.875 184.763 76.925 184.523 76.925C184.293 76.925 184.068 76.875 183.848 76.775C183.628 76.675 183.433 76.54 183.263 76.37C183.103 76.19 182.973 75.99 182.873 75.77C182.773 75.54 182.723 75.295 182.723 75.035C182.723 74.775 182.773 74.53 182.873 74.3C182.973 74.07 183.108 73.87 183.278 73.7C183.448 73.52 183.643 73.38 183.863 73.28C184.083 73.17 184.308 73.115 184.538 73.115C184.778 73.115 185.008 73.165 185.228 73.265C185.458 73.365 185.658 73.505 185.828 73.685C185.998 73.855 186.133 74.06 186.233 74.3C186.343 74.53 186.398 74.775 186.398 75.035ZM201.331 79.805L193.711 95H191.491L187.561 79.805H189.721C189.921 79.805 190.081 79.86 190.201 79.97C190.321 80.08 190.401 80.21 190.441 80.36L192.691 90.14C192.751 90.52 192.801 90.895 192.841 91.265C192.881 91.635 192.916 92.01 192.946 92.39C193.056 92.02 193.176 91.65 193.306 91.28C193.436 90.91 193.586 90.53 193.756 90.14L198.451 80.36C198.531 80.2 198.641 80.07 198.781 79.97C198.921 79.86 199.081 79.805 199.261 79.805H201.331ZM207.31 93.125C208.04 93.125 208.7 92.925 209.29 92.525C209.89 92.125 210.4 91.595 210.82 90.935C211.25 90.265 211.58 89.495 211.81 88.625C212.04 87.755 212.155 86.845 212.155 85.895C212.155 84.495 211.875 83.445 211.315 82.745C210.765 82.035 209.97 81.68 208.93 81.68C208.19 81.68 207.52 81.88 206.92 82.28C206.33 82.67 205.825 83.195 205.405 83.855C204.985 84.515 204.66 85.28 204.43 86.15C204.2 87.02 204.085 87.93 204.085 88.88C204.085 90.28 204.36 91.34 204.91 92.06C205.46 92.77 206.26 93.125 207.31 93.125ZM207.055 95.21C206.225 95.21 205.465 95.07 204.775 94.79C204.085 94.5 203.49 94.085 202.99 93.545C202.49 93.005 202.1 92.345 201.82 91.565C201.54 90.785 201.4 89.895 201.4 88.895C201.4 87.615 201.6 86.41 202 85.28C202.4 84.15 202.95 83.165 203.65 82.325C204.35 81.475 205.17 80.805 206.11 80.315C207.06 79.825 208.08 79.58 209.17 79.58C210 79.58 210.76 79.725 211.45 80.015C212.14 80.295 212.735 80.705 213.235 81.245C213.735 81.785 214.125 82.445 214.405 83.225C214.685 84.005 214.825 84.89 214.825 85.88C214.825 87.15 214.625 88.35 214.225 89.48C213.825 90.61 213.275 91.6 212.575 92.45C211.885 93.3 211.065 93.975 210.115 94.475C209.165 94.965 208.145 95.21 207.055 95.21ZM226.751 82.235C226.671 82.355 226.591 82.445 226.511 82.505C226.431 82.555 226.331 82.58 226.211 82.58C226.071 82.58 225.916 82.525 225.746 82.415C225.586 82.305 225.386 82.185 225.146 82.055C224.916 81.915 224.631 81.79 224.291 81.68C223.951 81.56 223.541 81.5 223.061 81.5C222.611 81.5 222.201 81.565 221.831 81.695C221.461 81.815 221.141 81.985 220.871 82.205C220.611 82.425 220.406 82.685 220.256 82.985C220.116 83.275 220.046 83.585 220.046 83.915C220.046 84.385 220.201 84.76 220.511 85.04C220.821 85.32 221.211 85.565 221.681 85.775C222.151 85.975 222.656 86.17 223.196 86.36C223.736 86.55 224.241 86.79 224.711 87.08C225.181 87.37 225.571 87.74 225.881 88.19C226.191 88.64 226.346 89.225 226.346 89.945C226.346 90.645 226.206 91.315 225.926 91.955C225.656 92.595 225.261 93.16 224.741 93.65C224.231 94.13 223.611 94.515 222.881 94.805C222.161 95.095 221.351 95.24 220.451 95.24C219.481 95.24 218.621 95.07 217.871 94.73C217.131 94.38 216.526 93.935 216.056 93.395L216.716 92.375C216.806 92.245 216.901 92.145 217.001 92.075C217.111 92.005 217.251 91.97 217.421 91.97C217.581 91.97 217.741 92.04 217.901 92.18C218.061 92.32 218.261 92.48 218.501 92.66C218.741 92.83 219.041 92.985 219.401 93.125C219.771 93.265 220.236 93.335 220.796 93.335C221.286 93.335 221.726 93.26 222.116 93.11C222.516 92.96 222.851 92.76 223.121 92.51C223.401 92.26 223.611 91.97 223.751 91.64C223.901 91.3 223.976 90.94 223.976 90.56C223.976 90.05 223.821 89.645 223.511 89.345C223.201 89.045 222.811 88.795 222.341 88.595C221.871 88.395 221.366 88.21 220.826 88.04C220.286 87.86 219.781 87.635 219.311 87.365C218.841 87.085 218.451 86.725 218.141 86.285C217.831 85.845 217.676 85.26 217.676 84.53C217.676 83.89 217.801 83.275 218.051 82.685C218.311 82.085 218.681 81.555 219.161 81.095C219.641 80.635 220.221 80.27 220.901 80C221.591 79.72 222.366 79.58 223.226 79.58C224.136 79.58 224.936 79.735 225.626 80.045C226.326 80.345 226.926 80.755 227.426 81.275L226.751 82.235ZM246.724 83.12C246.344 82.58 245.884 82.205 245.344 81.995C244.814 81.775 244.274 81.665 243.724 81.665C242.934 81.665 242.224 81.9 241.594 82.37C240.964 82.84 240.424 83.45 239.974 84.2C239.534 84.94 239.194 85.77 238.954 86.69C238.714 87.61 238.594 88.515 238.594 89.405C238.594 90.595 238.804 91.505 239.224 92.135C239.654 92.755 240.264 93.065 241.054 93.065C241.534 93.065 242.019 92.915 242.509 92.615C242.999 92.315 243.469 91.9 243.919 91.37C244.379 90.83 244.804 90.195 245.194 89.465C245.594 88.735 245.939 87.935 246.229 87.065L246.724 83.12ZM250.594 72.905L247.879 95H246.484C246.134 95 245.899 94.91 245.779 94.73C245.659 94.55 245.599 94.33 245.599 94.07L245.884 90.875C245.504 91.535 245.089 92.13 244.639 92.66C244.189 93.19 243.714 93.645 243.214 94.025C242.724 94.405 242.209 94.7 241.669 94.91C241.139 95.11 240.599 95.21 240.049 95.21C238.749 95.21 237.739 94.74 237.019 93.8C236.299 92.85 235.939 91.475 235.939 89.675C235.939 88.855 236.024 88.035 236.194 87.215C236.364 86.395 236.604 85.61 236.914 84.86C237.234 84.11 237.614 83.415 238.054 82.775C238.504 82.125 239.004 81.565 239.554 81.095C240.104 80.625 240.694 80.255 241.324 79.985C241.964 79.715 242.634 79.58 243.334 79.58C244.084 79.58 244.764 79.73 245.374 80.03C245.994 80.32 246.519 80.735 246.949 81.275L247.984 72.905H250.594ZM259.603 81.515C258.973 81.515 258.393 81.645 257.863 81.905C257.333 82.165 256.863 82.525 256.453 82.985C256.043 83.435 255.693 83.97 255.403 84.59C255.113 85.2 254.888 85.86 254.728 86.57C256.268 86.38 257.503 86.165 258.433 85.925C259.363 85.675 260.078 85.41 260.578 85.13C261.078 84.84 261.408 84.53 261.568 84.2C261.728 83.87 261.808 83.525 261.808 83.165C261.808 82.985 261.768 82.8 261.688 82.61C261.608 82.41 261.478 82.23 261.298 82.07C261.128 81.91 260.903 81.78 260.623 81.68C260.343 81.57 260.003 81.515 259.603 81.515ZM263.833 92.195C263.323 92.725 262.823 93.18 262.333 93.56C261.843 93.93 261.343 94.24 260.833 94.49C260.333 94.74 259.803 94.92 259.243 95.03C258.693 95.15 258.098 95.21 257.458 95.21C256.588 95.21 255.808 95.065 255.118 94.775C254.428 94.485 253.843 94.075 253.363 93.545C252.883 93.005 252.513 92.355 252.253 91.595C251.993 90.835 251.863 89.985 251.863 89.045C251.863 88.265 251.943 87.49 252.103 86.72C252.273 85.94 252.513 85.2 252.823 84.5C253.143 83.8 253.528 83.15 253.978 82.55C254.438 81.95 254.958 81.435 255.538 81.005C256.128 80.565 256.773 80.22 257.473 79.97C258.183 79.72 258.943 79.595 259.753 79.595C260.523 79.595 261.188 79.705 261.748 79.925C262.308 80.145 262.768 80.425 263.128 80.765C263.488 81.105 263.753 81.48 263.923 81.89C264.103 82.3 264.193 82.69 264.193 83.06C264.193 83.72 264.058 84.33 263.788 84.89C263.518 85.44 263.023 85.94 262.303 86.39C261.583 86.83 260.593 87.215 259.333 87.545C258.073 87.875 256.453 88.14 254.473 88.34C254.473 88.45 254.468 88.56 254.458 88.67C254.458 88.77 254.458 88.875 254.458 88.985C254.458 90.325 254.748 91.35 255.328 92.06C255.918 92.76 256.803 93.11 257.983 93.11C258.463 93.11 258.888 93.06 259.258 92.96C259.638 92.86 259.973 92.74 260.263 92.6C260.563 92.45 260.823 92.29 261.043 92.12C261.273 91.94 261.478 91.78 261.658 91.64C261.848 91.49 262.023 91.365 262.183 91.265C262.343 91.165 262.503 91.115 262.663 91.115C262.853 91.115 263.023 91.2 263.173 91.37L263.833 92.195ZM273.34 95L276.025 72.905H278.65L275.965 95H273.34ZM290.413 81.665C290.193 81.615 289.973 81.585 289.753 81.575C289.543 81.555 289.333 81.545 289.123 81.545C288.523 81.545 287.943 81.645 287.383 81.845C286.823 82.035 286.298 82.305 285.808 82.655C285.318 83.005 284.873 83.425 284.473 83.915C284.073 84.395 283.728 84.925 283.438 85.505C283.158 86.085 282.938 86.705 282.778 87.365C282.618 88.015 282.538 88.685 282.538 89.375C282.538 91.785 283.308 92.99 284.848 92.99C285.338 92.99 285.818 92.84 286.288 92.54C286.758 92.23 287.203 91.805 287.623 91.265C288.053 90.715 288.448 90.07 288.808 89.33C289.168 88.58 289.488 87.76 289.768 86.87L290.413 81.665ZM289.393 90.995C289.033 91.635 288.643 92.215 288.223 92.735C287.813 93.255 287.373 93.7 286.903 94.07C286.443 94.43 285.953 94.71 285.433 94.91C284.923 95.11 284.393 95.21 283.843 95.21C283.243 95.21 282.698 95.095 282.208 94.865C281.718 94.625 281.298 94.28 280.948 93.83C280.608 93.37 280.343 92.81 280.153 92.15C279.963 91.48 279.868 90.715 279.868 89.855C279.868 88.955 279.978 88.08 280.198 87.23C280.428 86.37 280.748 85.56 281.158 84.8C281.578 84.04 282.078 83.345 282.658 82.715C283.238 82.075 283.883 81.525 284.593 81.065C285.313 80.595 286.083 80.235 286.903 79.985C287.723 79.725 288.583 79.595 289.483 79.595C290.133 79.595 290.763 79.65 291.373 79.76C291.993 79.86 292.603 80.04 293.203 80.3L291.388 95H290.008C289.658 95 289.418 94.91 289.288 94.73C289.168 94.55 289.108 94.33 289.108 94.07L289.393 90.995ZM306.167 84.035C306.567 83.185 306.997 82.45 307.457 81.83C307.927 81.2 308.417 80.71 308.927 80.36C309.437 80 309.962 79.785 310.502 79.715C311.042 79.635 311.592 79.715 312.152 79.955L311.672 82.52C310.372 82 309.222 82.19 308.222 83.09C307.232 83.99 306.427 85.615 305.807 87.965L304.967 95H302.357L304.187 79.79H305.507C306.117 79.79 306.422 80.09 306.422 80.69L306.167 84.035ZM319.779 81.515C319.149 81.515 318.569 81.645 318.039 81.905C317.509 82.165 317.039 82.525 316.629 82.985C316.219 83.435 315.869 83.97 315.579 84.59C315.289 85.2 315.064 85.86 314.904 86.57C316.444 86.38 317.679 86.165 318.609 85.925C319.539 85.675 320.254 85.41 320.754 85.13C321.254 84.84 321.584 84.53 321.744 84.2C321.904 83.87 321.984 83.525 321.984 83.165C321.984 82.985 321.944 82.8 321.864 82.61C321.784 82.41 321.654 82.23 321.474 82.07C321.304 81.91 321.079 81.78 320.799 81.68C320.519 81.57 320.179 81.515 319.779 81.515ZM324.009 92.195C323.499 92.725 322.999 93.18 322.509 93.56C322.019 93.93 321.519 94.24 321.009 94.49C320.509 94.74 319.979 94.92 319.419 95.03C318.869 95.15 318.274 95.21 317.634 95.21C316.764 95.21 315.984 95.065 315.294 94.775C314.604 94.485 314.019 94.075 313.539 93.545C313.059 93.005 312.689 92.355 312.429 91.595C312.169 90.835 312.039 89.985 312.039 89.045C312.039 88.265 312.119 87.49 312.279 86.72C312.449 85.94 312.689 85.2 312.999 84.5C313.319 83.8 313.704 83.15 314.154 82.55C314.614 81.95 315.134 81.435 315.714 81.005C316.304 80.565 316.949 80.22 317.649 79.97C318.359 79.72 319.119 79.595 319.929 79.595C320.699 79.595 321.364 79.705 321.924 79.925C322.484 80.145 322.944 80.425 323.304 80.765C323.664 81.105 323.929 81.48 324.099 81.89C324.279 82.3 324.369 82.69 324.369 83.06C324.369 83.72 324.234 84.33 323.964 84.89C323.694 85.44 323.199 85.94 322.479 86.39C321.759 86.83 320.769 87.215 319.509 87.545C318.249 87.875 316.629 88.14 314.649 88.34C314.649 88.45 314.644 88.56 314.634 88.67C314.634 88.77 314.634 88.875 314.634 88.985C314.634 90.325 314.924 91.35 315.504 92.06C316.094 92.76 316.979 93.11 318.159 93.11C318.639 93.11 319.064 93.06 319.434 92.96C319.814 92.86 320.149 92.74 320.439 92.6C320.739 92.45 320.999 92.29 321.219 92.12C321.449 91.94 321.654 91.78 321.834 91.64C322.024 91.49 322.199 91.365 322.359 91.265C322.519 91.165 322.679 91.115 322.839 91.115C323.029 91.115 323.199 91.2 323.349 91.37L324.009 92.195ZM337.134 83.12C336.754 82.58 336.294 82.205 335.754 81.995C335.224 81.775 334.684 81.665 334.134 81.665C333.344 81.665 332.634 81.9 332.004 82.37C331.374 82.84 330.834 83.45 330.384 84.2C329.944 84.94 329.604 85.77 329.364 86.69C329.124 87.61 329.004 88.515 329.004 89.405C329.004 90.595 329.214 91.505 329.634 92.135C330.064 92.755 330.674 93.065 331.464 93.065C331.944 93.065 332.429 92.915 332.919 92.615C333.409 92.315 333.879 91.9 334.329 91.37C334.789 90.83 335.214 90.195 335.604 89.465C336.004 88.735 336.349 87.935 336.639 87.065L337.134 83.12ZM341.004 72.905L338.289 95H336.894C336.544 95 336.309 94.91 336.189 94.73C336.069 94.55 336.009 94.33 336.009 94.07L336.294 90.875C335.914 91.535 335.499 92.13 335.049 92.66C334.599 93.19 334.124 93.645 333.624 94.025C333.134 94.405 332.619 94.7 332.079 94.91C331.549 95.11 331.009 95.21 330.459 95.21C329.159 95.21 328.149 94.74 327.429 93.8C326.709 92.85 326.349 91.475 326.349 89.675C326.349 88.855 326.434 88.035 326.604 87.215C326.774 86.395 327.014 85.61 327.324 84.86C327.644 84.11 328.024 83.415 328.464 82.775C328.914 82.125 329.414 81.565 329.964 81.095C330.514 80.625 331.104 80.255 331.734 79.985C332.374 79.715 333.044 79.58 333.744 79.58C334.494 79.58 335.174 79.73 335.784 80.03C336.404 80.32 336.929 80.735 337.359 81.275L338.394 72.905H341.004ZM350.013 81.515C349.383 81.515 348.803 81.645 348.273 81.905C347.743 82.165 347.273 82.525 346.863 82.985C346.453 83.435 346.103 83.97 345.813 84.59C345.523 85.2 345.298 85.86 345.138 86.57C346.678 86.38 347.913 86.165 348.843 85.925C349.773 85.675 350.488 85.41 350.988 85.13C351.488 84.84 351.818 84.53 351.978 84.2C352.138 83.87 352.218 83.525 352.218 83.165C352.218 82.985 352.178 82.8 352.098 82.61C352.018 82.41 351.888 82.23 351.708 82.07C351.538 81.91 351.313 81.78 351.033 81.68C350.753 81.57 350.413 81.515 350.013 81.515ZM354.243 92.195C353.733 92.725 353.233 93.18 352.743 93.56C352.253 93.93 351.753 94.24 351.243 94.49C350.743 94.74 350.213 94.92 349.653 95.03C349.103 95.15 348.508 95.21 347.868 95.21C346.998 95.21 346.218 95.065 345.528 94.775C344.838 94.485 344.253 94.075 343.773 93.545C343.293 93.005 342.923 92.355 342.663 91.595C342.403 90.835 342.273 89.985 342.273 89.045C342.273 88.265 342.353 87.49 342.513 86.72C342.683 85.94 342.923 85.2 343.233 84.5C343.553 83.8 343.938 83.15 344.388 82.55C344.848 81.95 345.368 81.435 345.948 81.005C346.538 80.565 347.183 80.22 347.883 79.97C348.593 79.72 349.353 79.595 350.163 79.595C350.933 79.595 351.598 79.705 352.158 79.925C352.718 80.145 353.178 80.425 353.538 80.765C353.898 81.105 354.163 81.48 354.333 81.89C354.513 82.3 354.603 82.69 354.603 83.06C354.603 83.72 354.468 84.33 354.198 84.89C353.928 85.44 353.433 85.94 352.713 86.39C351.993 86.83 351.003 87.215 349.743 87.545C348.483 87.875 346.863 88.14 344.883 88.34C344.883 88.45 344.878 88.56 344.868 88.67C344.868 88.77 344.868 88.875 344.868 88.985C344.868 90.325 345.158 91.35 345.738 92.06C346.328 92.76 347.213 93.11 348.393 93.11C348.873 93.11 349.298 93.06 349.668 92.96C350.048 92.86 350.383 92.74 350.673 92.6C350.973 92.45 351.233 92.29 351.453 92.12C351.683 91.94 351.888 91.78 352.068 91.64C352.258 91.49 352.433 91.365 352.593 91.265C352.753 91.165 352.913 91.115 353.073 91.115C353.263 91.115 353.433 91.2 353.583 91.37L354.243 92.195ZM366.439 82.235C366.359 82.355 366.279 82.445 366.199 82.505C366.119 82.555 366.019 82.58 365.899 82.58C365.759 82.58 365.604 82.525 365.434 82.415C365.274 82.305 365.074 82.185 364.834 82.055C364.604 81.915 364.319 81.79 363.979 81.68C363.639 81.56 363.229 81.5 362.749 81.5C362.299 81.5 361.889 81.565 361.519 81.695C361.149 81.815 360.829 81.985 360.559 82.205C360.299 82.425 360.094 82.685 359.944 82.985C359.804 83.275 359.734 83.585 359.734 83.915C359.734 84.385 359.889 84.76 360.199 85.04C360.509 85.32 360.899 85.565 361.369 85.775C361.839 85.975 362.344 86.17 362.884 86.36C363.424 86.55 363.929 86.79 364.399 87.08C364.869 87.37 365.259 87.74 365.569 88.19C365.879 88.64 366.034 89.225 366.034 89.945C366.034 90.645 365.894 91.315 365.614 91.955C365.344 92.595 364.949 93.16 364.429 93.65C363.919 94.13 363.299 94.515 362.569 94.805C361.849 95.095 361.039 95.24 360.139 95.24C359.169 95.24 358.309 95.07 357.559 94.73C356.819 94.38 356.214 93.935 355.744 93.395L356.404 92.375C356.494 92.245 356.589 92.145 356.689 92.075C356.799 92.005 356.939 91.97 357.109 91.97C357.269 91.97 357.429 92.04 357.589 92.18C357.749 92.32 357.949 92.48 358.189 92.66C358.429 92.83 358.729 92.985 359.089 93.125C359.459 93.265 359.924 93.335 360.484 93.335C360.974 93.335 361.414 93.26 361.804 93.11C362.204 92.96 362.539 92.76 362.809 92.51C363.089 92.26 363.299 91.97 363.439 91.64C363.589 91.3 363.664 90.94 363.664 90.56C363.664 90.05 363.509 89.645 363.199 89.345C362.889 89.045 362.499 88.795 362.029 88.595C361.559 88.395 361.054 88.21 360.514 88.04C359.974 87.86 359.469 87.635 358.999 87.365C358.529 87.085 358.139 86.725 357.829 86.285C357.519 85.845 357.364 85.26 357.364 84.53C357.364 83.89 357.489 83.275 357.739 82.685C357.999 82.085 358.369 81.555 358.849 81.095C359.329 80.635 359.909 80.27 360.589 80C361.279 79.72 362.054 79.58 362.914 79.58C363.824 79.58 364.624 79.735 365.314 80.045C366.014 80.345 366.614 80.755 367.114 81.275L366.439 82.235ZM385.482 82.235C385.402 82.355 385.322 82.445 385.242 82.505C385.162 82.555 385.062 82.58 384.942 82.58C384.802 82.58 384.647 82.525 384.477 82.415C384.317 82.305 384.117 82.185 383.877 82.055C383.647 81.915 383.362 81.79 383.022 81.68C382.682 81.56 382.272 81.5 381.792 81.5C381.342 81.5 380.932 81.565 380.562 81.695C380.192 81.815 379.872 81.985 379.602 82.205C379.342 82.425 379.137 82.685 378.987 82.985C378.847 83.275 378.777 83.585 378.777 83.915C378.777 84.385 378.932 84.76 379.242 85.04C379.552 85.32 379.942 85.565 380.412 85.775C380.882 85.975 381.387 86.17 381.927 86.36C382.467 86.55 382.972 86.79 383.442 87.08C383.912 87.37 384.302 87.74 384.612 88.19C384.922 88.64 385.077 89.225 385.077 89.945C385.077 90.645 384.937 91.315 384.657 91.955C384.387 92.595 383.992 93.16 383.472 93.65C382.962 94.13 382.342 94.515 381.612 94.805C380.892 95.095 380.082 95.24 379.182 95.24C378.212 95.24 377.352 95.07 376.602 94.73C375.862 94.38 375.257 93.935 374.787 93.395L375.447 92.375C375.537 92.245 375.632 92.145 375.732 92.075C375.842 92.005 375.982 91.97 376.152 91.97C376.312 91.97 376.472 92.04 376.632 92.18C376.792 92.32 376.992 92.48 377.232 92.66C377.472 92.83 377.772 92.985 378.132 93.125C378.502 93.265 378.967 93.335 379.527 93.335C380.017 93.335 380.457 93.26 380.847 93.11C381.247 92.96 381.582 92.76 381.852 92.51C382.132 92.26 382.342 91.97 382.482 91.64C382.632 91.3 382.707 90.94 382.707 90.56C382.707 90.05 382.552 89.645 382.242 89.345C381.932 89.045 381.542 88.795 381.072 88.595C380.602 88.395 380.097 88.21 379.557 88.04C379.017 87.86 378.512 87.635 378.042 87.365C377.572 87.085 377.182 86.725 376.872 86.285C376.562 85.845 376.407 85.26 376.407 84.53C376.407 83.89 376.532 83.275 376.782 82.685C377.042 82.085 377.412 81.555 377.892 81.095C378.372 80.635 378.952 80.27 379.632 80C380.322 79.72 381.097 79.58 381.957 79.58C382.867 79.58 383.667 79.735 384.357 80.045C385.057 80.345 385.657 80.755 386.157 81.275L385.482 82.235ZM393.608 93.125C394.338 93.125 394.998 92.925 395.588 92.525C396.188 92.125 396.698 91.595 397.118 90.935C397.548 90.265 397.878 89.495 398.108 88.625C398.338 87.755 398.453 86.845 398.453 85.895C398.453 84.495 398.173 83.445 397.613 82.745C397.063 82.035 396.268 81.68 395.228 81.68C394.488 81.68 393.818 81.88 393.218 82.28C392.628 82.67 392.123 83.195 391.703 83.855C391.283 84.515 390.958 85.28 390.728 86.15C390.498 87.02 390.383 87.93 390.383 88.88C390.383 90.28 390.658 91.34 391.208 92.06C391.758 92.77 392.558 93.125 393.608 93.125ZM393.353 95.21C392.523 95.21 391.763 95.07 391.073 94.79C390.383 94.5 389.788 94.085 389.288 93.545C388.788 93.005 388.398 92.345 388.118 91.565C387.838 90.785 387.698 89.895 387.698 88.895C387.698 87.615 387.898 86.41 388.298 85.28C388.698 84.15 389.248 83.165 389.948 82.325C390.648 81.475 391.468 80.805 392.408 80.315C393.358 79.825 394.378 79.58 395.468 79.58C396.298 79.58 397.058 79.725 397.748 80.015C398.438 80.295 399.033 80.705 399.533 81.245C400.033 81.785 400.423 82.445 400.703 83.225C400.983 84.005 401.123 84.89 401.123 85.88C401.123 87.15 400.923 88.35 400.523 89.48C400.123 90.61 399.573 91.6 398.873 92.45C398.183 93.3 397.363 93.975 396.413 94.475C395.463 94.965 394.443 95.21 393.353 95.21ZM414.64 92.27C414.12 92.84 413.625 93.315 413.155 93.695C412.685 94.075 412.215 94.38 411.745 94.61C411.275 94.83 410.785 94.985 410.275 95.075C409.775 95.165 409.235 95.21 408.655 95.21C407.775 95.21 406.995 95.06 406.315 94.76C405.645 94.46 405.08 94.04 404.62 93.5C404.17 92.95 403.825 92.295 403.585 91.535C403.355 90.765 403.24 89.92 403.24 89C403.24 87.77 403.43 86.59 403.81 85.46C404.2 84.33 404.74 83.33 405.43 82.46C406.12 81.59 406.94 80.895 407.89 80.375C408.85 79.855 409.895 79.595 411.025 79.595C412.035 79.595 412.88 79.775 413.56 80.135C414.24 80.485 414.835 81 415.345 81.68L414.505 82.685C414.435 82.765 414.355 82.83 414.265 82.88C414.185 82.93 414.09 82.955 413.98 82.955C413.84 82.955 413.7 82.895 413.56 82.775C413.43 82.645 413.255 82.505 413.035 82.355C412.815 82.195 412.54 82.055 412.21 81.935C411.89 81.805 411.475 81.74 410.965 81.74C410.275 81.74 409.625 81.93 409.015 82.31C408.405 82.68 407.87 83.19 407.41 83.84C406.95 84.49 406.585 85.26 406.315 86.15C406.055 87.04 405.925 87.995 405.925 89.015C405.925 89.635 405.995 90.2 406.135 90.71C406.275 91.21 406.485 91.64 406.765 92C407.045 92.35 407.385 92.625 407.785 92.825C408.195 93.015 408.67 93.11 409.21 93.11C409.88 93.11 410.44 93.01 410.89 92.81C411.35 92.61 411.735 92.395 412.045 92.165C412.355 91.925 412.615 91.705 412.825 91.505C413.045 91.305 413.26 91.205 413.47 91.205C413.66 91.205 413.83 91.29 413.98 91.46L414.64 92.27ZM421.483 79.805L419.653 95H417.028L418.858 79.805H421.483ZM422.503 75.035C422.503 75.295 422.448 75.54 422.338 75.77C422.238 75.99 422.098 76.19 421.918 76.37C421.748 76.54 421.548 76.675 421.318 76.775C421.098 76.875 420.868 76.925 420.628 76.925C420.398 76.925 420.173 76.875 419.953 76.775C419.733 76.675 419.538 76.54 419.368 76.37C419.208 76.19 419.078 75.99 418.978 75.77C418.878 75.54 418.828 75.295 418.828 75.035C418.828 74.775 418.878 74.53 418.978 74.3C419.078 74.07 419.213 73.87 419.383 73.7C419.553 73.52 419.748 73.38 419.968 73.28C420.188 73.17 420.413 73.115 420.643 73.115C420.883 73.115 421.113 73.165 421.333 73.265C421.563 73.365 421.763 73.505 421.933 73.685C422.103 73.855 422.238 74.06 422.338 74.3C422.448 74.53 422.503 74.775 422.503 75.035ZM434.202 81.665C433.982 81.615 433.762 81.585 433.542 81.575C433.332 81.555 433.122 81.545 432.912 81.545C432.312 81.545 431.732 81.645 431.172 81.845C430.612 82.035 430.087 82.305 429.597 82.655C429.107 83.005 428.662 83.425 428.262 83.915C427.862 84.395 427.517 84.925 427.227 85.505C426.947 86.085 426.727 86.705 426.567 87.365C426.407 88.015 426.327 88.685 426.327 89.375C426.327 91.785 427.097 92.99 428.637 92.99C429.127 92.99 429.607 92.84 430.077 92.54C430.547 92.23 430.992 91.805 431.412 91.265C431.842 90.715 432.237 90.07 432.597 89.33C432.957 88.58 433.277 87.76 433.557 86.87L434.202 81.665ZM433.182 90.995C432.822 91.635 432.432 92.215 432.012 92.735C431.602 93.255 431.162 93.7 430.692 94.07C430.232 94.43 429.742 94.71 429.222 94.91C428.712 95.11 428.182 95.21 427.632 95.21C427.032 95.21 426.487 95.095 425.997 94.865C425.507 94.625 425.087 94.28 424.737 93.83C424.397 93.37 424.132 92.81 423.942 92.15C423.752 91.48 423.657 90.715 423.657 89.855C423.657 88.955 423.767 88.08 423.987 87.23C424.217 86.37 424.537 85.56 424.947 84.8C425.367 84.04 425.867 83.345 426.447 82.715C427.027 82.075 427.672 81.525 428.382 81.065C429.102 80.595 429.872 80.235 430.692 79.985C431.512 79.725 432.372 79.595 433.272 79.595C433.922 79.595 434.552 79.65 435.162 79.76C435.782 79.86 436.392 80.04 436.992 80.3L435.177 95H433.797C433.447 95 433.207 94.91 433.077 94.73C432.957 94.55 432.897 94.33 432.897 94.07L433.182 90.995ZM439.189 95L441.874 72.905H444.499L441.814 95H439.189ZM453.578 81.515C452.948 81.515 452.368 81.645 451.838 81.905C451.308 82.165 450.838 82.525 450.428 82.985C450.018 83.435 449.668 83.97 449.378 84.59C449.088 85.2 448.863 85.86 448.703 86.57C450.243 86.38 451.478 86.165 452.408 85.925C453.338 85.675 454.053 85.41 454.553 85.13C455.053 84.84 455.383 84.53 455.543 84.2C455.703 83.87 455.783 83.525 455.783 83.165C455.783 82.985 455.743 82.8 455.663 82.61C455.583 82.41 455.453 82.23 455.273 82.07C455.103 81.91 454.878 81.78 454.598 81.68C454.318 81.57 453.978 81.515 453.578 81.515ZM457.808 92.195C457.298 92.725 456.798 93.18 456.308 93.56C455.818 93.93 455.318 94.24 454.808 94.49C454.308 94.74 453.778 94.92 453.218 95.03C452.668 95.15 452.073 95.21 451.433 95.21C450.563 95.21 449.783 95.065 449.093 94.775C448.403 94.485 447.818 94.075 447.338 93.545C446.858 93.005 446.488 92.355 446.228 91.595C445.968 90.835 445.838 89.985 445.838 89.045C445.838 88.265 445.918 87.49 446.078 86.72C446.248 85.94 446.488 85.2 446.798 84.5C447.118 83.8 447.503 83.15 447.953 82.55C448.413 81.95 448.933 81.435 449.513 81.005C450.103 80.565 450.748 80.22 451.448 79.97C452.158 79.72 452.918 79.595 453.728 79.595C454.498 79.595 455.163 79.705 455.723 79.925C456.283 80.145 456.743 80.425 457.103 80.765C457.463 81.105 457.728 81.48 457.898 81.89C458.078 82.3 458.168 82.69 458.168 83.06C458.168 83.72 458.033 84.33 457.763 84.89C457.493 85.44 456.998 85.94 456.278 86.39C455.558 86.83 454.568 87.215 453.308 87.545C452.048 87.875 450.428 88.14 448.448 88.34C448.448 88.45 448.443 88.56 448.433 88.67C448.433 88.77 448.433 88.875 448.433 88.985C448.433 90.325 448.723 91.35 449.303 92.06C449.893 92.76 450.778 93.11 451.958 93.11C452.438 93.11 452.863 93.06 453.233 92.96C453.613 92.86 453.948 92.74 454.238 92.6C454.538 92.45 454.798 92.29 455.018 92.12C455.248 91.94 455.453 91.78 455.633 91.64C455.823 91.49 455.998 91.365 456.158 91.265C456.318 91.165 456.478 91.115 456.638 91.115C456.828 91.115 456.998 91.2 457.148 91.37L457.808 92.195ZM470.003 82.235C469.923 82.355 469.843 82.445 469.763 82.505C469.683 82.555 469.583 82.58 469.463 82.58C469.323 82.58 469.168 82.525 468.998 82.415C468.838 82.305 468.638 82.185 468.398 82.055C468.168 81.915 467.883 81.79 467.543 81.68C467.203 81.56 466.793 81.5 466.313 81.5C465.863 81.5 465.453 81.565 465.083 81.695C464.713 81.815 464.393 81.985 464.123 82.205C463.863 82.425 463.658 82.685 463.508 82.985C463.368 83.275 463.298 83.585 463.298 83.915C463.298 84.385 463.453 84.76 463.763 85.04C464.073 85.32 464.463 85.565 464.933 85.775C465.403 85.975 465.908 86.17 466.448 86.36C466.988 86.55 467.493 86.79 467.963 87.08C468.433 87.37 468.823 87.74 469.133 88.19C469.443 88.64 469.598 89.225 469.598 89.945C469.598 90.645 469.458 91.315 469.178 91.955C468.908 92.595 468.513 93.16 467.993 93.65C467.483 94.13 466.863 94.515 466.133 94.805C465.413 95.095 464.603 95.24 463.703 95.24C462.733 95.24 461.873 95.07 461.123 94.73C460.383 94.38 459.778 93.935 459.308 93.395L459.968 92.375C460.058 92.245 460.153 92.145 460.253 92.075C460.363 92.005 460.503 91.97 460.673 91.97C460.833 91.97 460.993 92.04 461.153 92.18C461.313 92.32 461.513 92.48 461.753 92.66C461.993 92.83 462.293 92.985 462.653 93.125C463.023 93.265 463.488 93.335 464.048 93.335C464.538 93.335 464.978 93.26 465.368 93.11C465.768 92.96 466.103 92.76 466.373 92.51C466.653 92.26 466.863 91.97 467.003 91.64C467.153 91.3 467.228 90.94 467.228 90.56C467.228 90.05 467.073 89.645 466.763 89.345C466.453 89.045 466.063 88.795 465.593 88.595C465.123 88.395 464.618 88.21 464.078 88.04C463.538 87.86 463.033 87.635 462.563 87.365C462.093 87.085 461.703 86.725 461.393 86.285C461.083 85.845 460.928 85.26 460.928 84.53C460.928 83.89 461.053 83.275 461.303 82.685C461.563 82.085 461.933 81.555 462.413 81.095C462.893 80.635 463.473 80.27 464.153 80C464.843 79.72 465.618 79.58 466.478 79.58C467.388 79.58 468.188 79.735 468.878 80.045C469.578 80.345 470.178 80.755 470.678 81.275L470.003 82.235Z" fill="#E7476E"/>
</g>
</svg>
