<svg width="190" height="77" viewBox="0 0 190 77" fill="none" xmlns="http://www.w3.org/2000/svg">
<rect width="189.958" height="76.0968" rx="15" fill="#FE9359"/>
<path d="M23.7514 52H19.5214V26.08H23.7514V52ZM32.5092 36.07C32.9052 35.662 33.3132 35.296 33.7332 34.972C34.1652 34.636 34.6212 34.348 35.1012 34.108C35.5812 33.868 36.0912 33.682 36.6312 33.55C37.1712 33.418 37.7592 33.352 38.3952 33.352C39.4032 33.352 40.2852 33.52 41.0412 33.856C41.8092 34.192 42.4512 34.666 42.9672 35.278C43.4952 35.89 43.8912 36.628 44.1552 37.492C44.4192 38.344 44.5512 39.286 44.5512 40.318V52H40.6992V40.318C40.6992 39.082 40.4112 38.122 39.8352 37.438C39.2712 36.754 38.4072 36.412 37.2432 36.412C36.3792 36.412 35.5752 36.61 34.8312 37.006C34.0992 37.402 33.4092 37.942 32.7612 38.626V52H28.8912V33.64H31.2312C31.7592 33.64 32.0952 33.886 32.2392 34.378L32.5092 36.07ZM60.0329 36.97C59.9369 37.138 59.8289 37.258 59.7089 37.33C59.5889 37.402 59.4389 37.438 59.2589 37.438C59.0549 37.438 58.8329 37.378 58.5929 37.258C58.3529 37.126 58.0709 36.982 57.7469 36.826C57.4229 36.67 57.0389 36.532 56.5949 36.412C56.1629 36.28 55.6529 36.214 55.0649 36.214C54.5849 36.214 54.1469 36.274 53.7509 36.394C53.3669 36.502 53.0369 36.664 52.7609 36.88C52.4969 37.084 52.2929 37.33 52.1489 37.618C52.0049 37.894 51.9329 38.194 51.9329 38.518C51.9329 38.95 52.0649 39.31 52.3289 39.598C52.5929 39.886 52.9409 40.138 53.3729 40.354C53.8049 40.558 54.2969 40.744 54.8489 40.912C55.4009 41.08 55.9649 41.26 56.5409 41.452C57.1169 41.644 57.6809 41.866 58.2329 42.118C58.7849 42.37 59.2769 42.682 59.7089 43.054C60.1409 43.414 60.4889 43.858 60.7529 44.386C61.0169 44.902 61.1489 45.532 61.1489 46.276C61.1489 47.14 60.9929 47.938 60.6809 48.67C60.3689 49.402 59.9129 50.038 59.3129 50.578C58.7129 51.118 57.9629 51.538 57.0629 51.838C56.1749 52.138 55.1549 52.288 54.0029 52.288C53.3669 52.288 52.7489 52.228 52.1489 52.108C51.5609 52 50.9969 51.85 50.4569 51.658C49.9289 51.454 49.4309 51.214 48.9629 50.938C48.5069 50.662 48.0989 50.362 47.7389 50.038L48.6389 48.562C48.7469 48.382 48.8789 48.244 49.0349 48.148C49.2029 48.04 49.4069 47.986 49.6469 47.986C49.8989 47.986 50.1449 48.07 50.3849 48.238C50.6369 48.394 50.9249 48.568 51.2489 48.76C51.5849 48.952 51.9869 49.132 52.4549 49.3C52.9229 49.456 53.5049 49.534 54.2009 49.534C54.7769 49.534 55.2749 49.468 55.6949 49.336C56.1149 49.192 56.4629 49 56.7389 48.76C57.0149 48.52 57.2189 48.25 57.3509 47.95C57.4829 47.638 57.5489 47.308 57.5489 46.96C57.5489 46.492 57.4169 46.108 57.1529 45.808C56.8889 45.508 56.5349 45.25 56.0909 45.034C55.6589 44.818 55.1609 44.626 54.5969 44.458C54.0449 44.29 53.4809 44.11 52.9049 43.918C52.3289 43.726 51.7589 43.504 51.1949 43.252C50.6429 43 50.1449 42.682 49.7009 42.298C49.2689 41.902 48.9209 41.428 48.6569 40.876C48.3929 40.312 48.2609 39.628 48.2609 38.824C48.2609 38.092 48.4049 37.396 48.6929 36.736C48.9929 36.076 49.4249 35.494 49.9889 34.99C50.5649 34.486 51.2669 34.09 52.0949 33.802C52.9349 33.502 53.9009 33.352 54.9929 33.352C56.2289 33.352 57.3509 33.55 58.3589 33.946C59.3669 34.342 60.2129 34.882 60.8969 35.566L60.0329 36.97ZM70.6717 52.288C69.1477 52.288 67.9717 51.862 67.1437 51.01C66.3277 50.146 65.9197 48.934 65.9197 47.374V36.682H63.9037C63.6877 36.682 63.5017 36.616 63.3457 36.484C63.1897 36.34 63.1117 36.13 63.1117 35.854V34.288L66.0817 33.856L66.9277 28.546C66.9877 28.342 67.0897 28.18 67.2337 28.06C67.3777 27.928 67.5697 27.862 67.8097 27.862H69.7897V33.892H74.8837V36.682H69.7897V47.104C69.7897 47.764 69.9517 48.268 70.2757 48.616C70.5997 48.964 71.0317 49.138 71.5717 49.138C71.8717 49.138 72.1297 49.102 72.3457 49.03C72.5617 48.946 72.7477 48.862 72.9037 48.778C73.0597 48.682 73.1917 48.598 73.2997 48.526C73.4197 48.442 73.5337 48.4 73.6417 48.4C73.8577 48.4 74.0317 48.52 74.1637 48.76L75.3157 50.65C74.7157 51.178 74.0077 51.586 73.1917 51.874C72.3757 52.15 71.5357 52.288 70.6717 52.288ZM87.7442 43.972C86.3642 44.02 85.2002 44.134 84.2522 44.314C83.3042 44.482 82.5362 44.704 81.9482 44.98C81.3602 45.244 80.9342 45.562 80.6702 45.934C80.4182 46.306 80.2922 46.714 80.2922 47.158C80.2922 47.59 80.3582 47.962 80.4902 48.274C80.6342 48.574 80.8262 48.826 81.0662 49.03C81.3182 49.222 81.6062 49.366 81.9302 49.462C82.2662 49.546 82.6322 49.588 83.0282 49.588C84.0362 49.588 84.9002 49.402 85.6202 49.03C86.3522 48.646 87.0602 48.094 87.7442 47.374V43.972ZM77.4842 36.196C79.5602 34.264 82.0322 33.298 84.9002 33.298C85.9562 33.298 86.8922 33.472 87.7082 33.82C88.5362 34.156 89.2262 34.636 89.7782 35.26C90.3422 35.884 90.7682 36.628 91.0562 37.492C91.3562 38.344 91.5062 39.292 91.5062 40.336V52H89.7782C89.4062 52 89.1242 51.946 88.9322 51.838C88.7402 51.718 88.5782 51.484 88.4462 51.136L88.0682 49.642C87.6002 50.062 87.1382 50.44 86.6822 50.776C86.2262 51.1 85.7522 51.376 85.2602 51.604C84.7802 51.832 84.2582 52 83.6942 52.108C83.1422 52.228 82.5302 52.288 81.8582 52.288C81.1142 52.288 80.4182 52.186 79.7702 51.982C79.1342 51.778 78.5822 51.472 78.1142 51.064C77.6462 50.644 77.2742 50.128 76.9982 49.516C76.7342 48.904 76.6022 48.184 76.6022 47.356C76.6022 46.648 76.7882 45.958 77.1602 45.286C77.5442 44.614 78.1682 44.014 79.0322 43.486C79.9082 42.946 81.0542 42.502 82.4702 42.154C83.8982 41.806 85.6562 41.608 87.7442 41.56V40.336C87.7442 39.016 87.4622 38.032 86.8982 37.384C86.3342 36.736 85.5062 36.412 84.4142 36.412C83.6702 36.412 83.0462 36.508 82.5422 36.7C82.0382 36.88 81.6002 37.078 81.2282 37.294C80.8562 37.51 80.5262 37.714 80.2382 37.906C79.9502 38.086 79.6442 38.176 79.3202 38.176C79.0562 38.176 78.8282 38.11 78.6362 37.978C78.4562 37.834 78.3062 37.66 78.1862 37.456L77.4842 36.196ZM102.592 42.658C103.792 42.658 104.692 42.352 105.292 41.74C105.892 41.128 106.192 40.33 106.192 39.346C106.192 38.338 105.892 37.54 105.292 36.952C104.692 36.364 103.792 36.07 102.592 36.07C101.404 36.07 100.504 36.364 99.8916 36.952C99.2916 37.54 98.9916 38.338 98.9916 39.346C98.9916 39.826 99.0696 40.27 99.2256 40.678C99.3816 41.086 99.6096 41.44 99.9096 41.74C100.21 42.028 100.582 42.256 101.026 42.424C101.482 42.58 102.004 42.658 102.592 42.658ZM107.974 52.9C107.974 52.492 107.854 52.168 107.614 51.928C107.386 51.676 107.074 51.484 106.678 51.352C106.282 51.208 105.82 51.106 105.292 51.046C104.764 50.974 104.2 50.926 103.6 50.902C103.012 50.866 102.406 50.836 101.782 50.812C101.17 50.776 100.576 50.716 99.9996 50.632C99.4236 50.932 98.9496 51.292 98.5776 51.712C98.2176 52.132 98.0376 52.618 98.0376 53.17C98.0376 53.53 98.1276 53.866 98.3076 54.178C98.4996 54.49 98.7876 54.76 99.1716 54.988C99.5676 55.216 100.066 55.396 100.666 55.528C101.278 55.66 102.01 55.726 102.862 55.726C104.566 55.726 105.844 55.462 106.696 54.934C107.548 54.406 107.974 53.728 107.974 52.9ZM111.862 34.306V35.746C111.862 36.226 111.574 36.52 110.998 36.628L109.162 36.934C109.474 37.63 109.63 38.404 109.63 39.256C109.63 40.156 109.45 40.972 109.09 41.704C108.742 42.436 108.256 43.06 107.632 43.576C107.008 44.092 106.264 44.488 105.4 44.764C104.536 45.04 103.6 45.178 102.592 45.178C102.208 45.178 101.83 45.16 101.458 45.124C101.098 45.076 100.744 45.016 100.396 44.944C100.048 45.148 99.7896 45.364 99.6216 45.592C99.4536 45.82 99.3696 46.054 99.3696 46.294C99.3696 46.69 99.5436 46.984 99.8916 47.176C100.24 47.368 100.696 47.506 101.26 47.59C101.836 47.674 102.49 47.728 103.222 47.752C103.954 47.776 104.698 47.818 105.454 47.878C106.21 47.938 106.954 48.04 107.686 48.184C108.418 48.316 109.066 48.544 109.63 48.868C110.206 49.18 110.668 49.606 111.016 50.146C111.364 50.686 111.538 51.388 111.538 52.252C111.538 53.044 111.34 53.818 110.944 54.574C110.548 55.33 109.972 56.002 109.216 56.59C108.472 57.178 107.56 57.646 106.48 57.994C105.4 58.354 104.17 58.534 102.79 58.534C101.422 58.534 100.228 58.402 99.2076 58.138C98.1996 57.874 97.3536 57.514 96.6696 57.058C95.9976 56.614 95.4936 56.098 95.1576 55.51C94.8336 54.922 94.6716 54.31 94.6716 53.674C94.6716 52.81 94.9416 52.072 95.4816 51.46C96.0336 50.848 96.7776 50.368 97.7136 50.02C97.2096 49.78 96.8016 49.45 96.4896 49.03C96.1896 48.61 96.0396 48.058 96.0396 47.374C96.0396 46.834 96.2376 46.27 96.6336 45.682C97.0296 45.094 97.6236 44.596 98.4156 44.188C97.5036 43.684 96.7836 43.018 96.2556 42.19C95.7276 41.35 95.4636 40.372 95.4636 39.256C95.4636 38.344 95.6376 37.522 95.9856 36.79C96.3456 36.058 96.8436 35.434 97.4796 34.918C98.1156 34.402 98.8656 34.006 99.7296 33.73C100.606 33.454 101.56 33.316 102.592 33.316C104.176 33.316 105.556 33.646 106.732 34.306H111.862ZM118.573 37.042C119.149 35.878 119.845 34.966 120.661 34.306C121.477 33.634 122.455 33.298 123.595 33.298C123.991 33.298 124.363 33.346 124.711 33.442C125.059 33.526 125.371 33.658 125.647 33.838L125.377 36.754C125.329 36.958 125.251 37.102 125.143 37.186C125.047 37.258 124.915 37.294 124.747 37.294C124.567 37.294 124.309 37.264 123.973 37.204C123.637 37.132 123.283 37.096 122.911 37.096C122.371 37.096 121.891 37.174 121.471 37.33C121.063 37.486 120.691 37.714 120.355 38.014C120.031 38.314 119.743 38.68 119.491 39.112C119.239 39.544 119.005 40.036 118.789 40.588V52H114.919V33.64H117.169C117.577 33.64 117.859 33.718 118.015 33.874C118.171 34.018 118.279 34.276 118.339 34.648L118.573 37.042ZM137.736 43.972C136.356 44.02 135.192 44.134 134.244 44.314C133.296 44.482 132.528 44.704 131.94 44.98C131.352 45.244 130.926 45.562 130.662 45.934C130.41 46.306 130.284 46.714 130.284 47.158C130.284 47.59 130.35 47.962 130.482 48.274C130.626 48.574 130.818 48.826 131.058 49.03C131.31 49.222 131.598 49.366 131.922 49.462C132.258 49.546 132.624 49.588 133.02 49.588C134.028 49.588 134.892 49.402 135.612 49.03C136.344 48.646 137.052 48.094 137.736 47.374V43.972ZM127.476 36.196C129.552 34.264 132.024 33.298 134.892 33.298C135.948 33.298 136.884 33.472 137.7 33.82C138.528 34.156 139.218 34.636 139.77 35.26C140.334 35.884 140.76 36.628 141.048 37.492C141.348 38.344 141.498 39.292 141.498 40.336V52H139.77C139.398 52 139.116 51.946 138.924 51.838C138.732 51.718 138.57 51.484 138.438 51.136L138.06 49.642C137.592 50.062 137.13 50.44 136.674 50.776C136.218 51.1 135.744 51.376 135.252 51.604C134.772 51.832 134.25 52 133.686 52.108C133.134 52.228 132.522 52.288 131.85 52.288C131.106 52.288 130.41 52.186 129.762 51.982C129.126 51.778 128.574 51.472 128.106 51.064C127.638 50.644 127.266 50.128 126.99 49.516C126.726 48.904 126.594 48.184 126.594 47.356C126.594 46.648 126.78 45.958 127.152 45.286C127.536 44.614 128.16 44.014 129.024 43.486C129.9 42.946 131.046 42.502 132.462 42.154C133.89 41.806 135.648 41.608 137.736 41.56V40.336C137.736 39.016 137.454 38.032 136.89 37.384C136.326 36.736 135.498 36.412 134.406 36.412C133.662 36.412 133.038 36.508 132.534 36.7C132.03 36.88 131.592 37.078 131.22 37.294C130.848 37.51 130.518 37.714 130.23 37.906C129.942 38.086 129.636 38.176 129.312 38.176C129.048 38.176 128.82 38.11 128.628 37.978C128.448 37.834 128.298 37.66 128.178 37.456L127.476 36.196ZM146.032 52V33.64H148.372C148.9 33.64 149.236 33.886 149.38 34.378L149.632 35.98C149.968 35.596 150.316 35.248 150.676 34.936C151.036 34.612 151.42 34.336 151.828 34.108C152.248 33.868 152.692 33.682 153.16 33.55C153.64 33.418 154.156 33.352 154.708 33.352C155.296 33.352 155.836 33.436 156.328 33.604C156.82 33.772 157.252 34.012 157.624 34.324C158.008 34.636 158.338 35.014 158.614 35.458C158.89 35.902 159.118 36.4 159.298 36.952C159.574 36.316 159.922 35.77 160.342 35.314C160.762 34.858 161.23 34.486 161.746 34.198C162.262 33.91 162.808 33.7 163.384 33.568C163.972 33.424 164.566 33.352 165.166 33.352C166.15 33.352 167.026 33.508 167.794 33.82C168.574 34.132 169.228 34.588 169.756 35.188C170.296 35.776 170.704 36.502 170.98 37.366C171.256 38.23 171.394 39.214 171.394 40.318V52H167.524V40.318C167.524 39.022 167.242 38.05 166.678 37.402C166.126 36.742 165.304 36.412 164.212 36.412C163.72 36.412 163.258 36.496 162.826 36.664C162.394 36.832 162.016 37.078 161.692 37.402C161.368 37.726 161.11 38.134 160.918 38.626C160.738 39.106 160.648 39.67 160.648 40.318V52H156.778V40.318C156.778 38.974 156.508 37.99 155.968 37.366C155.428 36.73 154.636 36.412 153.592 36.412C152.872 36.412 152.206 36.598 151.594 36.97C150.982 37.33 150.418 37.828 149.902 38.464V52H146.032Z" fill="white"/>
</svg>
