<svg width="175" height="90" viewBox="0 0 175 90" fill="none" xmlns="http://www.w3.org/2000/svg">
<rect x="1.5" y="1.5" width="172" height="87" rx="18.5" stroke="#FB5CC2" stroke-width="3"/>
<path d="M38.9529 60H33.3029L37.7029 24H43.3529L38.9529 60ZM53.0568 40.275C54.3735 38.2083 55.8485 36.6667 57.4818 35.65C59.1152 34.6167 60.7985 34.1 62.5318 34.1C63.5985 34.1 64.5485 34.3167 65.3818 34.75C66.2152 35.1667 66.8985 35.7917 67.4318 36.625C67.9652 37.4417 68.3318 38.45 68.5318 39.65C68.7318 40.85 68.7402 42.225 68.5568 43.775L66.6318 60H61.2818L63.2068 43.775C63.4402 41.9583 63.3318 40.6417 62.8818 39.825C62.4485 38.9917 61.6568 38.575 60.5068 38.575C59.7735 38.575 59.0152 38.7833 58.2318 39.2C57.4652 39.6167 56.7235 40.2083 56.0068 40.975C55.3068 41.725 54.6485 42.6417 54.0318 43.725C53.4152 44.7917 52.9068 45.9833 52.5068 47.3L51.1068 60H45.7568L48.8068 34.45H51.5068C52.0902 34.45 52.5318 34.6 52.8318 34.9C53.1485 35.1833 53.3068 35.6333 53.3068 36.25L53.0568 40.275ZM81.1385 34.5L78.0635 60H72.7885L75.8385 34.5H81.1385ZM82.7385 26.8C82.7385 27.2833 82.6385 27.7417 82.4385 28.175C82.2385 28.6083 81.9718 28.9917 81.6385 29.325C81.3051 29.6417 80.9301 29.9 80.5135 30.1C80.0968 30.2833 79.6635 30.375 79.2135 30.375C78.7635 30.375 78.3301 30.2833 77.9135 30.1C77.5135 29.9 77.1551 29.6417 76.8385 29.325C76.5385 28.9917 76.2885 28.6083 76.0885 28.175C75.9051 27.7417 75.8135 27.2833 75.8135 26.8C75.8135 26.3167 75.9051 25.8583 76.0885 25.425C76.2885 24.975 76.5468 24.5917 76.8635 24.275C77.1801 23.9417 77.5468 23.6833 77.9635 23.5C78.3801 23.3 78.8051 23.2 79.2385 23.2C79.6885 23.2 80.1218 23.3 80.5385 23.5C80.9718 23.6833 81.3468 23.9417 81.6635 24.275C81.9968 24.5917 82.2551 24.9667 82.4385 25.4C82.6385 25.8333 82.7385 26.3 82.7385 26.8ZM103.853 55.45C103.003 56.4 102.186 57.1917 101.403 57.825C100.619 58.4417 99.8275 58.9417 99.0275 59.325C98.2442 59.7083 97.4192 59.975 96.5525 60.125C95.7025 60.2917 94.7692 60.375 93.7525 60.375C92.2692 60.375 90.9525 60.125 89.8025 59.625C88.6525 59.1083 87.6859 58.3917 86.9025 57.475C86.1192 56.5417 85.5192 55.425 85.1025 54.125C84.6859 52.825 84.4775 51.3833 84.4775 49.8C84.4775 48.4333 84.6275 47.0917 84.9275 45.775C85.2275 44.4583 85.6525 43.225 86.2025 42.075C86.7525 40.9083 87.4192 39.8417 88.2025 38.875C89.0025 37.8917 89.8942 37.05 90.8775 36.35C91.8609 35.65 92.9275 35.1083 94.0775 34.725C95.2275 34.325 96.4442 34.125 97.7275 34.125C99.4275 34.125 100.853 34.425 102.003 35.025C103.169 35.625 104.194 36.5083 105.078 37.675L103.378 39.725C103.244 39.8583 103.094 39.9833 102.928 40.1C102.761 40.2 102.578 40.25 102.378 40.25C102.128 40.25 101.886 40.1583 101.653 39.975C101.419 39.7917 101.136 39.5917 100.803 39.375C100.469 39.1417 100.053 38.9333 99.5525 38.75C99.0525 38.55 98.4109 38.45 97.6275 38.45C96.5775 38.45 95.5775 38.7333 94.6275 39.3C93.6942 39.8667 92.8692 40.6583 92.1525 41.675C91.4525 42.675 90.8942 43.875 90.4775 45.275C90.0609 46.675 89.8525 48.2 89.8525 49.85C89.8525 51.8167 90.2859 53.3583 91.1525 54.475C92.0359 55.5917 93.2775 56.15 94.8775 56.15C95.9109 56.15 96.7692 56 97.4525 55.7C98.1359 55.4 98.7109 55.075 99.1775 54.725C99.6609 54.375 100.078 54.05 100.428 53.75C100.778 53.45 101.144 53.3 101.528 53.3C101.878 53.3 102.203 53.4667 102.503 53.8L103.853 55.45ZM115.758 34.5L112.683 60H107.408L110.458 34.5H115.758ZM117.358 26.8C117.358 27.2833 117.258 27.7417 117.058 28.175C116.858 28.6083 116.591 28.9917 116.258 29.325C115.924 29.6417 115.549 29.9 115.133 30.1C114.716 30.2833 114.283 30.375 113.833 30.375C113.383 30.375 112.949 30.2833 112.533 30.1C112.133 29.9 111.774 29.6417 111.458 29.325C111.158 28.9917 110.908 28.6083 110.708 28.175C110.524 27.7417 110.433 27.2833 110.433 26.8C110.433 26.3167 110.524 25.8583 110.708 25.425C110.908 24.975 111.166 24.5917 111.483 24.275C111.799 23.9417 112.166 23.6833 112.583 23.5C112.999 23.3 113.424 23.2 113.858 23.2C114.308 23.2 114.741 23.3 115.158 23.5C115.591 23.6833 115.966 23.9417 116.283 24.275C116.616 24.5917 116.874 24.9667 117.058 25.4C117.258 25.8333 117.358 26.3 117.358 26.8ZM129.272 56.175C130.388 56.175 131.405 55.8667 132.322 55.25C133.238 54.6167 134.013 53.775 134.647 52.725C135.297 51.675 135.797 50.4667 136.147 49.1C136.497 47.7167 136.672 46.275 136.672 44.775C136.672 42.575 136.263 40.95 135.447 39.9C134.647 38.8333 133.455 38.3 131.872 38.3C130.738 38.3 129.713 38.6083 128.797 39.225C127.897 39.8417 127.13 40.6667 126.497 41.7C125.863 42.7333 125.372 43.9417 125.022 45.325C124.672 46.7083 124.497 48.1583 124.497 49.675C124.497 54.0083 126.088 56.175 129.272 56.175ZM128.797 60.375C127.397 60.375 126.105 60.1417 124.922 59.675C123.738 59.1917 122.713 58.5 121.847 57.6C120.997 56.6833 120.33 55.5667 119.847 54.25C119.363 52.9167 119.122 51.4083 119.122 49.725C119.122 47.5417 119.463 45.5 120.147 43.6C120.847 41.7 121.797 40.05 122.997 38.65C124.197 37.2333 125.597 36.125 127.197 35.325C128.813 34.5083 130.538 34.1 132.372 34.1C133.772 34.1 135.063 34.3417 136.247 34.825C137.43 35.2917 138.447 35.9833 139.297 36.9C140.147 37.8 140.813 38.9167 141.297 40.25C141.78 41.5667 142.022 43.0667 142.022 44.75C142.022 46.1833 141.863 47.5667 141.547 48.9C141.23 50.2333 140.788 51.4833 140.222 52.65C139.655 53.8 138.963 54.85 138.147 55.8C137.347 56.75 136.455 57.5667 135.472 58.25C134.505 58.9167 133.455 59.4417 132.322 59.825C131.188 60.1917 130.013 60.375 128.797 60.375Z" fill="#FB5CC2"/>
</svg>
