<svg width="608" height="102" viewBox="0 0 608 102" fill="none" xmlns="http://www.w3.org/2000/svg">
<mask id="mask0_42_770" style="mask-type:luminance" maskUnits="userSpaceOnUse" x="0" y="0" width="608" height="102">
<path d="M0 0H608V102H0V0Z" fill="white"/>
</mask>
<g mask="url(#mask0_42_770)">
<path d="M598.751 95.8763C595.242 93.5809 592.786 90.8509 590.81 87.9183C590.972 87.1825 591.079 86.4361 591.079 85.6683V15.5319C591.079 6.95551 580.749 0 568.007 0H23.072C10.3299 0 2.66265e-06 6.95551 2.66265e-06 15.5319V85.6683C2.66265e-06 94.2474 10.3299 101.198 23.072 101.198H568.007C572.027 101.198 575.81 100.502 579.102 99.286C582.9 100.683 587.142 101.533 591.455 101.736C596.248 101.968 601.278 101.493 606.016 101.011C606.681 100.944 607.339 100.87 608 100.795C604.918 99.1661 601.564 97.7184 598.751 95.8763Z" fill="#4862C9" fill-opacity="0.3"/>
<path d="M604.523 100.156C600.207 100.583 595.753 100.943 591.504 100.737L591.502 100.737C587.286 100.539 583.145 99.7077 579.447 98.3475L579.101 98.2203L578.755 98.348C575.579 99.5211 571.914 100.198 568.007 100.198H23.072C16.8727 100.198 11.3051 98.5051 7.31604 95.8204C3.32092 93.1317 1 89.5239 1 85.6683V15.5319C1 11.6776 3.32092 8.0691 7.31622 5.37934C11.3053 2.69373 16.8729 1 23.072 1H568.007C574.206 1 579.774 2.69373 583.763 5.37934C587.758 8.0691 590.079 11.6776 590.079 15.5319V85.6683C590.079 86.3434 589.985 87.0148 589.833 87.7028L589.741 88.1216L589.981 88.4772C592.015 91.4958 594.561 94.3302 598.204 96.7131M604.523 100.156L598.204 96.7131M604.523 100.156C602.364 99.0862 600.14 97.9811 598.204 96.7131M604.523 100.156L598.204 96.7131" stroke="#4862C9" stroke-opacity="0.9" stroke-width="2"/>
</g>
<path d="M86.9694 40.4L85.7894 50.06H95.9294L95.5494 53H85.4294L84.2094 62.96H96.7894L96.4094 66H80.0694L83.5894 37.34H99.9094L99.5294 40.4H86.9694ZM100.757 66L104.337 36.54H107.837L104.257 66H100.757ZM135.876 62.74C136.249 62.74 136.529 62.8533 136.716 63.08C136.916 63.2933 136.989 63.5733 136.936 63.92L136.696 66H119.016L119.156 64.82C119.183 64.58 119.263 64.3267 119.396 64.06C119.529 63.7933 119.723 63.5533 119.976 63.34L129.496 54.08C130.389 53.2 131.196 52.3733 131.916 51.6C132.636 50.8133 133.243 50.0333 133.736 49.26C134.229 48.4733 134.609 47.68 134.876 46.88C135.143 46.0667 135.276 45.1867 135.276 44.24C135.276 43.5333 135.169 42.92 134.956 42.4C134.756 41.8667 134.476 41.4267 134.116 41.08C133.756 40.72 133.329 40.4533 132.836 40.28C132.343 40.0933 131.803 40 131.216 40C130.563 40 129.949 40.1067 129.376 40.32C128.803 40.5333 128.276 40.8333 127.796 41.22C127.329 41.6067 126.916 42.0667 126.556 42.6C126.196 43.1333 125.916 43.72 125.716 44.36C125.516 44.8133 125.276 45.12 124.996 45.28C124.716 45.4267 124.343 45.46 123.876 45.38L122.116 45.08C122.449 43.7733 122.923 42.62 123.536 41.62C124.163 40.62 124.896 39.78 125.736 39.1C126.576 38.42 127.503 37.9067 128.516 37.56C129.543 37.2133 130.629 37.04 131.776 37.04C132.816 37.04 133.763 37.2 134.616 37.52C135.483 37.8267 136.229 38.28 136.856 38.88C137.483 39.4667 137.969 40.1867 138.316 41.04C138.663 41.88 138.836 42.84 138.836 43.92C138.836 45.1467 138.649 46.2667 138.276 47.28C137.916 48.2933 137.423 49.2533 136.796 50.16C136.183 51.0533 135.463 51.9267 134.636 52.78C133.823 53.62 132.956 54.4867 132.036 55.38L124.016 63.24C124.576 63.0933 125.136 62.9733 125.696 62.88C126.256 62.7867 126.789 62.74 127.296 62.74H135.876ZM162.719 48.54C162.719 51.54 162.406 54.1533 161.779 56.38C161.152 58.6067 160.306 60.46 159.239 61.94C158.186 63.4067 156.952 64.5 155.539 65.22C154.126 65.94 152.639 66.3 151.079 66.3C149.906 66.3 148.826 66.06 147.839 65.58C146.866 65.1 146.019 64.3867 145.299 63.44C144.592 62.48 144.039 61.2867 143.639 59.86C143.252 58.42 143.059 56.74 143.059 54.82C143.059 51.82 143.366 49.2067 143.979 46.98C144.606 44.7533 145.446 42.9067 146.499 41.44C147.566 39.96 148.799 38.86 150.199 38.14C151.612 37.4067 153.106 37.04 154.679 37.04C155.839 37.04 156.912 37.28 157.899 37.76C158.886 38.24 159.732 38.96 160.439 39.92C161.159 40.8667 161.719 42.06 162.119 43.5C162.519 44.94 162.719 46.62 162.719 48.54ZM159.179 48.36C159.179 46.8533 159.052 45.5667 158.799 44.5C158.546 43.4333 158.199 42.5667 157.759 41.9C157.319 41.22 156.799 40.7267 156.199 40.42C155.612 40.1 154.986 39.94 154.319 39.94C153.346 39.94 152.392 40.2133 151.459 40.76C150.539 41.2933 149.719 42.16 148.999 43.36C148.279 44.5467 147.699 46.1 147.259 48.02C146.819 49.9267 146.599 52.26 146.599 55.02C146.599 56.5267 146.726 57.8133 146.979 58.88C147.232 59.9467 147.572 60.8133 147.999 61.48C148.439 62.1467 148.952 62.6333 149.539 62.94C150.126 63.2467 150.752 63.4 151.419 63.4C152.392 63.4 153.346 63.14 154.279 62.62C155.212 62.0867 156.039 61.2267 156.759 60.04C157.492 58.84 158.079 57.2867 158.519 55.38C158.959 53.46 159.179 51.12 159.179 48.36ZM185.922 48.54C185.922 51.54 185.609 54.1533 184.982 56.38C184.356 58.6067 183.509 60.46 182.442 61.94C181.389 63.4067 180.156 64.5 178.742 65.22C177.329 65.94 175.842 66.3 174.282 66.3C173.109 66.3 172.029 66.06 171.042 65.58C170.069 65.1 169.222 64.3867 168.502 63.44C167.796 62.48 167.242 61.2867 166.842 59.86C166.456 58.42 166.262 56.74 166.262 54.82C166.262 51.82 166.569 49.2067 167.182 46.98C167.809 44.7533 168.649 42.9067 169.702 41.44C170.769 39.96 172.002 38.86 173.402 38.14C174.816 37.4067 176.309 37.04 177.882 37.04C179.042 37.04 180.116 37.28 181.102 37.76C182.089 38.24 182.936 38.96 183.642 39.92C184.362 40.8667 184.922 42.06 185.322 43.5C185.722 44.94 185.922 46.62 185.922 48.54ZM182.382 48.36C182.382 46.8533 182.256 45.5667 182.002 44.5C181.749 43.4333 181.402 42.5667 180.962 41.9C180.522 41.22 180.002 40.7267 179.402 40.42C178.816 40.1 178.189 39.94 177.522 39.94C176.549 39.94 175.596 40.2133 174.662 40.76C173.742 41.2933 172.922 42.16 172.202 43.36C171.482 44.5467 170.902 46.1 170.462 48.02C170.022 49.9267 169.802 52.26 169.802 55.02C169.802 56.5267 169.929 57.8133 170.182 58.88C170.436 59.9467 170.776 60.8133 171.202 61.48C171.642 62.1467 172.156 62.6333 172.742 62.94C173.329 63.2467 173.956 63.4 174.622 63.4C175.596 63.4 176.549 63.14 177.482 62.62C178.416 62.0867 179.242 61.2267 179.962 60.04C180.696 58.84 181.282 57.2867 181.722 55.38C182.162 53.46 182.382 51.12 182.382 48.36ZM201.565 55.7L203.045 43.66C203.072 43.3533 203.119 43.0333 203.185 42.7C203.252 42.3533 203.325 41.9933 203.405 41.62L192.185 55.7H201.565ZM208.485 55.7L208.245 57.68C208.219 57.8933 208.132 58.0733 207.985 58.22C207.839 58.3533 207.645 58.42 207.405 58.42H204.245L203.305 66H200.305L201.225 58.42H189.585C189.319 58.42 189.105 58.3467 188.945 58.2C188.785 58.0533 188.692 57.8667 188.665 57.64L188.525 55.88L203.605 37.34H206.825L204.565 55.7H208.485ZM234.263 48.98C234.157 49.14 234.05 49.26 233.943 49.34C233.837 49.4067 233.703 49.44 233.543 49.44C233.357 49.44 233.15 49.3667 232.923 49.22C232.71 49.0733 232.443 48.9133 232.123 48.74C231.817 48.5533 231.437 48.3867 230.983 48.24C230.53 48.08 229.983 48 229.343 48C228.743 48 228.197 48.0867 227.703 48.26C227.21 48.42 226.783 48.6467 226.423 48.94C226.077 49.2333 225.803 49.58 225.603 49.98C225.417 50.3667 225.323 50.78 225.323 51.22C225.323 51.8467 225.53 52.3467 225.943 52.72C226.357 53.0933 226.877 53.42 227.503 53.7C228.13 53.9667 228.803 54.2267 229.523 54.48C230.243 54.7333 230.917 55.0533 231.543 55.44C232.17 55.8267 232.69 56.32 233.103 56.92C233.517 57.52 233.723 58.3 233.723 59.26C233.723 60.1933 233.537 61.0867 233.163 61.94C232.803 62.7933 232.277 63.5467 231.583 64.2C230.903 64.84 230.077 65.3533 229.103 65.74C228.143 66.1267 227.063 66.32 225.863 66.32C224.57 66.32 223.423 66.0933 222.423 65.64C221.437 65.1733 220.63 64.58 220.003 63.86L220.883 62.5C221.003 62.3267 221.13 62.1933 221.263 62.1C221.41 62.0067 221.597 61.96 221.823 61.96C222.037 61.96 222.25 62.0533 222.463 62.24C222.677 62.4267 222.943 62.64 223.263 62.88C223.583 63.1067 223.983 63.3133 224.463 63.5C224.957 63.6867 225.577 63.78 226.323 63.78C226.977 63.78 227.563 63.68 228.083 63.48C228.617 63.28 229.063 63.0133 229.423 62.68C229.797 62.3467 230.077 61.96 230.263 61.52C230.463 61.0667 230.563 60.5867 230.563 60.08C230.563 59.4 230.357 58.86 229.943 58.46C229.53 58.06 229.01 57.7267 228.383 57.46C227.757 57.1933 227.083 56.9467 226.363 56.72C225.643 56.48 224.97 56.18 224.343 55.82C223.717 55.4467 223.197 54.9667 222.783 54.38C222.37 53.7933 222.163 53.0133 222.163 52.04C222.163 51.1867 222.33 50.3667 222.663 49.58C223.01 48.78 223.503 48.0733 224.143 47.46C224.783 46.8467 225.557 46.36 226.463 46C227.383 45.6267 228.417 45.44 229.563 45.44C230.777 45.44 231.843 45.6467 232.763 46.06C233.697 46.46 234.497 47.0067 235.163 47.7L234.263 48.98ZM247.519 48.02C246.679 48.02 245.906 48.1933 245.199 48.54C244.492 48.8867 243.866 49.3667 243.319 49.98C242.772 50.58 242.306 51.2933 241.919 52.12C241.532 52.9333 241.232 53.8133 241.019 54.76C243.072 54.5067 244.719 54.22 245.959 53.9C247.199 53.5667 248.152 53.2133 248.819 52.84C249.486 52.4533 249.926 52.04 250.139 51.6C250.352 51.16 250.459 50.7 250.459 50.22C250.459 49.98 250.406 49.7333 250.299 49.48C250.192 49.2133 250.019 48.9733 249.779 48.76C249.552 48.5467 249.252 48.3733 248.879 48.24C248.506 48.0933 248.052 48.02 247.519 48.02ZM253.159 62.26C252.479 62.9667 251.812 63.5733 251.159 64.08C250.506 64.5733 249.839 64.9867 249.159 65.32C248.492 65.6533 247.786 65.8933 247.039 66.04C246.306 66.2 245.512 66.28 244.659 66.28C243.499 66.28 242.459 66.0867 241.539 65.7C240.619 65.3133 239.839 64.7667 239.199 64.06C238.559 63.34 238.066 62.4733 237.719 61.46C237.372 60.4467 237.199 59.3133 237.199 58.06C237.199 57.02 237.306 55.9867 237.519 54.96C237.746 53.92 238.066 52.9333 238.479 52C238.906 51.0667 239.419 50.2 240.019 49.4C240.632 48.6 241.326 47.9133 242.099 47.34C242.886 46.7533 243.746 46.2933 244.679 45.96C245.626 45.6267 246.639 45.46 247.719 45.46C248.746 45.46 249.632 45.6067 250.379 45.9C251.126 46.1933 251.739 46.5667 252.219 47.02C252.699 47.4733 253.052 47.9733 253.279 48.52C253.519 49.0667 253.639 49.5867 253.639 50.08C253.639 50.96 253.459 51.7733 253.099 52.52C252.739 53.2533 252.079 53.92 251.119 54.52C250.159 55.1067 248.839 55.62 247.159 56.06C245.479 56.5 243.319 56.8533 240.679 57.12C240.679 57.2667 240.672 57.4133 240.659 57.56C240.659 57.6933 240.659 57.8333 240.659 57.98C240.659 59.7667 241.046 61.1333 241.819 62.08C242.606 63.0133 243.786 63.48 245.359 63.48C245.999 63.48 246.566 63.4133 247.059 63.28C247.566 63.1467 248.012 62.9867 248.399 62.8C248.799 62.6 249.146 62.3867 249.439 62.16C249.746 61.92 250.019 61.7067 250.259 61.52C250.512 61.32 250.746 61.1533 250.959 61.02C251.172 60.8867 251.386 60.82 251.599 60.82C251.852 60.82 252.079 60.9333 252.279 61.16L253.159 62.26ZM272.455 48.7L270.435 65.34L269.495 69.48C269.348 69.96 269.128 70.3267 268.835 70.58C268.555 70.8467 268.161 70.98 267.655 70.98H266.275L268.955 48.76L266.955 48.5C266.715 48.4333 266.521 48.3333 266.375 48.2C266.241 48.0667 266.188 47.86 266.215 47.58L266.395 46.14H269.275L269.515 44.18C269.661 43.02 269.948 41.9933 270.375 41.1C270.815 40.1933 271.361 39.4333 272.015 38.82C272.681 38.1933 273.435 37.72 274.275 37.4C275.128 37.08 276.048 36.92 277.035 36.92C277.848 36.92 278.601 37.0533 279.295 37.32L278.955 39.16C278.901 39.4267 278.721 39.56 278.415 39.56C278.108 39.56 277.721 39.56 277.255 39.56C276.681 39.56 276.148 39.6467 275.655 39.82C275.175 39.98 274.748 40.2467 274.375 40.62C274.001 40.9933 273.681 41.48 273.415 42.08C273.161 42.68 272.981 43.4133 272.875 44.28L272.655 46.14H277.715L277.375 48.7H272.455ZM296.867 45.74L294.427 66H292.667C291.801 66 291.367 65.5733 291.367 64.72L291.667 61.02C290.601 62.7533 289.394 64.0667 288.047 64.96C286.714 65.84 285.341 66.28 283.927 66.28C283.074 66.28 282.321 66.1133 281.667 65.78C281.014 65.4333 280.481 64.9333 280.067 64.28C279.667 63.6267 279.394 62.8267 279.247 61.88C279.101 60.9333 279.107 59.8467 279.267 58.62L280.787 45.74H284.327L282.807 58.62C282.621 60.2067 282.714 61.3867 283.087 62.16C283.474 62.9333 284.194 63.32 285.247 63.32C285.861 63.32 286.494 63.1533 287.147 62.82C287.801 62.4867 288.427 62.0133 289.027 61.4C289.627 60.7867 290.187 60.0467 290.707 59.18C291.241 58.3 291.694 57.3267 292.067 56.26L293.327 45.74H296.867ZM304.819 50.86C305.899 49.0733 307.119 47.7267 308.479 46.82C309.839 45.9 311.239 45.44 312.679 45.44C313.532 45.44 314.279 45.6133 314.919 45.96C315.572 46.2933 316.099 46.7867 316.499 47.44C316.912 48.0933 317.192 48.9 317.339 49.86C317.486 50.8067 317.486 51.8867 317.339 53.1L315.819 66H312.279L313.799 53.1C313.986 51.5 313.886 50.32 313.499 49.56C313.112 48.7867 312.399 48.4 311.359 48.4C310.719 48.4 310.066 48.5733 309.399 48.92C308.746 49.2667 308.112 49.76 307.499 50.4C306.886 51.04 306.312 51.8133 305.779 52.72C305.259 53.6133 304.812 54.6133 304.439 55.72L303.279 66H299.719L302.159 45.72H303.919C304.719 45.72 305.119 46.12 305.119 46.92L304.819 50.86ZM335.23 50.16C334.723 49.44 334.11 48.94 333.39 48.66C332.683 48.3667 331.963 48.22 331.23 48.22C330.177 48.22 329.23 48.5333 328.39 49.16C327.55 49.7867 326.83 50.6 326.23 51.6C325.643 52.5867 325.19 53.6933 324.87 54.92C324.55 56.1467 324.39 57.3533 324.39 58.54C324.39 60.1267 324.67 61.34 325.23 62.18C325.803 63.0067 326.617 63.42 327.67 63.42C328.31 63.42 328.957 63.22 329.61 62.82C330.263 62.42 330.89 61.8667 331.49 61.16C332.103 60.44 332.67 59.5933 333.19 58.62C333.723 57.6467 334.183 56.58 334.57 55.42L335.23 50.16ZM340.39 36.54L336.77 66H334.91C334.443 66 334.13 65.88 333.97 65.64C333.81 65.4 333.73 65.1067 333.73 64.76L334.11 60.5C333.603 61.38 333.05 62.1733 332.45 62.88C331.85 63.5867 331.217 64.1933 330.55 64.7C329.897 65.2067 329.21 65.6 328.49 65.88C327.783 66.1467 327.063 66.28 326.33 66.28C324.597 66.28 323.25 65.6533 322.29 64.4C321.33 63.1333 320.85 61.3 320.85 58.9C320.85 57.8067 320.963 56.7133 321.19 55.62C321.417 54.5267 321.737 53.48 322.15 52.48C322.577 51.48 323.083 50.5533 323.67 49.7C324.27 48.8333 324.937 48.0867 325.67 47.46C326.403 46.8333 327.19 46.34 328.03 45.98C328.883 45.62 329.777 45.44 330.71 45.44C331.71 45.44 332.617 45.64 333.43 46.04C334.257 46.4267 334.957 46.98 335.53 47.7L336.91 36.54H340.39ZM349.982 63.5C350.955 63.5 351.835 63.2333 352.622 62.7C353.422 62.1667 354.102 61.46 354.662 60.58C355.235 59.6867 355.675 58.66 355.982 57.5C356.289 56.34 356.442 55.1267 356.442 53.86C356.442 51.9933 356.069 50.5933 355.322 49.66C354.589 48.7133 353.529 48.24 352.142 48.24C351.155 48.24 350.262 48.5067 349.462 49.04C348.675 49.56 348.002 50.26 347.442 51.14C346.882 52.02 346.449 53.04 346.142 54.2C345.835 55.36 345.682 56.5733 345.682 57.84C345.682 59.7067 346.049 61.12 346.782 62.08C347.515 63.0267 348.582 63.5 349.982 63.5ZM349.642 66.28C348.535 66.28 347.522 66.0933 346.602 65.72C345.682 65.3333 344.889 64.78 344.222 64.06C343.555 63.34 343.035 62.46 342.662 61.42C342.289 60.38 342.102 59.1933 342.102 57.86C342.102 56.1533 342.369 54.5467 342.902 53.04C343.435 51.5333 344.169 50.22 345.102 49.1C346.035 47.9667 347.129 47.0733 348.382 46.42C349.649 45.7667 351.009 45.44 352.462 45.44C353.569 45.44 354.582 45.6333 355.502 46.02C356.422 46.3933 357.215 46.94 357.882 47.66C358.549 48.38 359.069 49.26 359.442 50.3C359.815 51.34 360.002 52.52 360.002 53.84C360.002 55.5333 359.735 57.1333 359.202 58.64C358.669 60.1467 357.935 61.4667 357.002 62.6C356.082 63.7333 354.989 64.6333 353.722 65.3C352.455 65.9533 351.095 66.28 349.642 66.28ZM358.662 37.02L353.782 42.18C353.595 42.38 353.415 42.5267 353.242 42.62C353.069 42.7 352.855 42.74 352.602 42.74H350.642L353.902 37.9C354.102 37.5933 354.309 37.3733 354.522 37.24C354.749 37.0933 355.062 37.02 355.462 37.02H358.662ZM379.899 40.4L378.659 50.6H389.379L388.979 53.64H378.279L376.759 66H372.999L376.519 37.34H392.839L392.459 40.4H379.899ZM405.044 48.22C404.751 48.1533 404.458 48.1133 404.164 48.1C403.884 48.0733 403.604 48.06 403.324 48.06C402.524 48.06 401.751 48.1933 401.004 48.46C400.258 48.7133 399.558 49.0733 398.904 49.54C398.251 50.0067 397.658 50.5667 397.124 51.22C396.591 51.86 396.131 52.5667 395.744 53.34C395.371 54.1133 395.078 54.94 394.864 55.82C394.651 56.6867 394.544 57.58 394.544 58.5C394.544 61.7133 395.571 63.32 397.624 63.32C398.278 63.32 398.918 63.12 399.544 62.72C400.171 62.3067 400.764 61.74 401.324 61.02C401.898 60.2867 402.424 59.4267 402.904 58.44C403.384 57.44 403.811 56.3467 404.184 55.16L405.044 48.22ZM403.684 60.66C403.204 61.5133 402.684 62.2867 402.124 62.98C401.578 63.6733 400.991 64.2667 400.364 64.76C399.751 65.24 399.098 65.6133 398.404 65.88C397.724 66.1467 397.018 66.28 396.284 66.28C395.484 66.28 394.758 66.1267 394.104 65.82C393.451 65.5 392.891 65.04 392.424 64.44C391.971 63.8267 391.618 63.08 391.364 62.2C391.111 61.3067 390.984 60.2867 390.984 59.14C390.984 57.94 391.131 56.7733 391.424 55.64C391.731 54.4933 392.158 53.4133 392.704 52.4C393.264 51.3867 393.931 50.46 394.704 49.62C395.478 48.7667 396.338 48.0333 397.284 47.42C398.244 46.7933 399.271 46.3133 400.364 45.98C401.458 45.6333 402.604 45.46 403.804 45.46C404.671 45.46 405.511 45.5333 406.324 45.68C407.151 45.8133 407.964 46.0533 408.764 46.4L406.344 66H404.504C404.038 66 403.718 65.88 403.544 65.64C403.384 65.4 403.304 65.1067 403.304 64.76L403.684 60.66ZM426.774 62.36C426.081 63.12 425.421 63.7533 424.794 64.26C424.167 64.7667 423.541 65.1733 422.914 65.48C422.287 65.7733 421.634 65.98 420.954 66.1C420.287 66.22 419.567 66.28 418.794 66.28C417.621 66.28 416.581 66.08 415.674 65.68C414.781 65.28 414.027 64.72 413.414 64C412.814 63.2667 412.354 62.3933 412.034 61.38C411.727 60.3533 411.574 59.2267 411.574 58C411.574 56.36 411.827 54.7867 412.334 53.28C412.854 51.7733 413.574 50.44 414.494 49.28C415.414 48.12 416.507 47.1933 417.774 46.5C419.054 45.8067 420.447 45.46 421.954 45.46C423.301 45.46 424.427 45.7 425.334 46.18C426.241 46.6467 427.034 47.3333 427.714 48.24L426.594 49.58C426.501 49.6867 426.394 49.7733 426.274 49.84C426.167 49.9067 426.041 49.94 425.894 49.94C425.707 49.94 425.521 49.86 425.334 49.7C425.161 49.5267 424.927 49.34 424.634 49.14C424.341 48.9267 423.974 48.74 423.534 48.58C423.107 48.4067 422.554 48.32 421.874 48.32C420.954 48.32 420.087 48.5733 419.274 49.08C418.461 49.5733 417.747 50.2533 417.134 51.12C416.521 51.9867 416.034 53.0133 415.674 54.2C415.327 55.3867 415.154 56.66 415.154 58.02C415.154 58.8467 415.247 59.6 415.434 60.28C415.621 60.9467 415.901 61.52 416.274 62C416.647 62.4667 417.101 62.8333 417.634 63.1C418.181 63.3533 418.814 63.48 419.534 63.48C420.427 63.48 421.174 63.3467 421.774 63.08C422.387 62.8133 422.901 62.5267 423.314 62.22C423.727 61.9 424.074 61.6067 424.354 61.34C424.647 61.0733 424.934 60.94 425.214 60.94C425.467 60.94 425.694 61.0533 425.894 61.28L426.774 62.36ZM439.668 48.02C438.828 48.02 438.054 48.1933 437.348 48.54C436.641 48.8867 436.014 49.3667 435.468 49.98C434.921 50.58 434.454 51.2933 434.067 52.12C433.681 52.9333 433.381 53.8133 433.168 54.76C435.221 54.5067 436.868 54.22 438.108 53.9C439.348 53.5667 440.301 53.2133 440.968 52.84C441.634 52.4533 442.074 52.04 442.288 51.6C442.501 51.16 442.608 50.7 442.608 50.22C442.608 49.98 442.554 49.7333 442.448 49.48C442.341 49.2133 442.168 48.9733 441.928 48.76C441.701 48.5467 441.401 48.3733 441.028 48.24C440.654 48.0933 440.201 48.02 439.668 48.02ZM445.308 62.26C444.628 62.9667 443.961 63.5733 443.308 64.08C442.654 64.5733 441.988 64.9867 441.308 65.32C440.641 65.6533 439.934 65.8933 439.188 66.04C438.454 66.2 437.661 66.28 436.808 66.28C435.648 66.28 434.608 66.0867 433.688 65.7C432.768 65.3133 431.988 64.7667 431.348 64.06C430.708 63.34 430.214 62.4733 429.868 61.46C429.521 60.4467 429.348 59.3133 429.348 58.06C429.348 57.02 429.454 55.9867 429.668 54.96C429.894 53.92 430.214 52.9333 430.628 52C431.054 51.0667 431.568 50.2 432.168 49.4C432.781 48.6 433.474 47.9133 434.248 47.34C435.034 46.7533 435.894 46.2933 436.828 45.96C437.774 45.6267 438.788 45.46 439.868 45.46C440.894 45.46 441.781 45.6067 442.528 45.9C443.274 46.1933 443.888 46.5667 444.368 47.02C444.848 47.4733 445.201 47.9733 445.428 48.52C445.668 49.0667 445.788 49.5867 445.788 50.08C445.788 50.96 445.608 51.7733 445.248 52.52C444.888 53.2533 444.228 53.92 443.268 54.52C442.308 55.1067 440.988 55.62 439.308 56.06C437.628 56.5 435.468 56.8533 432.828 57.12C432.828 57.2667 432.821 57.4133 432.808 57.56C432.808 57.6933 432.808 57.8333 432.808 57.98C432.808 59.7667 433.194 61.1333 433.968 62.08C434.754 63.0133 435.934 63.48 437.508 63.48C438.148 63.48 438.714 63.4133 439.207 63.28C439.714 63.1467 440.161 62.9867 440.548 62.8C440.948 62.6 441.294 62.3867 441.588 62.16C441.894 61.92 442.168 61.7067 442.408 61.52C442.661 61.32 442.894 61.1533 443.108 61.02C443.321 60.8867 443.534 60.82 443.748 60.82C444.001 60.82 444.228 60.9333 444.428 61.16L445.308 62.26ZM452.508 61.56C453.015 62.2667 453.621 62.7733 454.328 63.08C455.048 63.3733 455.768 63.52 456.488 63.52C457.181 63.52 457.835 63.3733 458.448 63.08C459.061 62.7867 459.621 62.3933 460.128 61.9C460.635 61.3933 461.081 60.8067 461.468 60.14C461.868 59.46 462.208 58.74 462.488 57.98C462.768 57.2067 462.975 56.4133 463.108 55.6C463.255 54.7733 463.328 53.96 463.328 53.16C463.328 51.5733 463.041 50.3667 462.468 49.54C461.908 48.7133 461.108 48.3 460.068 48.3C459.428 48.3 458.781 48.5 458.128 48.9C457.475 49.3 456.841 49.86 456.228 50.58C455.615 51.2867 455.041 52.1333 454.508 53.12C453.988 54.0933 453.535 55.16 453.148 56.32L452.508 61.56ZM453.808 50.88C454.315 50.0533 454.855 49.3067 455.428 48.64C456.015 47.9733 456.628 47.4067 457.268 46.94C457.908 46.46 458.575 46.0933 459.268 45.84C459.961 45.5733 460.668 45.44 461.388 45.44C463.121 45.44 464.468 46.0667 465.428 47.32C466.388 48.5733 466.868 50.4067 466.868 52.82C466.868 53.9133 466.755 55.0067 466.528 56.1C466.301 57.1933 465.975 58.24 465.548 59.24C465.135 60.2267 464.628 61.1533 464.028 62.02C463.441 62.8733 462.781 63.62 462.048 64.26C461.328 64.8867 460.541 65.38 459.688 65.74C458.835 66.1 457.941 66.28 457.008 66.28C455.928 66.28 454.955 66.0533 454.088 65.6C453.221 65.1467 452.501 64.5 451.928 63.66L451.648 64.96C451.541 65.3067 451.408 65.5667 451.248 65.74C451.088 65.9133 450.801 66 450.388 66H448.508L452.068 36.54H455.548L453.808 50.88ZM477.521 63.5C478.494 63.5 479.374 63.2333 480.161 62.7C480.961 62.1667 481.641 61.46 482.201 60.58C482.774 59.6867 483.214 58.66 483.521 57.5C483.828 56.34 483.981 55.1267 483.981 53.86C483.981 51.9933 483.608 50.5933 482.861 49.66C482.128 48.7133 481.068 48.24 479.681 48.24C478.694 48.24 477.801 48.5067 477.001 49.04C476.214 49.56 475.541 50.26 474.981 51.14C474.421 52.02 473.988 53.04 473.681 54.2C473.374 55.36 473.221 56.5733 473.221 57.84C473.221 59.7067 473.588 61.12 474.321 62.08C475.054 63.0267 476.121 63.5 477.521 63.5ZM477.181 66.28C476.074 66.28 475.061 66.0933 474.141 65.72C473.221 65.3333 472.428 64.78 471.761 64.06C471.094 63.34 470.574 62.46 470.201 61.42C469.828 60.38 469.641 59.1933 469.641 57.86C469.641 56.1533 469.908 54.5467 470.441 53.04C470.974 51.5333 471.708 50.22 472.641 49.1C473.574 47.9667 474.668 47.0733 475.921 46.42C477.188 45.7667 478.548 45.44 480.001 45.44C481.108 45.44 482.121 45.6333 483.041 46.02C483.961 46.3933 484.754 46.94 485.421 47.66C486.088 48.38 486.608 49.26 486.981 50.3C487.354 51.34 487.541 52.52 487.541 53.84C487.541 55.5333 487.274 57.1333 486.741 58.64C486.208 60.1467 485.474 61.4667 484.541 62.6C483.621 63.7333 482.528 64.6333 481.261 65.3C479.994 65.9533 478.634 66.28 477.181 66.28ZM498.263 63.5C499.236 63.5 500.116 63.2333 500.903 62.7C501.703 62.1667 502.383 61.46 502.943 60.58C503.516 59.6867 503.956 58.66 504.263 57.5C504.57 56.34 504.723 55.1267 504.723 53.86C504.723 51.9933 504.35 50.5933 503.603 49.66C502.87 48.7133 501.81 48.24 500.423 48.24C499.436 48.24 498.543 48.5067 497.743 49.04C496.956 49.56 496.283 50.26 495.723 51.14C495.163 52.02 494.73 53.04 494.423 54.2C494.116 55.36 493.963 56.5733 493.963 57.84C493.963 59.7067 494.33 61.12 495.063 62.08C495.796 63.0267 496.863 63.5 498.263 63.5ZM497.923 66.28C496.816 66.28 495.803 66.0933 494.883 65.72C493.963 65.3333 493.17 64.78 492.503 64.06C491.836 63.34 491.316 62.46 490.943 61.42C490.57 60.38 490.383 59.1933 490.383 57.86C490.383 56.1533 490.65 54.5467 491.183 53.04C491.716 51.5333 492.45 50.22 493.383 49.1C494.316 47.9667 495.41 47.0733 496.663 46.42C497.93 45.7667 499.29 45.44 500.743 45.44C501.85 45.44 502.863 45.6333 503.783 46.02C504.703 46.3933 505.496 46.94 506.163 47.66C506.83 48.38 507.35 49.26 507.723 50.3C508.096 51.34 508.283 52.52 508.283 53.84C508.283 55.5333 508.016 57.1333 507.483 58.64C506.95 60.1467 506.216 61.4667 505.283 62.6C504.363 63.7333 503.27 64.6333 502.003 65.3C500.736 65.9533 499.376 66.28 497.923 66.28ZM518.205 36.54L516.085 53.88H516.685C516.965 53.88 517.192 53.8467 517.365 53.78C517.539 53.7 517.725 53.5467 517.925 53.32L524.645 46.46C524.832 46.2333 525.032 46.06 525.245 45.94C525.459 45.8067 525.719 45.74 526.025 45.74H529.185L521.365 53.68C520.965 54.1467 520.559 54.5 520.145 54.74C520.359 54.9 520.539 55.0867 520.685 55.3C520.845 55.5 520.992 55.7333 521.125 56L527.205 66H524.145C523.852 66 523.605 65.9533 523.405 65.86C523.219 65.7533 523.065 65.5667 522.945 65.3L517.785 57C517.625 56.72 517.459 56.54 517.285 56.46C517.112 56.3667 516.839 56.32 516.465 56.32H515.785L514.605 66H511.085L514.705 36.54H518.205Z" fill="#4862C9"/>
</svg>
