<svg width="106" height="93" viewBox="0 0 106 93" fill="none" xmlns="http://www.w3.org/2000/svg">
<rect x="19" width="68" height="93" rx="15" fill="#A29AFF"/>
<path d="M34.4534 23.5525C34.2884 23.7025 34.1084 23.8425 33.9134 23.9725C33.7184 24.1075 33.5059 24.225 33.2759 24.325C33.0509 24.425 32.8034 24.5025 32.5334 24.5575C32.2684 24.6175 31.9809 24.6475 31.6709 24.6475C31.2559 24.6475 30.8734 24.59 30.5234 24.475C30.1734 24.365 29.8734 24.2025 29.6234 23.9875C29.3734 23.7775 29.1784 23.52 29.0384 23.215C28.8984 22.915 28.8284 22.575 28.8284 22.195C28.8284 21.815 28.8834 21.4925 28.9934 21.2275C29.1034 20.9625 29.2434 20.735 29.4134 20.545C29.5834 20.355 29.7684 20.195 29.9684 20.065C30.1684 19.93 30.3559 19.805 30.5309 19.69C30.7109 19.575 30.8634 19.46 30.9884 19.345C31.1184 19.225 31.1959 19.0825 31.2209 18.9175L31.3709 17.7925H32.4734L32.5859 19.03C32.6109 19.275 32.5709 19.4825 32.4659 19.6525C32.3659 19.8175 32.2309 19.965 32.0609 20.095C31.8959 20.22 31.7134 20.34 31.5134 20.455C31.3134 20.57 31.1234 20.7 30.9434 20.845C30.7684 20.985 30.6209 21.15 30.5009 21.34C30.3859 21.53 30.3284 21.7675 30.3284 22.0525C30.3284 22.2475 30.3659 22.4225 30.4409 22.5775C30.5159 22.7375 30.6184 22.8725 30.7484 22.9825C30.8834 23.0925 31.0409 23.1775 31.2209 23.2375C31.4009 23.2975 31.5959 23.3275 31.8059 23.3275C32.0959 23.3275 32.3434 23.2925 32.5484 23.2225C32.7584 23.1575 32.9359 23.0825 33.0809 22.9975C33.2259 22.9175 33.3459 22.8425 33.4409 22.7725C33.5359 22.7025 33.6184 22.6675 33.6884 22.6675C33.8384 22.6675 33.9509 22.735 34.0259 22.87L34.4534 23.5525ZM30.9134 15.28C30.9134 15.135 30.9384 15 30.9884 14.875C31.0434 14.745 31.1159 14.6325 31.2059 14.5375C31.3009 14.4425 31.4109 14.3675 31.5359 14.3125C31.6659 14.2575 31.8034 14.23 31.9484 14.23C32.0934 14.23 32.2284 14.2575 32.3534 14.3125C32.4834 14.3675 32.5959 14.4425 32.6909 14.5375C32.7859 14.6325 32.8609 14.745 32.9159 14.875C32.9709 15 32.9984 15.135 32.9984 15.28C32.9984 15.43 32.9709 15.5675 32.9159 15.6925C32.8609 15.8175 32.7859 15.9275 32.6909 16.0225C32.5959 16.1175 32.4834 16.1925 32.3534 16.2475C32.2284 16.2975 32.0934 16.3225 31.9484 16.3225C31.8034 16.3225 31.6659 16.2975 31.5359 16.2475C31.4109 16.1925 31.3009 16.1175 31.2059 16.0225C31.1159 15.9275 31.0434 15.8175 30.9884 15.6925C30.9384 15.5675 30.9134 15.43 30.9134 15.28ZM45.3049 16.6C45.3049 17.4 45.1749 18.1325 44.9149 18.7975C44.6549 19.4575 44.2874 20.025 43.8124 20.5C43.3424 20.975 42.7749 21.345 42.1099 21.61C41.4499 21.87 40.7149 22 39.9049 22H35.8249V11.2H39.9049C40.7149 11.2 41.4499 11.3325 42.1099 11.5975C42.7749 11.8575 43.3424 12.225 43.8124 12.7C44.2874 13.175 44.6549 13.745 44.9149 14.41C45.1749 15.07 45.3049 15.8 45.3049 16.6ZM43.5124 16.6C43.5124 15.98 43.4274 15.4225 43.2574 14.9275C43.0924 14.4325 42.8524 14.015 42.5374 13.675C42.2274 13.335 41.8499 13.075 41.4049 12.895C40.9599 12.71 40.4599 12.6175 39.9049 12.6175H37.5874V20.5825H39.9049C40.4599 20.5825 40.9599 20.4925 41.4049 20.3125C41.8499 20.1325 42.2274 19.8725 42.5374 19.5325C42.8524 19.1875 43.0924 18.77 43.2574 18.28C43.4274 17.785 43.5124 17.225 43.5124 16.6ZM49.841 14.23C50.406 14.23 50.916 14.3225 51.371 14.5075C51.831 14.6925 52.221 14.955 52.541 15.295C52.866 15.635 53.116 16.0475 53.291 16.5325C53.466 17.0175 53.5535 17.5625 53.5535 18.1675C53.5535 18.7725 53.466 19.3175 53.291 19.8025C53.116 20.2875 52.866 20.7025 52.541 21.0475C52.221 21.3875 51.831 21.65 51.371 21.835C50.916 22.02 50.406 22.1125 49.841 22.1125C49.271 22.1125 48.756 22.02 48.296 21.835C47.841 21.65 47.451 21.3875 47.126 21.0475C46.801 20.7025 46.551 20.2875 46.376 19.8025C46.201 19.3175 46.1135 18.7725 46.1135 18.1675C46.1135 17.5625 46.201 17.0175 46.376 16.5325C46.551 16.0475 46.801 15.635 47.126 15.295C47.451 14.955 47.841 14.6925 48.296 14.5075C48.756 14.3225 49.271 14.23 49.841 14.23ZM49.841 20.8525C50.531 20.8525 51.0435 20.6225 51.3785 20.1625C51.7185 19.6975 51.8885 19.035 51.8885 18.175C51.8885 17.315 51.7185 16.6525 51.3785 16.1875C51.0435 15.7175 50.531 15.4825 49.841 15.4825C49.141 15.4825 48.621 15.7175 48.281 16.1875C47.941 16.6525 47.771 17.315 47.771 18.175C47.771 19.035 47.941 19.6975 48.281 20.1625C48.621 20.6225 49.141 20.8525 49.841 20.8525ZM52.2485 11.08L50.441 13.0225C50.361 13.1125 50.281 13.175 50.201 13.21C50.126 13.245 50.026 13.2625 49.901 13.2625H48.941L50.0285 11.4475C50.0985 11.3225 50.1785 11.23 50.2685 11.17C50.3635 11.11 50.501 11.08 50.681 11.08H52.2485ZM56.3103 15.3625C56.4753 15.1925 56.6453 15.04 56.8203 14.905C57.0003 14.765 57.1903 14.645 57.3903 14.545C57.5903 14.445 57.8028 14.3675 58.0278 14.3125C58.2528 14.2575 58.4978 14.23 58.7628 14.23C59.1828 14.23 59.5503 14.3 59.8653 14.44C60.1853 14.58 60.4528 14.7775 60.6678 15.0325C60.8878 15.2875 61.0528 15.595 61.1628 15.955C61.2728 16.31 61.3278 16.7025 61.3278 17.1325V22H59.7228V17.1325C59.7228 16.6175 59.6028 16.2175 59.3628 15.9325C59.1278 15.6475 58.7678 15.505 58.2828 15.505C57.9228 15.505 57.5878 15.5875 57.2778 15.7525C56.9728 15.9175 56.6853 16.1425 56.4153 16.4275V22H54.8028V14.35H55.7778C55.9978 14.35 56.1378 14.4525 56.1978 14.6575L56.3103 15.3625ZM67.7935 16.2325C67.5685 15.9425 67.321 15.74 67.051 15.625C66.781 15.51 66.4885 15.4525 66.1735 15.4525C65.5435 15.4525 65.051 15.685 64.696 16.15C64.341 16.61 64.1635 17.2925 64.1635 18.1975C64.1635 18.6675 64.2035 19.07 64.2835 19.405C64.3635 19.735 64.4785 20.005 64.6285 20.215C64.7785 20.425 64.961 20.5775 65.176 20.6725C65.391 20.7675 65.6335 20.815 65.9035 20.815C66.3135 20.815 66.666 20.7275 66.961 20.5525C67.261 20.3725 67.5385 20.12 67.7935 19.795V16.2325ZM69.406 10.9V22H68.431C68.216 22 68.0785 21.8975 68.0185 21.6925L67.876 20.86C67.556 21.235 67.191 21.5375 66.781 21.7675C66.376 21.9975 65.9035 22.1125 65.3635 22.1125C64.9335 22.1125 64.5435 22.0275 64.1935 21.8575C63.8435 21.6825 63.5435 21.43 63.2935 21.1C63.0435 20.77 62.8485 20.3625 62.7085 19.8775C62.5735 19.3875 62.506 18.8275 62.506 18.1975C62.506 17.6275 62.581 17.1 62.731 16.615C62.886 16.13 63.106 15.71 63.391 15.355C63.676 14.995 64.021 14.715 64.426 14.515C64.836 14.31 65.2935 14.2075 65.7985 14.2075C66.2485 14.2075 66.631 14.28 66.946 14.425C67.261 14.565 67.5435 14.7625 67.7935 15.0175V10.9H69.406ZM76.0953 17.3125C76.0953 17.0425 76.0553 16.7925 75.9753 16.5625C75.9003 16.3275 75.7878 16.125 75.6378 15.955C75.4878 15.78 75.3003 15.645 75.0753 15.55C74.8553 15.45 74.6003 15.4 74.3103 15.4C73.7253 15.4 73.2653 15.5675 72.9303 15.9025C72.5953 16.2375 72.3828 16.7075 72.2928 17.3125H76.0953ZM72.2478 18.3025C72.2678 18.7375 72.3353 19.115 72.4503 19.435C72.5653 19.75 72.7178 20.0125 72.9078 20.2225C73.1028 20.4325 73.3328 20.59 73.5978 20.695C73.8678 20.795 74.1678 20.845 74.4978 20.845C74.8128 20.845 75.0853 20.81 75.3153 20.74C75.5453 20.665 75.7453 20.585 75.9153 20.5C76.0853 20.41 76.2303 20.33 76.3503 20.26C76.4703 20.185 76.5803 20.1475 76.6803 20.1475C76.8103 20.1475 76.9103 20.1975 76.9803 20.2975L77.4378 20.89C77.2478 21.115 77.0328 21.305 76.7928 21.46C76.5528 21.615 76.2978 21.7425 76.0278 21.8425C75.7578 21.9375 75.4803 22.005 75.1953 22.045C74.9103 22.09 74.6328 22.1125 74.3628 22.1125C73.8328 22.1125 73.3403 22.025 72.8853 21.85C72.4353 21.67 72.0428 21.4075 71.7078 21.0625C71.3778 20.7175 71.1178 20.29 70.9278 19.78C70.7428 19.27 70.6503 18.6825 70.6503 18.0175C70.6503 17.4875 70.7328 16.9925 70.8978 16.5325C71.0678 16.0725 71.3078 15.6725 71.6178 15.3325C71.9328 14.9925 72.3128 14.725 72.7578 14.53C73.2078 14.33 73.7153 14.23 74.2803 14.23C74.7503 14.23 75.1853 14.3075 75.5853 14.4625C75.9853 14.6125 76.3303 14.835 76.6203 15.13C76.9103 15.425 77.1353 15.7875 77.2953 16.2175C77.4603 16.6425 77.5428 17.1275 77.5428 17.6725C77.5428 17.9225 77.5153 18.09 77.4603 18.175C77.4053 18.26 77.3053 18.3025 77.1603 18.3025H72.2478ZM28.8577 33.85C28.8077 33.915 28.7602 33.965 28.7152 34C28.6702 34.035 28.6052 34.0525 28.5202 34.0525C28.4352 34.0525 28.3452 34.0225 28.2502 33.9625C28.1602 33.9025 28.0502 33.8375 27.9202 33.7675C27.7952 33.6925 27.6427 33.625 27.4627 33.565C27.2827 33.505 27.0577 33.475 26.7877 33.475C26.4377 33.475 26.1302 33.5375 25.8652 33.6625C25.6052 33.7875 25.3852 33.9675 25.2052 34.2025C25.0302 34.4325 24.8977 34.715 24.8077 35.05C24.7227 35.38 24.6802 35.7525 24.6802 36.1675C24.6802 36.5975 24.7277 36.98 24.8227 37.315C24.9177 37.65 25.0527 37.9325 25.2277 38.1625C25.4077 38.3925 25.6227 38.5675 25.8727 38.6875C26.1277 38.8075 26.4127 38.8675 26.7277 38.8675C27.0377 38.8675 27.2902 38.83 27.4852 38.755C27.6802 38.68 27.8427 38.5975 27.9727 38.5075C28.1027 38.4175 28.2127 38.335 28.3027 38.26C28.3977 38.185 28.4977 38.1475 28.6027 38.1475C28.7327 38.1475 28.8327 38.1975 28.9027 38.2975L29.3602 38.89C29.1752 39.115 28.9702 39.305 28.7452 39.46C28.5202 39.615 28.2827 39.7425 28.0327 39.8425C27.7827 39.9375 27.5227 40.005 27.2527 40.045C26.9827 40.09 26.7102 40.1125 26.4352 40.1125C25.9602 40.1125 25.5152 40.025 25.1002 39.85C24.6902 39.67 24.3302 39.4125 24.0202 39.0775C23.7152 38.7375 23.4727 38.325 23.2927 37.84C23.1177 37.35 23.0302 36.7925 23.0302 36.1675C23.0302 35.6025 23.1102 35.08 23.2702 34.6C23.4302 34.115 23.6627 33.6975 23.9677 33.3475C24.2777 32.9975 24.6602 32.725 25.1152 32.53C25.5702 32.33 26.0952 32.23 26.6902 32.23C27.2452 32.23 27.7327 32.32 28.1527 32.5C28.5777 32.68 28.9552 32.935 29.2852 33.265L28.8577 33.85ZM33.5329 32.23C34.0979 32.23 34.6079 32.3225 35.0629 32.5075C35.5229 32.6925 35.9129 32.955 36.2329 33.295C36.5579 33.635 36.8079 34.0475 36.9829 34.5325C37.1579 35.0175 37.2454 35.5625 37.2454 36.1675C37.2454 36.7725 37.1579 37.3175 36.9829 37.8025C36.8079 38.2875 36.5579 38.7025 36.2329 39.0475C35.9129 39.3875 35.5229 39.65 35.0629 39.835C34.6079 40.02 34.0979 40.1125 33.5329 40.1125C32.9629 40.1125 32.4479 40.02 31.9879 39.835C31.5329 39.65 31.1429 39.3875 30.8179 39.0475C30.4929 38.7025 30.2429 38.2875 30.0679 37.8025C29.8929 37.3175 29.8054 36.7725 29.8054 36.1675C29.8054 35.5625 29.8929 35.0175 30.0679 34.5325C30.2429 34.0475 30.4929 33.635 30.8179 33.295C31.1429 32.955 31.5329 32.6925 31.9879 32.5075C32.4479 32.3225 32.9629 32.23 33.5329 32.23ZM33.5329 38.8525C34.2229 38.8525 34.7354 38.6225 35.0704 38.1625C35.4104 37.6975 35.5804 37.035 35.5804 36.175C35.5804 35.315 35.4104 34.6525 35.0704 34.1875C34.7354 33.7175 34.2229 33.4825 33.5329 33.4825C32.8329 33.4825 32.3129 33.7175 31.9729 34.1875C31.6329 34.6525 31.4629 35.315 31.4629 36.175C31.4629 37.035 31.6329 37.6975 31.9729 38.1625C32.3129 38.6225 32.8329 38.8525 33.5329 38.8525ZM40.0022 33.3625C40.1672 33.1925 40.3372 33.04 40.5122 32.905C40.6922 32.765 40.8822 32.645 41.0822 32.545C41.2822 32.445 41.4947 32.3675 41.7197 32.3125C41.9447 32.2575 42.1897 32.23 42.4547 32.23C42.8747 32.23 43.2422 32.3 43.5572 32.44C43.8772 32.58 44.1447 32.7775 44.3597 33.0325C44.5797 33.2875 44.7447 33.595 44.8547 33.955C44.9647 34.31 45.0197 34.7025 45.0197 35.1325V40H43.4147V35.1325C43.4147 34.6175 43.2947 34.2175 43.0547 33.9325C42.8197 33.6475 42.4597 33.505 41.9747 33.505C41.6147 33.505 41.2797 33.5875 40.9697 33.7525C40.6647 33.9175 40.3772 34.1425 40.1072 34.4275V40H38.4947V32.35H39.4697C39.6897 32.35 39.8297 32.4525 39.8897 32.6575L40.0022 33.3625ZM51.1704 33.7375C51.1304 33.8075 51.0854 33.8575 51.0354 33.8875C50.9854 33.9175 50.9229 33.9325 50.8479 33.9325C50.7629 33.9325 50.6704 33.9075 50.5704 33.8575C50.4704 33.8025 50.3529 33.7425 50.2179 33.6775C50.0829 33.6125 49.9229 33.555 49.7379 33.505C49.5579 33.45 49.3454 33.4225 49.1004 33.4225C48.9004 33.4225 48.7179 33.4475 48.5529 33.4975C48.3929 33.5425 48.2554 33.61 48.1404 33.7C48.0304 33.785 47.9454 33.8875 47.8854 34.0075C47.8254 34.1225 47.7954 34.2475 47.7954 34.3825C47.7954 34.5625 47.8504 34.7125 47.9604 34.8325C48.0704 34.9525 48.2154 35.0575 48.3954 35.1475C48.5754 35.2325 48.7804 35.31 49.0104 35.38C49.2404 35.45 49.4754 35.525 49.7154 35.605C49.9554 35.685 50.1904 35.7775 50.4204 35.8825C50.6504 35.9875 50.8554 36.1175 51.0354 36.2725C51.2154 36.4225 51.3604 36.6075 51.4704 36.8275C51.5804 37.0425 51.6354 37.305 51.6354 37.615C51.6354 37.975 51.5704 38.3075 51.4404 38.6125C51.3104 38.9175 51.1204 39.1825 50.8704 39.4075C50.6204 39.6325 50.3079 39.8075 49.9329 39.9325C49.5629 40.0575 49.1379 40.12 48.6579 40.12C48.3929 40.12 48.1354 40.095 47.8854 40.045C47.6404 40 47.4054 39.9375 47.1804 39.8575C46.9604 39.7725 46.7529 39.6725 46.5579 39.5575C46.3679 39.4425 46.1979 39.3175 46.0479 39.1825L46.4229 38.5675C46.4679 38.4925 46.5229 38.435 46.5879 38.395C46.6579 38.35 46.7429 38.3275 46.8429 38.3275C46.9479 38.3275 47.0504 38.3625 47.1504 38.4325C47.2554 38.4975 47.3754 38.57 47.5104 38.65C47.6504 38.73 47.8179 38.805 48.0129 38.875C48.2079 38.94 48.4504 38.9725 48.7404 38.9725C48.9804 38.9725 49.1879 38.945 49.3629 38.89C49.5379 38.83 49.6829 38.75 49.7979 38.65C49.9129 38.55 49.9979 38.4375 50.0529 38.3125C50.1079 38.1825 50.1354 38.045 50.1354 37.9C50.1354 37.705 50.0804 37.545 49.9704 37.42C49.8604 37.295 49.7129 37.1875 49.5279 37.0975C49.3479 37.0075 49.1404 36.9275 48.9054 36.8575C48.6754 36.7875 48.4404 36.7125 48.2004 36.6325C47.9604 36.5525 47.7229 36.46 47.4879 36.355C47.2579 36.25 47.0504 36.1175 46.8654 35.9575C46.6854 35.7925 46.5404 35.595 46.4304 35.365C46.3204 35.13 46.2654 34.845 46.2654 34.51C46.2654 34.205 46.3254 33.915 46.4454 33.64C46.5704 33.365 46.7504 33.1225 46.9854 32.9125C47.2254 32.7025 47.5179 32.5375 47.8629 32.4175C48.2129 32.2925 48.6154 32.23 49.0704 32.23C49.5854 32.23 50.0529 32.3125 50.4729 32.4775C50.8929 32.6425 51.2454 32.8675 51.5304 33.1525L51.1704 33.7375ZM57.8683 35.3125C57.8683 35.0425 57.8283 34.7925 57.7483 34.5625C57.6733 34.3275 57.5608 34.125 57.4108 33.955C57.2608 33.78 57.0733 33.645 56.8483 33.55C56.6283 33.45 56.3733 33.4 56.0833 33.4C55.4983 33.4 55.0383 33.5675 54.7033 33.9025C54.3683 34.2375 54.1558 34.7075 54.0658 35.3125H57.8683ZM54.0208 36.3025C54.0408 36.7375 54.1083 37.115 54.2233 37.435C54.3383 37.75 54.4908 38.0125 54.6808 38.2225C54.8758 38.4325 55.1058 38.59 55.3708 38.695C55.6408 38.795 55.9408 38.845 56.2708 38.845C56.5858 38.845 56.8583 38.81 57.0883 38.74C57.3183 38.665 57.5183 38.585 57.6883 38.5C57.8583 38.41 58.0033 38.33 58.1233 38.26C58.2433 38.185 58.3533 38.1475 58.4533 38.1475C58.5833 38.1475 58.6833 38.1975 58.7533 38.2975L59.2108 38.89C59.0208 39.115 58.8058 39.305 58.5658 39.46C58.3258 39.615 58.0708 39.7425 57.8008 39.8425C57.5308 39.9375 57.2533 40.005 56.9683 40.045C56.6833 40.09 56.4058 40.1125 56.1358 40.1125C55.6058 40.1125 55.1133 40.025 54.6583 39.85C54.2083 39.67 53.8158 39.4075 53.4808 39.0625C53.1508 38.7175 52.8908 38.29 52.7008 37.78C52.5158 37.27 52.4233 36.6825 52.4233 36.0175C52.4233 35.4875 52.5058 34.9925 52.6708 34.5325C52.8408 34.0725 53.0808 33.6725 53.3908 33.3325C53.7058 32.9925 54.0858 32.725 54.5308 32.53C54.9808 32.33 55.4883 32.23 56.0533 32.23C56.5233 32.23 56.9583 32.3075 57.3583 32.4625C57.7583 32.6125 58.1033 32.835 58.3933 33.13C58.6833 33.425 58.9083 33.7875 59.0683 34.2175C59.2333 34.6425 59.3158 35.1275 59.3158 35.6725C59.3158 35.9225 59.2883 36.09 59.2333 36.175C59.1783 36.26 59.0783 36.3025 58.9333 36.3025H54.0208ZM63.2495 36.1075C63.7495 36.1075 64.1245 35.98 64.3745 35.725C64.6245 35.47 64.7495 35.1375 64.7495 34.7275C64.7495 34.3075 64.6245 33.975 64.3745 33.73C64.1245 33.485 63.7495 33.3625 63.2495 33.3625C62.7545 33.3625 62.3795 33.485 62.1245 33.73C61.8745 33.975 61.7495 34.3075 61.7495 34.7275C61.7495 34.9275 61.782 35.1125 61.847 35.2825C61.912 35.4525 62.007 35.6 62.132 35.725C62.257 35.845 62.412 35.94 62.597 36.01C62.787 36.075 63.0045 36.1075 63.2495 36.1075ZM65.492 40.375C65.492 40.205 65.442 40.07 65.342 39.97C65.247 39.865 65.117 39.785 64.952 39.73C64.787 39.67 64.5945 39.6275 64.3745 39.6025C64.1545 39.5725 63.9195 39.5525 63.6695 39.5425C63.4245 39.5275 63.172 39.515 62.912 39.505C62.657 39.49 62.4095 39.465 62.1695 39.43C61.9295 39.555 61.732 39.705 61.577 39.88C61.427 40.055 61.352 40.2575 61.352 40.4875C61.352 40.6375 61.3895 40.7775 61.4645 40.9075C61.5445 41.0375 61.6645 41.15 61.8245 41.245C61.9895 41.34 62.197 41.415 62.447 41.47C62.702 41.525 63.007 41.5525 63.362 41.5525C64.072 41.5525 64.6045 41.4425 64.9595 41.2225C65.3145 41.0025 65.492 40.72 65.492 40.375ZM67.112 32.6275V33.2275C67.112 33.4275 66.992 33.55 66.752 33.595L65.987 33.7225C66.117 34.0125 66.182 34.335 66.182 34.69C66.182 35.065 66.107 35.405 65.957 35.71C65.812 36.015 65.6095 36.275 65.3495 36.49C65.0895 36.705 64.7795 36.87 64.4195 36.985C64.0595 37.1 63.6695 37.1575 63.2495 37.1575C63.0895 37.1575 62.932 37.15 62.777 37.135C62.627 37.115 62.4795 37.09 62.3345 37.06C62.1895 37.145 62.082 37.235 62.012 37.33C61.942 37.425 61.907 37.5225 61.907 37.6225C61.907 37.7875 61.9795 37.91 62.1245 37.99C62.2695 38.07 62.4595 38.1275 62.6945 38.1625C62.9345 38.1975 63.207 38.22 63.512 38.23C63.817 38.24 64.127 38.2575 64.442 38.2825C64.757 38.3075 65.067 38.35 65.372 38.41C65.677 38.465 65.947 38.56 66.182 38.695C66.422 38.825 66.6145 39.0025 66.7595 39.2275C66.9045 39.4525 66.977 39.745 66.977 40.105C66.977 40.435 66.8945 40.7575 66.7295 41.0725C66.5645 41.3875 66.3245 41.6675 66.0095 41.9125C65.6995 42.1575 65.3195 42.3525 64.8695 42.4975C64.4195 42.6475 63.907 42.7225 63.332 42.7225C62.762 42.7225 62.2645 42.6675 61.8395 42.5575C61.4195 42.4475 61.067 42.2975 60.782 42.1075C60.502 41.9225 60.292 41.7075 60.152 41.4625C60.017 41.2175 59.9495 40.9625 59.9495 40.6975C59.9495 40.3375 60.062 40.03 60.287 39.775C60.517 39.52 60.827 39.32 61.217 39.175C61.007 39.075 60.837 38.9375 60.707 38.7625C60.582 38.5875 60.5195 38.3575 60.5195 38.0725C60.5195 37.8475 60.602 37.6125 60.767 37.3675C60.932 37.1225 61.1795 36.915 61.5095 36.745C61.1295 36.535 60.8295 36.2575 60.6095 35.9125C60.3895 35.5625 60.2795 35.155 60.2795 34.69C60.2795 34.31 60.352 33.9675 60.497 33.6625C60.647 33.3575 60.8545 33.0975 61.1195 32.8825C61.3845 32.6675 61.697 32.5025 62.057 32.3875C62.422 32.2725 62.8195 32.215 63.2495 32.215C63.9095 32.215 64.4845 32.3525 64.9745 32.6275H67.112ZM74.5357 32.35V40H73.5607C73.3457 40 73.2082 39.8975 73.1482 39.6925L73.0282 38.98C72.8682 39.15 72.6982 39.305 72.5182 39.445C72.3432 39.585 72.1557 39.705 71.9557 39.805C71.7557 39.905 71.5407 39.9825 71.3107 40.0375C71.0857 40.0925 70.8432 40.12 70.5832 40.12C70.1632 40.12 69.7932 40.05 69.4732 39.91C69.1532 39.77 68.8832 39.5725 68.6632 39.3175C68.4482 39.0625 68.2857 38.7575 68.1757 38.4025C68.0657 38.0425 68.0107 37.6475 68.0107 37.2175V32.35H69.6232V37.2175C69.6232 37.7325 69.7407 38.1325 69.9757 38.4175C70.2157 38.7025 70.5782 38.845 71.0632 38.845C71.4182 38.845 71.7482 38.765 72.0532 38.605C72.3632 38.44 72.6532 38.215 72.9232 37.93V32.35H74.5357ZM77.8739 32.35V40H76.2614V32.35H77.8739ZM78.1439 30.04C78.1439 30.185 78.1139 30.3225 78.0539 30.4525C77.9989 30.5825 77.9214 30.6975 77.8214 30.7975C77.7214 30.8925 77.6039 30.97 77.4689 31.03C77.3389 31.085 77.1989 31.1125 77.0489 31.1125C76.9039 31.1125 76.7664 31.085 76.6364 31.03C76.5114 30.97 76.4014 30.8925 76.3064 30.7975C76.2114 30.6975 76.1339 30.5825 76.0739 30.4525C76.0189 30.3225 75.9914 30.185 75.9914 30.04C75.9914 29.89 76.0189 29.75 76.0739 29.62C76.1339 29.49 76.2114 29.3775 76.3064 29.2825C76.4014 29.1825 76.5114 29.105 76.6364 29.05C76.7664 28.99 76.9039 28.96 77.0489 28.96C77.1989 28.96 77.3389 28.99 77.4689 29.05C77.6039 29.105 77.7214 29.1825 77.8214 29.2825C77.9214 29.3775 77.9989 29.49 78.0539 29.62C78.1139 29.75 78.1439 29.89 78.1439 30.04ZM81.1225 33.7675C81.3625 33.2825 81.6525 32.9025 81.9925 32.6275C82.3325 32.3475 82.74 32.2075 83.215 32.2075C83.38 32.2075 83.535 32.2275 83.68 32.2675C83.825 32.3025 83.955 32.3575 84.07 32.4325L83.9575 33.6475C83.9375 33.7325 83.905 33.7925 83.86 33.8275C83.82 33.8575 83.765 33.8725 83.695 33.8725C83.62 33.8725 83.5125 33.86 83.3725 33.835C83.2325 33.805 83.085 33.79 82.93 33.79C82.705 33.79 82.505 33.8225 82.33 33.8875C82.16 33.9525 82.005 34.0475 81.865 34.1725C81.73 34.2975 81.61 34.45 81.505 34.63C81.4 34.81 81.3025 35.015 81.2125 35.245V40H79.6V32.35H80.5375C80.7075 32.35 80.825 32.3825 80.89 32.4475C80.955 32.5075 81 32.615 81.025 32.77L81.1225 33.7675ZM35.7927 54.655C35.2177 54.675 34.7327 54.7225 34.3377 54.7975C33.9427 54.8675 33.6227 54.96 33.3777 55.075C33.1327 55.185 32.9552 55.3175 32.8452 55.4725C32.7402 55.6275 32.6877 55.7975 32.6877 55.9825C32.6877 56.1625 32.7152 56.3175 32.7702 56.4475C32.8302 56.5725 32.9102 56.6775 33.0102 56.7625C33.1152 56.8425 33.2352 56.9025 33.3702 56.9425C33.5102 56.9775 33.6627 56.995 33.8277 56.995C34.2477 56.995 34.6077 56.9175 34.9077 56.7625C35.2127 56.6025 35.5077 56.3725 35.7927 56.0725V54.655ZM31.5177 51.415C32.3827 50.61 33.4127 50.2075 34.6077 50.2075C35.0477 50.2075 35.4377 50.28 35.7777 50.425C36.1227 50.565 36.4102 50.765 36.6402 51.025C36.8752 51.285 37.0527 51.595 37.1727 51.955C37.2977 52.31 37.3602 52.705 37.3602 53.14V58H36.6402C36.4852 58 36.3677 57.9775 36.2877 57.9325C36.2077 57.8825 36.1402 57.785 36.0852 57.64L35.9277 57.0175C35.7327 57.1925 35.5402 57.35 35.3502 57.49C35.1602 57.625 34.9627 57.74 34.7577 57.835C34.5577 57.93 34.3402 58 34.1052 58.045C33.8752 58.095 33.6202 58.12 33.3402 58.12C33.0302 58.12 32.7402 58.0775 32.4702 57.9925C32.2052 57.9075 31.9752 57.78 31.7802 57.61C31.5852 57.435 31.4302 57.22 31.3152 56.965C31.2052 56.71 31.1502 56.41 31.1502 56.065C31.1502 55.77 31.2277 55.4825 31.3827 55.2025C31.5427 54.9225 31.8027 54.6725 32.1627 54.4525C32.5277 54.2275 33.0052 54.0425 33.5952 53.8975C34.1902 53.7525 34.9227 53.67 35.7927 53.65V53.14C35.7927 52.59 35.6752 52.18 35.4402 51.91C35.2052 51.64 34.8602 51.505 34.4052 51.505C34.0952 51.505 33.8352 51.545 33.6252 51.625C33.4152 51.7 33.2327 51.7825 33.0777 51.8725C32.9227 51.9625 32.7852 52.0475 32.6652 52.1275C32.5452 52.2025 32.4177 52.24 32.2827 52.24C32.1727 52.24 32.0777 52.2125 31.9977 52.1575C31.9227 52.0975 31.8602 52.025 31.8102 51.94L31.5177 51.415ZM45.5315 50.35L41.3165 60.175C41.2615 60.29 41.194 60.38 41.114 60.445C41.039 60.51 40.9215 60.5425 40.7615 60.5425H39.569L40.979 57.4825L37.859 50.35H39.2615C39.3965 50.35 39.499 50.3825 39.569 50.4475C39.644 50.5075 39.699 50.58 39.734 50.665L41.5565 55.0075C41.6015 55.1325 41.6415 55.2575 41.6765 55.3825C41.7165 55.5025 41.754 55.6275 41.789 55.7575C41.829 55.6275 41.869 55.5 41.909 55.375C41.949 55.25 41.994 55.125 42.044 55L43.7915 50.665C43.8265 50.575 43.884 50.5 43.964 50.44C44.049 50.38 44.1415 50.35 44.2415 50.35H45.5315ZM52.7309 50.35V58H51.7559C51.5409 58 51.4034 57.8975 51.3434 57.6925L51.2234 56.98C51.0634 57.15 50.8934 57.305 50.7134 57.445C50.5384 57.585 50.3509 57.705 50.1509 57.805C49.9509 57.905 49.7359 57.9825 49.5059 58.0375C49.2809 58.0925 49.0384 58.12 48.7784 58.12C48.3584 58.12 47.9884 58.05 47.6684 57.91C47.3484 57.77 47.0784 57.5725 46.8584 57.3175C46.6434 57.0625 46.4809 56.7575 46.3709 56.4025C46.2609 56.0425 46.2059 55.6475 46.2059 55.2175V50.35H47.8184V55.2175C47.8184 55.7325 47.9359 56.1325 48.1709 56.4175C48.4109 56.7025 48.7734 56.845 49.2584 56.845C49.6134 56.845 49.9434 56.765 50.2484 56.605C50.5584 56.44 50.8484 56.215 51.1184 55.93V50.35H52.7309ZM59.2716 52.2325C59.0466 51.9425 58.7991 51.74 58.5291 51.625C58.2591 51.51 57.9666 51.4525 57.6516 51.4525C57.0216 51.4525 56.5291 51.685 56.1741 52.15C55.8191 52.61 55.6416 53.2925 55.6416 54.1975C55.6416 54.6675 55.6816 55.07 55.7616 55.405C55.8416 55.735 55.9566 56.005 56.1066 56.215C56.2566 56.425 56.4391 56.5775 56.6541 56.6725C56.8691 56.7675 57.1116 56.815 57.3816 56.815C57.7916 56.815 58.1441 56.7275 58.4391 56.5525C58.7391 56.3725 59.0166 56.12 59.2716 55.795V52.2325ZM60.8841 46.9V58H59.9091C59.6941 58 59.5566 57.8975 59.4966 57.6925L59.3541 56.86C59.0341 57.235 58.6691 57.5375 58.2591 57.7675C57.8541 57.9975 57.3816 58.1125 56.8416 58.1125C56.4116 58.1125 56.0216 58.0275 55.6716 57.8575C55.3216 57.6825 55.0216 57.43 54.7716 57.1C54.5216 56.77 54.3266 56.3625 54.1866 55.8775C54.0516 55.3875 53.9841 54.8275 53.9841 54.1975C53.9841 53.6275 54.0591 53.1 54.2091 52.615C54.3641 52.13 54.5841 51.71 54.8691 51.355C55.1541 50.995 55.4991 50.715 55.9041 50.515C56.3141 50.31 56.7716 50.2075 57.2766 50.2075C57.7266 50.2075 58.1091 50.28 58.4241 50.425C58.7391 50.565 59.0216 50.7625 59.2716 51.0175V46.9H60.8841ZM66.6434 54.655C66.0684 54.675 65.5834 54.7225 65.1884 54.7975C64.7934 54.8675 64.4734 54.96 64.2284 55.075C63.9834 55.185 63.8059 55.3175 63.6959 55.4725C63.5909 55.6275 63.5384 55.7975 63.5384 55.9825C63.5384 56.1625 63.5659 56.3175 63.6209 56.4475C63.6809 56.5725 63.7609 56.6775 63.8609 56.7625C63.9659 56.8425 64.0859 56.9025 64.2209 56.9425C64.3609 56.9775 64.5134 56.995 64.6784 56.995C65.0984 56.995 65.4584 56.9175 65.7584 56.7625C66.0634 56.6025 66.3584 56.3725 66.6434 56.0725V54.655ZM62.3684 51.415C63.2334 50.61 64.2634 50.2075 65.4584 50.2075C65.8984 50.2075 66.2884 50.28 66.6284 50.425C66.9734 50.565 67.2609 50.765 67.4909 51.025C67.7259 51.285 67.9034 51.595 68.0234 51.955C68.1484 52.31 68.2109 52.705 68.2109 53.14V58H67.4909C67.3359 58 67.2184 57.9775 67.1384 57.9325C67.0584 57.8825 66.9909 57.785 66.9359 57.64L66.7784 57.0175C66.5834 57.1925 66.3909 57.35 66.2009 57.49C66.0109 57.625 65.8134 57.74 65.6084 57.835C65.4084 57.93 65.1909 58 64.9559 58.045C64.7259 58.095 64.4709 58.12 64.1909 58.12C63.8809 58.12 63.5909 58.0775 63.3209 57.9925C63.0559 57.9075 62.8259 57.78 62.6309 57.61C62.4359 57.435 62.2809 57.22 62.1659 56.965C62.0559 56.71 62.0009 56.41 62.0009 56.065C62.0009 55.77 62.0784 55.4825 62.2334 55.2025C62.3934 54.9225 62.6534 54.6725 63.0134 54.4525C63.3784 54.2275 63.8559 54.0425 64.4459 53.8975C65.0409 53.7525 65.7734 53.67 66.6434 53.65V53.14C66.6434 52.59 66.5259 52.18 66.2909 51.91C66.0559 51.64 65.7109 51.505 65.2559 51.505C64.9459 51.505 64.6859 51.545 64.4759 51.625C64.2659 51.7 64.0834 51.7825 63.9284 51.8725C63.7734 51.9625 63.6359 52.0475 63.5159 52.1275C63.3959 52.2025 63.2684 52.24 63.1334 52.24C63.0234 52.24 62.9284 52.2125 62.8484 52.1575C62.7734 52.0975 62.7109 52.025 62.6609 51.94L62.3684 51.415ZM69.0358 48.1675C69.2008 48.0175 69.3808 47.8775 69.5758 47.7475C69.7708 47.6175 69.9808 47.5025 70.2058 47.4025C70.4358 47.3025 70.6833 47.225 70.9483 47.17C71.2183 47.11 71.5083 47.08 71.8183 47.08C72.2333 47.08 72.6133 47.14 72.9583 47.26C73.3083 47.375 73.6083 47.5425 73.8583 47.7625C74.1133 47.9775 74.3108 48.24 74.4508 48.55C74.5908 48.855 74.6608 49.1975 74.6608 49.5775C74.6608 49.9575 74.6058 50.2875 74.4958 50.5675C74.3858 50.8425 74.2458 51.0825 74.0758 51.2875C73.9058 51.4925 73.7208 51.6725 73.5208 51.8275C73.3208 51.9775 73.1308 52.12 72.9508 52.255C72.7758 52.385 72.6233 52.5175 72.4933 52.6525C72.3683 52.7825 72.2933 52.9275 72.2683 53.0875L72.1108 54.2125H71.0158L70.9033 52.975C70.8783 52.74 70.9158 52.5375 71.0158 52.3675C71.1158 52.1975 71.2483 52.0375 71.4133 51.8875C71.5833 51.7375 71.7683 51.595 71.9683 51.46C72.1733 51.32 72.3633 51.165 72.5383 50.995C72.7133 50.825 72.8608 50.635 72.9808 50.425C73.1008 50.215 73.1608 49.9625 73.1608 49.6675C73.1608 49.4725 73.1233 49.2975 73.0483 49.1425C72.9733 48.9825 72.8683 48.8475 72.7333 48.7375C72.5983 48.6275 72.4408 48.5425 72.2608 48.4825C72.0808 48.4225 71.8858 48.3925 71.6758 48.3925C71.3808 48.3925 71.1308 48.4275 70.9258 48.4975C70.7208 48.5675 70.5458 48.645 70.4008 48.73C70.2558 48.81 70.1358 48.885 70.0408 48.955C69.9458 49.02 69.8658 49.0525 69.8008 49.0525C69.6458 49.0525 69.5308 48.985 69.4558 48.85L69.0358 48.1675ZM70.4758 57.07C70.4758 56.925 70.5008 56.79 70.5508 56.665C70.6058 56.535 70.6783 56.4225 70.7683 56.3275C70.8633 56.2325 70.9733 56.1575 71.0983 56.1025C71.2283 56.0475 71.3658 56.02 71.5108 56.02C71.6558 56.02 71.7908 56.0475 71.9158 56.1025C72.0458 56.1575 72.1583 56.2325 72.2533 56.3275C72.3483 56.4225 72.4233 56.535 72.4783 56.665C72.5333 56.79 72.5608 56.925 72.5608 57.07C72.5608 57.22 72.5333 57.3575 72.4783 57.4825C72.4233 57.6075 72.3483 57.7175 72.2533 57.8125C72.1583 57.9075 72.0458 57.98 71.9158 58.03C71.7908 58.085 71.6558 58.1125 71.5108 58.1125C71.3658 58.1125 71.2283 58.085 71.0983 58.03C70.9733 57.98 70.8633 57.9075 70.7683 57.8125C70.6783 57.7175 70.6058 57.6075 70.5508 57.4825C70.5008 57.3575 70.4758 57.22 70.4758 57.07Z" fill="white"/>
<path d="M51.9393 89.0607C52.5251 89.6464 53.4749 89.6464 54.0607 89.0607L63.6066 79.5147C64.1924 78.9289 64.1924 77.9792 63.6066 77.3934C63.0208 76.8076 62.0711 76.8076 61.4853 77.3934L53 85.8787L44.5147 77.3934C43.9289 76.8076 42.9792 76.8076 42.3934 77.3934C41.8076 77.9792 41.8076 78.9289 42.3934 79.5147L51.9393 89.0607ZM51.5 66V88H54.5V66H51.5Z" fill="white"/>
</svg>
