<svg width="608" height="102" viewBox="0 0 608 102" fill="none" xmlns="http://www.w3.org/2000/svg">
<mask id="mask0_42_774" style="mask-type:luminance" maskUnits="userSpaceOnUse" x="0" y="0" width="608" height="102">
<path d="M0 0H608V102H0V0Z" fill="white"/>
</mask>
<g mask="url(#mask0_42_774)">
<path d="M598.751 95.8763C595.242 93.5809 592.786 90.8509 590.81 87.9183C590.972 87.1825 591.079 86.4361 591.079 85.6683V15.5319C591.079 6.95551 580.749 0 568.007 0H23.072C10.3299 0 2.66265e-06 6.95551 2.66265e-06 15.5319V85.6683C2.66265e-06 94.2474 10.3299 101.198 23.072 101.198H568.007C572.027 101.198 575.81 100.502 579.102 99.286C582.9 100.683 587.142 101.533 591.455 101.736C596.248 101.968 601.278 101.493 606.016 101.011C606.681 100.944 607.339 100.87 608 100.795C604.918 99.1661 601.564 97.7184 598.751 95.8763Z" fill="#FFDA76" fill-opacity="0.3"/>
<path d="M604.523 100.156C600.207 100.583 595.753 100.943 591.504 100.737L591.502 100.737C587.286 100.539 583.145 99.7077 579.447 98.3475L579.101 98.2203L578.755 98.348C575.579 99.5211 571.914 100.198 568.007 100.198H23.072C16.8727 100.198 11.3051 98.5051 7.31604 95.8204C3.32092 93.1317 1 89.5239 1 85.6683V15.5319C1 11.6776 3.32092 8.0691 7.31622 5.37934C11.3053 2.69373 16.8729 1 23.072 1H568.007C574.206 1 579.774 2.69373 583.763 5.37934C587.758 8.0691 590.079 11.6776 590.079 15.5319V85.6683C590.079 86.3434 589.985 87.0148 589.833 87.7028L589.741 88.1216L589.981 88.4772C592.015 91.4958 594.561 94.3302 598.204 96.7131M604.523 100.156L598.204 96.7131M604.523 100.156C602.364 99.0862 600.14 97.9811 598.204 96.7131M604.523 100.156L598.204 96.7131" stroke="#FF8847" stroke-opacity="0.9" stroke-width="2"/>
</g>
<path d="M87.5944 40.4L86.4144 50.06H96.5544L96.1744 53H86.0544L84.8344 62.96H97.4144L97.0344 66H80.6944L84.2144 37.34H100.534L100.154 40.4H87.5944ZM101.382 66L104.962 36.54H108.462L104.882 66H101.382ZM136.501 62.74C136.874 62.74 137.154 62.8533 137.341 63.08C137.541 63.2933 137.614 63.5733 137.561 63.92L137.321 66H119.641L119.781 64.82C119.808 64.58 119.888 64.3267 120.021 64.06C120.154 63.7933 120.348 63.5533 120.601 63.34L130.121 54.08C131.014 53.2 131.821 52.3733 132.541 51.6C133.261 50.8133 133.868 50.0333 134.361 49.26C134.854 48.4733 135.234 47.68 135.501 46.88C135.768 46.0667 135.901 45.1867 135.901 44.24C135.901 43.5333 135.794 42.92 135.581 42.4C135.381 41.8667 135.101 41.4267 134.741 41.08C134.381 40.72 133.954 40.4533 133.461 40.28C132.968 40.0933 132.428 40 131.841 40C131.188 40 130.574 40.1067 130.001 40.32C129.428 40.5333 128.901 40.8333 128.421 41.22C127.954 41.6067 127.541 42.0667 127.181 42.6C126.821 43.1333 126.541 43.72 126.341 44.36C126.141 44.8133 125.901 45.12 125.621 45.28C125.341 45.4267 124.968 45.46 124.501 45.38L122.741 45.08C123.074 43.7733 123.548 42.62 124.161 41.62C124.788 40.62 125.521 39.78 126.361 39.1C127.201 38.42 128.128 37.9067 129.141 37.56C130.168 37.2133 131.254 37.04 132.401 37.04C133.441 37.04 134.388 37.2 135.241 37.52C136.108 37.8267 136.854 38.28 137.481 38.88C138.108 39.4667 138.594 40.1867 138.941 41.04C139.288 41.88 139.461 42.84 139.461 43.92C139.461 45.1467 139.274 46.2667 138.901 47.28C138.541 48.2933 138.048 49.2533 137.421 50.16C136.808 51.0533 136.088 51.9267 135.261 52.78C134.448 53.62 133.581 54.4867 132.661 55.38L124.641 63.24C125.201 63.0933 125.761 62.9733 126.321 62.88C126.881 62.7867 127.414 62.74 127.921 62.74H136.501ZM163.344 48.54C163.344 51.54 163.031 54.1533 162.404 56.38C161.777 58.6067 160.931 60.46 159.864 61.94C158.811 63.4067 157.577 64.5 156.164 65.22C154.751 65.94 153.264 66.3 151.704 66.3C150.531 66.3 149.451 66.06 148.464 65.58C147.491 65.1 146.644 64.3867 145.924 63.44C145.217 62.48 144.664 61.2867 144.264 59.86C143.877 58.42 143.684 56.74 143.684 54.82C143.684 51.82 143.991 49.2067 144.604 46.98C145.231 44.7533 146.071 42.9067 147.124 41.44C148.191 39.96 149.424 38.86 150.824 38.14C152.237 37.4067 153.731 37.04 155.304 37.04C156.464 37.04 157.537 37.28 158.524 37.76C159.511 38.24 160.357 38.96 161.064 39.92C161.784 40.8667 162.344 42.06 162.744 43.5C163.144 44.94 163.344 46.62 163.344 48.54ZM159.804 48.36C159.804 46.8533 159.677 45.5667 159.424 44.5C159.171 43.4333 158.824 42.5667 158.384 41.9C157.944 41.22 157.424 40.7267 156.824 40.42C156.237 40.1 155.611 39.94 154.944 39.94C153.971 39.94 153.017 40.2133 152.084 40.76C151.164 41.2933 150.344 42.16 149.624 43.36C148.904 44.5467 148.324 46.1 147.884 48.02C147.444 49.9267 147.224 52.26 147.224 55.02C147.224 56.5267 147.351 57.8133 147.604 58.88C147.857 59.9467 148.197 60.8133 148.624 61.48C149.064 62.1467 149.577 62.6333 150.164 62.94C150.751 63.2467 151.377 63.4 152.044 63.4C153.017 63.4 153.971 63.14 154.904 62.62C155.837 62.0867 156.664 61.2267 157.384 60.04C158.117 58.84 158.704 57.2867 159.144 55.38C159.584 53.46 159.804 51.12 159.804 48.36ZM183.507 63.38L183.167 66H168.947L169.287 63.38H174.907L177.347 43.56C177.374 43.2933 177.407 43.02 177.447 42.74C177.501 42.46 177.554 42.1733 177.607 41.88L172.487 46.28C172.301 46.4133 172.121 46.5 171.947 46.54C171.774 46.58 171.614 46.5867 171.467 46.56C171.334 46.52 171.214 46.4667 171.107 46.4C171.001 46.32 170.921 46.24 170.867 46.16L169.987 44.66L178.747 37.28H181.567L178.367 63.38H183.507ZM206.71 63.38L206.37 66H192.15L192.49 63.38H198.11L200.55 43.56C200.577 43.2933 200.61 43.02 200.65 42.74C200.704 42.46 200.757 42.1733 200.81 41.88L195.69 46.28C195.504 46.4133 195.324 46.5 195.15 46.54C194.977 46.58 194.817 46.5867 194.67 46.56C194.537 46.52 194.417 46.4667 194.31 46.4C194.204 46.32 194.124 46.24 194.07 46.16L193.19 44.66L201.95 37.28H204.77L201.57 63.38H206.71ZM234.888 48.98C234.782 49.14 234.675 49.26 234.568 49.34C234.462 49.4067 234.328 49.44 234.168 49.44C233.982 49.44 233.775 49.3667 233.548 49.22C233.335 49.0733 233.068 48.9133 232.748 48.74C232.442 48.5533 232.062 48.3867 231.608 48.24C231.155 48.08 230.608 48 229.968 48C229.368 48 228.822 48.0867 228.328 48.26C227.835 48.42 227.408 48.6467 227.048 48.94C226.702 49.2333 226.428 49.58 226.228 49.98C226.042 50.3667 225.948 50.78 225.948 51.22C225.948 51.8467 226.155 52.3467 226.568 52.72C226.982 53.0933 227.502 53.42 228.128 53.7C228.755 53.9667 229.428 54.2267 230.148 54.48C230.868 54.7333 231.542 55.0533 232.168 55.44C232.795 55.8267 233.315 56.32 233.728 56.92C234.142 57.52 234.348 58.3 234.348 59.26C234.348 60.1933 234.162 61.0867 233.788 61.94C233.428 62.7933 232.902 63.5467 232.208 64.2C231.528 64.84 230.702 65.3533 229.728 65.74C228.768 66.1267 227.688 66.32 226.488 66.32C225.195 66.32 224.048 66.0933 223.048 65.64C222.062 65.1733 221.255 64.58 220.628 63.86L221.508 62.5C221.628 62.3267 221.755 62.1933 221.888 62.1C222.035 62.0067 222.222 61.96 222.448 61.96C222.662 61.96 222.875 62.0533 223.088 62.24C223.302 62.4267 223.568 62.64 223.888 62.88C224.208 63.1067 224.608 63.3133 225.088 63.5C225.582 63.6867 226.202 63.78 226.948 63.78C227.602 63.78 228.188 63.68 228.708 63.48C229.242 63.28 229.688 63.0133 230.048 62.68C230.422 62.3467 230.702 61.96 230.888 61.52C231.088 61.0667 231.188 60.5867 231.188 60.08C231.188 59.4 230.982 58.86 230.568 58.46C230.155 58.06 229.635 57.7267 229.008 57.46C228.382 57.1933 227.708 56.9467 226.988 56.72C226.268 56.48 225.595 56.18 224.968 55.82C224.342 55.4467 223.822 54.9667 223.408 54.38C222.995 53.7933 222.788 53.0133 222.788 52.04C222.788 51.1867 222.955 50.3667 223.288 49.58C223.635 48.78 224.128 48.0733 224.768 47.46C225.408 46.8467 226.182 46.36 227.088 46C228.008 45.6267 229.042 45.44 230.188 45.44C231.402 45.44 232.468 45.6467 233.388 46.06C234.322 46.46 235.122 47.0067 235.788 47.7L234.888 48.98ZM248.144 48.02C247.304 48.02 246.531 48.1933 245.824 48.54C245.117 48.8867 244.491 49.3667 243.944 49.98C243.397 50.58 242.931 51.2933 242.544 52.12C242.157 52.9333 241.857 53.8133 241.644 54.76C243.697 54.5067 245.344 54.22 246.584 53.9C247.824 53.5667 248.777 53.2133 249.444 52.84C250.111 52.4533 250.551 52.04 250.764 51.6C250.977 51.16 251.084 50.7 251.084 50.22C251.084 49.98 251.031 49.7333 250.924 49.48C250.817 49.2133 250.644 48.9733 250.404 48.76C250.177 48.5467 249.877 48.3733 249.504 48.24C249.131 48.0933 248.677 48.02 248.144 48.02ZM253.784 62.26C253.104 62.9667 252.437 63.5733 251.784 64.08C251.131 64.5733 250.464 64.9867 249.784 65.32C249.117 65.6533 248.411 65.8933 247.664 66.04C246.931 66.2 246.137 66.28 245.284 66.28C244.124 66.28 243.084 66.0867 242.164 65.7C241.244 65.3133 240.464 64.7667 239.824 64.06C239.184 63.34 238.691 62.4733 238.344 61.46C237.997 60.4467 237.824 59.3133 237.824 58.06C237.824 57.02 237.931 55.9867 238.144 54.96C238.371 53.92 238.691 52.9333 239.104 52C239.531 51.0667 240.044 50.2 240.644 49.4C241.257 48.6 241.951 47.9133 242.724 47.34C243.511 46.7533 244.371 46.2933 245.304 45.96C246.251 45.6267 247.264 45.46 248.344 45.46C249.371 45.46 250.257 45.6067 251.004 45.9C251.751 46.1933 252.364 46.5667 252.844 47.02C253.324 47.4733 253.677 47.9733 253.904 48.52C254.144 49.0667 254.264 49.5867 254.264 50.08C254.264 50.96 254.084 51.7733 253.724 52.52C253.364 53.2533 252.704 53.92 251.744 54.52C250.784 55.1067 249.464 55.62 247.784 56.06C246.104 56.5 243.944 56.8533 241.304 57.12C241.304 57.2667 241.297 57.4133 241.284 57.56C241.284 57.6933 241.284 57.8333 241.284 57.98C241.284 59.7667 241.671 61.1333 242.444 62.08C243.231 63.0133 244.411 63.48 245.984 63.48C246.624 63.48 247.191 63.4133 247.684 63.28C248.191 63.1467 248.637 62.9867 249.024 62.8C249.424 62.6 249.771 62.3867 250.064 62.16C250.371 61.92 250.644 61.7067 250.884 61.52C251.137 61.32 251.371 61.1533 251.584 61.02C251.797 60.8867 252.011 60.82 252.224 60.82C252.477 60.82 252.704 60.9333 252.904 61.16L253.784 62.26ZM273.08 48.7L271.06 65.34L270.12 69.48C269.973 69.96 269.753 70.3267 269.46 70.58C269.18 70.8467 268.786 70.98 268.28 70.98H266.9L269.58 48.76L267.58 48.5C267.34 48.4333 267.146 48.3333 267 48.2C266.866 48.0667 266.813 47.86 266.84 47.58L267.02 46.14H269.9L270.14 44.18C270.286 43.02 270.573 41.9933 271 41.1C271.44 40.1933 271.986 39.4333 272.64 38.82C273.306 38.1933 274.06 37.72 274.9 37.4C275.753 37.08 276.673 36.92 277.66 36.92C278.473 36.92 279.226 37.0533 279.92 37.32L279.58 39.16C279.526 39.4267 279.346 39.56 279.04 39.56C278.733 39.56 278.346 39.56 277.88 39.56C277.306 39.56 276.773 39.6467 276.28 39.82C275.8 39.98 275.373 40.2467 275 40.62C274.626 40.9933 274.306 41.48 274.04 42.08C273.786 42.68 273.606 43.4133 273.5 44.28L273.28 46.14H278.34L278 48.7H273.08ZM297.492 45.74L295.052 66H293.292C292.426 66 291.992 65.5733 291.992 64.72L292.292 61.02C291.226 62.7533 290.019 64.0667 288.672 64.96C287.339 65.84 285.966 66.28 284.552 66.28C283.699 66.28 282.946 66.1133 282.292 65.78C281.639 65.4333 281.106 64.9333 280.692 64.28C280.292 63.6267 280.019 62.8267 279.872 61.88C279.726 60.9333 279.732 59.8467 279.892 58.62L281.412 45.74H284.952L283.432 58.62C283.246 60.2067 283.339 61.3867 283.712 62.16C284.099 62.9333 284.819 63.32 285.872 63.32C286.486 63.32 287.119 63.1533 287.772 62.82C288.426 62.4867 289.052 62.0133 289.652 61.4C290.252 60.7867 290.812 60.0467 291.332 59.18C291.866 58.3 292.319 57.3267 292.692 56.26L293.952 45.74H297.492ZM305.444 50.86C306.524 49.0733 307.744 47.7267 309.104 46.82C310.464 45.9 311.864 45.44 313.304 45.44C314.157 45.44 314.904 45.6133 315.544 45.96C316.197 46.2933 316.724 46.7867 317.124 47.44C317.537 48.0933 317.817 48.9 317.964 49.86C318.111 50.8067 318.111 51.8867 317.964 53.1L316.444 66H312.904L314.424 53.1C314.611 51.5 314.511 50.32 314.124 49.56C313.737 48.7867 313.024 48.4 311.984 48.4C311.344 48.4 310.691 48.5733 310.024 48.92C309.371 49.2667 308.737 49.76 308.124 50.4C307.511 51.04 306.937 51.8133 306.404 52.72C305.884 53.6133 305.437 54.6133 305.064 55.72L303.904 66H300.344L302.784 45.72H304.544C305.344 45.72 305.744 46.12 305.744 46.92L305.444 50.86ZM335.855 50.16C335.348 49.44 334.735 48.94 334.015 48.66C333.308 48.3667 332.588 48.22 331.855 48.22C330.802 48.22 329.855 48.5333 329.015 49.16C328.175 49.7867 327.455 50.6 326.855 51.6C326.268 52.5867 325.815 53.6933 325.495 54.92C325.175 56.1467 325.015 57.3533 325.015 58.54C325.015 60.1267 325.295 61.34 325.855 62.18C326.428 63.0067 327.242 63.42 328.295 63.42C328.935 63.42 329.582 63.22 330.235 62.82C330.888 62.42 331.515 61.8667 332.115 61.16C332.728 60.44 333.295 59.5933 333.815 58.62C334.348 57.6467 334.808 56.58 335.195 55.42L335.855 50.16ZM341.015 36.54L337.395 66H335.535C335.068 66 334.755 65.88 334.595 65.64C334.435 65.4 334.355 65.1067 334.355 64.76L334.735 60.5C334.228 61.38 333.675 62.1733 333.075 62.88C332.475 63.5867 331.842 64.1933 331.175 64.7C330.522 65.2067 329.835 65.6 329.115 65.88C328.408 66.1467 327.688 66.28 326.955 66.28C325.222 66.28 323.875 65.6533 322.915 64.4C321.955 63.1333 321.475 61.3 321.475 58.9C321.475 57.8067 321.588 56.7133 321.815 55.62C322.042 54.5267 322.362 53.48 322.775 52.48C323.202 51.48 323.708 50.5533 324.295 49.7C324.895 48.8333 325.562 48.0867 326.295 47.46C327.028 46.8333 327.815 46.34 328.655 45.98C329.508 45.62 330.402 45.44 331.335 45.44C332.335 45.44 333.242 45.64 334.055 46.04C334.882 46.4267 335.582 46.98 336.155 47.7L337.535 36.54H341.015ZM350.607 63.5C351.58 63.5 352.46 63.2333 353.247 62.7C354.047 62.1667 354.727 61.46 355.287 60.58C355.86 59.6867 356.3 58.66 356.607 57.5C356.914 56.34 357.067 55.1267 357.067 53.86C357.067 51.9933 356.694 50.5933 355.947 49.66C355.214 48.7133 354.154 48.24 352.767 48.24C351.78 48.24 350.887 48.5067 350.087 49.04C349.3 49.56 348.627 50.26 348.067 51.14C347.507 52.02 347.074 53.04 346.767 54.2C346.46 55.36 346.307 56.5733 346.307 57.84C346.307 59.7067 346.674 61.12 347.407 62.08C348.14 63.0267 349.207 63.5 350.607 63.5ZM350.267 66.28C349.16 66.28 348.147 66.0933 347.227 65.72C346.307 65.3333 345.514 64.78 344.847 64.06C344.18 63.34 343.66 62.46 343.287 61.42C342.914 60.38 342.727 59.1933 342.727 57.86C342.727 56.1533 342.994 54.5467 343.527 53.04C344.06 51.5333 344.794 50.22 345.727 49.1C346.66 47.9667 347.754 47.0733 349.007 46.42C350.274 45.7667 351.634 45.44 353.087 45.44C354.194 45.44 355.207 45.6333 356.127 46.02C357.047 46.3933 357.84 46.94 358.507 47.66C359.174 48.38 359.694 49.26 360.067 50.3C360.44 51.34 360.627 52.52 360.627 53.84C360.627 55.5333 360.36 57.1333 359.827 58.64C359.294 60.1467 358.56 61.4667 357.627 62.6C356.707 63.7333 355.614 64.6333 354.347 65.3C353.08 65.9533 351.72 66.28 350.267 66.28ZM359.287 37.02L354.407 42.18C354.22 42.38 354.04 42.5267 353.867 42.62C353.694 42.7 353.48 42.74 353.227 42.74H351.267L354.527 37.9C354.727 37.5933 354.934 37.3733 355.147 37.24C355.374 37.0933 355.687 37.02 356.087 37.02H359.287ZM390.204 41.78C390.057 41.9667 389.917 42.1133 389.784 42.22C389.651 42.3133 389.491 42.36 389.304 42.36C389.077 42.36 388.837 42.2467 388.584 42.02C388.331 41.78 388.004 41.5267 387.604 41.26C387.217 40.98 386.744 40.7267 386.184 40.5C385.624 40.26 384.924 40.14 384.084 40.14C383.231 40.14 382.471 40.2733 381.804 40.54C381.137 40.8067 380.571 41.1733 380.104 41.64C379.651 42.0933 379.304 42.6267 379.064 43.24C378.824 43.8533 378.704 44.5133 378.704 45.22C378.704 45.9133 378.864 46.5 379.184 46.98C379.504 47.4467 379.924 47.8533 380.444 48.2C380.964 48.5333 381.557 48.8333 382.224 49.1C382.904 49.3533 383.591 49.62 384.284 49.9C384.977 50.1667 385.657 50.4667 386.324 50.8C387.004 51.1333 387.604 51.5467 388.124 52.04C388.644 52.5333 389.064 53.1267 389.384 53.82C389.704 54.5133 389.864 55.3533 389.864 56.34C389.864 57.7 389.631 58.9867 389.164 60.2C388.697 61.4 388.024 62.4533 387.144 63.36C386.277 64.2667 385.224 64.9867 383.984 65.52C382.744 66.0533 381.351 66.32 379.804 66.32C378.097 66.32 376.571 65.9867 375.224 65.32C373.891 64.64 372.791 63.7267 371.924 62.58L373.244 60.8C373.351 60.6533 373.484 60.5333 373.644 60.44C373.804 60.3467 373.977 60.3 374.164 60.3C374.417 60.3 374.691 60.4533 374.984 60.76C375.277 61.0533 375.651 61.3867 376.104 61.76C376.557 62.12 377.117 62.4533 377.784 62.76C378.451 63.0533 379.284 63.2 380.284 63.2C381.204 63.2 382.031 63.0533 382.764 62.76C383.511 62.4667 384.137 62.06 384.644 61.54C385.164 61.02 385.564 60.4 385.844 59.68C386.124 58.9467 386.264 58.14 386.264 57.26C386.264 56.5267 386.104 55.92 385.784 55.44C385.464 54.9467 385.044 54.5333 384.524 54.2C384.004 53.8667 383.411 53.58 382.744 53.34C382.077 53.0867 381.397 52.8333 380.704 52.58C380.011 52.3267 379.331 52.04 378.664 51.72C377.997 51.4 377.404 50.9933 376.884 50.5C376.364 50.0067 375.944 49.4 375.624 48.68C375.304 47.96 375.144 47.0733 375.144 46.02C375.144 44.8467 375.357 43.72 375.784 42.64C376.211 41.56 376.824 40.6067 377.624 39.78C378.424 38.9533 379.397 38.2933 380.544 37.8C381.704 37.3067 383.004 37.06 384.444 37.06C385.911 37.06 387.231 37.34 388.404 37.9C389.577 38.46 390.544 39.2267 391.304 40.2L390.204 41.78ZM397.827 50.86C398.907 49.0733 400.127 47.7267 401.487 46.82C402.847 45.9 404.247 45.44 405.687 45.44C406.54 45.44 407.287 45.6133 407.927 45.96C408.58 46.2933 409.107 46.7867 409.507 47.44C409.92 48.0933 410.2 48.9 410.347 49.86C410.494 50.8067 410.494 51.8867 410.347 53.1L408.827 66H405.287L406.807 53.1C406.994 51.5 406.894 50.32 406.507 49.56C406.12 48.7867 405.407 48.4 404.367 48.4C403.727 48.4 403.074 48.5733 402.407 48.92C401.754 49.2667 401.12 49.76 400.507 50.4C399.894 51.04 399.32 51.8133 398.787 52.72C398.267 53.6133 397.82 54.6133 397.447 55.72L396.287 66H392.727L395.167 45.72H396.927C397.727 45.72 398.127 46.12 398.127 46.92L397.827 50.86ZM427.818 48.22C427.524 48.1533 427.231 48.1133 426.938 48.1C426.658 48.0733 426.378 48.06 426.098 48.06C425.298 48.06 424.524 48.1933 423.778 48.46C423.031 48.7133 422.331 49.0733 421.678 49.54C421.024 50.0067 420.431 50.5667 419.898 51.22C419.364 51.86 418.904 52.5667 418.518 53.34C418.144 54.1133 417.851 54.94 417.638 55.82C417.424 56.6867 417.318 57.58 417.318 58.5C417.318 61.7133 418.344 63.32 420.398 63.32C421.051 63.32 421.691 63.12 422.318 62.72C422.944 62.3067 423.538 61.74 424.098 61.02C424.671 60.2867 425.198 59.4267 425.678 58.44C426.158 57.44 426.584 56.3467 426.958 55.16L427.818 48.22ZM426.458 60.66C425.978 61.5133 425.458 62.2867 424.898 62.98C424.351 63.6733 423.764 64.2667 423.138 64.76C422.524 65.24 421.871 65.6133 421.178 65.88C420.498 66.1467 419.791 66.28 419.058 66.28C418.258 66.28 417.531 66.1267 416.878 65.82C416.224 65.5 415.664 65.04 415.198 64.44C414.744 63.8267 414.391 63.08 414.138 62.2C413.884 61.3067 413.758 60.2867 413.758 59.14C413.758 57.94 413.904 56.7733 414.198 55.64C414.504 54.4933 414.931 53.4133 415.478 52.4C416.038 51.3867 416.704 50.46 417.478 49.62C418.251 48.7667 419.111 48.0333 420.058 47.42C421.018 46.7933 422.044 46.3133 423.138 45.98C424.231 45.6333 425.378 45.46 426.578 45.46C427.444 45.46 428.284 45.5333 429.098 45.68C429.924 45.8133 430.738 46.0533 431.538 46.4L429.118 66H427.278C426.811 66 426.491 65.88 426.318 65.64C426.158 65.4 426.078 65.1067 426.078 64.76L426.458 60.66ZM438.368 61.56C438.874 62.2667 439.481 62.7733 440.188 63.08C440.894 63.3733 441.614 63.52 442.348 63.52C443.041 63.52 443.694 63.3733 444.308 63.08C444.921 62.7867 445.481 62.3933 445.988 61.9C446.494 61.3933 446.948 60.8067 447.348 60.14C447.748 59.46 448.081 58.74 448.348 57.98C448.628 57.2067 448.841 56.4133 448.988 55.6C449.134 54.7733 449.208 53.96 449.208 53.16C449.208 51.5733 448.921 50.3667 448.348 49.54C447.774 48.7133 446.968 48.3 445.928 48.3C445.288 48.3 444.641 48.5 443.988 48.9C443.334 49.2867 442.701 49.8333 442.088 50.54C441.488 51.2467 440.921 52.0867 440.388 53.06C439.868 54.0333 439.414 55.1 439.028 56.26L438.368 61.56ZM439.448 51.24C439.954 50.36 440.508 49.5667 441.108 48.86C441.708 48.14 442.341 47.5267 443.008 47.02C443.674 46.5133 444.361 46.1267 445.068 45.86C445.788 45.58 446.521 45.44 447.268 45.44C449.001 45.44 450.341 46.0667 451.288 47.32C452.248 48.5733 452.728 50.4067 452.728 52.82C452.728 53.9133 452.614 55.0067 452.388 56.1C452.161 57.1933 451.834 58.24 451.408 59.24C450.994 60.2267 450.488 61.1533 449.888 62.02C449.301 62.8733 448.641 63.62 447.908 64.26C447.188 64.8867 446.401 65.38 445.548 65.74C444.694 66.1 443.801 66.28 442.868 66.28C441.868 66.28 440.961 66.0867 440.148 65.7C439.334 65.3 438.641 64.74 438.068 64.02L436.988 72.86H433.528L436.828 45.72H438.588C439.388 45.72 439.788 46.12 439.788 46.92L439.448 51.24ZM470.68 62.36C469.987 63.12 469.327 63.7533 468.7 64.26C468.074 64.7667 467.447 65.1733 466.82 65.48C466.194 65.7733 465.54 65.98 464.86 66.1C464.194 66.22 463.474 66.28 462.7 66.28C461.527 66.28 460.487 66.08 459.58 65.68C458.687 65.28 457.934 64.72 457.32 64C456.72 63.2667 456.26 62.3933 455.94 61.38C455.634 60.3533 455.48 59.2267 455.48 58C455.48 56.36 455.734 54.7867 456.24 53.28C456.76 51.7733 457.48 50.44 458.4 49.28C459.32 48.12 460.414 47.1933 461.68 46.5C462.96 45.8067 464.354 45.46 465.86 45.46C467.207 45.46 468.334 45.7 469.24 46.18C470.147 46.6467 470.94 47.3333 471.62 48.24L470.5 49.58C470.407 49.6867 470.3 49.7733 470.18 49.84C470.074 49.9067 469.947 49.94 469.8 49.94C469.614 49.94 469.427 49.86 469.24 49.7C469.067 49.5267 468.834 49.34 468.54 49.14C468.247 48.9267 467.88 48.74 467.44 48.58C467.014 48.4067 466.46 48.32 465.78 48.32C464.86 48.32 463.994 48.5733 463.18 49.08C462.367 49.5733 461.654 50.2533 461.04 51.12C460.427 51.9867 459.94 53.0133 459.58 54.2C459.234 55.3867 459.06 56.66 459.06 58.02C459.06 58.8467 459.154 59.6 459.34 60.28C459.527 60.9467 459.807 61.52 460.18 62C460.554 62.4667 461.007 62.8333 461.54 63.1C462.087 63.3533 462.72 63.48 463.44 63.48C464.334 63.48 465.08 63.3467 465.68 63.08C466.294 62.8133 466.807 62.5267 467.22 62.22C467.634 61.9 467.98 61.6067 468.26 61.34C468.554 61.0733 468.84 60.94 469.12 60.94C469.374 60.94 469.6 61.0533 469.8 61.28L470.68 62.36ZM479.124 50.22C480.178 48.6467 481.344 47.46 482.624 46.66C483.918 45.8467 485.231 45.44 486.564 45.44C487.431 45.44 488.191 45.6133 488.844 45.96C489.498 46.2933 490.024 46.7867 490.424 47.44C490.838 48.0933 491.118 48.9 491.264 49.86C491.411 50.8067 491.411 51.8867 491.264 53.1L489.744 66H486.184L487.704 53.1C487.904 51.5 487.811 50.3133 487.424 49.54C487.038 48.7667 486.318 48.38 485.264 48.38C484.664 48.38 484.044 48.5467 483.404 48.88C482.764 49.2 482.144 49.66 481.544 50.26C480.958 50.86 480.398 51.5867 479.864 52.44C479.344 53.2933 478.891 54.2467 478.504 55.3L477.204 66H473.664L477.224 36.54H480.784L479.124 50.22ZM508.716 48.22C508.423 48.1533 508.13 48.1133 507.836 48.1C507.556 48.0733 507.276 48.06 506.996 48.06C506.196 48.06 505.423 48.1933 504.676 48.46C503.93 48.7133 503.23 49.0733 502.576 49.54C501.923 50.0067 501.33 50.5667 500.796 51.22C500.263 51.86 499.803 52.5667 499.416 53.34C499.043 54.1133 498.75 54.94 498.536 55.82C498.323 56.6867 498.216 57.58 498.216 58.5C498.216 61.7133 499.243 63.32 501.296 63.32C501.95 63.32 502.59 63.12 503.216 62.72C503.843 62.3067 504.436 61.74 504.996 61.02C505.57 60.2867 506.096 59.4267 506.576 58.44C507.056 57.44 507.483 56.3467 507.856 55.16L508.716 48.22ZM507.356 60.66C506.876 61.5133 506.356 62.2867 505.796 62.98C505.25 63.6733 504.663 64.2667 504.036 64.76C503.423 65.24 502.77 65.6133 502.076 65.88C501.396 66.1467 500.69 66.28 499.956 66.28C499.156 66.28 498.43 66.1267 497.776 65.82C497.123 65.5 496.563 65.04 496.096 64.44C495.643 63.8267 495.29 63.08 495.036 62.2C494.783 61.3067 494.656 60.2867 494.656 59.14C494.656 57.94 494.803 56.7733 495.096 55.64C495.403 54.4933 495.83 53.4133 496.376 52.4C496.936 51.3867 497.603 50.46 498.376 49.62C499.15 48.7667 500.01 48.0333 500.956 47.42C501.916 46.7933 502.943 46.3133 504.036 45.98C505.13 45.6333 506.276 45.46 507.476 45.46C508.343 45.46 509.183 45.5333 509.996 45.68C510.823 45.8133 511.636 46.0533 512.436 46.4L510.016 66H508.176C507.71 66 507.39 65.88 507.216 65.64C507.056 65.4 506.976 65.1067 506.976 64.76L507.356 60.66ZM516.866 62.18C516.866 62.1 516.866 62 516.866 61.88C516.866 61.7467 516.873 61.56 516.886 61.32C516.913 61.08 516.946 60.7667 516.986 60.38C517.039 59.9933 517.106 59.4867 517.186 58.86L518.426 48.72H516.166C515.979 48.72 515.826 48.66 515.706 48.54C515.599 48.4067 515.559 48.2067 515.586 47.94L515.746 46.52L518.866 46.1L520.386 39.84C520.453 39.64 520.553 39.48 520.686 39.36C520.833 39.2267 521.013 39.16 521.226 39.16H523.086L522.226 46.14H527.546L527.246 48.72H521.906L520.686 58.68C520.619 59.2267 520.566 59.6667 520.526 60C520.486 60.3333 520.453 60.6 520.426 60.8C520.413 61 520.399 61.14 520.386 61.22C520.386 61.3 520.386 61.36 520.386 61.4C520.386 62.08 520.546 62.5867 520.866 62.92C521.186 63.24 521.613 63.4 522.146 63.4C522.506 63.4 522.813 63.3533 523.066 63.26C523.333 63.1533 523.566 63.04 523.766 62.92C523.966 62.8 524.133 62.6933 524.266 62.6C524.399 62.4933 524.513 62.44 524.606 62.44C524.726 62.44 524.813 62.4667 524.866 62.52C524.933 62.5733 524.993 62.66 525.046 62.78L525.806 64.48C525.153 65.0533 524.406 65.5067 523.566 65.84C522.739 66.16 521.906 66.32 521.066 66.32C519.773 66.32 518.753 65.9667 518.006 65.26C517.273 64.5533 516.893 63.5267 516.866 62.18Z" fill="#FF8847" fill-opacity="0.9"/>
</svg>
