<svg width="608" height="102" viewBox="0 0 608 102" fill="none" xmlns="http://www.w3.org/2000/svg">
<mask id="mask0_42_771" style="mask-type:luminance" maskUnits="userSpaceOnUse" x="0" y="0" width="608" height="102">
<path d="M0 0H608V102H0V0Z" fill="white"/>
</mask>
<g mask="url(#mask0_42_771)">
<path d="M598.751 95.8763C595.242 93.5809 592.786 90.8509 590.81 87.9183C590.972 87.1825 591.079 86.4361 591.079 85.6683V15.5319C591.079 6.95551 580.749 0 568.007 0H23.072C10.3299 0 2.66265e-06 6.95551 2.66265e-06 15.5319V85.6683C2.66265e-06 94.2474 10.3299 101.198 23.072 101.198H568.007C572.027 101.198 575.81 100.502 579.102 99.286C582.9 100.683 587.142 101.533 591.455 101.736C596.248 101.968 601.278 101.493 606.016 101.011C606.681 100.944 607.339 100.87 608 100.795C604.918 99.1661 601.564 97.7184 598.751 95.8763Z" fill="#7048C5" fill-opacity="0.3"/>
<path d="M604.523 100.156C600.207 100.583 595.753 100.943 591.504 100.737L591.502 100.737C587.286 100.539 583.145 99.7077 579.447 98.3475L579.101 98.2203L578.755 98.348C575.579 99.5211 571.914 100.198 568.007 100.198H23.072C16.8727 100.198 11.3051 98.5051 7.31604 95.8204C3.32092 93.1317 1 89.5239 1 85.6683V15.5319C1 11.6776 3.32092 8.0691 7.31622 5.37934C11.3053 2.69373 16.8729 1 23.072 1H568.007C574.206 1 579.774 2.69373 583.763 5.37934C587.758 8.0691 590.079 11.6776 590.079 15.5319V85.6683C590.079 86.3434 589.985 87.0148 589.833 87.7028L589.741 88.1216L589.981 88.4772C592.015 91.4958 594.561 94.3302 598.204 96.7131M604.523 100.156L598.204 96.7131M604.523 100.156C602.364 99.0862 600.14 97.9811 598.204 96.7131M604.523 100.156L598.204 96.7131" stroke="#7048C5" stroke-opacity="0.9" stroke-width="2"/>
</g>
<path d="M101.684 40.4L100.504 50.06H110.644L110.264 53H100.144L98.9242 62.96H111.504L111.124 66H94.7842L98.3042 37.34H114.624L114.244 40.4H101.684ZM115.471 66L119.051 36.54H122.551L118.971 66H115.471ZM150.591 62.74C150.964 62.74 151.244 62.8533 151.431 63.08C151.631 63.2933 151.704 63.5733 151.651 63.92L151.411 66H133.731L133.871 64.82C133.897 64.58 133.977 64.3267 134.111 64.06C134.244 63.7933 134.437 63.5533 134.691 63.34L144.211 54.08C145.104 53.2 145.911 52.3733 146.631 51.6C147.351 50.8133 147.957 50.0333 148.451 49.26C148.944 48.4733 149.324 47.68 149.591 46.88C149.857 46.0667 149.991 45.1867 149.991 44.24C149.991 43.5333 149.884 42.92 149.671 42.4C149.471 41.8667 149.191 41.4267 148.831 41.08C148.471 40.72 148.044 40.4533 147.551 40.28C147.057 40.0933 146.517 40 145.931 40C145.277 40 144.664 40.1067 144.091 40.32C143.517 40.5333 142.991 40.8333 142.511 41.22C142.044 41.6067 141.631 42.0667 141.271 42.6C140.911 43.1333 140.631 43.72 140.431 44.36C140.231 44.8133 139.991 45.12 139.711 45.28C139.431 45.4267 139.057 45.46 138.591 45.38L136.831 45.08C137.164 43.7733 137.637 42.62 138.251 41.62C138.877 40.62 139.611 39.78 140.451 39.1C141.291 38.42 142.217 37.9067 143.231 37.56C144.257 37.2133 145.344 37.04 146.491 37.04C147.531 37.04 148.477 37.2 149.331 37.52C150.197 37.8267 150.944 38.28 151.571 38.88C152.197 39.4667 152.684 40.1867 153.031 41.04C153.377 41.88 153.551 42.84 153.551 43.92C153.551 45.1467 153.364 46.2667 152.991 47.28C152.631 48.2933 152.137 49.2533 151.511 50.16C150.897 51.0533 150.177 51.9267 149.351 52.78C148.537 53.62 147.671 54.4867 146.751 55.38L138.731 63.24C139.291 63.0933 139.851 62.9733 140.411 62.88C140.971 62.7867 141.504 62.74 142.011 62.74H150.591ZM177.434 48.54C177.434 51.54 177.121 54.1533 176.494 56.38C175.867 58.6067 175.021 60.46 173.954 61.94C172.901 63.4067 171.667 64.5 170.254 65.22C168.841 65.94 167.354 66.3 165.794 66.3C164.621 66.3 163.541 66.06 162.554 65.58C161.581 65.1 160.734 64.3867 160.014 63.44C159.307 62.48 158.754 61.2867 158.354 59.86C157.967 58.42 157.774 56.74 157.774 54.82C157.774 51.82 158.081 49.2067 158.694 46.98C159.321 44.7533 160.161 42.9067 161.214 41.44C162.281 39.96 163.514 38.86 164.914 38.14C166.327 37.4067 167.821 37.04 169.394 37.04C170.554 37.04 171.627 37.28 172.614 37.76C173.601 38.24 174.447 38.96 175.154 39.92C175.874 40.8667 176.434 42.06 176.834 43.5C177.234 44.94 177.434 46.62 177.434 48.54ZM173.894 48.36C173.894 46.8533 173.767 45.5667 173.514 44.5C173.261 43.4333 172.914 42.5667 172.474 41.9C172.034 41.22 171.514 40.7267 170.914 40.42C170.327 40.1 169.701 39.94 169.034 39.94C168.061 39.94 167.107 40.2133 166.174 40.76C165.254 41.2933 164.434 42.16 163.714 43.36C162.994 44.5467 162.414 46.1 161.974 48.02C161.534 49.9267 161.314 52.26 161.314 55.02C161.314 56.5267 161.441 57.8133 161.694 58.88C161.947 59.9467 162.287 60.8133 162.714 61.48C163.154 62.1467 163.667 62.6333 164.254 62.94C164.841 63.2467 165.467 63.4 166.134 63.4C167.107 63.4 168.061 63.14 168.994 62.62C169.927 62.0867 170.754 61.2267 171.474 60.04C172.207 58.84 172.794 57.2867 173.234 55.38C173.674 53.46 173.894 51.12 173.894 48.36ZM200.637 48.54C200.637 51.54 200.324 54.1533 199.697 56.38C199.07 58.6067 198.224 60.46 197.157 61.94C196.104 63.4067 194.87 64.5 193.457 65.22C192.044 65.94 190.557 66.3 188.997 66.3C187.824 66.3 186.744 66.06 185.757 65.58C184.784 65.1 183.937 64.3867 183.217 63.44C182.51 62.48 181.957 61.2867 181.557 59.86C181.17 58.42 180.977 56.74 180.977 54.82C180.977 51.82 181.284 49.2067 181.897 46.98C182.524 44.7533 183.364 42.9067 184.417 41.44C185.484 39.96 186.717 38.86 188.117 38.14C189.53 37.4067 191.024 37.04 192.597 37.04C193.757 37.04 194.83 37.28 195.817 37.76C196.804 38.24 197.65 38.96 198.357 39.92C199.077 40.8667 199.637 42.06 200.037 43.5C200.437 44.94 200.637 46.62 200.637 48.54ZM197.097 48.36C197.097 46.8533 196.97 45.5667 196.717 44.5C196.464 43.4333 196.117 42.5667 195.677 41.9C195.237 41.22 194.717 40.7267 194.117 40.42C193.53 40.1 192.904 39.94 192.237 39.94C191.264 39.94 190.31 40.2133 189.377 40.76C188.457 41.2933 187.637 42.16 186.917 43.36C186.197 44.5467 185.617 46.1 185.177 48.02C184.737 49.9267 184.517 52.26 184.517 55.02C184.517 56.5267 184.644 57.8133 184.897 58.88C185.15 59.9467 185.49 60.8133 185.917 61.48C186.357 62.1467 186.87 62.6333 187.457 62.94C188.044 63.2467 188.67 63.4 189.337 63.4C190.31 63.4 191.264 63.14 192.197 62.62C193.13 62.0867 193.957 61.2267 194.677 60.04C195.41 58.84 195.997 57.2867 196.437 55.38C196.877 53.46 197.097 51.12 197.097 48.36ZM212.54 63.46C213.487 63.46 214.36 63.28 215.16 62.92C215.96 62.56 216.647 62.0667 217.22 61.44C217.807 60.8 218.26 60.0467 218.58 59.18C218.913 58.3133 219.08 57.3667 219.08 56.34C219.08 55.54 218.967 54.82 218.74 54.18C218.513 53.5267 218.193 52.98 217.78 52.54C217.367 52.0867 216.86 51.74 216.26 51.5C215.673 51.2467 215.013 51.12 214.28 51.12C213.333 51.12 212.467 51.3133 211.68 51.7C210.893 52.0733 210.213 52.58 209.64 53.22C209.08 53.86 208.64 54.6067 208.32 55.46C208 56.3133 207.84 57.22 207.84 58.18C207.84 58.94 207.94 59.6467 208.14 60.3C208.353 60.94 208.653 61.5 209.04 61.98C209.44 62.4467 209.933 62.8133 210.52 63.08C211.107 63.3333 211.78 63.46 212.54 63.46ZM212.62 48.12C212.367 48.4267 212.127 48.72 211.9 49C211.673 49.28 211.447 49.5533 211.22 49.82C211.873 49.3933 212.58 49.0667 213.34 48.84C214.1 48.6 214.9 48.48 215.74 48.48C216.7 48.48 217.593 48.6467 218.42 48.98C219.26 49.3133 219.987 49.7933 220.6 50.42C221.213 51.0467 221.693 51.8133 222.04 52.72C222.4 53.6267 222.58 54.66 222.58 55.82C222.58 57.3 222.313 58.68 221.78 59.96C221.26 61.24 220.54 62.3533 219.62 63.3C218.7 64.2333 217.607 64.9733 216.34 65.52C215.087 66.0533 213.727 66.32 212.26 66.32C211.06 66.32 209.98 66.1267 209.02 65.74C208.073 65.34 207.267 64.78 206.6 64.06C205.947 63.3267 205.44 62.4533 205.08 61.44C204.733 60.4133 204.56 59.2733 204.56 58.02C204.56 57.18 204.647 56.36 204.82 55.56C204.993 54.76 205.26 53.9533 205.62 53.14C205.98 52.3267 206.433 51.5 206.98 50.66C207.527 49.8067 208.173 48.92 208.92 48L216.78 38.2C216.98 37.96 217.253 37.76 217.6 37.6C217.947 37.44 218.32 37.36 218.72 37.36H221.78L212.62 48.12ZM247.103 48.98C246.997 49.14 246.89 49.26 246.783 49.34C246.677 49.4067 246.543 49.44 246.383 49.44C246.197 49.44 245.99 49.3667 245.763 49.22C245.55 49.0733 245.283 48.9133 244.963 48.74C244.657 48.5533 244.277 48.3867 243.823 48.24C243.37 48.08 242.823 48 242.183 48C241.583 48 241.037 48.0867 240.543 48.26C240.05 48.42 239.623 48.6467 239.263 48.94C238.917 49.2333 238.643 49.58 238.443 49.98C238.257 50.3667 238.163 50.78 238.163 51.22C238.163 51.8467 238.37 52.3467 238.783 52.72C239.197 53.0933 239.717 53.42 240.343 53.7C240.97 53.9667 241.643 54.2267 242.363 54.48C243.083 54.7333 243.757 55.0533 244.383 55.44C245.01 55.8267 245.53 56.32 245.943 56.92C246.357 57.52 246.563 58.3 246.563 59.26C246.563 60.1933 246.377 61.0867 246.003 61.94C245.643 62.7933 245.117 63.5467 244.423 64.2C243.743 64.84 242.917 65.3533 241.943 65.74C240.983 66.1267 239.903 66.32 238.703 66.32C237.41 66.32 236.263 66.0933 235.263 65.64C234.277 65.1733 233.47 64.58 232.843 63.86L233.723 62.5C233.843 62.3267 233.97 62.1933 234.103 62.1C234.25 62.0067 234.437 61.96 234.663 61.96C234.877 61.96 235.09 62.0533 235.303 62.24C235.517 62.4267 235.783 62.64 236.103 62.88C236.423 63.1067 236.823 63.3133 237.303 63.5C237.797 63.6867 238.417 63.78 239.163 63.78C239.817 63.78 240.403 63.68 240.923 63.48C241.457 63.28 241.903 63.0133 242.263 62.68C242.637 62.3467 242.917 61.96 243.103 61.52C243.303 61.0667 243.403 60.5867 243.403 60.08C243.403 59.4 243.197 58.86 242.783 58.46C242.37 58.06 241.85 57.7267 241.223 57.46C240.597 57.1933 239.923 56.9467 239.203 56.72C238.483 56.48 237.81 56.18 237.183 55.82C236.557 55.4467 236.037 54.9667 235.623 54.38C235.21 53.7933 235.003 53.0133 235.003 52.04C235.003 51.1867 235.17 50.3667 235.503 49.58C235.85 48.78 236.343 48.0733 236.983 47.46C237.623 46.8467 238.397 46.36 239.303 46C240.223 45.6267 241.257 45.44 242.403 45.44C243.617 45.44 244.683 45.6467 245.603 46.06C246.537 46.46 247.337 47.0067 248.003 47.7L247.103 48.98ZM260.359 48.02C259.519 48.02 258.746 48.1933 258.039 48.54C257.332 48.8867 256.706 49.3667 256.159 49.98C255.612 50.58 255.146 51.2933 254.759 52.12C254.372 52.9333 254.072 53.8133 253.859 54.76C255.912 54.5067 257.559 54.22 258.799 53.9C260.039 53.5667 260.992 53.2133 261.659 52.84C262.326 52.4533 262.766 52.04 262.979 51.6C263.192 51.16 263.299 50.7 263.299 50.22C263.299 49.98 263.246 49.7333 263.139 49.48C263.032 49.2133 262.859 48.9733 262.619 48.76C262.392 48.5467 262.092 48.3733 261.719 48.24C261.346 48.0933 260.892 48.02 260.359 48.02ZM265.999 62.26C265.319 62.9667 264.652 63.5733 263.999 64.08C263.346 64.5733 262.679 64.9867 261.999 65.32C261.332 65.6533 260.626 65.8933 259.879 66.04C259.146 66.2 258.352 66.28 257.499 66.28C256.339 66.28 255.299 66.0867 254.379 65.7C253.459 65.3133 252.679 64.7667 252.039 64.06C251.399 63.34 250.906 62.4733 250.559 61.46C250.212 60.4467 250.039 59.3133 250.039 58.06C250.039 57.02 250.146 55.9867 250.359 54.96C250.586 53.92 250.906 52.9333 251.319 52C251.746 51.0667 252.259 50.2 252.859 49.4C253.472 48.6 254.166 47.9133 254.939 47.34C255.726 46.7533 256.586 46.2933 257.519 45.96C258.466 45.6267 259.479 45.46 260.559 45.46C261.586 45.46 262.472 45.6067 263.219 45.9C263.966 46.1933 264.579 46.5667 265.059 47.02C265.539 47.4733 265.892 47.9733 266.119 48.52C266.359 49.0667 266.479 49.5867 266.479 50.08C266.479 50.96 266.299 51.7733 265.939 52.52C265.579 53.2533 264.919 53.92 263.959 54.52C262.999 55.1067 261.679 55.62 259.999 56.06C258.319 56.5 256.159 56.8533 253.519 57.12C253.519 57.2667 253.512 57.4133 253.499 57.56C253.499 57.6933 253.499 57.8333 253.499 57.98C253.499 59.7667 253.886 61.1333 254.659 62.08C255.446 63.0133 256.626 63.48 258.199 63.48C258.839 63.48 259.406 63.4133 259.899 63.28C260.406 63.1467 260.852 62.9867 261.239 62.8C261.639 62.6 261.986 62.3867 262.279 62.16C262.586 61.92 262.859 61.7067 263.099 61.52C263.352 61.32 263.586 61.1533 263.799 61.02C264.012 60.8867 264.226 60.82 264.439 60.82C264.692 60.82 264.919 60.9333 265.119 61.16L265.999 62.26ZM285.295 48.7L283.275 65.34L282.335 69.48C282.188 69.96 281.968 70.3267 281.675 70.58C281.395 70.8467 281.001 70.98 280.495 70.98H279.115L281.795 48.76L279.795 48.5C279.555 48.4333 279.361 48.3333 279.215 48.2C279.081 48.0667 279.028 47.86 279.055 47.58L279.235 46.14H282.115L282.355 44.18C282.501 43.02 282.788 41.9933 283.215 41.1C283.655 40.1933 284.201 39.4333 284.855 38.82C285.521 38.1933 286.275 37.72 287.115 37.4C287.968 37.08 288.888 36.92 289.875 36.92C290.688 36.92 291.441 37.0533 292.135 37.32L291.795 39.16C291.741 39.4267 291.561 39.56 291.255 39.56C290.948 39.56 290.561 39.56 290.095 39.56C289.521 39.56 288.988 39.6467 288.495 39.82C288.015 39.98 287.588 40.2467 287.215 40.62C286.841 40.9933 286.521 41.48 286.255 42.08C286.001 42.68 285.821 43.4133 285.715 44.28L285.495 46.14H290.555L290.215 48.7H285.295ZM309.707 45.74L307.267 66H305.507C304.64 66 304.207 65.5733 304.207 64.72L304.507 61.02C303.44 62.7533 302.234 64.0667 300.887 64.96C299.554 65.84 298.18 66.28 296.767 66.28C295.914 66.28 295.16 66.1133 294.507 65.78C293.854 65.4333 293.32 64.9333 292.907 64.28C292.507 63.6267 292.234 62.8267 292.087 61.88C291.94 60.9333 291.947 59.8467 292.107 58.62L293.627 45.74H297.167L295.647 58.62C295.46 60.2067 295.554 61.3867 295.927 62.16C296.314 62.9333 297.034 63.32 298.087 63.32C298.7 63.32 299.334 63.1533 299.987 62.82C300.64 62.4867 301.267 62.0133 301.867 61.4C302.467 60.7867 303.027 60.0467 303.547 59.18C304.08 58.3 304.534 57.3267 304.907 56.26L306.167 45.74H309.707ZM317.659 50.86C318.739 49.0733 319.959 47.7267 321.319 46.82C322.679 45.9 324.079 45.44 325.519 45.44C326.372 45.44 327.119 45.6133 327.759 45.96C328.412 46.2933 328.939 46.7867 329.339 47.44C329.752 48.0933 330.032 48.9 330.179 49.86C330.326 50.8067 330.326 51.8867 330.179 53.1L328.659 66H325.119L326.639 53.1C326.826 51.5 326.726 50.32 326.339 49.56C325.952 48.7867 325.239 48.4 324.199 48.4C323.559 48.4 322.906 48.5733 322.239 48.92C321.586 49.2667 320.952 49.76 320.339 50.4C319.726 51.04 319.152 51.8133 318.619 52.72C318.099 53.6133 317.652 54.6133 317.279 55.72L316.119 66H312.559L314.999 45.72H316.759C317.559 45.72 317.959 46.12 317.959 46.92L317.659 50.86ZM348.07 50.16C347.563 49.44 346.95 48.94 346.23 48.66C345.523 48.3667 344.803 48.22 344.07 48.22C343.017 48.22 342.07 48.5333 341.23 49.16C340.39 49.7867 339.67 50.6 339.07 51.6C338.483 52.5867 338.03 53.6933 337.71 54.92C337.39 56.1467 337.23 57.3533 337.23 58.54C337.23 60.1267 337.51 61.34 338.07 62.18C338.643 63.0067 339.457 63.42 340.51 63.42C341.15 63.42 341.797 63.22 342.45 62.82C343.103 62.42 343.73 61.8667 344.33 61.16C344.943 60.44 345.51 59.5933 346.03 58.62C346.563 57.6467 347.023 56.58 347.41 55.42L348.07 50.16ZM353.23 36.54L349.61 66H347.75C347.283 66 346.97 65.88 346.81 65.64C346.65 65.4 346.57 65.1067 346.57 64.76L346.95 60.5C346.443 61.38 345.89 62.1733 345.29 62.88C344.69 63.5867 344.057 64.1933 343.39 64.7C342.737 65.2067 342.05 65.6 341.33 65.88C340.623 66.1467 339.903 66.28 339.17 66.28C337.437 66.28 336.09 65.6533 335.13 64.4C334.17 63.1333 333.69 61.3 333.69 58.9C333.69 57.8067 333.803 56.7133 334.03 55.62C334.257 54.5267 334.577 53.48 334.99 52.48C335.417 51.48 335.923 50.5533 336.51 49.7C337.11 48.8333 337.777 48.0867 338.51 47.46C339.243 46.8333 340.03 46.34 340.87 45.98C341.723 45.62 342.617 45.44 343.55 45.44C344.55 45.44 345.457 45.64 346.27 46.04C347.097 46.4267 347.797 46.98 348.37 47.7L349.75 36.54H353.23ZM362.822 63.5C363.795 63.5 364.675 63.2333 365.462 62.7C366.262 62.1667 366.942 61.46 367.502 60.58C368.075 59.6867 368.515 58.66 368.822 57.5C369.128 56.34 369.282 55.1267 369.282 53.86C369.282 51.9933 368.908 50.5933 368.162 49.66C367.428 48.7133 366.368 48.24 364.982 48.24C363.995 48.24 363.102 48.5067 362.302 49.04C361.515 49.56 360.842 50.26 360.282 51.14C359.722 52.02 359.288 53.04 358.982 54.2C358.675 55.36 358.522 56.5733 358.522 57.84C358.522 59.7067 358.888 61.12 359.622 62.08C360.355 63.0267 361.422 63.5 362.822 63.5ZM362.482 66.28C361.375 66.28 360.362 66.0933 359.442 65.72C358.522 65.3333 357.728 64.78 357.062 64.06C356.395 63.34 355.875 62.46 355.502 61.42C355.128 60.38 354.942 59.1933 354.942 57.86C354.942 56.1533 355.208 54.5467 355.742 53.04C356.275 51.5333 357.008 50.22 357.942 49.1C358.875 47.9667 359.968 47.0733 361.222 46.42C362.488 45.7667 363.848 45.44 365.302 45.44C366.408 45.44 367.422 45.6333 368.342 46.02C369.262 46.3933 370.055 46.94 370.722 47.66C371.388 48.38 371.908 49.26 372.282 50.3C372.655 51.34 372.842 52.52 372.842 53.84C372.842 55.5333 372.575 57.1333 372.042 58.64C371.508 60.1467 370.775 61.4667 369.842 62.6C368.922 63.7333 367.828 64.6333 366.562 65.3C365.295 65.9533 363.935 66.28 362.482 66.28ZM371.502 37.02L366.622 42.18C366.435 42.38 366.255 42.5267 366.082 42.62C365.908 42.7 365.695 42.74 365.442 42.74H363.482L366.742 37.9C366.942 37.5933 367.148 37.3733 367.362 37.24C367.588 37.0933 367.902 37.02 368.302 37.02H371.502ZM405.587 40.48H397.147L393.987 66H390.267L393.387 40.48H384.907L385.267 37.34H405.967L405.587 40.48ZM430.795 45.74L422.295 66H419.595C419.275 66 419.075 65.7733 418.995 65.32L416.535 51.58C416.508 51.3533 416.482 51.14 416.455 50.94C416.442 50.7267 416.422 50.5067 416.395 50.28C416.248 50.72 416.088 51.16 415.915 51.6L410.075 65.32C409.888 65.7733 409.615 66 409.255 66H406.655L403.095 45.74H405.755C406.022 45.74 406.235 45.8067 406.395 45.94C406.555 46.0733 406.662 46.2533 406.715 46.48L408.575 59.52C408.602 59.9867 408.628 60.44 408.655 60.88C408.682 61.32 408.702 61.7533 408.715 62.18C408.862 61.7533 409.022 61.32 409.195 60.88C409.368 60.44 409.548 59.9867 409.735 59.52L415.275 46.4C415.342 46.2 415.468 46.0333 415.655 45.9C415.842 45.7667 416.048 45.7 416.275 45.7H417.755C418.008 45.7 418.208 45.7667 418.355 45.9C418.502 46.0333 418.588 46.2 418.615 46.4L420.895 59.52C420.962 59.9867 421.022 60.44 421.075 60.88C421.128 61.3067 421.175 61.74 421.215 62.18C421.335 61.7533 421.462 61.32 421.595 60.88C421.742 60.44 421.895 59.9867 422.055 59.52L427.195 46.48C427.262 46.2667 427.388 46.0933 427.575 45.96C427.775 45.8133 427.988 45.74 428.215 45.74H430.795ZM437.761 45.74L435.321 66H431.821L434.261 45.74H437.761ZM439.121 39.38C439.121 39.7267 439.048 40.0533 438.901 40.36C438.768 40.6533 438.581 40.92 438.341 41.16C438.115 41.3867 437.848 41.5667 437.541 41.7C437.248 41.8333 436.941 41.9 436.621 41.9C436.315 41.9 436.015 41.8333 435.721 41.7C435.428 41.5667 435.168 41.3867 434.941 41.16C434.728 40.92 434.555 40.6533 434.421 40.36C434.288 40.0533 434.221 39.7267 434.221 39.38C434.221 39.0333 434.288 38.7067 434.421 38.4C434.555 38.0933 434.735 37.8267 434.961 37.6C435.188 37.36 435.448 37.1733 435.741 37.04C436.035 36.8933 436.335 36.82 436.641 36.82C436.961 36.82 437.268 36.8867 437.561 37.02C437.868 37.1533 438.135 37.34 438.361 37.58C438.588 37.8067 438.768 38.08 438.901 38.4C439.048 38.7067 439.121 39.0333 439.121 39.38ZM442.42 62.18C442.42 62.1 442.42 62 442.42 61.88C442.433 61.7467 442.447 61.56 442.46 61.32C442.487 61.08 442.52 60.7667 442.56 60.38C442.6 59.9933 442.66 59.4867 442.74 58.86L444 48.68H441.8C441.6 48.68 441.44 48.6133 441.32 48.48C441.2 48.3467 441.153 48.1533 441.18 47.9L441.34 46.54L444.42 46.14L445.94 39.84C446.007 39.64 446.107 39.48 446.24 39.36C446.387 39.2267 446.567 39.16 446.78 39.16H448.66L447.78 46.16H456.4L457.94 39.84C458.007 39.64 458.107 39.48 458.24 39.36C458.387 39.2267 458.567 39.16 458.78 39.16H460.64L459.78 46.16H465.08L464.76 48.68H459.46L458.24 58.68C458.173 59.2267 458.12 59.6667 458.08 60C458.04 60.3333 458.007 60.6 457.98 60.8C457.967 61 457.953 61.14 457.94 61.22C457.94 61.3 457.94 61.36 457.94 61.4C457.94 62.08 458.1 62.5867 458.42 62.92C458.74 63.24 459.167 63.4 459.7 63.4C460.06 63.4 460.367 63.3533 460.62 63.26C460.887 63.1533 461.12 63.04 461.32 62.92C461.52 62.8 461.687 62.6933 461.82 62.6C461.953 62.4933 462.067 62.44 462.16 62.44C462.28 62.44 462.367 62.4667 462.42 62.52C462.487 62.5733 462.547 62.66 462.6 62.78L463.36 64.48C462.707 65.0533 461.96 65.5067 461.12 65.84C460.293 66.16 459.46 66.32 458.62 66.32C457.327 66.32 456.307 65.9667 455.56 65.26C454.827 64.5533 454.447 63.5267 454.42 62.18C454.42 62.1 454.42 62 454.42 61.88C454.433 61.7467 454.447 61.56 454.46 61.32C454.487 61.08 454.52 60.7667 454.56 60.38C454.6 59.9933 454.66 59.4867 454.74 58.86L455.98 48.68H447.48L446.24 58.68C446.173 59.2267 446.12 59.6667 446.08 60C446.04 60.3333 446.007 60.6 445.98 60.8C445.967 61 445.953 61.14 445.94 61.22C445.94 61.3 445.94 61.36 445.94 61.4C445.94 62.08 446.1 62.5867 446.42 62.92C446.74 63.24 447.173 63.4 447.72 63.4C448.067 63.4 448.373 63.3533 448.64 63.26C448.907 63.1533 449.133 63.04 449.32 62.92C449.52 62.8 449.687 62.6933 449.82 62.6C449.953 62.4933 450.073 62.44 450.18 62.44C450.287 62.44 450.367 62.4667 450.42 62.52C450.487 62.5733 450.553 62.66 450.62 62.78L451.36 64.48C450.72 65.0533 449.98 65.5067 449.14 65.84C448.313 66.16 447.48 66.32 446.64 66.32C445.347 66.32 444.327 65.9667 443.58 65.26C442.833 64.5533 442.447 63.5267 442.42 62.18ZM476.843 48.02C476.003 48.02 475.23 48.1933 474.523 48.54C473.817 48.8867 473.19 49.3667 472.643 49.98C472.097 50.58 471.63 51.2933 471.243 52.12C470.857 52.9333 470.557 53.8133 470.343 54.76C472.397 54.5067 474.043 54.22 475.283 53.9C476.523 53.5667 477.477 53.2133 478.143 52.84C478.81 52.4533 479.25 52.04 479.463 51.6C479.677 51.16 479.783 50.7 479.783 50.22C479.783 49.98 479.73 49.7333 479.623 49.48C479.517 49.2133 479.343 48.9733 479.103 48.76C478.877 48.5467 478.577 48.3733 478.203 48.24C477.83 48.0933 477.377 48.02 476.843 48.02ZM482.483 62.26C481.803 62.9667 481.137 63.5733 480.483 64.08C479.83 64.5733 479.163 64.9867 478.483 65.32C477.817 65.6533 477.11 65.8933 476.363 66.04C475.63 66.2 474.837 66.28 473.983 66.28C472.823 66.28 471.783 66.0867 470.863 65.7C469.943 65.3133 469.163 64.7667 468.523 64.06C467.883 63.34 467.39 62.4733 467.043 61.46C466.697 60.4467 466.523 59.3133 466.523 58.06C466.523 57.02 466.63 55.9867 466.843 54.96C467.07 53.92 467.39 52.9333 467.803 52C468.23 51.0667 468.743 50.2 469.343 49.4C469.957 48.6 470.65 47.9133 471.423 47.34C472.21 46.7533 473.07 46.2933 474.003 45.96C474.95 45.6267 475.963 45.46 477.043 45.46C478.07 45.46 478.957 45.6067 479.703 45.9C480.45 46.1933 481.063 46.5667 481.543 47.02C482.023 47.4733 482.377 47.9733 482.603 48.52C482.843 49.0667 482.963 49.5867 482.963 50.08C482.963 50.96 482.783 51.7733 482.423 52.52C482.063 53.2533 481.403 53.92 480.443 54.52C479.483 55.1067 478.163 55.62 476.483 56.06C474.803 56.5 472.643 56.8533 470.003 57.12C470.003 57.2667 469.997 57.4133 469.983 57.56C469.983 57.6933 469.983 57.8333 469.983 57.98C469.983 59.7667 470.37 61.1333 471.143 62.08C471.93 63.0133 473.11 63.48 474.683 63.48C475.323 63.48 475.89 63.4133 476.383 63.28C476.89 63.1467 477.337 62.9867 477.723 62.8C478.123 62.6 478.47 62.3867 478.763 62.16C479.07 61.92 479.343 61.7067 479.583 61.52C479.837 61.32 480.07 61.1533 480.283 61.02C480.497 60.8867 480.71 60.82 480.923 60.82C481.177 60.82 481.403 60.9333 481.603 61.16L482.483 62.26ZM490.764 51.38C491.297 50.2467 491.871 49.2667 492.484 48.44C493.111 47.6 493.764 46.9467 494.444 46.48C495.124 46 495.824 45.7133 496.544 45.62C497.264 45.5133 497.997 45.62 498.744 45.94L498.104 49.36C496.371 48.6667 494.837 48.92 493.504 50.12C492.184 51.32 491.111 53.4867 490.284 56.62L489.164 66H485.684L488.124 45.72H489.884C490.697 45.72 491.104 46.12 491.104 46.92L490.764 51.38Z" fill="#7048C5"/>
</svg>
