<svg width="608" height="102" viewBox="0 0 608 102" fill="none" xmlns="http://www.w3.org/2000/svg">
<mask id="mask0_42_772" style="mask-type:luminance" maskUnits="userSpaceOnUse" x="0" y="0" width="608" height="102">
<path d="M0 0H608V102H0V0Z" fill="white"/>
</mask>
<g mask="url(#mask0_42_772)">
<path d="M598.751 95.8763C595.242 93.5809 592.786 90.8509 590.81 87.9183C590.972 87.1825 591.079 86.4361 591.079 85.6683V15.5319C591.079 6.95551 580.749 0 568.007 0H23.072C10.3299 0 2.66265e-06 6.95551 2.66265e-06 15.5319V85.6683C2.66265e-06 94.2474 10.3299 101.198 23.072 101.198H568.007C572.027 101.198 575.81 100.502 579.102 99.286C582.9 100.683 587.142 101.533 591.455 101.736C596.248 101.968 601.278 101.493 606.016 101.011C606.681 100.944 607.339 100.87 608 100.795C604.918 99.1661 601.564 97.7184 598.751 95.8763Z" fill="#9BDFB5" fill-opacity="0.3"/>
<path d="M604.523 100.156C600.207 100.583 595.753 100.943 591.504 100.737L591.502 100.737C587.286 100.539 583.145 99.7077 579.447 98.3475L579.101 98.2203L578.755 98.348C575.579 99.5211 571.914 100.198 568.007 100.198H23.072C16.8727 100.198 11.3051 98.5051 7.31604 95.8204C3.32092 93.1317 1 89.5239 1 85.6683V15.5319C1 11.6776 3.32092 8.0691 7.31622 5.37934C11.3053 2.69373 16.8729 1 23.072 1H568.007C574.206 1 579.774 2.69373 583.763 5.37934C587.758 8.0691 590.079 11.6776 590.079 15.5319V85.6683C590.079 86.3434 589.985 87.0148 589.833 87.7028L589.741 88.1216L589.981 88.4772C592.015 91.4958 594.561 94.3302 598.204 96.7131M604.523 100.156L598.204 96.7131M604.523 100.156C602.364 99.0862 600.14 97.9811 598.204 96.7131M604.523 100.156L598.204 96.7131" stroke="#61E191" stroke-opacity="0.9" stroke-width="2"/>
</g>
<path d="M62.5358 40.4L61.3558 50.06H71.4958L71.1158 53H60.9958L59.7758 62.96H72.3558L71.9758 66H55.6358L59.1558 37.34H75.4758L75.0958 40.4H62.5358ZM76.323 66L79.903 36.54H83.403L79.823 66H76.323ZM111.442 62.74C111.816 62.74 112.096 62.8533 112.282 63.08C112.482 63.2933 112.556 63.5733 112.502 63.92L112.262 66H94.5823L94.7223 64.82C94.749 64.58 94.829 64.3267 94.9623 64.06C95.0957 63.7933 95.289 63.5533 95.5423 63.34L105.062 54.08C105.956 53.2 106.762 52.3733 107.482 51.6C108.202 50.8133 108.809 50.0333 109.302 49.26C109.796 48.4733 110.176 47.68 110.442 46.88C110.709 46.0667 110.842 45.1867 110.842 44.24C110.842 43.5333 110.736 42.92 110.522 42.4C110.322 41.8667 110.042 41.4267 109.682 41.08C109.322 40.72 108.896 40.4533 108.402 40.28C107.909 40.0933 107.369 40 106.782 40C106.129 40 105.516 40.1067 104.942 40.32C104.369 40.5333 103.842 40.8333 103.362 41.22C102.896 41.6067 102.482 42.0667 102.122 42.6C101.762 43.1333 101.482 43.72 101.282 44.36C101.082 44.8133 100.842 45.12 100.562 45.28C100.282 45.4267 99.909 45.46 99.4423 45.38L97.6823 45.08C98.0157 43.7733 98.489 42.62 99.1023 41.62C99.729 40.62 100.462 39.78 101.302 39.1C102.142 38.42 103.069 37.9067 104.082 37.56C105.109 37.2133 106.196 37.04 107.342 37.04C108.382 37.04 109.329 37.2 110.182 37.52C111.049 37.8267 111.796 38.28 112.422 38.88C113.049 39.4667 113.536 40.1867 113.882 41.04C114.229 41.88 114.402 42.84 114.402 43.92C114.402 45.1467 114.216 46.2667 113.842 47.28C113.482 48.2933 112.989 49.2533 112.362 50.16C111.749 51.0533 111.029 51.9267 110.202 52.78C109.389 53.62 108.522 54.4867 107.602 55.38L99.5823 63.24C100.142 63.0933 100.702 62.9733 101.262 62.88C101.822 62.7867 102.356 62.74 102.862 62.74H111.442ZM138.285 48.54C138.285 51.54 137.972 54.1533 137.345 56.38C136.719 58.6067 135.872 60.46 134.805 61.94C133.752 63.4067 132.519 64.5 131.105 65.22C129.692 65.94 128.205 66.3 126.645 66.3C125.472 66.3 124.392 66.06 123.405 65.58C122.432 65.1 121.585 64.3867 120.865 63.44C120.159 62.48 119.605 61.2867 119.205 59.86C118.819 58.42 118.625 56.74 118.625 54.82C118.625 51.82 118.932 49.2067 119.545 46.98C120.172 44.7533 121.012 42.9067 122.065 41.44C123.132 39.96 124.365 38.86 125.765 38.14C127.179 37.4067 128.672 37.04 130.245 37.04C131.405 37.04 132.479 37.28 133.465 37.76C134.452 38.24 135.299 38.96 136.005 39.92C136.725 40.8667 137.285 42.06 137.685 43.5C138.085 44.94 138.285 46.62 138.285 48.54ZM134.745 48.36C134.745 46.8533 134.619 45.5667 134.365 44.5C134.112 43.4333 133.765 42.5667 133.325 41.9C132.885 41.22 132.365 40.7267 131.765 40.42C131.179 40.1 130.552 39.94 129.885 39.94C128.912 39.94 127.959 40.2133 127.025 40.76C126.105 41.2933 125.285 42.16 124.565 43.36C123.845 44.5467 123.265 46.1 122.825 48.02C122.385 49.9267 122.165 52.26 122.165 55.02C122.165 56.5267 122.292 57.8133 122.545 58.88C122.799 59.9467 123.139 60.8133 123.565 61.48C124.005 62.1467 124.519 62.6333 125.105 62.94C125.692 63.2467 126.319 63.4 126.985 63.4C127.959 63.4 128.912 63.14 129.845 62.62C130.779 62.0867 131.605 61.2267 132.325 60.04C133.059 58.84 133.645 57.2867 134.085 55.38C134.525 53.46 134.745 51.12 134.745 48.36ZM161.489 48.54C161.489 51.54 161.175 54.1533 160.549 56.38C159.922 58.6067 159.075 60.46 158.009 61.94C156.955 63.4067 155.722 64.5 154.309 65.22C152.895 65.94 151.409 66.3 149.849 66.3C148.675 66.3 147.595 66.06 146.609 65.58C145.635 65.1 144.789 64.3867 144.069 63.44C143.362 62.48 142.809 61.2867 142.409 59.86C142.022 58.42 141.829 56.74 141.829 54.82C141.829 51.82 142.135 49.2067 142.749 46.98C143.375 44.7533 144.215 42.9067 145.269 41.44C146.335 39.96 147.569 38.86 148.969 38.14C150.382 37.4067 151.875 37.04 153.449 37.04C154.609 37.04 155.682 37.28 156.669 37.76C157.655 38.24 158.502 38.96 159.209 39.92C159.929 40.8667 160.489 42.06 160.889 43.5C161.289 44.94 161.489 46.62 161.489 48.54ZM157.949 48.36C157.949 46.8533 157.822 45.5667 157.569 44.5C157.315 43.4333 156.969 42.5667 156.529 41.9C156.089 41.22 155.569 40.7267 154.969 40.42C154.382 40.1 153.755 39.94 153.089 39.94C152.115 39.94 151.162 40.2133 150.229 40.76C149.309 41.2933 148.489 42.16 147.769 43.36C147.049 44.5467 146.469 46.1 146.029 48.02C145.589 49.9267 145.369 52.26 145.369 55.02C145.369 56.5267 145.495 57.8133 145.749 58.88C146.002 59.9467 146.342 60.8133 146.769 61.48C147.209 62.1467 147.722 62.6333 148.309 62.94C148.895 63.2467 149.522 63.4 150.189 63.4C151.162 63.4 152.115 63.14 153.049 62.62C153.982 62.0867 154.809 61.2267 155.529 60.04C156.262 58.84 156.849 57.2867 157.289 55.38C157.729 53.46 157.949 51.12 157.949 48.36ZM170.172 46.74C170.172 48.2467 170.558 49.4267 171.332 50.28C172.118 51.1333 173.218 51.56 174.632 51.56C175.565 51.56 176.412 51.38 177.172 51.02C177.932 50.66 178.578 50.18 179.112 49.58C179.645 48.9667 180.052 48.26 180.332 47.46C180.625 46.66 180.772 45.8267 180.772 44.96C180.772 44.2 180.665 43.5133 180.452 42.9C180.238 42.2733 179.932 41.74 179.532 41.3C179.132 40.8467 178.652 40.5 178.092 40.26C177.545 40.02 176.932 39.9 176.252 39.9C175.372 39.9 174.558 40.0667 173.812 40.4C173.065 40.7333 172.418 41.2 171.872 41.8C171.338 42.4 170.918 43.12 170.612 43.96C170.318 44.8 170.172 45.7267 170.172 46.74ZM176.612 54.54C176.918 54.1667 177.205 53.8133 177.472 53.48C177.738 53.1333 177.998 52.7933 178.252 52.46C177.505 53.02 176.698 53.4533 175.832 53.76C174.965 54.0533 174.065 54.2 173.132 54.2C172.238 54.2 171.398 54.04 170.612 53.72C169.838 53.4 169.158 52.94 168.572 52.34C167.985 51.7267 167.518 50.9867 167.172 50.12C166.838 49.24 166.672 48.2467 166.672 47.14C166.672 45.7267 166.925 44.4067 167.432 43.18C167.952 41.9533 168.658 40.8867 169.552 39.98C170.445 39.0733 171.498 38.36 172.712 37.84C173.925 37.3067 175.232 37.04 176.632 37.04C177.792 37.04 178.832 37.24 179.752 37.64C180.672 38.0267 181.445 38.5733 182.072 39.28C182.712 39.9733 183.198 40.8067 183.532 41.78C183.878 42.74 184.052 43.8 184.052 44.96C184.052 45.9467 183.952 46.86 183.752 47.7C183.565 48.54 183.292 49.36 182.932 50.16C182.572 50.9467 182.125 51.74 181.592 52.54C181.072 53.3267 180.478 54.16 179.812 55.04L172.192 65.2C172.005 65.4267 171.745 65.62 171.412 65.78C171.078 65.9267 170.712 66 170.312 66H167.152L176.612 54.54ZM209.83 48.98C209.723 49.14 209.617 49.26 209.51 49.34C209.403 49.4067 209.27 49.44 209.11 49.44C208.923 49.44 208.717 49.3667 208.49 49.22C208.277 49.0733 208.01 48.9133 207.69 48.74C207.383 48.5533 207.003 48.3867 206.55 48.24C206.097 48.08 205.55 48 204.91 48C204.31 48 203.763 48.0867 203.27 48.26C202.777 48.42 202.35 48.6467 201.99 48.94C201.643 49.2333 201.37 49.58 201.17 49.98C200.983 50.3667 200.89 50.78 200.89 51.22C200.89 51.8467 201.097 52.3467 201.51 52.72C201.923 53.0933 202.443 53.42 203.07 53.7C203.697 53.9667 204.37 54.2267 205.09 54.48C205.81 54.7333 206.483 55.0533 207.11 55.44C207.737 55.8267 208.257 56.32 208.67 56.92C209.083 57.52 209.29 58.3 209.29 59.26C209.29 60.1933 209.103 61.0867 208.73 61.94C208.37 62.7933 207.843 63.5467 207.15 64.2C206.47 64.84 205.643 65.3533 204.67 65.74C203.71 66.1267 202.63 66.32 201.43 66.32C200.137 66.32 198.99 66.0933 197.99 65.64C197.003 65.1733 196.197 64.58 195.57 63.86L196.45 62.5C196.57 62.3267 196.697 62.1933 196.83 62.1C196.977 62.0067 197.163 61.96 197.39 61.96C197.603 61.96 197.817 62.0533 198.03 62.24C198.243 62.4267 198.51 62.64 198.83 62.88C199.15 63.1067 199.55 63.3133 200.03 63.5C200.523 63.6867 201.143 63.78 201.89 63.78C202.543 63.78 203.13 63.68 203.65 63.48C204.183 63.28 204.63 63.0133 204.99 62.68C205.363 62.3467 205.643 61.96 205.83 61.52C206.03 61.0667 206.13 60.5867 206.13 60.08C206.13 59.4 205.923 58.86 205.51 58.46C205.097 58.06 204.577 57.7267 203.95 57.46C203.323 57.1933 202.65 56.9467 201.93 56.72C201.21 56.48 200.537 56.18 199.91 55.82C199.283 55.4467 198.763 54.9667 198.35 54.38C197.937 53.7933 197.73 53.0133 197.73 52.04C197.73 51.1867 197.897 50.3667 198.23 49.58C198.577 48.78 199.07 48.0733 199.71 47.46C200.35 46.8467 201.123 46.36 202.03 46C202.95 45.6267 203.983 45.44 205.13 45.44C206.343 45.44 207.41 45.6467 208.33 46.06C209.263 46.46 210.063 47.0067 210.73 47.7L209.83 48.98ZM223.085 48.02C222.245 48.02 221.472 48.1933 220.765 48.54C220.059 48.8867 219.432 49.3667 218.885 49.98C218.339 50.58 217.872 51.2933 217.485 52.12C217.099 52.9333 216.799 53.8133 216.585 54.76C218.639 54.5067 220.285 54.22 221.525 53.9C222.765 53.5667 223.719 53.2133 224.385 52.84C225.052 52.4533 225.492 52.04 225.705 51.6C225.919 51.16 226.025 50.7 226.025 50.22C226.025 49.98 225.972 49.7333 225.865 49.48C225.759 49.2133 225.585 48.9733 225.345 48.76C225.119 48.5467 224.819 48.3733 224.445 48.24C224.072 48.0933 223.619 48.02 223.085 48.02ZM228.725 62.26C228.045 62.9667 227.379 63.5733 226.725 64.08C226.072 64.5733 225.405 64.9867 224.725 65.32C224.059 65.6533 223.352 65.8933 222.605 66.04C221.872 66.2 221.079 66.28 220.225 66.28C219.065 66.28 218.025 66.0867 217.105 65.7C216.185 65.3133 215.405 64.7667 214.765 64.06C214.125 63.34 213.632 62.4733 213.285 61.46C212.939 60.4467 212.765 59.3133 212.765 58.06C212.765 57.02 212.872 55.9867 213.085 54.96C213.312 53.92 213.632 52.9333 214.045 52C214.472 51.0667 214.985 50.2 215.585 49.4C216.199 48.6 216.892 47.9133 217.665 47.34C218.452 46.7533 219.312 46.2933 220.245 45.96C221.192 45.6267 222.205 45.46 223.285 45.46C224.312 45.46 225.199 45.6067 225.945 45.9C226.692 46.1933 227.305 46.5667 227.785 47.02C228.265 47.4733 228.619 47.9733 228.845 48.52C229.085 49.0667 229.205 49.5867 229.205 50.08C229.205 50.96 229.025 51.7733 228.665 52.52C228.305 53.2533 227.645 53.92 226.685 54.52C225.725 55.1067 224.405 55.62 222.725 56.06C221.045 56.5 218.885 56.8533 216.245 57.12C216.245 57.2667 216.239 57.4133 216.225 57.56C216.225 57.6933 216.225 57.8333 216.225 57.98C216.225 59.7667 216.612 61.1333 217.385 62.08C218.172 63.0133 219.352 63.48 220.925 63.48C221.565 63.48 222.132 63.4133 222.625 63.28C223.132 63.1467 223.579 62.9867 223.965 62.8C224.365 62.6 224.712 62.3867 225.005 62.16C225.312 61.92 225.585 61.7067 225.825 61.52C226.079 61.32 226.312 61.1533 226.525 61.02C226.739 60.8867 226.952 60.82 227.165 60.82C227.419 60.82 227.645 60.9333 227.845 61.16L228.725 62.26ZM248.021 48.7L246.001 65.34L245.061 69.48C244.914 69.96 244.694 70.3267 244.401 70.58C244.121 70.8467 243.728 70.98 243.221 70.98H241.841L244.521 48.76L242.521 48.5C242.281 48.4333 242.088 48.3333 241.941 48.2C241.808 48.0667 241.754 47.86 241.781 47.58L241.961 46.14H244.841L245.081 44.18C245.228 43.02 245.514 41.9933 245.941 41.1C246.381 40.1933 246.928 39.4333 247.581 38.82C248.248 38.1933 249.001 37.72 249.841 37.4C250.694 37.08 251.614 36.92 252.601 36.92C253.414 36.92 254.168 37.0533 254.861 37.32L254.521 39.16C254.468 39.4267 254.288 39.56 253.981 39.56C253.674 39.56 253.288 39.56 252.821 39.56C252.248 39.56 251.714 39.6467 251.221 39.82C250.741 39.98 250.314 40.2467 249.941 40.62C249.568 40.9933 249.248 41.48 248.981 42.08C248.728 42.68 248.548 43.4133 248.441 44.28L248.221 46.14H253.281L252.941 48.7H248.021ZM272.434 45.74L269.994 66H268.234C267.367 66 266.934 65.5733 266.934 64.72L267.234 61.02C266.167 62.7533 264.96 64.0667 263.614 64.96C262.28 65.84 260.907 66.28 259.494 66.28C258.64 66.28 257.887 66.1133 257.234 65.78C256.58 65.4333 256.047 64.9333 255.634 64.28C255.234 63.6267 254.96 62.8267 254.814 61.88C254.667 60.9333 254.674 59.8467 254.834 58.62L256.354 45.74H259.894L258.374 58.62C258.187 60.2067 258.28 61.3867 258.654 62.16C259.04 62.9333 259.76 63.32 260.814 63.32C261.427 63.32 262.06 63.1533 262.714 62.82C263.367 62.4867 263.994 62.0133 264.594 61.4C265.194 60.7867 265.754 60.0467 266.274 59.18C266.807 58.3 267.26 57.3267 267.634 56.26L268.894 45.74H272.434ZM280.385 50.86C281.465 49.0733 282.685 47.7267 284.045 46.82C285.405 45.9 286.805 45.44 288.245 45.44C289.099 45.44 289.845 45.6133 290.485 45.96C291.139 46.2933 291.665 46.7867 292.065 47.44C292.479 48.0933 292.759 48.9 292.905 49.86C293.052 50.8067 293.052 51.8867 292.905 53.1L291.385 66H287.845L289.365 53.1C289.552 51.5 289.452 50.32 289.065 49.56C288.679 48.7867 287.965 48.4 286.925 48.4C286.285 48.4 285.632 48.5733 284.965 48.92C284.312 49.2667 283.679 49.76 283.065 50.4C282.452 51.04 281.879 51.8133 281.345 52.72C280.825 53.6133 280.379 54.6133 280.005 55.72L278.845 66H275.285L277.725 45.72H279.485C280.285 45.72 280.685 46.12 280.685 46.92L280.385 50.86ZM310.796 50.16C310.29 49.44 309.676 48.94 308.956 48.66C308.25 48.3667 307.53 48.22 306.796 48.22C305.743 48.22 304.796 48.5333 303.956 49.16C303.116 49.7867 302.396 50.6 301.796 51.6C301.21 52.5867 300.756 53.6933 300.436 54.92C300.116 56.1467 299.956 57.3533 299.956 58.54C299.956 60.1267 300.236 61.34 300.796 62.18C301.37 63.0067 302.183 63.42 303.236 63.42C303.876 63.42 304.523 63.22 305.176 62.82C305.83 62.42 306.456 61.8667 307.056 61.16C307.67 60.44 308.236 59.5933 308.756 58.62C309.29 57.6467 309.75 56.58 310.136 55.42L310.796 50.16ZM315.956 36.54L312.336 66H310.476C310.01 66 309.696 65.88 309.536 65.64C309.376 65.4 309.296 65.1067 309.296 64.76L309.676 60.5C309.17 61.38 308.616 62.1733 308.016 62.88C307.416 63.5867 306.783 64.1933 306.116 64.7C305.463 65.2067 304.776 65.6 304.056 65.88C303.35 66.1467 302.63 66.28 301.896 66.28C300.163 66.28 298.816 65.6533 297.856 64.4C296.896 63.1333 296.416 61.3 296.416 58.9C296.416 57.8067 296.53 56.7133 296.756 55.62C296.983 54.5267 297.303 53.48 297.716 52.48C298.143 51.48 298.65 50.5533 299.236 49.7C299.836 48.8333 300.503 48.0867 301.236 47.46C301.97 46.8333 302.756 46.34 303.596 45.98C304.45 45.62 305.343 45.44 306.276 45.44C307.276 45.44 308.183 45.64 308.996 46.04C309.823 46.4267 310.523 46.98 311.096 47.7L312.476 36.54H315.956ZM325.548 63.5C326.522 63.5 327.402 63.2333 328.188 62.7C328.988 62.1667 329.668 61.46 330.228 60.58C330.802 59.6867 331.242 58.66 331.548 57.5C331.855 56.34 332.008 55.1267 332.008 53.86C332.008 51.9933 331.635 50.5933 330.888 49.66C330.155 48.7133 329.095 48.24 327.708 48.24C326.722 48.24 325.828 48.5067 325.028 49.04C324.242 49.56 323.568 50.26 323.008 51.14C322.448 52.02 322.015 53.04 321.708 54.2C321.402 55.36 321.248 56.5733 321.248 57.84C321.248 59.7067 321.615 61.12 322.348 62.08C323.082 63.0267 324.148 63.5 325.548 63.5ZM325.208 66.28C324.102 66.28 323.088 66.0933 322.168 65.72C321.248 65.3333 320.455 64.78 319.788 64.06C319.122 63.34 318.602 62.46 318.228 61.42C317.855 60.38 317.668 59.1933 317.668 57.86C317.668 56.1533 317.935 54.5467 318.468 53.04C319.002 51.5333 319.735 50.22 320.668 49.1C321.602 47.9667 322.695 47.0733 323.948 46.42C325.215 45.7667 326.575 45.44 328.028 45.44C329.135 45.44 330.148 45.6333 331.068 46.02C331.988 46.3933 332.782 46.94 333.448 47.66C334.115 48.38 334.635 49.26 335.008 50.3C335.382 51.34 335.568 52.52 335.568 53.84C335.568 55.5333 335.302 57.1333 334.768 58.64C334.235 60.1467 333.502 61.4667 332.568 62.6C331.648 63.7333 330.555 64.6333 329.288 65.3C328.022 65.9533 326.662 66.28 325.208 66.28ZM334.228 37.02L329.348 42.18C329.162 42.38 328.982 42.5267 328.808 42.62C328.635 42.7 328.422 42.74 328.168 42.74H326.208L329.468 37.9C329.668 37.5933 329.875 37.3733 330.088 37.24C330.315 37.0933 330.628 37.02 331.028 37.02H334.228ZM385.699 37.34L373.939 66H370.559L366.679 43.94C366.652 43.7267 366.619 43.4933 366.579 43.24C366.552 42.9867 366.525 42.7267 366.499 42.46C366.405 42.7267 366.312 42.9867 366.219 43.24C366.125 43.4933 366.039 43.7267 365.959 43.94L356.639 66H353.279L348.559 37.34H351.499C351.832 37.34 352.099 37.4267 352.299 37.6C352.499 37.76 352.612 37.9733 352.639 38.24L355.739 58.52C355.765 58.8667 355.792 59.2467 355.819 59.66C355.845 60.06 355.872 60.4733 355.899 60.9C356.045 60.46 356.185 60.04 356.319 59.64C356.465 59.24 356.612 58.8667 356.759 58.52L365.319 38.24C365.425 38.0133 365.599 37.8067 365.839 37.62C366.079 37.4333 366.359 37.34 366.679 37.34H367.539C367.872 37.34 368.132 37.4267 368.319 37.6C368.519 37.76 368.652 37.9733 368.719 38.24L372.299 58.52C372.365 58.8667 372.419 59.2333 372.459 59.62C372.499 60.0067 372.539 60.4133 372.579 60.84C372.699 60.4133 372.819 60.0067 372.939 59.62C373.059 59.2333 373.179 58.8667 373.299 58.52L381.359 38.24C381.425 38.0133 381.592 37.8067 381.859 37.62C382.139 37.4333 382.439 37.34 382.759 37.34H385.699ZM390.902 50.22C391.955 48.6467 393.122 47.46 394.402 46.66C395.695 45.8467 397.008 45.44 398.342 45.44C399.208 45.44 399.968 45.6133 400.622 45.96C401.275 46.2933 401.802 46.7867 402.202 47.44C402.615 48.0933 402.895 48.9 403.042 49.86C403.188 50.8067 403.188 51.8867 403.042 53.1L401.522 66H397.962L399.482 53.1C399.682 51.5 399.588 50.3133 399.202 49.54C398.815 48.7667 398.095 48.38 397.042 48.38C396.442 48.38 395.822 48.5467 395.182 48.88C394.542 49.2 393.922 49.66 393.322 50.26C392.735 50.86 392.175 51.5867 391.642 52.44C391.122 53.2933 390.668 54.2467 390.282 55.3L388.982 66H385.442L389.002 36.54H392.562L390.902 50.22ZM420.494 48.22C420.2 48.1533 419.907 48.1133 419.614 48.1C419.334 48.0733 419.054 48.06 418.774 48.06C417.974 48.06 417.2 48.1933 416.454 48.46C415.707 48.7133 415.007 49.0733 414.354 49.54C413.7 50.0067 413.107 50.5667 412.574 51.22C412.04 51.86 411.58 52.5667 411.194 53.34C410.82 54.1133 410.527 54.94 410.314 55.82C410.1 56.6867 409.994 57.58 409.994 58.5C409.994 61.7133 411.02 63.32 413.074 63.32C413.727 63.32 414.367 63.12 414.994 62.72C415.62 62.3067 416.214 61.74 416.774 61.02C417.347 60.2867 417.874 59.4267 418.354 58.44C418.834 57.44 419.26 56.3467 419.634 55.16L420.494 48.22ZM419.134 60.66C418.654 61.5133 418.134 62.2867 417.574 62.98C417.027 63.6733 416.44 64.2667 415.814 64.76C415.2 65.24 414.547 65.6133 413.854 65.88C413.174 66.1467 412.467 66.28 411.734 66.28C410.934 66.28 410.207 66.1267 409.554 65.82C408.9 65.5 408.34 65.04 407.874 64.44C407.42 63.8267 407.067 63.08 406.814 62.2C406.56 61.3067 406.434 60.2867 406.434 59.14C406.434 57.94 406.58 56.7733 406.874 55.64C407.18 54.4933 407.607 53.4133 408.154 52.4C408.714 51.3867 409.38 50.46 410.154 49.62C410.927 48.7667 411.787 48.0333 412.734 47.42C413.694 46.7933 414.72 46.3133 415.814 45.98C416.907 45.6333 418.054 45.46 419.254 45.46C420.12 45.46 420.96 45.5333 421.774 45.68C422.6 45.8133 423.414 46.0533 424.214 46.4L421.794 66H419.954C419.487 66 419.167 65.88 418.994 65.64C418.834 65.4 418.754 65.1067 418.754 64.76L419.134 60.66ZM428.643 62.18C428.643 62.1 428.643 62 428.643 61.88C428.643 61.7467 428.65 61.56 428.663 61.32C428.69 61.08 428.723 60.7667 428.763 60.38C428.817 59.9933 428.883 59.4867 428.963 58.86L430.203 48.72H427.943C427.757 48.72 427.603 48.66 427.483 48.54C427.377 48.4067 427.337 48.2067 427.363 47.94L427.523 46.52L430.643 46.1L432.163 39.84C432.23 39.64 432.33 39.48 432.463 39.36C432.61 39.2267 432.79 39.16 433.003 39.16H434.863L434.003 46.14H439.323L439.023 48.72H433.683L432.463 58.68C432.397 59.2267 432.343 59.6667 432.303 60C432.263 60.3333 432.23 60.6 432.203 60.8C432.19 61 432.177 61.14 432.163 61.22C432.163 61.3 432.163 61.36 432.163 61.4C432.163 62.08 432.323 62.5867 432.643 62.92C432.963 63.24 433.39 63.4 433.923 63.4C434.283 63.4 434.59 63.3533 434.843 63.26C435.11 63.1533 435.343 63.04 435.543 62.92C435.743 62.8 435.91 62.6933 436.043 62.6C436.177 62.4933 436.29 62.44 436.383 62.44C436.503 62.44 436.59 62.4667 436.643 62.52C436.71 62.5733 436.77 62.66 436.823 62.78L437.583 64.48C436.93 65.0533 436.183 65.5067 435.343 65.84C434.517 66.16 433.683 66.32 432.843 66.32C431.55 66.32 430.53 65.9667 429.783 65.26C429.05 64.5533 428.67 63.5267 428.643 62.18ZM454.283 48.98C454.176 49.14 454.07 49.26 453.963 49.34C453.856 49.4067 453.723 49.44 453.563 49.44C453.376 49.44 453.17 49.3667 452.943 49.22C452.73 49.0733 452.463 48.9133 452.143 48.74C451.836 48.5533 451.456 48.3867 451.003 48.24C450.55 48.08 450.003 48 449.363 48C448.763 48 448.216 48.0867 447.723 48.26C447.23 48.42 446.803 48.6467 446.443 48.94C446.096 49.2333 445.823 49.58 445.623 49.98C445.436 50.3667 445.343 50.78 445.343 51.22C445.343 51.8467 445.55 52.3467 445.963 52.72C446.376 53.0933 446.896 53.42 447.523 53.7C448.15 53.9667 448.823 54.2267 449.543 54.48C450.263 54.7333 450.936 55.0533 451.563 55.44C452.19 55.8267 452.71 56.32 453.123 56.92C453.536 57.52 453.743 58.3 453.743 59.26C453.743 60.1933 453.556 61.0867 453.183 61.94C452.823 62.7933 452.296 63.5467 451.603 64.2C450.923 64.84 450.096 65.3533 449.123 65.74C448.163 66.1267 447.083 66.32 445.883 66.32C444.59 66.32 443.443 66.0933 442.443 65.64C441.456 65.1733 440.65 64.58 440.023 63.86L440.903 62.5C441.023 62.3267 441.15 62.1933 441.283 62.1C441.43 62.0067 441.616 61.96 441.843 61.96C442.056 61.96 442.27 62.0533 442.483 62.24C442.696 62.4267 442.963 62.64 443.283 62.88C443.603 63.1067 444.003 63.3133 444.483 63.5C444.976 63.6867 445.596 63.78 446.343 63.78C446.996 63.78 447.583 63.68 448.103 63.48C448.636 63.28 449.083 63.0133 449.443 62.68C449.816 62.3467 450.096 61.96 450.283 61.52C450.483 61.0667 450.583 60.5867 450.583 60.08C450.583 59.4 450.376 58.86 449.963 58.46C449.55 58.06 449.03 57.7267 448.403 57.46C447.776 57.1933 447.103 56.9467 446.383 56.72C445.663 56.48 444.99 56.18 444.363 55.82C443.736 55.4467 443.216 54.9667 442.803 54.38C442.39 53.7933 442.183 53.0133 442.183 52.04C442.183 51.1867 442.35 50.3667 442.683 49.58C443.03 48.78 443.523 48.0733 444.163 47.46C444.803 46.8467 445.576 46.36 446.483 46C447.403 45.6267 448.436 45.44 449.583 45.44C450.796 45.44 451.863 45.6467 452.783 46.06C453.716 46.46 454.516 47.0067 455.183 47.7L454.283 48.98ZM473.164 55.38L470.544 43.52C470.478 43.16 470.398 42.7467 470.304 42.28C470.211 41.8 470.131 41.2867 470.064 40.74C469.864 41.3 469.664 41.8133 469.464 42.28C469.264 42.7467 469.084 43.1667 468.924 43.54L463.384 55.38H473.164ZM479.384 66H476.504C476.171 66 475.911 65.92 475.724 65.76C475.538 65.5867 475.404 65.3667 475.324 65.1L473.764 58.1H462.104L458.824 65.1C458.704 65.34 458.518 65.5533 458.264 65.74C458.024 65.9133 457.751 66 457.444 66H454.524L468.564 37.34H472.364L479.384 66ZM486.239 61.56C486.745 62.2667 487.352 62.7733 488.059 63.08C488.765 63.3733 489.485 63.52 490.219 63.52C490.912 63.52 491.565 63.3733 492.179 63.08C492.792 62.7867 493.352 62.3933 493.859 61.9C494.365 61.3933 494.819 60.8067 495.219 60.14C495.619 59.46 495.952 58.74 496.219 57.98C496.499 57.2067 496.712 56.4133 496.859 55.6C497.005 54.7733 497.079 53.96 497.079 53.16C497.079 51.5733 496.792 50.3667 496.219 49.54C495.645 48.7133 494.839 48.3 493.799 48.3C493.159 48.3 492.512 48.5 491.859 48.9C491.205 49.2867 490.572 49.8333 489.959 50.54C489.359 51.2467 488.792 52.0867 488.259 53.06C487.739 54.0333 487.285 55.1 486.899 56.26L486.239 61.56ZM487.319 51.24C487.825 50.36 488.379 49.5667 488.979 48.86C489.579 48.14 490.212 47.5267 490.879 47.02C491.545 46.5133 492.232 46.1267 492.939 45.86C493.659 45.58 494.392 45.44 495.139 45.44C496.872 45.44 498.212 46.0667 499.159 47.32C500.119 48.5733 500.599 50.4067 500.599 52.82C500.599 53.9133 500.485 55.0067 500.259 56.1C500.032 57.1933 499.705 58.24 499.279 59.24C498.865 60.2267 498.359 61.1533 497.759 62.02C497.172 62.8733 496.512 63.62 495.779 64.26C495.059 64.8867 494.272 65.38 493.419 65.74C492.565 66.1 491.672 66.28 490.739 66.28C489.739 66.28 488.832 66.0867 488.019 65.7C487.205 65.3 486.512 64.74 485.939 64.02L484.859 72.86H481.399L484.699 45.72H486.459C487.259 45.72 487.659 46.12 487.659 46.92L487.319 51.24ZM507.371 61.56C507.878 62.2667 508.485 62.7733 509.191 63.08C509.898 63.3733 510.618 63.52 511.351 63.52C512.045 63.52 512.698 63.3733 513.311 63.08C513.925 62.7867 514.485 62.3933 514.991 61.9C515.498 61.3933 515.951 60.8067 516.351 60.14C516.751 59.46 517.085 58.74 517.351 57.98C517.631 57.2067 517.845 56.4133 517.991 55.6C518.138 54.7733 518.211 53.96 518.211 53.16C518.211 51.5733 517.925 50.3667 517.351 49.54C516.778 48.7133 515.971 48.3 514.931 48.3C514.291 48.3 513.645 48.5 512.991 48.9C512.338 49.2867 511.705 49.8333 511.091 50.54C510.491 51.2467 509.925 52.0867 509.391 53.06C508.871 54.0333 508.418 55.1 508.031 56.26L507.371 61.56ZM508.451 51.24C508.958 50.36 509.511 49.5667 510.111 48.86C510.711 48.14 511.345 47.5267 512.011 47.02C512.678 46.5133 513.365 46.1267 514.071 45.86C514.791 45.58 515.525 45.44 516.271 45.44C518.005 45.44 519.345 46.0667 520.291 47.32C521.251 48.5733 521.731 50.4067 521.731 52.82C521.731 53.9133 521.618 55.0067 521.391 56.1C521.165 57.1933 520.838 58.24 520.411 59.24C519.998 60.2267 519.491 61.1533 518.891 62.02C518.305 62.8733 517.645 63.62 516.911 64.26C516.191 64.8867 515.405 65.38 514.551 65.74C513.698 66.1 512.805 66.28 511.871 66.28C510.871 66.28 509.965 66.0867 509.151 65.7C508.338 65.3 507.645 64.74 507.071 64.02L505.991 72.86H502.531L505.831 45.72H507.591C508.391 45.72 508.791 46.12 508.791 46.92L508.451 51.24Z" fill="#61E191" fill-opacity="0.9"/>
</svg>
