<svg width="608" height="102" viewBox="0 0 608 102" fill="none" xmlns="http://www.w3.org/2000/svg">
<mask id="mask0_42_775" style="mask-type:luminance" maskUnits="userSpaceOnUse" x="0" y="0" width="608" height="102">
<path d="M0 0H608V102H0V0Z" fill="white"/>
</mask>
<g mask="url(#mask0_42_775)">
<path d="M598.751 95.8763C595.242 93.5809 592.786 90.8509 590.81 87.9183C590.972 87.1825 591.079 86.4361 591.079 85.6683V15.5319C591.079 6.95551 580.749 0 568.007 0H23.072C10.3299 0 2.66265e-06 6.95551 2.66265e-06 15.5319V85.6683C2.66265e-06 94.2474 10.3299 101.198 23.072 101.198H568.007C572.027 101.198 575.81 100.502 579.102 99.286C582.9 100.683 587.142 101.533 591.455 101.736C596.248 101.968 601.278 101.493 606.016 101.011C606.681 100.944 607.339 100.87 608 100.795C604.918 99.1661 601.564 97.7184 598.751 95.8763Z" fill="#E7476E" fill-opacity="0.3"/>
<path d="M604.523 100.156C600.207 100.583 595.753 100.943 591.504 100.737L591.502 100.737C587.286 100.539 583.145 99.7077 579.447 98.3475L579.101 98.2203L578.755 98.348C575.579 99.5211 571.914 100.198 568.007 100.198H23.072C16.8727 100.198 11.3051 98.5051 7.31604 95.8204C3.32092 93.1317 1 89.5239 1 85.6683V15.5319C1 11.6776 3.32092 8.0691 7.31622 5.37934C11.3053 2.69373 16.8729 1 23.072 1H568.007C574.206 1 579.774 2.69373 583.763 5.37934C587.758 8.0691 590.079 11.6776 590.079 15.5319V85.6683C590.079 86.3434 589.985 87.0148 589.833 87.7028L589.741 88.1216L589.981 88.4772C592.015 91.4958 594.561 94.3302 598.204 96.7131M604.523 100.156L598.204 96.7131M604.523 100.156C602.364 99.0862 600.14 97.9811 598.204 96.7131M604.523 100.156L598.204 96.7131" stroke="#E7476E" stroke-opacity="0.9" stroke-width="2"/>
</g>
<path d="M99.5866 39.4L98.4066 49.06H108.547L108.167 52H98.0466L96.8266 61.96H109.407L109.027 65H92.6866L96.2066 36.34H112.527L112.147 39.4H99.5866ZM113.374 65L116.954 35.54H120.454L116.874 65H113.374ZM148.493 61.74C148.866 61.74 149.146 61.8533 149.333 62.08C149.533 62.2933 149.606 62.5733 149.553 62.92L149.313 65H131.633L131.773 63.82C131.8 63.58 131.88 63.3267 132.013 63.06C132.146 62.7933 132.34 62.5533 132.593 62.34L142.113 53.08C143.006 52.2 143.813 51.3733 144.533 50.6C145.253 49.8133 145.86 49.0333 146.353 48.26C146.846 47.4733 147.226 46.68 147.493 45.88C147.76 45.0667 147.893 44.1867 147.893 43.24C147.893 42.5333 147.786 41.92 147.573 41.4C147.373 40.8667 147.093 40.4267 146.733 40.08C146.373 39.72 145.946 39.4533 145.453 39.28C144.96 39.0933 144.42 39 143.833 39C143.18 39 142.566 39.1067 141.993 39.32C141.42 39.5333 140.893 39.8333 140.413 40.22C139.946 40.6067 139.533 41.0667 139.173 41.6C138.813 42.1333 138.533 42.72 138.333 43.36C138.133 43.8133 137.893 44.12 137.613 44.28C137.333 44.4267 136.96 44.46 136.493 44.38L134.733 44.08C135.066 42.7733 135.54 41.62 136.153 40.62C136.78 39.62 137.513 38.78 138.353 38.1C139.193 37.42 140.12 36.9067 141.133 36.56C142.16 36.2133 143.246 36.04 144.393 36.04C145.433 36.04 146.38 36.2 147.233 36.52C148.1 36.8267 148.846 37.28 149.473 37.88C150.1 38.4667 150.586 39.1867 150.933 40.04C151.28 40.88 151.453 41.84 151.453 42.92C151.453 44.1467 151.266 45.2667 150.893 46.28C150.533 47.2933 150.04 48.2533 149.413 49.16C148.8 50.0533 148.08 50.9267 147.253 51.78C146.44 52.62 145.573 53.4867 144.653 54.38L136.633 62.24C137.193 62.0933 137.753 61.9733 138.313 61.88C138.873 61.7867 139.406 61.74 139.913 61.74H148.493ZM175.336 47.54C175.336 50.54 175.023 53.1533 174.396 55.38C173.77 57.6067 172.923 59.46 171.856 60.94C170.803 62.4067 169.57 63.5 168.156 64.22C166.743 64.94 165.256 65.3 163.696 65.3C162.523 65.3 161.443 65.06 160.456 64.58C159.483 64.1 158.636 63.3867 157.916 62.44C157.21 61.48 156.656 60.2867 156.256 58.86C155.87 57.42 155.676 55.74 155.676 53.82C155.676 50.82 155.983 48.2067 156.596 45.98C157.223 43.7533 158.063 41.9067 159.116 40.44C160.183 38.96 161.416 37.86 162.816 37.14C164.23 36.4067 165.723 36.04 167.296 36.04C168.456 36.04 169.53 36.28 170.516 36.76C171.503 37.24 172.35 37.96 173.056 38.92C173.776 39.8667 174.336 41.06 174.736 42.5C175.136 43.94 175.336 45.62 175.336 47.54ZM171.796 47.36C171.796 45.8533 171.67 44.5667 171.416 43.5C171.163 42.4333 170.816 41.5667 170.376 40.9C169.936 40.22 169.416 39.7267 168.816 39.42C168.23 39.1 167.603 38.94 166.936 38.94C165.963 38.94 165.01 39.2133 164.076 39.76C163.156 40.2933 162.336 41.16 161.616 42.36C160.896 43.5467 160.316 45.1 159.876 47.02C159.436 48.9267 159.216 51.26 159.216 54.02C159.216 55.5267 159.343 56.8133 159.596 57.88C159.85 58.9467 160.19 59.8133 160.616 60.48C161.056 61.1467 161.57 61.6333 162.156 61.94C162.743 62.2467 163.37 62.4 164.036 62.4C165.01 62.4 165.963 62.14 166.896 61.62C167.83 61.0867 168.656 60.2267 169.376 59.04C170.11 57.84 170.696 56.2867 171.136 54.38C171.576 52.46 171.796 50.12 171.796 47.36ZM195.499 62.38L195.159 65H180.939L181.279 62.38H186.899L189.339 42.56C189.366 42.2933 189.399 42.02 189.439 41.74C189.493 41.46 189.546 41.1733 189.599 40.88L184.479 45.28C184.293 45.4133 184.113 45.5 183.939 45.54C183.766 45.58 183.606 45.5867 183.459 45.56C183.326 45.52 183.206 45.4667 183.099 45.4C182.993 45.32 182.913 45.24 182.859 45.16L181.979 43.66L190.739 36.28H193.559L190.359 62.38H195.499ZM210.443 62.58C211.389 62.58 212.243 62.4267 213.003 62.12C213.763 61.8 214.409 61.36 214.943 60.8C215.476 60.2267 215.883 59.5467 216.163 58.76C216.456 57.96 216.603 57.08 216.603 56.12C216.603 55.2933 216.469 54.5933 216.203 54.02C215.949 53.4333 215.603 52.9533 215.163 52.58C214.723 52.2067 214.209 51.94 213.623 51.78C213.049 51.6067 212.443 51.52 211.803 51.52C211.056 51.52 210.316 51.6333 209.583 51.86C208.863 52.0733 208.209 52.4333 207.623 52.94C207.049 53.4333 206.583 54.0933 206.223 54.92C205.863 55.7333 205.683 56.7333 205.683 57.92C205.683 58.6 205.789 59.2267 206.003 59.8C206.216 60.3733 206.523 60.8667 206.923 61.28C207.323 61.68 207.816 62 208.403 62.24C209.003 62.4667 209.683 62.58 210.443 62.58ZM213.403 38.7C212.536 38.7 211.769 38.8533 211.103 39.16C210.436 39.4667 209.876 39.88 209.423 40.4C208.983 40.92 208.643 41.5333 208.403 42.24C208.176 42.9333 208.063 43.68 208.063 44.48C208.063 45.04 208.136 45.58 208.283 46.1C208.429 46.6067 208.663 47.06 208.983 47.46C209.316 47.8467 209.743 48.16 210.263 48.4C210.783 48.64 211.409 48.76 212.143 48.76C213.036 48.76 213.816 48.6067 214.483 48.3C215.163 47.98 215.723 47.5533 216.163 47.02C216.616 46.4867 216.949 45.8667 217.163 45.16C217.389 44.44 217.503 43.6867 217.503 42.9C217.503 42.3267 217.416 41.7867 217.243 41.28C217.069 40.76 216.809 40.3133 216.463 39.94C216.129 39.5533 215.703 39.2533 215.183 39.04C214.676 38.8133 214.083 38.7 213.403 38.7ZM215.743 50.08C217.169 50.5467 218.256 51.2867 219.003 52.3C219.763 53.3133 220.143 54.5933 220.143 56.14C220.143 57.5533 219.889 58.8267 219.383 59.96C218.876 61.0933 218.176 62.06 217.283 62.86C216.403 63.6467 215.349 64.2533 214.123 64.68C212.896 65.1067 211.563 65.32 210.123 65.32C208.909 65.32 207.809 65.1533 206.823 64.82C205.836 64.4733 204.996 63.9933 204.303 63.38C203.609 62.7533 203.069 62 202.683 61.12C202.309 60.24 202.123 59.26 202.123 58.18C202.123 56.0333 202.643 54.2733 203.683 52.9C204.736 51.5267 206.256 50.5667 208.243 50.02C207.069 49.5133 206.183 48.7867 205.583 47.84C204.996 46.88 204.703 45.7533 204.703 44.46C204.703 43.2867 204.929 42.1867 205.383 41.16C205.836 40.1333 206.463 39.24 207.263 38.48C208.063 37.72 209.009 37.1267 210.103 36.7C211.209 36.26 212.416 36.04 213.723 36.04C214.829 36.04 215.823 36.2133 216.703 36.56C217.583 36.9067 218.329 37.38 218.943 37.98C219.569 38.58 220.049 39.2867 220.383 40.1C220.716 40.9 220.883 41.7667 220.883 42.7C220.883 44.4733 220.443 46 219.563 47.28C218.696 48.5467 217.423 49.48 215.743 50.08ZM246.881 47.98C246.774 48.14 246.667 48.26 246.561 48.34C246.454 48.4067 246.321 48.44 246.161 48.44C245.974 48.44 245.767 48.3667 245.541 48.22C245.327 48.0733 245.061 47.9133 244.741 47.74C244.434 47.5533 244.054 47.3867 243.601 47.24C243.147 47.08 242.601 47 241.961 47C241.361 47 240.814 47.0867 240.321 47.26C239.827 47.42 239.401 47.6467 239.041 47.94C238.694 48.2333 238.421 48.58 238.221 48.98C238.034 49.3667 237.941 49.78 237.941 50.22C237.941 50.8467 238.147 51.3467 238.561 51.72C238.974 52.0933 239.494 52.42 240.121 52.7C240.747 52.9667 241.421 53.2267 242.141 53.48C242.861 53.7333 243.534 54.0533 244.161 54.44C244.787 54.8267 245.307 55.32 245.721 55.92C246.134 56.52 246.341 57.3 246.341 58.26C246.341 59.1933 246.154 60.0867 245.781 60.94C245.421 61.7933 244.894 62.5467 244.201 63.2C243.521 63.84 242.694 64.3533 241.721 64.74C240.761 65.1267 239.681 65.32 238.481 65.32C237.187 65.32 236.041 65.0933 235.041 64.64C234.054 64.1733 233.247 63.58 232.621 62.86L233.501 61.5C233.621 61.3267 233.747 61.1933 233.881 61.1C234.027 61.0067 234.214 60.96 234.441 60.96C234.654 60.96 234.867 61.0533 235.081 61.24C235.294 61.4267 235.561 61.64 235.881 61.88C236.201 62.1067 236.601 62.3133 237.081 62.5C237.574 62.6867 238.194 62.78 238.941 62.78C239.594 62.78 240.181 62.68 240.701 62.48C241.234 62.28 241.681 62.0133 242.041 61.68C242.414 61.3467 242.694 60.96 242.881 60.52C243.081 60.0667 243.181 59.5867 243.181 59.08C243.181 58.4 242.974 57.86 242.561 57.46C242.147 57.06 241.627 56.7267 241.001 56.46C240.374 56.1933 239.701 55.9467 238.981 55.72C238.261 55.48 237.587 55.18 236.961 54.82C236.334 54.4467 235.814 53.9667 235.401 53.38C234.987 52.7933 234.781 52.0133 234.781 51.04C234.781 50.1867 234.947 49.3667 235.281 48.58C235.627 47.78 236.121 47.0733 236.761 46.46C237.401 45.8467 238.174 45.36 239.081 45C240.001 44.6267 241.034 44.44 242.181 44.44C243.394 44.44 244.461 44.6467 245.381 45.06C246.314 45.46 247.114 46.0067 247.781 46.7L246.881 47.98ZM260.136 47.02C259.296 47.02 258.523 47.1933 257.816 47.54C257.11 47.8867 256.483 48.3667 255.936 48.98C255.39 49.58 254.923 50.2933 254.536 51.12C254.15 51.9333 253.85 52.8133 253.636 53.76C255.69 53.5067 257.336 53.22 258.576 52.9C259.816 52.5667 260.77 52.2133 261.436 51.84C262.103 51.4533 262.543 51.04 262.756 50.6C262.97 50.16 263.076 49.7 263.076 49.22C263.076 48.98 263.023 48.7333 262.916 48.48C262.81 48.2133 262.636 47.9733 262.396 47.76C262.17 47.5467 261.87 47.3733 261.496 47.24C261.123 47.0933 260.67 47.02 260.136 47.02ZM265.776 61.26C265.096 61.9667 264.43 62.5733 263.776 63.08C263.123 63.5733 262.456 63.9867 261.776 64.32C261.11 64.6533 260.403 64.8933 259.656 65.04C258.923 65.2 258.13 65.28 257.276 65.28C256.116 65.28 255.076 65.0867 254.156 64.7C253.236 64.3133 252.456 63.7667 251.816 63.06C251.176 62.34 250.683 61.4733 250.336 60.46C249.99 59.4467 249.816 58.3133 249.816 57.06C249.816 56.02 249.923 54.9867 250.136 53.96C250.363 52.92 250.683 51.9333 251.096 51C251.523 50.0667 252.036 49.2 252.636 48.4C253.25 47.6 253.943 46.9133 254.716 46.34C255.503 45.7533 256.363 45.2933 257.296 44.96C258.243 44.6267 259.256 44.46 260.336 44.46C261.363 44.46 262.25 44.6067 262.996 44.9C263.743 45.1933 264.356 45.5667 264.836 46.02C265.316 46.4733 265.67 46.9733 265.896 47.52C266.136 48.0667 266.256 48.5867 266.256 49.08C266.256 49.96 266.076 50.7733 265.716 51.52C265.356 52.2533 264.696 52.92 263.736 53.52C262.776 54.1067 261.456 54.62 259.776 55.06C258.096 55.5 255.936 55.8533 253.296 56.12C253.296 56.2667 253.29 56.4133 253.276 56.56C253.276 56.6933 253.276 56.8333 253.276 56.98C253.276 58.7667 253.663 60.1333 254.436 61.08C255.223 62.0133 256.403 62.48 257.976 62.48C258.616 62.48 259.183 62.4133 259.676 62.28C260.183 62.1467 260.63 61.9867 261.016 61.8C261.416 61.6 261.763 61.3867 262.056 61.16C262.363 60.92 262.636 60.7067 262.876 60.52C263.13 60.32 263.363 60.1533 263.576 60.02C263.79 59.8867 264.003 59.82 264.216 59.82C264.47 59.82 264.696 59.9333 264.896 60.16L265.776 61.26ZM285.072 47.7L283.052 64.34L282.112 68.48C281.965 68.96 281.745 69.3267 281.452 69.58C281.172 69.8467 280.779 69.98 280.272 69.98H278.892L281.572 47.76L279.572 47.5C279.332 47.4333 279.139 47.3333 278.992 47.2C278.859 47.0667 278.805 46.86 278.832 46.58L279.012 45.14H281.892L282.132 43.18C282.279 42.02 282.565 40.9933 282.992 40.1C283.432 39.1933 283.979 38.4333 284.632 37.82C285.299 37.1933 286.052 36.72 286.892 36.4C287.745 36.08 288.665 35.92 289.652 35.92C290.465 35.92 291.219 36.0533 291.912 36.32L291.572 38.16C291.519 38.4267 291.339 38.56 291.032 38.56C290.725 38.56 290.339 38.56 289.872 38.56C289.299 38.56 288.765 38.6467 288.272 38.82C287.792 38.98 287.365 39.2467 286.992 39.62C286.619 39.9933 286.299 40.48 286.032 41.08C285.779 41.68 285.599 42.4133 285.492 43.28L285.272 45.14H290.332L289.992 47.7H285.072ZM309.484 44.74L307.044 65H305.284C304.418 65 303.984 64.5733 303.984 63.72L304.284 60.02C303.218 61.7533 302.011 63.0667 300.664 63.96C299.331 64.84 297.958 65.28 296.544 65.28C295.691 65.28 294.938 65.1133 294.284 64.78C293.631 64.4333 293.098 63.9333 292.684 63.28C292.284 62.6267 292.011 61.8267 291.864 60.88C291.718 59.9333 291.724 58.8467 291.884 57.62L293.404 44.74H296.944L295.424 57.62C295.238 59.2067 295.331 60.3867 295.704 61.16C296.091 61.9333 296.811 62.32 297.864 62.32C298.478 62.32 299.111 62.1533 299.764 61.82C300.418 61.4867 301.044 61.0133 301.644 60.4C302.244 59.7867 302.804 59.0467 303.324 58.18C303.858 57.3 304.311 56.3267 304.684 55.26L305.944 44.74H309.484ZM317.436 49.86C318.516 48.0733 319.736 46.7267 321.096 45.82C322.456 44.9 323.856 44.44 325.296 44.44C326.15 44.44 326.896 44.6133 327.536 44.96C328.19 45.2933 328.716 45.7867 329.116 46.44C329.53 47.0933 329.81 47.9 329.956 48.86C330.103 49.8067 330.103 50.8867 329.956 52.1L328.436 65H324.896L326.416 52.1C326.603 50.5 326.503 49.32 326.116 48.56C325.73 47.7867 325.016 47.4 323.976 47.4C323.336 47.4 322.683 47.5733 322.016 47.92C321.363 48.2667 320.73 48.76 320.116 49.4C319.503 50.04 318.93 50.8133 318.396 51.72C317.876 52.6133 317.43 53.6133 317.056 54.72L315.896 65H312.336L314.776 44.72H316.536C317.336 44.72 317.736 45.12 317.736 45.92L317.436 49.86ZM347.847 49.16C347.341 48.44 346.727 47.94 346.007 47.66C345.301 47.3667 344.581 47.22 343.847 47.22C342.794 47.22 341.847 47.5333 341.007 48.16C340.167 48.7867 339.447 49.6 338.847 50.6C338.261 51.5867 337.807 52.6933 337.487 53.92C337.167 55.1467 337.007 56.3533 337.007 57.54C337.007 59.1267 337.287 60.34 337.847 61.18C338.421 62.0067 339.234 62.42 340.287 62.42C340.927 62.42 341.574 62.22 342.227 61.82C342.881 61.42 343.507 60.8667 344.107 60.16C344.721 59.44 345.287 58.5933 345.807 57.62C346.341 56.6467 346.801 55.58 347.187 54.42L347.847 49.16ZM353.007 35.54L349.387 65H347.527C347.061 65 346.747 64.88 346.587 64.64C346.427 64.4 346.347 64.1067 346.347 63.76L346.727 59.5C346.221 60.38 345.667 61.1733 345.067 61.88C344.467 62.5867 343.834 63.1933 343.167 63.7C342.514 64.2067 341.827 64.6 341.107 64.88C340.401 65.1467 339.681 65.28 338.947 65.28C337.214 65.28 335.867 64.6533 334.907 63.4C333.947 62.1333 333.467 60.3 333.467 57.9C333.467 56.8067 333.581 55.7133 333.807 54.62C334.034 53.5267 334.354 52.48 334.767 51.48C335.194 50.48 335.701 49.5533 336.287 48.7C336.887 47.8333 337.554 47.0867 338.287 46.46C339.021 45.8333 339.807 45.34 340.647 44.98C341.501 44.62 342.394 44.44 343.327 44.44C344.327 44.44 345.234 44.64 346.047 45.04C346.874 45.4267 347.574 45.98 348.147 46.7L349.527 35.54H353.007ZM362.599 62.5C363.572 62.5 364.452 62.2333 365.239 61.7C366.039 61.1667 366.719 60.46 367.279 59.58C367.852 58.6867 368.292 57.66 368.599 56.5C368.906 55.34 369.059 54.1267 369.059 52.86C369.059 50.9933 368.686 49.5933 367.939 48.66C367.206 47.7133 366.146 47.24 364.759 47.24C363.772 47.24 362.879 47.5067 362.079 48.04C361.292 48.56 360.619 49.26 360.059 50.14C359.499 51.02 359.066 52.04 358.759 53.2C358.452 54.36 358.299 55.5733 358.299 56.84C358.299 58.7067 358.666 60.12 359.399 61.08C360.132 62.0267 361.199 62.5 362.599 62.5ZM362.259 65.28C361.152 65.28 360.139 65.0933 359.219 64.72C358.299 64.3333 357.506 63.78 356.839 63.06C356.172 62.34 355.652 61.46 355.279 60.42C354.906 59.38 354.719 58.1933 354.719 56.86C354.719 55.1533 354.986 53.5467 355.519 52.04C356.052 50.5333 356.786 49.22 357.719 48.1C358.652 46.9667 359.746 46.0733 360.999 45.42C362.266 44.7667 363.626 44.44 365.079 44.44C366.186 44.44 367.199 44.6333 368.119 45.02C369.039 45.3933 369.832 45.94 370.499 46.66C371.166 47.38 371.686 48.26 372.059 49.3C372.432 50.34 372.619 51.52 372.619 52.84C372.619 54.5333 372.352 56.1333 371.819 57.64C371.286 59.1467 370.552 60.4667 369.619 61.6C368.699 62.7333 367.606 63.6333 366.339 64.3C365.072 64.9533 363.712 65.28 362.259 65.28ZM371.279 36.02L366.399 41.18C366.212 41.38 366.032 41.5267 365.859 41.62C365.686 41.7 365.472 41.74 365.219 41.74H363.259L366.519 36.9C366.719 36.5933 366.926 36.3733 367.139 36.24C367.366 36.0933 367.679 36.02 368.079 36.02H371.279ZM405.364 39.48H396.924L393.764 65H390.044L393.164 39.48H384.684L385.044 36.34H405.744L405.364 39.48ZM411.64 44.74L409.2 65H405.7L408.14 44.74H411.64ZM413 38.38C413 38.7267 412.927 39.0533 412.78 39.36C412.647 39.6533 412.46 39.92 412.22 40.16C411.994 40.3867 411.727 40.5667 411.42 40.7C411.127 40.8333 410.82 40.9 410.5 40.9C410.194 40.9 409.894 40.8333 409.6 40.7C409.307 40.5667 409.047 40.3867 408.82 40.16C408.607 39.92 408.434 39.6533 408.3 39.36C408.167 39.0533 408.1 38.7267 408.1 38.38C408.1 38.0333 408.167 37.7067 408.3 37.4C408.434 37.0933 408.614 36.8267 408.84 36.6C409.067 36.36 409.327 36.1733 409.62 36.04C409.914 35.8933 410.214 35.82 410.52 35.82C410.84 35.82 411.147 35.8867 411.44 36.02C411.747 36.1533 412.014 36.34 412.24 36.58C412.467 36.8067 412.647 37.08 412.78 37.4C412.927 37.7067 413 38.0333 413 38.38ZM421.799 35.54L419.679 52.88H420.279C420.559 52.88 420.786 52.8467 420.959 52.78C421.132 52.7 421.319 52.5467 421.519 52.32L428.239 45.46C428.426 45.2333 428.626 45.06 428.839 44.94C429.052 44.8067 429.312 44.74 429.619 44.74H432.779L424.959 52.68C424.559 53.1467 424.152 53.5 423.739 53.74C423.952 53.9 424.132 54.0867 424.279 54.3C424.439 54.5 424.586 54.7333 424.719 55L430.799 65H427.739C427.446 65 427.199 64.9533 426.999 64.86C426.812 64.7533 426.659 64.5667 426.539 64.3L421.379 56C421.219 55.72 421.052 55.54 420.879 55.46C420.706 55.3667 420.432 55.32 420.059 55.32H419.379L418.199 65H414.679L418.299 35.54H421.799ZM451.966 39.48H443.526L440.366 65H436.646L439.766 39.48H431.286L431.646 36.34H452.346L451.966 39.48ZM455.646 62.5C456.619 62.5 457.499 62.2333 458.286 61.7C459.086 61.1667 459.766 60.46 460.326 59.58C460.899 58.6867 461.339 57.66 461.646 56.5C461.953 55.34 462.106 54.1267 462.106 52.86C462.106 50.9933 461.733 49.5933 460.986 48.66C460.253 47.7133 459.193 47.24 457.806 47.24C456.819 47.24 455.926 47.5067 455.126 48.04C454.339 48.56 453.666 49.26 453.106 50.14C452.546 51.02 452.113 52.04 451.806 53.2C451.499 54.36 451.346 55.5733 451.346 56.84C451.346 58.7067 451.713 60.12 452.446 61.08C453.179 62.0267 454.246 62.5 455.646 62.5ZM455.306 65.28C454.199 65.28 453.186 65.0933 452.266 64.72C451.346 64.3333 450.553 63.78 449.886 63.06C449.219 62.34 448.699 61.46 448.326 60.42C447.953 59.38 447.766 58.1933 447.766 56.86C447.766 55.1533 448.033 53.5467 448.566 52.04C449.099 50.5333 449.833 49.22 450.766 48.1C451.699 46.9667 452.793 46.0733 454.046 45.42C455.313 44.7667 456.673 44.44 458.126 44.44C459.233 44.44 460.246 44.6333 461.166 45.02C462.086 45.3933 462.879 45.94 463.546 46.66C464.213 47.38 464.733 48.26 465.106 49.3C465.479 50.34 465.666 51.52 465.666 52.84C465.666 54.5333 465.399 56.1333 464.866 57.64C464.333 59.1467 463.599 60.4667 462.666 61.6C461.746 62.7333 460.653 63.6333 459.386 64.3C458.119 64.9533 456.759 65.28 455.306 65.28ZM475.588 35.54L473.468 52.88H474.068C474.348 52.88 474.575 52.8467 474.748 52.78C474.921 52.7 475.108 52.5467 475.308 52.32L482.028 45.46C482.215 45.2333 482.415 45.06 482.628 44.94C482.841 44.8067 483.101 44.74 483.408 44.74H486.568L478.748 52.68C478.348 53.1467 477.941 53.5 477.528 53.74C477.741 53.9 477.921 54.0867 478.068 54.3C478.228 54.5 478.375 54.7333 478.508 55L484.588 65H481.528C481.235 65 480.988 64.9533 480.788 64.86C480.601 64.7533 480.448 64.5667 480.328 64.3L475.168 56C475.008 55.72 474.841 55.54 474.668 55.46C474.495 55.3667 474.221 55.32 473.848 55.32H473.168L471.988 65H468.468L472.088 35.54H475.588Z" fill="#E7476E"/>
</svg>
