<svg width="608" height="102" viewBox="0 0 608 102" fill="none" xmlns="http://www.w3.org/2000/svg">
<mask id="mask0_42_773" style="mask-type:luminance" maskUnits="userSpaceOnUse" x="0" y="0" width="608" height="102">
<path d="M0 0H608V102H0V0Z" fill="white"/>
</mask>
<g mask="url(#mask0_42_773)">
<path d="M598.751 95.8763C595.242 93.5809 592.786 90.8509 590.81 87.9183C590.972 87.1825 591.079 86.4361 591.079 85.6683V15.5319C591.079 6.95551 580.749 0 568.007 0H23.072C10.3299 0 2.66265e-06 6.95551 2.66265e-06 15.5319V85.6683C2.66265e-06 94.2474 10.3299 101.198 23.072 101.198H568.007C572.027 101.198 575.81 100.502 579.102 99.286C582.9 100.683 587.142 101.533 591.455 101.736C596.248 101.968 601.278 101.493 606.016 101.011C606.681 100.944 607.339 100.87 608 100.795C604.918 99.1661 601.564 97.7184 598.751 95.8763Z" fill="#F59EE2" fill-opacity="0.3"/>
<path d="M604.523 100.156C600.207 100.583 595.753 100.943 591.504 100.737L591.502 100.737C587.286 100.539 583.145 99.7077 579.447 98.3475L579.101 98.2203L578.755 98.348C575.579 99.5211 571.914 100.198 568.007 100.198H23.072C16.8727 100.198 11.3051 98.5051 7.31604 95.8204C3.32092 93.1317 1 89.5239 1 85.6683V15.5319C1 11.6776 3.32092 8.0691 7.31622 5.37934C11.3053 2.69373 16.8729 1 23.072 1H568.007C574.206 1 579.774 2.69373 583.763 5.37934C587.758 8.0691 590.079 11.6776 590.079 15.5319V85.6683C590.079 86.3434 589.985 87.0148 589.833 87.7028L589.741 88.1216L589.981 88.4772C592.015 91.4958 594.561 94.3302 598.204 96.7131M604.523 100.156L598.204 96.7131M604.523 100.156C602.364 99.0862 600.14 97.9811 598.204 96.7131M604.523 100.156L598.204 96.7131" stroke="#FB5CC2" stroke-opacity="0.9" stroke-width="2"/>
</g>
<path d="M83.0436 40.4L81.8636 50.06H92.0036L91.6236 53H81.5036L80.2836 62.96H92.8636L92.4836 66H76.1436L79.6636 37.34H95.9836L95.6036 40.4H83.0436ZM96.8308 66L100.411 36.54H103.911L100.331 66H96.8308ZM131.95 62.74C132.323 62.74 132.603 62.8533 132.79 63.08C132.99 63.2933 133.063 63.5733 133.01 63.92L132.77 66H115.09L115.23 64.82C115.257 64.58 115.337 64.3267 115.47 64.06C115.603 63.7933 115.797 63.5533 116.05 63.34L125.57 54.08C126.463 53.2 127.27 52.3733 127.99 51.6C128.71 50.8133 129.317 50.0333 129.81 49.26C130.303 48.4733 130.683 47.68 130.95 46.88C131.217 46.0667 131.35 45.1867 131.35 44.24C131.35 43.5333 131.243 42.92 131.03 42.4C130.83 41.8667 130.55 41.4267 130.19 41.08C129.83 40.72 129.403 40.4533 128.91 40.28C128.417 40.0933 127.877 40 127.29 40C126.637 40 126.023 40.1067 125.45 40.32C124.877 40.5333 124.35 40.8333 123.87 41.22C123.403 41.6067 122.99 42.0667 122.63 42.6C122.27 43.1333 121.99 43.72 121.79 44.36C121.59 44.8133 121.35 45.12 121.07 45.28C120.79 45.4267 120.417 45.46 119.95 45.38L118.19 45.08C118.523 43.7733 118.997 42.62 119.61 41.62C120.237 40.62 120.97 39.78 121.81 39.1C122.65 38.42 123.577 37.9067 124.59 37.56C125.617 37.2133 126.703 37.04 127.85 37.04C128.89 37.04 129.837 37.2 130.69 37.52C131.557 37.8267 132.303 38.28 132.93 38.88C133.557 39.4667 134.043 40.1867 134.39 41.04C134.737 41.88 134.91 42.84 134.91 43.92C134.91 45.1467 134.723 46.2667 134.35 47.28C133.99 48.2933 133.497 49.2533 132.87 50.16C132.257 51.0533 131.537 51.9267 130.71 52.78C129.897 53.62 129.03 54.4867 128.11 55.38L120.09 63.24C120.65 63.0933 121.21 62.9733 121.77 62.88C122.33 62.7867 122.863 62.74 123.37 62.74H131.95ZM158.793 48.54C158.793 51.54 158.48 54.1533 157.853 56.38C157.227 58.6067 156.38 60.46 155.313 61.94C154.26 63.4067 153.027 64.5 151.613 65.22C150.2 65.94 148.713 66.3 147.153 66.3C145.98 66.3 144.9 66.06 143.913 65.58C142.94 65.1 142.093 64.3867 141.373 63.44C140.667 62.48 140.113 61.2867 139.713 59.86C139.327 58.42 139.133 56.74 139.133 54.82C139.133 51.82 139.44 49.2067 140.053 46.98C140.68 44.7533 141.52 42.9067 142.573 41.44C143.64 39.96 144.873 38.86 146.273 38.14C147.687 37.4067 149.18 37.04 150.753 37.04C151.913 37.04 152.987 37.28 153.973 37.76C154.96 38.24 155.807 38.96 156.513 39.92C157.233 40.8667 157.793 42.06 158.193 43.5C158.593 44.94 158.793 46.62 158.793 48.54ZM155.253 48.36C155.253 46.8533 155.127 45.5667 154.873 44.5C154.62 43.4333 154.273 42.5667 153.833 41.9C153.393 41.22 152.873 40.7267 152.273 40.42C151.687 40.1 151.06 39.94 150.393 39.94C149.42 39.94 148.467 40.2133 147.533 40.76C146.613 41.2933 145.793 42.16 145.073 43.36C144.353 44.5467 143.773 46.1 143.333 48.02C142.893 49.9267 142.673 52.26 142.673 55.02C142.673 56.5267 142.8 57.8133 143.053 58.88C143.307 59.9467 143.647 60.8133 144.073 61.48C144.513 62.1467 145.027 62.6333 145.613 62.94C146.2 63.2467 146.827 63.4 147.493 63.4C148.467 63.4 149.42 63.14 150.353 62.62C151.287 62.0867 152.113 61.2267 152.833 60.04C153.567 58.84 154.153 57.2867 154.593 55.38C155.033 53.46 155.253 51.12 155.253 48.36ZM178.956 63.38L178.616 66H164.396L164.736 63.38H170.356L172.796 43.56C172.823 43.2933 172.856 43.02 172.896 42.74C172.95 42.46 173.003 42.1733 173.056 41.88L167.936 46.28C167.75 46.4133 167.57 46.5 167.396 46.54C167.223 46.58 167.063 46.5867 166.916 46.56C166.783 46.52 166.663 46.4667 166.556 46.4C166.45 46.32 166.37 46.24 166.316 46.16L165.436 44.66L174.196 37.28H177.016L173.816 63.38H178.956ZM205.2 48.54C205.2 51.54 204.886 54.1533 204.26 56.38C203.633 58.6067 202.786 60.46 201.72 61.94C200.666 63.4067 199.433 64.5 198.02 65.22C196.606 65.94 195.12 66.3 193.56 66.3C192.386 66.3 191.306 66.06 190.32 65.58C189.346 65.1 188.5 64.3867 187.78 63.44C187.073 62.48 186.52 61.2867 186.12 59.86C185.733 58.42 185.54 56.74 185.54 54.82C185.54 51.82 185.846 49.2067 186.46 46.98C187.086 44.7533 187.926 42.9067 188.98 41.44C190.046 39.96 191.28 38.86 192.68 38.14C194.093 37.4067 195.586 37.04 197.16 37.04C198.32 37.04 199.393 37.28 200.38 37.76C201.366 38.24 202.213 38.96 202.92 39.92C203.64 40.8667 204.2 42.06 204.6 43.5C205 44.94 205.2 46.62 205.2 48.54ZM201.66 48.36C201.66 46.8533 201.533 45.5667 201.28 44.5C201.026 43.4333 200.68 42.5667 200.24 41.9C199.8 41.22 199.28 40.7267 198.68 40.42C198.093 40.1 197.466 39.94 196.8 39.94C195.826 39.94 194.873 40.2133 193.94 40.76C193.02 41.2933 192.2 42.16 191.48 43.36C190.76 44.5467 190.18 46.1 189.74 48.02C189.3 49.9267 189.08 52.26 189.08 55.02C189.08 56.5267 189.206 57.8133 189.46 58.88C189.713 59.9467 190.053 60.8133 190.48 61.48C190.92 62.1467 191.433 62.6333 192.02 62.94C192.606 63.2467 193.233 63.4 193.9 63.4C194.873 63.4 195.826 63.14 196.76 62.62C197.693 62.0867 198.52 61.2267 199.24 60.04C199.973 58.84 200.56 57.2867 201 55.38C201.44 53.46 201.66 51.12 201.66 48.36ZM230.338 48.98C230.231 49.14 230.124 49.26 230.018 49.34C229.911 49.4067 229.778 49.44 229.618 49.44C229.431 49.44 229.224 49.3667 228.998 49.22C228.784 49.0733 228.518 48.9133 228.198 48.74C227.891 48.5533 227.511 48.3867 227.058 48.24C226.604 48.08 226.058 48 225.418 48C224.818 48 224.271 48.0867 223.778 48.26C223.284 48.42 222.858 48.6467 222.498 48.94C222.151 49.2333 221.878 49.58 221.678 49.98C221.491 50.3667 221.398 50.78 221.398 51.22C221.398 51.8467 221.604 52.3467 222.018 52.72C222.431 53.0933 222.951 53.42 223.578 53.7C224.204 53.9667 224.878 54.2267 225.598 54.48C226.318 54.7333 226.991 55.0533 227.618 55.44C228.244 55.8267 228.764 56.32 229.178 56.92C229.591 57.52 229.798 58.3 229.798 59.26C229.798 60.1933 229.611 61.0867 229.238 61.94C228.878 62.7933 228.351 63.5467 227.658 64.2C226.978 64.84 226.151 65.3533 225.178 65.74C224.218 66.1267 223.138 66.32 221.938 66.32C220.644 66.32 219.498 66.0933 218.498 65.64C217.511 65.1733 216.704 64.58 216.078 63.86L216.958 62.5C217.078 62.3267 217.204 62.1933 217.338 62.1C217.484 62.0067 217.671 61.96 217.898 61.96C218.111 61.96 218.324 62.0533 218.538 62.24C218.751 62.4267 219.018 62.64 219.338 62.88C219.658 63.1067 220.058 63.3133 220.538 63.5C221.031 63.6867 221.651 63.78 222.398 63.78C223.051 63.78 223.638 63.68 224.158 63.48C224.691 63.28 225.138 63.0133 225.498 62.68C225.871 62.3467 226.151 61.96 226.338 61.52C226.538 61.0667 226.638 60.5867 226.638 60.08C226.638 59.4 226.431 58.86 226.018 58.46C225.604 58.06 225.084 57.7267 224.458 57.46C223.831 57.1933 223.158 56.9467 222.438 56.72C221.718 56.48 221.044 56.18 220.418 55.82C219.791 55.4467 219.271 54.9667 218.858 54.38C218.444 53.7933 218.238 53.0133 218.238 52.04C218.238 51.1867 218.404 50.3667 218.738 49.58C219.084 48.78 219.578 48.0733 220.218 47.46C220.858 46.8467 221.631 46.36 222.538 46C223.458 45.6267 224.491 45.44 225.638 45.44C226.851 45.44 227.918 45.6467 228.838 46.06C229.771 46.46 230.571 47.0067 231.238 47.7L230.338 48.98ZM243.593 48.02C242.753 48.02 241.98 48.1933 241.273 48.54C240.567 48.8867 239.94 49.3667 239.393 49.98C238.847 50.58 238.38 51.2933 237.993 52.12C237.607 52.9333 237.307 53.8133 237.093 54.76C239.147 54.5067 240.793 54.22 242.033 53.9C243.273 53.5667 244.227 53.2133 244.893 52.84C245.56 52.4533 246 52.04 246.213 51.6C246.427 51.16 246.533 50.7 246.533 50.22C246.533 49.98 246.48 49.7333 246.373 49.48C246.267 49.2133 246.093 48.9733 245.853 48.76C245.627 48.5467 245.327 48.3733 244.953 48.24C244.58 48.0933 244.127 48.02 243.593 48.02ZM249.233 62.26C248.553 62.9667 247.887 63.5733 247.233 64.08C246.58 64.5733 245.913 64.9867 245.233 65.32C244.567 65.6533 243.86 65.8933 243.113 66.04C242.38 66.2 241.587 66.28 240.733 66.28C239.573 66.28 238.533 66.0867 237.613 65.7C236.693 65.3133 235.913 64.7667 235.273 64.06C234.633 63.34 234.14 62.4733 233.793 61.46C233.447 60.4467 233.273 59.3133 233.273 58.06C233.273 57.02 233.38 55.9867 233.593 54.96C233.82 53.92 234.14 52.9333 234.553 52C234.98 51.0667 235.493 50.2 236.093 49.4C236.707 48.6 237.4 47.9133 238.173 47.34C238.96 46.7533 239.82 46.2933 240.753 45.96C241.7 45.6267 242.713 45.46 243.793 45.46C244.82 45.46 245.707 45.6067 246.453 45.9C247.2 46.1933 247.813 46.5667 248.293 47.02C248.773 47.4733 249.127 47.9733 249.353 48.52C249.593 49.0667 249.713 49.5867 249.713 50.08C249.713 50.96 249.533 51.7733 249.173 52.52C248.813 53.2533 248.153 53.92 247.193 54.52C246.233 55.1067 244.913 55.62 243.233 56.06C241.553 56.5 239.393 56.8533 236.753 57.12C236.753 57.2667 236.747 57.4133 236.733 57.56C236.733 57.6933 236.733 57.8333 236.733 57.98C236.733 59.7667 237.12 61.1333 237.893 62.08C238.68 63.0133 239.86 63.48 241.433 63.48C242.073 63.48 242.64 63.4133 243.133 63.28C243.64 63.1467 244.087 62.9867 244.473 62.8C244.873 62.6 245.22 62.3867 245.513 62.16C245.82 61.92 246.093 61.7067 246.333 61.52C246.587 61.32 246.82 61.1533 247.033 61.02C247.247 60.8867 247.46 60.82 247.673 60.82C247.927 60.82 248.153 60.9333 248.353 61.16L249.233 62.26ZM268.529 48.7L266.509 65.34L265.569 69.48C265.422 69.96 265.202 70.3267 264.909 70.58C264.629 70.8467 264.236 70.98 263.729 70.98H262.349L265.029 48.76L263.029 48.5C262.789 48.4333 262.596 48.3333 262.449 48.2C262.316 48.0667 262.262 47.86 262.289 47.58L262.469 46.14H265.349L265.589 44.18C265.736 43.02 266.022 41.9933 266.449 41.1C266.889 40.1933 267.436 39.4333 268.089 38.82C268.756 38.1933 269.509 37.72 270.349 37.4C271.202 37.08 272.122 36.92 273.109 36.92C273.922 36.92 274.676 37.0533 275.369 37.32L275.029 39.16C274.976 39.4267 274.796 39.56 274.489 39.56C274.182 39.56 273.796 39.56 273.329 39.56C272.756 39.56 272.222 39.6467 271.729 39.82C271.249 39.98 270.822 40.2467 270.449 40.62C270.076 40.9933 269.756 41.48 269.489 42.08C269.236 42.68 269.056 43.4133 268.949 44.28L268.729 46.14H273.789L273.449 48.7H268.529ZM292.941 45.74L290.501 66H288.741C287.875 66 287.441 65.5733 287.441 64.72L287.741 61.02C286.675 62.7533 285.468 64.0667 284.121 64.96C282.788 65.84 281.415 66.28 280.001 66.28C279.148 66.28 278.395 66.1133 277.741 65.78C277.088 65.4333 276.555 64.9333 276.141 64.28C275.741 63.6267 275.468 62.8267 275.321 61.88C275.175 60.9333 275.181 59.8467 275.341 58.62L276.861 45.74H280.401L278.881 58.62C278.695 60.2067 278.788 61.3867 279.161 62.16C279.548 62.9333 280.268 63.32 281.321 63.32C281.935 63.32 282.568 63.1533 283.221 62.82C283.875 62.4867 284.501 62.0133 285.101 61.4C285.701 60.7867 286.261 60.0467 286.781 59.18C287.315 58.3 287.768 57.3267 288.141 56.26L289.401 45.74H292.941ZM300.893 50.86C301.973 49.0733 303.193 47.7267 304.553 46.82C305.913 45.9 307.313 45.44 308.753 45.44C309.607 45.44 310.353 45.6133 310.993 45.96C311.647 46.2933 312.173 46.7867 312.573 47.44C312.987 48.0933 313.267 48.9 313.413 49.86C313.56 50.8067 313.56 51.8867 313.413 53.1L311.893 66H308.353L309.873 53.1C310.06 51.5 309.96 50.32 309.573 49.56C309.187 48.7867 308.473 48.4 307.433 48.4C306.793 48.4 306.14 48.5733 305.473 48.92C304.82 49.2667 304.187 49.76 303.573 50.4C302.96 51.04 302.387 51.8133 301.853 52.72C301.333 53.6133 300.887 54.6133 300.513 55.72L299.353 66H295.793L298.233 45.72H299.993C300.793 45.72 301.193 46.12 301.193 46.92L300.893 50.86ZM331.304 50.16C330.798 49.44 330.184 48.94 329.464 48.66C328.758 48.3667 328.038 48.22 327.304 48.22C326.251 48.22 325.304 48.5333 324.464 49.16C323.624 49.7867 322.904 50.6 322.304 51.6C321.718 52.5867 321.264 53.6933 320.944 54.92C320.624 56.1467 320.464 57.3533 320.464 58.54C320.464 60.1267 320.744 61.34 321.304 62.18C321.878 63.0067 322.691 63.42 323.744 63.42C324.384 63.42 325.031 63.22 325.684 62.82C326.338 62.42 326.964 61.8667 327.564 61.16C328.178 60.44 328.744 59.5933 329.264 58.62C329.798 57.6467 330.258 56.58 330.644 55.42L331.304 50.16ZM336.464 36.54L332.844 66H330.984C330.518 66 330.204 65.88 330.044 65.64C329.884 65.4 329.804 65.1067 329.804 64.76L330.184 60.5C329.678 61.38 329.124 62.1733 328.524 62.88C327.924 63.5867 327.291 64.1933 326.624 64.7C325.971 65.2067 325.284 65.6 324.564 65.88C323.858 66.1467 323.138 66.28 322.404 66.28C320.671 66.28 319.324 65.6533 318.364 64.4C317.404 63.1333 316.924 61.3 316.924 58.9C316.924 57.8067 317.038 56.7133 317.264 55.62C317.491 54.5267 317.811 53.48 318.224 52.48C318.651 51.48 319.158 50.5533 319.744 49.7C320.344 48.8333 321.011 48.0867 321.744 47.46C322.478 46.8333 323.264 46.34 324.104 45.98C324.958 45.62 325.851 45.44 326.784 45.44C327.784 45.44 328.691 45.64 329.504 46.04C330.331 46.4267 331.031 46.98 331.604 47.7L332.984 36.54H336.464ZM346.056 63.5C347.029 63.5 347.909 63.2333 348.696 62.7C349.496 62.1667 350.176 61.46 350.736 60.58C351.309 59.6867 351.749 58.66 352.056 57.5C352.363 56.34 352.516 55.1267 352.516 53.86C352.516 51.9933 352.143 50.5933 351.396 49.66C350.663 48.7133 349.603 48.24 348.216 48.24C347.229 48.24 346.336 48.5067 345.536 49.04C344.749 49.56 344.076 50.26 343.516 51.14C342.956 52.02 342.523 53.04 342.216 54.2C341.909 55.36 341.756 56.5733 341.756 57.84C341.756 59.7067 342.123 61.12 342.856 62.08C343.589 63.0267 344.656 63.5 346.056 63.5ZM345.716 66.28C344.609 66.28 343.596 66.0933 342.676 65.72C341.756 65.3333 340.963 64.78 340.296 64.06C339.629 63.34 339.109 62.46 338.736 61.42C338.363 60.38 338.176 59.1933 338.176 57.86C338.176 56.1533 338.443 54.5467 338.976 53.04C339.509 51.5333 340.243 50.22 341.176 49.1C342.109 47.9667 343.203 47.0733 344.456 46.42C345.723 45.7667 347.083 45.44 348.536 45.44C349.643 45.44 350.656 45.6333 351.576 46.02C352.496 46.3933 353.289 46.94 353.956 47.66C354.623 48.38 355.143 49.26 355.516 50.3C355.889 51.34 356.076 52.52 356.076 53.84C356.076 55.5333 355.809 57.1333 355.276 58.64C354.743 60.1467 354.009 61.4667 353.076 62.6C352.156 63.7333 351.063 64.6333 349.796 65.3C348.529 65.9533 347.169 66.28 345.716 66.28ZM354.736 37.02L349.856 42.18C349.669 42.38 349.489 42.5267 349.316 42.62C349.143 42.7 348.929 42.74 348.676 42.74H346.716L349.976 37.9C350.176 37.5933 350.383 37.3733 350.596 37.24C350.823 37.0933 351.136 37.02 351.536 37.02H354.736ZM372.833 66H369.073L372.573 37.34H376.333L372.833 66ZM383.784 50.86C384.864 49.0733 386.084 47.7267 387.444 46.82C388.804 45.9 390.204 45.44 391.644 45.44C392.497 45.44 393.244 45.6133 393.884 45.96C394.537 46.2933 395.064 46.7867 395.464 47.44C395.877 48.0933 396.157 48.9 396.304 49.86C396.451 50.8067 396.451 51.8867 396.304 53.1L394.784 66H391.244L392.764 53.1C392.951 51.5 392.851 50.32 392.464 49.56C392.077 48.7867 391.364 48.4 390.324 48.4C389.684 48.4 389.031 48.5733 388.364 48.92C387.711 49.2667 387.077 49.76 386.464 50.4C385.851 51.04 385.277 51.8133 384.744 52.72C384.224 53.6133 383.777 54.6133 383.404 55.72L382.244 66H378.684L381.124 45.72H382.884C383.684 45.72 384.084 46.12 384.084 46.92L383.784 50.86ZM412.955 48.98C412.848 49.14 412.742 49.26 412.635 49.34C412.528 49.4067 412.395 49.44 412.235 49.44C412.048 49.44 411.842 49.3667 411.615 49.22C411.402 49.0733 411.135 48.9133 410.815 48.74C410.508 48.5533 410.128 48.3867 409.675 48.24C409.222 48.08 408.675 48 408.035 48C407.435 48 406.888 48.0867 406.395 48.26C405.902 48.42 405.475 48.6467 405.115 48.94C404.768 49.2333 404.495 49.58 404.295 49.98C404.108 50.3667 404.015 50.78 404.015 51.22C404.015 51.8467 404.222 52.3467 404.635 52.72C405.048 53.0933 405.568 53.42 406.195 53.7C406.822 53.9667 407.495 54.2267 408.215 54.48C408.935 54.7333 409.608 55.0533 410.235 55.44C410.862 55.8267 411.382 56.32 411.795 56.92C412.208 57.52 412.415 58.3 412.415 59.26C412.415 60.1933 412.228 61.0867 411.855 61.94C411.495 62.7933 410.968 63.5467 410.275 64.2C409.595 64.84 408.768 65.3533 407.795 65.74C406.835 66.1267 405.755 66.32 404.555 66.32C403.262 66.32 402.115 66.0933 401.115 65.64C400.128 65.1733 399.322 64.58 398.695 63.86L399.575 62.5C399.695 62.3267 399.822 62.1933 399.955 62.1C400.102 62.0067 400.288 61.96 400.515 61.96C400.728 61.96 400.942 62.0533 401.155 62.24C401.368 62.4267 401.635 62.64 401.955 62.88C402.275 63.1067 402.675 63.3133 403.155 63.5C403.648 63.6867 404.268 63.78 405.015 63.78C405.668 63.78 406.255 63.68 406.775 63.48C407.308 63.28 407.755 63.0133 408.115 62.68C408.488 62.3467 408.768 61.96 408.955 61.52C409.155 61.0667 409.255 60.5867 409.255 60.08C409.255 59.4 409.048 58.86 408.635 58.46C408.222 58.06 407.702 57.7267 407.075 57.46C406.448 57.1933 405.775 56.9467 405.055 56.72C404.335 56.48 403.662 56.18 403.035 55.82C402.408 55.4467 401.888 54.9667 401.475 54.38C401.062 53.7933 400.855 53.0133 400.855 52.04C400.855 51.1867 401.022 50.3667 401.355 49.58C401.702 48.78 402.195 48.0733 402.835 47.46C403.475 46.8467 404.248 46.36 405.155 46C406.075 45.6267 407.108 45.44 408.255 45.44C409.468 45.44 410.535 45.6467 411.455 46.06C412.388 46.46 413.188 47.0067 413.855 47.7L412.955 48.98ZM417.51 62.18C417.51 62.1 417.51 62 417.51 61.88C417.51 61.7467 417.517 61.56 417.53 61.32C417.557 61.08 417.59 60.7667 417.63 60.38C417.684 59.9933 417.75 59.4867 417.83 58.86L419.07 48.72H416.81C416.624 48.72 416.47 48.66 416.35 48.54C416.244 48.4067 416.204 48.2067 416.23 47.94L416.39 46.52L419.51 46.1L421.03 39.84C421.097 39.64 421.197 39.48 421.33 39.36C421.477 39.2267 421.657 39.16 421.87 39.16H423.73L422.87 46.14H428.19L427.89 48.72H422.55L421.33 58.68C421.264 59.2267 421.21 59.6667 421.17 60C421.13 60.3333 421.097 60.6 421.07 60.8C421.057 61 421.044 61.14 421.03 61.22C421.03 61.3 421.03 61.36 421.03 61.4C421.03 62.08 421.19 62.5867 421.51 62.92C421.83 63.24 422.257 63.4 422.79 63.4C423.15 63.4 423.457 63.3533 423.71 63.26C423.977 63.1533 424.21 63.04 424.41 62.92C424.61 62.8 424.777 62.6933 424.91 62.6C425.044 62.4933 425.157 62.44 425.25 62.44C425.37 62.44 425.457 62.4667 425.51 62.52C425.577 62.5733 425.637 62.66 425.69 62.78L426.45 64.48C425.797 65.0533 425.05 65.5067 424.21 65.84C423.384 66.16 422.55 66.32 421.71 66.32C420.417 66.32 419.397 65.9667 418.65 65.26C417.917 64.5533 417.537 63.5267 417.51 62.18ZM443.58 48.22C443.286 48.1533 442.993 48.1133 442.7 48.1C442.42 48.0733 442.14 48.06 441.86 48.06C441.06 48.06 440.286 48.1933 439.54 48.46C438.793 48.7133 438.093 49.0733 437.44 49.54C436.786 50.0067 436.193 50.5667 435.66 51.22C435.126 51.86 434.666 52.5667 434.28 53.34C433.906 54.1133 433.613 54.94 433.4 55.82C433.186 56.6867 433.08 57.58 433.08 58.5C433.08 61.7133 434.106 63.32 436.16 63.32C436.813 63.32 437.453 63.12 438.08 62.72C438.706 62.3067 439.3 61.74 439.86 61.02C440.433 60.2867 440.96 59.4267 441.44 58.44C441.92 57.44 442.346 56.3467 442.72 55.16L443.58 48.22ZM442.22 60.66C441.74 61.5133 441.22 62.2867 440.66 62.98C440.113 63.6733 439.526 64.2667 438.9 64.76C438.286 65.24 437.633 65.6133 436.94 65.88C436.26 66.1467 435.553 66.28 434.82 66.28C434.02 66.28 433.293 66.1267 432.64 65.82C431.986 65.5 431.426 65.04 430.96 64.44C430.506 63.8267 430.153 63.08 429.9 62.2C429.646 61.3067 429.52 60.2867 429.52 59.14C429.52 57.94 429.666 56.7733 429.96 55.64C430.266 54.4933 430.693 53.4133 431.24 52.4C431.8 51.3867 432.466 50.46 433.24 49.62C434.013 48.7667 434.873 48.0333 435.82 47.42C436.78 46.7933 437.806 46.3133 438.9 45.98C439.993 45.6333 441.14 45.46 442.34 45.46C443.206 45.46 444.046 45.5333 444.86 45.68C445.686 45.8133 446.5 46.0533 447.3 46.4L444.88 66H443.04C442.573 66 442.253 65.88 442.08 65.64C441.92 65.4 441.84 65.1067 441.84 64.76L442.22 60.66ZM457.729 56.86C458.449 56.86 459.083 56.7067 459.629 56.4C460.189 56.08 460.656 55.6667 461.029 55.16C461.416 54.64 461.709 54.06 461.909 53.42C462.109 52.78 462.209 52.1333 462.209 51.48C462.209 50.3067 461.909 49.42 461.309 48.82C460.723 48.22 459.909 47.92 458.869 47.92C458.149 47.92 457.516 48.0667 456.969 48.36C456.423 48.6533 455.956 49.0467 455.569 49.54C455.196 50.0333 454.909 50.5933 454.709 51.22C454.523 51.8467 454.429 52.5 454.429 53.18C454.429 54.38 454.716 55.2933 455.289 55.92C455.876 56.5467 456.689 56.86 457.729 56.86ZM461.749 66.5C461.749 66.14 461.716 65.8133 461.649 65.52C461.583 65.2133 461.496 64.9267 461.389 64.66C459.629 64.38 458.109 64.28 456.829 64.36C455.549 64.4267 454.489 64.62 453.649 64.94C452.823 65.26 452.209 65.6733 451.809 66.18C451.409 66.6867 451.209 67.2333 451.209 67.82C451.209 68.78 451.609 69.5133 452.409 70.02C453.223 70.5267 454.369 70.78 455.849 70.78C456.729 70.78 457.529 70.66 458.249 70.42C458.983 70.1933 459.603 69.8867 460.109 69.5C460.629 69.1133 461.029 68.66 461.309 68.14C461.603 67.62 461.749 67.0733 461.749 66.5ZM468.549 46.48L468.409 47.66C468.343 48.14 468.076 48.46 467.609 48.62L465.069 49.06C465.323 49.7533 465.449 50.52 465.449 51.36C465.449 52.0267 465.369 52.6267 465.209 53.16C465.063 53.6933 464.876 54.1867 464.649 54.64C464.423 55.0933 464.176 55.52 463.909 55.92C463.643 56.32 463.396 56.72 463.169 57.12C462.943 57.5067 462.749 57.9133 462.589 58.34C462.443 58.7533 462.369 59.2067 462.369 59.7C462.369 60.06 462.429 60.4067 462.549 60.74C462.683 61.06 462.843 61.38 463.029 61.7C463.229 62.0067 463.443 62.32 463.669 62.64C463.909 62.96 464.123 63.3 464.309 63.66C464.509 64.02 464.669 64.4133 464.789 64.84C464.923 65.2533 464.989 65.7133 464.989 66.22C464.976 67.1667 464.749 68.06 464.309 68.9C463.869 69.7533 463.243 70.5067 462.429 71.16C461.616 71.8133 460.629 72.3267 459.469 72.7C458.309 73.0867 457.003 73.28 455.549 73.28C454.389 73.28 453.329 73.16 452.369 72.92C451.423 72.68 450.609 72.34 449.929 71.9C449.263 71.46 448.749 70.9267 448.389 70.3C448.016 69.6867 447.829 69.0067 447.829 68.26C447.829 67.4067 448.009 66.6533 448.369 66C448.729 65.3467 449.216 64.7867 449.829 64.32C450.443 63.84 451.156 63.4467 451.969 63.14C452.783 62.8333 453.643 62.6067 454.549 62.46C455.469 62.3133 456.409 62.2467 457.369 62.26C458.329 62.26 459.269 62.3267 460.189 62.46C460.069 62.2067 459.969 61.9467 459.889 61.68C459.823 61.4 459.789 61.1 459.789 60.78C459.789 60.3667 459.849 59.94 459.969 59.5C460.103 59.06 460.316 58.56 460.609 58C460.103 58.3467 459.536 58.62 458.909 58.82C458.283 59.0067 457.569 59.1 456.769 59.1C455.996 59.1 455.269 58.9733 454.589 58.72C453.923 58.4667 453.336 58.0933 452.829 57.6C452.323 57.1067 451.923 56.4933 451.629 55.76C451.336 55.0133 451.189 54.1467 451.189 53.16C451.189 52.2 451.363 51.26 451.709 50.34C452.069 49.4067 452.589 48.58 453.269 47.86C453.949 47.1267 454.789 46.54 455.789 46.1C456.789 45.66 457.943 45.44 459.249 45.44C459.969 45.44 460.656 45.5267 461.309 45.7C461.963 45.8733 462.549 46.1333 463.069 46.48H468.549ZM474.584 51.38C475.118 50.2467 475.691 49.2667 476.304 48.44C476.931 47.6 477.584 46.9467 478.264 46.48C478.944 46 479.644 45.7133 480.364 45.62C481.084 45.5133 481.818 45.62 482.564 45.94L481.924 49.36C480.191 48.6667 478.658 48.92 477.324 50.12C476.004 51.32 474.931 53.4867 474.104 56.62L472.984 66H469.504L471.944 45.72H473.704C474.518 45.72 474.924 46.12 474.924 46.92L474.584 51.38ZM495.962 48.22C495.669 48.1533 495.376 48.1133 495.082 48.1C494.802 48.0733 494.522 48.06 494.242 48.06C493.442 48.06 492.669 48.1933 491.922 48.46C491.176 48.7133 490.476 49.0733 489.822 49.54C489.169 50.0067 488.576 50.5667 488.042 51.22C487.509 51.86 487.049 52.5667 486.662 53.34C486.289 54.1133 485.996 54.94 485.782 55.82C485.569 56.6867 485.462 57.58 485.462 58.5C485.462 61.7133 486.489 63.32 488.542 63.32C489.196 63.32 489.836 63.12 490.462 62.72C491.089 62.3067 491.682 61.74 492.242 61.02C492.816 60.2867 493.342 59.4267 493.822 58.44C494.302 57.44 494.729 56.3467 495.102 55.16L495.962 48.22ZM494.602 60.66C494.122 61.5133 493.602 62.2867 493.042 62.98C492.496 63.6733 491.909 64.2667 491.282 64.76C490.669 65.24 490.016 65.6133 489.322 65.88C488.642 66.1467 487.936 66.28 487.202 66.28C486.402 66.28 485.676 66.1267 485.022 65.82C484.369 65.5 483.809 65.04 483.342 64.44C482.889 63.8267 482.536 63.08 482.282 62.2C482.029 61.3067 481.902 60.2867 481.902 59.14C481.902 57.94 482.049 56.7733 482.342 55.64C482.649 54.4933 483.076 53.4133 483.622 52.4C484.182 51.3867 484.849 50.46 485.622 49.62C486.396 48.7667 487.256 48.0333 488.202 47.42C489.162 46.7933 490.189 46.3133 491.282 45.98C492.376 45.6333 493.522 45.46 494.722 45.46C495.589 45.46 496.429 45.5333 497.242 45.68C498.069 45.8133 498.882 46.0533 499.682 46.4L497.262 66H495.422C494.956 66 494.636 65.88 494.462 65.64C494.302 65.4 494.222 65.1067 494.222 64.76L494.602 60.66ZM502.512 66L504.952 45.72H506.712C507.525 45.72 507.932 46.12 507.932 46.92L507.652 50.52C508.652 48.8533 509.745 47.5933 510.932 46.74C512.132 45.8733 513.385 45.44 514.692 45.44C516.065 45.44 517.079 45.9133 517.732 46.86C518.385 47.7933 518.712 49.1333 518.712 50.88C519.712 49.0267 520.839 47.66 522.092 46.78C523.359 45.8867 524.692 45.44 526.092 45.44C527.825 45.44 529.052 46.1067 529.772 47.44C530.492 48.7733 530.705 50.66 530.412 53.1L528.892 66H525.372L526.912 53.1C527.099 51.5133 527.045 50.3333 526.752 49.56C526.472 48.7867 525.832 48.4 524.832 48.4C524.259 48.4 523.685 48.5467 523.112 48.84C522.552 49.12 522.005 49.54 521.472 50.1C520.939 50.6467 520.439 51.3333 519.972 52.16C519.519 52.9733 519.112 53.9133 518.752 54.98V55L517.452 66H513.932L515.452 53.1C515.652 51.5133 515.625 50.3333 515.372 49.56C515.119 48.7867 514.492 48.4 513.492 48.4C512.852 48.4 512.232 48.56 511.632 48.88C511.045 49.2 510.485 49.6667 509.952 50.28C509.432 50.88 508.945 51.62 508.492 52.5C508.039 53.3667 507.625 54.3467 507.252 55.44L505.992 66H502.512Z" fill="#FB5CC2"/>
</svg>
