<svg width="102" height="39" viewBox="0 0 102 39" fill="none" xmlns="http://www.w3.org/2000/svg">
<mask id="mask0_224_5" style="mask-type:luminance" maskUnits="userSpaceOnUse" x="3" y="0" width="98" height="39">
<path d="M3 0L101 0V39H3V0Z" fill="white"/>
</mask>
<g mask="url(#mask0_224_5)">
<path d="M99.5093 36.6586C98.9436 35.7809 98.5478 34.7371 98.2292 33.6158C98.2554 33.3345 98.2726 33.0491 98.2726 32.7555V5.93868C98.2726 2.65946 96.6076 0 94.5538 0L6.71885 0C4.66502 0 3 2.65946 3 5.93868V32.7555C3 36.0358 4.66502 38.6932 6.71885 38.6932H94.5538C95.2018 38.6932 95.8115 38.4271 96.342 37.9623C96.9543 38.4964 97.638 38.8216 98.3333 38.8991C99.1058 38.9878 99.9166 38.8063 100.68 38.6218C100.787 38.5963 100.893 38.5678 101 38.5393C100.503 37.9164 99.9626 37.3629 99.5093 36.6586Z" fill="#A29AFF" fill-opacity="0.3"/>
<path d="M98.4473 37.9056C98.6752 37.9318 98.9147 37.9264 99.1702 37.8985C98.995 37.6746 98.8233 37.4406 98.6684 37.1997C98.0266 36.2038 97.5982 35.0537 97.2673 33.8891L97.2162 33.7093L97.2335 33.5232C97.2577 33.2634 97.2726 33.0101 97.2726 32.7555V5.93868C97.2726 4.4569 96.8945 3.16247 96.3358 2.27034C95.7685 1.36433 95.1123 1 94.5538 1H6.71885C6.16029 1 5.50411 1.36433 4.9368 2.27034C4.37817 3.16247 4 4.4569 4 5.93868V32.7555C4 34.2378 4.3782 35.5319 4.93671 36.4236C5.50385 37.329 6.15999 37.6932 6.71885 37.6932H94.5538C94.9128 37.6932 95.2965 37.5488 95.683 37.2102L96.3406 36.634L96.9994 37.2088C97.4874 37.6345 97.9866 37.8543 98.444 37.9052L98.4473 37.9056Z" stroke="#A29AFF" stroke-opacity="0.9" stroke-width="2"/>
</g>
<path d="M20.9174 5.2525L19.5899 16H18.3674L19.3424 8.0575C19.3574 7.9575 19.3749 7.8475 19.3949 7.7275C19.4199 7.6075 19.4474 7.4825 19.4774 7.3525L15.2849 14.11C15.1549 14.325 14.9749 14.4325 14.7449 14.4325H14.5424C14.4324 14.4325 14.3349 14.405 14.2499 14.35C14.1699 14.295 14.1124 14.215 14.0774 14.11L11.4824 7.3525C11.4774 7.4725 11.4724 7.5925 11.4674 7.7125C11.4624 7.8275 11.4549 7.935 11.4449 8.035L10.4774 16H9.23988L10.5599 5.2525H11.5949C11.7199 5.2525 11.8099 5.27 11.8649 5.305C11.9199 5.335 11.9824 5.3975 12.0524 5.4925L14.6549 12.25C14.6899 12.35 14.7199 12.45 14.7449 12.55C14.7699 12.65 14.7949 12.7525 14.8199 12.8575C14.8699 12.7525 14.9199 12.65 14.9699 12.55C15.0199 12.45 15.0749 12.35 15.1349 12.25L19.3649 5.4925C19.4499 5.3925 19.5249 5.3275 19.5899 5.2975C19.6549 5.2675 19.7499 5.2525 19.8749 5.2525H20.9174ZM24.0819 8.4025L23.1669 16H21.8544L22.7694 8.4025H24.0819ZM24.5919 6.0175C24.5919 6.1475 24.5644 6.27 24.5094 6.385C24.4594 6.495 24.3894 6.595 24.2994 6.685C24.2144 6.77 24.1144 6.8375 23.9994 6.8875C23.8894 6.9375 23.7744 6.9625 23.6544 6.9625C23.5394 6.9625 23.4269 6.9375 23.3169 6.8875C23.2069 6.8375 23.1094 6.77 23.0244 6.685C22.9444 6.595 22.8794 6.495 22.8294 6.385C22.7794 6.27 22.7544 6.1475 22.7544 6.0175C22.7544 5.8875 22.7794 5.765 22.8294 5.65C22.8794 5.535 22.9469 5.435 23.0319 5.35C23.1169 5.26 23.2144 5.19 23.3244 5.14C23.4344 5.085 23.5469 5.0575 23.6619 5.0575C23.7819 5.0575 23.8969 5.0825 24.0069 5.1325C24.1219 5.1825 24.2219 5.2525 24.3069 5.3425C24.3919 5.4275 24.4594 5.53 24.5094 5.65C24.5644 5.765 24.5919 5.8875 24.5919 6.0175ZM27.1414 10.5175C27.3414 10.0925 27.5564 9.725 27.7864 9.415C28.0214 9.1 28.2664 8.855 28.5214 8.68C28.7764 8.5 29.0389 8.3925 29.3089 8.3575C29.5789 8.3175 29.8539 8.3575 30.1339 8.4775L29.8939 9.76C29.2439 9.5 28.6689 9.595 28.1689 10.045C27.6739 10.495 27.2714 11.3075 26.9614 12.4825L26.5414 16H25.2364L26.1514 8.395H26.8114C27.1164 8.395 27.2689 8.545 27.2689 8.845L27.1414 10.5175ZM35.1582 9.3325C35.0482 9.3075 34.9382 9.2925 34.8282 9.2875C34.7232 9.2775 34.6182 9.2725 34.5132 9.2725C34.2132 9.2725 33.9232 9.3225 33.6432 9.4225C33.3632 9.5175 33.1007 9.6525 32.8557 9.8275C32.6107 10.0025 32.3882 10.2125 32.1882 10.4575C31.9882 10.6975 31.8157 10.9625 31.6707 11.2525C31.5307 11.5425 31.4207 11.8525 31.3407 12.1825C31.2607 12.5075 31.2207 12.8425 31.2207 13.1875C31.2207 14.3925 31.6057 14.995 32.3757 14.995C32.6207 14.995 32.8607 14.92 33.0957 14.77C33.3307 14.615 33.5532 14.4025 33.7632 14.1325C33.9782 13.8575 34.1757 13.535 34.3557 13.165C34.5357 12.79 34.6957 12.38 34.8357 11.935L35.1582 9.3325ZM34.6482 13.9975C34.4682 14.3175 34.2732 14.6075 34.0632 14.8675C33.8582 15.1275 33.6382 15.35 33.4032 15.535C33.1732 15.715 32.9282 15.855 32.6682 15.955C32.4132 16.055 32.1482 16.105 31.8732 16.105C31.5732 16.105 31.3007 16.0475 31.0557 15.9325C30.8107 15.8125 30.6007 15.64 30.4257 15.415C30.2557 15.185 30.1232 14.905 30.0282 14.575C29.9332 14.24 29.8857 13.8575 29.8857 13.4275C29.8857 12.9775 29.9407 12.54 30.0507 12.115C30.1657 11.685 30.3257 11.28 30.5307 10.9C30.7407 10.52 30.9907 10.1725 31.2807 9.8575C31.5707 9.5375 31.8932 9.2625 32.2482 9.0325C32.6082 8.7975 32.9932 8.6175 33.4032 8.4925C33.8132 8.3625 34.2432 8.2975 34.6932 8.2975C35.0182 8.2975 35.3332 8.325 35.6382 8.38C35.9482 8.43 36.2532 8.52 36.5532 8.65L35.6457 16H34.9557C34.7807 16 34.6607 15.955 34.5957 15.865C34.5357 15.775 34.5057 15.665 34.5057 15.535L34.6482 13.9975ZM46.4925 10.06C46.3025 9.79 46.0725 9.6025 45.8025 9.4975C45.5375 9.3875 45.2675 9.3325 44.9925 9.3325C44.5975 9.3325 44.2425 9.45 43.9275 9.685C43.6125 9.92 43.3425 10.225 43.1175 10.6C42.8975 10.97 42.7275 11.385 42.6075 11.845C42.4875 12.305 42.4275 12.7575 42.4275 13.2025C42.4275 13.7975 42.5325 14.2525 42.7425 14.5675C42.9575 14.8775 43.2625 15.0325 43.6575 15.0325C43.8975 15.0325 44.14 14.9575 44.385 14.8075C44.63 14.6575 44.865 14.45 45.09 14.185C45.32 13.915 45.5325 13.5975 45.7275 13.2325C45.9275 12.8675 46.1 12.4675 46.245 12.0325L46.4925 10.06ZM48.4275 4.9525L47.07 16H46.3725C46.1975 16 46.08 15.955 46.02 15.865C45.96 15.775 45.93 15.665 45.93 15.535L46.0725 13.9375C45.8825 14.2675 45.675 14.565 45.45 14.83C45.225 15.095 44.9875 15.3225 44.7375 15.5125C44.4925 15.7025 44.235 15.85 43.965 15.955C43.7 16.055 43.43 16.105 43.155 16.105C42.505 16.105 42 15.87 41.64 15.4C41.28 14.925 41.1 14.2375 41.1 13.3375C41.1 12.9275 41.1425 12.5175 41.2275 12.1075C41.3125 11.6975 41.4325 11.305 41.5875 10.93C41.7475 10.555 41.9375 10.2075 42.1575 9.8875C42.3825 9.5625 42.6325 9.2825 42.9075 9.0475C43.1825 8.8125 43.4775 8.6275 43.7925 8.4925C44.1125 8.3575 44.4475 8.29 44.7975 8.29C45.1725 8.29 45.5125 8.365 45.8175 8.515C46.1275 8.66 46.39 8.8675 46.605 9.1375L47.1225 4.9525H48.4275ZM51.372 8.4025L50.457 16H49.1445L50.0595 8.4025H51.372ZM51.882 6.0175C51.882 6.1475 51.8545 6.27 51.7995 6.385C51.7495 6.495 51.6795 6.595 51.5895 6.685C51.5045 6.77 51.4045 6.8375 51.2895 6.8875C51.1795 6.9375 51.0645 6.9625 50.9445 6.9625C50.8295 6.9625 50.717 6.9375 50.607 6.8875C50.497 6.8375 50.3995 6.77 50.3145 6.685C50.2345 6.595 50.1695 6.495 50.1195 6.385C50.0695 6.27 50.0445 6.1475 50.0445 6.0175C50.0445 5.8875 50.0695 5.765 50.1195 5.65C50.1695 5.535 50.237 5.435 50.322 5.35C50.407 5.26 50.5045 5.19 50.6145 5.14C50.7245 5.085 50.837 5.0575 50.952 5.0575C51.072 5.0575 51.187 5.0825 51.297 5.1325C51.412 5.1825 51.512 5.2525 51.597 5.3425C51.682 5.4275 51.7495 5.53 51.7995 5.65C51.8545 5.765 51.882 5.8875 51.882 6.0175ZM57.424 9.6175C57.384 9.6775 57.344 9.7225 57.304 9.7525C57.264 9.7775 57.214 9.79 57.154 9.79C57.084 9.79 57.0065 9.7625 56.9215 9.7075C56.8415 9.6525 56.7415 9.5925 56.6215 9.5275C56.5065 9.4575 56.364 9.395 56.194 9.34C56.024 9.28 55.819 9.25 55.579 9.25C55.354 9.25 55.149 9.2825 54.964 9.3475C54.779 9.4075 54.619 9.4925 54.484 9.6025C54.354 9.7125 54.2515 9.8425 54.1765 9.9925C54.1065 10.1375 54.0715 10.2925 54.0715 10.4575C54.0715 10.6925 54.149 10.88 54.304 11.02C54.459 11.16 54.654 11.2825 54.889 11.3875C55.124 11.4875 55.3765 11.585 55.6465 11.68C55.9165 11.775 56.169 11.895 56.404 12.04C56.639 12.185 56.834 12.37 56.989 12.595C57.144 12.82 57.2215 13.1125 57.2215 13.4725C57.2215 13.8225 57.1515 14.1575 57.0115 14.4775C56.8765 14.7975 56.679 15.08 56.419 15.325C56.164 15.565 55.854 15.7575 55.489 15.9025C55.129 16.0475 54.724 16.12 54.274 16.12C53.789 16.12 53.359 16.035 52.984 15.865C52.614 15.69 52.3115 15.4675 52.0765 15.1975L52.4065 14.6875C52.4515 14.6225 52.499 14.5725 52.549 14.5375C52.604 14.5025 52.674 14.485 52.759 14.485C52.839 14.485 52.919 14.52 52.999 14.59C53.079 14.66 53.179 14.74 53.299 14.83C53.419 14.915 53.569 14.9925 53.749 15.0625C53.934 15.1325 54.1665 15.1675 54.4465 15.1675C54.6915 15.1675 54.9115 15.13 55.1065 15.055C55.3065 14.98 55.474 14.88 55.609 14.755C55.749 14.63 55.854 14.485 55.924 14.32C55.999 14.15 56.0365 13.97 56.0365 13.78C56.0365 13.525 55.959 13.3225 55.804 13.1725C55.649 13.0225 55.454 12.8975 55.219 12.7975C54.984 12.6975 54.7315 12.605 54.4615 12.52C54.1915 12.43 53.939 12.3175 53.704 12.1825C53.469 12.0425 53.274 11.8625 53.119 11.6425C52.964 11.4225 52.8865 11.13 52.8865 10.765C52.8865 10.445 52.949 10.1375 53.074 9.8425C53.204 9.5425 53.389 9.2775 53.629 9.0475C53.869 8.8175 54.159 8.635 54.499 8.5C54.844 8.36 55.2315 8.29 55.6615 8.29C56.1165 8.29 56.5165 8.3675 56.8615 8.5225C57.2115 8.6725 57.5115 8.8775 57.7615 9.1375L57.424 9.6175ZM65.8598 9.505L65.0648 16H63.7673L64.5698 9.505H61.0223L60.5573 13.255C60.5323 13.46 60.5123 13.625 60.4973 13.75C60.4823 13.875 60.4698 13.975 60.4598 14.05C60.4548 14.125 60.4498 14.1775 60.4448 14.2075C60.4448 14.2375 60.4448 14.26 60.4448 14.275C60.4448 14.53 60.5048 14.72 60.6248 14.845C60.7448 14.965 60.9073 15.025 61.1123 15.025C61.2423 15.025 61.3573 15.0075 61.4573 14.9725C61.5573 14.9325 61.6423 14.89 61.7123 14.845C61.7873 14.8 61.8498 14.76 61.8998 14.725C61.9498 14.685 61.9948 14.665 62.0348 14.665C62.0748 14.665 62.1048 14.675 62.1248 14.695C62.1498 14.715 62.1748 14.7475 62.1998 14.7925L62.4773 15.43C62.2373 15.645 61.9598 15.815 61.6448 15.94C61.3348 16.06 61.0223 16.12 60.7073 16.12C60.2223 16.12 59.8398 15.9875 59.5598 15.7225C59.2798 15.4575 59.1348 15.0725 59.1248 14.5675C59.1248 14.5375 59.1248 14.5 59.1248 14.455C59.1298 14.405 59.1348 14.335 59.1398 14.245C59.1498 14.155 59.1623 14.0375 59.1773 13.8925C59.1923 13.7475 59.2148 13.5575 59.2448 13.3225L59.7173 9.505H58.8923C58.8173 9.505 58.7573 9.48 58.7123 9.43C58.6673 9.38 58.6498 9.3075 58.6598 9.2125L58.7198 8.7025L59.8748 8.5525L60.4448 6.19C60.4698 6.115 60.5073 6.055 60.5573 6.01C60.6123 5.96 60.6798 5.935 60.7598 5.935H61.4648L61.1423 8.56H65.9723L65.8598 9.505ZM66.6323 6.0175C66.6323 6.1475 66.6048 6.27 66.5498 6.385C66.4998 6.495 66.4298 6.595 66.3398 6.685C66.2548 6.77 66.1548 6.8375 66.0398 6.8875C65.9298 6.9375 65.8148 6.9625 65.6948 6.9625C65.5798 6.9625 65.4673 6.9375 65.3573 6.8875C65.2473 6.8375 65.1498 6.77 65.0648 6.685C64.9848 6.595 64.9198 6.495 64.8698 6.385C64.8198 6.27 64.7948 6.1475 64.7948 6.0175C64.7948 5.8875 64.8198 5.765 64.8698 5.65C64.9198 5.535 64.9873 5.435 65.0723 5.35C65.1573 5.26 65.2548 5.19 65.3648 5.14C65.4748 5.085 65.5873 5.0575 65.7023 5.0575C65.8223 5.0575 65.9373 5.0825 66.0473 5.1325C66.1623 5.1825 66.2623 5.2525 66.3473 5.3425C66.4323 5.4275 66.4998 5.53 66.5498 5.65C66.6048 5.765 66.6323 5.8875 66.6323 6.0175ZM69.0435 10.3225C69.4485 9.6525 69.906 9.1475 70.416 8.8075C70.926 8.4625 71.451 8.29 71.991 8.29C72.311 8.29 72.591 8.355 72.831 8.485C73.076 8.61 73.2735 8.795 73.4235 9.04C73.5785 9.285 73.6835 9.5875 73.7385 9.9475C73.7935 10.3025 73.7935 10.7075 73.7385 11.1625L73.1685 16H71.841L72.411 11.1625C72.481 10.5625 72.4435 10.12 72.2985 9.835C72.1535 9.545 71.886 9.4 71.496 9.4C71.256 9.4 71.011 9.465 70.761 9.595C70.516 9.725 70.2785 9.91 70.0485 10.15C69.8185 10.39 69.6035 10.68 69.4035 11.02C69.2085 11.355 69.041 11.73 68.901 12.145L68.466 16H67.131L68.046 8.395H68.706C69.006 8.395 69.156 8.545 69.156 8.845L69.0435 10.3225ZM75.5972 14.5675C75.5972 14.5375 75.5972 14.5 75.5972 14.455C75.5972 14.405 75.5997 14.335 75.6047 14.245C75.6147 14.155 75.6272 14.0375 75.6422 13.8925C75.6622 13.7475 75.6872 13.5575 75.7172 13.3225L76.1822 9.52H75.3347C75.2647 9.52 75.2072 9.4975 75.1622 9.4525C75.1222 9.4025 75.1072 9.3275 75.1172 9.2275L75.1772 8.695L76.3472 8.5375L76.9172 6.19C76.9422 6.115 76.9797 6.055 77.0297 6.01C77.0847 5.96 77.1522 5.935 77.2322 5.935H77.9297L77.6072 8.5525H79.6022L79.4897 9.52H77.4872L77.0297 13.255C77.0047 13.46 76.9847 13.625 76.9697 13.75C76.9547 13.875 76.9422 13.975 76.9322 14.05C76.9272 14.125 76.9222 14.1775 76.9172 14.2075C76.9172 14.2375 76.9172 14.26 76.9172 14.275C76.9172 14.53 76.9772 14.72 77.0972 14.845C77.2172 14.965 77.3772 15.025 77.5772 15.025C77.7122 15.025 77.8272 15.0075 77.9222 14.9725C78.0222 14.9325 78.1097 14.89 78.1847 14.845C78.2597 14.8 78.3222 14.76 78.3722 14.725C78.4222 14.685 78.4647 14.665 78.4997 14.665C78.5447 14.665 78.5772 14.675 78.5972 14.695C78.6222 14.715 78.6447 14.7475 78.6647 14.7925L78.9497 15.43C78.7047 15.645 78.4247 15.815 78.1097 15.94C77.7997 16.06 77.4872 16.12 77.1722 16.12C76.6872 16.12 76.3047 15.9875 76.0247 15.7225C75.7497 15.4575 75.6072 15.0725 75.5972 14.5675ZM83.1084 15.0625C83.4734 15.0625 83.8034 14.9625 84.0984 14.7625C84.3984 14.5625 84.6534 14.2975 84.8634 13.9675C85.0784 13.6325 85.2434 13.2475 85.3584 12.8125C85.4734 12.3775 85.5309 11.9225 85.5309 11.4475C85.5309 10.7475 85.3909 10.2225 85.1109 9.8725C84.8359 9.5175 84.4384 9.34 83.9184 9.34C83.5484 9.34 83.2134 9.44 82.9134 9.64C82.6184 9.835 82.3659 10.0975 82.1559 10.4275C81.9459 10.7575 81.7834 11.14 81.6684 11.575C81.5534 12.01 81.4959 12.465 81.4959 12.94C81.4959 13.64 81.6334 14.17 81.9084 14.53C82.1834 14.885 82.5834 15.0625 83.1084 15.0625ZM82.9809 16.105C82.5659 16.105 82.1859 16.035 81.8409 15.895C81.4959 15.75 81.1984 15.5425 80.9484 15.2725C80.6984 15.0025 80.5034 14.6725 80.3634 14.2825C80.2234 13.8925 80.1534 13.4475 80.1534 12.9475C80.1534 12.3075 80.2534 11.705 80.4534 11.14C80.6534 10.575 80.9284 10.0825 81.2784 9.6625C81.6284 9.2375 82.0384 8.9025 82.5084 8.6575C82.9834 8.4125 83.4934 8.29 84.0384 8.29C84.4534 8.29 84.8334 8.3625 85.1784 8.5075C85.5234 8.6475 85.8209 8.8525 86.0709 9.1225C86.3209 9.3925 86.5159 9.7225 86.6559 10.1125C86.7959 10.5025 86.8659 10.945 86.8659 11.44C86.8659 12.075 86.7659 12.675 86.5659 13.24C86.3659 13.805 86.0909 14.3 85.7409 14.725C85.3959 15.15 84.9859 15.4875 84.5109 15.7375C84.0359 15.9825 83.5259 16.105 82.9809 16.105ZM92.8293 9.6175C92.7893 9.6775 92.7493 9.7225 92.7093 9.7525C92.6693 9.7775 92.6193 9.79 92.5593 9.79C92.4893 9.79 92.4118 9.7625 92.3268 9.7075C92.2468 9.6525 92.1468 9.5925 92.0268 9.5275C91.9118 9.4575 91.7693 9.395 91.5993 9.34C91.4293 9.28 91.2243 9.25 90.9843 9.25C90.7593 9.25 90.5543 9.2825 90.3693 9.3475C90.1843 9.4075 90.0243 9.4925 89.8893 9.6025C89.7593 9.7125 89.6568 9.8425 89.5818 9.9925C89.5118 10.1375 89.4768 10.2925 89.4768 10.4575C89.4768 10.6925 89.5543 10.88 89.7093 11.02C89.8643 11.16 90.0593 11.2825 90.2943 11.3875C90.5293 11.4875 90.7818 11.585 91.0518 11.68C91.3218 11.775 91.5743 11.895 91.8093 12.04C92.0443 12.185 92.2393 12.37 92.3943 12.595C92.5493 12.82 92.6268 13.1125 92.6268 13.4725C92.6268 13.8225 92.5568 14.1575 92.4168 14.4775C92.2818 14.7975 92.0843 15.08 91.8243 15.325C91.5693 15.565 91.2593 15.7575 90.8943 15.9025C90.5343 16.0475 90.1293 16.12 89.6793 16.12C89.1943 16.12 88.7643 16.035 88.3893 15.865C88.0193 15.69 87.7168 15.4675 87.4818 15.1975L87.8118 14.6875C87.8568 14.6225 87.9043 14.5725 87.9543 14.5375C88.0093 14.5025 88.0793 14.485 88.1643 14.485C88.2443 14.485 88.3243 14.52 88.4043 14.59C88.4843 14.66 88.5843 14.74 88.7043 14.83C88.8243 14.915 88.9743 14.9925 89.1543 15.0625C89.3393 15.1325 89.5718 15.1675 89.8518 15.1675C90.0968 15.1675 90.3168 15.13 90.5118 15.055C90.7118 14.98 90.8793 14.88 91.0143 14.755C91.1543 14.63 91.2593 14.485 91.3293 14.32C91.4043 14.15 91.4418 13.97 91.4418 13.78C91.4418 13.525 91.3643 13.3225 91.2093 13.1725C91.0543 13.0225 90.8593 12.8975 90.6243 12.7975C90.3893 12.6975 90.1368 12.605 89.8668 12.52C89.5968 12.43 89.3443 12.3175 89.1093 12.1825C88.8743 12.0425 88.6793 11.8625 88.5243 11.6425C88.3693 11.4225 88.2918 11.13 88.2918 10.765C88.2918 10.445 88.3543 10.1375 88.4793 9.8425C88.6093 9.5425 88.7943 9.2775 89.0343 9.0475C89.2743 8.8175 89.5643 8.635 89.9043 8.5C90.2493 8.36 90.6368 8.29 91.0668 8.29C91.5218 8.29 91.9218 8.3675 92.2668 8.5225C92.6168 8.6725 92.9168 8.8775 93.1668 9.1375L92.8293 9.6175ZM30.2471 30.5725C30.5171 30.5725 30.7546 30.515 30.9596 30.4C31.1696 30.28 31.3446 30.125 31.4846 29.935C31.6296 29.74 31.7396 29.5225 31.8146 29.2825C31.8896 29.0425 31.9271 28.8 31.9271 28.555C31.9271 28.115 31.8146 27.7825 31.5896 27.5575C31.3696 27.3325 31.0646 27.22 30.6746 27.22C30.4046 27.22 30.1671 27.275 29.9621 27.385C29.7571 27.495 29.5821 27.6425 29.4371 27.8275C29.2971 28.0125 29.1896 28.2225 29.1146 28.4575C29.0446 28.6925 29.0096 28.9375 29.0096 29.1925C29.0096 29.6425 29.1171 29.985 29.3321 30.22C29.5521 30.455 29.8571 30.5725 30.2471 30.5725ZM31.7546 34.1875C31.7546 34.0525 31.7421 33.93 31.7171 33.82C31.6921 33.705 31.6596 33.5975 31.6196 33.4975C30.9596 33.3925 30.3896 33.355 29.9096 33.385C29.4296 33.41 29.0321 33.4825 28.7171 33.6025C28.4071 33.7225 28.1771 33.8775 28.0271 34.0675C27.8771 34.2575 27.8021 34.4625 27.8021 34.6825C27.8021 35.0425 27.9521 35.3175 28.2521 35.5075C28.5571 35.6975 28.9871 35.7925 29.5421 35.7925C29.8721 35.7925 30.1721 35.7475 30.4421 35.6575C30.7171 35.5725 30.9496 35.4575 31.1396 35.3125C31.3346 35.1675 31.4846 34.9975 31.5896 34.8025C31.6996 34.6075 31.7546 34.4025 31.7546 34.1875ZM34.3046 26.68L34.2521 27.1225C34.2271 27.3025 34.1271 27.4225 33.9521 27.4825L32.9996 27.6475C33.0946 27.9075 33.1421 28.195 33.1421 28.51C33.1421 28.76 33.1121 28.985 33.0521 29.185C32.9971 29.385 32.9271 29.57 32.8421 29.74C32.7571 29.91 32.6646 30.07 32.5646 30.22C32.4646 30.37 32.3721 30.52 32.2871 30.67C32.2021 30.815 32.1296 30.9675 32.0696 31.1275C32.0146 31.2825 31.9871 31.4525 31.9871 31.6375C31.9871 31.7725 32.0096 31.9025 32.0546 32.0275C32.1046 32.1475 32.1646 32.2675 32.2346 32.3875C32.3096 32.5025 32.3896 32.62 32.4746 32.74C32.5646 32.86 32.6446 32.9875 32.7146 33.1225C32.7896 33.2575 32.8496 33.405 32.8946 33.565C32.9446 33.72 32.9696 33.8925 32.9696 34.0825C32.9646 34.4375 32.8796 34.7725 32.7146 35.0875C32.5496 35.4075 32.3146 35.69 32.0096 35.935C31.7046 36.18 31.3346 36.3725 30.8996 36.5125C30.4646 36.6575 29.9746 36.73 29.4296 36.73C28.9946 36.73 28.5971 36.685 28.2371 36.595C27.8821 36.505 27.5771 36.3775 27.3221 36.2125C27.0721 36.0475 26.8796 35.8475 26.7446 35.6125C26.6046 35.3825 26.5346 35.1275 26.5346 34.8475C26.5346 34.5275 26.6021 34.245 26.7371 34C26.8721 33.755 27.0546 33.545 27.2846 33.37C27.5146 33.19 27.7821 33.0425 28.0871 32.9275C28.3921 32.8125 28.7146 32.7275 29.0546 32.6725C29.3996 32.6175 29.7521 32.5925 30.1121 32.5975C30.4721 32.5975 30.8246 32.6225 31.1696 32.6725C31.1246 32.5775 31.0871 32.48 31.0571 32.38C31.0321 32.275 31.0196 32.1625 31.0196 32.0425C31.0196 31.8875 31.0421 31.7275 31.0871 31.5625C31.1371 31.3975 31.2171 31.21 31.3271 31C31.1371 31.13 30.9246 31.2325 30.6896 31.3075C30.4546 31.3775 30.1871 31.4125 29.8871 31.4125C29.5971 31.4125 29.3246 31.365 29.0696 31.27C28.8196 31.175 28.5996 31.035 28.4096 30.85C28.2196 30.665 28.0696 30.435 27.9596 30.16C27.8496 29.88 27.7946 29.555 27.7946 29.185C27.7946 28.825 27.8596 28.4725 27.9896 28.1275C28.1246 27.7775 28.3196 27.4675 28.5746 27.1975C28.8296 26.9225 29.1446 26.7025 29.5196 26.5375C29.8946 26.3725 30.3271 26.29 30.8171 26.29C31.0871 26.29 31.3446 26.3225 31.5896 26.3875C31.8346 26.4525 32.0546 26.55 32.2496 26.68H34.3046ZM36.5677 28.5175C36.7677 28.0925 36.9827 27.725 37.2127 27.415C37.4477 27.1 37.6927 26.855 37.9477 26.68C38.2027 26.5 38.4652 26.3925 38.7352 26.3575C39.0052 26.3175 39.2802 26.3575 39.5602 26.4775L39.3202 27.76C38.6702 27.5 38.0952 27.595 37.5952 28.045C37.1002 28.495 36.6977 29.3075 36.3877 30.4825L35.9677 34H34.6627L35.5777 26.395H36.2377C36.5427 26.395 36.6952 26.545 36.6952 26.845L36.5677 28.5175ZM44.5845 27.3325C44.4745 27.3075 44.3645 27.2925 44.2545 27.2875C44.1495 27.2775 44.0445 27.2725 43.9395 27.2725C43.6395 27.2725 43.3495 27.3225 43.0695 27.4225C42.7895 27.5175 42.527 27.6525 42.282 27.8275C42.037 28.0025 41.8145 28.2125 41.6145 28.4575C41.4145 28.6975 41.242 28.9625 41.097 29.2525C40.957 29.5425 40.847 29.8525 40.767 30.1825C40.687 30.5075 40.647 30.8425 40.647 31.1875C40.647 32.3925 41.032 32.995 41.802 32.995C42.047 32.995 42.287 32.92 42.522 32.77C42.757 32.615 42.9795 32.4025 43.1895 32.1325C43.4045 31.8575 43.602 31.535 43.782 31.165C43.962 30.79 44.122 30.38 44.262 29.935L44.5845 27.3325ZM44.0745 31.9975C43.8945 32.3175 43.6995 32.6075 43.4895 32.8675C43.2845 33.1275 43.0645 33.35 42.8295 33.535C42.5995 33.715 42.3545 33.855 42.0945 33.955C41.8395 34.055 41.5745 34.105 41.2995 34.105C40.9995 34.105 40.727 34.0475 40.482 33.9325C40.237 33.8125 40.027 33.64 39.852 33.415C39.682 33.185 39.5495 32.905 39.4545 32.575C39.3595 32.24 39.312 31.8575 39.312 31.4275C39.312 30.9775 39.367 30.54 39.477 30.115C39.592 29.685 39.752 29.28 39.957 28.9C40.167 28.52 40.417 28.1725 40.707 27.8575C40.997 27.5375 41.3195 27.2625 41.6745 27.0325C42.0345 26.7975 42.4195 26.6175 42.8295 26.4925C43.2395 26.3625 43.6695 26.2975 44.1195 26.2975C44.4445 26.2975 44.7595 26.325 45.0645 26.38C45.3745 26.43 45.6795 26.52 45.9795 26.65L45.072 34H44.382C44.207 34 44.087 33.955 44.022 33.865C43.962 33.775 43.932 33.665 43.932 33.535L44.0745 31.9975ZM46.5195 23.1325L44.6895 25.0675C44.6195 25.1425 44.552 25.1975 44.487 25.2325C44.422 25.2625 44.342 25.2775 44.247 25.2775H43.512L44.7345 23.4625C44.8095 23.3475 44.887 23.265 44.967 23.215C45.052 23.16 45.1695 23.1325 45.3195 23.1325H46.5195ZM49.6356 26.5525H53.8881L52.9806 34H51.6681L52.4631 27.52H49.5681L48.8031 33.76L48.4506 35.3125C48.3956 35.4925 48.3131 35.63 48.2031 35.725C48.0981 35.825 47.9506 35.875 47.7606 35.875H47.2356L48.2631 27.535L47.5281 27.445C47.4231 27.42 47.3431 27.385 47.2881 27.34C47.2331 27.29 47.2106 27.215 47.2206 27.115L47.2806 26.5525H48.3831L48.4356 26.1325C48.4906 25.6675 48.6106 25.2425 48.7956 24.8575C48.9806 24.4725 49.2231 24.1425 49.5231 23.8675C49.8281 23.5925 50.1906 23.38 50.6106 23.23C51.0356 23.075 51.5156 22.9975 52.0506 22.9975C52.1406 22.9975 52.2331 23.0025 52.3281 23.0125C52.4281 23.0175 52.5256 23.0275 52.6206 23.0425C52.7206 23.0525 52.8131 23.0675 52.8981 23.0875C52.9881 23.1025 53.0656 23.1225 53.1306 23.1475L52.9956 23.8225C52.9856 23.8725 52.9606 23.9075 52.9206 23.9275C52.8856 23.9475 52.8381 23.96 52.7781 23.965C52.7181 23.97 52.6481 23.97 52.5681 23.965C52.4881 23.96 52.3956 23.9575 52.2906 23.9575C51.8756 23.9575 51.5156 24.0025 51.2106 24.0925C50.9056 24.1825 50.6481 24.3175 50.4381 24.4975C50.2281 24.6775 50.0606 24.905 49.9356 25.18C49.8156 25.455 49.7331 25.78 49.6881 26.155L49.6356 26.5525ZM60.7312 32.635C60.4712 32.92 60.2237 33.1575 59.9887 33.3475C59.7537 33.5375 59.5187 33.69 59.2837 33.805C59.0487 33.915 58.8037 33.9925 58.5487 34.0375C58.2987 34.0825 58.0287 34.105 57.7387 34.105C57.2987 34.105 56.9087 34.03 56.5687 33.88C56.2337 33.73 55.9512 33.52 55.7212 33.25C55.4962 32.975 55.3237 32.6475 55.2037 32.2675C55.0887 31.8825 55.0312 31.46 55.0312 31C55.0312 30.385 55.1262 29.795 55.3162 29.23C55.5112 28.665 55.7812 28.165 56.1262 27.73C56.4712 27.295 56.8812 26.9475 57.3562 26.6875C57.8362 26.4275 58.3587 26.2975 58.9237 26.2975C59.4287 26.2975 59.8512 26.3875 60.1912 26.5675C60.5312 26.7425 60.8287 27 61.0837 27.34L60.6637 27.8425C60.6287 27.8825 60.5887 27.915 60.5437 27.94C60.5037 27.965 60.4562 27.9775 60.4012 27.9775C60.3312 27.9775 60.2612 27.9475 60.1912 27.8875C60.1262 27.8225 60.0387 27.7525 59.9287 27.6775C59.8187 27.5975 59.6812 27.5275 59.5162 27.4675C59.3562 27.4025 59.1487 27.37 58.8937 27.37C58.5487 27.37 58.2237 27.465 57.9187 27.655C57.6137 27.84 57.3462 28.095 57.1162 28.42C56.8862 28.745 56.7037 29.13 56.5687 29.575C56.4387 30.02 56.3737 30.4975 56.3737 31.0075C56.3737 31.3175 56.4087 31.6 56.4787 31.855C56.5487 32.105 56.6537 32.32 56.7937 32.5C56.9337 32.675 57.1037 32.8125 57.3037 32.9125C57.5087 33.0075 57.7462 33.055 58.0162 33.055C58.3512 33.055 58.6312 33.005 58.8562 32.905C59.0862 32.805 59.2787 32.6975 59.4337 32.5825C59.5887 32.4625 59.7187 32.3525 59.8237 32.2525C59.9337 32.1525 60.0412 32.1025 60.1462 32.1025C60.2412 32.1025 60.3262 32.145 60.4012 32.23L60.7312 32.635ZM64.6587 33.0625C65.0237 33.0625 65.3537 32.9625 65.6487 32.7625C65.9487 32.5625 66.2037 32.2975 66.4137 31.9675C66.6287 31.6325 66.7937 31.2475 66.9087 30.8125C67.0237 30.3775 67.0812 29.9225 67.0812 29.4475C67.0812 28.7475 66.9412 28.2225 66.6612 27.8725C66.3862 27.5175 65.9887 27.34 65.4687 27.34C65.0987 27.34 64.7637 27.44 64.4637 27.64C64.1687 27.835 63.9162 28.0975 63.7062 28.4275C63.4962 28.7575 63.3337 29.14 63.2187 29.575C63.1037 30.01 63.0462 30.465 63.0462 30.94C63.0462 31.64 63.1837 32.17 63.4587 32.53C63.7337 32.885 64.1337 33.0625 64.6587 33.0625ZM64.5312 34.105C64.1162 34.105 63.7362 34.035 63.3912 33.895C63.0462 33.75 62.7487 33.5425 62.4987 33.2725C62.2487 33.0025 62.0537 32.6725 61.9137 32.2825C61.7737 31.8925 61.7037 31.4475 61.7037 30.9475C61.7037 30.3075 61.8037 29.705 62.0037 29.14C62.2037 28.575 62.4787 28.0825 62.8287 27.6625C63.1787 27.2375 63.5887 26.9025 64.0587 26.6575C64.5337 26.4125 65.0437 26.29 65.5887 26.29C66.0037 26.29 66.3837 26.3625 66.7287 26.5075C67.0737 26.6475 67.3712 26.8525 67.6212 27.1225C67.8712 27.3925 68.0662 27.7225 68.2062 28.1125C68.3462 28.5025 68.4162 28.945 68.4162 29.44C68.4162 30.075 68.3162 30.675 68.1162 31.24C67.9162 31.805 67.6412 32.3 67.2912 32.725C66.9462 33.15 66.5362 33.4875 66.0612 33.7375C65.5862 33.9825 65.0762 34.105 64.5312 34.105ZM74.3796 27.6175C74.3396 27.6775 74.2996 27.7225 74.2596 27.7525C74.2196 27.7775 74.1696 27.79 74.1096 27.79C74.0396 27.79 73.9621 27.7625 73.8771 27.7075C73.7971 27.6525 73.6971 27.5925 73.5771 27.5275C73.4621 27.4575 73.3196 27.395 73.1496 27.34C72.9796 27.28 72.7746 27.25 72.5346 27.25C72.3096 27.25 72.1046 27.2825 71.9196 27.3475C71.7346 27.4075 71.5746 27.4925 71.4396 27.6025C71.3096 27.7125 71.2071 27.8425 71.1321 27.9925C71.0621 28.1375 71.0271 28.2925 71.0271 28.4575C71.0271 28.6925 71.1046 28.88 71.2596 29.02C71.4146 29.16 71.6096 29.2825 71.8446 29.3875C72.0796 29.4875 72.3321 29.585 72.6021 29.68C72.8721 29.775 73.1246 29.895 73.3596 30.04C73.5946 30.185 73.7896 30.37 73.9446 30.595C74.0996 30.82 74.1771 31.1125 74.1771 31.4725C74.1771 31.8225 74.1071 32.1575 73.9671 32.4775C73.8321 32.7975 73.6346 33.08 73.3746 33.325C73.1196 33.565 72.8096 33.7575 72.4446 33.9025C72.0846 34.0475 71.6796 34.12 71.2296 34.12C70.7446 34.12 70.3146 34.035 69.9396 33.865C69.5696 33.69 69.2671 33.4675 69.0321 33.1975L69.3621 32.6875C69.4071 32.6225 69.4546 32.5725 69.5046 32.5375C69.5596 32.5025 69.6296 32.485 69.7146 32.485C69.7946 32.485 69.8746 32.52 69.9546 32.59C70.0346 32.66 70.1346 32.74 70.2546 32.83C70.3746 32.915 70.5246 32.9925 70.7046 33.0625C70.8896 33.1325 71.1221 33.1675 71.4021 33.1675C71.6471 33.1675 71.8671 33.13 72.0621 33.055C72.2621 32.98 72.4296 32.88 72.5646 32.755C72.7046 32.63 72.8096 32.485 72.8796 32.32C72.9546 32.15 72.9921 31.97 72.9921 31.78C72.9921 31.525 72.9146 31.3225 72.7596 31.1725C72.6046 31.0225 72.4096 30.8975 72.1746 30.7975C71.9396 30.6975 71.6871 30.605 71.4171 30.52C71.1471 30.43 70.8946 30.3175 70.6596 30.1825C70.4246 30.0425 70.2296 29.8625 70.0746 29.6425C69.9196 29.4225 69.8421 29.13 69.8421 28.765C69.8421 28.445 69.9046 28.1375 70.0296 27.8425C70.1596 27.5425 70.3446 27.2775 70.5846 27.0475C70.8246 26.8175 71.1146 26.635 71.4546 26.5C71.7996 26.36 72.1871 26.29 72.6171 26.29C73.0721 26.29 73.4721 26.3675 73.8171 26.5225C74.1671 26.6725 74.4671 26.8775 74.7171 27.1375L74.3796 27.6175Z" fill="#A29AFF"/>
</svg>
