<svg width="50" height="45" viewBox="0 0 50 45" fill="none" xmlns="http://www.w3.org/2000/svg">
<path d="M49.4164 39.7628L27.4858 1.77553C26.1197 -0.591843 23.883 -0.591843 22.5157 1.77553L0.583081 39.7628C-0.782996 42.1302 0.334291 44.0667 3.06791 44.0667H46.9312C49.6652 44.0667 50.784 42.1302 49.416 39.7628H49.4164ZM25.0006 40.2999C23.0061 40.2999 21.3897 38.6827 21.3897 36.689C21.3897 34.6944 23.0065 33.078 25.0006 33.078C26.9952 33.078 28.6116 34.6948 28.6116 36.689C28.6116 38.6835 26.9956 40.2999 25.0006 40.2999ZM28.1074 29.4546C28.1074 29.798 27.8295 30.0762 27.4862 30.0762H22.5161C22.1728 30.0762 21.8949 29.7983 21.8949 29.4546V12.9268C21.8949 12.5834 22.1728 12.3056 22.5161 12.3056H27.4862C27.8295 12.3056 28.1074 12.5834 28.1074 12.9268V29.4546Z" fill="#FFD76F"/>
</svg>
