<svg width="420" height="121" viewBox="0 0 420 121" fill="none" xmlns="http://www.w3.org/2000/svg">
<path d="M9.15593 120.141H71.1225C73.5511 120.141 75.8795 119.176 77.5959 117.46C79.3123 115.742 80.277 113.414 80.277 110.986V96.1986C80.277 87.2343 76.7159 78.6371 70.3772 72.2975C64.0376 65.9589 55.4404 62.3977 46.4762 62.3977H33.8008C24.8366 62.3977 16.2394 65.9589 9.89979 72.2975C3.56116 78.6371 0 87.2343 0 96.1986V110.986C0 113.414 0.964799 115.742 2.68113 117.46C4.39759 119.176 6.72613 120.141 9.15448 120.141H9.15593Z" fill="#F5A7E4"/>
<path d="M69.0091 28.8732C69.0091 44.8182 56.0829 57.7439 40.1383 57.7439C24.1937 57.7439 11.2676 44.8177 11.2676 28.8732C11.2676 12.9271 24.1937 0 40.1383 0C56.0829 0 69.0091 12.9262 69.0091 28.8732Z" fill="#F5A7E4"/>
<path d="M94.0866 120.141H156.053C158.482 120.141 160.81 119.176 162.527 117.46C164.243 115.742 165.208 113.414 165.208 110.986V96.1986C165.208 87.2343 161.647 78.6371 155.308 72.2975C148.968 65.9589 140.371 62.3977 131.407 62.3977H118.732C109.767 62.3977 101.17 65.9589 94.8305 72.2975C88.4918 78.6371 84.9307 87.2343 84.9307 96.1986V110.986C84.9307 113.414 85.8955 115.742 87.6118 117.46C89.3283 119.176 91.6568 120.141 94.0851 120.141H94.0866Z" fill="#F5A7E4"/>
<path d="M153.94 28.8732C153.94 44.8182 141.014 57.7439 125.069 57.7439C109.124 57.7439 96.1982 44.8177 96.1982 28.8732C96.1982 12.9271 109.124 0 125.069 0C141.014 0 153.94 12.9262 153.94 28.8732Z" fill="#F5A7E4"/>
<path d="M179.018 120.141H240.985C243.413 120.141 245.742 119.176 247.458 117.46C249.175 115.742 250.139 113.414 250.139 110.986V96.1986C250.139 87.2343 246.578 78.6371 240.24 72.2975C233.9 65.9589 225.303 62.3977 216.338 62.3977H203.663C194.699 62.3977 186.102 65.9589 179.762 72.2975C173.423 78.6371 169.862 87.2343 169.862 96.1986V110.986C169.862 113.414 170.827 115.742 172.543 117.46C174.26 119.176 176.588 120.141 179.017 120.141H179.018Z" fill="#F5A7E4"/>
<path d="M238.871 28.8732C238.871 44.8182 225.945 57.7439 210.001 57.7439C194.056 57.7439 181.13 44.8177 181.13 28.8732C181.13 12.9271 194.056 0 210.001 0C225.945 0 238.871 12.9262 238.871 28.8732Z" fill="#F5A7E4"/>
<path d="M348.879 120.141H410.845C413.274 120.141 415.602 119.176 417.319 117.46C419.035 115.742 420 113.414 420 110.986V96.1986C420 87.2343 416.439 78.6371 410.1 72.2975C403.76 65.9589 395.163 62.3977 386.199 62.3977H373.524C364.559 62.3977 355.962 65.9589 349.622 72.2975C343.284 78.6371 339.723 87.2343 339.723 96.1986V110.986C339.723 113.414 340.687 115.742 342.404 117.46C344.12 119.176 346.449 120.141 348.877 120.141H348.879Z" fill="white"/>
<path d="M408.732 28.8732C408.732 44.8182 395.806 57.7439 379.861 57.7439C363.916 57.7439 350.99 44.8177 350.99 28.8732C350.99 12.9271 363.916 0 379.861 0C395.806 0 408.732 12.9262 408.732 28.8732Z" fill="white"/>
<path d="M263.948 120.141H325.915C328.343 120.141 330.672 119.176 332.388 117.46C334.104 115.742 335.069 113.414 335.069 110.986V96.1986C335.069 87.2343 331.508 78.6371 325.169 72.2975C318.83 65.9589 310.232 62.3977 301.268 62.3977H288.593C279.629 62.3977 271.031 65.9589 264.692 72.2975C258.353 78.6371 254.792 87.2343 254.792 96.1986V110.986C254.792 113.414 255.757 115.742 257.473 117.46C259.19 119.176 261.518 120.141 263.946 120.141H263.948Z" fill="white"/>
<path d="M323.802 28.8732C323.802 44.8182 310.876 57.7439 294.931 57.7439C278.987 57.7439 266.061 44.8177 266.061 28.8732C266.061 12.9271 278.987 0 294.931 0C310.876 0 323.802 12.9262 323.802 28.8732Z" fill="white"/>
</svg>
