<svg width="726" height="104" viewBox="0 0 726 104" fill="none" xmlns="http://www.w3.org/2000/svg">
<path d="M7.86974 103.264H61.1315C63.2189 103.264 65.2203 102.435 66.6955 100.96C68.1708 99.4838 69 97.4824 69 95.396V82.6854C69 74.9805 65.9391 67.5909 60.4909 62.1419C55.0419 56.6937 47.6523 53.6328 39.9474 53.6328H29.0526C21.3477 53.6328 13.9581 56.6937 8.5091 62.1419C3.06091 67.5909 0 74.9805 0 82.6854V95.396C0 97.4826 0.829268 99.4839 2.3045 100.96C3.77983 102.435 5.78127 103.264 7.86849 103.264H7.86974Z" fill="#FB5CC2"/>
<path d="M59.3157 24.8172C59.3157 38.5223 48.2054 49.6323 34.5006 49.6323C20.7959 49.6323 9.68555 38.5219 9.68555 24.8172C9.68555 11.1112 20.7959 0 34.5006 0C48.2054 0 59.3157 11.1103 59.3157 24.8172Z" fill="#FB5CC2"/>
<path d="M80.8697 103.264H134.132C136.219 103.264 138.22 102.435 139.696 100.96C141.171 99.4838 142 97.4824 142 95.396V82.6854C142 74.9805 138.939 67.5909 133.491 62.1419C128.042 56.6937 120.652 53.6328 112.947 53.6328H102.053C94.3477 53.6328 86.9581 56.6937 81.5091 62.1419C76.0609 67.5909 73 74.9805 73 82.6854V95.396C73 97.4826 73.8293 99.4839 75.3045 100.96C76.7798 102.435 78.7813 103.264 80.8685 103.264H80.8697Z" fill="#FB5CC2"/>
<path d="M132.316 24.8172C132.316 38.5223 121.205 49.6323 107.501 49.6323C93.7959 49.6323 82.6855 38.5219 82.6855 24.8172C82.6855 11.1112 93.7959 0 107.501 0C121.205 0 132.316 11.1103 132.316 24.8172Z" fill="#FB5CC2"/>
<path d="M153.87 103.264H207.132C209.219 103.264 211.22 102.435 212.696 100.96C214.171 99.4838 215 97.4824 215 95.396V82.6854C215 74.9805 211.939 67.5909 206.491 62.1419C201.042 56.6937 193.652 53.6328 185.947 53.6328H175.053C167.348 53.6328 159.958 56.6937 154.509 62.1419C149.061 67.5909 146 74.9805 146 82.6854V95.396C146 97.4826 146.829 99.4839 148.304 100.96C149.78 102.435 151.781 103.264 153.868 103.264H153.87Z" fill="#FB5CC2"/>
<path d="M205.316 24.8172C205.316 38.5223 194.205 49.6323 180.501 49.6323C166.796 49.6323 155.686 38.5219 155.686 24.8172C155.686 11.1112 166.796 0 180.501 0C194.205 0 205.316 11.1103 205.316 24.8172Z" fill="#FB5CC2"/>
<path d="M226.87 103.264H280.132C282.219 103.264 284.22 102.435 285.696 100.96C287.171 99.4838 288 97.4824 288 95.396V82.6854C288 74.9805 284.939 67.5909 279.491 62.1419C274.042 56.6937 266.652 53.6328 258.947 53.6328H248.053C240.348 53.6328 232.958 56.6937 227.509 62.1419C222.061 67.5909 219 74.9805 219 82.6854V95.396C219 97.4826 219.829 99.4839 221.304 100.96C222.78 102.435 224.781 103.264 226.868 103.264H226.87Z" fill="#FB5CC2"/>
<path d="M278.316 24.8172C278.316 38.5223 267.205 49.6323 253.501 49.6323C239.796 49.6323 228.686 38.5219 228.686 24.8172C228.686 11.1112 239.796 0 253.501 0C267.205 0 278.316 11.1103 278.316 24.8172Z" fill="#FB5CC2"/>
<path d="M299.87 103.264H353.132C355.219 103.264 357.22 102.435 358.696 100.96C360.171 99.4838 361 97.4824 361 95.396V82.6854C361 74.9805 357.939 67.5909 352.491 62.1419C347.042 56.6937 339.652 53.6328 331.947 53.6328H321.053C313.348 53.6328 305.958 56.6937 300.509 62.1419C295.061 67.5909 292 74.9805 292 82.6854V95.396C292 97.4826 292.829 99.4839 294.304 100.96C295.78 102.435 297.781 103.264 299.868 103.264H299.87Z" fill="#FB5CC2"/>
<path d="M351.316 24.8172C351.316 38.5223 340.205 49.6323 326.501 49.6323C312.796 49.6323 301.686 38.5219 301.686 24.8172C301.686 11.1112 312.796 0 326.501 0C340.205 0 351.316 11.1103 351.316 24.8172Z" fill="#FB5CC2"/>
<path d="M372.87 103.264H426.132C428.219 103.264 430.22 102.435 431.696 100.96C433.171 99.4838 434 97.4824 434 95.396V82.6854C434 74.9805 430.939 67.5909 425.491 62.1419C420.042 56.6937 412.652 53.6328 404.947 53.6328H394.053C386.348 53.6328 378.958 56.6937 373.509 62.1419C368.061 67.5909 365 74.9805 365 82.6854V95.396C365 97.4826 365.829 99.4839 367.304 100.96C368.78 102.435 370.781 103.264 372.868 103.264H372.87Z" fill="#FB5CC2"/>
<path d="M424.316 24.8172C424.316 38.5223 413.205 49.6323 399.501 49.6323C385.796 49.6323 374.686 38.5219 374.686 24.8172C374.686 11.1112 385.796 0 399.501 0C413.205 0 424.316 11.1103 424.316 24.8172Z" fill="#FB5CC2"/>
<path d="M445.87 103.264H499.132C501.219 103.264 503.22 102.435 504.696 100.96C506.171 99.4838 507 97.4824 507 95.396V82.6854C507 74.9805 503.939 67.5909 498.491 62.1419C493.042 56.6937 485.652 53.6328 477.947 53.6328H467.053C459.348 53.6328 451.958 56.6937 446.509 62.1419C441.061 67.5909 438 74.9805 438 82.6854V95.396C438 97.4826 438.829 99.4839 440.304 100.96C441.78 102.435 443.781 103.264 445.868 103.264H445.87Z" fill="white"/>
<path d="M497.316 24.8172C497.316 38.5223 486.205 49.6323 472.501 49.6323C458.796 49.6323 447.686 38.5219 447.686 24.8172C447.686 11.1112 458.796 0 472.501 0C486.205 0 497.316 11.1103 497.316 24.8172Z" fill="white"/>
<path d="M591.87 103.264H645.132C647.219 103.264 649.22 102.435 650.696 100.96C652.171 99.4838 653 97.4824 653 95.396V82.6854C653 74.9805 649.939 67.5909 644.491 62.1419C639.042 56.6937 631.652 53.6328 623.947 53.6328H613.053C605.348 53.6328 597.958 56.6937 592.509 62.1419C587.061 67.5909 584 74.9805 584 82.6854V95.396C584 97.4826 584.829 99.4839 586.304 100.96C587.78 102.435 589.781 103.264 591.868 103.264H591.87Z" fill="white"/>
<path d="M643.316 24.8172C643.316 38.5223 632.205 49.6323 618.501 49.6323C604.796 49.6323 593.686 38.5219 593.686 24.8172C593.686 11.1112 604.796 0 618.501 0C632.205 0 643.316 11.1103 643.316 24.8172Z" fill="white"/>
<path d="M518.87 103.264H572.132C574.219 103.264 576.22 102.435 577.696 100.96C579.171 99.4838 580 97.4824 580 95.396V82.6854C580 74.9805 576.939 67.5909 571.491 62.1419C566.042 56.6937 558.652 53.6328 550.947 53.6328H540.053C532.348 53.6328 524.958 56.6937 519.509 62.1419C514.061 67.5909 511 74.9805 511 82.6854V95.396C511 97.4826 511.829 99.4839 513.304 100.96C514.78 102.435 516.781 103.264 518.868 103.264H518.87Z" fill="white"/>
<path d="M570.316 24.8172C570.316 38.5223 559.205 49.6323 545.501 49.6323C531.796 49.6323 520.686 38.5219 520.686 24.8172C520.686 11.1112 531.796 0 545.501 0C559.205 0 570.316 11.1103 570.316 24.8172Z" fill="white"/>
<path d="M664.87 103.264H718.132C720.219 103.264 722.22 102.435 723.696 100.96C725.171 99.4838 726 97.4824 726 95.396V82.6854C726 74.9805 722.939 67.5909 717.491 62.1419C712.042 56.6937 704.652 53.6328 696.947 53.6328H686.053C678.348 53.6328 670.958 56.6937 665.509 62.1419C660.061 67.5909 657 74.9805 657 82.6854V95.396C657 97.4826 657.829 99.4839 659.304 100.96C660.78 102.435 662.781 103.264 664.868 103.264H664.87Z" fill="white"/>
<path d="M716.316 24.8172C716.316 38.5223 705.205 49.6323 691.501 49.6323C677.796 49.6323 666.686 38.5219 666.686 24.8172C666.686 11.1112 677.796 0 691.501 0C705.205 0 716.316 11.1103 716.316 24.8172Z" fill="white"/>
</svg>
