<svg width="104" height="39" viewBox="0 0 104 39" fill="none" xmlns="http://www.w3.org/2000/svg">
<mask id="mask0_224_4" style="mask-type:luminance" maskUnits="userSpaceOnUse" x="0" y="0" width="103" height="39">
<path d="M103 0L-8.42148e-07 0V39H103V0Z" fill="white"/>
</mask>
<g mask="url(#mask0_224_4)">
<path d="M1.56679 36.6586C2.16129 35.7809 2.57732 34.7371 2.91214 33.6158C2.88463 33.3345 2.86652 33.0491 2.86652 32.7555V5.93868C2.86652 2.65946 4.61649 0 6.7751 0L99.0914 0C101.25 0 103 2.65946 103 5.93868V32.7555C103 36.0358 101.25 38.6932 99.0914 38.6932H6.7751C6.09403 38.6932 5.45323 38.4271 4.89562 37.9623C4.25213 38.4964 3.53349 38.8216 2.80277 38.8991C1.99086 38.9878 1.13869 38.8063 0.336172 38.6218C0.223443 38.5963 0.112057 38.5678 0 38.5393C0.522039 37.9164 1.09038 37.3629 1.56679 36.6586Z" fill="#A29AFF" fill-opacity="0.3"/>
<path d="M1.88607 37.8951C2.1705 37.9261 2.43859 37.9329 2.69419 37.905L2.69734 37.9047C3.20178 37.8512 3.73991 37.622 4.25693 37.1928L4.89699 36.6616L5.53593 37.1942C5.94691 37.5368 6.36778 37.6932 6.7751 37.6932H99.0914C99.7265 37.6932 100.429 37.3018 101.02 36.4046C101.605 35.5154 102 34.2283 102 32.7555V5.93868C102 4.46643 101.605 3.17898 101.02 2.28938C100.429 1.39153 99.7262 1 99.0914 1H6.7751C6.14031 1 5.43755 1.39153 4.84666 2.28938C4.2612 3.17898 3.86652 4.46643 3.86652 5.93868V32.7555C3.86652 33.0081 3.8821 33.2598 3.9074 33.5185L3.9265 33.7139L3.87034 33.902C3.5218 35.0691 3.07039 36.2219 2.39485 37.2192L1.88607 37.8951ZM1.88607 37.8951C2.06369 37.6783 2.2373 37.4521 2.39472 37.2194L1.88607 37.8951Z" stroke="#A29AFF" stroke-opacity="0.9" stroke-width="2"/>
</g>
<path d="M14.986 9.855C15.411 9.855 15.786 9.79 16.111 9.66C16.436 9.53 16.7085 9.35 16.9285 9.12C17.1485 8.885 17.316 8.6075 17.431 8.2875C17.546 7.9625 17.6035 7.61 17.6035 7.23C17.6035 6.94 17.561 6.68 17.476 6.45C17.391 6.22 17.2635 6.025 17.0935 5.865C16.9235 5.7 16.7085 5.575 16.4485 5.49C16.1885 5.4 15.886 5.355 15.541 5.355H13.981L13.426 9.855H14.986ZM15.676 4.2525C16.246 4.2525 16.741 4.32 17.161 4.455C17.581 4.59 17.926 4.7825 18.196 5.0325C18.471 5.2825 18.676 5.5825 18.811 5.9325C18.946 6.2825 19.0135 6.6725 19.0135 7.1025C19.0135 7.6675 18.921 8.1875 18.736 8.6625C18.551 9.1325 18.281 9.5375 17.926 9.8775C17.576 10.2175 17.141 10.485 16.621 10.68C16.106 10.87 15.516 10.965 14.851 10.965H13.291L12.796 15H11.401L12.7135 4.2525H15.676ZM21.3192 9.5175C21.5192 9.0925 21.7342 8.725 21.9642 8.415C22.1992 8.1 22.4442 7.855 22.6992 7.68C22.9542 7.5 23.2167 7.3925 23.4867 7.3575C23.7567 7.3175 24.0317 7.3575 24.3117 7.4775L24.0717 8.76C23.4217 8.5 22.8467 8.595 22.3467 9.045C21.8517 9.495 21.4492 10.3075 21.1392 11.4825L20.7192 15H19.4142L20.3292 7.395H20.9892C21.2942 7.395 21.4467 7.545 21.4467 7.845L21.3192 9.5175ZM28.1253 8.2575C27.8103 8.2575 27.5203 8.3225 27.2553 8.4525C26.9903 8.5825 26.7553 8.7625 26.5503 8.9925C26.3453 9.2175 26.1703 9.485 26.0253 9.795C25.8803 10.1 25.7678 10.43 25.6878 10.785C26.4578 10.69 27.0753 10.5825 27.5403 10.4625C28.0053 10.3375 28.3628 10.205 28.6128 10.065C28.8628 9.92 29.0278 9.765 29.1078 9.6C29.1878 9.435 29.2278 9.2625 29.2278 9.0825C29.2278 8.9925 29.2078 8.9 29.1678 8.805C29.1278 8.705 29.0628 8.615 28.9728 8.535C28.8878 8.455 28.7753 8.39 28.6353 8.34C28.4953 8.285 28.3253 8.2575 28.1253 8.2575ZM30.2403 13.5975C29.9853 13.8625 29.7353 14.09 29.4903 14.28C29.2453 14.465 28.9953 14.62 28.7403 14.745C28.4903 14.87 28.2253 14.96 27.9453 15.015C27.6703 15.075 27.3728 15.105 27.0528 15.105C26.6178 15.105 26.2278 15.0325 25.8828 14.8875C25.5378 14.7425 25.2453 14.5375 25.0053 14.2725C24.7653 14.0025 24.5803 13.6775 24.4503 13.2975C24.3203 12.9175 24.2553 12.4925 24.2553 12.0225C24.2553 11.6325 24.2953 11.245 24.3753 10.86C24.4603 10.47 24.5803 10.1 24.7353 9.75C24.8953 9.4 25.0878 9.075 25.3128 8.775C25.5428 8.475 25.8028 8.2175 26.0928 8.0025C26.3878 7.7825 26.7103 7.61 27.0603 7.485C27.4153 7.36 27.7953 7.2975 28.2003 7.2975C28.5853 7.2975 28.9178 7.3525 29.1978 7.4625C29.4778 7.5725 29.7078 7.7125 29.8878 7.8825C30.0678 8.0525 30.2003 8.24 30.2853 8.445C30.3753 8.65 30.4203 8.845 30.4203 9.03C30.4203 9.36 30.3528 9.665 30.2178 9.945C30.0828 10.22 29.8353 10.47 29.4753 10.695C29.1153 10.915 28.6203 11.1075 27.9903 11.2725C27.3603 11.4375 26.5503 11.57 25.5603 11.67C25.5603 11.725 25.5578 11.78 25.5528 11.835C25.5528 11.885 25.5528 11.9375 25.5528 11.9925C25.5528 12.6625 25.6978 13.175 25.9878 13.53C26.2828 13.88 26.7253 14.055 27.3153 14.055C27.5553 14.055 27.7678 14.03 27.9528 13.98C28.1428 13.93 28.3103 13.87 28.4553 13.8C28.6053 13.725 28.7353 13.645 28.8453 13.56C28.9603 13.47 29.0628 13.39 29.1528 13.32C29.2478 13.245 29.3353 13.1825 29.4153 13.1325C29.4953 13.0825 29.5753 13.0575 29.6553 13.0575C29.7503 13.0575 29.8353 13.1 29.9103 13.185L30.2403 13.5975ZM36.338 8.6175C36.298 8.6775 36.258 8.7225 36.218 8.7525C36.178 8.7775 36.128 8.79 36.068 8.79C35.998 8.79 35.9205 8.7625 35.8355 8.7075C35.7555 8.6525 35.6555 8.5925 35.5355 8.5275C35.4205 8.4575 35.278 8.395 35.108 8.34C34.938 8.28 34.733 8.25 34.493 8.25C34.268 8.25 34.063 8.2825 33.878 8.3475C33.693 8.4075 33.533 8.4925 33.398 8.6025C33.268 8.7125 33.1655 8.8425 33.0905 8.9925C33.0205 9.1375 32.9855 9.2925 32.9855 9.4575C32.9855 9.6925 33.063 9.88 33.218 10.02C33.373 10.16 33.568 10.2825 33.803 10.3875C34.038 10.4875 34.2905 10.585 34.5605 10.68C34.8305 10.775 35.083 10.895 35.318 11.04C35.553 11.185 35.748 11.37 35.903 11.595C36.058 11.82 36.1355 12.1125 36.1355 12.4725C36.1355 12.8225 36.0655 13.1575 35.9255 13.4775C35.7905 13.7975 35.593 14.08 35.333 14.325C35.078 14.565 34.768 14.7575 34.403 14.9025C34.043 15.0475 33.638 15.12 33.188 15.12C32.703 15.12 32.273 15.035 31.898 14.865C31.528 14.69 31.2255 14.4675 30.9905 14.1975L31.3205 13.6875C31.3655 13.6225 31.413 13.5725 31.463 13.5375C31.518 13.5025 31.588 13.485 31.673 13.485C31.753 13.485 31.833 13.52 31.913 13.59C31.993 13.66 32.093 13.74 32.213 13.83C32.333 13.915 32.483 13.9925 32.663 14.0625C32.848 14.1325 33.0805 14.1675 33.3605 14.1675C33.6055 14.1675 33.8255 14.13 34.0205 14.055C34.2205 13.98 34.388 13.88 34.523 13.755C34.663 13.63 34.768 13.485 34.838 13.32C34.913 13.15 34.9505 12.97 34.9505 12.78C34.9505 12.525 34.873 12.3225 34.718 12.1725C34.563 12.0225 34.368 11.8975 34.133 11.7975C33.898 11.6975 33.6455 11.605 33.3755 11.52C33.1055 11.43 32.853 11.3175 32.618 11.1825C32.383 11.0425 32.188 10.8625 32.033 10.6425C31.878 10.4225 31.8005 10.13 31.8005 9.765C31.8005 9.445 31.863 9.1375 31.988 8.8425C32.118 8.5425 32.303 8.2775 32.543 8.0475C32.783 7.8175 33.073 7.635 33.413 7.5C33.758 7.36 34.1455 7.29 34.5755 7.29C35.0305 7.29 35.4305 7.3675 35.7755 7.5225C36.1255 7.6725 36.4255 7.8775 36.6755 8.1375L36.338 8.6175ZM39.7489 7.4025L38.8339 15H37.5214L38.4364 7.4025H39.7489ZM40.2589 5.0175C40.2589 5.1475 40.2314 5.27 40.1764 5.385C40.1264 5.495 40.0564 5.595 39.9664 5.685C39.8814 5.77 39.7814 5.8375 39.6664 5.8875C39.5564 5.9375 39.4414 5.9625 39.3214 5.9625C39.2064 5.9625 39.0939 5.9375 38.9839 5.8875C38.8739 5.8375 38.7764 5.77 38.6914 5.685C38.6114 5.595 38.5464 5.495 38.4964 5.385C38.4464 5.27 38.4214 5.1475 38.4214 5.0175C38.4214 4.8875 38.4464 4.765 38.4964 4.65C38.5464 4.535 38.6139 4.435 38.6989 4.35C38.7839 4.26 38.8814 4.19 38.9914 4.14C39.1014 4.085 39.2139 4.0575 39.3289 4.0575C39.4489 4.0575 39.5639 4.0825 39.6739 4.1325C39.7889 4.1825 39.8889 4.2525 39.9739 4.3425C40.0589 4.4275 40.1264 4.53 40.1764 4.65C40.2314 4.765 40.2589 4.8875 40.2589 5.0175ZM43.8584 14.0625C44.2234 14.0625 44.5534 13.9625 44.8484 13.7625C45.1484 13.5625 45.4034 13.2975 45.6134 12.9675C45.8284 12.6325 45.9934 12.2475 46.1084 11.8125C46.2234 11.3775 46.2809 10.9225 46.2809 10.4475C46.2809 9.7475 46.1409 9.2225 45.8609 8.8725C45.5859 8.5175 45.1884 8.34 44.6684 8.34C44.2984 8.34 43.9634 8.44 43.6634 8.64C43.3684 8.835 43.1159 9.0975 42.9059 9.4275C42.6959 9.7575 42.5334 10.14 42.4184 10.575C42.3034 11.01 42.2459 11.465 42.2459 11.94C42.2459 12.64 42.3834 13.17 42.6584 13.53C42.9334 13.885 43.3334 14.0625 43.8584 14.0625ZM43.7309 15.105C43.3159 15.105 42.9359 15.035 42.5909 14.895C42.2459 14.75 41.9484 14.5425 41.6984 14.2725C41.4484 14.0025 41.2534 13.6725 41.1134 13.2825C40.9734 12.8925 40.9034 12.4475 40.9034 11.9475C40.9034 11.3075 41.0034 10.705 41.2034 10.14C41.4034 9.575 41.6784 9.0825 42.0284 8.6625C42.3784 8.2375 42.7884 7.9025 43.2584 7.6575C43.7334 7.4125 44.2434 7.29 44.7884 7.29C45.2034 7.29 45.5834 7.3625 45.9284 7.5075C46.2734 7.6475 46.5709 7.8525 46.8209 8.1225C47.0709 8.3925 47.2659 8.7225 47.4059 9.1125C47.5459 9.5025 47.6159 9.945 47.6159 10.44C47.6159 11.075 47.5159 11.675 47.3159 12.24C47.1159 12.805 46.8409 13.3 46.4909 13.725C46.1459 14.15 45.7359 14.4875 45.2609 14.7375C44.7859 14.9825 44.2759 15.105 43.7309 15.105ZM50.5943 9.3225C50.9993 8.6525 51.4568 8.1475 51.9668 7.8075C52.4768 7.4625 53.0018 7.29 53.5418 7.29C53.8618 7.29 54.1418 7.355 54.3818 7.485C54.6268 7.61 54.8243 7.795 54.9743 8.04C55.1293 8.285 55.2343 8.5875 55.2893 8.9475C55.3443 9.3025 55.3443 9.7075 55.2893 10.1625L54.7193 15H53.3918L53.9618 10.1625C54.0318 9.5625 53.9943 9.12 53.8493 8.835C53.7043 8.545 53.4368 8.4 53.0468 8.4C52.8068 8.4 52.5618 8.465 52.3118 8.595C52.0668 8.725 51.8293 8.91 51.5993 9.15C51.3693 9.39 51.1543 9.68 50.9543 10.02C50.7593 10.355 50.5918 10.73 50.4518 11.145L50.0168 15H48.6818L49.5968 7.395H50.2568C50.5568 7.395 50.7068 7.545 50.7068 7.845L50.5943 9.3225ZM61.8409 8.3325C61.7309 8.3075 61.6209 8.2925 61.5109 8.2875C61.4059 8.2775 61.3009 8.2725 61.1959 8.2725C60.8959 8.2725 60.6059 8.3225 60.3259 8.4225C60.0459 8.5175 59.7834 8.6525 59.5384 8.8275C59.2934 9.0025 59.0709 9.2125 58.8709 9.4575C58.6709 9.6975 58.4984 9.9625 58.3534 10.2525C58.2134 10.5425 58.1034 10.8525 58.0234 11.1825C57.9434 11.5075 57.9034 11.8425 57.9034 12.1875C57.9034 13.3925 58.2884 13.995 59.0584 13.995C59.3034 13.995 59.5434 13.92 59.7784 13.77C60.0134 13.615 60.2359 13.4025 60.4459 13.1325C60.6609 12.8575 60.8584 12.535 61.0384 12.165C61.2184 11.79 61.3784 11.38 61.5184 10.935L61.8409 8.3325ZM61.3309 12.9975C61.1509 13.3175 60.9559 13.6075 60.7459 13.8675C60.5409 14.1275 60.3209 14.35 60.0859 14.535C59.8559 14.715 59.6109 14.855 59.3509 14.955C59.0959 15.055 58.8309 15.105 58.5559 15.105C58.2559 15.105 57.9834 15.0475 57.7384 14.9325C57.4934 14.8125 57.2834 14.64 57.1084 14.415C56.9384 14.185 56.8059 13.905 56.7109 13.575C56.6159 13.24 56.5684 12.8575 56.5684 12.4275C56.5684 11.9775 56.6234 11.54 56.7334 11.115C56.8484 10.685 57.0084 10.28 57.2134 9.9C57.4234 9.52 57.6734 9.1725 57.9634 8.8575C58.2534 8.5375 58.5759 8.2625 58.9309 8.0325C59.2909 7.7975 59.6759 7.6175 60.0859 7.4925C60.4959 7.3625 60.9259 7.2975 61.3759 7.2975C61.7009 7.2975 62.0159 7.325 62.3209 7.38C62.6309 7.43 62.9359 7.52 63.2359 7.65L62.3284 15H61.6384C61.4634 15 61.3434 14.955 61.2784 14.865C61.2184 14.775 61.1884 14.665 61.1884 14.535L61.3309 12.9975ZM69.3126 13.335C69.5026 13.6 69.7301 13.79 69.9951 13.905C70.2601 14.015 70.5301 14.07 70.8051 14.07C71.0651 14.07 71.3101 14.015 71.5401 13.905C71.7701 13.795 71.9801 13.6475 72.1701 13.4625C72.3601 13.2725 72.5301 13.0525 72.6801 12.8025C72.8301 12.5475 72.9551 12.2775 73.0551 11.9925C73.1601 11.7025 73.2401 11.405 73.2951 11.1C73.3501 10.79 73.3776 10.485 73.3776 10.185C73.3776 9.59 73.2701 9.1375 73.0551 8.8275C72.8401 8.5175 72.5376 8.3625 72.1476 8.3625C71.9076 8.3625 71.6651 8.4375 71.4201 8.5875C71.1751 8.7325 70.9376 8.9375 70.7076 9.2025C70.4826 9.4675 70.2701 9.7825 70.0701 10.1475C69.8751 10.5125 69.7051 10.9125 69.5601 11.3475L69.3126 13.335ZM69.7176 9.465C69.9076 9.135 70.1151 8.8375 70.3401 8.5725C70.5651 8.3025 70.8026 8.0725 71.0526 7.8825C71.3026 7.6925 71.5601 7.5475 71.8251 7.4475C72.0951 7.3425 72.3701 7.29 72.6501 7.29C73.3001 7.29 73.8026 7.525 74.1576 7.995C74.5176 8.465 74.6976 9.1525 74.6976 10.0575C74.6976 10.4675 74.6551 10.8775 74.5701 11.2875C74.4851 11.6975 74.3626 12.09 74.2026 12.465C74.0476 12.835 73.8576 13.1825 73.6326 13.5075C73.4126 13.8275 73.1651 14.1075 72.8901 14.3475C72.6201 14.5825 72.3251 14.7675 72.0051 14.9025C71.6851 15.0375 71.3501 15.105 71.0001 15.105C70.6251 15.105 70.2851 15.0325 69.9801 14.8875C69.6751 14.7375 69.4151 14.5275 69.2001 14.2575L68.7951 17.5725H67.4976L68.7351 7.395H69.3951C69.6951 7.395 69.8451 7.545 69.8451 7.845L69.7176 9.465ZM80.9424 8.3325C80.8324 8.3075 80.7224 8.2925 80.6124 8.2875C80.5074 8.2775 80.4024 8.2725 80.2974 8.2725C79.9974 8.2725 79.7074 8.3225 79.4274 8.4225C79.1474 8.5175 78.8849 8.6525 78.6399 8.8275C78.3949 9.0025 78.1724 9.2125 77.9724 9.4575C77.7724 9.6975 77.5999 9.9625 77.4549 10.2525C77.3149 10.5425 77.2049 10.8525 77.1249 11.1825C77.0449 11.5075 77.0049 11.8425 77.0049 12.1875C77.0049 13.3925 77.3899 13.995 78.1599 13.995C78.4049 13.995 78.6449 13.92 78.8799 13.77C79.1149 13.615 79.3374 13.4025 79.5474 13.1325C79.7624 12.8575 79.9599 12.535 80.1399 12.165C80.3199 11.79 80.4799 11.38 80.6199 10.935L80.9424 8.3325ZM80.4324 12.9975C80.2524 13.3175 80.0574 13.6075 79.8474 13.8675C79.6424 14.1275 79.4224 14.35 79.1874 14.535C78.9574 14.715 78.7124 14.855 78.4524 14.955C78.1974 15.055 77.9324 15.105 77.6574 15.105C77.3574 15.105 77.0849 15.0475 76.8399 14.9325C76.5949 14.8125 76.3849 14.64 76.2099 14.415C76.0399 14.185 75.9074 13.905 75.8124 13.575C75.7174 13.24 75.6699 12.8575 75.6699 12.4275C75.6699 11.9775 75.7249 11.54 75.8349 11.115C75.9499 10.685 76.1099 10.28 76.3149 9.9C76.5249 9.52 76.7749 9.1725 77.0649 8.8575C77.3549 8.5375 77.6774 8.2625 78.0324 8.0325C78.3924 7.7975 78.7774 7.6175 79.1874 7.4925C79.5974 7.3625 80.0274 7.2975 80.4774 7.2975C80.8024 7.2975 81.1174 7.325 81.4224 7.38C81.7324 7.43 82.0374 7.52 82.3374 7.65L81.4299 15H80.7399C80.5649 15 80.4449 14.955 80.3799 14.865C80.3199 14.775 80.2899 14.665 80.2899 14.535L80.4324 12.9975ZM85.3036 9.5175C85.5036 9.0925 85.7186 8.725 85.9486 8.415C86.1836 8.1 86.4286 7.855 86.6836 7.68C86.9386 7.5 87.2011 7.3925 87.4711 7.3575C87.7411 7.3175 88.0161 7.3575 88.2961 7.4775L88.0561 8.76C87.4061 8.5 86.8311 8.595 86.3311 9.045C85.8361 9.495 85.4336 10.3075 85.1236 11.4825L84.7036 15H83.3986L84.3136 7.395H84.9736C85.2786 7.395 85.4311 7.545 85.4311 7.845L85.3036 9.5175ZM93.3204 8.3325C93.2104 8.3075 93.1004 8.2925 92.9904 8.2875C92.8854 8.2775 92.7804 8.2725 92.6754 8.2725C92.3754 8.2725 92.0854 8.3225 91.8054 8.4225C91.5254 8.5175 91.2629 8.6525 91.0179 8.8275C90.7729 9.0025 90.5504 9.2125 90.3504 9.4575C90.1504 9.6975 89.9779 9.9625 89.8329 10.2525C89.6929 10.5425 89.5829 10.8525 89.5029 11.1825C89.4229 11.5075 89.3829 11.8425 89.3829 12.1875C89.3829 13.3925 89.7679 13.995 90.5379 13.995C90.7829 13.995 91.0229 13.92 91.2579 13.77C91.4929 13.615 91.7154 13.4025 91.9254 13.1325C92.1404 12.8575 92.3379 12.535 92.5179 12.165C92.6979 11.79 92.8579 11.38 92.9979 10.935L93.3204 8.3325ZM92.8104 12.9975C92.6304 13.3175 92.4354 13.6075 92.2254 13.8675C92.0204 14.1275 91.8004 14.35 91.5654 14.535C91.3354 14.715 91.0904 14.855 90.8304 14.955C90.5754 15.055 90.3104 15.105 90.0354 15.105C89.7354 15.105 89.4629 15.0475 89.2179 14.9325C88.9729 14.8125 88.7629 14.64 88.5879 14.415C88.4179 14.185 88.2854 13.905 88.1904 13.575C88.0954 13.24 88.0479 12.8575 88.0479 12.4275C88.0479 11.9775 88.1029 11.54 88.2129 11.115C88.3279 10.685 88.4879 10.28 88.6929 9.9C88.9029 9.52 89.1529 9.1725 89.4429 8.8575C89.7329 8.5375 90.0554 8.2625 90.4104 8.0325C90.7704 7.7975 91.1554 7.6175 91.5654 7.4925C91.9754 7.3625 92.4054 7.2975 92.8554 7.2975C93.1804 7.2975 93.4954 7.325 93.8004 7.38C94.1104 7.43 94.4154 7.52 94.7154 7.65L93.8079 15H93.1179C92.9429 15 92.8229 14.955 92.7579 14.865C92.6979 14.775 92.6679 14.665 92.6679 14.535L92.8104 12.9975ZM17.2447 31.335C17.4347 31.6 17.6622 31.79 17.9272 31.905C18.1922 32.015 18.4622 32.07 18.7372 32.07C18.9972 32.07 19.2422 32.015 19.4722 31.905C19.7022 31.795 19.9122 31.6475 20.1022 31.4625C20.2922 31.2725 20.4622 31.0525 20.6122 30.8025C20.7622 30.5475 20.8872 30.2775 20.9872 29.9925C21.0922 29.7025 21.1722 29.405 21.2272 29.1C21.2822 28.79 21.3097 28.485 21.3097 28.185C21.3097 27.59 21.2022 27.1375 20.9872 26.8275C20.7722 26.5175 20.4697 26.3625 20.0797 26.3625C19.8397 26.3625 19.5972 26.4375 19.3522 26.5875C19.1072 26.7325 18.8697 26.9375 18.6397 27.2025C18.4147 27.4675 18.2022 27.7825 18.0022 28.1475C17.8072 28.5125 17.6372 28.9125 17.4922 29.3475L17.2447 31.335ZM17.6497 27.465C17.8397 27.135 18.0472 26.8375 18.2722 26.5725C18.4972 26.3025 18.7347 26.0725 18.9847 25.8825C19.2347 25.6925 19.4922 25.5475 19.7572 25.4475C20.0272 25.3425 20.3022 25.29 20.5822 25.29C21.2322 25.29 21.7347 25.525 22.0897 25.995C22.4497 26.465 22.6297 27.1525 22.6297 28.0575C22.6297 28.4675 22.5872 28.8775 22.5022 29.2875C22.4172 29.6975 22.2947 30.09 22.1347 30.465C21.9797 30.835 21.7897 31.1825 21.5647 31.5075C21.3447 31.8275 21.0972 32.1075 20.8222 32.3475C20.5522 32.5825 20.2572 32.7675 19.9372 32.9025C19.6172 33.0375 19.2822 33.105 18.9322 33.105C18.5572 33.105 18.2172 33.0325 17.9122 32.8875C17.6072 32.7375 17.3472 32.5275 17.1322 32.2575L16.7272 35.5725H15.4297L16.6672 25.395H17.3272C17.6272 25.395 17.7772 25.545 17.7772 25.845L17.6497 27.465ZM27.5321 26.2575C27.2171 26.2575 26.9271 26.3225 26.6621 26.4525C26.3971 26.5825 26.1621 26.7625 25.9571 26.9925C25.7521 27.2175 25.5771 27.485 25.4321 27.795C25.2871 28.1 25.1746 28.43 25.0946 28.785C25.8646 28.69 26.4821 28.5825 26.9471 28.4625C27.4121 28.3375 27.7696 28.205 28.0196 28.065C28.2696 27.92 28.4346 27.765 28.5146 27.6C28.5946 27.435 28.6346 27.2625 28.6346 27.0825C28.6346 26.9925 28.6146 26.9 28.5746 26.805C28.5346 26.705 28.4696 26.615 28.3796 26.535C28.2946 26.455 28.1821 26.39 28.0421 26.34C27.9021 26.285 27.7321 26.2575 27.5321 26.2575ZM29.6471 31.5975C29.3921 31.8625 29.1421 32.09 28.8971 32.28C28.6521 32.465 28.4021 32.62 28.1471 32.745C27.8971 32.87 27.6321 32.96 27.3521 33.015C27.0771 33.075 26.7796 33.105 26.4596 33.105C26.0246 33.105 25.6346 33.0325 25.2896 32.8875C24.9446 32.7425 24.6521 32.5375 24.4121 32.2725C24.1721 32.0025 23.9871 31.6775 23.8571 31.2975C23.7271 30.9175 23.6621 30.4925 23.6621 30.0225C23.6621 29.6325 23.7021 29.245 23.7821 28.86C23.8671 28.47 23.9871 28.1 24.1421 27.75C24.3021 27.4 24.4946 27.075 24.7196 26.775C24.9496 26.475 25.2096 26.2175 25.4996 26.0025C25.7946 25.7825 26.1171 25.61 26.4671 25.485C26.8221 25.36 27.2021 25.2975 27.6071 25.2975C27.9921 25.2975 28.3246 25.3525 28.6046 25.4625C28.8846 25.5725 29.1146 25.7125 29.2946 25.8825C29.4746 26.0525 29.6071 26.24 29.6921 26.445C29.7821 26.65 29.8271 26.845 29.8271 27.03C29.8271 27.36 29.7596 27.665 29.6246 27.945C29.4896 28.22 29.2421 28.47 28.8821 28.695C28.5221 28.915 28.0271 29.1075 27.3971 29.2725C26.7671 29.4375 25.9571 29.57 24.9671 29.67C24.9671 29.725 24.9646 29.78 24.9596 29.835C24.9596 29.885 24.9596 29.9375 24.9596 29.9925C24.9596 30.6625 25.1046 31.175 25.3946 31.53C25.6896 31.88 26.1321 32.055 26.7221 32.055C26.9621 32.055 27.1746 32.03 27.3596 31.98C27.5496 31.93 27.7171 31.87 27.8621 31.8C28.0121 31.725 28.1421 31.645 28.2521 31.56C28.3671 31.47 28.4696 31.39 28.5596 31.32C28.6546 31.245 28.7421 31.1825 28.8221 31.1325C28.9021 31.0825 28.9821 31.0575 29.0621 31.0575C29.1571 31.0575 29.2421 31.1 29.3171 31.185L29.6471 31.5975ZM32.7523 27.5175C32.9523 27.0925 33.1673 26.725 33.3973 26.415C33.6323 26.1 33.8773 25.855 34.1323 25.68C34.3873 25.5 34.6498 25.3925 34.9198 25.3575C35.1898 25.3175 35.4648 25.3575 35.7448 25.4775L35.5048 26.76C34.8548 26.5 34.2798 26.595 33.7798 27.045C33.2848 27.495 32.8823 28.3075 32.5723 29.4825L32.1523 33H30.8473L31.7623 25.395H32.4223C32.7273 25.395 32.8798 25.545 32.8798 25.845L32.7523 27.5175ZM40.8278 26.6175C40.7878 26.6775 40.7478 26.7225 40.7078 26.7525C40.6678 26.7775 40.6178 26.79 40.5578 26.79C40.4878 26.79 40.4103 26.7625 40.3253 26.7075C40.2453 26.6525 40.1453 26.5925 40.0253 26.5275C39.9103 26.4575 39.7678 26.395 39.5978 26.34C39.4278 26.28 39.2228 26.25 38.9828 26.25C38.7578 26.25 38.5528 26.2825 38.3678 26.3475C38.1828 26.4075 38.0228 26.4925 37.8878 26.6025C37.7578 26.7125 37.6553 26.8425 37.5803 26.9925C37.5103 27.1375 37.4753 27.2925 37.4753 27.4575C37.4753 27.6925 37.5528 27.88 37.7078 28.02C37.8628 28.16 38.0578 28.2825 38.2928 28.3875C38.5278 28.4875 38.7803 28.585 39.0503 28.68C39.3203 28.775 39.5728 28.895 39.8078 29.04C40.0428 29.185 40.2378 29.37 40.3928 29.595C40.5478 29.82 40.6253 30.1125 40.6253 30.4725C40.6253 30.8225 40.5553 31.1575 40.4153 31.4775C40.2803 31.7975 40.0828 32.08 39.8228 32.325C39.5678 32.565 39.2578 32.7575 38.8928 32.9025C38.5328 33.0475 38.1278 33.12 37.6778 33.12C37.1928 33.12 36.7628 33.035 36.3878 32.865C36.0178 32.69 35.7153 32.4675 35.4803 32.1975L35.8103 31.6875C35.8553 31.6225 35.9028 31.5725 35.9528 31.5375C36.0078 31.5025 36.0778 31.485 36.1628 31.485C36.2428 31.485 36.3228 31.52 36.4028 31.59C36.4828 31.66 36.5828 31.74 36.7028 31.83C36.8228 31.915 36.9728 31.9925 37.1528 32.0625C37.3378 32.1325 37.5703 32.1675 37.8503 32.1675C38.0953 32.1675 38.3153 32.13 38.5103 32.055C38.7103 31.98 38.8778 31.88 39.0128 31.755C39.1528 31.63 39.2578 31.485 39.3278 31.32C39.4028 31.15 39.4403 30.97 39.4403 30.78C39.4403 30.525 39.3628 30.3225 39.2078 30.1725C39.0528 30.0225 38.8578 29.8975 38.6228 29.7975C38.3878 29.6975 38.1353 29.605 37.8653 29.52C37.5953 29.43 37.3428 29.3175 37.1078 29.1825C36.8728 29.0425 36.6778 28.8625 36.5228 28.6425C36.3678 28.4225 36.2903 28.13 36.2903 27.765C36.2903 27.445 36.3528 27.1375 36.4778 26.8425C36.6078 26.5425 36.7928 26.2775 37.0328 26.0475C37.2728 25.8175 37.5628 25.635 37.9028 25.5C38.2478 25.36 38.6353 25.29 39.0653 25.29C39.5203 25.29 39.9203 25.3675 40.2653 25.5225C40.6153 25.6725 40.9153 25.8775 41.1653 26.1375L40.8278 26.6175ZM44.8912 32.0625C45.2562 32.0625 45.5862 31.9625 45.8812 31.7625C46.1812 31.5625 46.4362 31.2975 46.6462 30.9675C46.8612 30.6325 47.0262 30.2475 47.1412 29.8125C47.2562 29.3775 47.3137 28.9225 47.3137 28.4475C47.3137 27.7475 47.1737 27.2225 46.8937 26.8725C46.6187 26.5175 46.2212 26.34 45.7012 26.34C45.3312 26.34 44.9962 26.44 44.6962 26.64C44.4012 26.835 44.1487 27.0975 43.9387 27.4275C43.7287 27.7575 43.5662 28.14 43.4512 28.575C43.3362 29.01 43.2787 29.465 43.2787 29.94C43.2787 30.64 43.4162 31.17 43.6912 31.53C43.9662 31.885 44.3662 32.0625 44.8912 32.0625ZM44.7637 33.105C44.3487 33.105 43.9687 33.035 43.6237 32.895C43.2787 32.75 42.9812 32.5425 42.7312 32.2725C42.4812 32.0025 42.2862 31.6725 42.1462 31.2825C42.0062 30.8925 41.9362 30.4475 41.9362 29.9475C41.9362 29.3075 42.0362 28.705 42.2362 28.14C42.4362 27.575 42.7112 27.0825 43.0612 26.6625C43.4112 26.2375 43.8212 25.9025 44.2912 25.6575C44.7662 25.4125 45.2762 25.29 45.8212 25.29C46.2362 25.29 46.6162 25.3625 46.9612 25.5075C47.3062 25.6475 47.6037 25.8525 47.8537 26.1225C48.1037 26.3925 48.2987 26.7225 48.4387 27.1125C48.5787 27.5025 48.6487 27.945 48.6487 28.44C48.6487 29.075 48.5487 29.675 48.3487 30.24C48.1487 30.805 47.8737 31.3 47.5237 31.725C47.1787 32.15 46.7687 32.4875 46.2937 32.7375C45.8187 32.9825 45.3087 33.105 44.7637 33.105ZM51.627 27.3225C52.032 26.6525 52.4895 26.1475 52.9995 25.8075C53.5095 25.4625 54.0345 25.29 54.5745 25.29C54.8945 25.29 55.1745 25.355 55.4145 25.485C55.6595 25.61 55.857 25.795 56.007 26.04C56.162 26.285 56.267 26.5875 56.322 26.9475C56.377 27.3025 56.377 27.7075 56.322 28.1625L55.752 33H54.4245L54.9945 28.1625C55.0645 27.5625 55.027 27.12 54.882 26.835C54.737 26.545 54.4695 26.4 54.0795 26.4C53.8395 26.4 53.5945 26.465 53.3445 26.595C53.0995 26.725 52.862 26.91 52.632 27.15C52.402 27.39 52.187 27.68 51.987 28.02C51.792 28.355 51.6245 28.73 51.4845 29.145L51.0495 33H49.7145L50.6295 25.395H51.2895C51.5895 25.395 51.7395 25.545 51.7395 25.845L51.627 27.3225ZM62.8736 26.3325C62.7636 26.3075 62.6536 26.2925 62.5436 26.2875C62.4386 26.2775 62.3336 26.2725 62.2286 26.2725C61.9286 26.2725 61.6386 26.3225 61.3586 26.4225C61.0786 26.5175 60.8161 26.6525 60.5711 26.8275C60.3261 27.0025 60.1036 27.2125 59.9036 27.4575C59.7036 27.6975 59.5311 27.9625 59.3861 28.2525C59.2461 28.5425 59.1361 28.8525 59.0561 29.1825C58.9761 29.5075 58.9361 29.8425 58.9361 30.1875C58.9361 31.3925 59.3211 31.995 60.0911 31.995C60.3361 31.995 60.5761 31.92 60.8111 31.77C61.0461 31.615 61.2686 31.4025 61.4786 31.1325C61.6936 30.8575 61.8911 30.535 62.0711 30.165C62.2511 29.79 62.4111 29.38 62.5511 28.935L62.8736 26.3325ZM62.3636 30.9975C62.1836 31.3175 61.9886 31.6075 61.7786 31.8675C61.5736 32.1275 61.3536 32.35 61.1186 32.535C60.8886 32.715 60.6436 32.855 60.3836 32.955C60.1286 33.055 59.8636 33.105 59.5886 33.105C59.2886 33.105 59.0161 33.0475 58.7711 32.9325C58.5261 32.8125 58.3161 32.64 58.1411 32.415C57.9711 32.185 57.8386 31.905 57.7436 31.575C57.6486 31.24 57.6011 30.8575 57.6011 30.4275C57.6011 29.9775 57.6561 29.54 57.7661 29.115C57.8811 28.685 58.0411 28.28 58.2461 27.9C58.4561 27.52 58.7061 27.1725 58.9961 26.8575C59.2861 26.5375 59.6086 26.2625 59.9636 26.0325C60.3236 25.7975 60.7086 25.6175 61.1186 25.4925C61.5286 25.3625 61.9586 25.2975 62.4086 25.2975C62.7336 25.2975 63.0486 25.325 63.3536 25.38C63.6636 25.43 63.9686 25.52 64.2686 25.65L63.3611 33H62.6711C62.4961 33 62.3761 32.955 62.3111 32.865C62.2511 32.775 62.2211 32.665 62.2211 32.535L62.3636 30.9975ZM65.3672 33L66.7097 21.9525H68.0222L66.6797 33H65.3672ZM71.0013 25.4025L70.0863 33H68.7738L69.6888 25.4025H71.0013ZM71.5113 23.0175C71.5113 23.1475 71.4838 23.27 71.4288 23.385C71.3788 23.495 71.3088 23.595 71.2188 23.685C71.1338 23.77 71.0338 23.8375 70.9188 23.8875C70.8088 23.9375 70.6938 23.9625 70.5738 23.9625C70.4588 23.9625 70.3463 23.9375 70.2363 23.8875C70.1263 23.8375 70.0288 23.77 69.9438 23.685C69.8638 23.595 69.7988 23.495 69.7488 23.385C69.6988 23.27 69.6738 23.1475 69.6738 23.0175C69.6738 22.8875 69.6988 22.765 69.7488 22.65C69.7988 22.535 69.8663 22.435 69.9513 22.35C70.0363 22.26 70.1338 22.19 70.2438 22.14C70.3538 22.085 70.4663 22.0575 70.5813 22.0575C70.7013 22.0575 70.8163 22.0825 70.9263 22.1325C71.0413 22.1825 71.1413 22.2525 71.2263 22.3425C71.3113 22.4275 71.3788 22.53 71.4288 22.65C71.4838 22.765 71.5113 22.8875 71.5113 23.0175ZM77.9834 25.4025L77.9084 25.9725C77.8984 26.0675 77.8709 26.16 77.8259 26.25C77.7859 26.335 77.7384 26.4125 77.6834 26.4825L73.3034 31.9575H77.0459L76.9259 33H71.5784L71.6459 32.445C71.6509 32.38 71.6734 32.3025 71.7134 32.2125C71.7534 32.1225 71.8059 32.04 71.8709 31.965L76.2734 26.4525H72.5909L72.7184 25.4025H77.9834ZM83.5572 26.3325C83.4472 26.3075 83.3372 26.2925 83.2272 26.2875C83.1222 26.2775 83.0172 26.2725 82.9122 26.2725C82.6122 26.2725 82.3222 26.3225 82.0422 26.4225C81.7622 26.5175 81.4997 26.6525 81.2547 26.8275C81.0097 27.0025 80.7872 27.2125 80.5872 27.4575C80.3872 27.6975 80.2147 27.9625 80.0697 28.2525C79.9297 28.5425 79.8197 28.8525 79.7397 29.1825C79.6597 29.5075 79.6197 29.8425 79.6197 30.1875C79.6197 31.3925 80.0047 31.995 80.7747 31.995C81.0197 31.995 81.2597 31.92 81.4947 31.77C81.7297 31.615 81.9522 31.4025 82.1622 31.1325C82.3772 30.8575 82.5747 30.535 82.7547 30.165C82.9347 29.79 83.0947 29.38 83.2347 28.935L83.5572 26.3325ZM83.0472 30.9975C82.8672 31.3175 82.6722 31.6075 82.4622 31.8675C82.2572 32.1275 82.0372 32.35 81.8022 32.535C81.5722 32.715 81.3272 32.855 81.0672 32.955C80.8122 33.055 80.5472 33.105 80.2722 33.105C79.9722 33.105 79.6997 33.0475 79.4547 32.9325C79.2097 32.8125 78.9997 32.64 78.8247 32.415C78.6547 32.185 78.5222 31.905 78.4272 31.575C78.3322 31.24 78.2847 30.8575 78.2847 30.4275C78.2847 29.9775 78.3397 29.54 78.4497 29.115C78.5647 28.685 78.7247 28.28 78.9297 27.9C79.1397 27.52 79.3897 27.1725 79.6797 26.8575C79.9697 26.5375 80.2922 26.2625 80.6472 26.0325C81.0072 25.7975 81.3922 25.6175 81.8022 25.4925C82.2122 25.3625 82.6422 25.2975 83.0922 25.2975C83.4172 25.2975 83.7322 25.325 84.0372 25.38C84.3472 25.43 84.6522 25.52 84.9522 25.65L84.0447 33H83.3547C83.1797 33 83.0597 32.955 82.9947 32.865C82.9347 32.775 82.9047 32.665 82.9047 32.535L83.0472 30.9975ZM87.9183 27.5175C88.1183 27.0925 88.3333 26.725 88.5633 26.415C88.7983 26.1 89.0433 25.855 89.2983 25.68C89.5533 25.5 89.8158 25.3925 90.0858 25.3575C90.3558 25.3175 90.6308 25.3575 90.9108 25.4775L90.6708 26.76C90.0208 26.5 89.4458 26.595 88.9458 27.045C88.4508 27.495 88.0483 28.3075 87.7383 29.4825L87.3183 33H86.0133L86.9283 25.395H87.5883C87.8933 25.395 88.0458 25.545 88.0458 25.845L87.9183 27.5175Z" fill="#A29AFF"/>
</svg>
