<svg width="255" height="64" viewBox="0 0 255 64" fill="none" xmlns="http://www.w3.org/2000/svg">
<path d="M2.79938 12.34C3.07938 12.68 3.38271 12.92 3.70938 13.06C4.04271 13.2 4.40271 13.27 4.78938 13.27C5.16271 13.27 5.49938 13.2 5.79938 13.06C6.09938 12.92 6.35271 12.7067 6.55938 12.42C6.77271 12.1333 6.93604 11.7733 7.04938 11.34C7.16271 10.9 7.21938 10.3833 7.21938 9.79C7.21938 9.19 7.16938 8.68333 7.06938 8.27C6.97604 7.85 6.83938 7.51 6.65938 7.25C6.47938 6.99 6.25938 6.8 5.99938 6.68C5.74604 6.56 5.45604 6.5 5.12938 6.5C4.61604 6.5 4.17938 6.61 3.81938 6.83C3.45938 7.04333 3.11938 7.34667 2.79938 7.74V12.34ZM2.66938 6.14C3.08938 5.66667 3.56604 5.28333 4.09938 4.99C4.63271 4.69667 5.25938 4.55 5.97938 4.55C6.53938 4.55 7.04938 4.66667 7.50938 4.9C7.97604 5.13333 8.37604 5.47333 8.70938 5.92C9.04938 6.36 9.30938 6.90667 9.48938 7.56C9.67604 8.20667 9.76938 8.95 9.76938 9.79C9.76938 10.5567 9.66604 11.2667 9.45938 11.92C9.25271 12.5733 8.95604 13.14 8.56938 13.62C8.18938 14.1 7.72604 14.4767 7.17938 14.75C6.63938 15.0167 6.03271 15.15 5.35938 15.15C4.78604 15.15 4.29604 15.0633 3.88938 14.89C3.48271 14.71 3.11938 14.4633 2.79938 14.15V18.35H0.329375V4.74H1.83938C2.15938 4.74 2.36938 4.89 2.46938 5.19L2.66938 6.14ZM14.0266 6.52C14.3466 5.90667 14.7266 5.42667 15.1666 5.08C15.6066 4.72667 16.1266 4.55 16.7266 4.55C17.1999 4.55 17.5799 4.65333 17.8666 4.86L17.7066 6.71C17.6732 6.83 17.6232 6.91667 17.5566 6.97C17.4966 7.01667 17.4132 7.04 17.3066 7.04C17.2066 7.04 17.0566 7.02333 16.8566 6.99C16.6632 6.95667 16.4732 6.94 16.2866 6.94C16.0132 6.94 15.7699 6.98 15.5566 7.06C15.3432 7.14 15.1499 7.25667 14.9766 7.41C14.8099 7.55667 14.6599 7.73667 14.5266 7.95C14.3999 8.16333 14.2799 8.40667 14.1666 8.68V15H11.6966V4.74H13.1466C13.3999 4.74 13.5766 4.78667 13.6766 4.88C13.7766 4.96667 13.8432 5.12667 13.8766 5.36L14.0266 6.52ZM23.4045 4.58C24.1645 4.58 24.8545 4.70333 25.4745 4.95C26.1012 5.19667 26.6345 5.54667 27.0745 6C27.5212 6.45333 27.8645 7.00667 28.1045 7.66C28.3445 8.31333 28.4645 9.04333 28.4645 9.85C28.4645 10.6633 28.3445 11.3967 28.1045 12.05C27.8645 12.7033 27.5212 13.26 27.0745 13.72C26.6345 14.18 26.1012 14.5333 25.4745 14.78C24.8545 15.0267 24.1645 15.15 23.4045 15.15C22.6379 15.15 21.9412 15.0267 21.3145 14.78C20.6879 14.5333 20.1512 14.18 19.7045 13.72C19.2645 13.26 18.9212 12.7033 18.6745 12.05C18.4345 11.3967 18.3145 10.6633 18.3145 9.85C18.3145 9.04333 18.4345 8.31333 18.6745 7.66C18.9212 7.00667 19.2645 6.45333 19.7045 6C20.1512 5.54667 20.6879 5.19667 21.3145 4.95C21.9412 4.70333 22.6379 4.58 23.4045 4.58ZM23.4045 13.25C24.2579 13.25 24.8879 12.9633 25.2945 12.39C25.7079 11.8167 25.9145 10.9767 25.9145 9.87C25.9145 8.76333 25.7079 7.92 25.2945 7.34C24.8879 6.76 24.2579 6.47 23.4045 6.47C22.5379 6.47 21.8945 6.76333 21.4745 7.35C21.0612 7.93 20.8545 8.77 20.8545 9.87C20.8545 10.97 21.0612 11.81 21.4745 12.39C21.8945 12.9633 22.5379 13.25 23.4045 13.25ZM30.3489 15V4.74H31.8589C32.1789 4.74 32.3889 4.89 32.4889 5.19L32.6489 5.95C32.8289 5.75 33.0156 5.56667 33.2089 5.4C33.4089 5.23333 33.6189 5.09 33.8389 4.97C34.0656 4.85 34.3056 4.75667 34.5589 4.69C34.8189 4.61667 35.1022 4.58 35.4089 4.58C36.0556 4.58 36.5856 4.75667 36.9989 5.11C37.4189 5.45667 37.7322 5.92 37.9389 6.5C38.0989 6.16 38.2989 5.87 38.5389 5.63C38.7789 5.38333 39.0422 5.18333 39.3289 5.03C39.6156 4.87667 39.9189 4.76333 40.2389 4.69C40.5656 4.61667 40.8922 4.58 41.2189 4.58C41.7856 4.58 42.2889 4.66667 42.7289 4.84C43.1689 5.01333 43.5389 5.26667 43.8389 5.6C44.1389 5.93333 44.3656 6.34 44.5189 6.82C44.6789 7.3 44.7589 7.85 44.7589 8.47V15H42.2889V8.47C42.2889 7.81667 42.1456 7.32667 41.8589 7C41.5722 6.66667 41.1522 6.5 40.5989 6.5C40.3456 6.5 40.1089 6.54333 39.8889 6.63C39.6756 6.71667 39.4856 6.84333 39.3189 7.01C39.1589 7.17 39.0322 7.37333 38.9389 7.62C38.8456 7.86667 38.7989 8.15 38.7989 8.47V15H36.3189V8.47C36.3189 7.78333 36.1789 7.28333 35.8989 6.97C35.6256 6.65667 35.2222 6.5 34.6889 6.5C34.3289 6.5 33.9922 6.59 33.6789 6.77C33.3722 6.94333 33.0856 7.18333 32.8189 7.49V15H30.3489ZM53.7167 8.69C53.7167 8.37 53.6701 8.07 53.5767 7.79C53.4901 7.50333 53.3567 7.25333 53.1767 7.04C52.9967 6.82667 52.7667 6.66 52.4867 6.54C52.2134 6.41333 51.8934 6.35 51.5267 6.35C50.8134 6.35 50.2501 6.55333 49.8367 6.96C49.4301 7.36667 49.1701 7.94333 49.0567 8.69H53.7167ZM49.0067 10.18C49.0467 10.7067 49.1401 11.1633 49.2867 11.55C49.4334 11.93 49.6267 12.2467 49.8667 12.5C50.1067 12.7467 50.3901 12.9333 50.7167 13.06C51.0501 13.18 51.4167 13.24 51.8167 13.24C52.2167 13.24 52.5601 13.1933 52.8467 13.1C53.1401 13.0067 53.3934 12.9033 53.6067 12.79C53.8267 12.6767 54.0167 12.5733 54.1767 12.48C54.3434 12.3867 54.5034 12.34 54.6567 12.34C54.8634 12.34 55.0167 12.4167 55.1167 12.57L55.8267 13.47C55.5534 13.79 55.2467 14.06 54.9067 14.28C54.5667 14.4933 54.2101 14.6667 53.8367 14.8C53.4701 14.9267 53.0934 15.0167 52.7067 15.07C52.3267 15.1233 51.9567 15.15 51.5967 15.15C50.8834 15.15 50.2201 15.0333 49.6067 14.8C48.9934 14.56 48.4601 14.21 48.0067 13.75C47.5534 13.2833 47.1967 12.71 46.9367 12.03C46.6767 11.3433 46.5467 10.55 46.5467 9.65C46.5467 8.95 46.6601 8.29333 46.8867 7.68C47.1134 7.06 47.4367 6.52333 47.8567 6.07C48.2834 5.61 48.8001 5.24667 49.4067 4.98C50.0201 4.71333 50.7101 4.58 51.4767 4.58C52.1234 4.58 52.7201 4.68333 53.2667 4.89C53.8134 5.09667 54.2834 5.4 54.6767 5.8C55.0701 6.19333 55.3767 6.68 55.5967 7.26C55.8234 7.83333 55.9367 8.49 55.9367 9.23C55.9367 9.60333 55.8967 9.85667 55.8167 9.99C55.7367 10.1167 55.5834 10.18 55.3567 10.18H49.0067ZM64.2303 7.36C63.9503 7.02 63.6436 6.78 63.3103 6.64C62.9836 6.5 62.6303 6.43 62.2503 6.43C61.877 6.43 61.5403 6.5 61.2403 6.64C60.9403 6.78 60.6836 6.99333 60.4703 7.28C60.257 7.56 60.0936 7.92 59.9803 8.36C59.867 8.79333 59.8103 9.30667 59.8103 9.9C59.8103 10.5 59.857 11.01 59.9503 11.43C60.0503 11.8433 60.1903 12.1833 60.3703 12.45C60.5503 12.71 60.7703 12.9 61.0303 13.02C61.2903 13.1333 61.5803 13.19 61.9003 13.19C62.4136 13.19 62.8503 13.0833 63.2103 12.87C63.5703 12.6567 63.9103 12.3533 64.2303 11.96V7.36ZM66.7003 0.139999V15H65.1903C64.8636 15 64.657 14.85 64.5703 14.55L64.3603 13.56C63.947 14.0333 63.4703 14.4167 62.9303 14.71C62.397 15.0033 61.7736 15.15 61.0603 15.15C60.5003 15.15 59.987 15.0333 59.5203 14.8C59.0536 14.5667 58.6503 14.23 58.3103 13.79C57.977 13.3433 57.717 12.7933 57.5303 12.14C57.3503 11.4867 57.2603 10.74 57.2603 9.9C57.2603 9.14 57.3636 8.43333 57.5703 7.78C57.777 7.12667 58.0736 6.56 58.4603 6.08C58.847 5.6 59.3103 5.22667 59.8503 4.96C60.3903 4.68667 60.997 4.55 61.6703 4.55C62.2436 4.55 62.7336 4.64 63.1403 4.82C63.547 5 63.9103 5.24333 64.2303 5.55V0.139999H66.7003ZM71.698 4.74V15H69.218V4.74H71.698ZM72.038 1.75C72.038 1.96333 71.9946 2.16333 71.908 2.35C71.8213 2.53667 71.7046 2.7 71.558 2.84C71.418 2.98 71.2513 3.09333 71.058 3.18C70.8646 3.26 70.658 3.3 70.438 3.3C70.2246 3.3 70.0213 3.26 69.828 3.18C69.6413 3.09333 69.478 2.98 69.338 2.84C69.198 2.7 69.0846 2.53667 68.998 2.35C68.918 2.16333 68.878 1.96333 68.878 1.75C68.878 1.53 68.918 1.32333 68.998 1.13C69.0846 0.936666 69.198 0.77 69.338 0.63C69.478 0.489999 69.6413 0.379999 69.828 0.3C70.0213 0.213333 70.2246 0.17 70.438 0.17C70.658 0.17 70.8646 0.213333 71.058 0.3C71.2513 0.379999 71.418 0.489999 71.558 0.63C71.7046 0.77 71.8213 0.936666 71.908 1.13C71.9946 1.32333 72.038 1.53 72.038 1.75ZM78.7561 4.58C79.5161 4.58 80.2061 4.70333 80.8261 4.95C81.4528 5.19667 81.9861 5.54667 82.4261 6C82.8728 6.45333 83.2161 7.00667 83.4561 7.66C83.6961 8.31333 83.8161 9.04333 83.8161 9.85C83.8161 10.6633 83.6961 11.3967 83.4561 12.05C83.2161 12.7033 82.8728 13.26 82.4261 13.72C81.9861 14.18 81.4528 14.5333 80.8261 14.78C80.2061 15.0267 79.5161 15.15 78.7561 15.15C77.9894 15.15 77.2928 15.0267 76.6661 14.78C76.0394 14.5333 75.5028 14.18 75.0561 13.72C74.6161 13.26 74.2728 12.7033 74.0261 12.05C73.7861 11.3967 73.6661 10.6633 73.6661 9.85C73.6661 9.04333 73.7861 8.31333 74.0261 7.66C74.2728 7.00667 74.6161 6.45333 75.0561 6C75.5028 5.54667 76.0394 5.19667 76.6661 4.95C77.2928 4.70333 77.9894 4.58 78.7561 4.58ZM78.7561 13.25C79.6094 13.25 80.2394 12.9633 80.6461 12.39C81.0594 11.8167 81.2661 10.9767 81.2661 9.87C81.2661 8.76333 81.0594 7.92 80.6461 7.34C80.2394 6.76 79.6094 6.47 78.7561 6.47C77.8894 6.47 77.2461 6.76333 76.8261 7.35C76.4128 7.93 76.2061 8.77 76.2061 9.87C76.2061 10.97 76.4128 11.81 76.8261 12.39C77.2461 12.9633 77.8894 13.25 78.7561 13.25ZM97.0038 7.36C96.7238 7.02 96.4171 6.78 96.0838 6.64C95.7571 6.5 95.4038 6.43 95.0238 6.43C94.6504 6.43 94.3138 6.5 94.0138 6.64C93.7138 6.78 93.4571 6.99333 93.2438 7.28C93.0304 7.56 92.8671 7.92 92.7538 8.36C92.6404 8.79333 92.5838 9.30667 92.5838 9.9C92.5838 10.5 92.6304 11.01 92.7238 11.43C92.8238 11.8433 92.9638 12.1833 93.1438 12.45C93.3238 12.71 93.5438 12.9 93.8038 13.02C94.0638 13.1333 94.3538 13.19 94.6738 13.19C95.1871 13.19 95.6238 13.0833 95.9838 12.87C96.3438 12.6567 96.6838 12.3533 97.0038 11.96V7.36ZM99.4738 0.139999V15H97.9638C97.6371 15 97.4304 14.85 97.3438 14.55L97.1338 13.56C96.7204 14.0333 96.2438 14.4167 95.7038 14.71C95.1704 15.0033 94.5471 15.15 93.8338 15.15C93.2738 15.15 92.7604 15.0333 92.2938 14.8C91.8271 14.5667 91.4238 14.23 91.0838 13.79C90.7504 13.3433 90.4904 12.7933 90.3038 12.14C90.1238 11.4867 90.0338 10.74 90.0338 9.9C90.0338 9.14 90.1371 8.43333 90.3438 7.78C90.5504 7.12667 90.8471 6.56 91.2338 6.08C91.6204 5.6 92.0838 5.22667 92.6238 4.96C93.1638 4.68667 93.7704 4.55 94.4438 4.55C95.0171 4.55 95.5071 4.64 95.9138 4.82C96.3204 5 96.6838 5.24333 97.0038 5.55V0.139999H99.4738ZM108.521 8.69C108.521 8.37 108.475 8.07 108.381 7.79C108.295 7.50333 108.161 7.25333 107.981 7.04C107.801 6.82667 107.571 6.66 107.291 6.54C107.018 6.41333 106.698 6.35 106.331 6.35C105.618 6.35 105.055 6.55333 104.641 6.96C104.235 7.36667 103.975 7.94333 103.861 8.69H108.521ZM103.811 10.18C103.851 10.7067 103.945 11.1633 104.091 11.55C104.238 11.93 104.431 12.2467 104.671 12.5C104.911 12.7467 105.195 12.9333 105.521 13.06C105.855 13.18 106.221 13.24 106.621 13.24C107.021 13.24 107.365 13.1933 107.651 13.1C107.945 13.0067 108.198 12.9033 108.411 12.79C108.631 12.6767 108.821 12.5733 108.981 12.48C109.148 12.3867 109.308 12.34 109.461 12.34C109.668 12.34 109.821 12.4167 109.921 12.57L110.631 13.47C110.358 13.79 110.051 14.06 109.711 14.28C109.371 14.4933 109.015 14.6667 108.641 14.8C108.275 14.9267 107.898 15.0167 107.511 15.07C107.131 15.1233 106.761 15.15 106.401 15.15C105.688 15.15 105.025 15.0333 104.411 14.8C103.798 14.56 103.265 14.21 102.811 13.75C102.358 13.2833 102.001 12.71 101.741 12.03C101.481 11.3433 101.351 10.55 101.351 9.65C101.351 8.95 101.465 8.29333 101.691 7.68C101.918 7.06 102.241 6.52333 102.661 6.07C103.088 5.61 103.605 5.24667 104.211 4.98C104.825 4.71333 105.515 4.58 106.281 4.58C106.928 4.58 107.525 4.68333 108.071 4.89C108.618 5.09667 109.088 5.4 109.481 5.8C109.875 6.19333 110.181 6.68 110.401 7.26C110.628 7.83333 110.741 8.49 110.741 9.23C110.741 9.60333 110.701 9.85667 110.621 9.99C110.541 10.1167 110.388 10.18 110.161 10.18H103.811ZM119.928 5.84C120.328 5.46667 120.768 5.16333 121.248 4.93C121.728 4.69667 122.292 4.58 122.938 4.58C123.498 4.58 123.995 4.67667 124.428 4.87C124.862 5.05667 125.222 5.32333 125.508 5.67C125.802 6.01 126.022 6.42 126.168 6.9C126.322 7.37333 126.398 7.89667 126.398 8.47V15H123.928V8.47C123.928 7.84333 123.785 7.36 123.498 7.02C123.212 6.67333 122.775 6.5 122.188 6.5C121.762 6.5 121.362 6.59667 120.988 6.79C120.615 6.98333 120.262 7.24667 119.928 7.58V15H117.458V0.139999H119.928V5.84ZM133.287 4.58C134.047 4.58 134.737 4.70333 135.357 4.95C135.984 5.19667 136.517 5.54667 136.957 6C137.404 6.45333 137.747 7.00667 137.987 7.66C138.227 8.31333 138.347 9.04333 138.347 9.85C138.347 10.6633 138.227 11.3967 137.987 12.05C137.747 12.7033 137.404 13.26 136.957 13.72C136.517 14.18 135.984 14.5333 135.357 14.78C134.737 15.0267 134.047 15.15 133.287 15.15C132.521 15.15 131.824 15.0267 131.197 14.78C130.571 14.5333 130.034 14.18 129.587 13.72C129.147 13.26 128.804 12.7033 128.557 12.05C128.317 11.3967 128.197 10.6633 128.197 9.85C128.197 9.04333 128.317 8.31333 128.557 7.66C128.804 7.00667 129.147 6.45333 129.587 6C130.034 5.54667 130.571 5.19667 131.197 4.95C131.824 4.70333 132.521 4.58 133.287 4.58ZM133.287 13.25C134.141 13.25 134.771 12.9633 135.177 12.39C135.591 11.8167 135.797 10.9767 135.797 9.87C135.797 8.76333 135.591 7.92 135.177 7.34C134.771 6.76 134.141 6.47 133.287 6.47C132.421 6.47 131.777 6.76333 131.357 7.35C130.944 7.93 130.737 8.77 130.737 9.87C130.737 10.97 130.944 11.81 131.357 12.39C131.777 12.9633 132.421 13.25 133.287 13.25ZM142.562 6.52C142.882 5.90667 143.262 5.42667 143.702 5.08C144.142 4.72667 144.662 4.55 145.262 4.55C145.735 4.55 146.115 4.65333 146.402 4.86L146.242 6.71C146.208 6.83 146.158 6.91667 146.092 6.97C146.032 7.01667 145.948 7.04 145.842 7.04C145.742 7.04 145.592 7.02333 145.392 6.99C145.198 6.95667 145.008 6.94 144.822 6.94C144.548 6.94 144.305 6.98 144.092 7.06C143.878 7.14 143.685 7.25667 143.512 7.41C143.345 7.55667 143.195 7.73667 143.062 7.95C142.935 8.16333 142.815 8.40667 142.702 8.68V15H140.232V4.74H141.682C141.935 4.74 142.112 4.78667 142.212 4.88C142.312 4.96667 142.378 5.12667 142.412 5.36L142.562 6.52ZM152.976 10.62C152.263 10.6533 151.663 10.7167 151.176 10.81C150.689 10.8967 150.299 11.01 150.006 11.15C149.713 11.29 149.503 11.4533 149.376 11.64C149.249 11.8267 149.186 12.03 149.186 12.25C149.186 12.6833 149.313 12.9933 149.566 13.18C149.826 13.3667 150.163 13.46 150.576 13.46C151.083 13.46 151.519 13.37 151.886 13.19C152.259 13.0033 152.623 12.7233 152.976 12.35V10.62ZM147.316 6.17C148.496 5.09 149.916 4.55 151.576 4.55C152.176 4.55 152.713 4.65 153.186 4.85C153.659 5.04333 154.059 5.31667 154.386 5.67C154.713 6.01667 154.959 6.43333 155.126 6.92C155.299 7.40667 155.386 7.94 155.386 8.52V15H154.266C154.033 15 153.853 14.9667 153.726 14.9C153.599 14.8267 153.499 14.6833 153.426 14.47L153.206 13.73C152.946 13.9633 152.693 14.17 152.446 14.35C152.199 14.5233 151.943 14.67 151.676 14.79C151.409 14.91 151.123 15 150.816 15.06C150.516 15.1267 150.183 15.16 149.816 15.16C149.383 15.16 148.983 15.1033 148.616 14.99C148.249 14.87 147.933 14.6933 147.666 14.46C147.399 14.2267 147.193 13.9367 147.046 13.59C146.899 13.2433 146.826 12.84 146.826 12.38C146.826 12.12 146.869 11.8633 146.956 11.61C147.043 11.35 147.183 11.1033 147.376 10.87C147.576 10.6367 147.833 10.4167 148.146 10.21C148.459 10.0033 148.843 9.82333 149.296 9.67C149.756 9.51667 150.289 9.39333 150.896 9.3C151.503 9.2 152.196 9.14 152.976 9.12V8.52C152.976 7.83333 152.829 7.32667 152.536 7C152.243 6.66667 151.819 6.5 151.266 6.5C150.866 6.5 150.533 6.54667 150.266 6.64C150.006 6.73333 149.776 6.84 149.576 6.96C149.376 7.07333 149.193 7.17667 149.026 7.27C148.866 7.36333 148.686 7.41 148.486 7.41C148.313 7.41 148.166 7.36667 148.046 7.28C147.926 7.18667 147.829 7.08 147.756 6.96L147.316 6.17ZM163.972 6.74C163.906 6.84667 163.836 6.92333 163.762 6.97C163.689 7.01 163.596 7.03 163.482 7.03C163.362 7.03 163.232 6.99667 163.092 6.93C162.959 6.86333 162.802 6.79 162.622 6.71C162.442 6.62333 162.236 6.54667 162.002 6.48C161.776 6.41333 161.506 6.38 161.192 6.38C160.706 6.38 160.322 6.48333 160.042 6.69C159.769 6.89667 159.632 7.16667 159.632 7.5C159.632 7.72 159.702 7.90667 159.842 8.06C159.989 8.20667 160.179 8.33667 160.412 8.45C160.652 8.56333 160.922 8.66667 161.222 8.76C161.522 8.84667 161.826 8.94333 162.132 9.05C162.446 9.15667 162.752 9.28 163.052 9.42C163.352 9.55333 163.619 9.72667 163.852 9.94C164.092 10.1467 164.282 10.3967 164.422 10.69C164.569 10.9833 164.642 11.3367 164.642 11.75C164.642 12.2433 164.552 12.7 164.372 13.12C164.199 13.5333 163.939 13.8933 163.592 14.2C163.246 14.5 162.816 14.7367 162.302 14.91C161.796 15.0767 161.209 15.16 160.542 15.16C160.189 15.16 159.842 15.1267 159.502 15.06C159.169 15 158.846 14.9133 158.532 14.8C158.226 14.6867 157.939 14.5533 157.672 14.4C157.412 14.2467 157.182 14.08 156.982 13.9L157.552 12.96C157.626 12.8467 157.712 12.76 157.812 12.7C157.912 12.64 158.039 12.61 158.192 12.61C158.346 12.61 158.489 12.6533 158.622 12.74C158.762 12.8267 158.922 12.92 159.102 13.02C159.282 13.12 159.492 13.2133 159.732 13.3C159.979 13.3867 160.289 13.43 160.662 13.43C160.956 13.43 161.206 13.3967 161.412 13.33C161.626 13.2567 161.799 13.1633 161.932 13.05C162.072 12.9367 162.172 12.8067 162.232 12.66C162.299 12.5067 162.332 12.35 162.332 12.19C162.332 11.95 162.259 11.7533 162.112 11.6C161.972 11.4467 161.782 11.3133 161.542 11.2C161.309 11.0867 161.039 10.9867 160.732 10.9C160.432 10.8067 160.122 10.7067 159.802 10.6C159.489 10.4933 159.179 10.37 158.872 10.23C158.572 10.0833 158.302 9.9 158.062 9.68C157.829 9.46 157.639 9.19 157.492 8.87C157.352 8.55 157.282 8.16333 157.282 7.71C157.282 7.29 157.366 6.89 157.532 6.51C157.699 6.13 157.942 5.8 158.262 5.52C158.589 5.23333 158.992 5.00667 159.472 4.84C159.959 4.66667 160.519 4.58 161.152 4.58C161.859 4.58 162.502 4.69667 163.082 4.93C163.662 5.16333 164.146 5.47 164.532 5.85L163.972 6.74ZM176.785 10.62C176.071 10.6533 175.471 10.7167 174.985 10.81C174.498 10.8967 174.108 11.01 173.815 11.15C173.521 11.29 173.311 11.4533 173.185 11.64C173.058 11.8267 172.995 12.03 172.995 12.25C172.995 12.6833 173.121 12.9933 173.375 13.18C173.635 13.3667 173.971 13.46 174.385 13.46C174.891 13.46 175.328 13.37 175.695 13.19C176.068 13.0033 176.431 12.7233 176.785 12.35V10.62ZM171.125 6.17C172.305 5.09 173.725 4.55 175.385 4.55C175.985 4.55 176.521 4.65 176.995 4.85C177.468 5.04333 177.868 5.31667 178.195 5.67C178.521 6.01667 178.768 6.43333 178.935 6.92C179.108 7.40667 179.195 7.94 179.195 8.52V15H178.075C177.841 15 177.661 14.9667 177.535 14.9C177.408 14.8267 177.308 14.6833 177.235 14.47L177.015 13.73C176.755 13.9633 176.501 14.17 176.255 14.35C176.008 14.5233 175.751 14.67 175.485 14.79C175.218 14.91 174.931 15 174.625 15.06C174.325 15.1267 173.991 15.16 173.625 15.16C173.191 15.16 172.791 15.1033 172.425 14.99C172.058 14.87 171.741 14.6933 171.475 14.46C171.208 14.2267 171.001 13.9367 170.855 13.59C170.708 13.2433 170.635 12.84 170.635 12.38C170.635 12.12 170.678 11.8633 170.765 11.61C170.851 11.35 170.991 11.1033 171.185 10.87C171.385 10.6367 171.641 10.4167 171.955 10.21C172.268 10.0033 172.651 9.82333 173.105 9.67C173.565 9.51667 174.098 9.39333 174.705 9.3C175.311 9.2 176.005 9.14 176.785 9.12V8.52C176.785 7.83333 176.638 7.32667 176.345 7C176.051 6.66667 175.628 6.5 175.075 6.5C174.675 6.5 174.341 6.54667 174.075 6.64C173.815 6.73333 173.585 6.84 173.385 6.96C173.185 7.07333 173.001 7.17667 172.835 7.27C172.675 7.36333 172.495 7.41 172.295 7.41C172.121 7.41 171.975 7.36667 171.855 7.28C171.735 7.18667 171.638 7.08 171.565 6.96L171.125 6.17ZM184.021 0.139999V15H181.551V0.139999H184.021ZM197.785 7.36C197.505 7.02 197.198 6.78 196.865 6.64C196.538 6.5 196.185 6.43 195.805 6.43C195.432 6.43 195.095 6.5 194.795 6.64C194.495 6.78 194.238 6.99333 194.025 7.28C193.812 7.56 193.648 7.92 193.535 8.36C193.422 8.79333 193.365 9.30667 193.365 9.9C193.365 10.5 193.412 11.01 193.505 11.43C193.605 11.8433 193.745 12.1833 193.925 12.45C194.105 12.71 194.325 12.9 194.585 13.02C194.845 13.1333 195.135 13.19 195.455 13.19C195.968 13.19 196.405 13.0833 196.765 12.87C197.125 12.6567 197.465 12.3533 197.785 11.96V7.36ZM200.255 0.139999V15H198.745C198.418 15 198.212 14.85 198.125 14.55L197.915 13.56C197.502 14.0333 197.025 14.4167 196.485 14.71C195.952 15.0033 195.328 15.15 194.615 15.15C194.055 15.15 193.542 15.0333 193.075 14.8C192.608 14.5667 192.205 14.23 191.865 13.79C191.532 13.3433 191.272 12.7933 191.085 12.14C190.905 11.4867 190.815 10.74 190.815 9.9C190.815 9.14 190.918 8.43333 191.125 7.78C191.332 7.12667 191.628 6.56 192.015 6.08C192.402 5.6 192.865 5.22667 193.405 4.96C193.945 4.68667 194.552 4.55 195.225 4.55C195.798 4.55 196.288 4.64 196.695 4.82C197.102 5 197.465 5.24333 197.785 5.55V0.139999H200.255ZM205.253 4.74V15H202.773V4.74H205.253ZM205.593 1.75C205.593 1.96333 205.549 2.16333 205.463 2.35C205.376 2.53667 205.259 2.7 205.113 2.84C204.973 2.98 204.806 3.09333 204.613 3.18C204.419 3.26 204.213 3.3 203.993 3.3C203.779 3.3 203.576 3.26 203.383 3.18C203.196 3.09333 203.033 2.98 202.893 2.84C202.753 2.7 202.639 2.53667 202.553 2.35C202.473 2.16333 202.433 1.96333 202.433 1.75C202.433 1.53 202.473 1.32333 202.553 1.13C202.639 0.936666 202.753 0.77 202.893 0.63C203.033 0.489999 203.196 0.379999 203.383 0.3C203.576 0.213333 203.779 0.17 203.993 0.17C204.213 0.17 204.419 0.213333 204.613 0.3C204.806 0.379999 204.973 0.489999 205.113 0.63C205.259 0.77 205.376 0.936666 205.463 1.13C205.549 1.32333 205.593 1.53 205.593 1.75ZM213.191 10.62C212.477 10.6533 211.877 10.7167 211.391 10.81C210.904 10.8967 210.514 11.01 210.221 11.15C209.927 11.29 209.717 11.4533 209.591 11.64C209.464 11.8267 209.401 12.03 209.401 12.25C209.401 12.6833 209.527 12.9933 209.781 13.18C210.041 13.3667 210.377 13.46 210.791 13.46C211.297 13.46 211.734 13.37 212.101 13.19C212.474 13.0033 212.837 12.7233 213.191 12.35V10.62ZM207.531 6.17C208.711 5.09 210.131 4.55 211.791 4.55C212.391 4.55 212.927 4.65 213.401 4.85C213.874 5.04333 214.274 5.31667 214.601 5.67C214.927 6.01667 215.174 6.43333 215.341 6.92C215.514 7.40667 215.601 7.94 215.601 8.52V15H214.481C214.247 15 214.067 14.9667 213.941 14.9C213.814 14.8267 213.714 14.6833 213.641 14.47L213.421 13.73C213.161 13.9633 212.907 14.17 212.661 14.35C212.414 14.5233 212.157 14.67 211.891 14.79C211.624 14.91 211.337 15 211.031 15.06C210.731 15.1267 210.397 15.16 210.031 15.16C209.597 15.16 209.197 15.1033 208.831 14.99C208.464 14.87 208.147 14.6933 207.881 14.46C207.614 14.2267 207.407 13.9367 207.261 13.59C207.114 13.2433 207.041 12.84 207.041 12.38C207.041 12.12 207.084 11.8633 207.171 11.61C207.257 11.35 207.397 11.1033 207.591 10.87C207.791 10.6367 208.047 10.4167 208.361 10.21C208.674 10.0033 209.057 9.82333 209.511 9.67C209.971 9.51667 210.504 9.39333 211.111 9.3C211.717 9.2 212.411 9.14 213.191 9.12V8.52C213.191 7.83333 213.044 7.32667 212.751 7C212.457 6.66667 212.034 6.5 211.481 6.5C211.081 6.5 210.747 6.54667 210.481 6.64C210.221 6.73333 209.991 6.84 209.791 6.96C209.591 7.07333 209.407 7.17667 209.241 7.27C209.081 7.36333 208.901 7.41 208.701 7.41C208.527 7.41 208.381 7.36667 208.261 7.28C208.141 7.18667 208.044 7.08 207.971 6.96L207.531 6.17ZM229.23 7.36C228.957 7.02 228.654 6.78 228.32 6.64C227.987 6.5 227.63 6.43 227.25 6.43C226.877 6.43 226.54 6.5 226.24 6.64C225.94 6.78 225.684 6.99333 225.47 7.28C225.257 7.56 225.094 7.92 224.98 8.36C224.867 8.79333 224.81 9.30667 224.81 9.9C224.81 10.5 224.857 11.01 224.95 11.43C225.05 11.8433 225.19 12.1833 225.37 12.45C225.55 12.71 225.77 12.9 226.03 13.02C226.29 13.1333 226.58 13.19 226.9 13.19C227.414 13.19 227.85 13.0833 228.21 12.87C228.57 12.6567 228.91 12.3533 229.23 11.96V7.36ZM231.7 4.74V18.35H229.23V13.7C228.824 14.1333 228.364 14.4833 227.85 14.75C227.337 15.0167 226.74 15.15 226.06 15.15C225.5 15.15 224.987 15.0333 224.52 14.8C224.054 14.5667 223.65 14.23 223.31 13.79C222.977 13.3433 222.717 12.7933 222.53 12.14C222.35 11.4867 222.26 10.74 222.26 9.9C222.26 9.14 222.364 8.43333 222.57 7.78C222.777 7.12667 223.074 6.56 223.46 6.08C223.847 5.6 224.31 5.22667 224.85 4.96C225.39 4.68667 225.997 4.55 226.67 4.55C227.31 4.55 227.847 4.66 228.28 4.88C228.714 5.1 229.1 5.39667 229.44 5.77L229.57 5.19C229.657 4.89 229.864 4.74 230.19 4.74H231.7ZM242.978 4.74V15H241.468C241.141 15 240.935 14.85 240.848 14.55L240.678 13.73C240.258 14.1567 239.795 14.5033 239.288 14.77C238.781 15.03 238.185 15.16 237.498 15.16C236.938 15.16 236.441 15.0667 236.008 14.88C235.581 14.6867 235.221 14.4167 234.928 14.07C234.635 13.7233 234.411 13.3133 234.258 12.84C234.111 12.36 234.038 11.8333 234.038 11.26V4.74H236.508V11.26C236.508 11.8867 236.651 12.3733 236.938 12.72C237.231 13.06 237.668 13.23 238.248 13.23C238.675 13.23 239.075 13.1367 239.448 12.95C239.821 12.7567 240.175 12.4933 240.508 12.16V4.74H242.978ZM252.037 8.69C252.037 8.37 251.99 8.07 251.897 7.79C251.81 7.50333 251.677 7.25333 251.497 7.04C251.317 6.82667 251.087 6.66 250.807 6.54C250.534 6.41333 250.214 6.35 249.847 6.35C249.134 6.35 248.57 6.55333 248.157 6.96C247.75 7.36667 247.49 7.94333 247.377 8.69H252.037ZM247.327 10.18C247.367 10.7067 247.46 11.1633 247.607 11.55C247.754 11.93 247.947 12.2467 248.187 12.5C248.427 12.7467 248.71 12.9333 249.037 13.06C249.37 13.18 249.737 13.24 250.137 13.24C250.537 13.24 250.88 13.1933 251.167 13.1C251.46 13.0067 251.714 12.9033 251.927 12.79C252.147 12.6767 252.337 12.5733 252.497 12.48C252.664 12.3867 252.824 12.34 252.977 12.34C253.184 12.34 253.337 12.4167 253.437 12.57L254.147 13.47C253.874 13.79 253.567 14.06 253.227 14.28C252.887 14.4933 252.53 14.6667 252.157 14.8C251.79 14.9267 251.414 15.0167 251.027 15.07C250.647 15.1233 250.277 15.15 249.917 15.15C249.204 15.15 248.54 15.0333 247.927 14.8C247.314 14.56 246.78 14.21 246.327 13.75C245.874 13.2833 245.517 12.71 245.257 12.03C244.997 11.3433 244.867 10.55 244.867 9.65C244.867 8.95 244.98 8.29333 245.207 7.68C245.434 7.06 245.757 6.52333 246.177 6.07C246.604 5.61 247.12 5.24667 247.727 4.98C248.34 4.71333 249.03 4.58 249.797 4.58C250.444 4.58 251.04 4.68333 251.587 4.89C252.134 5.09667 252.604 5.4 252.997 5.8C253.39 6.19333 253.697 6.68 253.917 7.26C254.144 7.83333 254.257 8.49 254.257 9.23C254.257 9.60333 254.217 9.85667 254.137 9.99C254.057 10.1167 253.904 10.18 253.677 10.18H247.327ZM19.5698 28.74V39H18.0598C17.7331 39 17.5264 38.85 17.4398 38.55L17.2698 37.73C16.8498 38.1567 16.3864 38.5033 15.8798 38.77C15.3731 39.03 14.7764 39.16 14.0898 39.16C13.5298 39.16 13.0331 39.0667 12.5998 38.88C12.1731 38.6867 11.8131 38.4167 11.5198 38.07C11.2264 37.7233 11.0031 37.3133 10.8498 36.84C10.7031 36.36 10.6298 35.8333 10.6298 35.26V28.74H13.0998V35.26C13.0998 35.8867 13.2431 36.3733 13.5298 36.72C13.8231 37.06 14.2598 37.23 14.8398 37.23C15.2664 37.23 15.6664 37.1367 16.0398 36.95C16.4131 36.7567 16.7664 36.4933 17.0998 36.16V28.74H19.5698ZM24.3288 30C24.5355 29.7933 24.7522 29.6033 24.9788 29.43C25.2122 29.25 25.4555 29.1 25.7088 28.98C25.9688 28.8533 26.2455 28.7567 26.5388 28.69C26.8322 28.6167 27.1522 28.58 27.4988 28.58C28.0588 28.58 28.5555 28.6767 28.9888 28.87C29.4222 29.0567 29.7822 29.3233 30.0688 29.67C30.3622 30.01 30.5822 30.42 30.7288 30.9C30.8822 31.3733 30.9588 31.8967 30.9588 32.47V39H28.4888V32.47C28.4888 31.8433 28.3455 31.36 28.0588 31.02C27.7722 30.6733 27.3355 30.5 26.7488 30.5C26.3222 30.5 25.9222 30.5967 25.5488 30.79C25.1755 30.9833 24.8222 31.2467 24.4888 31.58V39H22.0188V28.74H23.5288C23.8488 28.74 24.0588 28.89 24.1588 29.19L24.3288 30ZM38.7279 34.62C38.0146 34.6533 37.4146 34.7167 36.9279 34.81C36.4412 34.8967 36.0512 35.01 35.7579 35.15C35.4646 35.29 35.2546 35.4533 35.1279 35.64C35.0012 35.8267 34.9379 36.03 34.9379 36.25C34.9379 36.6833 35.0646 36.9933 35.3179 37.18C35.5779 37.3667 35.9146 37.46 36.3279 37.46C36.8346 37.46 37.2712 37.37 37.6379 37.19C38.0112 37.0033 38.3746 36.7233 38.7279 36.35V34.62ZM33.0679 30.17C34.2479 29.09 35.6679 28.55 37.3279 28.55C37.9279 28.55 38.4646 28.65 38.9379 28.85C39.4112 29.0433 39.8112 29.3167 40.1379 29.67C40.4646 30.0167 40.7112 30.4333 40.8779 30.92C41.0512 31.4067 41.1379 31.94 41.1379 32.52V39H40.0179C39.7846 39 39.6046 38.9667 39.4779 38.9C39.3512 38.8267 39.2512 38.6833 39.1779 38.47L38.9579 37.73C38.6979 37.9633 38.4446 38.17 38.1979 38.35C37.9512 38.5233 37.6946 38.67 37.4279 38.79C37.1612 38.91 36.8746 39 36.5679 39.06C36.2679 39.1267 35.9346 39.16 35.5679 39.16C35.1346 39.16 34.7346 39.1033 34.3679 38.99C34.0012 38.87 33.6846 38.6933 33.4179 38.46C33.1512 38.2267 32.9446 37.9367 32.7979 37.59C32.6512 37.2433 32.5779 36.84 32.5779 36.38C32.5779 36.12 32.6212 35.8633 32.7079 35.61C32.7946 35.35 32.9346 35.1033 33.1279 34.87C33.3279 34.6367 33.5846 34.4167 33.8979 34.21C34.2112 34.0033 34.5946 33.8233 35.0479 33.67C35.5079 33.5167 36.0412 33.3933 36.6479 33.3C37.2546 33.2 37.9479 33.14 38.7279 33.12V32.52C38.7279 31.8333 38.5812 31.3267 38.2879 31C37.9946 30.6667 37.5712 30.5 37.0179 30.5C36.6179 30.5 36.2846 30.5467 36.0179 30.64C35.7579 30.7333 35.5279 30.84 35.3279 30.96C35.1279 31.0733 34.9446 31.1767 34.7779 31.27C34.6179 31.3633 34.4379 31.41 34.2379 31.41C34.0646 31.41 33.9179 31.3667 33.7979 31.28C33.6779 31.1867 33.5812 31.08 33.5079 30.96L33.0679 30.17ZM50.7974 36.34C51.0774 36.68 51.3808 36.92 51.7074 37.06C52.0408 37.2 52.4008 37.27 52.7874 37.27C53.1608 37.27 53.4974 37.2 53.7974 37.06C54.0974 36.92 54.3508 36.7067 54.5574 36.42C54.7708 36.1333 54.9341 35.7733 55.0474 35.34C55.1608 34.9 55.2174 34.3833 55.2174 33.79C55.2174 33.19 55.1674 32.6833 55.0674 32.27C54.9741 31.85 54.8374 31.51 54.6574 31.25C54.4774 30.99 54.2574 30.8 53.9974 30.68C53.7441 30.56 53.4541 30.5 53.1274 30.5C52.6141 30.5 52.1774 30.61 51.8174 30.83C51.4574 31.0433 51.1174 31.3467 50.7974 31.74V36.34ZM50.6674 30.14C51.0874 29.6667 51.5641 29.2833 52.0974 28.99C52.6308 28.6967 53.2574 28.55 53.9774 28.55C54.5374 28.55 55.0474 28.6667 55.5074 28.9C55.9741 29.1333 56.3741 29.4733 56.7074 29.92C57.0474 30.36 57.3074 30.9067 57.4874 31.56C57.6741 32.2067 57.7674 32.95 57.7674 33.79C57.7674 34.5567 57.6641 35.2667 57.4574 35.92C57.2508 36.5733 56.9541 37.14 56.5674 37.62C56.1874 38.1 55.7241 38.4767 55.1774 38.75C54.6374 39.0167 54.0308 39.15 53.3574 39.15C52.7841 39.15 52.2941 39.0633 51.8874 38.89C51.4808 38.71 51.1174 38.4633 50.7974 38.15V42.35H48.3274V28.74H49.8374C50.1574 28.74 50.3674 28.89 50.4674 29.19L50.6674 30.14ZM66.3046 32.69C66.3046 32.37 66.2579 32.07 66.1646 31.79C66.0779 31.5033 65.9446 31.2533 65.7646 31.04C65.5846 30.8267 65.3546 30.66 65.0746 30.54C64.8013 30.4133 64.4813 30.35 64.1146 30.35C63.4013 30.35 62.8379 30.5533 62.4246 30.96C62.0179 31.3667 61.7579 31.9433 61.6446 32.69H66.3046ZM61.5946 34.18C61.6346 34.7067 61.7279 35.1633 61.8746 35.55C62.0213 35.93 62.2146 36.2467 62.4546 36.5C62.6946 36.7467 62.9779 36.9333 63.3046 37.06C63.6379 37.18 64.0046 37.24 64.4046 37.24C64.8046 37.24 65.1479 37.1933 65.4346 37.1C65.7279 37.0067 65.9813 36.9033 66.1946 36.79C66.4146 36.6767 66.6046 36.5733 66.7646 36.48C66.9313 36.3867 67.0913 36.34 67.2446 36.34C67.4513 36.34 67.6046 36.4167 67.7046 36.57L68.4146 37.47C68.1413 37.79 67.8346 38.06 67.4946 38.28C67.1546 38.4933 66.7979 38.6667 66.4246 38.8C66.0579 38.9267 65.6813 39.0167 65.2946 39.07C64.9146 39.1233 64.5446 39.15 64.1846 39.15C63.4713 39.15 62.8079 39.0333 62.1946 38.8C61.5813 38.56 61.0479 38.21 60.5946 37.75C60.1413 37.2833 59.7846 36.71 59.5246 36.03C59.2646 35.3433 59.1346 34.55 59.1346 33.65C59.1346 32.95 59.2479 32.2933 59.4746 31.68C59.7013 31.06 60.0246 30.5233 60.4446 30.07C60.8713 29.61 61.3879 29.2467 61.9946 28.98C62.6079 28.7133 63.2979 28.58 64.0646 28.58C64.7113 28.58 65.3079 28.6833 65.8546 28.89C66.4013 29.0967 66.8713 29.4 67.2646 29.8C67.6579 30.1933 67.9646 30.68 68.1846 31.26C68.4113 31.8333 68.5246 32.49 68.5246 33.23C68.5246 33.6033 68.4846 33.8567 68.4046 33.99C68.3246 34.1167 68.1713 34.18 67.9446 34.18H61.5946ZM72.7082 30.52C73.0282 29.9067 73.4082 29.4267 73.8482 29.08C74.2882 28.7267 74.8082 28.55 75.4082 28.55C75.8815 28.55 76.2615 28.6533 76.5482 28.86L76.3882 30.71C76.3549 30.83 76.3049 30.9167 76.2382 30.97C76.1782 31.0167 76.0949 31.04 75.9882 31.04C75.8882 31.04 75.7382 31.0233 75.5382 30.99C75.3449 30.9567 75.1549 30.94 74.9682 30.94C74.6949 30.94 74.4515 30.98 74.2382 31.06C74.0249 31.14 73.8315 31.2567 73.6582 31.41C73.4915 31.5567 73.3415 31.7367 73.2082 31.95C73.0815 32.1633 72.9615 32.4067 72.8482 32.68V39H70.3782V28.74H71.8282C72.0815 28.74 72.2582 28.7867 72.3582 28.88C72.4582 28.9667 72.5249 29.1267 72.5582 29.36L72.7082 30.52ZM84.0601 30.74C83.9934 30.8467 83.9234 30.9233 83.8501 30.97C83.7767 31.01 83.6834 31.03 83.5701 31.03C83.4501 31.03 83.3201 30.9967 83.1801 30.93C83.0467 30.8633 82.8901 30.79 82.7101 30.71C82.5301 30.6233 82.3234 30.5467 82.0901 30.48C81.8634 30.4133 81.5934 30.38 81.2801 30.38C80.7934 30.38 80.4101 30.4833 80.1301 30.69C79.8567 30.8967 79.7201 31.1667 79.7201 31.5C79.7201 31.72 79.7901 31.9067 79.9301 32.06C80.0767 32.2067 80.2667 32.3367 80.5001 32.45C80.7401 32.5633 81.0101 32.6667 81.3101 32.76C81.6101 32.8467 81.9134 32.9433 82.2201 33.05C82.5334 33.1567 82.8401 33.28 83.1401 33.42C83.4401 33.5533 83.7067 33.7267 83.9401 33.94C84.1801 34.1467 84.3701 34.3967 84.5101 34.69C84.6567 34.9833 84.7301 35.3367 84.7301 35.75C84.7301 36.2433 84.6401 36.7 84.4601 37.12C84.2867 37.5333 84.0267 37.8933 83.6801 38.2C83.3334 38.5 82.9034 38.7367 82.3901 38.91C81.8834 39.0767 81.2967 39.16 80.6301 39.16C80.2767 39.16 79.9301 39.1267 79.5901 39.06C79.2567 39 78.9334 38.9133 78.6201 38.8C78.3134 38.6867 78.0267 38.5533 77.7601 38.4C77.5001 38.2467 77.2701 38.08 77.0701 37.9L77.6401 36.96C77.7134 36.8467 77.8001 36.76 77.9001 36.7C78.0001 36.64 78.1267 36.61 78.2801 36.61C78.4334 36.61 78.5767 36.6533 78.7101 36.74C78.8501 36.8267 79.0101 36.92 79.1901 37.02C79.3701 37.12 79.5801 37.2133 79.8201 37.3C80.0667 37.3867 80.3767 37.43 80.7501 37.43C81.0434 37.43 81.2934 37.3967 81.5001 37.33C81.7134 37.2567 81.8867 37.1633 82.0201 37.05C82.1601 36.9367 82.2601 36.8067 82.3201 36.66C82.3867 36.5067 82.4201 36.35 82.4201 36.19C82.4201 35.95 82.3467 35.7533 82.2001 35.6C82.0601 35.4467 81.8701 35.3133 81.6301 35.2C81.3967 35.0867 81.1267 34.9867 80.8201 34.9C80.5201 34.8067 80.2101 34.7067 79.8901 34.6C79.5767 34.4933 79.2667 34.37 78.9601 34.23C78.6601 34.0833 78.3901 33.9 78.1501 33.68C77.9167 33.46 77.7267 33.19 77.5801 32.87C77.4401 32.55 77.3701 32.1633 77.3701 31.71C77.3701 31.29 77.4534 30.89 77.6201 30.51C77.7867 30.13 78.0301 29.8 78.3501 29.52C78.6767 29.2333 79.0801 29.0067 79.5601 28.84C80.0467 28.6667 80.6067 28.58 81.2401 28.58C81.9467 28.58 82.5901 28.6967 83.1701 28.93C83.7501 29.1633 84.2334 29.47 84.6201 29.85L84.0601 30.74ZM91.1291 28.58C91.8891 28.58 92.5791 28.7033 93.1991 28.95C93.8258 29.1967 94.3591 29.5467 94.7991 30C95.2458 30.4533 95.5891 31.0067 95.8291 31.66C96.0691 32.3133 96.1891 33.0433 96.1891 33.85C96.1891 34.6633 96.0691 35.3967 95.8291 36.05C95.5891 36.7033 95.2458 37.26 94.7991 37.72C94.3591 38.18 93.8258 38.5333 93.1991 38.78C92.5791 39.0267 91.8891 39.15 91.1291 39.15C90.3625 39.15 89.6658 39.0267 89.0391 38.78C88.4125 38.5333 87.8758 38.18 87.4291 37.72C86.9891 37.26 86.6458 36.7033 86.3991 36.05C86.1591 35.3967 86.0391 34.6633 86.0391 33.85C86.0391 33.0433 86.1591 32.3133 86.3991 31.66C86.6458 31.0067 86.9891 30.4533 87.4291 30C87.8758 29.5467 88.4125 29.1967 89.0391 28.95C89.6658 28.7033 90.3625 28.58 91.1291 28.58ZM91.1291 37.25C91.9825 37.25 92.6125 36.9633 93.0191 36.39C93.4325 35.8167 93.6391 34.9767 93.6391 33.87C93.6391 32.7633 93.4325 31.92 93.0191 31.34C92.6125 30.76 91.9825 30.47 91.1291 30.47C90.2625 30.47 89.6191 30.7633 89.1991 31.35C88.7858 31.93 88.5791 32.77 88.5791 33.87C88.5791 34.97 88.7858 35.81 89.1991 36.39C89.6191 36.9633 90.2625 37.25 91.1291 37.25ZM100.384 30C100.59 29.7933 100.807 29.6033 101.034 29.43C101.267 29.25 101.51 29.1 101.764 28.98C102.024 28.8533 102.3 28.7567 102.594 28.69C102.887 28.6167 103.207 28.58 103.554 28.58C104.114 28.58 104.61 28.6767 105.044 28.87C105.477 29.0567 105.837 29.3233 106.124 29.67C106.417 30.01 106.637 30.42 106.784 30.9C106.937 31.3733 107.014 31.8967 107.014 32.47V39H104.544V32.47C104.544 31.8433 104.4 31.36 104.114 31.02C103.827 30.6733 103.39 30.5 102.804 30.5C102.377 30.5 101.977 30.5967 101.604 30.79C101.23 30.9833 100.877 31.2467 100.544 31.58V39H98.0735V28.74H99.5835C99.9035 28.74 100.114 28.89 100.214 29.19L100.384 30ZM114.783 34.62C114.069 34.6533 113.469 34.7167 112.983 34.81C112.496 34.8967 112.106 35.01 111.813 35.15C111.519 35.29 111.309 35.4533 111.183 35.64C111.056 35.8267 110.993 36.03 110.993 36.25C110.993 36.6833 111.119 36.9933 111.373 37.18C111.633 37.3667 111.969 37.46 112.383 37.46C112.889 37.46 113.326 37.37 113.693 37.19C114.066 37.0033 114.429 36.7233 114.783 36.35V34.62ZM109.123 30.17C110.303 29.09 111.723 28.55 113.383 28.55C113.983 28.55 114.519 28.65 114.993 28.85C115.466 29.0433 115.866 29.3167 116.193 29.67C116.519 30.0167 116.766 30.4333 116.933 30.92C117.106 31.4067 117.193 31.94 117.193 32.52V39H116.073C115.839 39 115.659 38.9667 115.533 38.9C115.406 38.8267 115.306 38.6833 115.233 38.47L115.013 37.73C114.753 37.9633 114.499 38.17 114.253 38.35C114.006 38.5233 113.749 38.67 113.483 38.79C113.216 38.91 112.929 39 112.623 39.06C112.323 39.1267 111.989 39.16 111.623 39.16C111.189 39.16 110.789 39.1033 110.423 38.99C110.056 38.87 109.739 38.6933 109.473 38.46C109.206 38.2267 108.999 37.9367 108.853 37.59C108.706 37.2433 108.633 36.84 108.633 36.38C108.633 36.12 108.676 35.8633 108.763 35.61C108.849 35.35 108.989 35.1033 109.183 34.87C109.383 34.6367 109.639 34.4167 109.953 34.21C110.266 34.0033 110.649 33.8233 111.103 33.67C111.563 33.5167 112.096 33.3933 112.703 33.3C113.309 33.2 114.003 33.14 114.783 33.12V32.52C114.783 31.8333 114.636 31.3267 114.343 31C114.049 30.6667 113.626 30.5 113.073 30.5C112.673 30.5 112.339 30.5467 112.073 30.64C111.813 30.7333 111.583 30.84 111.383 30.96C111.183 31.0733 110.999 31.1767 110.833 31.27C110.673 31.3633 110.493 31.41 110.293 31.41C110.119 31.41 109.973 31.3667 109.853 31.28C109.733 31.1867 109.636 31.08 109.563 30.96L109.123 30.17ZM133.222 28.74V39H131.712C131.385 39 131.179 38.85 131.092 38.55L130.922 37.73C130.502 38.1567 130.039 38.5033 129.532 38.77C129.025 39.03 128.429 39.16 127.742 39.16C127.182 39.16 126.685 39.0667 126.252 38.88C125.825 38.6867 125.465 38.4167 125.172 38.07C124.879 37.7233 124.655 37.3133 124.502 36.84C124.355 36.36 124.282 35.8333 124.282 35.26V28.74H126.752V35.26C126.752 35.8867 126.895 36.3733 127.182 36.72C127.475 37.06 127.912 37.23 128.492 37.23C128.919 37.23 129.319 37.1367 129.692 36.95C130.065 36.7567 130.419 36.4933 130.752 36.16V28.74H133.222ZM141.931 30.74C141.865 30.8467 141.795 30.9233 141.721 30.97C141.648 31.01 141.555 31.03 141.441 31.03C141.321 31.03 141.191 30.9967 141.051 30.93C140.918 30.8633 140.761 30.79 140.581 30.71C140.401 30.6233 140.195 30.5467 139.961 30.48C139.735 30.4133 139.465 30.38 139.151 30.38C138.665 30.38 138.281 30.4833 138.001 30.69C137.728 30.8967 137.591 31.1667 137.591 31.5C137.591 31.72 137.661 31.9067 137.801 32.06C137.948 32.2067 138.138 32.3367 138.371 32.45C138.611 32.5633 138.881 32.6667 139.181 32.76C139.481 32.8467 139.785 32.9433 140.091 33.05C140.405 33.1567 140.711 33.28 141.011 33.42C141.311 33.5533 141.578 33.7267 141.811 33.94C142.051 34.1467 142.241 34.3967 142.381 34.69C142.528 34.9833 142.601 35.3367 142.601 35.75C142.601 36.2433 142.511 36.7 142.331 37.12C142.158 37.5333 141.898 37.8933 141.551 38.2C141.205 38.5 140.775 38.7367 140.261 38.91C139.755 39.0767 139.168 39.16 138.501 39.16C138.148 39.16 137.801 39.1267 137.461 39.06C137.128 39 136.805 38.9133 136.491 38.8C136.185 38.6867 135.898 38.5533 135.631 38.4C135.371 38.2467 135.141 38.08 134.941 37.9L135.511 36.96C135.585 36.8467 135.671 36.76 135.771 36.7C135.871 36.64 135.998 36.61 136.151 36.61C136.305 36.61 136.448 36.6533 136.581 36.74C136.721 36.8267 136.881 36.92 137.061 37.02C137.241 37.12 137.451 37.2133 137.691 37.3C137.938 37.3867 138.248 37.43 138.621 37.43C138.915 37.43 139.165 37.3967 139.371 37.33C139.585 37.2567 139.758 37.1633 139.891 37.05C140.031 36.9367 140.131 36.8067 140.191 36.66C140.258 36.5067 140.291 36.35 140.291 36.19C140.291 35.95 140.218 35.7533 140.071 35.6C139.931 35.4467 139.741 35.3133 139.501 35.2C139.268 35.0867 138.998 34.9867 138.691 34.9C138.391 34.8067 138.081 34.7067 137.761 34.6C137.448 34.4933 137.138 34.37 136.831 34.23C136.531 34.0833 136.261 33.9 136.021 33.68C135.788 33.46 135.598 33.19 135.451 32.87C135.311 32.55 135.241 32.1633 135.241 31.71C135.241 31.29 135.325 30.89 135.491 30.51C135.658 30.13 135.901 29.8 136.221 29.52C136.548 29.2333 136.951 29.0067 137.431 28.84C137.918 28.6667 138.478 28.58 139.111 28.58C139.818 28.58 140.461 28.6967 141.041 28.93C141.621 29.1633 142.105 29.47 142.491 29.85L141.931 30.74ZM149.88 34.62C149.167 34.6533 148.567 34.7167 148.08 34.81C147.594 34.8967 147.204 35.01 146.91 35.15C146.617 35.29 146.407 35.4533 146.28 35.64C146.154 35.8267 146.09 36.03 146.09 36.25C146.09 36.6833 146.217 36.9933 146.47 37.18C146.73 37.3667 147.067 37.46 147.48 37.46C147.987 37.46 148.424 37.37 148.79 37.19C149.164 37.0033 149.527 36.7233 149.88 36.35V34.62ZM144.22 30.17C145.4 29.09 146.82 28.55 148.48 28.55C149.08 28.55 149.617 28.65 150.09 28.85C150.564 29.0433 150.964 29.3167 151.29 29.67C151.617 30.0167 151.864 30.4333 152.03 30.92C152.204 31.4067 152.29 31.94 152.29 32.52V39H151.17C150.937 39 150.757 38.9667 150.63 38.9C150.504 38.8267 150.404 38.6833 150.33 38.47L150.11 37.73C149.85 37.9633 149.597 38.17 149.35 38.35C149.104 38.5233 148.847 38.67 148.58 38.79C148.314 38.91 148.027 39 147.72 39.06C147.42 39.1267 147.087 39.16 146.72 39.16C146.287 39.16 145.887 39.1033 145.52 38.99C145.154 38.87 144.837 38.6933 144.57 38.46C144.304 38.2267 144.097 37.9367 143.95 37.59C143.804 37.2433 143.73 36.84 143.73 36.38C143.73 36.12 143.774 35.8633 143.86 35.61C143.947 35.35 144.087 35.1033 144.28 34.87C144.48 34.6367 144.737 34.4167 145.05 34.21C145.364 34.0033 145.747 33.8233 146.2 33.67C146.66 33.5167 147.194 33.3933 147.8 33.3C148.407 33.2 149.1 33.14 149.88 33.12V32.52C149.88 31.8333 149.734 31.3267 149.44 31C149.147 30.6667 148.724 30.5 148.17 30.5C147.77 30.5 147.437 30.5467 147.17 30.64C146.91 30.7333 146.68 30.84 146.48 30.96C146.28 31.0733 146.097 31.1767 145.93 31.27C145.77 31.3633 145.59 31.41 145.39 31.41C145.217 31.41 145.07 31.3667 144.95 31.28C144.83 31.1867 144.734 31.08 144.66 30.96L144.22 30.17ZM160.876 30.74C160.81 30.8467 160.74 30.9233 160.666 30.97C160.593 31.01 160.5 31.03 160.386 31.03C160.266 31.03 160.136 30.9967 159.996 30.93C159.863 30.8633 159.706 30.79 159.526 30.71C159.346 30.6233 159.14 30.5467 158.906 30.48C158.68 30.4133 158.41 30.38 158.096 30.38C157.61 30.38 157.226 30.4833 156.946 30.69C156.673 30.8967 156.536 31.1667 156.536 31.5C156.536 31.72 156.606 31.9067 156.746 32.06C156.893 32.2067 157.083 32.3367 157.316 32.45C157.556 32.5633 157.826 32.6667 158.126 32.76C158.426 32.8467 158.73 32.9433 159.036 33.05C159.35 33.1567 159.656 33.28 159.956 33.42C160.256 33.5533 160.523 33.7267 160.756 33.94C160.996 34.1467 161.186 34.3967 161.326 34.69C161.473 34.9833 161.546 35.3367 161.546 35.75C161.546 36.2433 161.456 36.7 161.276 37.12C161.103 37.5333 160.843 37.8933 160.496 38.2C160.15 38.5 159.72 38.7367 159.206 38.91C158.7 39.0767 158.113 39.16 157.446 39.16C157.093 39.16 156.746 39.1267 156.406 39.06C156.073 39 155.75 38.9133 155.436 38.8C155.13 38.6867 154.843 38.5533 154.576 38.4C154.316 38.2467 154.086 38.08 153.886 37.9L154.456 36.96C154.53 36.8467 154.616 36.76 154.716 36.7C154.816 36.64 154.943 36.61 155.096 36.61C155.25 36.61 155.393 36.6533 155.526 36.74C155.666 36.8267 155.826 36.92 156.006 37.02C156.186 37.12 156.396 37.2133 156.636 37.3C156.883 37.3867 157.193 37.43 157.566 37.43C157.86 37.43 158.11 37.3967 158.316 37.33C158.53 37.2567 158.703 37.1633 158.836 37.05C158.976 36.9367 159.076 36.8067 159.136 36.66C159.203 36.5067 159.236 36.35 159.236 36.19C159.236 35.95 159.163 35.7533 159.016 35.6C158.876 35.4467 158.686 35.3133 158.446 35.2C158.213 35.0867 157.943 34.9867 157.636 34.9C157.336 34.8067 157.026 34.7067 156.706 34.6C156.393 34.4933 156.083 34.37 155.776 34.23C155.476 34.0833 155.206 33.9 154.966 33.68C154.733 33.46 154.543 33.19 154.396 32.87C154.256 32.55 154.186 32.1633 154.186 31.71C154.186 31.29 154.27 30.89 154.436 30.51C154.603 30.13 154.846 29.8 155.166 29.52C155.493 29.2333 155.896 29.0067 156.376 28.84C156.863 28.6667 157.423 28.58 158.056 28.58C158.763 28.58 159.406 28.6967 159.986 28.93C160.566 29.1633 161.05 29.47 161.436 29.85L160.876 30.74ZM170.769 24.14V39H168.299V24.14H170.769ZM178.65 34.62C177.936 34.6533 177.336 34.7167 176.85 34.81C176.363 34.8967 175.973 35.01 175.68 35.15C175.386 35.29 175.176 35.4533 175.05 35.64C174.923 35.8267 174.86 36.03 174.86 36.25C174.86 36.6833 174.986 36.9933 175.24 37.18C175.5 37.3667 175.836 37.46 176.25 37.46C176.756 37.46 177.193 37.37 177.56 37.19C177.933 37.0033 178.296 36.7233 178.65 36.35V34.62ZM172.99 30.17C174.17 29.09 175.59 28.55 177.25 28.55C177.85 28.55 178.386 28.65 178.86 28.85C179.333 29.0433 179.733 29.3167 180.06 29.67C180.386 30.0167 180.633 30.4333 180.8 30.92C180.973 31.4067 181.06 31.94 181.06 32.52V39H179.94C179.706 39 179.526 38.9667 179.4 38.9C179.273 38.8267 179.173 38.6833 179.1 38.47L178.88 37.73C178.62 37.9633 178.366 38.17 178.12 38.35C177.873 38.5233 177.616 38.67 177.35 38.79C177.083 38.91 176.796 39 176.49 39.06C176.19 39.1267 175.856 39.16 175.49 39.16C175.056 39.16 174.656 39.1033 174.29 38.99C173.923 38.87 173.606 38.6933 173.34 38.46C173.073 38.2267 172.866 37.9367 172.72 37.59C172.573 37.2433 172.5 36.84 172.5 36.38C172.5 36.12 172.543 35.8633 172.63 35.61C172.716 35.35 172.856 35.1033 173.05 34.87C173.25 34.6367 173.506 34.4167 173.82 34.21C174.133 34.0033 174.516 33.8233 174.97 33.67C175.43 33.5167 175.963 33.3933 176.57 33.3C177.176 33.2 177.87 33.14 178.65 33.12V32.52C178.65 31.8333 178.503 31.3267 178.21 31C177.916 30.6667 177.493 30.5 176.94 30.5C176.54 30.5 176.206 30.5467 175.94 30.64C175.68 30.7333 175.45 30.84 175.25 30.96C175.05 31.0733 174.866 31.1767 174.7 31.27C174.54 31.3633 174.36 31.41 174.16 31.41C173.986 31.41 173.84 31.3667 173.72 31.28C173.6 31.1867 173.503 31.08 173.43 30.96L172.99 30.17ZM189.646 30.74C189.579 30.8467 189.509 30.9233 189.436 30.97C189.363 31.01 189.269 31.03 189.156 31.03C189.036 31.03 188.906 30.9967 188.766 30.93C188.633 30.8633 188.476 30.79 188.296 30.71C188.116 30.6233 187.909 30.5467 187.676 30.48C187.449 30.4133 187.179 30.38 186.866 30.38C186.379 30.38 185.996 30.4833 185.716 30.69C185.443 30.8967 185.306 31.1667 185.306 31.5C185.306 31.72 185.376 31.9067 185.516 32.06C185.663 32.2067 185.853 32.3367 186.086 32.45C186.326 32.5633 186.596 32.6667 186.896 32.76C187.196 32.8467 187.499 32.9433 187.806 33.05C188.119 33.1567 188.426 33.28 188.726 33.42C189.026 33.5533 189.293 33.7267 189.526 33.94C189.766 34.1467 189.956 34.3967 190.096 34.69C190.243 34.9833 190.316 35.3367 190.316 35.75C190.316 36.2433 190.226 36.7 190.046 37.12C189.873 37.5333 189.613 37.8933 189.266 38.2C188.919 38.5 188.489 38.7367 187.976 38.91C187.469 39.0767 186.883 39.16 186.216 39.16C185.863 39.16 185.516 39.1267 185.176 39.06C184.843 39 184.519 38.9133 184.206 38.8C183.899 38.6867 183.613 38.5533 183.346 38.4C183.086 38.2467 182.856 38.08 182.656 37.9L183.226 36.96C183.299 36.8467 183.386 36.76 183.486 36.7C183.586 36.64 183.713 36.61 183.866 36.61C184.019 36.61 184.163 36.6533 184.296 36.74C184.436 36.8267 184.596 36.92 184.776 37.02C184.956 37.12 185.166 37.2133 185.406 37.3C185.653 37.3867 185.963 37.43 186.336 37.43C186.629 37.43 186.879 37.3967 187.086 37.33C187.299 37.2567 187.473 37.1633 187.606 37.05C187.746 36.9367 187.846 36.8067 187.906 36.66C187.973 36.5067 188.006 36.35 188.006 36.19C188.006 35.95 187.933 35.7533 187.786 35.6C187.646 35.4467 187.456 35.3133 187.216 35.2C186.983 35.0867 186.713 34.9867 186.406 34.9C186.106 34.8067 185.796 34.7067 185.476 34.6C185.163 34.4933 184.853 34.37 184.546 34.23C184.246 34.0833 183.976 33.9 183.736 33.68C183.503 33.46 183.313 33.19 183.166 32.87C183.026 32.55 182.956 32.1633 182.956 31.71C182.956 31.29 183.039 30.89 183.206 30.51C183.373 30.13 183.616 29.8 183.936 29.52C184.263 29.2333 184.666 29.0067 185.146 28.84C185.633 28.6667 186.193 28.58 186.826 28.58C187.533 28.58 188.176 28.6967 188.756 28.93C189.336 29.1633 189.819 29.47 190.206 29.85L189.646 30.74ZM199.368 30.52C199.688 29.9067 200.068 29.4267 200.508 29.08C200.948 28.7267 201.468 28.55 202.068 28.55C202.542 28.55 202.922 28.6533 203.208 28.86L203.048 30.71C203.015 30.83 202.965 30.9167 202.898 30.97C202.838 31.0167 202.755 31.04 202.648 31.04C202.548 31.04 202.398 31.0233 202.198 30.99C202.005 30.9567 201.815 30.94 201.628 30.94C201.355 30.94 201.112 30.98 200.898 31.06C200.685 31.14 200.492 31.2567 200.318 31.41C200.152 31.5567 200.002 31.7367 199.868 31.95C199.742 32.1633 199.622 32.4067 199.508 32.68V39H197.038V28.74H198.488C198.742 28.74 198.918 28.7867 199.018 28.88C199.118 28.9667 199.185 29.1267 199.218 29.36L199.368 30.52ZM210.816 32.69C210.816 32.37 210.77 32.07 210.676 31.79C210.59 31.5033 210.456 31.2533 210.276 31.04C210.096 30.8267 209.866 30.66 209.586 30.54C209.313 30.4133 208.993 30.35 208.626 30.35C207.913 30.35 207.35 30.5533 206.936 30.96C206.53 31.3667 206.27 31.9433 206.156 32.69H210.816ZM206.106 34.18C206.146 34.7067 206.24 35.1633 206.386 35.55C206.533 35.93 206.726 36.2467 206.966 36.5C207.206 36.7467 207.49 36.9333 207.816 37.06C208.15 37.18 208.516 37.24 208.916 37.24C209.316 37.24 209.66 37.1933 209.946 37.1C210.24 37.0067 210.493 36.9033 210.706 36.79C210.926 36.6767 211.116 36.5733 211.276 36.48C211.443 36.3867 211.603 36.34 211.756 36.34C211.963 36.34 212.116 36.4167 212.216 36.57L212.926 37.47C212.653 37.79 212.346 38.06 212.006 38.28C211.666 38.4933 211.31 38.6667 210.936 38.8C210.57 38.9267 210.193 39.0167 209.806 39.07C209.426 39.1233 209.056 39.15 208.696 39.15C207.983 39.15 207.32 39.0333 206.706 38.8C206.093 38.56 205.56 38.21 205.106 37.75C204.653 37.2833 204.296 36.71 204.036 36.03C203.776 35.3433 203.646 34.55 203.646 33.65C203.646 32.95 203.76 32.2933 203.986 31.68C204.213 31.06 204.536 30.5233 204.956 30.07C205.383 29.61 205.9 29.2467 206.506 28.98C207.12 28.7133 207.81 28.58 208.576 28.58C209.223 28.58 209.82 28.6833 210.366 28.89C210.913 29.0967 211.383 29.4 211.776 29.8C212.17 30.1933 212.476 30.68 212.696 31.26C212.923 31.8333 213.036 32.49 213.036 33.23C213.036 33.6033 212.996 33.8567 212.916 33.99C212.836 34.1167 212.683 34.18 212.456 34.18H206.106ZM221.33 31.36C221.05 31.02 220.743 30.78 220.41 30.64C220.083 30.5 219.73 30.43 219.35 30.43C218.977 30.43 218.64 30.5 218.34 30.64C218.04 30.78 217.783 30.9933 217.57 31.28C217.357 31.56 217.193 31.92 217.08 32.36C216.967 32.7933 216.91 33.3067 216.91 33.9C216.91 34.5 216.957 35.01 217.05 35.43C217.15 35.8433 217.29 36.1833 217.47 36.45C217.65 36.71 217.87 36.9 218.13 37.02C218.39 37.1333 218.68 37.19 219 37.19C219.513 37.19 219.95 37.0833 220.31 36.87C220.67 36.6567 221.01 36.3533 221.33 35.96V31.36ZM223.8 24.14V39H222.29C221.963 39 221.757 38.85 221.67 38.55L221.46 37.56C221.047 38.0333 220.57 38.4167 220.03 38.71C219.497 39.0033 218.873 39.15 218.16 39.15C217.6 39.15 217.087 39.0333 216.62 38.8C216.153 38.5667 215.75 38.23 215.41 37.79C215.077 37.3433 214.817 36.7933 214.63 36.14C214.45 35.4867 214.36 34.74 214.36 33.9C214.36 33.14 214.463 32.4333 214.67 31.78C214.877 31.1267 215.173 30.56 215.56 30.08C215.947 29.6 216.41 29.2267 216.95 28.96C217.49 28.6867 218.097 28.55 218.77 28.55C219.343 28.55 219.833 28.64 220.24 28.82C220.647 29 221.01 29.2433 221.33 29.55V24.14H223.8ZM232.848 32.69C232.848 32.37 232.801 32.07 232.708 31.79C232.621 31.5033 232.488 31.2533 232.308 31.04C232.128 30.8267 231.898 30.66 231.618 30.54C231.344 30.4133 231.024 30.35 230.658 30.35C229.944 30.35 229.381 30.5533 228.968 30.96C228.561 31.3667 228.301 31.9433 228.188 32.69H232.848ZM228.138 34.18C228.178 34.7067 228.271 35.1633 228.418 35.55C228.564 35.93 228.758 36.2467 228.998 36.5C229.238 36.7467 229.521 36.9333 229.848 37.06C230.181 37.18 230.548 37.24 230.948 37.24C231.348 37.24 231.691 37.1933 231.978 37.1C232.271 37.0067 232.524 36.9033 232.738 36.79C232.958 36.6767 233.148 36.5733 233.308 36.48C233.474 36.3867 233.634 36.34 233.788 36.34C233.994 36.34 234.148 36.4167 234.248 36.57L234.958 37.47C234.684 37.79 234.378 38.06 234.038 38.28C233.698 38.4933 233.341 38.6667 232.968 38.8C232.601 38.9267 232.224 39.0167 231.838 39.07C231.458 39.1233 231.088 39.15 230.728 39.15C230.014 39.15 229.351 39.0333 228.738 38.8C228.124 38.56 227.591 38.21 227.138 37.75C226.684 37.2833 226.328 36.71 226.068 36.03C225.808 35.3433 225.678 34.55 225.678 33.65C225.678 32.95 225.791 32.2933 226.018 31.68C226.244 31.06 226.568 30.5233 226.988 30.07C227.414 29.61 227.931 29.2467 228.538 28.98C229.151 28.7133 229.841 28.58 230.608 28.58C231.254 28.58 231.851 28.6833 232.398 28.89C232.944 29.0967 233.414 29.4 233.808 29.8C234.201 30.1933 234.508 30.68 234.728 31.26C234.954 31.8333 235.068 32.49 235.068 33.23C235.068 33.6033 235.028 33.8567 234.948 33.99C234.868 34.1167 234.714 34.18 234.488 34.18H228.138ZM243.181 30.74C243.115 30.8467 243.045 30.9233 242.971 30.97C242.898 31.01 242.805 31.03 242.691 31.03C242.571 31.03 242.441 30.9967 242.301 30.93C242.168 30.8633 242.011 30.79 241.831 30.71C241.651 30.6233 241.445 30.5467 241.211 30.48C240.985 30.4133 240.715 30.38 240.401 30.38C239.915 30.38 239.531 30.4833 239.251 30.69C238.978 30.8967 238.841 31.1667 238.841 31.5C238.841 31.72 238.911 31.9067 239.051 32.06C239.198 32.2067 239.388 32.3367 239.621 32.45C239.861 32.5633 240.131 32.6667 240.431 32.76C240.731 32.8467 241.035 32.9433 241.341 33.05C241.655 33.1567 241.961 33.28 242.261 33.42C242.561 33.5533 242.828 33.7267 243.061 33.94C243.301 34.1467 243.491 34.3967 243.631 34.69C243.778 34.9833 243.851 35.3367 243.851 35.75C243.851 36.2433 243.761 36.7 243.581 37.12C243.408 37.5333 243.148 37.8933 242.801 38.2C242.455 38.5 242.025 38.7367 241.511 38.91C241.005 39.0767 240.418 39.16 239.751 39.16C239.398 39.16 239.051 39.1267 238.711 39.06C238.378 39 238.055 38.9133 237.741 38.8C237.435 38.6867 237.148 38.5533 236.881 38.4C236.621 38.2467 236.391 38.08 236.191 37.9L236.761 36.96C236.835 36.8467 236.921 36.76 237.021 36.7C237.121 36.64 237.248 36.61 237.401 36.61C237.555 36.61 237.698 36.6533 237.831 36.74C237.971 36.8267 238.131 36.92 238.311 37.02C238.491 37.12 238.701 37.2133 238.941 37.3C239.188 37.3867 239.498 37.43 239.871 37.43C240.165 37.43 240.415 37.3967 240.621 37.33C240.835 37.2567 241.008 37.1633 241.141 37.05C241.281 36.9367 241.381 36.8067 241.441 36.66C241.508 36.5067 241.541 36.35 241.541 36.19C241.541 35.95 241.468 35.7533 241.321 35.6C241.181 35.4467 240.991 35.3133 240.751 35.2C240.518 35.0867 240.248 34.9867 239.941 34.9C239.641 34.8067 239.331 34.7067 239.011 34.6C238.698 34.4933 238.388 34.37 238.081 34.23C237.781 34.0833 237.511 33.9 237.271 33.68C237.038 33.46 236.848 33.19 236.701 32.87C236.561 32.55 236.491 32.1633 236.491 31.71C236.491 31.29 236.575 30.89 236.741 30.51C236.908 30.13 237.151 29.8 237.471 29.52C237.798 29.2333 238.201 29.0067 238.681 28.84C239.168 28.6667 239.728 28.58 240.361 28.58C241.068 28.58 241.711 28.6967 242.291 28.93C242.871 29.1633 243.355 29.47 243.741 29.85L243.181 30.74ZM99.6851 54.74C99.6184 54.8467 99.5484 54.9233 99.4751 54.97C99.4017 55.01 99.3084 55.03 99.1951 55.03C99.0751 55.03 98.9451 54.9967 98.8051 54.93C98.6717 54.8633 98.5151 54.79 98.3351 54.71C98.1551 54.6233 97.9484 54.5467 97.7151 54.48C97.4884 54.4133 97.2184 54.38 96.9051 54.38C96.4184 54.38 96.0351 54.4833 95.7551 54.69C95.4817 54.8967 95.3451 55.1667 95.3451 55.5C95.3451 55.72 95.4151 55.9067 95.5551 56.06C95.7017 56.2067 95.8917 56.3367 96.1251 56.45C96.3651 56.5633 96.6351 56.6667 96.9351 56.76C97.2351 56.8467 97.5384 56.9433 97.8451 57.05C98.1584 57.1567 98.4651 57.28 98.7651 57.42C99.0651 57.5533 99.3317 57.7267 99.5651 57.94C99.8051 58.1467 99.9951 58.3967 100.135 58.69C100.282 58.9833 100.355 59.3367 100.355 59.75C100.355 60.2433 100.265 60.7 100.085 61.12C99.9117 61.5333 99.6517 61.8933 99.3051 62.2C98.9584 62.5 98.5284 62.7367 98.0151 62.91C97.5084 63.0767 96.9217 63.16 96.2551 63.16C95.9017 63.16 95.5551 63.1267 95.2151 63.06C94.8817 63 94.5584 62.9133 94.2451 62.8C93.9384 62.6867 93.6517 62.5533 93.3851 62.4C93.1251 62.2467 92.8951 62.08 92.6951 61.9L93.2651 60.96C93.3384 60.8467 93.4251 60.76 93.5251 60.7C93.6251 60.64 93.7517 60.61 93.9051 60.61C94.0584 60.61 94.2017 60.6533 94.3351 60.74C94.4751 60.8267 94.6351 60.92 94.8151 61.02C94.9951 61.12 95.2051 61.2133 95.4451 61.3C95.6917 61.3867 96.0017 61.43 96.3751 61.43C96.6684 61.43 96.9184 61.3967 97.1251 61.33C97.3384 61.2567 97.5117 61.1633 97.6451 61.05C97.7851 60.9367 97.8851 60.8067 97.9451 60.66C98.0117 60.5067 98.0451 60.35 98.0451 60.19C98.0451 59.95 97.9717 59.7533 97.8251 59.6C97.6851 59.4467 97.4951 59.3133 97.2551 59.2C97.0217 59.0867 96.7517 58.9867 96.4451 58.9C96.1451 58.8067 95.8351 58.7067 95.5151 58.6C95.2017 58.4933 94.8917 58.37 94.5851 58.23C94.2851 58.0833 94.0151 57.9 93.7751 57.68C93.5417 57.46 93.3517 57.19 93.2051 56.87C93.0651 56.55 92.9951 56.1633 92.9951 55.71C92.9951 55.29 93.0784 54.89 93.2451 54.51C93.4117 54.13 93.6551 53.8 93.9751 53.52C94.3017 53.2333 94.7051 53.0067 95.1851 52.84C95.6717 52.6667 96.2317 52.58 96.8651 52.58C97.5717 52.58 98.2151 52.6967 98.7951 52.93C99.3751 53.1633 99.8584 53.47 100.245 53.85L99.6851 54.74ZM106.754 52.58C107.514 52.58 108.204 52.7033 108.824 52.95C109.451 53.1967 109.984 53.5467 110.424 54C110.871 54.4533 111.214 55.0067 111.454 55.66C111.694 56.3133 111.814 57.0433 111.814 57.85C111.814 58.6633 111.694 59.3967 111.454 60.05C111.214 60.7033 110.871 61.26 110.424 61.72C109.984 62.18 109.451 62.5333 108.824 62.78C108.204 63.0267 107.514 63.15 106.754 63.15C105.987 63.15 105.291 63.0267 104.664 62.78C104.037 62.5333 103.501 62.18 103.054 61.72C102.614 61.26 102.271 60.7033 102.024 60.05C101.784 59.3967 101.664 58.6633 101.664 57.85C101.664 57.0433 101.784 56.3133 102.024 55.66C102.271 55.0067 102.614 54.4533 103.054 54C103.501 53.5467 104.037 53.1967 104.664 52.95C105.291 52.7033 105.987 52.58 106.754 52.58ZM106.754 61.25C107.607 61.25 108.237 60.9633 108.644 60.39C109.057 59.8167 109.264 58.9767 109.264 57.87C109.264 56.7633 109.057 55.92 108.644 55.34C108.237 54.76 107.607 54.47 106.754 54.47C105.887 54.47 105.244 54.7633 104.824 55.35C104.411 55.93 104.204 56.77 104.204 57.87C104.204 58.97 104.411 59.81 104.824 60.39C105.244 60.9633 105.887 61.25 106.754 61.25ZM121.049 54.91C120.975 55.0033 120.902 55.0767 120.829 55.13C120.762 55.1833 120.662 55.21 120.529 55.21C120.402 55.21 120.279 55.1733 120.159 55.1C120.039 55.02 119.895 54.9333 119.729 54.84C119.562 54.74 119.362 54.6533 119.129 54.58C118.902 54.5 118.619 54.46 118.279 54.46C117.845 54.46 117.465 54.54 117.139 54.7C116.812 54.8533 116.539 55.0767 116.319 55.37C116.105 55.6633 115.945 56.02 115.839 56.44C115.732 56.8533 115.679 57.3233 115.679 57.85C115.679 58.3967 115.735 58.8833 115.849 59.31C115.969 59.7367 116.139 60.0967 116.359 60.39C116.579 60.6767 116.845 60.8967 117.159 61.05C117.472 61.1967 117.825 61.27 118.219 61.27C118.612 61.27 118.929 61.2233 119.169 61.13C119.415 61.03 119.622 60.9233 119.789 60.81C119.955 60.69 120.099 60.5833 120.219 60.49C120.345 60.39 120.485 60.34 120.639 60.34C120.839 60.34 120.989 60.4167 121.089 60.57L121.799 61.47C121.525 61.79 121.229 62.06 120.909 62.28C120.589 62.4933 120.255 62.6667 119.909 62.8C119.569 62.9267 119.215 63.0167 118.849 63.07C118.489 63.1233 118.129 63.15 117.769 63.15C117.135 63.15 116.539 63.0333 115.979 62.8C115.419 62.56 114.929 62.2133 114.509 61.76C114.089 61.3067 113.755 60.7533 113.509 60.1C113.269 59.44 113.149 58.69 113.149 57.85C113.149 57.0967 113.255 56.4 113.469 55.76C113.689 55.1133 114.009 54.5567 114.429 54.09C114.849 53.6167 115.369 53.2467 115.989 52.98C116.609 52.7133 117.322 52.58 118.129 52.58C118.895 52.58 119.565 52.7033 120.139 52.95C120.719 53.1967 121.239 53.55 121.699 54.01L121.049 54.91ZM125.907 52.74V63H123.427V52.74H125.907ZM126.247 49.75C126.247 49.9633 126.204 50.1633 126.117 50.35C126.03 50.5367 125.914 50.7 125.767 50.84C125.627 50.98 125.46 51.0933 125.267 51.18C125.074 51.26 124.867 51.3 124.647 51.3C124.434 51.3 124.23 51.26 124.037 51.18C123.85 51.0933 123.687 50.98 123.547 50.84C123.407 50.7 123.294 50.5367 123.207 50.35C123.127 50.1633 123.087 49.9633 123.087 49.75C123.087 49.53 123.127 49.3233 123.207 49.13C123.294 48.9367 123.407 48.77 123.547 48.63C123.687 48.49 123.85 48.38 124.037 48.3C124.23 48.2133 124.434 48.17 124.647 48.17C124.867 48.17 125.074 48.2133 125.267 48.3C125.46 48.38 125.627 48.49 125.767 48.63C125.914 48.77 126.03 48.9367 126.117 49.13C126.204 49.3233 126.247 49.53 126.247 49.75ZM133.845 58.62C133.132 58.6533 132.532 58.7167 132.045 58.81C131.558 58.8967 131.168 59.01 130.875 59.15C130.582 59.29 130.372 59.4533 130.245 59.64C130.118 59.8267 130.055 60.03 130.055 60.25C130.055 60.6833 130.182 60.9933 130.435 61.18C130.695 61.3667 131.032 61.46 131.445 61.46C131.952 61.46 132.388 61.37 132.755 61.19C133.128 61.0033 133.492 60.7233 133.845 60.35V58.62ZM128.185 54.17C129.365 53.09 130.785 52.55 132.445 52.55C133.045 52.55 133.582 52.65 134.055 52.85C134.528 53.0433 134.928 53.3167 135.255 53.67C135.582 54.0167 135.828 54.4333 135.995 54.92C136.168 55.4067 136.255 55.94 136.255 56.52V63H135.135C134.902 63 134.722 62.9667 134.595 62.9C134.468 62.8267 134.368 62.6833 134.295 62.47L134.075 61.73C133.815 61.9633 133.562 62.17 133.315 62.35C133.068 62.5233 132.812 62.67 132.545 62.79C132.278 62.91 131.992 63 131.685 63.06C131.385 63.1267 131.052 63.16 130.685 63.16C130.252 63.16 129.852 63.1033 129.485 62.99C129.118 62.87 128.802 62.6933 128.535 62.46C128.268 62.2267 128.062 61.9367 127.915 61.59C127.768 61.2433 127.695 60.84 127.695 60.38C127.695 60.12 127.738 59.8633 127.825 59.61C127.912 59.35 128.052 59.1033 128.245 58.87C128.445 58.6367 128.702 58.4167 129.015 58.21C129.328 58.0033 129.712 57.8233 130.165 57.67C130.625 57.5167 131.158 57.3933 131.765 57.3C132.372 57.2 133.065 57.14 133.845 57.12V56.52C133.845 55.8333 133.698 55.3267 133.405 55C133.112 54.6667 132.688 54.5 132.135 54.5C131.735 54.5 131.402 54.5467 131.135 54.64C130.875 54.7333 130.645 54.84 130.445 54.96C130.245 55.0733 130.062 55.1767 129.895 55.27C129.735 55.3633 129.555 55.41 129.355 55.41C129.182 55.41 129.035 55.3667 128.915 55.28C128.795 55.1867 128.698 55.08 128.625 54.96L128.185 54.17ZM141.081 48.14V63H138.611V48.14H141.081ZM150.152 56.69C150.152 56.37 150.106 56.07 150.012 55.79C149.926 55.5033 149.792 55.2533 149.612 55.04C149.432 54.8267 149.202 54.66 148.922 54.54C148.649 54.4133 148.329 54.35 147.962 54.35C147.249 54.35 146.686 54.5533 146.272 54.96C145.866 55.3667 145.606 55.9433 145.492 56.69H150.152ZM145.442 58.18C145.482 58.7067 145.576 59.1633 145.722 59.55C145.869 59.93 146.062 60.2467 146.302 60.5C146.542 60.7467 146.826 60.9333 147.152 61.06C147.486 61.18 147.852 61.24 148.252 61.24C148.652 61.24 148.996 61.1933 149.282 61.1C149.576 61.0067 149.829 60.9033 150.042 60.79C150.262 60.6767 150.452 60.5733 150.612 60.48C150.779 60.3867 150.939 60.34 151.092 60.34C151.299 60.34 151.452 60.4167 151.552 60.57L152.262 61.47C151.989 61.79 151.682 62.06 151.342 62.28C151.002 62.4933 150.646 62.6667 150.272 62.8C149.906 62.9267 149.529 63.0167 149.142 63.07C148.762 63.1233 148.392 63.15 148.032 63.15C147.319 63.15 146.656 63.0333 146.042 62.8C145.429 62.56 144.896 62.21 144.442 61.75C143.989 61.2833 143.632 60.71 143.372 60.03C143.112 59.3433 142.982 58.55 142.982 57.65C142.982 56.95 143.096 56.2933 143.322 55.68C143.549 55.06 143.872 54.5233 144.292 54.07C144.719 53.61 145.236 53.2467 145.842 52.98C146.456 52.7133 147.146 52.58 147.912 52.58C148.559 52.58 149.156 52.6833 149.702 52.89C150.249 53.0967 150.719 53.4 151.112 53.8C151.506 54.1933 151.812 54.68 152.032 55.26C152.259 55.8333 152.372 56.49 152.372 57.23C152.372 57.6033 152.332 57.8567 152.252 57.99C152.172 58.1167 152.019 58.18 151.792 58.18H145.442ZM160.486 54.74C160.419 54.8467 160.349 54.9233 160.276 54.97C160.203 55.01 160.109 55.03 159.996 55.03C159.876 55.03 159.746 54.9967 159.606 54.93C159.473 54.8633 159.316 54.79 159.136 54.71C158.956 54.6233 158.749 54.5467 158.516 54.48C158.289 54.4133 158.019 54.38 157.706 54.38C157.219 54.38 156.836 54.4833 156.556 54.69C156.283 54.8967 156.146 55.1667 156.146 55.5C156.146 55.72 156.216 55.9067 156.356 56.06C156.503 56.2067 156.693 56.3367 156.926 56.45C157.166 56.5633 157.436 56.6667 157.736 56.76C158.036 56.8467 158.339 56.9433 158.646 57.05C158.959 57.1567 159.266 57.28 159.566 57.42C159.866 57.5533 160.133 57.7267 160.366 57.94C160.606 58.1467 160.796 58.3967 160.936 58.69C161.083 58.9833 161.156 59.3367 161.156 59.75C161.156 60.2433 161.066 60.7 160.886 61.12C160.713 61.5333 160.453 61.8933 160.106 62.2C159.759 62.5 159.329 62.7367 158.816 62.91C158.309 63.0767 157.723 63.16 157.056 63.16C156.703 63.16 156.356 63.1267 156.016 63.06C155.683 63 155.359 62.9133 155.046 62.8C154.739 62.6867 154.453 62.5533 154.186 62.4C153.926 62.2467 153.696 62.08 153.496 61.9L154.066 60.96C154.139 60.8467 154.226 60.76 154.326 60.7C154.426 60.64 154.553 60.61 154.706 60.61C154.859 60.61 155.003 60.6533 155.136 60.74C155.276 60.8267 155.436 60.92 155.616 61.02C155.796 61.12 156.006 61.2133 156.246 61.3C156.493 61.3867 156.803 61.43 157.176 61.43C157.469 61.43 157.719 61.3967 157.926 61.33C158.139 61.2567 158.313 61.1633 158.446 61.05C158.586 60.9367 158.686 60.8067 158.746 60.66C158.813 60.5067 158.846 60.35 158.846 60.19C158.846 59.95 158.773 59.7533 158.626 59.6C158.486 59.4467 158.296 59.3133 158.056 59.2C157.823 59.0867 157.553 58.9867 157.246 58.9C156.946 58.8067 156.636 58.7067 156.316 58.6C156.003 58.4933 155.693 58.37 155.386 58.23C155.086 58.0833 154.816 57.9 154.576 57.68C154.343 57.46 154.153 57.19 154.006 56.87C153.866 56.55 153.796 56.1633 153.796 55.71C153.796 55.29 153.879 54.89 154.046 54.51C154.213 54.13 154.456 53.8 154.776 53.52C155.103 53.2333 155.506 53.0067 155.986 52.84C156.473 52.6667 157.033 52.58 157.666 52.58C158.373 52.58 159.016 52.6967 159.596 52.93C160.176 53.1633 160.659 53.47 161.046 53.85L160.486 54.74Z" fill="white"/>
</svg>
