<svg width="422" height="84" viewBox="0 0 422 84" fill="none" xmlns="http://www.w3.org/2000/svg">
<path d="M37.381 48.7H23.801V63.12H16.766V48.7H3.25598V42.295H16.766V27.945H23.801V42.295H37.381V48.7ZM76.8314 62.525V69H48.8314V62.525H59.0864V33.02C59.0864 31.8533 59.1214 30.6517 59.1914 29.415L51.9114 35.505C51.4914 35.8317 51.0714 36.0417 50.6514 36.135C50.2548 36.205 49.8698 36.205 49.4964 36.135C49.1464 36.065 48.8314 35.9483 48.5514 35.785C48.2714 35.5983 48.0614 35.4 47.9214 35.19L45.1914 31.445L60.6264 18.32H67.7314V62.525H76.8314ZM95.4219 36.765C96.5419 36.5317 97.6152 36.3683 98.6419 36.275C99.6686 36.1583 100.66 36.1 101.617 36.1C104.277 36.1 106.622 36.4967 108.652 37.29C110.682 38.0833 112.385 39.18 113.762 40.58C115.139 41.98 116.177 43.625 116.877 45.515C117.577 47.3817 117.927 49.4 117.927 51.57C117.927 54.2533 117.449 56.7033 116.492 58.92C115.559 61.1367 114.252 63.0383 112.572 64.625C110.892 66.1883 108.897 67.4017 106.587 68.265C104.3 69.1283 101.804 69.56 99.0969 69.56C97.5102 69.56 96.0052 69.3967 94.5819 69.07C93.1586 68.7433 91.8169 68.3117 90.5569 67.775C89.3202 67.215 88.1652 66.585 87.0919 65.885C86.0419 65.1617 85.0969 64.4033 84.2569 63.61L86.9169 59.935C87.4769 59.1417 88.2119 58.745 89.1219 58.745C89.7052 58.745 90.3002 58.9317 90.9069 59.305C91.5136 59.6783 92.2019 60.0867 92.9719 60.53C93.7652 60.9733 94.6869 61.3817 95.7369 61.755C96.8102 62.1283 98.0936 62.315 99.5869 62.315C101.174 62.315 102.574 62.0583 103.787 61.545C105 61.0317 106.004 60.32 106.797 59.41C107.614 58.4767 108.22 57.38 108.617 56.12C109.037 54.8367 109.247 53.4483 109.247 51.955C109.247 49.2017 108.442 47.055 106.832 45.515C105.245 43.9517 102.889 43.17 99.7619 43.17C97.3586 43.17 94.8969 43.6133 92.3769 44.5L86.9869 42.96L91.1869 18.39H116.177V22.065C116.177 23.3017 115.792 24.305 115.022 25.075C114.252 25.845 112.945 26.23 111.102 26.23H97.2069L95.4219 36.765ZM160.667 43.695C160.667 48.105 160.189 51.9433 159.232 55.21C158.299 58.4533 156.992 61.1367 155.312 63.26C153.656 65.3833 151.684 66.97 149.397 68.02C147.134 69.0467 144.684 69.56 142.047 69.56C139.411 69.56 136.961 69.0467 134.697 68.02C132.457 66.97 130.509 65.3833 128.852 63.26C127.196 61.1367 125.901 58.4533 124.967 55.21C124.034 51.9433 123.567 48.105 123.567 43.695C123.567 39.2617 124.034 35.4233 124.967 32.18C125.901 28.9367 127.196 26.2533 128.852 24.13C130.509 22.0067 132.457 20.4317 134.697 19.405C136.961 18.355 139.411 17.83 142.047 17.83C144.684 17.83 147.134 18.355 149.397 19.405C151.684 20.4317 153.656 22.0067 155.312 24.13C156.992 26.2533 158.299 28.9367 159.232 32.18C160.189 35.4233 160.667 39.2617 160.667 43.695ZM151.742 43.695C151.742 40.0317 151.474 36.9983 150.937 34.595C150.401 32.1917 149.677 30.2783 148.767 28.855C147.881 27.4317 146.854 26.44 145.687 25.88C144.521 25.2967 143.307 25.005 142.047 25.005C140.811 25.005 139.609 25.2967 138.442 25.88C137.299 26.44 136.284 27.4317 135.397 28.855C134.511 30.2783 133.799 32.1917 133.262 34.595C132.749 36.9983 132.492 40.0317 132.492 43.695C132.492 47.3583 132.749 50.3917 133.262 52.795C133.799 55.1983 134.511 57.1117 135.397 58.535C136.284 59.9583 137.299 60.9617 138.442 61.545C139.609 62.105 140.811 62.385 142.047 62.385C143.307 62.385 144.521 62.105 145.687 61.545C146.854 60.9617 147.881 59.9583 148.767 58.535C149.677 57.1117 150.401 55.1983 150.937 52.795C151.474 50.3917 151.742 47.3583 151.742 43.695ZM222.938 18.39V69H214.643V36.31C214.643 35.0033 214.713 33.5917 214.853 32.075L199.558 60.81C198.835 62.1867 197.726 62.875 196.233 62.875H194.903C193.41 62.875 192.301 62.1867 191.578 60.81L176.108 31.97C176.178 32.74 176.236 33.4983 176.283 34.245C176.33 34.9917 176.353 35.68 176.353 36.31V69H168.058V18.39H175.163C175.583 18.39 175.945 18.4017 176.248 18.425C176.551 18.4483 176.82 18.5067 177.053 18.6C177.31 18.6933 177.531 18.845 177.718 19.055C177.928 19.265 178.126 19.545 178.313 19.895L193.468 48C193.865 48.7467 194.226 49.5167 194.553 50.31C194.903 51.1033 195.241 51.92 195.568 52.76C195.895 51.8967 196.233 51.0683 196.583 50.275C196.933 49.4583 197.306 48.6767 197.703 47.93L212.648 19.895C212.835 19.545 213.033 19.265 213.243 19.055C213.453 18.845 213.675 18.6933 213.908 18.6C214.165 18.5067 214.445 18.4483 214.748 18.425C215.051 18.4017 215.413 18.39 215.833 18.39H222.938Z" fill="white"/>
<path d="M250.25 26.54L248.49 21.73C248.403 21.5167 248.313 21.2633 248.22 20.97C248.127 20.6767 248.033 20.36 247.94 20.02C247.853 20.36 247.763 20.68 247.67 20.98C247.577 21.2733 247.487 21.53 247.4 21.75L245.65 26.54H250.25ZM255 32H252.92C252.687 32 252.497 31.9433 252.35 31.83C252.203 31.71 252.093 31.5633 252.02 31.39L250.94 28.44H244.95L243.87 31.39C243.817 31.5433 243.713 31.6833 243.56 31.81C243.407 31.9367 243.217 32 242.99 32H240.89L246.58 17.54H249.32L255 32ZM264.712 21.74V32H263.202C262.876 32 262.669 31.85 262.582 31.55L262.412 30.73C261.992 31.1567 261.529 31.5033 261.022 31.77C260.516 32.03 259.919 32.16 259.232 32.16C258.672 32.16 258.176 32.0667 257.742 31.88C257.316 31.6867 256.956 31.4167 256.662 31.07C256.369 30.7233 256.146 30.3133 255.992 29.84C255.846 29.36 255.772 28.8333 255.772 28.26V21.74H258.242V28.26C258.242 28.8867 258.386 29.3733 258.672 29.72C258.966 30.06 259.402 30.23 259.982 30.23C260.409 30.23 260.809 30.1367 261.182 29.95C261.556 29.7567 261.909 29.4933 262.242 29.16V21.74H264.712ZM267.161 32V21.74H268.671C268.991 21.74 269.201 21.89 269.301 22.19L269.461 22.95C269.641 22.75 269.828 22.5667 270.021 22.4C270.221 22.2333 270.431 22.09 270.651 21.97C270.878 21.85 271.118 21.7567 271.371 21.69C271.631 21.6167 271.915 21.58 272.221 21.58C272.868 21.58 273.398 21.7567 273.811 22.11C274.231 22.4567 274.545 22.92 274.751 23.5C274.911 23.16 275.111 22.87 275.351 22.63C275.591 22.3833 275.855 22.1833 276.141 22.03C276.428 21.8767 276.731 21.7633 277.051 21.69C277.378 21.6167 277.705 21.58 278.031 21.58C278.598 21.58 279.101 21.6667 279.541 21.84C279.981 22.0133 280.351 22.2667 280.651 22.6C280.951 22.9333 281.178 23.34 281.331 23.82C281.491 24.3 281.571 24.85 281.571 25.47V32H279.101V25.47C279.101 24.8167 278.958 24.3267 278.671 24C278.385 23.6667 277.965 23.5 277.411 23.5C277.158 23.5 276.921 23.5433 276.701 23.63C276.488 23.7167 276.298 23.8433 276.131 24.01C275.971 24.17 275.845 24.3733 275.751 24.62C275.658 24.8667 275.611 25.15 275.611 25.47V32H273.131V25.47C273.131 24.7833 272.991 24.2833 272.711 23.97C272.438 23.6567 272.035 23.5 271.501 23.5C271.141 23.5 270.805 23.59 270.491 23.77C270.185 23.9433 269.898 24.1833 269.631 24.49V32H267.161ZM290.529 25.69C290.529 25.37 290.483 25.07 290.389 24.79C290.303 24.5033 290.169 24.2533 289.989 24.04C289.809 23.8267 289.579 23.66 289.299 23.54C289.026 23.4133 288.706 23.35 288.339 23.35C287.626 23.35 287.063 23.5533 286.649 23.96C286.243 24.3667 285.983 24.9433 285.869 25.69H290.529ZM285.819 27.18C285.859 27.7067 285.953 28.1633 286.099 28.55C286.246 28.93 286.439 29.2467 286.679 29.5C286.919 29.7467 287.203 29.9333 287.529 30.06C287.863 30.18 288.229 30.24 288.629 30.24C289.029 30.24 289.373 30.1933 289.659 30.1C289.953 30.0067 290.206 29.9033 290.419 29.79C290.639 29.6767 290.829 29.5733 290.989 29.48C291.156 29.3867 291.316 29.34 291.469 29.34C291.676 29.34 291.829 29.4167 291.929 29.57L292.639 30.47C292.366 30.79 292.059 31.06 291.719 31.28C291.379 31.4933 291.023 31.6667 290.649 31.8C290.283 31.9267 289.906 32.0167 289.519 32.07C289.139 32.1233 288.769 32.15 288.409 32.15C287.696 32.15 287.033 32.0333 286.419 31.8C285.806 31.56 285.273 31.21 284.819 30.75C284.366 30.2833 284.009 29.71 283.749 29.03C283.489 28.3433 283.359 27.55 283.359 26.65C283.359 25.95 283.473 25.2933 283.699 24.68C283.926 24.06 284.249 23.5233 284.669 23.07C285.096 22.61 285.613 22.2467 286.219 21.98C286.833 21.7133 287.523 21.58 288.289 21.58C288.936 21.58 289.533 21.6833 290.079 21.89C290.626 22.0967 291.096 22.4 291.489 22.8C291.883 23.1933 292.189 23.68 292.409 24.26C292.636 24.8333 292.749 25.49 292.749 26.23C292.749 26.6033 292.709 26.8567 292.629 26.99C292.549 27.1167 292.396 27.18 292.169 27.18H285.819ZM296.913 23C297.119 22.7933 297.336 22.6033 297.563 22.43C297.796 22.25 298.039 22.1 298.293 21.98C298.553 21.8533 298.829 21.7567 299.123 21.69C299.416 21.6167 299.736 21.58 300.083 21.58C300.643 21.58 301.139 21.6767 301.573 21.87C302.006 22.0567 302.366 22.3233 302.653 22.67C302.946 23.01 303.166 23.42 303.313 23.9C303.466 24.3733 303.543 24.8967 303.543 25.47V32H301.073V25.47C301.073 24.8433 300.929 24.36 300.643 24.02C300.356 23.6733 299.919 23.5 299.333 23.5C298.906 23.5 298.506 23.5967 298.133 23.79C297.759 23.9833 297.406 24.2467 297.073 24.58V32H294.603V21.74H296.113C296.433 21.74 296.643 21.89 296.743 22.19L296.913 23ZM309.175 32.16C308.282 32.16 307.595 31.91 307.115 31.41C306.642 30.9033 306.405 30.2067 306.405 29.32V23.59H305.355C305.222 23.59 305.108 23.5467 305.015 23.46C304.922 23.3733 304.875 23.2433 304.875 23.07V22.09L306.525 21.82L307.045 19.02C307.078 18.8867 307.142 18.7833 307.235 18.71C307.328 18.6367 307.448 18.6 307.595 18.6H308.875V21.83H311.615V23.59H308.875V29.15C308.875 29.47 308.952 29.72 309.105 29.9C309.265 30.08 309.482 30.17 309.755 30.17C309.908 30.17 310.035 30.1533 310.135 30.12C310.242 30.08 310.332 30.04 310.405 30C310.485 29.96 310.555 29.9233 310.615 29.89C310.675 29.85 310.735 29.83 310.795 29.83C310.868 29.83 310.928 29.85 310.975 29.89C311.022 29.9233 311.072 29.9767 311.125 30.05L311.865 31.25C311.505 31.55 311.092 31.7767 310.625 31.93C310.158 32.0833 309.675 32.16 309.175 32.16ZM317.658 21.58C318.418 21.58 319.108 21.7033 319.728 21.95C320.355 22.1967 320.888 22.5467 321.328 23C321.775 23.4533 322.118 24.0067 322.358 24.66C322.598 25.3133 322.718 26.0433 322.718 26.85C322.718 27.6633 322.598 28.3967 322.358 29.05C322.118 29.7033 321.775 30.26 321.328 30.72C320.888 31.18 320.355 31.5333 319.728 31.78C319.108 32.0267 318.418 32.15 317.658 32.15C316.892 32.15 316.195 32.0267 315.568 31.78C314.942 31.5333 314.405 31.18 313.958 30.72C313.518 30.26 313.175 29.7033 312.928 29.05C312.688 28.3967 312.568 27.6633 312.568 26.85C312.568 26.0433 312.688 25.3133 312.928 24.66C313.175 24.0067 313.518 23.4533 313.958 23C314.405 22.5467 314.942 22.1967 315.568 21.95C316.195 21.7033 316.892 21.58 317.658 21.58ZM317.658 30.25C318.512 30.25 319.142 29.9633 319.548 29.39C319.962 28.8167 320.168 27.9767 320.168 26.87C320.168 25.7633 319.962 24.92 319.548 24.34C319.142 23.76 318.512 23.47 317.658 23.47C316.792 23.47 316.148 23.7633 315.728 24.35C315.315 24.93 315.108 25.77 315.108 26.87C315.108 27.97 315.315 28.81 315.728 29.39C316.148 29.9633 316.792 30.25 317.658 30.25ZM334.886 27.62C334.173 27.6533 333.573 27.7167 333.086 27.81C332.599 27.8967 332.209 28.01 331.916 28.15C331.623 28.29 331.413 28.4533 331.286 28.64C331.159 28.8267 331.096 29.03 331.096 29.25C331.096 29.6833 331.223 29.9933 331.476 30.18C331.736 30.3667 332.073 30.46 332.486 30.46C332.993 30.46 333.429 30.37 333.796 30.19C334.169 30.0033 334.533 29.7233 334.886 29.35V27.62ZM329.226 23.17C330.406 22.09 331.826 21.55 333.486 21.55C334.086 21.55 334.623 21.65 335.096 21.85C335.569 22.0433 335.969 22.3167 336.296 22.67C336.623 23.0167 336.869 23.4333 337.036 23.92C337.209 24.4067 337.296 24.94 337.296 25.52V32H336.176C335.943 32 335.763 31.9667 335.636 31.9C335.509 31.8267 335.409 31.6833 335.336 31.47L335.116 30.73C334.856 30.9633 334.603 31.17 334.356 31.35C334.109 31.5233 333.853 31.67 333.586 31.79C333.319 31.91 333.033 32 332.726 32.06C332.426 32.1267 332.093 32.16 331.726 32.16C331.293 32.16 330.893 32.1033 330.526 31.99C330.159 31.87 329.843 31.6933 329.576 31.46C329.309 31.2267 329.103 30.9367 328.956 30.59C328.809 30.2433 328.736 29.84 328.736 29.38C328.736 29.12 328.779 28.8633 328.866 28.61C328.953 28.35 329.093 28.1033 329.286 27.87C329.486 27.6367 329.743 27.4167 330.056 27.21C330.369 27.0033 330.753 26.8233 331.206 26.67C331.666 26.5167 332.199 26.3933 332.806 26.3C333.413 26.2 334.106 26.14 334.886 26.12V25.52C334.886 24.8333 334.739 24.3267 334.446 24C334.153 23.6667 333.729 23.5 333.176 23.5C332.776 23.5 332.443 23.5467 332.176 23.64C331.916 23.7333 331.686 23.84 331.486 23.96C331.286 24.0733 331.103 24.1767 330.936 24.27C330.776 24.3633 330.596 24.41 330.396 24.41C330.223 24.41 330.076 24.3667 329.956 24.28C329.836 24.1867 329.739 24.08 329.666 23.96L329.226 23.17ZM341.932 23C342.139 22.7933 342.356 22.6033 342.582 22.43C342.816 22.25 343.059 22.1 343.312 21.98C343.572 21.8533 343.849 21.7567 344.142 21.69C344.436 21.6167 344.756 21.58 345.102 21.58C345.662 21.58 346.159 21.6767 346.592 21.87C347.026 22.0567 347.386 22.3233 347.672 22.67C347.966 23.01 348.186 23.42 348.332 23.9C348.486 24.3733 348.562 24.8967 348.562 25.47V32H346.092V25.47C346.092 24.8433 345.949 24.36 345.662 24.02C345.376 23.6733 344.939 23.5 344.352 23.5C343.926 23.5 343.526 23.5967 343.152 23.79C342.779 23.9833 342.426 24.2467 342.092 24.58V32H339.622V21.74H341.132C341.452 21.74 341.662 21.89 341.762 22.19L341.932 23ZM359.751 21.74V32H358.241C357.915 32 357.708 31.85 357.621 31.55L357.451 30.73C357.031 31.1567 356.568 31.5033 356.061 31.77C355.555 32.03 354.958 32.16 354.271 32.16C353.711 32.16 353.215 32.0667 352.781 31.88C352.355 31.6867 351.995 31.4167 351.701 31.07C351.408 30.7233 351.185 30.3133 351.031 29.84C350.885 29.36 350.811 28.8333 350.811 28.26V21.74H353.281V28.26C353.281 28.8867 353.425 29.3733 353.711 29.72C354.005 30.06 354.441 30.23 355.021 30.23C355.448 30.23 355.848 30.1367 356.221 29.95C356.595 29.7567 356.948 29.4933 357.281 29.16V21.74H359.751ZM367.62 27.62C366.907 27.6533 366.307 27.7167 365.82 27.81C365.334 27.8967 364.944 28.01 364.65 28.15C364.357 28.29 364.147 28.4533 364.02 28.64C363.894 28.8267 363.83 29.03 363.83 29.25C363.83 29.6833 363.957 29.9933 364.21 30.18C364.47 30.3667 364.807 30.46 365.22 30.46C365.727 30.46 366.164 30.37 366.53 30.19C366.904 30.0033 367.267 29.7233 367.62 29.35V27.62ZM361.96 23.17C363.14 22.09 364.56 21.55 366.22 21.55C366.82 21.55 367.357 21.65 367.83 21.85C368.304 22.0433 368.704 22.3167 369.03 22.67C369.357 23.0167 369.604 23.4333 369.77 23.92C369.944 24.4067 370.03 24.94 370.03 25.52V32H368.91C368.677 32 368.497 31.9667 368.37 31.9C368.244 31.8267 368.144 31.6833 368.07 31.47L367.85 30.73C367.59 30.9633 367.337 31.17 367.09 31.35C366.844 31.5233 366.587 31.67 366.32 31.79C366.054 31.91 365.767 32 365.46 32.06C365.16 32.1267 364.827 32.16 364.46 32.16C364.027 32.16 363.627 32.1033 363.26 31.99C362.894 31.87 362.577 31.6933 362.31 31.46C362.044 31.2267 361.837 30.9367 361.69 30.59C361.544 30.2433 361.47 29.84 361.47 29.38C361.47 29.12 361.514 28.8633 361.6 28.61C361.687 28.35 361.827 28.1033 362.02 27.87C362.22 27.6367 362.477 27.4167 362.79 27.21C363.104 27.0033 363.487 26.8233 363.94 26.67C364.4 26.5167 364.934 26.3933 365.54 26.3C366.147 26.2 366.84 26.14 367.62 26.12V25.52C367.62 24.8333 367.474 24.3267 367.18 24C366.887 23.6667 366.464 23.5 365.91 23.5C365.51 23.5 365.177 23.5467 364.91 23.64C364.65 23.7333 364.42 23.84 364.22 23.96C364.02 24.0733 363.837 24.1767 363.67 24.27C363.51 24.3633 363.33 24.41 363.13 24.41C362.957 24.41 362.81 24.3667 362.69 24.28C362.57 24.1867 362.474 24.08 362.4 23.96L361.96 23.17ZM374.857 17.14V32H372.387V17.14H374.857ZM388.621 24.36C388.341 24.02 388.034 23.78 387.701 23.64C387.374 23.5 387.021 23.43 386.641 23.43C386.268 23.43 385.931 23.5 385.631 23.64C385.331 23.78 385.074 23.9933 384.861 24.28C384.648 24.56 384.484 24.92 384.371 25.36C384.258 25.7933 384.201 26.3067 384.201 26.9C384.201 27.5 384.248 28.01 384.341 28.43C384.441 28.8433 384.581 29.1833 384.761 29.45C384.941 29.71 385.161 29.9 385.421 30.02C385.681 30.1333 385.971 30.19 386.291 30.19C386.804 30.19 387.241 30.0833 387.601 29.87C387.961 29.6567 388.301 29.3533 388.621 28.96V24.36ZM391.091 17.14V32H389.581C389.254 32 389.048 31.85 388.961 31.55L388.751 30.56C388.338 31.0333 387.861 31.4167 387.321 31.71C386.788 32.0033 386.164 32.15 385.451 32.15C384.891 32.15 384.378 32.0333 383.911 31.8C383.444 31.5667 383.041 31.23 382.701 30.79C382.368 30.3433 382.108 29.7933 381.921 29.14C381.741 28.4867 381.651 27.74 381.651 26.9C381.651 26.14 381.754 25.4333 381.961 24.78C382.168 24.1267 382.464 23.56 382.851 23.08C383.238 22.6 383.701 22.2267 384.241 21.96C384.781 21.6867 385.388 21.55 386.061 21.55C386.634 21.55 387.124 21.64 387.531 21.82C387.938 22 388.301 22.2433 388.621 22.55V17.14H391.091ZM400.139 25.69C400.139 25.37 400.092 25.07 399.999 24.79C399.912 24.5033 399.779 24.2533 399.599 24.04C399.419 23.8267 399.189 23.66 398.909 23.54C398.635 23.4133 398.315 23.35 397.949 23.35C397.235 23.35 396.672 23.5533 396.259 23.96C395.852 24.3667 395.592 24.9433 395.479 25.69H400.139ZM395.429 27.18C395.469 27.7067 395.562 28.1633 395.709 28.55C395.855 28.93 396.049 29.2467 396.289 29.5C396.529 29.7467 396.812 29.9333 397.139 30.06C397.472 30.18 397.839 30.24 398.239 30.24C398.639 30.24 398.982 30.1933 399.269 30.1C399.562 30.0067 399.815 29.9033 400.029 29.79C400.249 29.6767 400.439 29.5733 400.599 29.48C400.765 29.3867 400.925 29.34 401.079 29.34C401.285 29.34 401.439 29.4167 401.539 29.57L402.249 30.47C401.975 30.79 401.669 31.06 401.329 31.28C400.989 31.4933 400.632 31.6667 400.259 31.8C399.892 31.9267 399.515 32.0167 399.129 32.07C398.749 32.1233 398.379 32.15 398.019 32.15C397.305 32.15 396.642 32.0333 396.029 31.8C395.415 31.56 394.882 31.21 394.429 30.75C393.975 30.2833 393.619 29.71 393.359 29.03C393.099 28.3433 392.969 27.55 392.969 26.65C392.969 25.95 393.082 25.2933 393.309 24.68C393.535 24.06 393.859 23.5233 394.279 23.07C394.705 22.61 395.222 22.2467 395.829 21.98C396.442 21.7133 397.132 21.58 397.899 21.58C398.545 21.58 399.142 21.6833 399.689 21.89C400.235 22.0967 400.705 22.4 401.099 22.8C401.492 23.1933 401.799 23.68 402.019 24.26C402.245 24.8333 402.359 25.49 402.359 26.23C402.359 26.6033 402.319 26.8567 402.239 26.99C402.159 27.1167 402.005 27.18 401.779 27.18H395.429ZM244.53 47C244.737 46.7933 244.953 46.6033 245.18 46.43C245.413 46.25 245.657 46.1 245.91 45.98C246.17 45.8533 246.447 45.7567 246.74 45.69C247.033 45.6167 247.353 45.58 247.7 45.58C248.26 45.58 248.757 45.6767 249.19 45.87C249.623 46.0567 249.983 46.3233 250.27 46.67C250.563 47.01 250.783 47.42 250.93 47.9C251.083 48.3733 251.16 48.8967 251.16 49.47V56H248.69V49.47C248.69 48.8433 248.547 48.36 248.26 48.02C247.973 47.6733 247.537 47.5 246.95 47.5C246.523 47.5 246.123 47.5967 245.75 47.79C245.377 47.9833 245.023 48.2467 244.69 48.58V56H242.22V45.74H243.73C244.05 45.74 244.26 45.89 244.36 46.19L244.53 47ZM262.349 45.74V56H260.839C260.512 56 260.306 55.85 260.219 55.55L260.049 54.73C259.629 55.1567 259.166 55.5033 258.659 55.77C258.152 56.03 257.556 56.16 256.869 56.16C256.309 56.16 255.812 56.0667 255.379 55.88C254.952 55.6867 254.592 55.4167 254.299 55.07C254.006 54.7233 253.782 54.3133 253.629 53.84C253.482 53.36 253.409 52.8333 253.409 52.26V45.74H255.879V52.26C255.879 52.8867 256.022 53.3733 256.309 53.72C256.602 54.06 257.039 54.23 257.619 54.23C258.046 54.23 258.446 54.1367 258.819 53.95C259.192 53.7567 259.546 53.4933 259.879 53.16V45.74H262.349ZM271.408 49.69C271.408 49.37 271.361 49.07 271.268 48.79C271.181 48.5033 271.048 48.2533 270.868 48.04C270.688 47.8267 270.458 47.66 270.178 47.54C269.905 47.4133 269.585 47.35 269.218 47.35C268.505 47.35 267.941 47.5533 267.528 47.96C267.121 48.3667 266.861 48.9433 266.748 49.69H271.408ZM266.698 51.18C266.738 51.7067 266.831 52.1633 266.978 52.55C267.125 52.93 267.318 53.2467 267.558 53.5C267.798 53.7467 268.081 53.9333 268.408 54.06C268.741 54.18 269.108 54.24 269.508 54.24C269.908 54.24 270.251 54.1933 270.538 54.1C270.831 54.0067 271.085 53.9033 271.298 53.79C271.518 53.6767 271.708 53.5733 271.868 53.48C272.035 53.3867 272.195 53.34 272.348 53.34C272.555 53.34 272.708 53.4167 272.808 53.57L273.518 54.47C273.245 54.79 272.938 55.06 272.598 55.28C272.258 55.4933 271.901 55.6667 271.528 55.8C271.161 55.9267 270.785 56.0167 270.398 56.07C270.018 56.1233 269.648 56.15 269.288 56.15C268.575 56.15 267.911 56.0333 267.298 55.8C266.685 55.56 266.151 55.21 265.698 54.75C265.245 54.2833 264.888 53.71 264.628 53.03C264.368 52.3433 264.238 51.55 264.238 50.65C264.238 49.95 264.351 49.2933 264.578 48.68C264.805 48.06 265.128 47.5233 265.548 47.07C265.975 46.61 266.491 46.2467 267.098 45.98C267.711 45.7133 268.401 45.58 269.168 45.58C269.815 45.58 270.411 45.6833 270.958 45.89C271.505 46.0967 271.975 46.4 272.368 46.8C272.761 47.1933 273.068 47.68 273.288 48.26C273.515 48.8333 273.628 49.49 273.628 50.23C273.628 50.6033 273.588 50.8567 273.508 50.99C273.428 51.1167 273.275 51.18 273.048 51.18H266.698ZM284.478 45.74L280.408 56H278.168L274.098 45.74H276.138C276.324 45.74 276.478 45.7833 276.598 45.87C276.724 45.9567 276.808 46.0667 276.848 46.2L278.828 51.68C278.934 52 279.028 52.3133 279.108 52.62C279.188 52.9267 279.258 53.2333 279.318 53.54C279.384 53.2333 279.458 52.9267 279.538 52.62C279.618 52.3133 279.714 52 279.828 51.68L281.848 46.2C281.894 46.0667 281.978 45.9567 282.098 45.87C282.218 45.7833 282.361 45.74 282.528 45.74H284.478ZM290.022 45.58C290.782 45.58 291.472 45.7033 292.092 45.95C292.718 46.1967 293.252 46.5467 293.692 47C294.138 47.4533 294.482 48.0067 294.722 48.66C294.962 49.3133 295.082 50.0433 295.082 50.85C295.082 51.6633 294.962 52.3967 294.722 53.05C294.482 53.7033 294.138 54.26 293.692 54.72C293.252 55.18 292.718 55.5333 292.092 55.78C291.472 56.0267 290.782 56.15 290.022 56.15C289.255 56.15 288.558 56.0267 287.932 55.78C287.305 55.5333 286.768 55.18 286.322 54.72C285.882 54.26 285.538 53.7033 285.292 53.05C285.052 52.3967 284.932 51.6633 284.932 50.85C284.932 50.0433 285.052 49.3133 285.292 48.66C285.538 48.0067 285.882 47.4533 286.322 47C286.768 46.5467 287.305 46.1967 287.932 45.95C288.558 45.7033 289.255 45.58 290.022 45.58ZM290.022 54.25C290.875 54.25 291.505 53.9633 291.912 53.39C292.325 52.8167 292.532 51.9767 292.532 50.87C292.532 49.7633 292.325 48.92 291.912 48.34C291.505 47.76 290.875 47.47 290.022 47.47C289.155 47.47 288.512 47.7633 288.092 48.35C287.678 48.93 287.472 49.77 287.472 50.87C287.472 51.97 287.678 52.81 288.092 53.39C288.512 53.9633 289.155 54.25 290.022 54.25ZM303.226 47.74C303.159 47.8467 303.089 47.9233 303.016 47.97C302.943 48.01 302.849 48.03 302.736 48.03C302.616 48.03 302.486 47.9967 302.346 47.93C302.213 47.8633 302.056 47.79 301.876 47.71C301.696 47.6233 301.489 47.5467 301.256 47.48C301.029 47.4133 300.759 47.38 300.446 47.38C299.959 47.38 299.576 47.4833 299.296 47.69C299.023 47.8967 298.886 48.1667 298.886 48.5C298.886 48.72 298.956 48.9067 299.096 49.06C299.243 49.2067 299.433 49.3367 299.666 49.45C299.906 49.5633 300.176 49.6667 300.476 49.76C300.776 49.8467 301.079 49.9433 301.386 50.05C301.699 50.1567 302.006 50.28 302.306 50.42C302.606 50.5533 302.873 50.7267 303.106 50.94C303.346 51.1467 303.536 51.3967 303.676 51.69C303.823 51.9833 303.896 52.3367 303.896 52.75C303.896 53.2433 303.806 53.7 303.626 54.12C303.453 54.5333 303.193 54.8933 302.846 55.2C302.499 55.5 302.069 55.7367 301.556 55.91C301.049 56.0767 300.463 56.16 299.796 56.16C299.443 56.16 299.096 56.1267 298.756 56.06C298.423 56 298.099 55.9133 297.786 55.8C297.479 55.6867 297.193 55.5533 296.926 55.4C296.666 55.2467 296.436 55.08 296.236 54.9L296.806 53.96C296.879 53.8467 296.966 53.76 297.066 53.7C297.166 53.64 297.293 53.61 297.446 53.61C297.599 53.61 297.743 53.6533 297.876 53.74C298.016 53.8267 298.176 53.92 298.356 54.02C298.536 54.12 298.746 54.2133 298.986 54.3C299.233 54.3867 299.543 54.43 299.916 54.43C300.209 54.43 300.459 54.3967 300.666 54.33C300.879 54.2567 301.053 54.1633 301.186 54.05C301.326 53.9367 301.426 53.8067 301.486 53.66C301.553 53.5067 301.586 53.35 301.586 53.19C301.586 52.95 301.513 52.7533 301.366 52.6C301.226 52.4467 301.036 52.3133 300.796 52.2C300.563 52.0867 300.293 51.9867 299.986 51.9C299.686 51.8067 299.376 51.7067 299.056 51.6C298.743 51.4933 298.433 51.37 298.126 51.23C297.826 51.0833 297.556 50.9 297.316 50.68C297.083 50.46 296.893 50.19 296.746 49.87C296.606 49.55 296.536 49.1633 296.536 48.71C296.536 48.29 296.619 47.89 296.786 47.51C296.953 47.13 297.196 46.8 297.516 46.52C297.843 46.2333 298.246 46.0067 298.726 45.84C299.213 45.6667 299.773 45.58 300.406 45.58C301.113 45.58 301.756 45.6967 302.336 45.93C302.916 46.1633 303.399 46.47 303.786 46.85L303.226 47.74ZM319.458 45.74V56H317.948C317.622 56 317.415 55.85 317.328 55.55L317.158 54.73C316.738 55.1567 316.275 55.5033 315.768 55.77C315.262 56.03 314.665 56.16 313.978 56.16C313.418 56.16 312.922 56.0667 312.488 55.88C312.062 55.6867 311.702 55.4167 311.408 55.07C311.115 54.7233 310.892 54.3133 310.738 53.84C310.592 53.36 310.518 52.8333 310.518 52.26V45.74H312.988V52.26C312.988 52.8867 313.132 53.3733 313.418 53.72C313.712 54.06 314.148 54.23 314.728 54.23C315.155 54.23 315.555 54.1367 315.928 53.95C316.302 53.7567 316.655 53.4933 316.988 53.16V45.74H319.458ZM328.168 47.74C328.101 47.8467 328.031 47.9233 327.958 47.97C327.884 48.01 327.791 48.03 327.678 48.03C327.558 48.03 327.428 47.9967 327.288 47.93C327.154 47.8633 326.998 47.79 326.818 47.71C326.638 47.6233 326.431 47.5467 326.197 47.48C325.971 47.4133 325.701 47.38 325.388 47.38C324.901 47.38 324.518 47.4833 324.238 47.69C323.964 47.8967 323.828 48.1667 323.828 48.5C323.828 48.72 323.898 48.9067 324.038 49.06C324.184 49.2067 324.374 49.3367 324.608 49.45C324.848 49.5633 325.118 49.6667 325.418 49.76C325.718 49.8467 326.021 49.9433 326.328 50.05C326.641 50.1567 326.948 50.28 327.248 50.42C327.548 50.5533 327.814 50.7267 328.048 50.94C328.288 51.1467 328.478 51.3967 328.618 51.69C328.764 51.9833 328.838 52.3367 328.838 52.75C328.838 53.2433 328.748 53.7 328.568 54.12C328.394 54.5333 328.134 54.8933 327.788 55.2C327.441 55.5 327.011 55.7367 326.498 55.91C325.991 56.0767 325.404 56.16 324.738 56.16C324.384 56.16 324.038 56.1267 323.698 56.06C323.364 56 323.041 55.9133 322.728 55.8C322.421 55.6867 322.134 55.5533 321.868 55.4C321.608 55.2467 321.378 55.08 321.178 54.9L321.748 53.96C321.821 53.8467 321.908 53.76 322.007 53.7C322.107 53.64 322.234 53.61 322.388 53.61C322.541 53.61 322.684 53.6533 322.818 53.74C322.958 53.8267 323.118 53.92 323.298 54.02C323.478 54.12 323.688 54.2133 323.928 54.3C324.174 54.3867 324.484 54.43 324.858 54.43C325.151 54.43 325.401 54.3967 325.608 54.33C325.821 54.2567 325.994 54.1633 326.128 54.05C326.268 53.9367 326.367 53.8067 326.428 53.66C326.494 53.5067 326.528 53.35 326.528 53.19C326.528 52.95 326.454 52.7533 326.308 52.6C326.168 52.4467 325.978 52.3133 325.737 52.2C325.504 52.0867 325.234 51.9867 324.928 51.9C324.628 51.8067 324.318 51.7067 323.998 51.6C323.684 51.4933 323.374 51.37 323.068 51.23C322.768 51.0833 322.498 50.9 322.258 50.68C322.024 50.46 321.834 50.19 321.688 49.87C321.548 49.55 321.478 49.1633 321.478 48.71C321.478 48.29 321.561 47.89 321.728 47.51C321.894 47.13 322.138 46.8 322.458 46.52C322.784 46.2333 323.188 46.0067 323.668 45.84C324.154 45.6667 324.714 45.58 325.348 45.58C326.054 45.58 326.698 45.6967 327.278 45.93C327.858 46.1633 328.341 46.47 328.728 46.85L328.168 47.74ZM339.537 45.74V56H338.027C337.7 56 337.493 55.85 337.407 55.55L337.237 54.73C336.817 55.1567 336.353 55.5033 335.847 55.77C335.34 56.03 334.743 56.16 334.057 56.16C333.497 56.16 333 56.0667 332.567 55.88C332.14 55.6867 331.78 55.4167 331.487 55.07C331.193 54.7233 330.97 54.3133 330.817 53.84C330.67 53.36 330.597 52.8333 330.597 52.26V45.74H333.067V52.26C333.067 52.8867 333.21 53.3733 333.497 53.72C333.79 54.06 334.227 54.23 334.807 54.23C335.233 54.23 335.633 54.1367 336.007 53.95C336.38 53.7567 336.733 53.4933 337.067 53.16V45.74H339.537ZM347.406 51.62C346.692 51.6533 346.092 51.7167 345.606 51.81C345.119 51.8967 344.729 52.01 344.436 52.15C344.142 52.29 343.932 52.4533 343.806 52.64C343.679 52.8267 343.616 53.03 343.616 53.25C343.616 53.6833 343.742 53.9933 343.996 54.18C344.256 54.3667 344.592 54.46 345.006 54.46C345.512 54.46 345.949 54.37 346.316 54.19C346.689 54.0033 347.052 53.7233 347.406 53.35V51.62ZM341.746 47.17C342.926 46.09 344.346 45.55 346.006 45.55C346.606 45.55 347.142 45.65 347.616 45.85C348.089 46.0433 348.489 46.3167 348.816 46.67C349.142 47.0167 349.389 47.4333 349.556 47.92C349.729 48.4067 349.816 48.94 349.816 49.52V56H348.696C348.462 56 348.282 55.9667 348.156 55.9C348.029 55.8267 347.929 55.6833 347.856 55.47L347.636 54.73C347.376 54.9633 347.122 55.17 346.876 55.35C346.629 55.5233 346.372 55.67 346.106 55.79C345.839 55.91 345.552 56 345.246 56.06C344.946 56.1267 344.612 56.16 344.246 56.16C343.812 56.16 343.412 56.1033 343.046 55.99C342.679 55.87 342.362 55.6933 342.096 55.46C341.829 55.2267 341.622 54.9367 341.476 54.59C341.329 54.2433 341.256 53.84 341.256 53.38C341.256 53.12 341.299 52.8633 341.386 52.61C341.472 52.35 341.612 52.1033 341.806 51.87C342.006 51.6367 342.262 51.4167 342.576 51.21C342.889 51.0033 343.272 50.8233 343.726 50.67C344.186 50.5167 344.719 50.3933 345.326 50.3C345.932 50.2 346.626 50.14 347.406 50.12V49.52C347.406 48.8333 347.259 48.3267 346.966 48C346.672 47.6667 346.249 47.5 345.696 47.5C345.296 47.5 344.962 47.5467 344.696 47.64C344.436 47.7333 344.206 47.84 344.006 47.96C343.806 48.0733 343.622 48.1767 343.456 48.27C343.296 48.3633 343.116 48.41 342.916 48.41C342.742 48.41 342.596 48.3667 342.476 48.28C342.356 48.1867 342.259 48.08 342.186 47.96L341.746 47.17ZM354.472 47.52C354.792 46.9067 355.172 46.4267 355.612 46.08C356.052 45.7267 356.572 45.55 357.172 45.55C357.645 45.55 358.025 45.6533 358.312 45.86L358.152 47.71C358.119 47.83 358.069 47.9167 358.002 47.97C357.942 48.0167 357.859 48.04 357.752 48.04C357.652 48.04 357.502 48.0233 357.302 47.99C357.109 47.9567 356.919 47.94 356.732 47.94C356.459 47.94 356.215 47.98 356.002 48.06C355.789 48.14 355.595 48.2567 355.422 48.41C355.255 48.5567 355.105 48.7367 354.972 48.95C354.845 49.1633 354.725 49.4067 354.612 49.68V56H352.142V45.74H353.592C353.845 45.74 354.022 45.7867 354.122 45.88C354.222 45.9667 354.289 46.1267 354.322 46.36L354.472 47.52ZM362.163 45.74V56H359.683V45.74H362.163ZM362.503 42.75C362.503 42.9633 362.459 43.1633 362.373 43.35C362.286 43.5367 362.169 43.7 362.023 43.84C361.883 43.98 361.716 44.0933 361.523 44.18C361.329 44.26 361.123 44.3 360.903 44.3C360.689 44.3 360.486 44.26 360.293 44.18C360.106 44.0933 359.943 43.98 359.803 43.84C359.663 43.7 359.549 43.5367 359.463 43.35C359.383 43.1633 359.343 42.9633 359.343 42.75C359.343 42.53 359.383 42.3233 359.463 42.13C359.549 41.9367 359.663 41.77 359.803 41.63C359.943 41.49 360.106 41.38 360.293 41.3C360.486 41.2133 360.689 41.17 360.903 41.17C361.123 41.17 361.329 41.2133 361.523 41.3C361.716 41.38 361.883 41.49 362.023 41.63C362.169 41.77 362.286 41.9367 362.373 42.13C362.459 42.3233 362.503 42.53 362.503 42.75ZM369.221 45.58C369.981 45.58 370.671 45.7033 371.291 45.95C371.918 46.1967 372.451 46.5467 372.891 47C373.338 47.4533 373.681 48.0067 373.921 48.66C374.161 49.3133 374.281 50.0433 374.281 50.85C374.281 51.6633 374.161 52.3967 373.921 53.05C373.681 53.7033 373.338 54.26 372.891 54.72C372.451 55.18 371.918 55.5333 371.291 55.78C370.671 56.0267 369.981 56.15 369.221 56.15C368.454 56.15 367.758 56.0267 367.131 55.78C366.504 55.5333 365.968 55.18 365.521 54.72C365.081 54.26 364.738 53.7033 364.491 53.05C364.251 52.3967 364.131 51.6633 364.131 50.85C364.131 50.0433 364.251 49.3133 364.491 48.66C364.738 48.0067 365.081 47.4533 365.521 47C365.968 46.5467 366.504 46.1967 367.131 45.95C367.758 45.7033 368.454 45.58 369.221 45.58ZM369.221 54.25C370.074 54.25 370.704 53.9633 371.111 53.39C371.524 52.8167 371.731 51.9767 371.731 50.87C371.731 49.7633 371.524 48.92 371.111 48.34C370.704 47.76 370.074 47.47 369.221 47.47C368.354 47.47 367.711 47.7633 367.291 48.35C366.878 48.93 366.671 49.77 366.671 50.87C366.671 51.97 366.878 52.81 367.291 53.39C367.711 53.9633 368.354 54.25 369.221 54.25ZM382.425 47.74C382.359 47.8467 382.289 47.9233 382.215 47.97C382.142 48.01 382.049 48.03 381.935 48.03C381.815 48.03 381.685 47.9967 381.545 47.93C381.412 47.8633 381.255 47.79 381.075 47.71C380.895 47.6233 380.689 47.5467 380.455 47.48C380.229 47.4133 379.959 47.38 379.645 47.38C379.159 47.38 378.775 47.4833 378.495 47.69C378.222 47.8967 378.085 48.1667 378.085 48.5C378.085 48.72 378.155 48.9067 378.295 49.06C378.442 49.2067 378.632 49.3367 378.865 49.45C379.105 49.5633 379.375 49.6667 379.675 49.76C379.975 49.8467 380.279 49.9433 380.585 50.05C380.899 50.1567 381.205 50.28 381.505 50.42C381.805 50.5533 382.072 50.7267 382.305 50.94C382.545 51.1467 382.735 51.3967 382.875 51.69C383.022 51.9833 383.095 52.3367 383.095 52.75C383.095 53.2433 383.005 53.7 382.825 54.12C382.652 54.5333 382.392 54.8933 382.045 55.2C381.699 55.5 381.269 55.7367 380.755 55.91C380.249 56.0767 379.662 56.16 378.995 56.16C378.642 56.16 378.295 56.1267 377.955 56.06C377.622 56 377.299 55.9133 376.985 55.8C376.679 55.6867 376.392 55.5533 376.125 55.4C375.865 55.2467 375.635 55.08 375.435 54.9L376.005 53.96C376.079 53.8467 376.165 53.76 376.265 53.7C376.365 53.64 376.492 53.61 376.645 53.61C376.799 53.61 376.942 53.6533 377.075 53.74C377.215 53.8267 377.375 53.92 377.555 54.02C377.735 54.12 377.945 54.2133 378.185 54.3C378.432 54.3867 378.742 54.43 379.115 54.43C379.409 54.43 379.659 54.3967 379.865 54.33C380.079 54.2567 380.252 54.1633 380.385 54.05C380.525 53.9367 380.625 53.8067 380.685 53.66C380.752 53.5067 380.785 53.35 380.785 53.19C380.785 52.95 380.712 52.7533 380.565 52.6C380.425 52.4467 380.235 52.3133 379.995 52.2C379.762 52.0867 379.492 51.9867 379.185 51.9C378.885 51.8067 378.575 51.7067 378.255 51.6C377.942 51.4933 377.632 51.37 377.325 51.23C377.025 51.0833 376.755 50.9 376.515 50.68C376.282 50.46 376.092 50.19 375.945 49.87C375.805 49.55 375.735 49.1633 375.735 48.71C375.735 48.29 375.819 47.89 375.985 47.51C376.152 47.13 376.395 46.8 376.715 46.52C377.042 46.2333 377.445 46.0067 377.925 45.84C378.412 45.6667 378.972 45.58 379.605 45.58C380.312 45.58 380.955 45.6967 381.535 45.93C382.115 46.1633 382.599 46.47 382.985 46.85L382.425 47.74ZM396.428 49.69C396.428 49.37 396.381 49.07 396.288 48.79C396.201 48.5033 396.068 48.2533 395.888 48.04C395.708 47.8267 395.478 47.66 395.198 47.54C394.924 47.4133 394.604 47.35 394.238 47.35C393.524 47.35 392.961 47.5533 392.548 47.96C392.141 48.3667 391.881 48.9433 391.768 49.69H396.428ZM391.718 51.18C391.758 51.7067 391.851 52.1633 391.998 52.55C392.144 52.93 392.338 53.2467 392.578 53.5C392.818 53.7467 393.101 53.9333 393.428 54.06C393.761 54.18 394.128 54.24 394.528 54.24C394.928 54.24 395.271 54.1933 395.558 54.1C395.851 54.0067 396.104 53.9033 396.318 53.79C396.538 53.6767 396.728 53.5733 396.888 53.48C397.054 53.3867 397.214 53.34 397.368 53.34C397.574 53.34 397.728 53.4167 397.828 53.57L398.538 54.47C398.264 54.79 397.958 55.06 397.618 55.28C397.278 55.4933 396.921 55.6667 396.548 55.8C396.181 55.9267 395.804 56.0167 395.418 56.07C395.038 56.1233 394.668 56.15 394.308 56.15C393.594 56.15 392.931 56.0333 392.318 55.8C391.704 55.56 391.171 55.21 390.718 54.75C390.264 54.2833 389.908 53.71 389.648 53.03C389.388 52.3433 389.258 51.55 389.258 50.65C389.258 49.95 389.371 49.2933 389.598 48.68C389.824 48.06 390.148 47.5233 390.568 47.07C390.994 46.61 391.511 46.2467 392.118 45.98C392.731 45.7133 393.421 45.58 394.188 45.58C394.834 45.58 395.431 45.6833 395.978 45.89C396.524 46.0967 396.994 46.4 397.388 46.8C397.781 47.1933 398.088 47.68 398.308 48.26C398.534 48.8333 398.648 49.49 398.648 50.23C398.648 50.6033 398.608 50.8567 398.528 50.99C398.448 51.1167 398.294 51.18 398.068 51.18H391.718ZM402.811 47C403.018 46.7933 403.235 46.6033 403.461 46.43C403.695 46.25 403.938 46.1 404.191 45.98C404.451 45.8533 404.728 45.7567 405.021 45.69C405.315 45.6167 405.635 45.58 405.981 45.58C406.541 45.58 407.038 45.6767 407.471 45.87C407.905 46.0567 408.265 46.3233 408.551 46.67C408.845 47.01 409.065 47.42 409.211 47.9C409.365 48.3733 409.441 48.8967 409.441 49.47V56H406.971V49.47C406.971 48.8433 406.828 48.36 406.541 48.02C406.255 47.6733 405.818 47.5 405.231 47.5C404.805 47.5 404.405 47.5967 404.031 47.79C403.658 47.9833 403.305 48.2467 402.971 48.58V56H400.501V45.74H402.011C402.331 45.74 402.541 45.89 402.641 46.19L402.811 47ZM244.55 71.52C244.87 70.9067 245.25 70.4267 245.69 70.08C246.13 69.7267 246.65 69.55 247.25 69.55C247.723 69.55 248.103 69.6533 248.39 69.86L248.23 71.71C248.197 71.83 248.147 71.9167 248.08 71.97C248.02 72.0167 247.937 72.04 247.83 72.04C247.73 72.04 247.58 72.0233 247.38 71.99C247.187 71.9567 246.997 71.94 246.81 71.94C246.537 71.94 246.293 71.98 246.08 72.06C245.867 72.14 245.673 72.2567 245.5 72.41C245.333 72.5567 245.183 72.7367 245.05 72.95C244.923 73.1633 244.803 73.4067 244.69 73.68V80H242.22V69.74H243.67C243.923 69.74 244.1 69.7867 244.2 69.88C244.3 69.9667 244.367 70.1267 244.4 70.36L244.55 71.52ZM255.998 73.69C255.998 73.37 255.951 73.07 255.858 72.79C255.771 72.5033 255.638 72.2533 255.458 72.04C255.278 71.8267 255.048 71.66 254.768 71.54C254.495 71.4133 254.175 71.35 253.808 71.35C253.095 71.35 252.531 71.5533 252.118 71.96C251.711 72.3667 251.451 72.9433 251.338 73.69H255.998ZM251.288 75.18C251.328 75.7067 251.421 76.1633 251.568 76.55C251.715 76.93 251.908 77.2467 252.148 77.5C252.388 77.7467 252.671 77.9333 252.998 78.06C253.331 78.18 253.698 78.24 254.098 78.24C254.498 78.24 254.841 78.1933 255.128 78.1C255.421 78.0067 255.675 77.9033 255.888 77.79C256.108 77.6767 256.298 77.5733 256.458 77.48C256.625 77.3867 256.785 77.34 256.938 77.34C257.145 77.34 257.298 77.4167 257.398 77.57L258.108 78.47C257.835 78.79 257.528 79.06 257.188 79.28C256.848 79.4933 256.491 79.6667 256.118 79.8C255.751 79.9267 255.375 80.0167 254.988 80.07C254.608 80.1233 254.238 80.15 253.878 80.15C253.165 80.15 252.501 80.0333 251.888 79.8C251.275 79.56 250.741 79.21 250.288 78.75C249.835 78.2833 249.478 77.71 249.218 77.03C248.958 76.3433 248.828 75.55 248.828 74.65C248.828 73.95 248.941 73.2933 249.168 72.68C249.395 72.06 249.718 71.5233 250.138 71.07C250.565 70.61 251.081 70.2467 251.688 69.98C252.301 69.7133 252.991 69.58 253.758 69.58C254.405 69.58 255.001 69.6833 255.548 69.89C256.095 70.0967 256.565 70.4 256.958 70.8C257.351 71.1933 257.658 71.68 257.878 72.26C258.105 72.8333 258.218 73.49 258.218 74.23C258.218 74.6033 258.178 74.8567 258.098 74.99C258.018 75.1167 257.865 75.18 257.638 75.18H251.288ZM266.512 72.36C266.232 72.02 265.925 71.78 265.592 71.64C265.265 71.5 264.912 71.43 264.532 71.43C264.158 71.43 263.822 71.5 263.522 71.64C263.222 71.78 262.965 71.9933 262.752 72.28C262.538 72.56 262.375 72.92 262.262 73.36C262.148 73.7933 262.092 74.3067 262.092 74.9C262.092 75.5 262.138 76.01 262.232 76.43C262.332 76.8433 262.472 77.1833 262.652 77.45C262.832 77.71 263.052 77.9 263.312 78.02C263.572 78.1333 263.862 78.19 264.182 78.19C264.695 78.19 265.132 78.0833 265.492 77.87C265.852 77.6567 266.192 77.3533 266.512 76.96V72.36ZM268.982 65.14V80H267.472C267.145 80 266.938 79.85 266.852 79.55L266.642 78.56C266.228 79.0333 265.752 79.4167 265.212 79.71C264.678 80.0033 264.055 80.15 263.342 80.15C262.782 80.15 262.268 80.0333 261.802 79.8C261.335 79.5667 260.932 79.23 260.592 78.79C260.258 78.3433 259.998 77.7933 259.812 77.14C259.632 76.4867 259.542 75.74 259.542 74.9C259.542 74.14 259.645 73.4333 259.852 72.78C260.058 72.1267 260.355 71.56 260.742 71.08C261.128 70.6 261.592 70.2267 262.132 69.96C262.672 69.6867 263.278 69.55 263.952 69.55C264.525 69.55 265.015 69.64 265.422 69.82C265.828 70 266.192 70.2433 266.512 70.55V65.14H268.982ZM278.029 73.69C278.029 73.37 277.983 73.07 277.889 72.79C277.803 72.5033 277.669 72.2533 277.489 72.04C277.309 71.8267 277.079 71.66 276.799 71.54C276.526 71.4133 276.206 71.35 275.839 71.35C275.126 71.35 274.563 71.5533 274.149 71.96C273.743 72.3667 273.483 72.9433 273.369 73.69H278.029ZM273.319 75.18C273.359 75.7067 273.453 76.1633 273.599 76.55C273.746 76.93 273.939 77.2467 274.179 77.5C274.419 77.7467 274.703 77.9333 275.029 78.06C275.363 78.18 275.729 78.24 276.129 78.24C276.529 78.24 276.873 78.1933 277.159 78.1C277.453 78.0067 277.706 77.9033 277.919 77.79C278.139 77.6767 278.329 77.5733 278.489 77.48C278.656 77.3867 278.816 77.34 278.969 77.34C279.176 77.34 279.329 77.4167 279.429 77.57L280.139 78.47C279.866 78.79 279.559 79.06 279.219 79.28C278.879 79.4933 278.523 79.6667 278.149 79.8C277.783 79.9267 277.406 80.0167 277.019 80.07C276.639 80.1233 276.269 80.15 275.909 80.15C275.196 80.15 274.533 80.0333 273.919 79.8C273.306 79.56 272.773 79.21 272.319 78.75C271.866 78.2833 271.509 77.71 271.249 77.03C270.989 76.3433 270.859 75.55 270.859 74.65C270.859 73.95 270.973 73.2933 271.199 72.68C271.426 72.06 271.749 71.5233 272.169 71.07C272.596 70.61 273.113 70.2467 273.719 69.98C274.333 69.7133 275.023 69.58 275.789 69.58C276.436 69.58 277.033 69.6833 277.579 69.89C278.126 70.0967 278.596 70.4 278.989 70.8C279.383 71.1933 279.689 71.68 279.909 72.26C280.136 72.8333 280.249 73.49 280.249 74.23C280.249 74.6033 280.209 74.8567 280.129 74.99C280.049 75.1167 279.896 75.18 279.669 75.18H273.319ZM288.363 71.74C288.296 71.8467 288.226 71.9233 288.153 71.97C288.079 72.01 287.986 72.03 287.873 72.03C287.753 72.03 287.623 71.9967 287.483 71.93C287.349 71.8633 287.193 71.79 287.013 71.71C286.833 71.6233 286.626 71.5467 286.393 71.48C286.166 71.4133 285.896 71.38 285.583 71.38C285.096 71.38 284.713 71.4833 284.433 71.69C284.159 71.8967 284.023 72.1667 284.023 72.5C284.023 72.72 284.093 72.9067 284.233 73.06C284.379 73.2067 284.569 73.3367 284.803 73.45C285.043 73.5633 285.313 73.6667 285.613 73.76C285.913 73.8467 286.216 73.9433 286.523 74.05C286.836 74.1567 287.143 74.28 287.443 74.42C287.743 74.5533 288.009 74.7267 288.243 74.94C288.483 75.1467 288.673 75.3967 288.813 75.69C288.959 75.9833 289.033 76.3367 289.033 76.75C289.033 77.2433 288.943 77.7 288.763 78.12C288.589 78.5333 288.329 78.8933 287.983 79.2C287.636 79.5 287.206 79.7367 286.693 79.91C286.186 80.0767 285.599 80.16 284.933 80.16C284.579 80.16 284.233 80.1267 283.893 80.06C283.559 80 283.236 79.9133 282.923 79.8C282.616 79.6867 282.329 79.5533 282.063 79.4C281.803 79.2467 281.573 79.08 281.373 78.9L281.943 77.96C282.016 77.8467 282.103 77.76 282.203 77.7C282.303 77.64 282.429 77.61 282.583 77.61C282.736 77.61 282.879 77.6533 283.013 77.74C283.153 77.8267 283.313 77.92 283.493 78.02C283.673 78.12 283.883 78.2133 284.123 78.3C284.369 78.3867 284.679 78.43 285.053 78.43C285.346 78.43 285.596 78.3967 285.803 78.33C286.016 78.2567 286.189 78.1633 286.323 78.05C286.463 77.9367 286.563 77.8067 286.623 77.66C286.689 77.5067 286.723 77.35 286.723 77.19C286.723 76.95 286.649 76.7533 286.503 76.6C286.363 76.4467 286.173 76.3133 285.933 76.2C285.699 76.0867 285.429 75.9867 285.123 75.9C284.823 75.8067 284.513 75.7067 284.193 75.6C283.879 75.4933 283.569 75.37 283.263 75.23C282.963 75.0833 282.693 74.9 282.453 74.68C282.219 74.46 282.029 74.19 281.883 73.87C281.743 73.55 281.673 73.1633 281.673 72.71C281.673 72.29 281.756 71.89 281.923 71.51C282.089 71.13 282.333 70.8 282.653 70.52C282.979 70.2333 283.383 70.0067 283.863 69.84C284.349 69.6667 284.909 69.58 285.543 69.58C286.249 69.58 286.893 69.6967 287.473 69.93C288.053 70.1633 288.536 70.47 288.923 70.85L288.363 71.74ZM302.015 71.74C301.948 71.8467 301.878 71.9233 301.805 71.97C301.732 72.01 301.638 72.03 301.525 72.03C301.405 72.03 301.275 71.9967 301.135 71.93C301.002 71.8633 300.845 71.79 300.665 71.71C300.485 71.6233 300.278 71.5467 300.045 71.48C299.818 71.4133 299.548 71.38 299.235 71.38C298.748 71.38 298.365 71.4833 298.085 71.69C297.812 71.8967 297.675 72.1667 297.675 72.5C297.675 72.72 297.745 72.9067 297.885 73.06C298.032 73.2067 298.222 73.3367 298.455 73.45C298.695 73.5633 298.965 73.6667 299.265 73.76C299.565 73.8467 299.868 73.9433 300.175 74.05C300.488 74.1567 300.795 74.28 301.095 74.42C301.395 74.5533 301.662 74.7267 301.895 74.94C302.135 75.1467 302.325 75.3967 302.465 75.69C302.612 75.9833 302.685 76.3367 302.685 76.75C302.685 77.2433 302.595 77.7 302.415 78.12C302.242 78.5333 301.982 78.8933 301.635 79.2C301.288 79.5 300.858 79.7367 300.345 79.91C299.838 80.0767 299.252 80.16 298.585 80.16C298.232 80.16 297.885 80.1267 297.545 80.06C297.212 80 296.888 79.9133 296.575 79.8C296.268 79.6867 295.982 79.5533 295.715 79.4C295.455 79.2467 295.225 79.08 295.025 78.9L295.595 77.96C295.668 77.8467 295.755 77.76 295.855 77.7C295.955 77.64 296.082 77.61 296.235 77.61C296.388 77.61 296.532 77.6533 296.665 77.74C296.805 77.8267 296.965 77.92 297.145 78.02C297.325 78.12 297.535 78.2133 297.775 78.3C298.022 78.3867 298.332 78.43 298.705 78.43C298.998 78.43 299.248 78.3967 299.455 78.33C299.668 78.2567 299.842 78.1633 299.975 78.05C300.115 77.9367 300.215 77.8067 300.275 77.66C300.342 77.5067 300.375 77.35 300.375 77.19C300.375 76.95 300.302 76.7533 300.155 76.6C300.015 76.4467 299.825 76.3133 299.585 76.2C299.352 76.0867 299.082 75.9867 298.775 75.9C298.475 75.8067 298.165 75.7067 297.845 75.6C297.532 75.4933 297.222 75.37 296.915 75.23C296.615 75.0833 296.345 74.9 296.105 74.68C295.872 74.46 295.682 74.19 295.535 73.87C295.395 73.55 295.325 73.1633 295.325 72.71C295.325 72.29 295.408 71.89 295.575 71.51C295.742 71.13 295.985 70.8 296.305 70.52C296.632 70.2333 297.035 70.0067 297.515 69.84C298.002 69.6667 298.562 69.58 299.195 69.58C299.902 69.58 300.545 69.6967 301.125 69.93C301.705 70.1633 302.188 70.47 302.575 70.85L302.015 71.74ZM309.084 69.58C309.844 69.58 310.534 69.7033 311.154 69.95C311.781 70.1967 312.314 70.5467 312.754 71C313.201 71.4533 313.544 72.0067 313.784 72.66C314.024 73.3133 314.144 74.0433 314.144 74.85C314.144 75.6633 314.024 76.3967 313.784 77.05C313.544 77.7033 313.201 78.26 312.754 78.72C312.314 79.18 311.781 79.5333 311.154 79.78C310.534 80.0267 309.844 80.15 309.084 80.15C308.318 80.15 307.621 80.0267 306.994 79.78C306.368 79.5333 305.831 79.18 305.384 78.72C304.944 78.26 304.601 77.7033 304.354 77.05C304.114 76.3967 303.994 75.6633 303.994 74.85C303.994 74.0433 304.114 73.3133 304.354 72.66C304.601 72.0067 304.944 71.4533 305.384 71C305.831 70.5467 306.368 70.1967 306.994 69.95C307.621 69.7033 308.318 69.58 309.084 69.58ZM309.084 78.25C309.938 78.25 310.568 77.9633 310.974 77.39C311.388 76.8167 311.594 75.9767 311.594 74.87C311.594 73.7633 311.388 72.92 310.974 72.34C310.568 71.76 309.938 71.47 309.084 71.47C308.218 71.47 307.574 71.7633 307.154 72.35C306.741 72.93 306.534 73.77 306.534 74.87C306.534 75.97 306.741 76.81 307.154 77.39C307.574 77.9633 308.218 78.25 309.084 78.25ZM323.379 71.91C323.305 72.0033 323.232 72.0767 323.159 72.13C323.092 72.1833 322.992 72.21 322.859 72.21C322.732 72.21 322.609 72.1733 322.489 72.1C322.369 72.02 322.225 71.9333 322.059 71.84C321.892 71.74 321.692 71.6533 321.459 71.58C321.232 71.5 320.949 71.46 320.609 71.46C320.175 71.46 319.795 71.54 319.469 71.7C319.142 71.8533 318.869 72.0767 318.649 72.37C318.435 72.6633 318.275 73.02 318.169 73.44C318.062 73.8533 318.009 74.3233 318.009 74.85C318.009 75.3967 318.065 75.8833 318.179 76.31C318.299 76.7367 318.469 77.0967 318.689 77.39C318.909 77.6767 319.175 77.8967 319.489 78.05C319.802 78.1967 320.155 78.27 320.549 78.27C320.942 78.27 321.259 78.2233 321.499 78.13C321.745 78.03 321.952 77.9233 322.119 77.81C322.285 77.69 322.429 77.5833 322.549 77.49C322.675 77.39 322.815 77.34 322.969 77.34C323.169 77.34 323.319 77.4167 323.419 77.57L324.129 78.47C323.855 78.79 323.559 79.06 323.239 79.28C322.919 79.4933 322.585 79.6667 322.239 79.8C321.899 79.9267 321.545 80.0167 321.179 80.07C320.819 80.1233 320.459 80.15 320.099 80.15C319.465 80.15 318.869 80.0333 318.309 79.8C317.749 79.56 317.259 79.2133 316.839 78.76C316.419 78.3067 316.085 77.7533 315.839 77.1C315.599 76.44 315.479 75.69 315.479 74.85C315.479 74.0967 315.585 73.4 315.799 72.76C316.019 72.1133 316.339 71.5567 316.759 71.09C317.179 70.6167 317.699 70.2467 318.319 69.98C318.939 69.7133 319.652 69.58 320.459 69.58C321.225 69.58 321.895 69.7033 322.469 69.95C323.049 70.1967 323.569 70.55 324.029 71.01L323.379 71.91ZM328.237 69.74V80H325.757V69.74H328.237ZM328.577 66.75C328.577 66.9633 328.534 67.1633 328.447 67.35C328.36 67.5367 328.244 67.7 328.097 67.84C327.957 67.98 327.79 68.0933 327.597 68.18C327.404 68.26 327.197 68.3 326.977 68.3C326.764 68.3 326.56 68.26 326.367 68.18C326.18 68.0933 326.017 67.98 325.877 67.84C325.737 67.7 325.624 67.5367 325.537 67.35C325.457 67.1633 325.417 66.9633 325.417 66.75C325.417 66.53 325.457 66.3233 325.537 66.13C325.624 65.9367 325.737 65.77 325.877 65.63C326.017 65.49 326.18 65.38 326.367 65.3C326.56 65.2133 326.764 65.17 326.977 65.17C327.197 65.17 327.404 65.2133 327.597 65.3C327.79 65.38 327.957 65.49 328.097 65.63C328.244 65.77 328.36 65.9367 328.447 66.13C328.534 66.3233 328.577 66.53 328.577 66.75ZM336.175 75.62C335.462 75.6533 334.862 75.7167 334.375 75.81C333.888 75.8967 333.498 76.01 333.205 76.15C332.912 76.29 332.702 76.4533 332.575 76.64C332.448 76.8267 332.385 77.03 332.385 77.25C332.385 77.6833 332.512 77.9933 332.765 78.18C333.025 78.3667 333.362 78.46 333.775 78.46C334.282 78.46 334.718 78.37 335.085 78.19C335.458 78.0033 335.822 77.7233 336.175 77.35V75.62ZM330.515 71.17C331.695 70.09 333.115 69.55 334.775 69.55C335.375 69.55 335.912 69.65 336.385 69.85C336.858 70.0433 337.258 70.3167 337.585 70.67C337.912 71.0167 338.158 71.4333 338.325 71.92C338.498 72.4067 338.585 72.94 338.585 73.52V80H337.465C337.232 80 337.052 79.9667 336.925 79.9C336.798 79.8267 336.698 79.6833 336.625 79.47L336.405 78.73C336.145 78.9633 335.892 79.17 335.645 79.35C335.398 79.5233 335.142 79.67 334.875 79.79C334.608 79.91 334.322 80 334.015 80.06C333.715 80.1267 333.382 80.16 333.015 80.16C332.582 80.16 332.182 80.1033 331.815 79.99C331.448 79.87 331.132 79.6933 330.865 79.46C330.598 79.2267 330.392 78.9367 330.245 78.59C330.098 78.2433 330.025 77.84 330.025 77.38C330.025 77.12 330.068 76.8633 330.155 76.61C330.242 76.35 330.382 76.1033 330.575 75.87C330.775 75.6367 331.032 75.4167 331.345 75.21C331.658 75.0033 332.042 74.8233 332.495 74.67C332.955 74.5167 333.488 74.3933 334.095 74.3C334.702 74.2 335.395 74.14 336.175 74.12V73.52C336.175 72.8333 336.028 72.3267 335.735 72C335.442 71.6667 335.018 71.5 334.465 71.5C334.065 71.5 333.732 71.5467 333.465 71.64C333.205 71.7333 332.975 71.84 332.775 71.96C332.575 72.0733 332.392 72.1767 332.225 72.27C332.065 72.3633 331.885 72.41 331.685 72.41C331.512 72.41 331.365 72.3667 331.245 72.28C331.125 72.1867 331.028 72.08 330.955 71.96L330.515 71.17ZM343.411 65.14V80H340.941V65.14H343.411ZM352.482 73.69C352.482 73.37 352.436 73.07 352.342 72.79C352.256 72.5033 352.122 72.2533 351.942 72.04C351.762 71.8267 351.532 71.66 351.252 71.54C350.979 71.4133 350.659 71.35 350.292 71.35C349.579 71.35 349.016 71.5533 348.602 71.96C348.196 72.3667 347.936 72.9433 347.822 73.69H352.482ZM347.772 75.18C347.812 75.7067 347.906 76.1633 348.052 76.55C348.199 76.93 348.392 77.2467 348.632 77.5C348.872 77.7467 349.156 77.9333 349.482 78.06C349.816 78.18 350.182 78.24 350.582 78.24C350.982 78.24 351.326 78.1933 351.612 78.1C351.906 78.0067 352.159 77.9033 352.372 77.79C352.592 77.6767 352.782 77.5733 352.942 77.48C353.109 77.3867 353.269 77.34 353.422 77.34C353.629 77.34 353.782 77.4167 353.882 77.57L354.592 78.47C354.319 78.79 354.012 79.06 353.672 79.28C353.332 79.4933 352.976 79.6667 352.602 79.8C352.236 79.9267 351.859 80.0167 351.472 80.07C351.092 80.1233 350.722 80.15 350.362 80.15C349.649 80.15 348.986 80.0333 348.372 79.8C347.759 79.56 347.226 79.21 346.772 78.75C346.319 78.2833 345.962 77.71 345.702 77.03C345.442 76.3433 345.312 75.55 345.312 74.65C345.312 73.95 345.426 73.2933 345.652 72.68C345.879 72.06 346.202 71.5233 346.622 71.07C347.049 70.61 347.566 70.2467 348.172 69.98C348.786 69.7133 349.476 69.58 350.242 69.58C350.889 69.58 351.486 69.6833 352.032 69.89C352.579 70.0967 353.049 70.4 353.442 70.8C353.836 71.1933 354.142 71.68 354.362 72.26C354.589 72.8333 354.702 73.49 354.702 74.23C354.702 74.6033 354.662 74.8567 354.582 74.99C354.502 75.1167 354.349 75.18 354.122 75.18H347.772ZM362.816 71.74C362.749 71.8467 362.679 71.9233 362.606 71.97C362.533 72.01 362.439 72.03 362.326 72.03C362.206 72.03 362.076 71.9967 361.936 71.93C361.803 71.8633 361.646 71.79 361.466 71.71C361.286 71.6233 361.079 71.5467 360.846 71.48C360.619 71.4133 360.349 71.38 360.036 71.38C359.549 71.38 359.166 71.4833 358.886 71.69C358.613 71.8967 358.476 72.1667 358.476 72.5C358.476 72.72 358.546 72.9067 358.686 73.06C358.833 73.2067 359.023 73.3367 359.256 73.45C359.496 73.5633 359.766 73.6667 360.066 73.76C360.366 73.8467 360.669 73.9433 360.976 74.05C361.289 74.1567 361.596 74.28 361.896 74.42C362.196 74.5533 362.463 74.7267 362.696 74.94C362.936 75.1467 363.126 75.3967 363.266 75.69C363.413 75.9833 363.486 76.3367 363.486 76.75C363.486 77.2433 363.396 77.7 363.216 78.12C363.043 78.5333 362.783 78.8933 362.436 79.2C362.089 79.5 361.659 79.7367 361.146 79.91C360.639 80.0767 360.053 80.16 359.386 80.16C359.033 80.16 358.686 80.1267 358.346 80.06C358.013 80 357.689 79.9133 357.376 79.8C357.069 79.6867 356.783 79.5533 356.516 79.4C356.256 79.2467 356.026 79.08 355.826 78.9L356.396 77.96C356.469 77.8467 356.556 77.76 356.656 77.7C356.756 77.64 356.883 77.61 357.036 77.61C357.189 77.61 357.333 77.6533 357.466 77.74C357.606 77.8267 357.766 77.92 357.946 78.02C358.126 78.12 358.336 78.2133 358.576 78.3C358.823 78.3867 359.133 78.43 359.506 78.43C359.799 78.43 360.049 78.3967 360.256 78.33C360.469 78.2567 360.643 78.1633 360.776 78.05C360.916 77.9367 361.016 77.8067 361.076 77.66C361.143 77.5067 361.176 77.35 361.176 77.19C361.176 76.95 361.103 76.7533 360.956 76.6C360.816 76.4467 360.626 76.3133 360.386 76.2C360.153 76.0867 359.883 75.9867 359.576 75.9C359.276 75.8067 358.966 75.7067 358.646 75.6C358.333 75.4933 358.023 75.37 357.716 75.23C357.416 75.0833 357.146 74.9 356.906 74.68C356.673 74.46 356.483 74.19 356.336 73.87C356.196 73.55 356.126 73.1633 356.126 72.71C356.126 72.29 356.209 71.89 356.376 71.51C356.543 71.13 356.786 70.8 357.106 70.52C357.433 70.2333 357.836 70.0067 358.316 69.84C358.803 69.6667 359.363 69.58 359.996 69.58C360.703 69.58 361.346 69.6967 361.926 69.93C362.506 70.1633 362.989 70.47 363.376 70.85L362.816 71.74ZM364.985 78.64C364.985 78.4333 365.022 78.2367 365.095 78.05C365.175 77.8633 365.282 77.7033 365.415 77.57C365.548 77.4367 365.708 77.33 365.895 77.25C366.082 77.17 366.282 77.13 366.495 77.13C366.708 77.13 366.905 77.17 367.085 77.25C367.272 77.33 367.432 77.4367 367.565 77.57C367.705 77.7033 367.815 77.8633 367.895 78.05C367.975 78.2367 368.015 78.4333 368.015 78.64C368.015 78.8533 367.975 79.0533 367.895 79.24C367.815 79.42 367.705 79.5767 367.565 79.71C367.432 79.8433 367.272 79.9467 367.085 80.02C366.905 80.1 366.708 80.14 366.495 80.14C366.282 80.14 366.082 80.1 365.895 80.02C365.708 79.9467 365.548 79.8433 365.415 79.71C365.282 79.5767 365.175 79.42 365.095 79.24C365.022 79.0533 364.985 78.8533 364.985 78.64Z" fill="white"/>
</svg>
