<svg width="471" height="136" viewBox="0 0 471 136" fill="none" xmlns="http://www.w3.org/2000/svg">
<path d="M272.29 49.34C272.57 49.68 272.873 49.92 273.2 50.06C273.533 50.2 273.893 50.27 274.28 50.27C274.653 50.27 274.99 50.2 275.29 50.06C275.59 49.92 275.843 49.7067 276.05 49.42C276.263 49.1333 276.426 48.7733 276.54 48.34C276.653 47.9 276.71 47.3833 276.71 46.79C276.71 46.19 276.66 45.6833 276.56 45.27C276.466 44.85 276.33 44.51 276.15 44.25C275.97 43.99 275.75 43.8 275.49 43.68C275.236 43.56 274.946 43.5 274.62 43.5C274.106 43.5 273.67 43.61 273.31 43.83C272.95 44.0433 272.61 44.3467 272.29 44.74V49.34ZM272.16 43.14C272.58 42.6667 273.056 42.2833 273.59 41.99C274.123 41.6967 274.75 41.55 275.47 41.55C276.03 41.55 276.54 41.6667 277 41.9C277.466 42.1333 277.866 42.4733 278.2 42.92C278.54 43.36 278.8 43.9067 278.98 44.56C279.166 45.2067 279.26 45.95 279.26 46.79C279.26 47.5567 279.156 48.2667 278.95 48.92C278.743 49.5733 278.446 50.14 278.06 50.62C277.68 51.1 277.216 51.4767 276.67 51.75C276.13 52.0167 275.523 52.15 274.85 52.15C274.276 52.15 273.786 52.0633 273.38 51.89C272.973 51.71 272.61 51.4633 272.29 51.15V55.35H269.82V41.74H271.33C271.65 41.74 271.86 41.89 271.96 42.19L272.16 43.14ZM283.517 43.52C283.837 42.9067 284.217 42.4267 284.657 42.08C285.097 41.7267 285.617 41.55 286.217 41.55C286.69 41.55 287.07 41.6533 287.357 41.86L287.197 43.71C287.163 43.83 287.113 43.9167 287.047 43.97C286.987 44.0167 286.903 44.04 286.797 44.04C286.697 44.04 286.547 44.0233 286.347 43.99C286.153 43.9567 285.963 43.94 285.777 43.94C285.503 43.94 285.26 43.98 285.047 44.06C284.833 44.14 284.64 44.2567 284.467 44.41C284.3 44.5567 284.15 44.7367 284.017 44.95C283.89 45.1633 283.77 45.4067 283.657 45.68V52H281.187V41.74H282.637C282.89 41.74 283.067 41.7867 283.167 41.88C283.267 41.9667 283.333 42.1267 283.367 42.36L283.517 43.52ZM292.895 41.58C293.655 41.58 294.345 41.7033 294.965 41.95C295.591 42.1967 296.125 42.5467 296.565 43C297.011 43.4533 297.355 44.0067 297.595 44.66C297.835 45.3133 297.955 46.0433 297.955 46.85C297.955 47.6633 297.835 48.3967 297.595 49.05C297.355 49.7033 297.011 50.26 296.565 50.72C296.125 51.18 295.591 51.5333 294.965 51.78C294.345 52.0267 293.655 52.15 292.895 52.15C292.128 52.15 291.431 52.0267 290.805 51.78C290.178 51.5333 289.641 51.18 289.195 50.72C288.755 50.26 288.411 49.7033 288.165 49.05C287.925 48.3967 287.805 47.6633 287.805 46.85C287.805 46.0433 287.925 45.3133 288.165 44.66C288.411 44.0067 288.755 43.4533 289.195 43C289.641 42.5467 290.178 42.1967 290.805 41.95C291.431 41.7033 292.128 41.58 292.895 41.58ZM292.895 50.25C293.748 50.25 294.378 49.9633 294.785 49.39C295.198 48.8167 295.405 47.9767 295.405 46.87C295.405 45.7633 295.198 44.92 294.785 44.34C294.378 43.76 293.748 43.47 292.895 43.47C292.028 43.47 291.385 43.7633 290.965 44.35C290.551 44.93 290.345 45.77 290.345 46.87C290.345 47.97 290.551 48.81 290.965 49.39C291.385 49.9633 292.028 50.25 292.895 50.25ZM299.839 52V41.74H301.349C301.669 41.74 301.879 41.89 301.979 42.19L302.139 42.95C302.319 42.75 302.506 42.5667 302.699 42.4C302.899 42.2333 303.109 42.09 303.329 41.97C303.556 41.85 303.796 41.7567 304.049 41.69C304.309 41.6167 304.592 41.58 304.899 41.58C305.546 41.58 306.076 41.7567 306.489 42.11C306.909 42.4567 307.222 42.92 307.429 43.5C307.589 43.16 307.789 42.87 308.029 42.63C308.269 42.3833 308.532 42.1833 308.819 42.03C309.106 41.8767 309.409 41.7633 309.729 41.69C310.056 41.6167 310.382 41.58 310.709 41.58C311.276 41.58 311.779 41.6667 312.219 41.84C312.659 42.0133 313.029 42.2667 313.329 42.6C313.629 42.9333 313.856 43.34 314.009 43.82C314.169 44.3 314.249 44.85 314.249 45.47V52H311.779V45.47C311.779 44.8167 311.636 44.3267 311.349 44C311.062 43.6667 310.642 43.5 310.089 43.5C309.836 43.5 309.599 43.5433 309.379 43.63C309.166 43.7167 308.976 43.8433 308.809 44.01C308.649 44.17 308.522 44.3733 308.429 44.62C308.336 44.8667 308.289 45.15 308.289 45.47V52H305.809V45.47C305.809 44.7833 305.669 44.2833 305.389 43.97C305.116 43.6567 304.712 43.5 304.179 43.5C303.819 43.5 303.482 43.59 303.169 43.77C302.862 43.9433 302.576 44.1833 302.309 44.49V52H299.839ZM323.207 45.69C323.207 45.37 323.16 45.07 323.067 44.79C322.98 44.5033 322.847 44.2533 322.667 44.04C322.487 43.8267 322.257 43.66 321.977 43.54C321.704 43.4133 321.384 43.35 321.017 43.35C320.304 43.35 319.74 43.5533 319.327 43.96C318.92 44.3667 318.66 44.9433 318.547 45.69H323.207ZM318.497 47.18C318.537 47.7067 318.63 48.1633 318.777 48.55C318.924 48.93 319.117 49.2467 319.357 49.5C319.597 49.7467 319.88 49.9333 320.207 50.06C320.54 50.18 320.907 50.24 321.307 50.24C321.707 50.24 322.05 50.1933 322.337 50.1C322.63 50.0067 322.884 49.9033 323.097 49.79C323.317 49.6767 323.507 49.5733 323.667 49.48C323.834 49.3867 323.994 49.34 324.147 49.34C324.354 49.34 324.507 49.4167 324.607 49.57L325.317 50.47C325.044 50.79 324.737 51.06 324.397 51.28C324.057 51.4933 323.7 51.6667 323.327 51.8C322.96 51.9267 322.584 52.0167 322.197 52.07C321.817 52.1233 321.447 52.15 321.087 52.15C320.374 52.15 319.71 52.0333 319.097 51.8C318.484 51.56 317.95 51.21 317.497 50.75C317.044 50.2833 316.687 49.71 316.427 49.03C316.167 48.3433 316.037 47.55 316.037 46.65C316.037 45.95 316.15 45.2933 316.377 44.68C316.604 44.06 316.927 43.5233 317.347 43.07C317.774 42.61 318.29 42.2467 318.897 41.98C319.51 41.7133 320.2 41.58 320.967 41.58C321.614 41.58 322.21 41.6833 322.757 41.89C323.304 42.0967 323.774 42.4 324.167 42.8C324.56 43.1933 324.867 43.68 325.087 44.26C325.314 44.8333 325.427 45.49 325.427 46.23C325.427 46.6033 325.387 46.8567 325.307 46.99C325.227 47.1167 325.074 47.18 324.847 47.18H318.497ZM333.721 44.36C333.441 44.02 333.134 43.78 332.801 43.64C332.474 43.5 332.121 43.43 331.741 43.43C331.367 43.43 331.031 43.5 330.731 43.64C330.431 43.78 330.174 43.9933 329.961 44.28C329.747 44.56 329.584 44.92 329.471 45.36C329.357 45.7933 329.301 46.3067 329.301 46.9C329.301 47.5 329.347 48.01 329.441 48.43C329.541 48.8433 329.681 49.1833 329.861 49.45C330.041 49.71 330.261 49.9 330.521 50.02C330.781 50.1333 331.071 50.19 331.391 50.19C331.904 50.19 332.341 50.0833 332.701 49.87C333.061 49.6567 333.401 49.3533 333.721 48.96V44.36ZM336.191 37.14V52H334.681C334.354 52 334.147 51.85 334.061 51.55L333.851 50.56C333.437 51.0333 332.961 51.4167 332.421 51.71C331.887 52.0033 331.264 52.15 330.551 52.15C329.991 52.15 329.477 52.0333 329.011 51.8C328.544 51.5667 328.141 51.23 327.801 50.79C327.467 50.3433 327.207 49.7933 327.021 49.14C326.841 48.4867 326.751 47.74 326.751 46.9C326.751 46.14 326.854 45.4333 327.061 44.78C327.267 44.1267 327.564 43.56 327.951 43.08C328.337 42.6 328.801 42.2267 329.341 41.96C329.881 41.6867 330.487 41.55 331.161 41.55C331.734 41.55 332.224 41.64 332.631 41.82C333.037 42 333.401 42.2433 333.721 42.55V37.14H336.191ZM341.188 41.74V52H338.708V41.74H341.188ZM341.528 38.75C341.528 38.9633 341.485 39.1633 341.398 39.35C341.312 39.5367 341.195 39.7 341.048 39.84C340.908 39.98 340.742 40.0933 340.548 40.18C340.355 40.26 340.148 40.3 339.928 40.3C339.715 40.3 339.512 40.26 339.318 40.18C339.132 40.0933 338.968 39.98 338.828 39.84C338.688 39.7 338.575 39.5367 338.488 39.35C338.408 39.1633 338.368 38.9633 338.368 38.75C338.368 38.53 338.408 38.3233 338.488 38.13C338.575 37.9367 338.688 37.77 338.828 37.63C338.968 37.49 339.132 37.38 339.318 37.3C339.512 37.2133 339.715 37.17 339.928 37.17C340.148 37.17 340.355 37.2133 340.548 37.3C340.742 37.38 340.908 37.49 341.048 37.63C341.195 37.77 341.312 37.9367 341.398 38.13C341.485 38.3233 341.528 38.53 341.528 38.75ZM348.246 41.58C349.006 41.58 349.696 41.7033 350.316 41.95C350.943 42.1967 351.476 42.5467 351.916 43C352.363 43.4533 352.706 44.0067 352.946 44.66C353.186 45.3133 353.306 46.0433 353.306 46.85C353.306 47.6633 353.186 48.3967 352.946 49.05C352.706 49.7033 352.363 50.26 351.916 50.72C351.476 51.18 350.943 51.5333 350.316 51.78C349.696 52.0267 349.006 52.15 348.246 52.15C347.48 52.15 346.783 52.0267 346.156 51.78C345.53 51.5333 344.993 51.18 344.546 50.72C344.106 50.26 343.763 49.7033 343.516 49.05C343.276 48.3967 343.156 47.6633 343.156 46.85C343.156 46.0433 343.276 45.3133 343.516 44.66C343.763 44.0067 344.106 43.4533 344.546 43C344.993 42.5467 345.53 42.1967 346.156 41.95C346.783 41.7033 347.48 41.58 348.246 41.58ZM348.246 50.25C349.1 50.25 349.73 49.9633 350.136 49.39C350.55 48.8167 350.756 47.9767 350.756 46.87C350.756 45.7633 350.55 44.92 350.136 44.34C349.73 43.76 349.1 43.47 348.246 43.47C347.38 43.47 346.736 43.7633 346.316 44.35C345.903 44.93 345.696 45.77 345.696 46.87C345.696 47.97 345.903 48.81 346.316 49.39C346.736 49.9633 347.38 50.25 348.246 50.25ZM366.494 44.36C366.214 44.02 365.907 43.78 365.574 43.64C365.247 43.5 364.894 43.43 364.514 43.43C364.141 43.43 363.804 43.5 363.504 43.64C363.204 43.78 362.947 43.9933 362.734 44.28C362.521 44.56 362.357 44.92 362.244 45.36C362.131 45.7933 362.074 46.3067 362.074 46.9C362.074 47.5 362.121 48.01 362.214 48.43C362.314 48.8433 362.454 49.1833 362.634 49.45C362.814 49.71 363.034 49.9 363.294 50.02C363.554 50.1333 363.844 50.19 364.164 50.19C364.677 50.19 365.114 50.0833 365.474 49.87C365.834 49.6567 366.174 49.3533 366.494 48.96V44.36ZM368.964 37.14V52H367.454C367.127 52 366.921 51.85 366.834 51.55L366.624 50.56C366.211 51.0333 365.734 51.4167 365.194 51.71C364.661 52.0033 364.037 52.15 363.324 52.15C362.764 52.15 362.251 52.0333 361.784 51.8C361.317 51.5667 360.914 51.23 360.574 50.79C360.241 50.3433 359.981 49.7933 359.794 49.14C359.614 48.4867 359.524 47.74 359.524 46.9C359.524 46.14 359.627 45.4333 359.834 44.78C360.041 44.1267 360.337 43.56 360.724 43.08C361.111 42.6 361.574 42.2267 362.114 41.96C362.654 41.6867 363.261 41.55 363.934 41.55C364.507 41.55 364.997 41.64 365.404 41.82C365.811 42 366.174 42.2433 366.494 42.55V37.14H368.964ZM378.012 45.69C378.012 45.37 377.965 45.07 377.872 44.79C377.785 44.5033 377.652 44.2533 377.472 44.04C377.292 43.8267 377.062 43.66 376.782 43.54C376.508 43.4133 376.188 43.35 375.822 43.35C375.108 43.35 374.545 43.5533 374.132 43.96C373.725 44.3667 373.465 44.9433 373.352 45.69H378.012ZM373.302 47.18C373.342 47.7067 373.435 48.1633 373.582 48.55C373.728 48.93 373.922 49.2467 374.162 49.5C374.402 49.7467 374.685 49.9333 375.012 50.06C375.345 50.18 375.712 50.24 376.112 50.24C376.512 50.24 376.855 50.1933 377.142 50.1C377.435 50.0067 377.688 49.9033 377.902 49.79C378.122 49.6767 378.312 49.5733 378.472 49.48C378.638 49.3867 378.798 49.34 378.952 49.34C379.158 49.34 379.312 49.4167 379.412 49.57L380.122 50.47C379.848 50.79 379.542 51.06 379.202 51.28C378.862 51.4933 378.505 51.6667 378.132 51.8C377.765 51.9267 377.388 52.0167 377.002 52.07C376.622 52.1233 376.252 52.15 375.892 52.15C375.178 52.15 374.515 52.0333 373.902 51.8C373.288 51.56 372.755 51.21 372.302 50.75C371.848 50.2833 371.492 49.71 371.232 49.03C370.972 48.3433 370.842 47.55 370.842 46.65C370.842 45.95 370.955 45.2933 371.182 44.68C371.408 44.06 371.732 43.5233 372.152 43.07C372.578 42.61 373.095 42.2467 373.702 41.98C374.315 41.7133 375.005 41.58 375.772 41.58C376.418 41.58 377.015 41.6833 377.562 41.89C378.108 42.0967 378.578 42.4 378.972 42.8C379.365 43.1933 379.672 43.68 379.892 44.26C380.118 44.8333 380.232 45.49 380.232 46.23C380.232 46.6033 380.192 46.8567 380.112 46.99C380.032 47.1167 379.878 47.18 379.652 47.18H373.302ZM389.279 43.52C389.599 42.9067 389.979 42.4267 390.419 42.08C390.859 41.7267 391.379 41.55 391.979 41.55C392.452 41.55 392.832 41.6533 393.119 41.86L392.959 43.71C392.925 43.83 392.875 43.9167 392.809 43.97C392.749 44.0167 392.665 44.04 392.559 44.04C392.459 44.04 392.309 44.0233 392.109 43.99C391.915 43.9567 391.725 43.94 391.539 43.94C391.265 43.94 391.022 43.98 390.809 44.06C390.595 44.14 390.402 44.2567 390.229 44.41C390.062 44.5567 389.912 44.7367 389.779 44.95C389.652 45.1633 389.532 45.4067 389.419 45.68V52H386.949V41.74H388.399C388.652 41.74 388.829 41.7867 388.929 41.88C389.029 41.9667 389.095 42.1267 389.129 42.36L389.279 43.52ZM400.726 45.69C400.726 45.37 400.68 45.07 400.586 44.79C400.5 44.5033 400.366 44.2533 400.186 44.04C400.006 43.8267 399.776 43.66 399.496 43.54C399.223 43.4133 398.903 43.35 398.536 43.35C397.823 43.35 397.26 43.5533 396.846 43.96C396.44 44.3667 396.18 44.9433 396.066 45.69H400.726ZM396.016 47.18C396.056 47.7067 396.15 48.1633 396.296 48.55C396.443 48.93 396.636 49.2467 396.876 49.5C397.116 49.7467 397.4 49.9333 397.726 50.06C398.06 50.18 398.426 50.24 398.826 50.24C399.226 50.24 399.57 50.1933 399.856 50.1C400.15 50.0067 400.403 49.9033 400.616 49.79C400.836 49.6767 401.026 49.5733 401.186 49.48C401.353 49.3867 401.513 49.34 401.666 49.34C401.873 49.34 402.026 49.4167 402.126 49.57L402.836 50.47C402.563 50.79 402.256 51.06 401.916 51.28C401.576 51.4933 401.22 51.6667 400.846 51.8C400.48 51.9267 400.103 52.0167 399.716 52.07C399.336 52.1233 398.966 52.15 398.606 52.15C397.893 52.15 397.23 52.0333 396.616 51.8C396.003 51.56 395.47 51.21 395.016 50.75C394.563 50.2833 394.206 49.71 393.946 49.03C393.686 48.3433 393.556 47.55 393.556 46.65C393.556 45.95 393.67 45.2933 393.896 44.68C394.123 44.06 394.446 43.5233 394.866 43.07C395.293 42.61 395.81 42.2467 396.416 41.98C397.03 41.7133 397.72 41.58 398.486 41.58C399.133 41.58 399.73 41.6833 400.276 41.89C400.823 42.0967 401.293 42.4 401.686 42.8C402.08 43.1933 402.386 43.68 402.606 44.26C402.833 44.8333 402.946 45.49 402.946 46.23C402.946 46.6033 402.906 46.8567 402.826 46.99C402.746 47.1167 402.593 47.18 402.366 47.18H396.016ZM411.24 44.36C410.96 44.02 410.653 43.78 410.32 43.64C409.993 43.5 409.64 43.43 409.26 43.43C408.887 43.43 408.55 43.5 408.25 43.64C407.95 43.78 407.693 43.9933 407.48 44.28C407.267 44.56 407.103 44.92 406.99 45.36C406.877 45.7933 406.82 46.3067 406.82 46.9C406.82 47.5 406.867 48.01 406.96 48.43C407.06 48.8433 407.2 49.1833 407.38 49.45C407.56 49.71 407.78 49.9 408.04 50.02C408.3 50.1333 408.59 50.19 408.91 50.19C409.423 50.19 409.86 50.0833 410.22 49.87C410.58 49.6567 410.92 49.3533 411.24 48.96V44.36ZM413.71 37.14V52H412.2C411.873 52 411.667 51.85 411.58 51.55L411.37 50.56C410.957 51.0333 410.48 51.4167 409.94 51.71C409.407 52.0033 408.783 52.15 408.07 52.15C407.51 52.15 406.997 52.0333 406.53 51.8C406.063 51.5667 405.66 51.23 405.32 50.79C404.987 50.3433 404.727 49.7933 404.54 49.14C404.36 48.4867 404.27 47.74 404.27 46.9C404.27 46.14 404.373 45.4333 404.58 44.78C404.787 44.1267 405.083 43.56 405.47 43.08C405.857 42.6 406.32 42.2267 406.86 41.96C407.4 41.6867 408.007 41.55 408.68 41.55C409.253 41.55 409.743 41.64 410.15 41.82C410.557 42 410.92 42.2433 411.24 42.55V37.14H413.71ZM422.758 45.69C422.758 45.37 422.711 45.07 422.618 44.79C422.531 44.5033 422.398 44.2533 422.218 44.04C422.038 43.8267 421.808 43.66 421.528 43.54C421.254 43.4133 420.934 43.35 420.568 43.35C419.854 43.35 419.291 43.5533 418.878 43.96C418.471 44.3667 418.211 44.9433 418.098 45.69H422.758ZM418.048 47.18C418.088 47.7067 418.181 48.1633 418.328 48.55C418.474 48.93 418.668 49.2467 418.908 49.5C419.148 49.7467 419.431 49.9333 419.758 50.06C420.091 50.18 420.458 50.24 420.858 50.24C421.258 50.24 421.601 50.1933 421.888 50.1C422.181 50.0067 422.434 49.9033 422.648 49.79C422.868 49.6767 423.058 49.5733 423.218 49.48C423.384 49.3867 423.544 49.34 423.698 49.34C423.904 49.34 424.058 49.4167 424.158 49.57L424.868 50.47C424.594 50.79 424.288 51.06 423.948 51.28C423.608 51.4933 423.251 51.6667 422.878 51.8C422.511 51.9267 422.134 52.0167 421.748 52.07C421.368 52.1233 420.998 52.15 420.638 52.15C419.924 52.15 419.261 52.0333 418.648 51.8C418.034 51.56 417.501 51.21 417.048 50.75C416.594 50.2833 416.238 49.71 415.978 49.03C415.718 48.3433 415.588 47.55 415.588 46.65C415.588 45.95 415.701 45.2933 415.928 44.68C416.154 44.06 416.478 43.5233 416.898 43.07C417.324 42.61 417.841 42.2467 418.448 41.98C419.061 41.7133 419.751 41.58 420.518 41.58C421.164 41.58 421.761 41.6833 422.308 41.89C422.854 42.0967 423.324 42.4 423.718 42.8C424.111 43.1933 424.418 43.68 424.638 44.26C424.864 44.8333 424.978 45.49 424.978 46.23C424.978 46.6033 424.938 46.8567 424.858 46.99C424.778 47.1167 424.624 47.18 424.398 47.18H418.048ZM433.091 43.74C433.025 43.8467 432.955 43.9233 432.881 43.97C432.808 44.01 432.715 44.03 432.601 44.03C432.481 44.03 432.351 43.9967 432.211 43.93C432.078 43.8633 431.921 43.79 431.741 43.71C431.561 43.6233 431.355 43.5467 431.121 43.48C430.895 43.4133 430.625 43.38 430.311 43.38C429.825 43.38 429.441 43.4833 429.161 43.69C428.888 43.8967 428.751 44.1667 428.751 44.5C428.751 44.72 428.821 44.9067 428.961 45.06C429.108 45.2067 429.298 45.3367 429.531 45.45C429.771 45.5633 430.041 45.6667 430.341 45.76C430.641 45.8467 430.945 45.9433 431.251 46.05C431.565 46.1567 431.871 46.28 432.171 46.42C432.471 46.5533 432.738 46.7267 432.971 46.94C433.211 47.1467 433.401 47.3967 433.541 47.69C433.688 47.9833 433.761 48.3367 433.761 48.75C433.761 49.2433 433.671 49.7 433.491 50.12C433.318 50.5333 433.058 50.8933 432.711 51.2C432.365 51.5 431.935 51.7367 431.421 51.91C430.915 52.0767 430.328 52.16 429.661 52.16C429.308 52.16 428.961 52.1267 428.621 52.06C428.288 52 427.965 51.9133 427.651 51.8C427.345 51.6867 427.058 51.5533 426.791 51.4C426.531 51.2467 426.301 51.08 426.101 50.9L426.671 49.96C426.745 49.8467 426.831 49.76 426.931 49.7C427.031 49.64 427.158 49.61 427.311 49.61C427.465 49.61 427.608 49.6533 427.741 49.74C427.881 49.8267 428.041 49.92 428.221 50.02C428.401 50.12 428.611 50.2133 428.851 50.3C429.098 50.3867 429.408 50.43 429.781 50.43C430.075 50.43 430.325 50.3967 430.531 50.33C430.745 50.2567 430.918 50.1633 431.051 50.05C431.191 49.9367 431.291 49.8067 431.351 49.66C431.418 49.5067 431.451 49.35 431.451 49.19C431.451 48.95 431.378 48.7533 431.231 48.6C431.091 48.4467 430.901 48.3133 430.661 48.2C430.428 48.0867 430.158 47.9867 429.851 47.9C429.551 47.8067 429.241 47.7067 428.921 47.6C428.608 47.4933 428.298 47.37 427.991 47.23C427.691 47.0833 427.421 46.9 427.181 46.68C426.948 46.46 426.758 46.19 426.611 45.87C426.471 45.55 426.401 45.1633 426.401 44.71C426.401 44.29 426.485 43.89 426.651 43.51C426.818 43.13 427.061 42.8 427.381 42.52C427.708 42.2333 428.111 42.0067 428.591 41.84C429.078 41.6667 429.638 41.58 430.271 41.58C430.978 41.58 431.621 41.6967 432.201 41.93C432.781 42.1633 433.265 42.47 433.651 42.85L433.091 43.74ZM259.712 67.74C259.646 67.8467 259.576 67.9233 259.502 67.97C259.429 68.01 259.336 68.03 259.222 68.03C259.102 68.03 258.972 67.9967 258.832 67.93C258.699 67.8633 258.542 67.79 258.362 67.71C258.182 67.6233 257.976 67.5467 257.742 67.48C257.516 67.4133 257.246 67.38 256.932 67.38C256.446 67.38 256.062 67.4833 255.782 67.69C255.509 67.8967 255.372 68.1667 255.372 68.5C255.372 68.72 255.442 68.9067 255.582 69.06C255.729 69.2067 255.919 69.3367 256.152 69.45C256.392 69.5633 256.662 69.6667 256.962 69.76C257.262 69.8467 257.566 69.9433 257.872 70.05C258.186 70.1567 258.492 70.28 258.792 70.42C259.092 70.5533 259.359 70.7267 259.592 70.94C259.832 71.1467 260.022 71.3967 260.162 71.69C260.309 71.9833 260.382 72.3367 260.382 72.75C260.382 73.2433 260.292 73.7 260.112 74.12C259.939 74.5333 259.679 74.8933 259.332 75.2C258.986 75.5 258.556 75.7367 258.042 75.91C257.536 76.0767 256.949 76.16 256.282 76.16C255.929 76.16 255.582 76.1267 255.242 76.06C254.909 76 254.586 75.9133 254.272 75.8C253.966 75.6867 253.679 75.5533 253.412 75.4C253.152 75.2467 252.922 75.08 252.722 74.9L253.292 73.96C253.366 73.8467 253.452 73.76 253.552 73.7C253.652 73.64 253.779 73.61 253.932 73.61C254.086 73.61 254.229 73.6533 254.362 73.74C254.502 73.8267 254.662 73.92 254.842 74.02C255.022 74.12 255.232 74.2133 255.472 74.3C255.719 74.3867 256.029 74.43 256.402 74.43C256.696 74.43 256.946 74.3967 257.152 74.33C257.366 74.2567 257.539 74.1633 257.672 74.05C257.812 73.9367 257.912 73.8067 257.972 73.66C258.039 73.5067 258.072 73.35 258.072 73.19C258.072 72.95 257.999 72.7533 257.852 72.6C257.712 72.4467 257.522 72.3133 257.282 72.2C257.049 72.0867 256.779 71.9867 256.472 71.9C256.172 71.8067 255.862 71.7067 255.542 71.6C255.229 71.4933 254.919 71.37 254.612 71.23C254.312 71.0833 254.042 70.9 253.802 70.68C253.569 70.46 253.379 70.19 253.232 69.87C253.092 69.55 253.022 69.1633 253.022 68.71C253.022 68.29 253.106 67.89 253.272 67.51C253.439 67.13 253.682 66.8 254.002 66.52C254.329 66.2333 254.732 66.0067 255.212 65.84C255.699 65.6667 256.259 65.58 256.892 65.58C257.599 65.58 258.242 65.6967 258.822 65.93C259.402 66.1633 259.886 66.47 260.272 66.85L259.712 67.74ZM266.781 65.58C267.541 65.58 268.231 65.7033 268.851 65.95C269.478 66.1967 270.011 66.5467 270.451 67C270.898 67.4533 271.241 68.0067 271.481 68.66C271.721 69.3133 271.841 70.0433 271.841 70.85C271.841 71.6633 271.721 72.3967 271.481 73.05C271.241 73.7033 270.898 74.26 270.451 74.72C270.011 75.18 269.478 75.5333 268.851 75.78C268.231 76.0267 267.541 76.15 266.781 76.15C266.015 76.15 265.318 76.0267 264.691 75.78C264.065 75.5333 263.528 75.18 263.081 74.72C262.641 74.26 262.298 73.7033 262.051 73.05C261.811 72.3967 261.691 71.6633 261.691 70.85C261.691 70.0433 261.811 69.3133 262.051 68.66C262.298 68.0067 262.641 67.4533 263.081 67C263.528 66.5467 264.065 66.1967 264.691 65.95C265.318 65.7033 266.015 65.58 266.781 65.58ZM266.781 74.25C267.635 74.25 268.265 73.9633 268.671 73.39C269.085 72.8167 269.291 71.9767 269.291 70.87C269.291 69.7633 269.085 68.92 268.671 68.34C268.265 67.76 267.635 67.47 266.781 67.47C265.915 67.47 265.271 67.7633 264.851 68.35C264.438 68.93 264.231 69.77 264.231 70.87C264.231 71.97 264.438 72.81 264.851 73.39C265.271 73.9633 265.915 74.25 266.781 74.25ZM281.076 67.91C281.003 68.0033 280.929 68.0767 280.856 68.13C280.789 68.1833 280.689 68.21 280.556 68.21C280.429 68.21 280.306 68.1733 280.186 68.1C280.066 68.02 279.923 67.9333 279.756 67.84C279.589 67.74 279.389 67.6533 279.156 67.58C278.929 67.5 278.646 67.46 278.306 67.46C277.873 67.46 277.493 67.54 277.166 67.7C276.839 67.8533 276.566 68.0767 276.346 68.37C276.133 68.6633 275.973 69.02 275.866 69.44C275.759 69.8533 275.706 70.3233 275.706 70.85C275.706 71.3967 275.763 71.8833 275.876 72.31C275.996 72.7367 276.166 73.0967 276.386 73.39C276.606 73.6767 276.873 73.8967 277.186 74.05C277.499 74.1967 277.853 74.27 278.246 74.27C278.639 74.27 278.956 74.2233 279.196 74.13C279.443 74.03 279.649 73.9233 279.816 73.81C279.983 73.69 280.126 73.5833 280.246 73.49C280.373 73.39 280.513 73.34 280.666 73.34C280.866 73.34 281.016 73.4167 281.116 73.57L281.826 74.47C281.553 74.79 281.256 75.06 280.936 75.28C280.616 75.4933 280.283 75.6667 279.936 75.8C279.596 75.9267 279.243 76.0167 278.876 76.07C278.516 76.1233 278.156 76.15 277.796 76.15C277.163 76.15 276.566 76.0333 276.006 75.8C275.446 75.56 274.956 75.2133 274.536 74.76C274.116 74.3067 273.783 73.7533 273.536 73.1C273.296 72.44 273.176 71.69 273.176 70.85C273.176 70.0967 273.283 69.4 273.496 68.76C273.716 68.1133 274.036 67.5567 274.456 67.09C274.876 66.6167 275.396 66.2467 276.016 65.98C276.636 65.7133 277.349 65.58 278.156 65.58C278.923 65.58 279.593 65.7033 280.166 65.95C280.746 66.1967 281.266 66.55 281.726 67.01L281.076 67.91ZM285.934 65.74V76H283.454V65.74H285.934ZM286.274 62.75C286.274 62.9633 286.231 63.1633 286.144 63.35C286.058 63.5367 285.941 63.7 285.794 63.84C285.654 63.98 285.488 64.0933 285.294 64.18C285.101 64.26 284.894 64.3 284.674 64.3C284.461 64.3 284.258 64.26 284.064 64.18C283.878 64.0933 283.714 63.98 283.574 63.84C283.434 63.7 283.321 63.5367 283.234 63.35C283.154 63.1633 283.114 62.9633 283.114 62.75C283.114 62.53 283.154 62.3233 283.234 62.13C283.321 61.9367 283.434 61.77 283.574 61.63C283.714 61.49 283.878 61.38 284.064 61.3C284.258 61.2133 284.461 61.17 284.674 61.17C284.894 61.17 285.101 61.2133 285.294 61.3C285.488 61.38 285.654 61.49 285.794 61.63C285.941 61.77 286.058 61.9367 286.144 62.13C286.231 62.3233 286.274 62.53 286.274 62.75ZM293.872 71.62C293.159 71.6533 292.559 71.7167 292.072 71.81C291.586 71.8967 291.196 72.01 290.902 72.15C290.609 72.29 290.399 72.4533 290.272 72.64C290.146 72.8267 290.082 73.03 290.082 73.25C290.082 73.6833 290.209 73.9933 290.462 74.18C290.722 74.3667 291.059 74.46 291.472 74.46C291.979 74.46 292.416 74.37 292.782 74.19C293.156 74.0033 293.519 73.7233 293.872 73.35V71.62ZM288.212 67.17C289.392 66.09 290.812 65.55 292.472 65.55C293.072 65.55 293.609 65.65 294.082 65.85C294.556 66.0433 294.956 66.3167 295.282 66.67C295.609 67.0167 295.856 67.4333 296.022 67.92C296.196 68.4067 296.282 68.94 296.282 69.52V76H295.162C294.929 76 294.749 75.9667 294.622 75.9C294.496 75.8267 294.396 75.6833 294.322 75.47L294.102 74.73C293.842 74.9633 293.589 75.17 293.342 75.35C293.096 75.5233 292.839 75.67 292.572 75.79C292.306 75.91 292.019 76 291.712 76.06C291.412 76.1267 291.079 76.16 290.712 76.16C290.279 76.16 289.879 76.1033 289.512 75.99C289.146 75.87 288.829 75.6933 288.562 75.46C288.296 75.2267 288.089 74.9367 287.942 74.59C287.796 74.2433 287.722 73.84 287.722 73.38C287.722 73.12 287.766 72.8633 287.852 72.61C287.939 72.35 288.079 72.1033 288.272 71.87C288.472 71.6367 288.729 71.4167 289.042 71.21C289.356 71.0033 289.739 70.8233 290.192 70.67C290.652 70.5167 291.186 70.3933 291.792 70.3C292.399 70.2 293.092 70.14 293.872 70.12V69.52C293.872 68.8333 293.726 68.3267 293.432 68C293.139 67.6667 292.716 67.5 292.162 67.5C291.762 67.5 291.429 67.5467 291.162 67.64C290.902 67.7333 290.672 67.84 290.472 67.96C290.272 68.0733 290.089 68.1767 289.922 68.27C289.762 68.3633 289.582 68.41 289.382 68.41C289.209 68.41 289.062 68.3667 288.942 68.28C288.822 68.1867 288.726 68.08 288.652 67.96L288.212 67.17ZM301.109 61.14V76H298.639V61.14H301.109ZM310.18 69.69C310.18 69.37 310.133 69.07 310.04 68.79C309.953 68.5033 309.82 68.2533 309.64 68.04C309.46 67.8267 309.23 67.66 308.95 67.54C308.676 67.4133 308.356 67.35 307.99 67.35C307.276 67.35 306.713 67.5533 306.3 67.96C305.893 68.3667 305.633 68.9433 305.52 69.69H310.18ZM305.47 71.18C305.51 71.7067 305.603 72.1633 305.75 72.55C305.896 72.93 306.09 73.2467 306.33 73.5C306.57 73.7467 306.853 73.9333 307.18 74.06C307.513 74.18 307.88 74.24 308.28 74.24C308.68 74.24 309.023 74.1933 309.31 74.1C309.603 74.0067 309.856 73.9033 310.07 73.79C310.29 73.6767 310.48 73.5733 310.64 73.48C310.806 73.3867 310.966 73.34 311.12 73.34C311.326 73.34 311.48 73.4167 311.58 73.57L312.29 74.47C312.016 74.79 311.71 75.06 311.37 75.28C311.03 75.4933 310.673 75.6667 310.3 75.8C309.933 75.9267 309.556 76.0167 309.17 76.07C308.79 76.1233 308.42 76.15 308.06 76.15C307.346 76.15 306.683 76.0333 306.07 75.8C305.456 75.56 304.923 75.21 304.47 74.75C304.016 74.2833 303.66 73.71 303.4 73.03C303.14 72.3433 303.01 71.55 303.01 70.65C303.01 69.95 303.123 69.2933 303.35 68.68C303.576 68.06 303.9 67.5233 304.32 67.07C304.746 66.61 305.263 66.2467 305.87 65.98C306.483 65.7133 307.173 65.58 307.94 65.58C308.586 65.58 309.183 65.6833 309.73 65.89C310.276 66.0967 310.746 66.4 311.14 66.8C311.533 67.1933 311.84 67.68 312.06 68.26C312.286 68.8333 312.4 69.49 312.4 70.23C312.4 70.6033 312.36 70.8567 312.28 70.99C312.2 71.1167 312.046 71.18 311.82 71.18H305.47ZM320.513 67.74C320.447 67.8467 320.377 67.9233 320.303 67.97C320.23 68.01 320.137 68.03 320.023 68.03C319.903 68.03 319.773 67.9967 319.633 67.93C319.5 67.8633 319.343 67.79 319.163 67.71C318.983 67.6233 318.777 67.5467 318.543 67.48C318.317 67.4133 318.047 67.38 317.733 67.38C317.247 67.38 316.863 67.4833 316.583 67.69C316.31 67.8967 316.173 68.1667 316.173 68.5C316.173 68.72 316.243 68.9067 316.383 69.06C316.53 69.2067 316.72 69.3367 316.953 69.45C317.193 69.5633 317.463 69.6667 317.763 69.76C318.063 69.8467 318.367 69.9433 318.673 70.05C318.987 70.1567 319.293 70.28 319.593 70.42C319.893 70.5533 320.16 70.7267 320.393 70.94C320.633 71.1467 320.823 71.3967 320.963 71.69C321.11 71.9833 321.183 72.3367 321.183 72.75C321.183 73.2433 321.093 73.7 320.913 74.12C320.74 74.5333 320.48 74.8933 320.133 75.2C319.787 75.5 319.357 75.7367 318.843 75.91C318.337 76.0767 317.75 76.16 317.083 76.16C316.73 76.16 316.383 76.1267 316.043 76.06C315.71 76 315.387 75.9133 315.073 75.8C314.767 75.6867 314.48 75.5533 314.213 75.4C313.953 75.2467 313.723 75.08 313.523 74.9L314.093 73.96C314.167 73.8467 314.253 73.76 314.353 73.7C314.453 73.64 314.58 73.61 314.733 73.61C314.887 73.61 315.03 73.6533 315.163 73.74C315.303 73.8267 315.463 73.92 315.643 74.02C315.823 74.12 316.033 74.2133 316.273 74.3C316.52 74.3867 316.83 74.43 317.203 74.43C317.497 74.43 317.747 74.3967 317.953 74.33C318.167 74.2567 318.34 74.1633 318.473 74.05C318.613 73.9367 318.713 73.8067 318.773 73.66C318.84 73.5067 318.873 73.35 318.873 73.19C318.873 72.95 318.8 72.7533 318.653 72.6C318.513 72.4467 318.323 72.3133 318.083 72.2C317.85 72.0867 317.58 71.9867 317.273 71.9C316.973 71.8067 316.663 71.7067 316.343 71.6C316.03 71.4933 315.72 71.37 315.413 71.23C315.113 71.0833 314.843 70.9 314.603 70.68C314.37 70.46 314.18 70.19 314.033 69.87C313.893 69.55 313.823 69.1633 313.823 68.71C313.823 68.29 313.907 67.89 314.073 67.51C314.24 67.13 314.483 66.8 314.803 66.52C315.13 66.2333 315.533 66.0067 316.013 65.84C316.5 65.6667 317.06 65.58 317.693 65.58C318.4 65.58 319.043 65.6967 319.623 65.93C320.203 66.1633 320.687 66.47 321.073 66.85L320.513 67.74ZM336.746 65.74V76H335.236C334.909 76 334.702 75.85 334.616 75.55L334.446 74.73C334.026 75.1567 333.562 75.5033 333.056 75.77C332.549 76.03 331.952 76.16 331.266 76.16C330.706 76.16 330.209 76.0667 329.776 75.88C329.349 75.6867 328.989 75.4167 328.696 75.07C328.402 74.7233 328.179 74.3133 328.026 73.84C327.879 73.36 327.806 72.8333 327.806 72.26V65.74H330.276V72.26C330.276 72.8867 330.419 73.3733 330.706 73.72C330.999 74.06 331.436 74.23 332.016 74.23C332.442 74.23 332.842 74.1367 333.216 73.95C333.589 73.7567 333.942 73.4933 334.276 73.16V65.74H336.746ZM345.455 67.74C345.388 67.8467 345.318 67.9233 345.245 67.97C345.171 68.01 345.078 68.03 344.965 68.03C344.845 68.03 344.715 67.9967 344.575 67.93C344.441 67.8633 344.285 67.79 344.105 67.71C343.925 67.6233 343.718 67.5467 343.485 67.48C343.258 67.4133 342.988 67.38 342.675 67.38C342.188 67.38 341.805 67.4833 341.525 67.69C341.251 67.8967 341.115 68.1667 341.115 68.5C341.115 68.72 341.185 68.9067 341.325 69.06C341.471 69.2067 341.661 69.3367 341.895 69.45C342.135 69.5633 342.405 69.6667 342.705 69.76C343.005 69.8467 343.308 69.9433 343.615 70.05C343.928 70.1567 344.235 70.28 344.535 70.42C344.835 70.5533 345.101 70.7267 345.335 70.94C345.575 71.1467 345.765 71.3967 345.905 71.69C346.051 71.9833 346.125 72.3367 346.125 72.75C346.125 73.2433 346.035 73.7 345.855 74.12C345.681 74.5333 345.421 74.8933 345.075 75.2C344.728 75.5 344.298 75.7367 343.785 75.91C343.278 76.0767 342.691 76.16 342.025 76.16C341.671 76.16 341.325 76.1267 340.985 76.06C340.651 76 340.328 75.9133 340.015 75.8C339.708 75.6867 339.421 75.5533 339.155 75.4C338.895 75.2467 338.665 75.08 338.465 74.9L339.035 73.96C339.108 73.8467 339.195 73.76 339.295 73.7C339.395 73.64 339.521 73.61 339.675 73.61C339.828 73.61 339.971 73.6533 340.105 73.74C340.245 73.8267 340.405 73.92 340.585 74.02C340.765 74.12 340.975 74.2133 341.215 74.3C341.461 74.3867 341.771 74.43 342.145 74.43C342.438 74.43 342.688 74.3967 342.895 74.33C343.108 74.2567 343.281 74.1633 343.415 74.05C343.555 73.9367 343.655 73.8067 343.715 73.66C343.781 73.5067 343.815 73.35 343.815 73.19C343.815 72.95 343.741 72.7533 343.595 72.6C343.455 72.4467 343.265 72.3133 343.025 72.2C342.791 72.0867 342.521 71.9867 342.215 71.9C341.915 71.8067 341.605 71.7067 341.285 71.6C340.971 71.4933 340.661 71.37 340.355 71.23C340.055 71.0833 339.785 70.9 339.545 70.68C339.311 70.46 339.121 70.19 338.975 69.87C338.835 69.55 338.765 69.1633 338.765 68.71C338.765 68.29 338.848 67.89 339.015 67.51C339.181 67.13 339.425 66.8 339.745 66.52C340.071 66.2333 340.475 66.0067 340.955 65.84C341.441 65.6667 342.001 65.58 342.635 65.58C343.341 65.58 343.985 65.6967 344.565 65.93C345.145 66.1633 345.628 66.47 346.015 66.85L345.455 67.74ZM353.404 71.62C352.69 71.6533 352.09 71.7167 351.604 71.81C351.117 71.8967 350.727 72.01 350.434 72.15C350.14 72.29 349.93 72.4533 349.804 72.64C349.677 72.8267 349.614 73.03 349.614 73.25C349.614 73.6833 349.74 73.9933 349.994 74.18C350.254 74.3667 350.59 74.46 351.004 74.46C351.51 74.46 351.947 74.37 352.314 74.19C352.687 74.0033 353.05 73.7233 353.404 73.35V71.62ZM347.744 67.17C348.924 66.09 350.344 65.55 352.004 65.55C352.604 65.55 353.14 65.65 353.614 65.85C354.087 66.0433 354.487 66.3167 354.814 66.67C355.14 67.0167 355.387 67.4333 355.554 67.92C355.727 68.4067 355.814 68.94 355.814 69.52V76H354.694C354.46 76 354.28 75.9667 354.154 75.9C354.027 75.8267 353.927 75.6833 353.854 75.47L353.634 74.73C353.374 74.9633 353.12 75.17 352.874 75.35C352.627 75.5233 352.37 75.67 352.104 75.79C351.837 75.91 351.55 76 351.244 76.06C350.944 76.1267 350.61 76.16 350.244 76.16C349.81 76.16 349.41 76.1033 349.044 75.99C348.677 75.87 348.36 75.6933 348.094 75.46C347.827 75.2267 347.62 74.9367 347.474 74.59C347.327 74.2433 347.254 73.84 347.254 73.38C347.254 73.12 347.297 72.8633 347.384 72.61C347.47 72.35 347.61 72.1033 347.804 71.87C348.004 71.6367 348.26 71.4167 348.574 71.21C348.887 71.0033 349.27 70.8233 349.724 70.67C350.184 70.5167 350.717 70.3933 351.324 70.3C351.93 70.2 352.624 70.14 353.404 70.12V69.52C353.404 68.8333 353.257 68.3267 352.964 68C352.67 67.6667 352.247 67.5 351.694 67.5C351.294 67.5 350.96 67.5467 350.694 67.64C350.434 67.7333 350.204 67.84 350.004 67.96C349.804 68.0733 349.62 68.1767 349.454 68.27C349.294 68.3633 349.114 68.41 348.914 68.41C348.74 68.41 348.594 68.3667 348.474 68.28C348.354 68.1867 348.257 68.08 348.184 67.96L347.744 67.17ZM364.58 68.36C364.3 68.02 363.993 67.78 363.66 67.64C363.333 67.5 362.98 67.43 362.6 67.43C362.227 67.43 361.89 67.5 361.59 67.64C361.29 67.78 361.033 67.9933 360.82 68.28C360.607 68.56 360.443 68.92 360.33 69.36C360.217 69.7933 360.16 70.3067 360.16 70.9C360.16 71.5 360.207 72.01 360.3 72.43C360.4 72.8433 360.54 73.1833 360.72 73.45C360.9 73.71 361.12 73.9 361.38 74.02C361.64 74.1333 361.93 74.19 362.25 74.19C362.763 74.19 363.2 74.0833 363.56 73.87C363.92 73.6567 364.26 73.3533 364.58 72.96V68.36ZM367.05 61.14V76H365.54C365.213 76 365.007 75.85 364.92 75.55L364.71 74.56C364.297 75.0333 363.82 75.4167 363.28 75.71C362.747 76.0033 362.123 76.15 361.41 76.15C360.85 76.15 360.337 76.0333 359.87 75.8C359.403 75.5667 359 75.23 358.66 74.79C358.327 74.3433 358.067 73.7933 357.88 73.14C357.7 72.4867 357.61 71.74 357.61 70.9C357.61 70.14 357.713 69.4333 357.92 68.78C358.127 68.1267 358.423 67.56 358.81 67.08C359.197 66.6 359.66 66.2267 360.2 65.96C360.74 65.6867 361.347 65.55 362.02 65.55C362.593 65.55 363.083 65.64 363.49 65.82C363.897 66 364.26 66.2433 364.58 66.55V61.14H367.05ZM374.908 71.62C374.194 71.6533 373.594 71.7167 373.108 71.81C372.621 71.8967 372.231 72.01 371.938 72.15C371.644 72.29 371.434 72.4533 371.308 72.64C371.181 72.8267 371.118 73.03 371.118 73.25C371.118 73.6833 371.244 73.9933 371.498 74.18C371.758 74.3667 372.094 74.46 372.508 74.46C373.014 74.46 373.451 74.37 373.818 74.19C374.191 74.0033 374.554 73.7233 374.908 73.35V71.62ZM369.248 67.17C370.428 66.09 371.848 65.55 373.508 65.55C374.108 65.55 374.644 65.65 375.118 65.85C375.591 66.0433 375.991 66.3167 376.318 66.67C376.644 67.0167 376.891 67.4333 377.058 67.92C377.231 68.4067 377.318 68.94 377.318 69.52V76H376.198C375.964 76 375.784 75.9667 375.658 75.9C375.531 75.8267 375.431 75.6833 375.358 75.47L375.138 74.73C374.878 74.9633 374.624 75.17 374.378 75.35C374.131 75.5233 373.874 75.67 373.608 75.79C373.341 75.91 373.054 76 372.748 76.06C372.448 76.1267 372.114 76.16 371.748 76.16C371.314 76.16 370.914 76.1033 370.548 75.99C370.181 75.87 369.864 75.6933 369.598 75.46C369.331 75.2267 369.124 74.9367 368.978 74.59C368.831 74.2433 368.758 73.84 368.758 73.38C368.758 73.12 368.801 72.8633 368.888 72.61C368.974 72.35 369.114 72.1033 369.308 71.87C369.508 71.6367 369.764 71.4167 370.078 71.21C370.391 71.0033 370.774 70.8233 371.228 70.67C371.688 70.5167 372.221 70.3933 372.828 70.3C373.434 70.2 374.128 70.14 374.908 70.12V69.52C374.908 68.8333 374.761 68.3267 374.468 68C374.174 67.6667 373.751 67.5 373.198 67.5C372.798 67.5 372.464 67.5467 372.198 67.64C371.938 67.7333 371.708 67.84 371.508 67.96C371.308 68.0733 371.124 68.1767 370.958 68.27C370.798 68.3633 370.618 68.41 370.418 68.41C370.244 68.41 370.098 68.3667 369.978 68.28C369.858 68.1867 369.761 68.08 369.688 67.96L369.248 67.17ZM386.977 73.34C387.257 73.68 387.56 73.92 387.887 74.06C388.22 74.2 388.58 74.27 388.967 74.27C389.34 74.27 389.677 74.2 389.977 74.06C390.277 73.92 390.53 73.7067 390.737 73.42C390.95 73.1333 391.114 72.7733 391.227 72.34C391.34 71.9 391.397 71.3833 391.397 70.79C391.397 70.19 391.347 69.6833 391.247 69.27C391.154 68.85 391.017 68.51 390.837 68.25C390.657 67.99 390.437 67.8 390.177 67.68C389.924 67.56 389.634 67.5 389.307 67.5C388.794 67.5 388.357 67.61 387.997 67.83C387.637 68.0433 387.297 68.3467 386.977 68.74V73.34ZM386.847 67.14C387.267 66.6667 387.744 66.2833 388.277 65.99C388.81 65.6967 389.437 65.55 390.157 65.55C390.717 65.55 391.227 65.6667 391.687 65.9C392.154 66.1333 392.554 66.4733 392.887 66.92C393.227 67.36 393.487 67.9067 393.667 68.56C393.854 69.2067 393.947 69.95 393.947 70.79C393.947 71.5567 393.844 72.2667 393.637 72.92C393.43 73.5733 393.134 74.14 392.747 74.62C392.367 75.1 391.904 75.4767 391.357 75.75C390.817 76.0167 390.21 76.15 389.537 76.15C388.964 76.15 388.474 76.0633 388.067 75.89C387.66 75.71 387.297 75.4633 386.977 75.15V79.35H384.507V65.74H386.017C386.337 65.74 386.547 65.89 386.647 66.19L386.847 67.14ZM400.414 65.58C401.174 65.58 401.864 65.7033 402.484 65.95C403.111 66.1967 403.644 66.5467 404.084 67C404.531 67.4533 404.874 68.0067 405.114 68.66C405.354 69.3133 405.474 70.0433 405.474 70.85C405.474 71.6633 405.354 72.3967 405.114 73.05C404.874 73.7033 404.531 74.26 404.084 74.72C403.644 75.18 403.111 75.5333 402.484 75.78C401.864 76.0267 401.174 76.15 400.414 76.15C399.648 76.15 398.951 76.0267 398.324 75.78C397.698 75.5333 397.161 75.18 396.714 74.72C396.274 74.26 395.931 73.7033 395.684 73.05C395.444 72.3967 395.324 71.6633 395.324 70.85C395.324 70.0433 395.444 69.3133 395.684 68.66C395.931 68.0067 396.274 67.4533 396.714 67C397.161 66.5467 397.698 66.1967 398.324 65.95C398.951 65.7033 399.648 65.58 400.414 65.58ZM400.414 74.25C401.268 74.25 401.898 73.9633 402.304 73.39C402.718 72.8167 402.924 71.9767 402.924 70.87C402.924 69.7633 402.718 68.92 402.304 68.34C401.898 67.76 401.268 67.47 400.414 67.47C399.548 67.47 398.904 67.7633 398.484 68.35C398.071 68.93 397.864 69.77 397.864 70.87C397.864 71.97 398.071 72.81 398.484 73.39C398.904 73.9633 399.548 74.25 400.414 74.25ZM409.689 67.52C410.009 66.9067 410.389 66.4267 410.829 66.08C411.269 65.7267 411.789 65.55 412.389 65.55C412.862 65.55 413.242 65.6533 413.529 65.86L413.369 67.71C413.335 67.83 413.285 67.9167 413.219 67.97C413.159 68.0167 413.075 68.04 412.969 68.04C412.869 68.04 412.719 68.0233 412.519 67.99C412.325 67.9567 412.135 67.94 411.949 67.94C411.675 67.94 411.432 67.98 411.219 68.06C411.005 68.14 410.812 68.2567 410.639 68.41C410.472 68.5567 410.322 68.7367 410.189 68.95C410.062 69.1633 409.942 69.4067 409.829 69.68V76H407.359V65.74H408.809C409.062 65.74 409.239 65.7867 409.339 65.88C409.439 65.9667 409.505 66.1267 409.539 66.36L409.689 67.52ZM428.093 65.74V76H426.583C426.257 76 426.05 75.85 425.963 75.55L425.793 74.73C425.373 75.1567 424.91 75.5033 424.403 75.77C423.897 76.03 423.3 76.16 422.613 76.16C422.053 76.16 421.557 76.0667 421.123 75.88C420.697 75.6867 420.337 75.4167 420.043 75.07C419.75 74.7233 419.527 74.3133 419.373 73.84C419.227 73.36 419.153 72.8333 419.153 72.26V65.74H421.623V72.26C421.623 72.8867 421.767 73.3733 422.053 73.72C422.347 74.06 422.783 74.23 423.363 74.23C423.79 74.23 424.19 74.1367 424.563 73.95C424.937 73.7567 425.29 73.4933 425.623 73.16V65.74H428.093ZM432.852 67C433.059 66.7933 433.276 66.6033 433.502 66.43C433.736 66.25 433.979 66.1 434.232 65.98C434.492 65.8533 434.769 65.7567 435.062 65.69C435.356 65.6167 435.676 65.58 436.022 65.58C436.582 65.58 437.079 65.6767 437.512 65.87C437.946 66.0567 438.306 66.3233 438.592 66.67C438.886 67.01 439.106 67.42 439.252 67.9C439.406 68.3733 439.482 68.8967 439.482 69.47V76H437.012V69.47C437.012 68.8433 436.869 68.36 436.582 68.02C436.296 67.6733 435.859 67.5 435.272 67.5C434.846 67.5 434.446 67.5967 434.072 67.79C433.699 67.9833 433.346 68.2467 433.012 68.58V76H430.542V65.74H432.052C432.372 65.74 432.582 65.89 432.682 66.19L432.852 67ZM447.251 71.62C446.538 71.6533 445.938 71.7167 445.451 71.81C444.965 71.8967 444.575 72.01 444.281 72.15C443.988 72.29 443.778 72.4533 443.651 72.64C443.525 72.8267 443.461 73.03 443.461 73.25C443.461 73.6833 443.588 73.9933 443.841 74.18C444.101 74.3667 444.438 74.46 444.851 74.46C445.358 74.46 445.795 74.37 446.161 74.19C446.535 74.0033 446.898 73.7233 447.251 73.35V71.62ZM441.591 67.17C442.771 66.09 444.191 65.55 445.851 65.55C446.451 65.55 446.988 65.65 447.461 65.85C447.935 66.0433 448.335 66.3167 448.661 66.67C448.988 67.0167 449.235 67.4333 449.401 67.92C449.575 68.4067 449.661 68.94 449.661 69.52V76H448.541C448.308 76 448.128 75.9667 448.001 75.9C447.875 75.8267 447.775 75.6833 447.701 75.47L447.481 74.73C447.221 74.9633 446.968 75.17 446.721 75.35C446.475 75.5233 446.218 75.67 445.951 75.79C445.685 75.91 445.398 76 445.091 76.06C444.791 76.1267 444.458 76.16 444.091 76.16C443.658 76.16 443.258 76.1033 442.891 75.99C442.525 75.87 442.208 75.6933 441.941 75.46C441.675 75.2267 441.468 74.9367 441.321 74.59C441.175 74.2433 441.101 73.84 441.101 73.38C441.101 73.12 441.145 72.8633 441.231 72.61C441.318 72.35 441.458 72.1033 441.651 71.87C441.851 71.6367 442.108 71.4167 442.421 71.21C442.735 71.0033 443.118 70.8233 443.571 70.67C444.031 70.5167 444.565 70.3933 445.171 70.3C445.778 70.2 446.471 70.14 447.251 70.12V69.52C447.251 68.8333 447.105 68.3267 446.811 68C446.518 67.6667 446.095 67.5 445.541 67.5C445.141 67.5 444.808 67.5467 444.541 67.64C444.281 67.7333 444.051 67.84 443.851 67.96C443.651 68.0733 443.468 68.1767 443.301 68.27C443.141 68.3633 442.961 68.41 442.761 68.41C442.588 68.41 442.441 68.3667 442.321 68.28C442.201 68.1867 442.105 68.08 442.031 67.96L441.591 67.17ZM271.909 97.34C272.189 97.68 272.492 97.92 272.819 98.06C273.152 98.2 273.512 98.27 273.899 98.27C274.272 98.27 274.609 98.2 274.909 98.06C275.209 97.92 275.462 97.7067 275.669 97.42C275.882 97.1333 276.045 96.7733 276.159 96.34C276.272 95.9 276.329 95.3833 276.329 94.79C276.329 94.19 276.279 93.6833 276.179 93.27C276.085 92.85 275.949 92.51 275.769 92.25C275.589 91.99 275.369 91.8 275.109 91.68C274.855 91.56 274.565 91.5 274.239 91.5C273.725 91.5 273.289 91.61 272.929 91.83C272.569 92.0433 272.229 92.3467 271.909 92.74V97.34ZM271.779 91.14C272.199 90.6667 272.675 90.2833 273.209 89.99C273.742 89.6967 274.369 89.55 275.089 89.55C275.649 89.55 276.159 89.6667 276.619 89.9C277.085 90.1333 277.485 90.4733 277.819 90.92C278.159 91.36 278.419 91.9067 278.599 92.56C278.785 93.2067 278.879 93.95 278.879 94.79C278.879 95.5567 278.775 96.2667 278.569 96.92C278.362 97.5733 278.065 98.14 277.679 98.62C277.299 99.1 276.835 99.4767 276.289 99.75C275.749 100.017 275.142 100.15 274.469 100.15C273.895 100.15 273.405 100.063 272.999 99.89C272.592 99.71 272.229 99.4633 271.909 99.15V103.35H269.439V89.74H270.949C271.269 89.74 271.479 89.89 271.579 90.19L271.779 91.14ZM287.416 93.69C287.416 93.37 287.369 93.07 287.276 92.79C287.189 92.5033 287.056 92.2533 286.876 92.04C286.696 91.8267 286.466 91.66 286.186 91.54C285.913 91.4133 285.593 91.35 285.226 91.35C284.513 91.35 283.949 91.5533 283.536 91.96C283.129 92.3667 282.869 92.9433 282.756 93.69H287.416ZM282.706 95.18C282.746 95.7067 282.839 96.1633 282.986 96.55C283.133 96.93 283.326 97.2467 283.566 97.5C283.806 97.7467 284.089 97.9333 284.416 98.06C284.749 98.18 285.116 98.24 285.516 98.24C285.916 98.24 286.259 98.1933 286.546 98.1C286.839 98.0067 287.093 97.9033 287.306 97.79C287.526 97.6767 287.716 97.5733 287.876 97.48C288.043 97.3867 288.203 97.34 288.356 97.34C288.563 97.34 288.716 97.4167 288.816 97.57L289.526 98.47C289.253 98.79 288.946 99.06 288.606 99.28C288.266 99.4933 287.909 99.6667 287.536 99.8C287.169 99.9267 286.793 100.017 286.406 100.07C286.026 100.123 285.656 100.15 285.296 100.15C284.583 100.15 283.919 100.033 283.306 99.8C282.693 99.56 282.159 99.21 281.706 98.75C281.253 98.2833 280.896 97.71 280.636 97.03C280.376 96.3433 280.246 95.55 280.246 94.65C280.246 93.95 280.359 93.2933 280.586 92.68C280.813 92.06 281.136 91.5233 281.556 91.07C281.983 90.61 282.499 90.2467 283.106 89.98C283.719 89.7133 284.409 89.58 285.176 89.58C285.823 89.58 286.419 89.6833 286.966 89.89C287.513 90.0967 287.983 90.4 288.376 90.8C288.769 91.1933 289.076 91.68 289.296 92.26C289.523 92.8333 289.636 93.49 289.636 94.23C289.636 94.6033 289.596 94.8567 289.516 94.99C289.436 95.1167 289.283 95.18 289.056 95.18H282.706ZM293.82 91.52C294.14 90.9067 294.52 90.4267 294.96 90.08C295.4 89.7267 295.92 89.55 296.52 89.55C296.993 89.55 297.373 89.6533 297.66 89.86L297.5 91.71C297.466 91.83 297.416 91.9167 297.35 91.97C297.29 92.0167 297.206 92.04 297.1 92.04C297 92.04 296.85 92.0233 296.65 91.99C296.456 91.9567 296.266 91.94 296.08 91.94C295.806 91.94 295.563 91.98 295.35 92.06C295.136 92.14 294.943 92.2567 294.77 92.41C294.603 92.5567 294.453 92.7367 294.32 92.95C294.193 93.1633 294.073 93.4067 293.96 93.68V100H291.49V89.74H292.94C293.193 89.74 293.37 89.7867 293.47 89.88C293.57 89.9667 293.636 90.1267 293.67 90.36L293.82 91.52ZM305.171 91.74C305.105 91.8467 305.035 91.9233 304.961 91.97C304.888 92.01 304.795 92.03 304.681 92.03C304.561 92.03 304.431 91.9967 304.291 91.93C304.158 91.8633 304.001 91.79 303.821 91.71C303.641 91.6233 303.435 91.5467 303.201 91.48C302.975 91.4133 302.705 91.38 302.391 91.38C301.905 91.38 301.521 91.4833 301.241 91.69C300.968 91.8967 300.831 92.1667 300.831 92.5C300.831 92.72 300.901 92.9067 301.041 93.06C301.188 93.2067 301.378 93.3367 301.611 93.45C301.851 93.5633 302.121 93.6667 302.421 93.76C302.721 93.8467 303.025 93.9433 303.331 94.05C303.645 94.1567 303.951 94.28 304.251 94.42C304.551 94.5533 304.818 94.7267 305.051 94.94C305.291 95.1467 305.481 95.3967 305.621 95.69C305.768 95.9833 305.841 96.3367 305.841 96.75C305.841 97.2433 305.751 97.7 305.571 98.12C305.398 98.5333 305.138 98.8933 304.791 99.2C304.445 99.5 304.015 99.7367 303.501 99.91C302.995 100.077 302.408 100.16 301.741 100.16C301.388 100.16 301.041 100.127 300.701 100.06C300.368 100 300.045 99.9133 299.731 99.8C299.425 99.6867 299.138 99.5533 298.871 99.4C298.611 99.2467 298.381 99.08 298.181 98.9L298.751 97.96C298.825 97.8467 298.911 97.76 299.011 97.7C299.111 97.64 299.238 97.61 299.391 97.61C299.545 97.61 299.688 97.6533 299.821 97.74C299.961 97.8267 300.121 97.92 300.301 98.02C300.481 98.12 300.691 98.2133 300.931 98.3C301.178 98.3867 301.488 98.43 301.861 98.43C302.155 98.43 302.405 98.3967 302.611 98.33C302.825 98.2567 302.998 98.1633 303.131 98.05C303.271 97.9367 303.371 97.8067 303.431 97.66C303.498 97.5067 303.531 97.35 303.531 97.19C303.531 96.95 303.458 96.7533 303.311 96.6C303.171 96.4467 302.981 96.3133 302.741 96.2C302.508 96.0867 302.238 95.9867 301.931 95.9C301.631 95.8067 301.321 95.7067 301.001 95.6C300.688 95.4933 300.378 95.37 300.071 95.23C299.771 95.0833 299.501 94.9 299.261 94.68C299.028 94.46 298.838 94.19 298.691 93.87C298.551 93.55 298.481 93.1633 298.481 92.71C298.481 92.29 298.565 91.89 298.731 91.51C298.898 91.13 299.141 90.8 299.461 90.52C299.788 90.2333 300.191 90.0067 300.671 89.84C301.158 89.6667 301.718 89.58 302.351 89.58C303.058 89.58 303.701 89.6967 304.281 89.93C304.861 90.1633 305.345 90.47 305.731 90.85L305.171 91.74ZM312.24 89.58C313 89.58 313.69 89.7033 314.31 89.95C314.937 90.1967 315.47 90.5467 315.91 91C316.357 91.4533 316.7 92.0067 316.94 92.66C317.18 93.3133 317.3 94.0433 317.3 94.85C317.3 95.6633 317.18 96.3967 316.94 97.05C316.7 97.7033 316.357 98.26 315.91 98.72C315.47 99.18 314.937 99.5333 314.31 99.78C313.69 100.027 313 100.15 312.24 100.15C311.474 100.15 310.777 100.027 310.15 99.78C309.524 99.5333 308.987 99.18 308.54 98.72C308.1 98.26 307.757 97.7033 307.51 97.05C307.27 96.3967 307.15 95.6633 307.15 94.85C307.15 94.0433 307.27 93.3133 307.51 92.66C307.757 92.0067 308.1 91.4533 308.54 91C308.987 90.5467 309.524 90.1967 310.15 89.95C310.777 89.7033 311.474 89.58 312.24 89.58ZM312.24 98.25C313.094 98.25 313.724 97.9633 314.13 97.39C314.544 96.8167 314.75 95.9767 314.75 94.87C314.75 93.7633 314.544 92.92 314.13 92.34C313.724 91.76 313.094 91.47 312.24 91.47C311.374 91.47 310.73 91.7633 310.31 92.35C309.897 92.93 309.69 93.77 309.69 94.87C309.69 95.97 309.897 96.81 310.31 97.39C310.73 97.9633 311.374 98.25 312.24 98.25ZM321.495 91C321.702 90.7933 321.918 90.6033 322.145 90.43C322.378 90.25 322.622 90.1 322.875 89.98C323.135 89.8533 323.412 89.7567 323.705 89.69C323.998 89.6167 324.318 89.58 324.665 89.58C325.225 89.58 325.722 89.6767 326.155 89.87C326.588 90.0567 326.948 90.3233 327.235 90.67C327.528 91.01 327.748 91.42 327.895 91.9C328.048 92.3733 328.125 92.8967 328.125 93.47V100H325.655V93.47C325.655 92.8433 325.512 92.36 325.225 92.02C324.938 91.6733 324.502 91.5 323.915 91.5C323.488 91.5 323.088 91.5967 322.715 91.79C322.342 91.9833 321.988 92.2467 321.655 92.58V100H319.185V89.74H320.695C321.015 89.74 321.225 89.89 321.325 90.19L321.495 91ZM335.894 95.62C335.181 95.6533 334.581 95.7167 334.094 95.81C333.607 95.8967 333.217 96.01 332.924 96.15C332.631 96.29 332.421 96.4533 332.294 96.64C332.167 96.8267 332.104 97.03 332.104 97.25C332.104 97.6833 332.231 97.9933 332.484 98.18C332.744 98.3667 333.081 98.46 333.494 98.46C334.001 98.46 334.437 98.37 334.804 98.19C335.177 98.0033 335.541 97.7233 335.894 97.35V95.62ZM330.234 91.17C331.414 90.09 332.834 89.55 334.494 89.55C335.094 89.55 335.631 89.65 336.104 89.85C336.577 90.0433 336.977 90.3167 337.304 90.67C337.631 91.0167 337.877 91.4333 338.044 91.92C338.217 92.4067 338.304 92.94 338.304 93.52V100H337.184C336.951 100 336.771 99.9667 336.644 99.9C336.517 99.8267 336.417 99.6833 336.344 99.47L336.124 98.73C335.864 98.9633 335.611 99.17 335.364 99.35C335.117 99.5233 334.861 99.67 334.594 99.79C334.327 99.91 334.041 100 333.734 100.06C333.434 100.127 333.101 100.16 332.734 100.16C332.301 100.16 331.901 100.103 331.534 99.99C331.167 99.87 330.851 99.6933 330.584 99.46C330.317 99.2267 330.111 98.9367 329.964 98.59C329.817 98.2433 329.744 97.84 329.744 97.38C329.744 97.12 329.787 96.8633 329.874 96.61C329.961 96.35 330.101 96.1033 330.294 95.87C330.494 95.6367 330.751 95.4167 331.064 95.21C331.377 95.0033 331.761 94.8233 332.214 94.67C332.674 94.5167 333.207 94.3933 333.814 94.3C334.421 94.2 335.114 94.14 335.894 94.12V93.52C335.894 92.8333 335.747 92.3267 335.454 92C335.161 91.6667 334.737 91.5 334.184 91.5C333.784 91.5 333.451 91.5467 333.184 91.64C332.924 91.7333 332.694 91.84 332.494 91.96C332.294 92.0733 332.111 92.1767 331.944 92.27C331.784 92.3633 331.604 92.41 331.404 92.41C331.231 92.41 331.084 92.3667 330.964 92.28C330.844 92.1867 330.747 92.08 330.674 91.96L330.234 91.17ZM352.103 93.69C352.103 93.37 352.057 93.07 351.963 92.79C351.877 92.5033 351.743 92.2533 351.563 92.04C351.383 91.8267 351.153 91.66 350.873 91.54C350.6 91.4133 350.28 91.35 349.913 91.35C349.2 91.35 348.637 91.5533 348.223 91.96C347.817 92.3667 347.557 92.9433 347.443 93.69H352.103ZM347.393 95.18C347.433 95.7067 347.527 96.1633 347.673 96.55C347.82 96.93 348.013 97.2467 348.253 97.5C348.493 97.7467 348.777 97.9333 349.103 98.06C349.437 98.18 349.803 98.24 350.203 98.24C350.603 98.24 350.947 98.1933 351.233 98.1C351.527 98.0067 351.78 97.9033 351.993 97.79C352.213 97.6767 352.403 97.5733 352.563 97.48C352.73 97.3867 352.89 97.34 353.043 97.34C353.25 97.34 353.403 97.4167 353.503 97.57L354.213 98.47C353.94 98.79 353.633 99.06 353.293 99.28C352.953 99.4933 352.597 99.6667 352.223 99.8C351.857 99.9267 351.48 100.017 351.093 100.07C350.713 100.123 350.343 100.15 349.983 100.15C349.27 100.15 348.607 100.033 347.993 99.8C347.38 99.56 346.847 99.21 346.393 98.75C345.94 98.2833 345.583 97.71 345.323 97.03C345.063 96.3433 344.933 95.55 344.933 94.65C344.933 93.95 345.047 93.2933 345.273 92.68C345.5 92.06 345.823 91.5233 346.243 91.07C346.67 90.61 347.187 90.2467 347.793 89.98C348.407 89.7133 349.097 89.58 349.863 89.58C350.51 89.58 351.107 89.6833 351.653 89.89C352.2 90.0967 352.67 90.4 353.063 90.8C353.457 91.1933 353.763 91.68 353.983 92.26C354.21 92.8333 354.323 93.49 354.323 94.23C354.323 94.6033 354.283 94.8567 354.203 94.99C354.123 95.1167 353.97 95.18 353.743 95.18H347.393ZM358.487 91C358.694 90.7933 358.91 90.6033 359.137 90.43C359.37 90.25 359.614 90.1 359.867 89.98C360.127 89.8533 360.404 89.7567 360.697 89.69C360.99 89.6167 361.31 89.58 361.657 89.58C362.217 89.58 362.714 89.6767 363.147 89.87C363.58 90.0567 363.94 90.3233 364.227 90.67C364.52 91.01 364.74 91.42 364.887 91.9C365.04 92.3733 365.117 92.8967 365.117 93.47V100H362.647V93.47C362.647 92.8433 362.504 92.36 362.217 92.02C361.93 91.6733 361.494 91.5 360.907 91.5C360.48 91.5 360.08 91.5967 359.707 91.79C359.334 91.9833 358.98 92.2467 358.647 92.58V100H356.177V89.74H357.687C358.007 89.74 358.217 89.89 358.317 90.19L358.487 91ZM381.169 89.74V100H379.659C379.333 100 379.126 99.85 379.039 99.55L378.869 98.73C378.449 99.1567 377.986 99.5033 377.479 99.77C376.973 100.03 376.376 100.16 375.689 100.16C375.129 100.16 374.633 100.067 374.199 99.88C373.773 99.6867 373.413 99.4167 373.119 99.07C372.826 98.7233 372.603 98.3133 372.449 97.84C372.303 97.36 372.229 96.8333 372.229 96.26V89.74H374.699V96.26C374.699 96.8867 374.843 97.3733 375.129 97.72C375.423 98.06 375.859 98.23 376.439 98.23C376.866 98.23 377.266 98.1367 377.639 97.95C378.013 97.7567 378.366 97.4933 378.699 97.16V89.74H381.169ZM385.928 91C386.135 90.7933 386.352 90.6033 386.578 90.43C386.812 90.25 387.055 90.1 387.308 89.98C387.568 89.8533 387.845 89.7567 388.138 89.69C388.432 89.6167 388.752 89.58 389.098 89.58C389.658 89.58 390.155 89.6767 390.588 89.87C391.022 90.0567 391.382 90.3233 391.668 90.67C391.962 91.01 392.182 91.42 392.328 91.9C392.482 92.3733 392.558 92.8967 392.558 93.47V100H390.088V93.47C390.088 92.8433 389.945 92.36 389.658 92.02C389.372 91.6733 388.935 91.5 388.348 91.5C387.922 91.5 387.522 91.5967 387.148 91.79C386.775 91.9833 386.422 92.2467 386.088 92.58V100H383.618V89.74H385.128C385.448 89.74 385.658 89.89 385.758 90.19L385.928 91ZM399.771 100V89.74H401.281C401.601 89.74 401.811 89.89 401.911 90.19L402.071 90.95C402.251 90.75 402.437 90.5667 402.631 90.4C402.831 90.2333 403.041 90.09 403.261 89.97C403.487 89.85 403.727 89.7567 403.981 89.69C404.241 89.6167 404.524 89.58 404.831 89.58C405.477 89.58 406.007 89.7567 406.421 90.11C406.841 90.4567 407.154 90.92 407.361 91.5C407.521 91.16 407.721 90.87 407.961 90.63C408.201 90.3833 408.464 90.1833 408.751 90.03C409.037 89.8767 409.341 89.7633 409.661 89.69C409.987 89.6167 410.314 89.58 410.641 89.58C411.207 89.58 411.711 89.6667 412.151 89.84C412.591 90.0133 412.961 90.2667 413.261 90.6C413.561 90.9333 413.787 91.34 413.941 91.82C414.101 92.3 414.181 92.85 414.181 93.47V100H411.711V93.47C411.711 92.8167 411.567 92.3267 411.281 92C410.994 91.6667 410.574 91.5 410.021 91.5C409.767 91.5 409.531 91.5433 409.311 91.63C409.097 91.7167 408.907 91.8433 408.741 92.01C408.581 92.17 408.454 92.3733 408.361 92.62C408.267 92.8667 408.221 93.15 408.221 93.47V100H405.741V93.47C405.741 92.7833 405.601 92.2833 405.321 91.97C405.047 91.6567 404.644 91.5 404.111 91.5C403.751 91.5 403.414 91.59 403.101 91.77C402.794 91.9433 402.507 92.1833 402.241 92.49V100H399.771ZM423.139 93.69C423.139 93.37 423.092 93.07 422.999 92.79C422.912 92.5033 422.779 92.2533 422.599 92.04C422.419 91.8267 422.189 91.66 421.909 91.54C421.635 91.4133 421.315 91.35 420.949 91.35C420.235 91.35 419.672 91.5533 419.259 91.96C418.852 92.3667 418.592 92.9433 418.479 93.69H423.139ZM418.429 95.18C418.469 95.7067 418.562 96.1633 418.709 96.55C418.855 96.93 419.049 97.2467 419.289 97.5C419.529 97.7467 419.812 97.9333 420.139 98.06C420.472 98.18 420.839 98.24 421.239 98.24C421.639 98.24 421.982 98.1933 422.269 98.1C422.562 98.0067 422.815 97.9033 423.029 97.79C423.249 97.6767 423.439 97.5733 423.599 97.48C423.765 97.3867 423.925 97.34 424.079 97.34C424.285 97.34 424.439 97.4167 424.539 97.57L425.249 98.47C424.975 98.79 424.669 99.06 424.329 99.28C423.989 99.4933 423.632 99.6667 423.259 99.8C422.892 99.9267 422.515 100.017 422.129 100.07C421.749 100.123 421.379 100.15 421.019 100.15C420.305 100.15 419.642 100.033 419.029 99.8C418.415 99.56 417.882 99.21 417.429 98.75C416.975 98.2833 416.619 97.71 416.359 97.03C416.099 96.3433 415.969 95.55 415.969 94.65C415.969 93.95 416.082 93.2933 416.309 92.68C416.535 92.06 416.859 91.5233 417.279 91.07C417.705 90.61 418.222 90.2467 418.829 89.98C419.442 89.7133 420.132 89.58 420.899 89.58C421.545 89.58 422.142 89.6833 422.689 89.89C423.235 90.0967 423.705 90.4 424.099 90.8C424.492 91.1933 424.799 91.68 425.019 92.26C425.245 92.8333 425.359 93.49 425.359 94.23C425.359 94.6033 425.319 94.8567 425.239 94.99C425.159 95.1167 425.005 95.18 424.779 95.18H418.429ZM433.472 91.74C433.406 91.8467 433.336 91.9233 433.262 91.97C433.189 92.01 433.096 92.03 432.982 92.03C432.862 92.03 432.732 91.9967 432.592 91.93C432.459 91.8633 432.302 91.79 432.122 91.71C431.942 91.6233 431.736 91.5467 431.502 91.48C431.276 91.4133 431.006 91.38 430.692 91.38C430.206 91.38 429.822 91.4833 429.542 91.69C429.269 91.8967 429.132 92.1667 429.132 92.5C429.132 92.72 429.202 92.9067 429.342 93.06C429.489 93.2067 429.679 93.3367 429.912 93.45C430.152 93.5633 430.422 93.6667 430.722 93.76C431.022 93.8467 431.326 93.9433 431.632 94.05C431.946 94.1567 432.252 94.28 432.552 94.42C432.852 94.5533 433.119 94.7267 433.352 94.94C433.592 95.1467 433.782 95.3967 433.922 95.69C434.069 95.9833 434.142 96.3367 434.142 96.75C434.142 97.2433 434.052 97.7 433.872 98.12C433.699 98.5333 433.439 98.8933 433.092 99.2C432.746 99.5 432.316 99.7367 431.802 99.91C431.296 100.077 430.709 100.16 430.042 100.16C429.689 100.16 429.342 100.127 429.002 100.06C428.669 100 428.346 99.9133 428.032 99.8C427.726 99.6867 427.439 99.5533 427.172 99.4C426.912 99.2467 426.682 99.08 426.482 98.9L427.052 97.96C427.126 97.8467 427.212 97.76 427.312 97.7C427.412 97.64 427.539 97.61 427.692 97.61C427.846 97.61 427.989 97.6533 428.122 97.74C428.262 97.8267 428.422 97.92 428.602 98.02C428.782 98.12 428.992 98.2133 429.232 98.3C429.479 98.3867 429.789 98.43 430.162 98.43C430.456 98.43 430.706 98.3967 430.912 98.33C431.126 98.2567 431.299 98.1633 431.432 98.05C431.572 97.9367 431.672 97.8067 431.732 97.66C431.799 97.5067 431.832 97.35 431.832 97.19C431.832 96.95 431.759 96.7533 431.612 96.6C431.472 96.4467 431.282 96.3133 431.042 96.2C430.809 96.0867 430.539 95.9867 430.232 95.9C429.932 95.8067 429.622 95.7067 429.302 95.6C428.989 95.4933 428.679 95.37 428.372 95.23C428.072 95.0833 427.802 94.9 427.562 94.68C427.329 94.46 427.139 94.19 426.992 93.87C426.852 93.55 426.782 93.1633 426.782 92.71C426.782 92.29 426.866 91.89 427.032 91.51C427.199 91.13 427.442 90.8 427.762 90.52C428.089 90.2333 428.492 90.0067 428.972 89.84C429.459 89.6667 430.019 89.58 430.652 89.58C431.359 89.58 432.002 89.6967 432.582 89.93C433.162 90.1633 433.646 90.47 434.032 90.85L433.472 91.74Z" fill="white"/>
<path d="M55.5 19C70.8238 19 84.6999 24.7097 94.7434 33.9385C104.786 43.1673 111 55.919 111 70C111 84.081 104.786 96.8323 94.7434 106.062C84.7003 115.29 70.8234 121 55.5 121C40.1766 121 26.3001 115.29 16.2566 106.062C6.21349 96.8327 0 84.081 0 70C0 55.919 6.21349 43.1677 16.2566 33.9385C26.2997 24.7097 40.1766 19 55.5 19ZM55.5 36.7298C62.0689 36.7298 68.0205 39.1796 72.3266 43.1367C76.633 47.0939 79.2988 52.5629 79.2988 58.5998C79.2988 63.7527 77.3543 68.493 74.1067 72.2312C79.1247 74.9672 83.3716 78.7733 86.4685 83.3088C90.0006 88.4804 92.0426 94.5935 92.0426 101.128V102.475C100.889 94.0712 106.334 82.6201 106.334 70.0008C106.334 57.0994 100.644 45.4202 91.4457 36.9678C82.2483 28.5162 69.537 23.2871 55.4981 23.2871C41.4584 23.2871 28.7487 28.5154 19.5505 36.9678C10.3531 45.4195 4.66261 57.1002 4.66261 70.0008C4.66261 82.6211 10.1074 94.0724 18.9536 102.475V101.128C18.9536 94.5907 20.9957 88.4811 24.5277 83.3088C27.623 78.7748 31.87 74.967 36.8887 72.2325C33.6404 68.4928 31.6966 63.7533 31.6966 58.6003C31.6966 52.5633 34.3626 47.0935 38.6688 43.1372C42.9752 39.18 48.9282 36.7304 55.4962 36.7304L55.5 36.7298ZM87.3773 106.391V101.126C87.3773 95.4091 85.6019 90.0807 82.5325 85.5855C79.6242 81.3264 75.5545 77.802 70.7377 75.3889C66.6062 78.5598 61.2906 80.4685 55.4994 80.4685C49.7006 80.4685 44.3834 78.5606 40.2553 75.3919C35.4398 77.805 31.3735 81.3279 28.466 85.5863C25.3967 90.0807 23.6212 95.4086 23.6212 101.127V106.391C32.3395 112.848 43.4278 116.714 55.4985 116.714C67.5693 116.714 78.6586 112.848 87.3759 106.391L87.3773 106.391ZM69.029 46.1656C65.5685 42.9857 60.7832 41.0165 55.4994 41.0165C50.2155 41.0165 45.4286 42.9857 41.9681 46.1656C38.5076 49.3455 36.3646 53.7428 36.3646 58.5998C36.3646 63.4552 38.5076 67.8525 41.9681 71.0324C45.4286 74.2123 50.2138 76.1815 55.4994 76.1815C60.6246 76.1815 65.2749 74.3356 68.7013 71.332L68.8289 71.2191L68.9257 71.1332L69.029 71.0323C72.4895 67.8524 74.6325 63.4551 74.6325 58.5997C74.6325 53.7427 72.4894 49.3455 69.029 46.1656Z" fill="#C837AB" fill-opacity="0.9"/>
<path d="M146.461 62.765L144.711 64.935C145.691 64.445 146.741 64.0717 147.861 63.815C149.005 63.535 150.23 63.395 151.536 63.395C153.45 63.395 155.305 63.71 157.101 64.34C158.921 64.97 160.52 65.9267 161.896 67.21C163.273 68.47 164.381 70.045 165.221 71.935C166.061 73.825 166.481 76.03 166.481 78.55C166.481 80.9067 166.05 83.1233 165.186 85.2C164.323 87.2533 163.11 89.05 161.546 90.59C159.983 92.13 158.093 93.3433 155.876 94.23C153.683 95.1167 151.256 95.56 148.596 95.56C145.89 95.56 143.463 95.1283 141.316 94.265C139.17 93.4017 137.338 92.2 135.821 90.66C134.305 89.0967 133.138 87.23 132.321 85.06C131.528 82.8667 131.131 80.44 131.131 77.78C131.131 75.4 131.61 72.9617 132.566 70.465C133.546 67.945 135.051 65.3317 137.081 62.625L149.156 46.42C149.576 45.86 150.183 45.3817 150.976 44.985C151.793 44.5883 152.726 44.39 153.776 44.39H161.476L146.461 62.765ZM148.421 88.49C149.798 88.49 151.058 88.2567 152.201 87.79C153.368 87.3233 154.36 86.67 155.176 85.83C156.016 84.99 156.67 84.01 157.136 82.89C157.603 81.7467 157.836 80.51 157.836 79.18C157.836 77.7333 157.615 76.4383 157.171 75.295C156.728 74.1283 156.098 73.1483 155.281 72.355C154.465 71.5383 153.485 70.92 152.341 70.5C151.198 70.08 149.938 69.87 148.561 69.87C147.185 69.87 145.936 70.1033 144.816 70.57C143.696 71.0367 142.74 71.69 141.946 72.53C141.153 73.3467 140.535 74.3267 140.091 75.47C139.648 76.59 139.426 77.8033 139.426 79.11C139.426 80.51 139.613 81.7933 139.986 82.96C140.383 84.1033 140.955 85.0833 141.701 85.9C142.471 86.7167 143.416 87.3583 144.536 87.825C145.656 88.2683 146.951 88.49 148.421 88.49ZM172.927 103.575C172.507 103.225 172.297 102.793 172.297 102.28C172.297 102.093 172.355 101.883 172.472 101.65C172.612 101.417 172.775 101.207 172.962 101.02C173.219 100.74 173.534 100.39 173.907 99.97C174.28 99.5733 174.654 99.1067 175.027 98.57C175.4 98.0567 175.739 97.485 176.042 96.855C176.369 96.2483 176.614 95.595 176.777 94.895C176.03 94.895 175.354 94.7667 174.747 94.51C174.14 94.23 173.615 93.8567 173.172 93.39C172.752 92.9233 172.414 92.375 172.157 91.745C171.924 91.115 171.807 90.4267 171.807 89.68C171.807 89.0267 171.924 88.42 172.157 87.86C172.414 87.2767 172.764 86.775 173.207 86.355C173.65 85.9117 174.187 85.5733 174.817 85.34C175.447 85.0833 176.135 84.955 176.882 84.955C177.769 84.955 178.539 85.1183 179.192 85.445C179.869 85.7483 180.417 86.18 180.837 86.74C181.28 87.2767 181.607 87.9067 181.817 88.63C182.05 89.33 182.167 90.0767 182.167 90.87C182.167 91.99 181.992 93.1683 181.642 94.405C181.315 95.6417 180.825 96.8783 180.172 98.115C179.519 99.3517 178.702 100.553 177.722 101.72C176.765 102.887 175.669 103.96 174.432 104.94L172.927 103.575ZM203.473 62.765L201.723 64.935C202.703 64.445 203.753 64.0717 204.873 63.815C206.016 63.535 207.241 63.395 208.548 63.395C210.461 63.395 212.316 63.71 214.113 64.34C215.933 64.97 217.531 65.9267 218.908 67.21C220.285 68.47 221.393 70.045 222.233 71.935C223.073 73.825 223.493 76.03 223.493 78.55C223.493 80.9067 223.061 83.1233 222.198 85.2C221.335 87.2533 220.121 89.05 218.558 90.59C216.995 92.13 215.105 93.3433 212.888 94.23C210.695 95.1167 208.268 95.56 205.608 95.56C202.901 95.56 200.475 95.1283 198.328 94.265C196.181 93.4017 194.35 92.2 192.833 90.66C191.316 89.0967 190.15 87.23 189.333 85.06C188.54 82.8667 188.143 80.44 188.143 77.78C188.143 75.4 188.621 72.9617 189.578 70.465C190.558 67.945 192.063 65.3317 194.093 62.625L206.168 46.42C206.588 45.86 207.195 45.3817 207.988 44.985C208.805 44.5883 209.738 44.39 210.788 44.39H218.488L203.473 62.765ZM205.433 88.49C206.81 88.49 208.07 88.2567 209.213 87.79C210.38 87.3233 211.371 86.67 212.188 85.83C213.028 84.99 213.681 84.01 214.148 82.89C214.615 81.7467 214.848 80.51 214.848 79.18C214.848 77.7333 214.626 76.4383 214.183 75.295C213.74 74.1283 213.11 73.1483 212.293 72.355C211.476 71.5383 210.496 70.92 209.353 70.5C208.21 70.08 206.95 69.87 205.573 69.87C204.196 69.87 202.948 70.1033 201.828 70.57C200.708 71.0367 199.751 71.69 198.958 72.53C198.165 73.3467 197.546 74.3267 197.103 75.47C196.66 76.59 196.438 77.8033 196.438 79.11C196.438 80.51 196.625 81.7933 196.998 82.96C197.395 84.1033 197.966 85.0833 198.713 85.9C199.483 86.7167 200.428 87.3583 201.548 87.825C202.668 88.2683 203.963 88.49 205.433 88.49Z" fill="#C837AB" fill-opacity="0.9"/>
</svg>
