<svg width="435" height="89" viewBox="0 0 435 89" fill="none" xmlns="http://www.w3.org/2000/svg">
<g filter="url(#filter0_d_222_101)">
<path d="M41.85 43.695C41.85 48.105 41.3717 51.9433 40.415 55.21C39.4817 58.4533 38.175 61.1367 36.495 63.26C34.8383 65.3833 32.8667 66.97 30.58 68.02C28.3167 69.0467 25.8667 69.56 23.23 69.56C20.5933 69.56 18.1433 69.0467 15.88 68.02C13.64 66.97 11.6917 65.3833 10.035 63.26C8.37833 61.1367 7.08333 58.4533 6.15 55.21C5.21667 51.9433 4.75 48.105 4.75 43.695C4.75 39.2617 5.21667 35.4233 6.15 32.18C7.08333 28.9367 8.37833 26.2533 10.035 24.13C11.6917 22.0067 13.64 20.4317 15.88 19.405C18.1433 18.355 20.5933 17.83 23.23 17.83C25.8667 17.83 28.3167 18.355 30.58 19.405C32.8667 20.4317 34.8383 22.0067 36.495 24.13C38.175 26.2533 39.4817 28.9367 40.415 32.18C41.3717 35.4233 41.85 39.2617 41.85 43.695ZM32.925 43.695C32.925 40.0317 32.6567 36.9983 32.12 34.595C31.5833 32.1917 30.86 30.2783 29.95 28.855C29.0633 27.4317 28.0367 26.44 26.87 25.88C25.7033 25.2967 24.49 25.005 23.23 25.005C21.9933 25.005 20.7917 25.2967 19.625 25.88C18.4817 26.44 17.4667 27.4317 16.58 28.855C15.6933 30.2783 14.9817 32.1917 14.445 34.595C13.9317 36.9983 13.675 40.0317 13.675 43.695C13.675 47.3583 13.9317 50.3917 14.445 52.795C14.9817 55.1983 15.6933 57.1117 16.58 58.535C17.4667 59.9583 18.4817 60.9617 19.625 61.545C20.7917 62.105 21.9933 62.385 23.23 62.385C24.49 62.385 25.7033 62.105 26.87 61.545C28.0367 60.9617 29.0633 59.9583 29.95 58.535C30.86 57.1117 31.5833 55.1983 32.12 52.795C32.6567 50.3917 32.925 47.3583 32.925 43.695ZM64.6755 17.83C67.0088 17.83 69.1438 18.18 71.0805 18.88C73.0171 19.5567 74.6738 20.525 76.0505 21.785C77.4271 23.045 78.5005 24.5617 79.2705 26.335C80.0405 28.1083 80.4255 30.08 80.4255 32.25C80.4255 34.1167 80.1455 35.8433 79.5855 37.43C79.0488 39.0167 78.3138 40.5333 77.3805 41.98C76.4705 43.4267 75.3971 44.8267 74.1605 46.18C72.9238 47.5333 71.6288 48.91 70.2755 50.31L58.8655 61.965C59.9855 61.6383 61.0821 61.3933 62.1555 61.23C63.2288 61.0433 64.2555 60.95 65.2355 60.95H78.2205C79.1538 60.95 79.8888 61.2183 80.4255 61.755C80.9855 62.2683 81.2655 62.9567 81.2655 63.82V69H46.5455V66.13C46.5455 65.5467 46.6621 64.94 46.8955 64.31C47.1521 63.68 47.5488 63.0967 48.0855 62.56L63.4505 47.16C64.7338 45.8533 65.8771 44.605 66.8805 43.415C67.9071 42.225 68.7588 41.0467 69.4355 39.88C70.1355 38.7133 70.6605 37.535 71.0105 36.345C71.3838 35.1317 71.5705 33.86 71.5705 32.53C71.5705 31.3167 71.3955 30.255 71.0455 29.345C70.6955 28.4117 70.1938 27.63 69.5405 27C68.8871 26.37 68.1055 25.9033 67.1955 25.6C66.3088 25.2733 65.3055 25.11 64.1855 25.11C62.1088 25.11 60.3938 25.635 59.0405 26.685C57.7105 27.735 56.7771 29.1467 56.2405 30.92C55.9838 31.8067 55.5988 32.4483 55.0855 32.845C54.5721 33.2183 53.9188 33.405 53.1255 33.405C52.7755 33.405 52.3905 33.37 51.9705 33.3L47.4205 32.495C47.7705 30.0683 48.4471 27.945 49.4505 26.125C50.4538 24.2817 51.7021 22.7533 53.1955 21.54C54.7121 20.3033 56.4388 19.3817 58.3755 18.775C60.3355 18.145 62.4355 17.83 64.6755 17.83ZM88.1659 64.24C88.1659 63.5167 88.2943 62.8283 88.5509 62.175C88.8309 61.5217 89.2043 60.9617 89.6709 60.495C90.1609 60.0283 90.7326 59.655 91.3859 59.375C92.0393 59.095 92.7393 58.955 93.4859 58.955C94.2093 58.955 94.8976 59.095 95.5509 59.375C96.2043 59.655 96.7643 60.0283 97.2309 60.495C97.6976 60.9617 98.0709 61.5217 98.3509 62.175C98.6309 62.8283 98.7709 63.5167 98.7709 64.24C98.7709 64.9867 98.6309 65.6867 98.3509 66.34C98.0709 66.97 97.6976 67.5183 97.2309 67.985C96.7643 68.4517 96.2043 68.8133 95.5509 69.07C94.8976 69.35 94.2093 69.49 93.4859 69.49C92.7393 69.49 92.0393 69.35 91.3859 69.07C90.7326 68.8133 90.1609 68.4517 89.6709 67.985C89.2043 67.5183 88.8309 66.97 88.5509 66.34C88.2943 65.6867 88.1659 64.9867 88.1659 64.24ZM88.1659 39.285C88.1659 38.5617 88.2943 37.8733 88.5509 37.22C88.8309 36.5667 89.2043 36.0067 89.6709 35.54C90.1609 35.0733 90.7326 34.7 91.3859 34.42C92.0393 34.14 92.7393 34 93.4859 34C94.2093 34 94.8976 34.14 95.5509 34.42C96.2043 34.7 96.7643 35.0733 97.2309 35.54C97.6976 36.0067 98.0709 36.5667 98.3509 37.22C98.6309 37.8733 98.7709 38.5617 98.7709 39.285C98.7709 40.0317 98.6309 40.7317 98.3509 41.385C98.0709 42.015 97.6976 42.5633 97.2309 43.03C96.7643 43.4967 96.2043 43.87 95.5509 44.15C94.8976 44.4067 94.2093 44.535 93.4859 44.535C92.7393 44.535 92.0393 44.4067 91.3859 44.15C90.7326 43.87 90.1609 43.4967 89.6709 43.03C89.2043 42.5633 88.8309 42.015 88.5509 41.385C88.2943 40.7317 88.1659 40.0317 88.1659 39.285ZM123.806 17.83C126.14 17.83 128.275 18.18 130.211 18.88C132.148 19.5567 133.805 20.525 135.181 21.785C136.558 23.045 137.631 24.5617 138.401 26.335C139.171 28.1083 139.556 30.08 139.556 32.25C139.556 34.1167 139.276 35.8433 138.716 37.43C138.18 39.0167 137.445 40.5333 136.511 41.98C135.601 43.4267 134.528 44.8267 133.291 46.18C132.055 47.5333 130.76 48.91 129.406 50.31L117.996 61.965C119.116 61.6383 120.213 61.3933 121.286 61.23C122.36 61.0433 123.386 60.95 124.366 60.95H137.351C138.285 60.95 139.02 61.2183 139.556 61.755C140.116 62.2683 140.396 62.9567 140.396 63.82V69H105.676V66.13C105.676 65.5467 105.793 64.94 106.026 64.31C106.283 63.68 106.68 63.0967 107.216 62.56L122.581 47.16C123.865 45.8533 125.008 44.605 126.011 43.415C127.038 42.225 127.89 41.0467 128.566 39.88C129.266 38.7133 129.791 37.535 130.141 36.345C130.515 35.1317 130.701 33.86 130.701 32.53C130.701 31.3167 130.526 30.255 130.176 29.345C129.826 28.4117 129.325 27.63 128.671 27C128.018 26.37 127.236 25.9033 126.326 25.6C125.44 25.2733 124.436 25.11 123.316 25.11C121.24 25.11 119.525 25.635 118.171 26.685C116.841 27.735 115.908 29.1467 115.371 30.92C115.115 31.8067 114.73 32.4483 114.216 32.845C113.703 33.2183 113.05 33.405 112.256 33.405C111.906 33.405 111.521 33.37 111.101 33.3L106.551 32.495C106.901 30.0683 107.578 27.945 108.581 26.125C109.585 24.2817 110.833 22.7533 112.326 21.54C113.843 20.3033 115.57 19.3817 117.506 18.775C119.466 18.145 121.566 17.83 123.806 17.83ZM176.312 49.925H182.682V54.93C182.682 55.3967 182.53 55.805 182.227 56.155C181.923 56.4817 181.48 56.645 180.897 56.645H176.312V69H168.752V56.645H147.402C146.818 56.645 146.305 56.47 145.862 56.12C145.418 55.7467 145.138 55.2917 145.022 54.755L144.147 50.38L168.122 18.355H176.312V49.925ZM168.752 33.37C168.752 32.6233 168.775 31.8183 168.822 30.955C168.868 30.0917 168.95 29.1933 169.067 28.26L153.352 49.925H168.752V33.37Z" fill="white"/>
<path d="M211.31 24.81C211.803 24.81 212.233 24.75 212.6 24.63C212.967 24.5033 213.27 24.3267 213.51 24.1C213.757 23.8667 213.94 23.5867 214.06 23.26C214.18 22.9267 214.24 22.5567 214.24 22.15C214.24 21.7633 214.18 21.4133 214.06 21.1C213.94 20.7867 213.76 20.52 213.52 20.3C213.28 20.08 212.977 19.9133 212.61 19.8C212.243 19.68 211.81 19.62 211.31 19.62H209.3V24.81H211.31ZM211.31 17.54C212.277 17.54 213.113 17.6533 213.82 17.88C214.527 18.1067 215.11 18.4233 215.57 18.83C216.03 19.2367 216.37 19.7233 216.59 20.29C216.817 20.8567 216.93 21.4767 216.93 22.15C216.93 22.85 216.813 23.4933 216.58 24.08C216.347 24.66 215.997 25.16 215.53 25.58C215.063 26 214.477 26.3267 213.77 26.56C213.07 26.7933 212.25 26.91 211.31 26.91H209.3V32H206.61V17.54H211.31ZM220.777 23.52C221.097 22.9067 221.477 22.4267 221.917 22.08C222.357 21.7267 222.877 21.55 223.477 21.55C223.95 21.55 224.33 21.6533 224.617 21.86L224.457 23.71C224.423 23.83 224.373 23.9167 224.307 23.97C224.247 24.0167 224.163 24.04 224.057 24.04C223.957 24.04 223.807 24.0233 223.607 23.99C223.413 23.9567 223.223 23.94 223.037 23.94C222.763 23.94 222.52 23.98 222.307 24.06C222.093 24.14 221.9 24.2567 221.727 24.41C221.56 24.5567 221.41 24.7367 221.277 24.95C221.15 25.1633 221.03 25.4067 220.917 25.68V32H218.447V21.74H219.897C220.15 21.74 220.327 21.7867 220.427 21.88C220.527 21.9667 220.593 22.1267 220.627 22.36L220.777 23.52ZM230.155 21.58C230.915 21.58 231.605 21.7033 232.225 21.95C232.851 22.1967 233.385 22.5467 233.825 23C234.271 23.4533 234.615 24.0067 234.855 24.66C235.095 25.3133 235.215 26.0433 235.215 26.85C235.215 27.6633 235.095 28.3967 234.855 29.05C234.615 29.7033 234.271 30.26 233.825 30.72C233.385 31.18 232.851 31.5333 232.225 31.78C231.605 32.0267 230.915 32.15 230.155 32.15C229.388 32.15 228.691 32.0267 228.065 31.78C227.438 31.5333 226.901 31.18 226.455 30.72C226.015 30.26 225.671 29.7033 225.425 29.05C225.185 28.3967 225.065 27.6633 225.065 26.85C225.065 26.0433 225.185 25.3133 225.425 24.66C225.671 24.0067 226.015 23.4533 226.455 23C226.901 22.5467 227.438 22.1967 228.065 21.95C228.691 21.7033 229.388 21.58 230.155 21.58ZM230.155 30.25C231.008 30.25 231.638 29.9633 232.045 29.39C232.458 28.8167 232.665 27.9767 232.665 26.87C232.665 25.7633 232.458 24.92 232.045 24.34C231.638 23.76 231.008 23.47 230.155 23.47C229.288 23.47 228.645 23.7633 228.225 24.35C227.811 24.93 227.605 25.77 227.605 26.87C227.605 27.97 227.811 28.81 228.225 29.39C228.645 29.9633 229.288 30.25 230.155 30.25ZM237.099 32V21.74H238.609C238.929 21.74 239.139 21.89 239.239 22.19L239.399 22.95C239.579 22.75 239.766 22.5667 239.959 22.4C240.159 22.2333 240.369 22.09 240.589 21.97C240.816 21.85 241.056 21.7567 241.309 21.69C241.569 21.6167 241.852 21.58 242.159 21.58C242.806 21.58 243.336 21.7567 243.749 22.11C244.169 22.4567 244.482 22.92 244.689 23.5C244.849 23.16 245.049 22.87 245.289 22.63C245.529 22.3833 245.792 22.1833 246.079 22.03C246.366 21.8767 246.669 21.7633 246.989 21.69C247.316 21.6167 247.642 21.58 247.969 21.58C248.536 21.58 249.039 21.6667 249.479 21.84C249.919 22.0133 250.289 22.2667 250.589 22.6C250.889 22.9333 251.116 23.34 251.269 23.82C251.429 24.3 251.509 24.85 251.509 25.47V32H249.039V25.47C249.039 24.8167 248.896 24.3267 248.609 24C248.322 23.6667 247.902 23.5 247.349 23.5C247.096 23.5 246.859 23.5433 246.639 23.63C246.426 23.7167 246.236 23.8433 246.069 24.01C245.909 24.17 245.782 24.3733 245.689 24.62C245.596 24.8667 245.549 25.15 245.549 25.47V32H243.069V25.47C243.069 24.7833 242.929 24.2833 242.649 23.97C242.376 23.6567 241.972 23.5 241.439 23.5C241.079 23.5 240.742 23.59 240.429 23.77C240.122 23.9433 239.836 24.1833 239.569 24.49V32H237.099ZM260.467 25.69C260.467 25.37 260.42 25.07 260.327 24.79C260.24 24.5033 260.107 24.2533 259.927 24.04C259.747 23.8267 259.517 23.66 259.237 23.54C258.963 23.4133 258.643 23.35 258.277 23.35C257.563 23.35 257 23.5533 256.587 23.96C256.18 24.3667 255.92 24.9433 255.807 25.69H260.467ZM255.757 27.18C255.797 27.7067 255.89 28.1633 256.037 28.55C256.183 28.93 256.377 29.2467 256.617 29.5C256.857 29.7467 257.14 29.9333 257.467 30.06C257.8 30.18 258.167 30.24 258.567 30.24C258.967 30.24 259.31 30.1933 259.597 30.1C259.89 30.0067 260.143 29.9033 260.357 29.79C260.577 29.6767 260.767 29.5733 260.927 29.48C261.093 29.3867 261.253 29.34 261.407 29.34C261.613 29.34 261.767 29.4167 261.867 29.57L262.577 30.47C262.303 30.79 261.997 31.06 261.657 31.28C261.317 31.4933 260.96 31.6667 260.587 31.8C260.22 31.9267 259.843 32.0167 259.457 32.07C259.077 32.1233 258.707 32.15 258.347 32.15C257.633 32.15 256.97 32.0333 256.357 31.8C255.743 31.56 255.21 31.21 254.757 30.75C254.303 30.2833 253.947 29.71 253.687 29.03C253.427 28.3433 253.297 27.55 253.297 26.65C253.297 25.95 253.41 25.2933 253.637 24.68C253.863 24.06 254.187 23.5233 254.607 23.07C255.033 22.61 255.55 22.2467 256.157 21.98C256.77 21.7133 257.46 21.58 258.227 21.58C258.873 21.58 259.47 21.6833 260.017 21.89C260.563 22.0967 261.033 22.4 261.427 22.8C261.82 23.1933 262.127 23.68 262.347 24.26C262.573 24.8333 262.687 25.49 262.687 26.23C262.687 26.6033 262.647 26.8567 262.567 26.99C262.487 27.1167 262.333 27.18 262.107 27.18H255.757ZM270.98 24.36C270.7 24.02 270.394 23.78 270.06 23.64C269.734 23.5 269.38 23.43 269 23.43C268.627 23.43 268.29 23.5 267.99 23.64C267.69 23.78 267.434 23.9933 267.22 24.28C267.007 24.56 266.844 24.92 266.73 25.36C266.617 25.7933 266.56 26.3067 266.56 26.9C266.56 27.5 266.607 28.01 266.7 28.43C266.8 28.8433 266.94 29.1833 267.12 29.45C267.3 29.71 267.52 29.9 267.78 30.02C268.04 30.1333 268.33 30.19 268.65 30.19C269.164 30.19 269.6 30.0833 269.96 29.87C270.32 29.6567 270.66 29.3533 270.98 28.96V24.36ZM273.45 17.14V32H271.94C271.614 32 271.407 31.85 271.32 31.55L271.11 30.56C270.697 31.0333 270.22 31.4167 269.68 31.71C269.147 32.0033 268.524 32.15 267.81 32.15C267.25 32.15 266.737 32.0333 266.27 31.8C265.804 31.5667 265.4 31.23 265.06 30.79C264.727 30.3433 264.467 29.7933 264.28 29.14C264.1 28.4867 264.01 27.74 264.01 26.9C264.01 26.14 264.114 25.4333 264.32 24.78C264.527 24.1267 264.824 23.56 265.21 23.08C265.597 22.6 266.06 22.2267 266.6 21.96C267.14 21.6867 267.747 21.55 268.42 21.55C268.994 21.55 269.484 21.64 269.89 21.82C270.297 22 270.66 22.2433 270.98 22.55V17.14H273.45ZM278.448 21.74V32H275.968V21.74H278.448ZM278.788 18.75C278.788 18.9633 278.745 19.1633 278.658 19.35C278.571 19.5367 278.455 19.7 278.308 19.84C278.168 19.98 278.001 20.0933 277.808 20.18C277.615 20.26 277.408 20.3 277.188 20.3C276.975 20.3 276.771 20.26 276.578 20.18C276.391 20.0933 276.228 19.98 276.088 19.84C275.948 19.7 275.835 19.5367 275.748 19.35C275.668 19.1633 275.628 18.9633 275.628 18.75C275.628 18.53 275.668 18.3233 275.748 18.13C275.835 17.9367 275.948 17.77 276.088 17.63C276.228 17.49 276.391 17.38 276.578 17.3C276.771 17.2133 276.975 17.17 277.188 17.17C277.408 17.17 277.615 17.2133 277.808 17.3C278.001 17.38 278.168 17.49 278.308 17.63C278.455 17.77 278.571 17.9367 278.658 18.13C278.745 18.3233 278.788 18.53 278.788 18.75ZM285.506 21.58C286.266 21.58 286.956 21.7033 287.576 21.95C288.203 22.1967 288.736 22.5467 289.176 23C289.623 23.4533 289.966 24.0067 290.206 24.66C290.446 25.3133 290.566 26.0433 290.566 26.85C290.566 27.6633 290.446 28.3967 290.206 29.05C289.966 29.7033 289.623 30.26 289.176 30.72C288.736 31.18 288.203 31.5333 287.576 31.78C286.956 32.0267 286.266 32.15 285.506 32.15C284.739 32.15 284.043 32.0267 283.416 31.78C282.789 31.5333 282.253 31.18 281.806 30.72C281.366 30.26 281.023 29.7033 280.776 29.05C280.536 28.3967 280.416 27.6633 280.416 26.85C280.416 26.0433 280.536 25.3133 280.776 24.66C281.023 24.0067 281.366 23.4533 281.806 23C282.253 22.5467 282.789 22.1967 283.416 21.95C284.043 21.7033 284.739 21.58 285.506 21.58ZM285.506 30.25C286.359 30.25 286.989 29.9633 287.396 29.39C287.809 28.8167 288.016 27.9767 288.016 26.87C288.016 25.7633 287.809 24.92 287.396 24.34C286.989 23.76 286.359 23.47 285.506 23.47C284.639 23.47 283.996 23.7633 283.576 24.35C283.163 24.93 282.956 25.77 282.956 26.87C282.956 27.97 283.163 28.81 283.576 29.39C283.996 29.9633 284.639 30.25 285.506 30.25ZM303.754 24.36C303.474 24.02 303.167 23.78 302.834 23.64C302.507 23.5 302.154 23.43 301.774 23.43C301.4 23.43 301.064 23.5 300.764 23.64C300.464 23.78 300.207 23.9933 299.994 24.28C299.78 24.56 299.617 24.92 299.504 25.36C299.39 25.7933 299.334 26.3067 299.334 26.9C299.334 27.5 299.38 28.01 299.474 28.43C299.574 28.8433 299.714 29.1833 299.894 29.45C300.074 29.71 300.294 29.9 300.554 30.02C300.814 30.1333 301.104 30.19 301.424 30.19C301.937 30.19 302.374 30.0833 302.734 29.87C303.094 29.6567 303.434 29.3533 303.754 28.96V24.36ZM306.224 17.14V32H304.714C304.387 32 304.18 31.85 304.094 31.55L303.884 30.56C303.47 31.0333 302.994 31.4167 302.454 31.71C301.92 32.0033 301.297 32.15 300.584 32.15C300.024 32.15 299.51 32.0333 299.044 31.8C298.577 31.5667 298.174 31.23 297.834 30.79C297.5 30.3433 297.24 29.7933 297.054 29.14C296.874 28.4867 296.784 27.74 296.784 26.9C296.784 26.14 296.887 25.4333 297.094 24.78C297.3 24.1267 297.597 23.56 297.984 23.08C298.37 22.6 298.834 22.2267 299.374 21.96C299.914 21.6867 300.52 21.55 301.194 21.55C301.767 21.55 302.257 21.64 302.664 21.82C303.07 22 303.434 22.2433 303.754 22.55V17.14H306.224ZM315.271 25.69C315.271 25.37 315.225 25.07 315.131 24.79C315.045 24.5033 314.911 24.2533 314.731 24.04C314.551 23.8267 314.321 23.66 314.041 23.54C313.768 23.4133 313.448 23.35 313.081 23.35C312.368 23.35 311.805 23.5533 311.391 23.96C310.985 24.3667 310.725 24.9433 310.611 25.69H315.271ZM310.561 27.18C310.601 27.7067 310.695 28.1633 310.841 28.55C310.988 28.93 311.181 29.2467 311.421 29.5C311.661 29.7467 311.945 29.9333 312.271 30.06C312.605 30.18 312.971 30.24 313.371 30.24C313.771 30.24 314.115 30.1933 314.401 30.1C314.695 30.0067 314.948 29.9033 315.161 29.79C315.381 29.6767 315.571 29.5733 315.731 29.48C315.898 29.3867 316.058 29.34 316.211 29.34C316.418 29.34 316.571 29.4167 316.671 29.57L317.381 30.47C317.108 30.79 316.801 31.06 316.461 31.28C316.121 31.4933 315.765 31.6667 315.391 31.8C315.025 31.9267 314.648 32.0167 314.261 32.07C313.881 32.1233 313.511 32.15 313.151 32.15C312.438 32.15 311.775 32.0333 311.161 31.8C310.548 31.56 310.015 31.21 309.561 30.75C309.108 30.2833 308.751 29.71 308.491 29.03C308.231 28.3433 308.101 27.55 308.101 26.65C308.101 25.95 308.215 25.2933 308.441 24.68C308.668 24.06 308.991 23.5233 309.411 23.07C309.838 22.61 310.355 22.2467 310.961 21.98C311.575 21.7133 312.265 21.58 313.031 21.58C313.678 21.58 314.275 21.6833 314.821 21.89C315.368 22.0967 315.838 22.4 316.231 22.8C316.625 23.1933 316.931 23.68 317.151 24.26C317.378 24.8333 317.491 25.49 317.491 26.23C317.491 26.6033 317.451 26.8567 317.371 26.99C317.291 27.1167 317.138 27.18 316.911 27.18H310.561ZM326.678 22.84C327.078 22.4667 327.518 22.1633 327.998 21.93C328.478 21.6967 329.042 21.58 329.688 21.58C330.248 21.58 330.745 21.6767 331.178 21.87C331.612 22.0567 331.972 22.3233 332.258 22.67C332.552 23.01 332.772 23.42 332.918 23.9C333.072 24.3733 333.148 24.8967 333.148 25.47V32H330.678V25.47C330.678 24.8433 330.535 24.36 330.248 24.02C329.962 23.6733 329.525 23.5 328.938 23.5C328.512 23.5 328.112 23.5967 327.738 23.79C327.365 23.9833 327.012 24.2467 326.678 24.58V32H324.208V17.14H326.678V22.84ZM340.037 21.58C340.797 21.58 341.487 21.7033 342.107 21.95C342.734 22.1967 343.267 22.5467 343.707 23C344.154 23.4533 344.497 24.0067 344.737 24.66C344.977 25.3133 345.097 26.0433 345.097 26.85C345.097 27.6633 344.977 28.3967 344.737 29.05C344.497 29.7033 344.154 30.26 343.707 30.72C343.267 31.18 342.734 31.5333 342.107 31.78C341.487 32.0267 340.797 32.15 340.037 32.15C339.271 32.15 338.574 32.0267 337.947 31.78C337.321 31.5333 336.784 31.18 336.337 30.72C335.897 30.26 335.554 29.7033 335.307 29.05C335.067 28.3967 334.947 27.6633 334.947 26.85C334.947 26.0433 335.067 25.3133 335.307 24.66C335.554 24.0067 335.897 23.4533 336.337 23C336.784 22.5467 337.321 22.1967 337.947 21.95C338.574 21.7033 339.271 21.58 340.037 21.58ZM340.037 30.25C340.891 30.25 341.521 29.9633 341.927 29.39C342.341 28.8167 342.547 27.9767 342.547 26.87C342.547 25.7633 342.341 24.92 341.927 24.34C341.521 23.76 340.891 23.47 340.037 23.47C339.171 23.47 338.527 23.7633 338.107 24.35C337.694 24.93 337.487 25.77 337.487 26.87C337.487 27.97 337.694 28.81 338.107 29.39C338.527 29.9633 339.171 30.25 340.037 30.25ZM349.312 23.52C349.632 22.9067 350.012 22.4267 350.452 22.08C350.892 21.7267 351.412 21.55 352.012 21.55C352.485 21.55 352.865 21.6533 353.152 21.86L352.992 23.71C352.958 23.83 352.908 23.9167 352.842 23.97C352.782 24.0167 352.698 24.04 352.592 24.04C352.492 24.04 352.342 24.0233 352.142 23.99C351.948 23.9567 351.758 23.94 351.572 23.94C351.298 23.94 351.055 23.98 350.842 24.06C350.628 24.14 350.435 24.2567 350.262 24.41C350.095 24.5567 349.945 24.7367 349.812 24.95C349.685 25.1633 349.565 25.4067 349.452 25.68V32H346.982V21.74H348.432C348.685 21.74 348.862 21.7867 348.962 21.88C349.062 21.9667 349.128 22.1267 349.162 22.36L349.312 23.52ZM359.726 27.62C359.013 27.6533 358.413 27.7167 357.926 27.81C357.439 27.8967 357.049 28.01 356.756 28.15C356.463 28.29 356.253 28.4533 356.126 28.64C355.999 28.8267 355.936 29.03 355.936 29.25C355.936 29.6833 356.063 29.9933 356.316 30.18C356.576 30.3667 356.913 30.46 357.326 30.46C357.833 30.46 358.269 30.37 358.636 30.19C359.009 30.0033 359.373 29.7233 359.726 29.35V27.62ZM354.066 23.17C355.246 22.09 356.666 21.55 358.326 21.55C358.926 21.55 359.463 21.65 359.936 21.85C360.409 22.0433 360.809 22.3167 361.136 22.67C361.463 23.0167 361.709 23.4333 361.876 23.92C362.049 24.4067 362.136 24.94 362.136 25.52V32H361.016C360.783 32 360.603 31.9667 360.476 31.9C360.349 31.8267 360.249 31.6833 360.176 31.47L359.956 30.73C359.696 30.9633 359.443 31.17 359.196 31.35C358.949 31.5233 358.693 31.67 358.426 31.79C358.159 31.91 357.873 32 357.566 32.06C357.266 32.1267 356.933 32.16 356.566 32.16C356.133 32.16 355.733 32.1033 355.366 31.99C354.999 31.87 354.683 31.6933 354.416 31.46C354.149 31.2267 353.943 30.9367 353.796 30.59C353.649 30.2433 353.576 29.84 353.576 29.38C353.576 29.12 353.619 28.8633 353.706 28.61C353.793 28.35 353.933 28.1033 354.126 27.87C354.326 27.6367 354.583 27.4167 354.896 27.21C355.209 27.0033 355.593 26.8233 356.046 26.67C356.506 26.5167 357.039 26.3933 357.646 26.3C358.253 26.2 358.946 26.14 359.726 26.12V25.52C359.726 24.8333 359.579 24.3267 359.286 24C358.993 23.6667 358.569 23.5 358.016 23.5C357.616 23.5 357.283 23.5467 357.016 23.64C356.756 23.7333 356.526 23.84 356.326 23.96C356.126 24.0733 355.943 24.1767 355.776 24.27C355.616 24.3633 355.436 24.41 355.236 24.41C355.063 24.41 354.916 24.3667 354.796 24.28C354.676 24.1867 354.579 24.08 354.506 23.96L354.066 23.17ZM370.722 23.74C370.656 23.8467 370.586 23.9233 370.512 23.97C370.439 24.01 370.346 24.03 370.232 24.03C370.112 24.03 369.982 23.9967 369.842 23.93C369.709 23.8633 369.552 23.79 369.372 23.71C369.192 23.6233 368.986 23.5467 368.752 23.48C368.526 23.4133 368.256 23.38 367.942 23.38C367.456 23.38 367.072 23.4833 366.792 23.69C366.519 23.8967 366.382 24.1667 366.382 24.5C366.382 24.72 366.452 24.9067 366.592 25.06C366.739 25.2067 366.929 25.3367 367.162 25.45C367.402 25.5633 367.672 25.6667 367.972 25.76C368.272 25.8467 368.576 25.9433 368.882 26.05C369.196 26.1567 369.502 26.28 369.802 26.42C370.102 26.5533 370.369 26.7267 370.602 26.94C370.842 27.1467 371.032 27.3967 371.172 27.69C371.319 27.9833 371.392 28.3367 371.392 28.75C371.392 29.2433 371.302 29.7 371.122 30.12C370.949 30.5333 370.689 30.8933 370.342 31.2C369.996 31.5 369.566 31.7367 369.052 31.91C368.546 32.0767 367.959 32.16 367.292 32.16C366.939 32.16 366.592 32.1267 366.252 32.06C365.919 32 365.596 31.9133 365.282 31.8C364.976 31.6867 364.689 31.5533 364.422 31.4C364.162 31.2467 363.932 31.08 363.732 30.9L364.302 29.96C364.376 29.8467 364.462 29.76 364.562 29.7C364.662 29.64 364.789 29.61 364.942 29.61C365.096 29.61 365.239 29.6533 365.372 29.74C365.512 29.8267 365.672 29.92 365.852 30.02C366.032 30.12 366.242 30.2133 366.482 30.3C366.729 30.3867 367.039 30.43 367.412 30.43C367.706 30.43 367.956 30.3967 368.162 30.33C368.376 30.2567 368.549 30.1633 368.682 30.05C368.822 29.9367 368.922 29.8067 368.982 29.66C369.049 29.5067 369.082 29.35 369.082 29.19C369.082 28.95 369.009 28.7533 368.862 28.6C368.722 28.4467 368.532 28.3133 368.292 28.2C368.059 28.0867 367.789 27.9867 367.482 27.9C367.182 27.8067 366.872 27.7067 366.552 27.6C366.239 27.4933 365.929 27.37 365.622 27.23C365.322 27.0833 365.052 26.9 364.812 26.68C364.579 26.46 364.389 26.19 364.242 25.87C364.102 25.55 364.032 25.1633 364.032 24.71C364.032 24.29 364.116 23.89 364.282 23.51C364.449 23.13 364.692 22.8 365.012 22.52C365.339 22.2333 365.742 22.0067 366.222 21.84C366.709 21.6667 367.269 21.58 367.902 21.58C368.609 21.58 369.252 21.6967 369.832 21.93C370.412 22.1633 370.896 22.47 371.282 22.85L370.722 23.74ZM383.535 27.62C382.821 27.6533 382.221 27.7167 381.735 27.81C381.248 27.8967 380.858 28.01 380.565 28.15C380.271 28.29 380.061 28.4533 379.935 28.64C379.808 28.8267 379.745 29.03 379.745 29.25C379.745 29.6833 379.871 29.9933 380.125 30.18C380.385 30.3667 380.721 30.46 381.135 30.46C381.641 30.46 382.078 30.37 382.445 30.19C382.818 30.0033 383.181 29.7233 383.535 29.35V27.62ZM377.875 23.17C379.055 22.09 380.475 21.55 382.135 21.55C382.735 21.55 383.271 21.65 383.745 21.85C384.218 22.0433 384.618 22.3167 384.945 22.67C385.271 23.0167 385.518 23.4333 385.685 23.92C385.858 24.4067 385.945 24.94 385.945 25.52V32H384.825C384.591 32 384.411 31.9667 384.285 31.9C384.158 31.8267 384.058 31.6833 383.985 31.47L383.765 30.73C383.505 30.9633 383.251 31.17 383.005 31.35C382.758 31.5233 382.501 31.67 382.235 31.79C381.968 31.91 381.681 32 381.375 32.06C381.075 32.1267 380.741 32.16 380.375 32.16C379.941 32.16 379.541 32.1033 379.175 31.99C378.808 31.87 378.491 31.6933 378.225 31.46C377.958 31.2267 377.751 30.9367 377.605 30.59C377.458 30.2433 377.385 29.84 377.385 29.38C377.385 29.12 377.428 28.8633 377.515 28.61C377.601 28.35 377.741 28.1033 377.935 27.87C378.135 27.6367 378.391 27.4167 378.705 27.21C379.018 27.0033 379.401 26.8233 379.855 26.67C380.315 26.5167 380.848 26.3933 381.455 26.3C382.061 26.2 382.755 26.14 383.535 26.12V25.52C383.535 24.8333 383.388 24.3267 383.095 24C382.801 23.6667 382.378 23.5 381.825 23.5C381.425 23.5 381.091 23.5467 380.825 23.64C380.565 23.7333 380.335 23.84 380.135 23.96C379.935 24.0733 379.751 24.1767 379.585 24.27C379.425 24.3633 379.245 24.41 379.045 24.41C378.871 24.41 378.725 24.3667 378.605 24.28C378.485 24.1867 378.388 24.08 378.315 23.96L377.875 23.17ZM390.771 17.14V32H388.301V17.14H390.771ZM404.535 24.36C404.255 24.02 403.948 23.78 403.615 23.64C403.288 23.5 402.935 23.43 402.555 23.43C402.182 23.43 401.845 23.5 401.545 23.64C401.245 23.78 400.988 23.9933 400.775 24.28C400.562 24.56 400.398 24.92 400.285 25.36C400.172 25.7933 400.115 26.3067 400.115 26.9C400.115 27.5 400.162 28.01 400.255 28.43C400.355 28.8433 400.495 29.1833 400.675 29.45C400.855 29.71 401.075 29.9 401.335 30.02C401.595 30.1333 401.885 30.19 402.205 30.19C402.718 30.19 403.155 30.0833 403.515 29.87C403.875 29.6567 404.215 29.3533 404.535 28.96V24.36ZM407.005 17.14V32H405.495C405.168 32 404.962 31.85 404.875 31.55L404.665 30.56C404.252 31.0333 403.775 31.4167 403.235 31.71C402.702 32.0033 402.078 32.15 401.365 32.15C400.805 32.15 400.292 32.0333 399.825 31.8C399.358 31.5667 398.955 31.23 398.615 30.79C398.282 30.3433 398.022 29.7933 397.835 29.14C397.655 28.4867 397.565 27.74 397.565 26.9C397.565 26.14 397.668 25.4333 397.875 24.78C398.082 24.1267 398.378 23.56 398.765 23.08C399.152 22.6 399.615 22.2267 400.155 21.96C400.695 21.6867 401.302 21.55 401.975 21.55C402.548 21.55 403.038 21.64 403.445 21.82C403.852 22 404.215 22.2433 404.535 22.55V17.14H407.005ZM412.003 21.74V32H409.533V21.74H412.003ZM414.303 17.38L411.833 19.99C411.706 20.1233 411.583 20.2167 411.463 20.27C411.349 20.3167 411.199 20.34 411.013 20.34H409.533L410.953 17.91C411.053 17.7367 411.169 17.6067 411.303 17.52C411.436 17.4267 411.636 17.38 411.903 17.38H414.303ZM419.96 27.62C419.247 27.6533 418.647 27.7167 418.16 27.81C417.674 27.8967 417.284 28.01 416.99 28.15C416.697 28.29 416.487 28.4533 416.36 28.64C416.234 28.8267 416.17 29.03 416.17 29.25C416.17 29.6833 416.297 29.9933 416.55 30.18C416.81 30.3667 417.147 30.46 417.56 30.46C418.067 30.46 418.504 30.37 418.87 30.19C419.244 30.0033 419.607 29.7233 419.96 29.35V27.62ZM414.3 23.17C415.48 22.09 416.9 21.55 418.56 21.55C419.16 21.55 419.697 21.65 420.17 21.85C420.644 22.0433 421.044 22.3167 421.37 22.67C421.697 23.0167 421.944 23.4333 422.11 23.92C422.284 24.4067 422.37 24.94 422.37 25.52V32H421.25C421.017 32 420.837 31.9667 420.71 31.9C420.584 31.8267 420.484 31.6833 420.41 31.47L420.19 30.73C419.93 30.9633 419.677 31.17 419.43 31.35C419.184 31.5233 418.927 31.67 418.66 31.79C418.394 31.91 418.107 32 417.8 32.06C417.5 32.1267 417.167 32.16 416.8 32.16C416.367 32.16 415.967 32.1033 415.6 31.99C415.234 31.87 414.917 31.6933 414.65 31.46C414.384 31.2267 414.177 30.9367 414.03 30.59C413.884 30.2433 413.81 29.84 413.81 29.38C413.81 29.12 413.854 28.8633 413.94 28.61C414.027 28.35 414.167 28.1033 414.36 27.87C414.56 27.6367 414.817 27.4167 415.13 27.21C415.444 27.0033 415.827 26.8233 416.28 26.67C416.74 26.5167 417.274 26.3933 417.88 26.3C418.487 26.2 419.18 26.14 419.96 26.12V25.52C419.96 24.8333 419.814 24.3267 419.52 24C419.227 23.6667 418.804 23.5 418.25 23.5C417.85 23.5 417.517 23.5467 417.25 23.64C416.99 23.7333 416.76 23.84 416.56 23.96C416.36 24.0733 416.177 24.1767 416.01 24.27C415.85 24.3633 415.67 24.41 415.47 24.41C415.297 24.41 415.15 24.3667 415.03 24.28C414.91 24.1867 414.814 24.08 414.74 23.96L414.3 23.17ZM212.66 48.36C212.387 48.02 212.083 47.78 211.75 47.64C211.417 47.5 211.06 47.43 210.68 47.43C210.307 47.43 209.97 47.5 209.67 47.64C209.37 47.78 209.113 47.9933 208.9 48.28C208.687 48.56 208.523 48.92 208.41 49.36C208.297 49.7933 208.24 50.3067 208.24 50.9C208.24 51.5 208.287 52.01 208.38 52.43C208.48 52.8433 208.62 53.1833 208.8 53.45C208.98 53.71 209.2 53.9 209.46 54.02C209.72 54.1333 210.01 54.19 210.33 54.19C210.843 54.19 211.28 54.0833 211.64 53.87C212 53.6567 212.34 53.3533 212.66 52.96V48.36ZM215.13 45.74V59.35H212.66V54.7C212.253 55.1333 211.793 55.4833 211.28 55.75C210.767 56.0167 210.17 56.15 209.49 56.15C208.93 56.15 208.417 56.0333 207.95 55.8C207.483 55.5667 207.08 55.23 206.74 54.79C206.407 54.3433 206.147 53.7933 205.96 53.14C205.78 52.4867 205.69 51.74 205.69 50.9C205.69 50.14 205.793 49.4333 206 48.78C206.207 48.1267 206.503 47.56 206.89 47.08C207.277 46.6 207.74 46.2267 208.28 45.96C208.82 45.6867 209.427 45.55 210.1 45.55C210.74 45.55 211.277 45.66 211.71 45.88C212.143 46.1 212.53 46.3967 212.87 46.77L213 46.19C213.087 45.89 213.293 45.74 213.62 45.74H215.13ZM226.408 45.74V56H224.898C224.571 56 224.364 55.85 224.278 55.55L224.108 54.73C223.688 55.1567 223.224 55.5033 222.718 55.77C222.211 56.03 221.614 56.16 220.928 56.16C220.368 56.16 219.871 56.0667 219.438 55.88C219.011 55.6867 218.651 55.4167 218.358 55.07C218.064 54.7233 217.841 54.3133 217.688 53.84C217.541 53.36 217.468 52.8333 217.468 52.26V45.74H219.938V52.26C219.938 52.8867 220.081 53.3733 220.368 53.72C220.661 54.06 221.098 54.23 221.678 54.23C222.104 54.23 222.504 54.1367 222.878 53.95C223.251 53.7567 223.604 53.4933 223.938 53.16V45.74H226.408ZM235.467 49.69C235.467 49.37 235.42 49.07 235.327 48.79C235.24 48.5033 235.107 48.2533 234.927 48.04C234.747 47.8267 234.517 47.66 234.237 47.54C233.963 47.4133 233.643 47.35 233.277 47.35C232.563 47.35 232 47.5533 231.587 47.96C231.18 48.3667 230.92 48.9433 230.807 49.69H235.467ZM230.757 51.18C230.797 51.7067 230.89 52.1633 231.037 52.55C231.183 52.93 231.377 53.2467 231.617 53.5C231.857 53.7467 232.14 53.9333 232.467 54.06C232.8 54.18 233.167 54.24 233.567 54.24C233.967 54.24 234.31 54.1933 234.597 54.1C234.89 54.0067 235.143 53.9033 235.357 53.79C235.577 53.6767 235.767 53.5733 235.927 53.48C236.093 53.3867 236.253 53.34 236.407 53.34C236.613 53.34 236.767 53.4167 236.867 53.57L237.577 54.47C237.303 54.79 236.997 55.06 236.657 55.28C236.317 55.4933 235.96 55.6667 235.587 55.8C235.22 55.9267 234.843 56.0167 234.457 56.07C234.077 56.1233 233.707 56.15 233.347 56.15C232.633 56.15 231.97 56.0333 231.357 55.8C230.743 55.56 230.21 55.21 229.757 54.75C229.303 54.2833 228.947 53.71 228.687 53.03C228.427 52.3433 228.297 51.55 228.297 50.65C228.297 49.95 228.41 49.2933 228.637 48.68C228.863 48.06 229.187 47.5233 229.607 47.07C230.033 46.61 230.55 46.2467 231.157 45.98C231.77 45.7133 232.46 45.58 233.227 45.58C233.873 45.58 234.47 45.6833 235.017 45.89C235.563 46.0967 236.033 46.4 236.427 46.8C236.82 47.1933 237.127 47.68 237.347 48.26C237.573 48.8333 237.687 49.49 237.687 50.23C237.687 50.6033 237.647 50.8567 237.567 50.99C237.487 51.1167 237.333 51.18 237.107 51.18H230.757ZM253.244 45.74V56H251.734C251.407 56 251.2 55.85 251.114 55.55L250.944 54.73C250.524 55.1567 250.06 55.5033 249.554 55.77C249.047 56.03 248.45 56.16 247.764 56.16C247.204 56.16 246.707 56.0667 246.274 55.88C245.847 55.6867 245.487 55.4167 245.194 55.07C244.9 54.7233 244.677 54.3133 244.524 53.84C244.377 53.36 244.304 52.8333 244.304 52.26V45.74H246.774V52.26C246.774 52.8867 246.917 53.3733 247.204 53.72C247.497 54.06 247.934 54.23 248.514 54.23C248.94 54.23 249.34 54.1367 249.714 53.95C250.087 53.7567 250.44 53.4933 250.774 53.16V45.74H253.244ZM258.003 47C258.209 46.7933 258.426 46.6033 258.653 46.43C258.886 46.25 259.129 46.1 259.383 45.98C259.643 45.8533 259.919 45.7567 260.213 45.69C260.506 45.6167 260.826 45.58 261.173 45.58C261.733 45.58 262.229 45.6767 262.663 45.87C263.096 46.0567 263.456 46.3233 263.743 46.67C264.036 47.01 264.256 47.42 264.403 47.9C264.556 48.3733 264.633 48.8967 264.633 49.47V56H262.163V49.47C262.163 48.8433 262.019 48.36 261.733 48.02C261.446 47.6733 261.009 47.5 260.423 47.5C259.996 47.5 259.596 47.5967 259.223 47.79C258.849 47.9833 258.496 48.2467 258.163 48.58V56H255.693V45.74H257.203C257.523 45.74 257.733 45.89 257.833 46.19L258.003 47ZM272.402 51.62C271.688 51.6533 271.088 51.7167 270.602 51.81C270.115 51.8967 269.725 52.01 269.432 52.15C269.138 52.29 268.928 52.4533 268.802 52.64C268.675 52.8267 268.612 53.03 268.612 53.25C268.612 53.6833 268.738 53.9933 268.992 54.18C269.252 54.3667 269.588 54.46 270.002 54.46C270.508 54.46 270.945 54.37 271.312 54.19C271.685 54.0033 272.048 53.7233 272.402 53.35V51.62ZM266.742 47.17C267.922 46.09 269.342 45.55 271.002 45.55C271.602 45.55 272.138 45.65 272.612 45.85C273.085 46.0433 273.485 46.3167 273.812 46.67C274.138 47.0167 274.385 47.4333 274.552 47.92C274.725 48.4067 274.812 48.94 274.812 49.52V56H273.692C273.458 56 273.278 55.9667 273.152 55.9C273.025 55.8267 272.925 55.6833 272.852 55.47L272.632 54.73C272.372 54.9633 272.118 55.17 271.872 55.35C271.625 55.5233 271.368 55.67 271.102 55.79C270.835 55.91 270.548 56 270.242 56.06C269.942 56.1267 269.608 56.16 269.242 56.16C268.808 56.16 268.408 56.1033 268.042 55.99C267.675 55.87 267.358 55.6933 267.092 55.46C266.825 55.2267 266.618 54.9367 266.472 54.59C266.325 54.2433 266.252 53.84 266.252 53.38C266.252 53.12 266.295 52.8633 266.382 52.61C266.468 52.35 266.608 52.1033 266.802 51.87C267.002 51.6367 267.258 51.4167 267.572 51.21C267.885 51.0033 268.268 50.8233 268.722 50.67C269.182 50.5167 269.715 50.3933 270.322 50.3C270.928 50.2 271.622 50.14 272.402 50.12V49.52C272.402 48.8333 272.255 48.3267 271.962 48C271.668 47.6667 271.245 47.5 270.692 47.5C270.292 47.5 269.958 47.5467 269.692 47.64C269.432 47.7333 269.202 47.84 269.002 47.96C268.802 48.0733 268.618 48.1767 268.452 48.27C268.292 48.3633 268.112 48.41 267.912 48.41C267.738 48.41 267.592 48.3667 267.472 48.28C267.352 48.1867 267.255 48.08 267.182 47.96L266.742 47.17ZM284.471 53.34C284.751 53.68 285.055 53.92 285.381 54.06C285.715 54.2 286.075 54.27 286.461 54.27C286.835 54.27 287.171 54.2 287.471 54.06C287.771 53.92 288.025 53.7067 288.231 53.42C288.445 53.1333 288.608 52.7733 288.721 52.34C288.835 51.9 288.891 51.3833 288.891 50.79C288.891 50.19 288.841 49.6833 288.741 49.27C288.648 48.85 288.511 48.51 288.331 48.25C288.151 47.99 287.931 47.8 287.671 47.68C287.418 47.56 287.128 47.5 286.801 47.5C286.288 47.5 285.851 47.61 285.491 47.83C285.131 48.0433 284.791 48.3467 284.471 48.74V53.34ZM284.341 47.14C284.761 46.6667 285.238 46.2833 285.771 45.99C286.305 45.6967 286.931 45.55 287.651 45.55C288.211 45.55 288.721 45.6667 289.181 45.9C289.648 46.1333 290.048 46.4733 290.381 46.92C290.721 47.36 290.981 47.9067 291.161 48.56C291.348 49.2067 291.441 49.95 291.441 50.79C291.441 51.5567 291.338 52.2667 291.131 52.92C290.925 53.5733 290.628 54.14 290.241 54.62C289.861 55.1 289.398 55.4767 288.851 55.75C288.311 56.0167 287.705 56.15 287.031 56.15C286.458 56.15 285.968 56.0633 285.561 55.89C285.155 55.71 284.791 55.4633 284.471 55.15V59.35H282.001V45.74H283.511C283.831 45.74 284.041 45.89 284.141 46.19L284.341 47.14ZM299.978 49.69C299.978 49.37 299.932 49.07 299.838 48.79C299.752 48.5033 299.618 48.2533 299.438 48.04C299.258 47.8267 299.028 47.66 298.748 47.54C298.475 47.4133 298.155 47.35 297.788 47.35C297.075 47.35 296.512 47.5533 296.098 47.96C295.692 48.3667 295.432 48.9433 295.318 49.69H299.978ZM295.268 51.18C295.308 51.7067 295.402 52.1633 295.548 52.55C295.695 52.93 295.888 53.2467 296.128 53.5C296.368 53.7467 296.652 53.9333 296.978 54.06C297.312 54.18 297.678 54.24 298.078 54.24C298.478 54.24 298.822 54.1933 299.108 54.1C299.402 54.0067 299.655 53.9033 299.868 53.79C300.088 53.6767 300.278 53.5733 300.438 53.48C300.605 53.3867 300.765 53.34 300.918 53.34C301.125 53.34 301.278 53.4167 301.378 53.57L302.088 54.47C301.815 54.79 301.508 55.06 301.168 55.28C300.828 55.4933 300.472 55.6667 300.098 55.8C299.732 55.9267 299.355 56.0167 298.968 56.07C298.588 56.1233 298.218 56.15 297.858 56.15C297.145 56.15 296.482 56.0333 295.868 55.8C295.255 55.56 294.722 55.21 294.268 54.75C293.815 54.2833 293.458 53.71 293.198 53.03C292.938 52.3433 292.808 51.55 292.808 50.65C292.808 49.95 292.922 49.2933 293.148 48.68C293.375 48.06 293.698 47.5233 294.118 47.07C294.545 46.61 295.062 46.2467 295.668 45.98C296.282 45.7133 296.972 45.58 297.738 45.58C298.385 45.58 298.982 45.6833 299.528 45.89C300.075 46.0967 300.545 46.4 300.938 46.8C301.332 47.1933 301.638 47.68 301.858 48.26C302.085 48.8333 302.198 49.49 302.198 50.23C302.198 50.6033 302.158 50.8567 302.078 50.99C301.998 51.1167 301.845 51.18 301.618 51.18H295.268ZM306.382 47.52C306.702 46.9067 307.082 46.4267 307.522 46.08C307.962 45.7267 308.482 45.55 309.082 45.55C309.555 45.55 309.935 45.6533 310.222 45.86L310.062 47.71C310.029 47.83 309.979 47.9167 309.912 47.97C309.852 48.0167 309.769 48.04 309.662 48.04C309.562 48.04 309.412 48.0233 309.212 47.99C309.019 47.9567 308.829 47.94 308.642 47.94C308.369 47.94 308.125 47.98 307.912 48.06C307.699 48.14 307.505 48.2567 307.332 48.41C307.165 48.5567 307.015 48.7367 306.882 48.95C306.755 49.1633 306.635 49.4067 306.522 49.68V56H304.052V45.74H305.502C305.755 45.74 305.932 45.7867 306.032 45.88C306.132 45.9667 306.199 46.1267 306.232 46.36L306.382 47.52ZM317.734 47.74C317.667 47.8467 317.597 47.9233 317.524 47.97C317.451 48.01 317.357 48.03 317.244 48.03C317.124 48.03 316.994 47.9967 316.854 47.93C316.721 47.8633 316.564 47.79 316.384 47.71C316.204 47.6233 315.997 47.5467 315.764 47.48C315.537 47.4133 315.267 47.38 314.954 47.38C314.467 47.38 314.084 47.4833 313.804 47.69C313.531 47.8967 313.394 48.1667 313.394 48.5C313.394 48.72 313.464 48.9067 313.604 49.06C313.751 49.2067 313.941 49.3367 314.174 49.45C314.414 49.5633 314.684 49.6667 314.984 49.76C315.284 49.8467 315.587 49.9433 315.894 50.05C316.207 50.1567 316.514 50.28 316.814 50.42C317.114 50.5533 317.381 50.7267 317.614 50.94C317.854 51.1467 318.044 51.3967 318.184 51.69C318.331 51.9833 318.404 52.3367 318.404 52.75C318.404 53.2433 318.314 53.7 318.134 54.12C317.961 54.5333 317.701 54.8933 317.354 55.2C317.007 55.5 316.577 55.7367 316.064 55.91C315.557 56.0767 314.971 56.16 314.304 56.16C313.951 56.16 313.604 56.1267 313.264 56.06C312.931 56 312.607 55.9133 312.294 55.8C311.987 55.6867 311.701 55.5533 311.434 55.4C311.174 55.2467 310.944 55.08 310.744 54.9L311.314 53.96C311.387 53.8467 311.474 53.76 311.574 53.7C311.674 53.64 311.801 53.61 311.954 53.61C312.107 53.61 312.251 53.6533 312.384 53.74C312.524 53.8267 312.684 53.92 312.864 54.02C313.044 54.12 313.254 54.2133 313.494 54.3C313.741 54.3867 314.051 54.43 314.424 54.43C314.717 54.43 314.967 54.3967 315.174 54.33C315.387 54.2567 315.561 54.1633 315.694 54.05C315.834 53.9367 315.934 53.8067 315.994 53.66C316.061 53.5067 316.094 53.35 316.094 53.19C316.094 52.95 316.021 52.7533 315.874 52.6C315.734 52.4467 315.544 52.3133 315.304 52.2C315.071 52.0867 314.801 51.9867 314.494 51.9C314.194 51.8067 313.884 51.7067 313.564 51.6C313.251 51.4933 312.941 51.37 312.634 51.23C312.334 51.0833 312.064 50.9 311.824 50.68C311.591 50.46 311.401 50.19 311.254 49.87C311.114 49.55 311.044 49.1633 311.044 48.71C311.044 48.29 311.127 47.89 311.294 47.51C311.461 47.13 311.704 46.8 312.024 46.52C312.351 46.2333 312.754 46.0067 313.234 45.84C313.721 45.6667 314.281 45.58 314.914 45.58C315.621 45.58 316.264 45.6967 316.844 45.93C317.424 46.1633 317.907 46.47 318.294 46.85L317.734 47.74ZM324.803 45.58C325.563 45.58 326.253 45.7033 326.873 45.95C327.5 46.1967 328.033 46.5467 328.473 47C328.92 47.4533 329.263 48.0067 329.503 48.66C329.743 49.3133 329.863 50.0433 329.863 50.85C329.863 51.6633 329.743 52.3967 329.503 53.05C329.263 53.7033 328.92 54.26 328.473 54.72C328.033 55.18 327.5 55.5333 326.873 55.78C326.253 56.0267 325.563 56.15 324.803 56.15C324.036 56.15 323.34 56.0267 322.713 55.78C322.086 55.5333 321.55 55.18 321.103 54.72C320.663 54.26 320.32 53.7033 320.073 53.05C319.833 52.3967 319.713 51.6633 319.713 50.85C319.713 50.0433 319.833 49.3133 320.073 48.66C320.32 48.0067 320.663 47.4533 321.103 47C321.55 46.5467 322.086 46.1967 322.713 45.95C323.34 45.7033 324.036 45.58 324.803 45.58ZM324.803 54.25C325.656 54.25 326.286 53.9633 326.693 53.39C327.106 52.8167 327.313 51.9767 327.313 50.87C327.313 49.7633 327.106 48.92 326.693 48.34C326.286 47.76 325.656 47.47 324.803 47.47C323.936 47.47 323.293 47.7633 322.873 48.35C322.46 48.93 322.253 49.77 322.253 50.87C322.253 51.97 322.46 52.81 322.873 53.39C323.293 53.9633 323.936 54.25 324.803 54.25ZM334.057 47C334.264 46.7933 334.481 46.6033 334.707 46.43C334.941 46.25 335.184 46.1 335.437 45.98C335.697 45.8533 335.974 45.7567 336.267 45.69C336.561 45.6167 336.881 45.58 337.227 45.58C337.787 45.58 338.284 45.6767 338.717 45.87C339.151 46.0567 339.511 46.3233 339.797 46.67C340.091 47.01 340.311 47.42 340.457 47.9C340.611 48.3733 340.687 48.8967 340.687 49.47V56H338.217V49.47C338.217 48.8433 338.074 48.36 337.787 48.02C337.501 47.6733 337.064 47.5 336.477 47.5C336.051 47.5 335.651 47.5967 335.277 47.79C334.904 47.9833 334.551 48.2467 334.217 48.58V56H331.747V45.74H333.257C333.577 45.74 333.787 45.89 333.887 46.19L334.057 47ZM348.456 51.62C347.743 51.6533 347.143 51.7167 346.656 51.81C346.17 51.8967 345.78 52.01 345.486 52.15C345.193 52.29 344.983 52.4533 344.856 52.64C344.73 52.8267 344.666 53.03 344.666 53.25C344.666 53.6833 344.793 53.9933 345.046 54.18C345.306 54.3667 345.643 54.46 346.056 54.46C346.563 54.46 347 54.37 347.366 54.19C347.74 54.0033 348.103 53.7233 348.456 53.35V51.62ZM342.796 47.17C343.976 46.09 345.396 45.55 347.056 45.55C347.656 45.55 348.193 45.65 348.666 45.85C349.14 46.0433 349.54 46.3167 349.866 46.67C350.193 47.0167 350.44 47.4333 350.606 47.92C350.78 48.4067 350.866 48.94 350.866 49.52V56H349.746C349.513 56 349.333 55.9667 349.206 55.9C349.08 55.8267 348.98 55.6833 348.906 55.47L348.686 54.73C348.426 54.9633 348.173 55.17 347.926 55.35C347.68 55.5233 347.423 55.67 347.156 55.79C346.89 55.91 346.603 56 346.296 56.06C345.996 56.1267 345.663 56.16 345.296 56.16C344.863 56.16 344.463 56.1033 344.096 55.99C343.73 55.87 343.413 55.6933 343.146 55.46C342.88 55.2267 342.673 54.9367 342.526 54.59C342.38 54.2433 342.306 53.84 342.306 53.38C342.306 53.12 342.35 52.8633 342.436 52.61C342.523 52.35 342.663 52.1033 342.856 51.87C343.056 51.6367 343.313 51.4167 343.626 51.21C343.94 51.0033 344.323 50.8233 344.776 50.67C345.236 50.5167 345.77 50.3933 346.376 50.3C346.983 50.2 347.676 50.14 348.456 50.12V49.52C348.456 48.8333 348.31 48.3267 348.016 48C347.723 47.6667 347.3 47.5 346.746 47.5C346.346 47.5 346.013 47.5467 345.746 47.64C345.486 47.7333 345.256 47.84 345.056 47.96C344.856 48.0733 344.673 48.1767 344.506 48.27C344.346 48.3633 344.166 48.41 343.966 48.41C343.793 48.41 343.646 48.3667 343.526 48.28C343.406 48.1867 343.31 48.08 343.236 47.96L342.796 47.17ZM366.896 45.74V56H365.386C365.059 56 364.853 55.85 364.766 55.55L364.596 54.73C364.176 55.1567 363.713 55.5033 363.206 55.77C362.699 56.03 362.103 56.16 361.416 56.16C360.856 56.16 360.359 56.0667 359.926 55.88C359.499 55.6867 359.139 55.4167 358.846 55.07C358.553 54.7233 358.329 54.3133 358.176 53.84C358.029 53.36 357.956 52.8333 357.956 52.26V45.74H360.426V52.26C360.426 52.8867 360.569 53.3733 360.856 53.72C361.149 54.06 361.586 54.23 362.166 54.23C362.593 54.23 362.993 54.1367 363.366 53.95C363.739 53.7567 364.093 53.4933 364.426 53.16V45.74H366.896ZM375.605 47.74C375.538 47.8467 375.468 47.9233 375.395 47.97C375.322 48.01 375.228 48.03 375.115 48.03C374.995 48.03 374.865 47.9967 374.725 47.93C374.592 47.8633 374.435 47.79 374.255 47.71C374.075 47.6233 373.868 47.5467 373.635 47.48C373.408 47.4133 373.138 47.38 372.825 47.38C372.338 47.38 371.955 47.4833 371.675 47.69C371.402 47.8967 371.265 48.1667 371.265 48.5C371.265 48.72 371.335 48.9067 371.475 49.06C371.622 49.2067 371.812 49.3367 372.045 49.45C372.285 49.5633 372.555 49.6667 372.855 49.76C373.155 49.8467 373.458 49.9433 373.765 50.05C374.078 50.1567 374.385 50.28 374.685 50.42C374.985 50.5533 375.252 50.7267 375.485 50.94C375.725 51.1467 375.915 51.3967 376.055 51.69C376.202 51.9833 376.275 52.3367 376.275 52.75C376.275 53.2433 376.185 53.7 376.005 54.12C375.832 54.5333 375.572 54.8933 375.225 55.2C374.878 55.5 374.448 55.7367 373.935 55.91C373.428 56.0767 372.842 56.16 372.175 56.16C371.822 56.16 371.475 56.1267 371.135 56.06C370.802 56 370.478 55.9133 370.165 55.8C369.858 55.6867 369.572 55.5533 369.305 55.4C369.045 55.2467 368.815 55.08 368.615 54.9L369.185 53.96C369.258 53.8467 369.345 53.76 369.445 53.7C369.545 53.64 369.672 53.61 369.825 53.61C369.978 53.61 370.122 53.6533 370.255 53.74C370.395 53.8267 370.555 53.92 370.735 54.02C370.915 54.12 371.125 54.2133 371.365 54.3C371.612 54.3867 371.922 54.43 372.295 54.43C372.588 54.43 372.838 54.3967 373.045 54.33C373.258 54.2567 373.432 54.1633 373.565 54.05C373.705 53.9367 373.805 53.8067 373.865 53.66C373.932 53.5067 373.965 53.35 373.965 53.19C373.965 52.95 373.892 52.7533 373.745 52.6C373.605 52.4467 373.415 52.3133 373.175 52.2C372.942 52.0867 372.672 51.9867 372.365 51.9C372.065 51.8067 371.755 51.7067 371.435 51.6C371.122 51.4933 370.812 51.37 370.505 51.23C370.205 51.0833 369.935 50.9 369.695 50.68C369.462 50.46 369.272 50.19 369.125 49.87C368.985 49.55 368.915 49.1633 368.915 48.71C368.915 48.29 368.998 47.89 369.165 47.51C369.332 47.13 369.575 46.8 369.895 46.52C370.222 46.2333 370.625 46.0067 371.105 45.84C371.592 45.6667 372.152 45.58 372.785 45.58C373.492 45.58 374.135 45.6967 374.715 45.93C375.295 46.1633 375.778 46.47 376.165 46.85L375.605 47.74ZM383.554 51.62C382.841 51.6533 382.241 51.7167 381.754 51.81C381.267 51.8967 380.877 52.01 380.584 52.15C380.291 52.29 380.081 52.4533 379.954 52.64C379.827 52.8267 379.764 53.03 379.764 53.25C379.764 53.6833 379.891 53.9933 380.144 54.18C380.404 54.3667 380.741 54.46 381.154 54.46C381.661 54.46 382.097 54.37 382.464 54.19C382.837 54.0033 383.201 53.7233 383.554 53.35V51.62ZM377.894 47.17C379.074 46.09 380.494 45.55 382.154 45.55C382.754 45.55 383.291 45.65 383.764 45.85C384.237 46.0433 384.637 46.3167 384.964 46.67C385.291 47.0167 385.537 47.4333 385.704 47.92C385.877 48.4067 385.964 48.94 385.964 49.52V56H384.844C384.611 56 384.431 55.9667 384.304 55.9C384.177 55.8267 384.077 55.6833 384.004 55.47L383.784 54.73C383.524 54.9633 383.271 55.17 383.024 55.35C382.777 55.5233 382.521 55.67 382.254 55.79C381.987 55.91 381.701 56 381.394 56.06C381.094 56.1267 380.761 56.16 380.394 56.16C379.961 56.16 379.561 56.1033 379.194 55.99C378.827 55.87 378.511 55.6933 378.244 55.46C377.977 55.2267 377.771 54.9367 377.624 54.59C377.477 54.2433 377.404 53.84 377.404 53.38C377.404 53.12 377.447 52.8633 377.534 52.61C377.621 52.35 377.761 52.1033 377.954 51.87C378.154 51.6367 378.411 51.4167 378.724 51.21C379.037 51.0033 379.421 50.8233 379.874 50.67C380.334 50.5167 380.867 50.3933 381.474 50.3C382.081 50.2 382.774 50.14 383.554 50.12V49.52C383.554 48.8333 383.407 48.3267 383.114 48C382.821 47.6667 382.397 47.5 381.844 47.5C381.444 47.5 381.111 47.5467 380.844 47.64C380.584 47.7333 380.354 47.84 380.154 47.96C379.954 48.0733 379.771 48.1767 379.604 48.27C379.444 48.3633 379.264 48.41 379.064 48.41C378.891 48.41 378.744 48.3667 378.624 48.28C378.504 48.1867 378.407 48.08 378.334 47.96L377.894 47.17ZM208.55 71.52C208.87 70.9067 209.25 70.4267 209.69 70.08C210.13 69.7267 210.65 69.55 211.25 69.55C211.723 69.55 212.103 69.6533 212.39 69.86L212.23 71.71C212.197 71.83 212.147 71.9167 212.08 71.97C212.02 72.0167 211.937 72.04 211.83 72.04C211.73 72.04 211.58 72.0233 211.38 71.99C211.187 71.9567 210.997 71.94 210.81 71.94C210.537 71.94 210.293 71.98 210.08 72.06C209.867 72.14 209.673 72.2567 209.5 72.41C209.333 72.5567 209.183 72.7367 209.05 72.95C208.923 73.1633 208.803 73.4067 208.69 73.68V80H206.22V69.74H207.67C207.923 69.74 208.1 69.7867 208.2 69.88C208.3 69.9667 208.367 70.1267 208.4 70.36L208.55 71.52ZM219.998 73.69C219.998 73.37 219.951 73.07 219.858 72.79C219.771 72.5033 219.638 72.2533 219.458 72.04C219.278 71.8267 219.048 71.66 218.768 71.54C218.495 71.4133 218.175 71.35 217.808 71.35C217.095 71.35 216.531 71.5533 216.118 71.96C215.711 72.3667 215.451 72.9433 215.338 73.69H219.998ZM215.288 75.18C215.328 75.7067 215.421 76.1633 215.568 76.55C215.715 76.93 215.908 77.2467 216.148 77.5C216.388 77.7467 216.671 77.9333 216.998 78.06C217.331 78.18 217.698 78.24 218.098 78.24C218.498 78.24 218.841 78.1933 219.128 78.1C219.421 78.0067 219.675 77.9033 219.888 77.79C220.108 77.6767 220.298 77.5733 220.458 77.48C220.625 77.3867 220.785 77.34 220.938 77.34C221.145 77.34 221.298 77.4167 221.398 77.57L222.108 78.47C221.835 78.79 221.528 79.06 221.188 79.28C220.848 79.4933 220.491 79.6667 220.118 79.8C219.751 79.9267 219.375 80.0167 218.988 80.07C218.608 80.1233 218.238 80.15 217.878 80.15C217.165 80.15 216.501 80.0333 215.888 79.8C215.275 79.56 214.741 79.21 214.288 78.75C213.835 78.2833 213.478 77.71 213.218 77.03C212.958 76.3433 212.828 75.55 212.828 74.65C212.828 73.95 212.941 73.2933 213.168 72.68C213.395 72.06 213.718 71.5233 214.138 71.07C214.565 70.61 215.081 70.2467 215.688 69.98C216.301 69.7133 216.991 69.58 217.758 69.58C218.405 69.58 219.001 69.6833 219.548 69.89C220.095 70.0967 220.565 70.4 220.958 70.8C221.351 71.1933 221.658 71.68 221.878 72.26C222.105 72.8333 222.218 73.49 222.218 74.23C222.218 74.6033 222.178 74.8567 222.098 74.99C222.018 75.1167 221.865 75.18 221.638 75.18H215.288ZM230.512 72.36C230.232 72.02 229.925 71.78 229.592 71.64C229.265 71.5 228.912 71.43 228.532 71.43C228.158 71.43 227.822 71.5 227.522 71.64C227.222 71.78 226.965 71.9933 226.752 72.28C226.538 72.56 226.375 72.92 226.262 73.36C226.148 73.7933 226.092 74.3067 226.092 74.9C226.092 75.5 226.138 76.01 226.232 76.43C226.332 76.8433 226.472 77.1833 226.652 77.45C226.832 77.71 227.052 77.9 227.312 78.02C227.572 78.1333 227.862 78.19 228.182 78.19C228.695 78.19 229.132 78.0833 229.492 77.87C229.852 77.6567 230.192 77.3533 230.512 76.96V72.36ZM232.982 65.14V80H231.472C231.145 80 230.938 79.85 230.852 79.55L230.642 78.56C230.228 79.0333 229.752 79.4167 229.212 79.71C228.678 80.0033 228.055 80.15 227.342 80.15C226.782 80.15 226.268 80.0333 225.802 79.8C225.335 79.5667 224.932 79.23 224.592 78.79C224.258 78.3433 223.998 77.7933 223.812 77.14C223.632 76.4867 223.542 75.74 223.542 74.9C223.542 74.14 223.645 73.4333 223.852 72.78C224.058 72.1267 224.355 71.56 224.742 71.08C225.128 70.6 225.592 70.2267 226.132 69.96C226.672 69.6867 227.278 69.55 227.952 69.55C228.525 69.55 229.015 69.64 229.422 69.82C229.828 70 230.192 70.2433 230.512 70.55V65.14H232.982ZM242.029 73.69C242.029 73.37 241.983 73.07 241.889 72.79C241.803 72.5033 241.669 72.2533 241.489 72.04C241.309 71.8267 241.079 71.66 240.799 71.54C240.526 71.4133 240.206 71.35 239.839 71.35C239.126 71.35 238.563 71.5533 238.149 71.96C237.743 72.3667 237.483 72.9433 237.369 73.69H242.029ZM237.319 75.18C237.359 75.7067 237.453 76.1633 237.599 76.55C237.746 76.93 237.939 77.2467 238.179 77.5C238.419 77.7467 238.703 77.9333 239.029 78.06C239.363 78.18 239.729 78.24 240.129 78.24C240.529 78.24 240.873 78.1933 241.159 78.1C241.453 78.0067 241.706 77.9033 241.919 77.79C242.139 77.6767 242.329 77.5733 242.489 77.48C242.656 77.3867 242.816 77.34 242.969 77.34C243.176 77.34 243.329 77.4167 243.429 77.57L244.139 78.47C243.866 78.79 243.559 79.06 243.219 79.28C242.879 79.4933 242.523 79.6667 242.149 79.8C241.783 79.9267 241.406 80.0167 241.019 80.07C240.639 80.1233 240.269 80.15 239.909 80.15C239.196 80.15 238.533 80.0333 237.919 79.8C237.306 79.56 236.773 79.21 236.319 78.75C235.866 78.2833 235.509 77.71 235.249 77.03C234.989 76.3433 234.859 75.55 234.859 74.65C234.859 73.95 234.973 73.2933 235.199 72.68C235.426 72.06 235.749 71.5233 236.169 71.07C236.596 70.61 237.113 70.2467 237.719 69.98C238.333 69.7133 239.023 69.58 239.789 69.58C240.436 69.58 241.033 69.6833 241.579 69.89C242.126 70.0967 242.596 70.4 242.989 70.8C243.383 71.1933 243.689 71.68 243.909 72.26C244.136 72.8333 244.249 73.49 244.249 74.23C244.249 74.6033 244.209 74.8567 244.129 74.99C244.049 75.1167 243.896 75.18 243.669 75.18H237.319ZM252.363 71.74C252.296 71.8467 252.226 71.9233 252.153 71.97C252.079 72.01 251.986 72.03 251.873 72.03C251.753 72.03 251.623 71.9967 251.483 71.93C251.349 71.8633 251.193 71.79 251.013 71.71C250.833 71.6233 250.626 71.5467 250.393 71.48C250.166 71.4133 249.896 71.38 249.583 71.38C249.096 71.38 248.713 71.4833 248.433 71.69C248.159 71.8967 248.023 72.1667 248.023 72.5C248.023 72.72 248.093 72.9067 248.233 73.06C248.379 73.2067 248.569 73.3367 248.803 73.45C249.043 73.5633 249.313 73.6667 249.613 73.76C249.913 73.8467 250.216 73.9433 250.523 74.05C250.836 74.1567 251.143 74.28 251.443 74.42C251.743 74.5533 252.009 74.7267 252.243 74.94C252.483 75.1467 252.673 75.3967 252.813 75.69C252.959 75.9833 253.033 76.3367 253.033 76.75C253.033 77.2433 252.943 77.7 252.763 78.12C252.589 78.5333 252.329 78.8933 251.983 79.2C251.636 79.5 251.206 79.7367 250.693 79.91C250.186 80.0767 249.599 80.16 248.933 80.16C248.579 80.16 248.233 80.1267 247.893 80.06C247.559 80 247.236 79.9133 246.923 79.8C246.616 79.6867 246.329 79.5533 246.063 79.4C245.803 79.2467 245.573 79.08 245.373 78.9L245.943 77.96C246.016 77.8467 246.103 77.76 246.203 77.7C246.303 77.64 246.429 77.61 246.583 77.61C246.736 77.61 246.879 77.6533 247.013 77.74C247.153 77.8267 247.313 77.92 247.493 78.02C247.673 78.12 247.883 78.2133 248.123 78.3C248.369 78.3867 248.679 78.43 249.053 78.43C249.346 78.43 249.596 78.3967 249.803 78.33C250.016 78.2567 250.189 78.1633 250.323 78.05C250.463 77.9367 250.563 77.8067 250.623 77.66C250.689 77.5067 250.723 77.35 250.723 77.19C250.723 76.95 250.649 76.7533 250.503 76.6C250.363 76.4467 250.173 76.3133 249.933 76.2C249.699 76.0867 249.429 75.9867 249.123 75.9C248.823 75.8067 248.513 75.7067 248.193 75.6C247.879 75.4933 247.569 75.37 247.263 75.23C246.963 75.0833 246.693 74.9 246.453 74.68C246.219 74.46 246.029 74.19 245.883 73.87C245.743 73.55 245.673 73.1633 245.673 72.71C245.673 72.29 245.756 71.89 245.923 71.51C246.089 71.13 246.333 70.8 246.653 70.52C246.979 70.2333 247.383 70.0067 247.863 69.84C248.349 69.6667 248.909 69.58 249.543 69.58C250.249 69.58 250.893 69.6967 251.473 69.93C252.053 70.1633 252.536 70.47 252.923 70.85L252.363 71.74ZM266.015 71.74C265.948 71.8467 265.878 71.9233 265.805 71.97C265.732 72.01 265.638 72.03 265.525 72.03C265.405 72.03 265.275 71.9967 265.135 71.93C265.002 71.8633 264.845 71.79 264.665 71.71C264.485 71.6233 264.278 71.5467 264.045 71.48C263.818 71.4133 263.548 71.38 263.235 71.38C262.748 71.38 262.365 71.4833 262.085 71.69C261.812 71.8967 261.675 72.1667 261.675 72.5C261.675 72.72 261.745 72.9067 261.885 73.06C262.032 73.2067 262.222 73.3367 262.455 73.45C262.695 73.5633 262.965 73.6667 263.265 73.76C263.565 73.8467 263.868 73.9433 264.175 74.05C264.488 74.1567 264.795 74.28 265.095 74.42C265.395 74.5533 265.662 74.7267 265.895 74.94C266.135 75.1467 266.325 75.3967 266.465 75.69C266.612 75.9833 266.685 76.3367 266.685 76.75C266.685 77.2433 266.595 77.7 266.415 78.12C266.242 78.5333 265.982 78.8933 265.635 79.2C265.288 79.5 264.858 79.7367 264.345 79.91C263.838 80.0767 263.252 80.16 262.585 80.16C262.232 80.16 261.885 80.1267 261.545 80.06C261.212 80 260.888 79.9133 260.575 79.8C260.268 79.6867 259.982 79.5533 259.715 79.4C259.455 79.2467 259.225 79.08 259.025 78.9L259.595 77.96C259.668 77.8467 259.755 77.76 259.855 77.7C259.955 77.64 260.082 77.61 260.235 77.61C260.388 77.61 260.532 77.6533 260.665 77.74C260.805 77.8267 260.965 77.92 261.145 78.02C261.325 78.12 261.535 78.2133 261.775 78.3C262.022 78.3867 262.332 78.43 262.705 78.43C262.998 78.43 263.248 78.3967 263.455 78.33C263.668 78.2567 263.842 78.1633 263.975 78.05C264.115 77.9367 264.215 77.8067 264.275 77.66C264.342 77.5067 264.375 77.35 264.375 77.19C264.375 76.95 264.302 76.7533 264.155 76.6C264.015 76.4467 263.825 76.3133 263.585 76.2C263.352 76.0867 263.082 75.9867 262.775 75.9C262.475 75.8067 262.165 75.7067 261.845 75.6C261.532 75.4933 261.222 75.37 260.915 75.23C260.615 75.0833 260.345 74.9 260.105 74.68C259.872 74.46 259.682 74.19 259.535 73.87C259.395 73.55 259.325 73.1633 259.325 72.71C259.325 72.29 259.408 71.89 259.575 71.51C259.742 71.13 259.985 70.8 260.305 70.52C260.632 70.2333 261.035 70.0067 261.515 69.84C262.002 69.6667 262.562 69.58 263.195 69.58C263.902 69.58 264.545 69.6967 265.125 69.93C265.705 70.1633 266.188 70.47 266.575 70.85L266.015 71.74ZM273.084 69.58C273.844 69.58 274.534 69.7033 275.154 69.95C275.781 70.1967 276.314 70.5467 276.754 71C277.201 71.4533 277.544 72.0067 277.784 72.66C278.024 73.3133 278.144 74.0433 278.144 74.85C278.144 75.6633 278.024 76.3967 277.784 77.05C277.544 77.7033 277.201 78.26 276.754 78.72C276.314 79.18 275.781 79.5333 275.154 79.78C274.534 80.0267 273.844 80.15 273.084 80.15C272.318 80.15 271.621 80.0267 270.994 79.78C270.368 79.5333 269.831 79.18 269.384 78.72C268.944 78.26 268.601 77.7033 268.354 77.05C268.114 76.3967 267.994 75.6633 267.994 74.85C267.994 74.0433 268.114 73.3133 268.354 72.66C268.601 72.0067 268.944 71.4533 269.384 71C269.831 70.5467 270.368 70.1967 270.994 69.95C271.621 69.7033 272.318 69.58 273.084 69.58ZM273.084 78.25C273.938 78.25 274.568 77.9633 274.974 77.39C275.388 76.8167 275.594 75.9767 275.594 74.87C275.594 73.7633 275.388 72.92 274.974 72.34C274.568 71.76 273.938 71.47 273.084 71.47C272.218 71.47 271.574 71.7633 271.154 72.35C270.741 72.93 270.534 73.77 270.534 74.87C270.534 75.97 270.741 76.81 271.154 77.39C271.574 77.9633 272.218 78.25 273.084 78.25ZM287.379 71.91C287.305 72.0033 287.232 72.0767 287.159 72.13C287.092 72.1833 286.992 72.21 286.859 72.21C286.732 72.21 286.609 72.1733 286.489 72.1C286.369 72.02 286.225 71.9333 286.059 71.84C285.892 71.74 285.692 71.6533 285.459 71.58C285.232 71.5 284.949 71.46 284.609 71.46C284.175 71.46 283.795 71.54 283.469 71.7C283.142 71.8533 282.869 72.0767 282.649 72.37C282.435 72.6633 282.275 73.02 282.169 73.44C282.062 73.8533 282.009 74.3233 282.009 74.85C282.009 75.3967 282.065 75.8833 282.179 76.31C282.299 76.7367 282.469 77.0967 282.689 77.39C282.909 77.6767 283.175 77.8967 283.489 78.05C283.802 78.1967 284.155 78.27 284.549 78.27C284.942 78.27 285.259 78.2233 285.499 78.13C285.745 78.03 285.952 77.9233 286.119 77.81C286.285 77.69 286.429 77.5833 286.549 77.49C286.675 77.39 286.815 77.34 286.969 77.34C287.169 77.34 287.319 77.4167 287.419 77.57L288.129 78.47C287.855 78.79 287.559 79.06 287.239 79.28C286.919 79.4933 286.585 79.6667 286.239 79.8C285.899 79.9267 285.545 80.0167 285.179 80.07C284.819 80.1233 284.459 80.15 284.099 80.15C283.465 80.15 282.869 80.0333 282.309 79.8C281.749 79.56 281.259 79.2133 280.839 78.76C280.419 78.3067 280.085 77.7533 279.839 77.1C279.599 76.44 279.479 75.69 279.479 74.85C279.479 74.0967 279.585 73.4 279.799 72.76C280.019 72.1133 280.339 71.5567 280.759 71.09C281.179 70.6167 281.699 70.2467 282.319 69.98C282.939 69.7133 283.652 69.58 284.459 69.58C285.225 69.58 285.895 69.7033 286.469 69.95C287.049 70.1967 287.569 70.55 288.029 71.01L287.379 71.91ZM292.237 69.74V80H289.757V69.74H292.237ZM292.577 66.75C292.577 66.9633 292.534 67.1633 292.447 67.35C292.36 67.5367 292.244 67.7 292.097 67.84C291.957 67.98 291.79 68.0933 291.597 68.18C291.404 68.26 291.197 68.3 290.977 68.3C290.764 68.3 290.56 68.26 290.367 68.18C290.18 68.0933 290.017 67.98 289.877 67.84C289.737 67.7 289.624 67.5367 289.537 67.35C289.457 67.1633 289.417 66.9633 289.417 66.75C289.417 66.53 289.457 66.3233 289.537 66.13C289.624 65.9367 289.737 65.77 289.877 65.63C290.017 65.49 290.18 65.38 290.367 65.3C290.56 65.2133 290.764 65.17 290.977 65.17C291.197 65.17 291.404 65.2133 291.597 65.3C291.79 65.38 291.957 65.49 292.097 65.63C292.244 65.77 292.36 65.9367 292.447 66.13C292.534 66.3233 292.577 66.53 292.577 66.75ZM300.175 75.62C299.462 75.6533 298.862 75.7167 298.375 75.81C297.888 75.8967 297.498 76.01 297.205 76.15C296.912 76.29 296.702 76.4533 296.575 76.64C296.448 76.8267 296.385 77.03 296.385 77.25C296.385 77.6833 296.512 77.9933 296.765 78.18C297.025 78.3667 297.362 78.46 297.775 78.46C298.282 78.46 298.718 78.37 299.085 78.19C299.458 78.0033 299.822 77.7233 300.175 77.35V75.62ZM294.515 71.17C295.695 70.09 297.115 69.55 298.775 69.55C299.375 69.55 299.912 69.65 300.385 69.85C300.858 70.0433 301.258 70.3167 301.585 70.67C301.912 71.0167 302.158 71.4333 302.325 71.92C302.498 72.4067 302.585 72.94 302.585 73.52V80H301.465C301.232 80 301.052 79.9667 300.925 79.9C300.798 79.8267 300.698 79.6833 300.625 79.47L300.405 78.73C300.145 78.9633 299.892 79.17 299.645 79.35C299.398 79.5233 299.142 79.67 298.875 79.79C298.608 79.91 298.322 80 298.015 80.06C297.715 80.1267 297.382 80.16 297.015 80.16C296.582 80.16 296.182 80.1033 295.815 79.99C295.448 79.87 295.132 79.6933 294.865 79.46C294.598 79.2267 294.392 78.9367 294.245 78.59C294.098 78.2433 294.025 77.84 294.025 77.38C294.025 77.12 294.068 76.8633 294.155 76.61C294.242 76.35 294.382 76.1033 294.575 75.87C294.775 75.6367 295.032 75.4167 295.345 75.21C295.658 75.0033 296.042 74.8233 296.495 74.67C296.955 74.5167 297.488 74.3933 298.095 74.3C298.702 74.2 299.395 74.14 300.175 74.12V73.52C300.175 72.8333 300.028 72.3267 299.735 72C299.442 71.6667 299.018 71.5 298.465 71.5C298.065 71.5 297.732 71.5467 297.465 71.64C297.205 71.7333 296.975 71.84 296.775 71.96C296.575 72.0733 296.392 72.1767 296.225 72.27C296.065 72.3633 295.885 72.41 295.685 72.41C295.512 72.41 295.365 72.3667 295.245 72.28C295.125 72.1867 295.028 72.08 294.955 71.96L294.515 71.17ZM307.411 65.14V80H304.941V65.14H307.411ZM316.482 73.69C316.482 73.37 316.436 73.07 316.342 72.79C316.256 72.5033 316.122 72.2533 315.942 72.04C315.762 71.8267 315.532 71.66 315.252 71.54C314.979 71.4133 314.659 71.35 314.292 71.35C313.579 71.35 313.016 71.5533 312.602 71.96C312.196 72.3667 311.936 72.9433 311.822 73.69H316.482ZM311.772 75.18C311.812 75.7067 311.906 76.1633 312.052 76.55C312.199 76.93 312.392 77.2467 312.632 77.5C312.872 77.7467 313.156 77.9333 313.482 78.06C313.816 78.18 314.182 78.24 314.582 78.24C314.982 78.24 315.326 78.1933 315.612 78.1C315.906 78.0067 316.159 77.9033 316.372 77.79C316.592 77.6767 316.782 77.5733 316.942 77.48C317.109 77.3867 317.269 77.34 317.422 77.34C317.629 77.34 317.782 77.4167 317.882 77.57L318.592 78.47C318.319 78.79 318.012 79.06 317.672 79.28C317.332 79.4933 316.976 79.6667 316.602 79.8C316.236 79.9267 315.859 80.0167 315.472 80.07C315.092 80.1233 314.722 80.15 314.362 80.15C313.649 80.15 312.986 80.0333 312.372 79.8C311.759 79.56 311.226 79.21 310.772 78.75C310.319 78.2833 309.962 77.71 309.702 77.03C309.442 76.3433 309.312 75.55 309.312 74.65C309.312 73.95 309.426 73.2933 309.652 72.68C309.879 72.06 310.202 71.5233 310.622 71.07C311.049 70.61 311.566 70.2467 312.172 69.98C312.786 69.7133 313.476 69.58 314.242 69.58C314.889 69.58 315.486 69.6833 316.032 69.89C316.579 70.0967 317.049 70.4 317.442 70.8C317.836 71.1933 318.142 71.68 318.362 72.26C318.589 72.8333 318.702 73.49 318.702 74.23C318.702 74.6033 318.662 74.8567 318.582 74.99C318.502 75.1167 318.349 75.18 318.122 75.18H311.772ZM326.816 71.74C326.749 71.8467 326.679 71.9233 326.606 71.97C326.533 72.01 326.439 72.03 326.326 72.03C326.206 72.03 326.076 71.9967 325.936 71.93C325.803 71.8633 325.646 71.79 325.466 71.71C325.286 71.6233 325.079 71.5467 324.846 71.48C324.619 71.4133 324.349 71.38 324.036 71.38C323.549 71.38 323.166 71.4833 322.886 71.69C322.613 71.8967 322.476 72.1667 322.476 72.5C322.476 72.72 322.546 72.9067 322.686 73.06C322.833 73.2067 323.023 73.3367 323.256 73.45C323.496 73.5633 323.766 73.6667 324.066 73.76C324.366 73.8467 324.669 73.9433 324.976 74.05C325.289 74.1567 325.596 74.28 325.896 74.42C326.196 74.5533 326.463 74.7267 326.696 74.94C326.936 75.1467 327.126 75.3967 327.266 75.69C327.413 75.9833 327.486 76.3367 327.486 76.75C327.486 77.2433 327.396 77.7 327.216 78.12C327.043 78.5333 326.783 78.8933 326.436 79.2C326.089 79.5 325.659 79.7367 325.146 79.91C324.639 80.0767 324.053 80.16 323.386 80.16C323.033 80.16 322.686 80.1267 322.346 80.06C322.013 80 321.689 79.9133 321.376 79.8C321.069 79.6867 320.783 79.5533 320.516 79.4C320.256 79.2467 320.026 79.08 319.826 78.9L320.396 77.96C320.469 77.8467 320.556 77.76 320.656 77.7C320.756 77.64 320.883 77.61 321.036 77.61C321.189 77.61 321.333 77.6533 321.466 77.74C321.606 77.8267 321.766 77.92 321.946 78.02C322.126 78.12 322.336 78.2133 322.576 78.3C322.823 78.3867 323.133 78.43 323.506 78.43C323.799 78.43 324.049 78.3967 324.256 78.33C324.469 78.2567 324.643 78.1633 324.776 78.05C324.916 77.9367 325.016 77.8067 325.076 77.66C325.143 77.5067 325.176 77.35 325.176 77.19C325.176 76.95 325.103 76.7533 324.956 76.6C324.816 76.4467 324.626 76.3133 324.386 76.2C324.153 76.0867 323.883 75.9867 323.576 75.9C323.276 75.8067 322.966 75.7067 322.646 75.6C322.333 75.4933 322.023 75.37 321.716 75.23C321.416 75.0833 321.146 74.9 320.906 74.68C320.673 74.46 320.483 74.19 320.336 73.87C320.196 73.55 320.126 73.1633 320.126 72.71C320.126 72.29 320.209 71.89 320.376 71.51C320.543 71.13 320.786 70.8 321.106 70.52C321.433 70.2333 321.836 70.0067 322.316 69.84C322.803 69.6667 323.363 69.58 323.996 69.58C324.703 69.58 325.346 69.6967 325.926 69.93C326.506 70.1633 326.989 70.47 327.376 70.85L326.816 71.74ZM328.985 78.64C328.985 78.4333 329.022 78.2367 329.095 78.05C329.175 77.8633 329.282 77.7033 329.415 77.57C329.548 77.4367 329.708 77.33 329.895 77.25C330.082 77.17 330.282 77.13 330.495 77.13C330.708 77.13 330.905 77.17 331.085 77.25C331.272 77.33 331.432 77.4367 331.565 77.57C331.705 77.7033 331.815 77.8633 331.895 78.05C331.975 78.2367 332.015 78.4333 332.015 78.64C332.015 78.8533 331.975 79.0533 331.895 79.24C331.815 79.42 331.705 79.5767 331.565 79.71C331.432 79.8433 331.272 79.9467 331.085 80.02C330.905 80.1 330.708 80.14 330.495 80.14C330.282 80.14 330.082 80.1 329.895 80.02C329.708 79.9467 329.548 79.8433 329.415 79.71C329.282 79.5767 329.175 79.42 329.095 79.24C329.022 79.0533 328.985 78.8533 328.985 78.64Z" fill="white"/>
</g>
<defs>
<filter id="filter0_d_222_101" x="0.75" y="17.14" width="425.62" height="71.02" filterUnits="userSpaceOnUse" color-interpolation-filters="sRGB">
<feFlood flood-opacity="0" result="BackgroundImageFix"/>
<feColorMatrix in="SourceAlpha" type="matrix" values="0 0 0 0 0 0 0 0 0 0 0 0 0 0 0 0 0 0 127 0" result="hardAlpha"/>
<feOffset dy="4"/>
<feGaussianBlur stdDeviation="2"/>
<feComposite in2="hardAlpha" operator="out"/>
<feColorMatrix type="matrix" values="0 0 0 0 0 0 0 0 0 0 0 0 0 0 0 0 0 0 0.25 0"/>
<feBlend mode="normal" in2="BackgroundImageFix" result="effect1_dropShadow_222_101"/>
<feBlend mode="normal" in="SourceGraphic" in2="effect1_dropShadow_222_101" result="shape"/>
</filter>
</defs>
</svg>
