<svg width="485" height="100" viewBox="0 0 485 100" fill="none" xmlns="http://www.w3.org/2000/svg">
<path d="M16.5766 19.1797H51.2261V78.8729H15.586V19.1797H16.5766ZM49.2449 21.0705H17.8149V76.7125H49.2449V21.0705Z" fill="#C837AB" fill-opacity="0.9"/>
<path d="M54.691 19.1797H89.0929V78.8729H53.4528V19.1797H54.691ZM87.1116 21.0705H55.6817V76.7125H87.1116V21.0705Z" fill="#C837AB" fill-opacity="0.9"/>
<path d="M108.889 19.1797H143.538V78.8729H107.898V19.1797H108.889ZM141.309 21.0705H109.879V76.7125H141.309V21.0705Z" fill="#C837AB" fill-opacity="0.9"/>
<path d="M146.755 19.1797H181.404V78.8729H145.764V19.1797H146.755ZM179.175 21.0705H147.745V76.7125H179.175V21.0705Z" fill="#C837AB" fill-opacity="0.9"/>
<path fill-rule="evenodd" clip-rule="evenodd" d="M102.703 34.3029C102.703 36.6893 100.93 38.6244 98.743 38.6244C96.5565 38.6244 94.7833 36.6892 94.7833 34.3029C94.7833 31.9167 96.5566 29.9814 98.743 29.9814C100.93 29.9814 102.703 31.9167 102.703 34.3029Z" fill="#C837AB" fill-opacity="0.9"/>
<path fill-rule="evenodd" clip-rule="evenodd" d="M102.703 65.9055C102.703 68.2918 100.93 70.227 98.743 70.227C96.5565 70.227 94.7833 68.2917 94.7833 65.9055C94.7833 63.5179 96.5566 61.584 98.743 61.584C100.93 61.584 102.703 63.518 102.703 65.9055Z" fill="#C837AB" fill-opacity="0.9"/>
<path fill-rule="evenodd" clip-rule="evenodd" d="M12.6168 2.16078H21.2783V1.35094C21.2783 0.541096 21.773 0 22.5161 0H29.6937C30.1884 0 30.6842 0.539898 30.6842 1.35094V2.16078H32.6641V1.35094C32.6641 0.541096 33.1588 0 33.9019 0H41.0795C41.5742 0 42.07 0.539898 42.07 1.35094V2.16078H44.0499V1.35094C44.0499 0.541096 44.5446 0 45.0404 0H52.2179C52.96 0 53.4558 0.539898 53.4558 1.35094V2.16078H55.4357V1.35094C55.4357 0.541096 55.9304 0 56.4261 0H63.6037C64.3457 0 64.8415 0.539898 64.8415 1.35094V2.16078H184.378C191.309 2.16078 197 8.37336 197 15.9355V81.572C197 89.1354 191.307 95.3467 184.378 95.3467H163.342V98.5886C163.342 99.1285 162.847 99.3984 162.599 99.3984H34.4003C34.153 99.3984 33.6583 99.1285 33.6583 98.5886V95.3467H12.6215C5.69133 95.3467 0 89.1341 0 81.572V15.9355C0 8.37213 5.69246 2.16078 12.6215 2.16078H12.6168ZM23.754 8.10338H173.238C179.425 8.10338 184.375 13.506 184.375 20.2583V77.2486C184.375 84.0008 179.425 89.4035 173.238 89.4035H23.754C17.5671 89.4035 12.6168 84.0008 12.6168 77.2486V20.2583C12.6168 13.506 17.5671 8.10338 23.754 8.10338Z" fill="#C837AB" fill-opacity="0.9"/>
<path d="M45.038 50.2375L46.2759 51.3185V69.9559C45.7812 71.5768 44.7907 72.6566 43.058 73.1978L41.3255 67.7951V54.0204L45.0378 50.2389L45.038 50.2375ZM41.8202 73.1964H23.7539C22.2687 72.6565 21.2793 71.5755 20.7834 69.9545L25.7337 67.7937H40.0877L41.8202 73.1964ZM20.7834 68.6049V51.5886L22.0212 50.2377L25.7335 54.0192V66.714L20.7834 68.6049ZM40.0877 31.0629H25.7337L20.7834 29.172C21.2781 27.2812 22.2686 26.2014 23.7539 25.6602H41.8202L40.0877 31.0629ZM25.7337 32.4138V44.8386L22.0214 48.8902L20.7836 47.5392V30.2529L25.7337 32.4138ZM41.3254 44.8386V31.0639L43.058 25.6613C44.7905 26.2012 45.7799 27.2821 46.2758 29.1731V47.5406L45.038 48.8915L41.3256 44.84L41.3254 44.8386Z" fill="white"/>
<path d="M79.1922 46.7307L81.6668 49.4315L79.1922 52.1322H63.6005L61.1259 49.4315L63.6005 46.7307H79.1922ZM81.6668 73.2003H61.6206C60.1354 72.6604 59.146 71.5794 58.6501 69.9584L63.6005 67.7976H79.9343L81.6668 73.2003ZM58.6501 68.6088V51.5925L59.888 50.2416L63.6003 54.0231V66.7179L58.6501 68.6088ZM77.9545 31.0668H63.6005L58.6501 29.1759C59.1448 27.2851 60.1353 26.2053 61.868 25.6641H79.6869L77.9545 31.0668ZM79.1923 44.8415V31.0668L80.9248 25.6641C82.6574 26.204 83.6468 27.285 84.1427 29.176V47.5434L82.9048 48.8944L79.1925 44.8429L79.1923 44.8415Z" fill="white"/>
<path d="M134.542 46.0667L137.017 48.7674L134.542 51.4681H118.95L116.476 48.7674L118.95 46.0667H134.542ZM137.017 72.5363H116.97C115.485 71.9964 114.496 70.9154 114 69.2944L118.95 67.1335H135.284L137.017 72.5363ZM114 67.9448V50.9285L115.238 49.5775L118.95 53.3591V66.0539L114 67.9448ZM133.304 30.4027H118.95L114 28.5119C114.495 26.621 115.485 25.5412 117.218 25H135.037L133.304 30.4027ZM134.542 44.1774V30.4027L136.275 25.0001C138.007 25.54 138.997 26.6209 139.493 28.5119V46.8794L138.255 48.2303L134.542 44.1788L134.542 44.1774Z" fill="white"/>
<path d="M171.563 47.6006L174.281 50.498L171.563 53.3953H154.437L151.719 50.498L154.437 47.6006H171.563ZM175.64 51.3682L177 52.8175V72.5221C176.457 74.261 175.369 75.4194 173.466 76L171.563 70.495V55.4268L175.64 51.37L175.64 51.3682ZM154.437 29.9261V45.5735L150.36 49.92L149 48.4707V27.8972L154.437 29.9261ZM171.563 45.5735V30.796L173.466 25C175.369 25.5792 176.455 26.7389 177 28.4779V48.4722L175.64 49.9215L171.563 45.575L171.563 45.5735Z" fill="white"/>
<path d="M231.799 32.34C232.079 32.68 232.383 32.92 232.709 33.06C233.043 33.2 233.403 33.27 233.789 33.27C234.163 33.27 234.499 33.2 234.799 33.06C235.099 32.92 235.353 32.7067 235.559 32.42C235.773 32.1333 235.936 31.7733 236.049 31.34C236.163 30.9 236.219 30.3833 236.219 29.79C236.219 29.19 236.169 28.6833 236.069 28.27C235.976 27.85 235.839 27.51 235.659 27.25C235.479 26.99 235.259 26.8 234.999 26.68C234.746 26.56 234.456 26.5 234.129 26.5C233.616 26.5 233.179 26.61 232.819 26.83C232.459 27.0433 232.119 27.3467 231.799 27.74V32.34ZM231.669 26.14C232.089 25.6667 232.566 25.2833 233.099 24.99C233.633 24.6967 234.259 24.55 234.979 24.55C235.539 24.55 236.049 24.6667 236.509 24.9C236.976 25.1333 237.376 25.4733 237.709 25.92C238.049 26.36 238.309 26.9067 238.489 27.56C238.676 28.2067 238.769 28.95 238.769 29.79C238.769 30.5567 238.666 31.2667 238.459 31.92C238.253 32.5733 237.956 33.14 237.569 33.62C237.189 34.1 236.726 34.4767 236.179 34.75C235.639 35.0167 235.033 35.15 234.359 35.15C233.786 35.15 233.296 35.0633 232.889 34.89C232.483 34.71 232.119 34.4633 231.799 34.15V38.35H229.329V24.74H230.839C231.159 24.74 231.369 24.89 231.469 25.19L231.669 26.14ZM243.027 26.52C243.347 25.9067 243.727 25.4267 244.167 25.08C244.607 24.7267 245.127 24.55 245.727 24.55C246.2 24.55 246.58 24.6533 246.867 24.86L246.707 26.71C246.673 26.83 246.623 26.9167 246.557 26.97C246.497 27.0167 246.413 27.04 246.307 27.04C246.207 27.04 246.057 27.0233 245.857 26.99C245.663 26.9567 245.473 26.94 245.287 26.94C245.013 26.94 244.77 26.98 244.557 27.06C244.343 27.14 244.15 27.2567 243.977 27.41C243.81 27.5567 243.66 27.7367 243.527 27.95C243.4 28.1633 243.28 28.4067 243.167 28.68V35H240.697V24.74H242.147C242.4 24.74 242.577 24.7867 242.677 24.88C242.777 24.9667 242.843 25.1267 242.877 25.36L243.027 26.52ZM252.405 24.58C253.165 24.58 253.855 24.7033 254.475 24.95C255.101 25.1967 255.635 25.5467 256.075 26C256.521 26.4533 256.865 27.0067 257.105 27.66C257.345 28.3133 257.465 29.0433 257.465 29.85C257.465 30.6633 257.345 31.3967 257.105 32.05C256.865 32.7033 256.521 33.26 256.075 33.72C255.635 34.18 255.101 34.5333 254.475 34.78C253.855 35.0267 253.165 35.15 252.405 35.15C251.638 35.15 250.941 35.0267 250.315 34.78C249.688 34.5333 249.151 34.18 248.705 33.72C248.265 33.26 247.921 32.7033 247.675 32.05C247.435 31.3967 247.315 30.6633 247.315 29.85C247.315 29.0433 247.435 28.3133 247.675 27.66C247.921 27.0067 248.265 26.4533 248.705 26C249.151 25.5467 249.688 25.1967 250.315 24.95C250.941 24.7033 251.638 24.58 252.405 24.58ZM252.405 33.25C253.258 33.25 253.888 32.9633 254.295 32.39C254.708 31.8167 254.915 30.9767 254.915 29.87C254.915 28.7633 254.708 27.92 254.295 27.34C253.888 26.76 253.258 26.47 252.405 26.47C251.538 26.47 250.895 26.7633 250.475 27.35C250.061 27.93 249.855 28.77 249.855 29.87C249.855 30.97 250.061 31.81 250.475 32.39C250.895 32.9633 251.538 33.25 252.405 33.25ZM259.349 35V24.74H260.859C261.179 24.74 261.389 24.89 261.489 25.19L261.649 25.95C261.829 25.75 262.016 25.5667 262.209 25.4C262.409 25.2333 262.619 25.09 262.839 24.97C263.066 24.85 263.306 24.7567 263.559 24.69C263.819 24.6167 264.102 24.58 264.409 24.58C265.056 24.58 265.586 24.7567 265.999 25.11C266.419 25.4567 266.732 25.92 266.939 26.5C267.099 26.16 267.299 25.87 267.539 25.63C267.779 25.3833 268.042 25.1833 268.329 25.03C268.616 24.8767 268.919 24.7633 269.239 24.69C269.566 24.6167 269.892 24.58 270.219 24.58C270.786 24.58 271.289 24.6667 271.729 24.84C272.169 25.0133 272.539 25.2667 272.839 25.6C273.139 25.9333 273.366 26.34 273.519 26.82C273.679 27.3 273.759 27.85 273.759 28.47V35H271.289V28.47C271.289 27.8167 271.146 27.3267 270.859 27C270.572 26.6667 270.152 26.5 269.599 26.5C269.346 26.5 269.109 26.5433 268.889 26.63C268.676 26.7167 268.486 26.8433 268.319 27.01C268.159 27.17 268.032 27.3733 267.939 27.62C267.846 27.8667 267.799 28.15 267.799 28.47V35H265.319V28.47C265.319 27.7833 265.179 27.2833 264.899 26.97C264.626 26.6567 264.222 26.5 263.689 26.5C263.329 26.5 262.992 26.59 262.679 26.77C262.372 26.9433 262.086 27.1833 261.819 27.49V35H259.349ZM282.717 28.69C282.717 28.37 282.67 28.07 282.577 27.79C282.49 27.5033 282.357 27.2533 282.177 27.04C281.997 26.8267 281.767 26.66 281.487 26.54C281.213 26.4133 280.893 26.35 280.527 26.35C279.813 26.35 279.25 26.5533 278.837 26.96C278.43 27.3667 278.17 27.9433 278.057 28.69H282.717ZM278.007 30.18C278.047 30.7067 278.14 31.1633 278.287 31.55C278.433 31.93 278.627 32.2467 278.867 32.5C279.107 32.7467 279.39 32.9333 279.717 33.06C280.05 33.18 280.417 33.24 280.817 33.24C281.217 33.24 281.56 33.1933 281.847 33.1C282.14 33.0067 282.393 32.9033 282.607 32.79C282.827 32.6767 283.017 32.5733 283.177 32.48C283.343 32.3867 283.503 32.34 283.657 32.34C283.863 32.34 284.017 32.4167 284.117 32.57L284.827 33.47C284.553 33.79 284.247 34.06 283.907 34.28C283.567 34.4933 283.21 34.6667 282.837 34.8C282.47 34.9267 282.093 35.0167 281.707 35.07C281.327 35.1233 280.957 35.15 280.597 35.15C279.883 35.15 279.22 35.0333 278.607 34.8C277.993 34.56 277.46 34.21 277.007 33.75C276.553 33.2833 276.197 32.71 275.937 32.03C275.677 31.3433 275.547 30.55 275.547 29.65C275.547 28.95 275.66 28.2933 275.887 27.68C276.113 27.06 276.437 26.5233 276.857 26.07C277.283 25.61 277.8 25.2467 278.407 24.98C279.02 24.7133 279.71 24.58 280.477 24.58C281.123 24.58 281.72 24.6833 282.267 24.89C282.813 25.0967 283.283 25.4 283.677 25.8C284.07 26.1933 284.377 26.68 284.597 27.26C284.823 27.8333 284.937 28.49 284.937 29.23C284.937 29.6033 284.897 29.8567 284.817 29.99C284.737 30.1167 284.583 30.18 284.357 30.18H278.007ZM293.23 27.36C292.95 27.02 292.644 26.78 292.31 26.64C291.984 26.5 291.63 26.43 291.25 26.43C290.877 26.43 290.54 26.5 290.24 26.64C289.94 26.78 289.684 26.9933 289.47 27.28C289.257 27.56 289.094 27.92 288.98 28.36C288.867 28.7933 288.81 29.3067 288.81 29.9C288.81 30.5 288.857 31.01 288.95 31.43C289.05 31.8433 289.19 32.1833 289.37 32.45C289.55 32.71 289.77 32.9 290.03 33.02C290.29 33.1333 290.58 33.19 290.9 33.19C291.414 33.19 291.85 33.0833 292.21 32.87C292.57 32.6567 292.91 32.3533 293.23 31.96V27.36ZM295.7 20.14V35H294.19C293.864 35 293.657 34.85 293.57 34.55L293.36 33.56C292.947 34.0333 292.47 34.4167 291.93 34.71C291.397 35.0033 290.774 35.15 290.06 35.15C289.5 35.15 288.987 35.0333 288.52 34.8C288.054 34.5667 287.65 34.23 287.31 33.79C286.977 33.3433 286.717 32.7933 286.53 32.14C286.35 31.4867 286.26 30.74 286.26 29.9C286.26 29.14 286.364 28.4333 286.57 27.78C286.777 27.1267 287.074 26.56 287.46 26.08C287.847 25.6 288.31 25.2267 288.85 24.96C289.39 24.6867 289.997 24.55 290.67 24.55C291.244 24.55 291.734 24.64 292.14 24.82C292.547 25 292.91 25.2433 293.23 25.55V20.14H295.7ZM300.698 24.74V35H298.218V24.74H300.698ZM301.038 21.75C301.038 21.9633 300.995 22.1633 300.908 22.35C300.821 22.5367 300.705 22.7 300.558 22.84C300.418 22.98 300.251 23.0933 300.058 23.18C299.865 23.26 299.658 23.3 299.438 23.3C299.225 23.3 299.021 23.26 298.828 23.18C298.641 23.0933 298.478 22.98 298.338 22.84C298.198 22.7 298.085 22.5367 297.998 22.35C297.918 22.1633 297.878 21.9633 297.878 21.75C297.878 21.53 297.918 21.3233 297.998 21.13C298.085 20.9367 298.198 20.77 298.338 20.63C298.478 20.49 298.641 20.38 298.828 20.3C299.021 20.2133 299.225 20.17 299.438 20.17C299.658 20.17 299.865 20.2133 300.058 20.3C300.251 20.38 300.418 20.49 300.558 20.63C300.705 20.77 300.821 20.9367 300.908 21.13C300.995 21.3233 301.038 21.53 301.038 21.75ZM307.756 24.58C308.516 24.58 309.206 24.7033 309.826 24.95C310.453 25.1967 310.986 25.5467 311.426 26C311.873 26.4533 312.216 27.0067 312.456 27.66C312.696 28.3133 312.816 29.0433 312.816 29.85C312.816 30.6633 312.696 31.3967 312.456 32.05C312.216 32.7033 311.873 33.26 311.426 33.72C310.986 34.18 310.453 34.5333 309.826 34.78C309.206 35.0267 308.516 35.15 307.756 35.15C306.989 35.15 306.293 35.0267 305.666 34.78C305.039 34.5333 304.503 34.18 304.056 33.72C303.616 33.26 303.273 32.7033 303.026 32.05C302.786 31.3967 302.666 30.6633 302.666 29.85C302.666 29.0433 302.786 28.3133 303.026 27.66C303.273 27.0067 303.616 26.4533 304.056 26C304.503 25.5467 305.039 25.1967 305.666 24.95C306.293 24.7033 306.989 24.58 307.756 24.58ZM307.756 33.25C308.609 33.25 309.239 32.9633 309.646 32.39C310.059 31.8167 310.266 30.9767 310.266 29.87C310.266 28.7633 310.059 27.92 309.646 27.34C309.239 26.76 308.609 26.47 307.756 26.47C306.889 26.47 306.246 26.7633 305.826 27.35C305.413 27.93 305.206 28.77 305.206 29.87C305.206 30.97 305.413 31.81 305.826 32.39C306.246 32.9633 306.889 33.25 307.756 33.25ZM326.004 27.36C325.724 27.02 325.417 26.78 325.084 26.64C324.757 26.5 324.404 26.43 324.024 26.43C323.65 26.43 323.314 26.5 323.014 26.64C322.714 26.78 322.457 26.9933 322.244 27.28C322.03 27.56 321.867 27.92 321.754 28.36C321.64 28.7933 321.584 29.3067 321.584 29.9C321.584 30.5 321.63 31.01 321.724 31.43C321.824 31.8433 321.964 32.1833 322.144 32.45C322.324 32.71 322.544 32.9 322.804 33.02C323.064 33.1333 323.354 33.19 323.674 33.19C324.187 33.19 324.624 33.0833 324.984 32.87C325.344 32.6567 325.684 32.3533 326.004 31.96V27.36ZM328.474 20.14V35H326.964C326.637 35 326.43 34.85 326.344 34.55L326.134 33.56C325.72 34.0333 325.244 34.4167 324.704 34.71C324.17 35.0033 323.547 35.15 322.834 35.15C322.274 35.15 321.76 35.0333 321.294 34.8C320.827 34.5667 320.424 34.23 320.084 33.79C319.75 33.3433 319.49 32.7933 319.304 32.14C319.124 31.4867 319.034 30.74 319.034 29.9C319.034 29.14 319.137 28.4333 319.344 27.78C319.55 27.1267 319.847 26.56 320.234 26.08C320.62 25.6 321.084 25.2267 321.624 24.96C322.164 24.6867 322.77 24.55 323.444 24.55C324.017 24.55 324.507 24.64 324.914 24.82C325.32 25 325.684 25.2433 326.004 25.55V20.14H328.474ZM337.521 28.69C337.521 28.37 337.475 28.07 337.381 27.79C337.295 27.5033 337.161 27.2533 336.981 27.04C336.801 26.8267 336.571 26.66 336.291 26.54C336.018 26.4133 335.698 26.35 335.331 26.35C334.618 26.35 334.055 26.5533 333.641 26.96C333.235 27.3667 332.975 27.9433 332.861 28.69H337.521ZM332.811 30.18C332.851 30.7067 332.945 31.1633 333.091 31.55C333.238 31.93 333.431 32.2467 333.671 32.5C333.911 32.7467 334.195 32.9333 334.521 33.06C334.855 33.18 335.221 33.24 335.621 33.24C336.021 33.24 336.365 33.1933 336.651 33.1C336.945 33.0067 337.198 32.9033 337.411 32.79C337.631 32.6767 337.821 32.5733 337.981 32.48C338.148 32.3867 338.308 32.34 338.461 32.34C338.668 32.34 338.821 32.4167 338.921 32.57L339.631 33.47C339.358 33.79 339.051 34.06 338.711 34.28C338.371 34.4933 338.015 34.6667 337.641 34.8C337.275 34.9267 336.898 35.0167 336.511 35.07C336.131 35.1233 335.761 35.15 335.401 35.15C334.688 35.15 334.025 35.0333 333.411 34.8C332.798 34.56 332.265 34.21 331.811 33.75C331.358 33.2833 331.001 32.71 330.741 32.03C330.481 31.3433 330.351 30.55 330.351 29.65C330.351 28.95 330.465 28.2933 330.691 27.68C330.918 27.06 331.241 26.5233 331.661 26.07C332.088 25.61 332.605 25.2467 333.211 24.98C333.825 24.7133 334.515 24.58 335.281 24.58C335.928 24.58 336.525 24.6833 337.071 24.89C337.618 25.0967 338.088 25.4 338.481 25.8C338.875 26.1933 339.181 26.68 339.401 27.26C339.628 27.8333 339.741 28.49 339.741 29.23C339.741 29.6033 339.701 29.8567 339.621 29.99C339.541 30.1167 339.388 30.18 339.161 30.18H332.811ZM348.928 25.84C349.328 25.4667 349.768 25.1633 350.248 24.93C350.728 24.6967 351.292 24.58 351.938 24.58C352.498 24.58 352.995 24.6767 353.428 24.87C353.862 25.0567 354.222 25.3233 354.508 25.67C354.802 26.01 355.022 26.42 355.168 26.9C355.322 27.3733 355.398 27.8967 355.398 28.47V35H352.928V28.47C352.928 27.8433 352.785 27.36 352.498 27.02C352.212 26.6733 351.775 26.5 351.188 26.5C350.762 26.5 350.362 26.5967 349.988 26.79C349.615 26.9833 349.262 27.2467 348.928 27.58V35H346.458V20.14H348.928V25.84ZM362.287 24.58C363.047 24.58 363.737 24.7033 364.357 24.95C364.984 25.1967 365.517 25.5467 365.957 26C366.404 26.4533 366.747 27.0067 366.987 27.66C367.227 28.3133 367.347 29.0433 367.347 29.85C367.347 30.6633 367.227 31.3967 366.987 32.05C366.747 32.7033 366.404 33.26 365.957 33.72C365.517 34.18 364.984 34.5333 364.357 34.78C363.737 35.0267 363.047 35.15 362.287 35.15C361.521 35.15 360.824 35.0267 360.197 34.78C359.571 34.5333 359.034 34.18 358.587 33.72C358.147 33.26 357.804 32.7033 357.557 32.05C357.317 31.3967 357.197 30.6633 357.197 29.85C357.197 29.0433 357.317 28.3133 357.557 27.66C357.804 27.0067 358.147 26.4533 358.587 26C359.034 25.5467 359.571 25.1967 360.197 24.95C360.824 24.7033 361.521 24.58 362.287 24.58ZM362.287 33.25C363.141 33.25 363.771 32.9633 364.177 32.39C364.591 31.8167 364.797 30.9767 364.797 29.87C364.797 28.7633 364.591 27.92 364.177 27.34C363.771 26.76 363.141 26.47 362.287 26.47C361.421 26.47 360.777 26.7633 360.357 27.35C359.944 27.93 359.737 28.77 359.737 29.87C359.737 30.97 359.944 31.81 360.357 32.39C360.777 32.9633 361.421 33.25 362.287 33.25ZM371.562 26.52C371.882 25.9067 372.262 25.4267 372.702 25.08C373.142 24.7267 373.662 24.55 374.262 24.55C374.735 24.55 375.115 24.6533 375.402 24.86L375.242 26.71C375.208 26.83 375.158 26.9167 375.092 26.97C375.032 27.0167 374.948 27.04 374.842 27.04C374.742 27.04 374.592 27.0233 374.392 26.99C374.198 26.9567 374.008 26.94 373.822 26.94C373.548 26.94 373.305 26.98 373.092 27.06C372.878 27.14 372.685 27.2567 372.512 27.41C372.345 27.5567 372.195 27.7367 372.062 27.95C371.935 28.1633 371.815 28.4067 371.702 28.68V35H369.232V24.74H370.682C370.935 24.74 371.112 24.7867 371.212 24.88C371.312 24.9667 371.378 25.1267 371.412 25.36L371.562 26.52ZM381.976 30.62C381.263 30.6533 380.663 30.7167 380.176 30.81C379.689 30.8967 379.299 31.01 379.006 31.15C378.713 31.29 378.503 31.4533 378.376 31.64C378.249 31.8267 378.186 32.03 378.186 32.25C378.186 32.6833 378.313 32.9933 378.566 33.18C378.826 33.3667 379.163 33.46 379.576 33.46C380.083 33.46 380.519 33.37 380.886 33.19C381.259 33.0033 381.623 32.7233 381.976 32.35V30.62ZM376.316 26.17C377.496 25.09 378.916 24.55 380.576 24.55C381.176 24.55 381.713 24.65 382.186 24.85C382.659 25.0433 383.059 25.3167 383.386 25.67C383.713 26.0167 383.959 26.4333 384.126 26.92C384.299 27.4067 384.386 27.94 384.386 28.52V35H383.266C383.033 35 382.853 34.9667 382.726 34.9C382.599 34.8267 382.499 34.6833 382.426 34.47L382.206 33.73C381.946 33.9633 381.693 34.17 381.446 34.35C381.199 34.5233 380.943 34.67 380.676 34.79C380.409 34.91 380.123 35 379.816 35.06C379.516 35.1267 379.183 35.16 378.816 35.16C378.383 35.16 377.983 35.1033 377.616 34.99C377.249 34.87 376.933 34.6933 376.666 34.46C376.399 34.2267 376.193 33.9367 376.046 33.59C375.899 33.2433 375.826 32.84 375.826 32.38C375.826 32.12 375.869 31.8633 375.956 31.61C376.043 31.35 376.183 31.1033 376.376 30.87C376.576 30.6367 376.833 30.4167 377.146 30.21C377.459 30.0033 377.843 29.8233 378.296 29.67C378.756 29.5167 379.289 29.3933 379.896 29.3C380.503 29.2 381.196 29.14 381.976 29.12V28.52C381.976 27.8333 381.829 27.3267 381.536 27C381.243 26.6667 380.819 26.5 380.266 26.5C379.866 26.5 379.533 26.5467 379.266 26.64C379.006 26.7333 378.776 26.84 378.576 26.96C378.376 27.0733 378.193 27.1767 378.026 27.27C377.866 27.3633 377.686 27.41 377.486 27.41C377.313 27.41 377.166 27.3667 377.046 27.28C376.926 27.1867 376.829 27.08 376.756 26.96L376.316 26.17ZM392.972 26.74C392.906 26.8467 392.836 26.9233 392.762 26.97C392.689 27.01 392.596 27.03 392.482 27.03C392.362 27.03 392.232 26.9967 392.092 26.93C391.959 26.8633 391.802 26.79 391.622 26.71C391.442 26.6233 391.236 26.5467 391.002 26.48C390.776 26.4133 390.506 26.38 390.192 26.38C389.706 26.38 389.322 26.4833 389.042 26.69C388.769 26.8967 388.632 27.1667 388.632 27.5C388.632 27.72 388.702 27.9067 388.842 28.06C388.989 28.2067 389.179 28.3367 389.412 28.45C389.652 28.5633 389.922 28.6667 390.222 28.76C390.522 28.8467 390.826 28.9433 391.132 29.05C391.446 29.1567 391.752 29.28 392.052 29.42C392.352 29.5533 392.619 29.7267 392.852 29.94C393.092 30.1467 393.282 30.3967 393.422 30.69C393.569 30.9833 393.642 31.3367 393.642 31.75C393.642 32.2433 393.552 32.7 393.372 33.12C393.199 33.5333 392.939 33.8933 392.592 34.2C392.246 34.5 391.816 34.7367 391.302 34.91C390.796 35.0767 390.209 35.16 389.542 35.16C389.189 35.16 388.842 35.1267 388.502 35.06C388.169 35 387.846 34.9133 387.532 34.8C387.226 34.6867 386.939 34.5533 386.672 34.4C386.412 34.2467 386.182 34.08 385.982 33.9L386.552 32.96C386.626 32.8467 386.712 32.76 386.812 32.7C386.912 32.64 387.039 32.61 387.192 32.61C387.346 32.61 387.489 32.6533 387.622 32.74C387.762 32.8267 387.922 32.92 388.102 33.02C388.282 33.12 388.492 33.2133 388.732 33.3C388.979 33.3867 389.289 33.43 389.662 33.43C389.956 33.43 390.206 33.3967 390.412 33.33C390.626 33.2567 390.799 33.1633 390.932 33.05C391.072 32.9367 391.172 32.8067 391.232 32.66C391.299 32.5067 391.332 32.35 391.332 32.19C391.332 31.95 391.259 31.7533 391.112 31.6C390.972 31.4467 390.782 31.3133 390.542 31.2C390.309 31.0867 390.039 30.9867 389.732 30.9C389.432 30.8067 389.122 30.7067 388.802 30.6C388.489 30.4933 388.179 30.37 387.872 30.23C387.572 30.0833 387.302 29.9 387.062 29.68C386.829 29.46 386.639 29.19 386.492 28.87C386.352 28.55 386.282 28.1633 386.282 27.71C386.282 27.29 386.366 26.89 386.532 26.51C386.699 26.13 386.942 25.8 387.262 25.52C387.589 25.2333 387.992 25.0067 388.472 24.84C388.959 24.6667 389.519 24.58 390.152 24.58C390.859 24.58 391.502 24.6967 392.082 24.93C392.662 25.1633 393.146 25.47 393.532 25.85L392.972 26.74ZM405.785 30.62C405.071 30.6533 404.471 30.7167 403.985 30.81C403.498 30.8967 403.108 31.01 402.815 31.15C402.521 31.29 402.311 31.4533 402.185 31.64C402.058 31.8267 401.995 32.03 401.995 32.25C401.995 32.6833 402.121 32.9933 402.375 33.18C402.635 33.3667 402.971 33.46 403.385 33.46C403.891 33.46 404.328 33.37 404.695 33.19C405.068 33.0033 405.431 32.7233 405.785 32.35V30.62ZM400.125 26.17C401.305 25.09 402.725 24.55 404.385 24.55C404.985 24.55 405.521 24.65 405.995 24.85C406.468 25.0433 406.868 25.3167 407.195 25.67C407.521 26.0167 407.768 26.4333 407.935 26.92C408.108 27.4067 408.195 27.94 408.195 28.52V35H407.075C406.841 35 406.661 34.9667 406.535 34.9C406.408 34.8267 406.308 34.6833 406.235 34.47L406.015 33.73C405.755 33.9633 405.501 34.17 405.255 34.35C405.008 34.5233 404.751 34.67 404.485 34.79C404.218 34.91 403.931 35 403.625 35.06C403.325 35.1267 402.991 35.16 402.625 35.16C402.191 35.16 401.791 35.1033 401.425 34.99C401.058 34.87 400.741 34.6933 400.475 34.46C400.208 34.2267 400.001 33.9367 399.855 33.59C399.708 33.2433 399.635 32.84 399.635 32.38C399.635 32.12 399.678 31.8633 399.765 31.61C399.851 31.35 399.991 31.1033 400.185 30.87C400.385 30.6367 400.641 30.4167 400.955 30.21C401.268 30.0033 401.651 29.8233 402.105 29.67C402.565 29.5167 403.098 29.3933 403.705 29.3C404.311 29.2 405.005 29.14 405.785 29.12V28.52C405.785 27.8333 405.638 27.3267 405.345 27C405.051 26.6667 404.628 26.5 404.075 26.5C403.675 26.5 403.341 26.5467 403.075 26.64C402.815 26.7333 402.585 26.84 402.385 26.96C402.185 27.0733 402.001 27.1767 401.835 27.27C401.675 27.3633 401.495 27.41 401.295 27.41C401.121 27.41 400.975 27.3667 400.855 27.28C400.735 27.1867 400.638 27.08 400.565 26.96L400.125 26.17ZM413.021 20.14V35H410.551V20.14H413.021ZM426.785 27.36C426.505 27.02 426.198 26.78 425.865 26.64C425.538 26.5 425.185 26.43 424.805 26.43C424.432 26.43 424.095 26.5 423.795 26.64C423.495 26.78 423.238 26.9933 423.025 27.28C422.812 27.56 422.648 27.92 422.535 28.36C422.422 28.7933 422.365 29.3067 422.365 29.9C422.365 30.5 422.412 31.01 422.505 31.43C422.605 31.8433 422.745 32.1833 422.925 32.45C423.105 32.71 423.325 32.9 423.585 33.02C423.845 33.1333 424.135 33.19 424.455 33.19C424.968 33.19 425.405 33.0833 425.765 32.87C426.125 32.6567 426.465 32.3533 426.785 31.96V27.36ZM429.255 20.14V35H427.745C427.418 35 427.212 34.85 427.125 34.55L426.915 33.56C426.502 34.0333 426.025 34.4167 425.485 34.71C424.952 35.0033 424.328 35.15 423.615 35.15C423.055 35.15 422.542 35.0333 422.075 34.8C421.608 34.5667 421.205 34.23 420.865 33.79C420.532 33.3433 420.272 32.7933 420.085 32.14C419.905 31.4867 419.815 30.74 419.815 29.9C419.815 29.14 419.918 28.4333 420.125 27.78C420.332 27.1267 420.628 26.56 421.015 26.08C421.402 25.6 421.865 25.2267 422.405 24.96C422.945 24.6867 423.552 24.55 424.225 24.55C424.798 24.55 425.288 24.64 425.695 24.82C426.102 25 426.465 25.2433 426.785 25.55V20.14H429.255ZM434.253 24.74V35H431.773V24.74H434.253ZM434.593 21.75C434.593 21.9633 434.549 22.1633 434.463 22.35C434.376 22.5367 434.259 22.7 434.113 22.84C433.973 22.98 433.806 23.0933 433.613 23.18C433.419 23.26 433.213 23.3 432.993 23.3C432.779 23.3 432.576 23.26 432.383 23.18C432.196 23.0933 432.033 22.98 431.893 22.84C431.753 22.7 431.639 22.5367 431.553 22.35C431.473 22.1633 431.433 21.9633 431.433 21.75C431.433 21.53 431.473 21.3233 431.553 21.13C431.639 20.9367 431.753 20.77 431.893 20.63C432.033 20.49 432.196 20.38 432.383 20.3C432.576 20.2133 432.779 20.17 432.993 20.17C433.213 20.17 433.419 20.2133 433.613 20.3C433.806 20.38 433.973 20.49 434.113 20.63C434.259 20.77 434.376 20.9367 434.463 21.13C434.549 21.3233 434.593 21.53 434.593 21.75ZM442.191 30.62C441.477 30.6533 440.877 30.7167 440.391 30.81C439.904 30.8967 439.514 31.01 439.221 31.15C438.927 31.29 438.717 31.4533 438.591 31.64C438.464 31.8267 438.401 32.03 438.401 32.25C438.401 32.6833 438.527 32.9933 438.781 33.18C439.041 33.3667 439.377 33.46 439.791 33.46C440.297 33.46 440.734 33.37 441.101 33.19C441.474 33.0033 441.837 32.7233 442.191 32.35V30.62ZM436.531 26.17C437.711 25.09 439.131 24.55 440.791 24.55C441.391 24.55 441.927 24.65 442.401 24.85C442.874 25.0433 443.274 25.3167 443.601 25.67C443.927 26.0167 444.174 26.4333 444.341 26.92C444.514 27.4067 444.601 27.94 444.601 28.52V35H443.481C443.247 35 443.067 34.9667 442.941 34.9C442.814 34.8267 442.714 34.6833 442.641 34.47L442.421 33.73C442.161 33.9633 441.907 34.17 441.661 34.35C441.414 34.5233 441.157 34.67 440.891 34.79C440.624 34.91 440.337 35 440.031 35.06C439.731 35.1267 439.397 35.16 439.031 35.16C438.597 35.16 438.197 35.1033 437.831 34.99C437.464 34.87 437.147 34.6933 436.881 34.46C436.614 34.2267 436.407 33.9367 436.261 33.59C436.114 33.2433 436.041 32.84 436.041 32.38C436.041 32.12 436.084 31.8633 436.171 31.61C436.257 31.35 436.397 31.1033 436.591 30.87C436.791 30.6367 437.047 30.4167 437.361 30.21C437.674 30.0033 438.057 29.8233 438.511 29.67C438.971 29.5167 439.504 29.3933 440.111 29.3C440.717 29.2 441.411 29.14 442.191 29.12V28.52C442.191 27.8333 442.044 27.3267 441.751 27C441.457 26.6667 441.034 26.5 440.481 26.5C440.081 26.5 439.747 26.5467 439.481 26.64C439.221 26.7333 438.991 26.84 438.791 26.96C438.591 27.0733 438.407 27.1767 438.241 27.27C438.081 27.3633 437.901 27.41 437.701 27.41C437.527 27.41 437.381 27.3667 437.261 27.28C437.141 27.1867 437.044 27.08 436.971 26.96L436.531 26.17ZM458.23 27.36C457.957 27.02 457.654 26.78 457.32 26.64C456.987 26.5 456.63 26.43 456.25 26.43C455.877 26.43 455.54 26.5 455.24 26.64C454.94 26.78 454.684 26.9933 454.47 27.28C454.257 27.56 454.094 27.92 453.98 28.36C453.867 28.7933 453.81 29.3067 453.81 29.9C453.81 30.5 453.857 31.01 453.95 31.43C454.05 31.8433 454.19 32.1833 454.37 32.45C454.55 32.71 454.77 32.9 455.03 33.02C455.29 33.1333 455.58 33.19 455.9 33.19C456.414 33.19 456.85 33.0833 457.21 32.87C457.57 32.6567 457.91 32.3533 458.23 31.96V27.36ZM460.7 24.74V38.35H458.23V33.7C457.824 34.1333 457.364 34.4833 456.85 34.75C456.337 35.0167 455.74 35.15 455.06 35.15C454.5 35.15 453.987 35.0333 453.52 34.8C453.054 34.5667 452.65 34.23 452.31 33.79C451.977 33.3433 451.717 32.7933 451.53 32.14C451.35 31.4867 451.26 30.74 451.26 29.9C451.26 29.14 451.364 28.4333 451.57 27.78C451.777 27.1267 452.074 26.56 452.46 26.08C452.847 25.6 453.31 25.2267 453.85 24.96C454.39 24.6867 454.997 24.55 455.67 24.55C456.31 24.55 456.847 24.66 457.28 24.88C457.714 25.1 458.1 25.3967 458.44 25.77L458.57 25.19C458.657 24.89 458.864 24.74 459.19 24.74H460.7ZM471.978 24.74V35H470.468C470.141 35 469.935 34.85 469.848 34.55L469.678 33.73C469.258 34.1567 468.795 34.5033 468.288 34.77C467.781 35.03 467.185 35.16 466.498 35.16C465.938 35.16 465.441 35.0667 465.008 34.88C464.581 34.6867 464.221 34.4167 463.928 34.07C463.635 33.7233 463.411 33.3133 463.258 32.84C463.111 32.36 463.038 31.8333 463.038 31.26V24.74H465.508V31.26C465.508 31.8867 465.651 32.3733 465.938 32.72C466.231 33.06 466.668 33.23 467.248 33.23C467.675 33.23 468.075 33.1367 468.448 32.95C468.821 32.7567 469.175 32.4933 469.508 32.16V24.74H471.978ZM481.037 28.69C481.037 28.37 480.99 28.07 480.897 27.79C480.81 27.5033 480.677 27.2533 480.497 27.04C480.317 26.8267 480.087 26.66 479.807 26.54C479.534 26.4133 479.214 26.35 478.847 26.35C478.134 26.35 477.57 26.5533 477.157 26.96C476.75 27.3667 476.49 27.9433 476.377 28.69H481.037ZM476.327 30.18C476.367 30.7067 476.46 31.1633 476.607 31.55C476.754 31.93 476.947 32.2467 477.187 32.5C477.427 32.7467 477.71 32.9333 478.037 33.06C478.37 33.18 478.737 33.24 479.137 33.24C479.537 33.24 479.88 33.1933 480.167 33.1C480.46 33.0067 480.714 32.9033 480.927 32.79C481.147 32.6767 481.337 32.5733 481.497 32.48C481.664 32.3867 481.824 32.34 481.977 32.34C482.184 32.34 482.337 32.4167 482.437 32.57L483.147 33.47C482.874 33.79 482.567 34.06 482.227 34.28C481.887 34.4933 481.53 34.6667 481.157 34.8C480.79 34.9267 480.414 35.0167 480.027 35.07C479.647 35.1233 479.277 35.15 478.917 35.15C478.204 35.15 477.54 35.0333 476.927 34.8C476.314 34.56 475.78 34.21 475.327 33.75C474.874 33.2833 474.517 32.71 474.257 32.03C473.997 31.3433 473.867 30.55 473.867 29.65C473.867 28.95 473.98 28.2933 474.207 27.68C474.434 27.06 474.757 26.5233 475.177 26.07C475.604 25.61 476.12 25.2467 476.727 24.98C477.34 24.7133 478.03 24.58 478.797 24.58C479.444 24.58 480.04 24.6833 480.587 24.89C481.134 25.0967 481.604 25.4 481.997 25.8C482.39 26.1933 482.697 26.68 482.917 27.26C483.144 27.8333 483.257 28.49 483.257 29.23C483.257 29.6033 483.217 29.8567 483.137 29.99C483.057 30.1167 482.904 30.18 482.677 30.18H476.327ZM248.57 48.74V59H247.06C246.733 59 246.526 58.85 246.44 58.55L246.27 57.73C245.85 58.1567 245.386 58.5033 244.88 58.77C244.373 59.03 243.776 59.16 243.09 59.16C242.53 59.16 242.033 59.0667 241.6 58.88C241.173 58.6867 240.813 58.4167 240.52 58.07C240.226 57.7233 240.003 57.3133 239.85 56.84C239.703 56.36 239.63 55.8333 239.63 55.26V48.74H242.1V55.26C242.1 55.8867 242.243 56.3733 242.53 56.72C242.823 57.06 243.26 57.23 243.84 57.23C244.266 57.23 244.666 57.1367 245.04 56.95C245.413 56.7567 245.766 56.4933 246.1 56.16V48.74H248.57ZM253.329 50C253.535 49.7933 253.752 49.6033 253.979 49.43C254.212 49.25 254.455 49.1 254.709 48.98C254.969 48.8533 255.245 48.7567 255.539 48.69C255.832 48.6167 256.152 48.58 256.499 48.58C257.059 48.58 257.555 48.6767 257.989 48.87C258.422 49.0567 258.782 49.3233 259.069 49.67C259.362 50.01 259.582 50.42 259.729 50.9C259.882 51.3733 259.959 51.8967 259.959 52.47V59H257.489V52.47C257.489 51.8433 257.345 51.36 257.059 51.02C256.772 50.6733 256.335 50.5 255.749 50.5C255.322 50.5 254.922 50.5967 254.549 50.79C254.175 50.9833 253.822 51.2467 253.489 51.58V59H251.019V48.74H252.529C252.849 48.74 253.059 48.89 253.159 49.19L253.329 50ZM267.728 54.62C267.015 54.6533 266.415 54.7167 265.928 54.81C265.441 54.8967 265.051 55.01 264.758 55.15C264.465 55.29 264.255 55.4533 264.128 55.64C264.001 55.8267 263.938 56.03 263.938 56.25C263.938 56.6833 264.065 56.9933 264.318 57.18C264.578 57.3667 264.915 57.46 265.328 57.46C265.835 57.46 266.271 57.37 266.638 57.19C267.011 57.0033 267.375 56.7233 267.728 56.35V54.62ZM262.068 50.17C263.248 49.09 264.668 48.55 266.328 48.55C266.928 48.55 267.465 48.65 267.938 48.85C268.411 49.0433 268.811 49.3167 269.138 49.67C269.465 50.0167 269.711 50.4333 269.878 50.92C270.051 51.4067 270.138 51.94 270.138 52.52V59H269.018C268.785 59 268.605 58.9667 268.478 58.9C268.351 58.8267 268.251 58.6833 268.178 58.47L267.958 57.73C267.698 57.9633 267.445 58.17 267.198 58.35C266.951 58.5233 266.695 58.67 266.428 58.79C266.161 58.91 265.875 59 265.568 59.06C265.268 59.1267 264.935 59.16 264.568 59.16C264.135 59.16 263.735 59.1033 263.368 58.99C263.001 58.87 262.685 58.6933 262.418 58.46C262.151 58.2267 261.945 57.9367 261.798 57.59C261.651 57.2433 261.578 56.84 261.578 56.38C261.578 56.12 261.621 55.8633 261.708 55.61C261.795 55.35 261.935 55.1033 262.128 54.87C262.328 54.6367 262.585 54.4167 262.898 54.21C263.211 54.0033 263.595 53.8233 264.048 53.67C264.508 53.5167 265.041 53.3933 265.648 53.3C266.255 53.2 266.948 53.14 267.728 53.12V52.52C267.728 51.8333 267.581 51.3267 267.288 51C266.995 50.6667 266.571 50.5 266.018 50.5C265.618 50.5 265.285 50.5467 265.018 50.64C264.758 50.7333 264.528 50.84 264.328 50.96C264.128 51.0733 263.945 51.1767 263.778 51.27C263.618 51.3633 263.438 51.41 263.238 51.41C263.065 51.41 262.918 51.3667 262.798 51.28C262.678 51.1867 262.581 51.08 262.508 50.96L262.068 50.17ZM279.797 56.34C280.077 56.68 280.381 56.92 280.707 57.06C281.041 57.2 281.401 57.27 281.787 57.27C282.161 57.27 282.497 57.2 282.797 57.06C283.097 56.92 283.351 56.7067 283.557 56.42C283.771 56.1333 283.934 55.7733 284.047 55.34C284.161 54.9 284.217 54.3833 284.217 53.79C284.217 53.19 284.167 52.6833 284.067 52.27C283.974 51.85 283.837 51.51 283.657 51.25C283.477 50.99 283.257 50.8 282.997 50.68C282.744 50.56 282.454 50.5 282.127 50.5C281.614 50.5 281.177 50.61 280.817 50.83C280.457 51.0433 280.117 51.3467 279.797 51.74V56.34ZM279.667 50.14C280.087 49.6667 280.564 49.2833 281.097 48.99C281.631 48.6967 282.257 48.55 282.977 48.55C283.537 48.55 284.047 48.6667 284.507 48.9C284.974 49.1333 285.374 49.4733 285.707 49.92C286.047 50.36 286.307 50.9067 286.487 51.56C286.674 52.2067 286.767 52.95 286.767 53.79C286.767 54.5567 286.664 55.2667 286.457 55.92C286.251 56.5733 285.954 57.14 285.567 57.62C285.187 58.1 284.724 58.4767 284.177 58.75C283.637 59.0167 283.031 59.15 282.357 59.15C281.784 59.15 281.294 59.0633 280.887 58.89C280.481 58.71 280.117 58.4633 279.797 58.15V62.35H277.327V48.74H278.837C279.157 48.74 279.367 48.89 279.467 49.19L279.667 50.14ZM295.305 52.69C295.305 52.37 295.258 52.07 295.165 51.79C295.078 51.5033 294.945 51.2533 294.765 51.04C294.585 50.8267 294.355 50.66 294.075 50.54C293.801 50.4133 293.481 50.35 293.115 50.35C292.401 50.35 291.838 50.5533 291.425 50.96C291.018 51.3667 290.758 51.9433 290.645 52.69H295.305ZM290.595 54.18C290.635 54.7067 290.728 55.1633 290.875 55.55C291.021 55.93 291.215 56.2467 291.455 56.5C291.695 56.7467 291.978 56.9333 292.305 57.06C292.638 57.18 293.005 57.24 293.405 57.24C293.805 57.24 294.148 57.1933 294.435 57.1C294.728 57.0067 294.981 56.9033 295.195 56.79C295.415 56.6767 295.605 56.5733 295.765 56.48C295.931 56.3867 296.091 56.34 296.245 56.34C296.451 56.34 296.605 56.4167 296.705 56.57L297.415 57.47C297.141 57.79 296.835 58.06 296.495 58.28C296.155 58.4933 295.798 58.6667 295.425 58.8C295.058 58.9267 294.681 59.0167 294.295 59.07C293.915 59.1233 293.545 59.15 293.185 59.15C292.471 59.15 291.808 59.0333 291.195 58.8C290.581 58.56 290.048 58.21 289.595 57.75C289.141 57.2833 288.785 56.71 288.525 56.03C288.265 55.3433 288.135 54.55 288.135 53.65C288.135 52.95 288.248 52.2933 288.475 51.68C288.701 51.06 289.025 50.5233 289.445 50.07C289.871 49.61 290.388 49.2467 290.995 48.98C291.608 48.7133 292.298 48.58 293.065 48.58C293.711 48.58 294.308 48.6833 294.855 48.89C295.401 49.0967 295.871 49.4 296.265 49.8C296.658 50.1933 296.965 50.68 297.185 51.26C297.411 51.8333 297.525 52.49 297.525 53.23C297.525 53.6033 297.485 53.8567 297.405 53.99C297.325 54.1167 297.171 54.18 296.945 54.18H290.595ZM301.708 50.52C302.028 49.9067 302.408 49.4267 302.848 49.08C303.288 48.7267 303.808 48.55 304.408 48.55C304.882 48.55 305.262 48.6533 305.548 48.86L305.388 50.71C305.355 50.83 305.305 50.9167 305.238 50.97C305.178 51.0167 305.095 51.04 304.988 51.04C304.888 51.04 304.738 51.0233 304.538 50.99C304.345 50.9567 304.155 50.94 303.968 50.94C303.695 50.94 303.452 50.98 303.238 51.06C303.025 51.14 302.832 51.2567 302.658 51.41C302.492 51.5567 302.342 51.7367 302.208 51.95C302.082 52.1633 301.962 52.4067 301.848 52.68V59H299.378V48.74H300.828C301.082 48.74 301.258 48.7867 301.358 48.88C301.458 48.9667 301.525 49.1267 301.558 49.36L301.708 50.52ZM313.06 50.74C312.993 50.8467 312.923 50.9233 312.85 50.97C312.777 51.01 312.683 51.03 312.57 51.03C312.45 51.03 312.32 50.9967 312.18 50.93C312.047 50.8633 311.89 50.79 311.71 50.71C311.53 50.6233 311.323 50.5467 311.09 50.48C310.863 50.4133 310.593 50.38 310.28 50.38C309.793 50.38 309.41 50.4833 309.13 50.69C308.857 50.8967 308.72 51.1667 308.72 51.5C308.72 51.72 308.79 51.9067 308.93 52.06C309.077 52.2067 309.267 52.3367 309.5 52.45C309.74 52.5633 310.01 52.6667 310.31 52.76C310.61 52.8467 310.913 52.9433 311.22 53.05C311.533 53.1567 311.84 53.28 312.14 53.42C312.44 53.5533 312.707 53.7267 312.94 53.94C313.18 54.1467 313.37 54.3967 313.51 54.69C313.657 54.9833 313.73 55.3367 313.73 55.75C313.73 56.2433 313.64 56.7 313.46 57.12C313.287 57.5333 313.027 57.8933 312.68 58.2C312.333 58.5 311.903 58.7367 311.39 58.91C310.883 59.0767 310.297 59.16 309.63 59.16C309.277 59.16 308.93 59.1267 308.59 59.06C308.257 59 307.933 58.9133 307.62 58.8C307.313 58.6867 307.027 58.5533 306.76 58.4C306.5 58.2467 306.27 58.08 306.07 57.9L306.64 56.96C306.713 56.8467 306.8 56.76 306.9 56.7C307 56.64 307.127 56.61 307.28 56.61C307.433 56.61 307.577 56.6533 307.71 56.74C307.85 56.8267 308.01 56.92 308.19 57.02C308.37 57.12 308.58 57.2133 308.82 57.3C309.067 57.3867 309.377 57.43 309.75 57.43C310.043 57.43 310.293 57.3967 310.5 57.33C310.713 57.2567 310.887 57.1633 311.02 57.05C311.16 56.9367 311.26 56.8067 311.32 56.66C311.387 56.5067 311.42 56.35 311.42 56.19C311.42 55.95 311.347 55.7533 311.2 55.6C311.06 55.4467 310.87 55.3133 310.63 55.2C310.397 55.0867 310.127 54.9867 309.82 54.9C309.52 54.8067 309.21 54.7067 308.89 54.6C308.577 54.4933 308.267 54.37 307.96 54.23C307.66 54.0833 307.39 53.9 307.15 53.68C306.917 53.46 306.727 53.19 306.58 52.87C306.44 52.55 306.37 52.1633 306.37 51.71C306.37 51.29 306.453 50.89 306.62 50.51C306.787 50.13 307.03 49.8 307.35 49.52C307.677 49.2333 308.08 49.0067 308.56 48.84C309.047 48.6667 309.607 48.58 310.24 48.58C310.947 48.58 311.59 48.6967 312.17 48.93C312.75 49.1633 313.233 49.47 313.62 49.85L313.06 50.74ZM320.129 48.58C320.889 48.58 321.579 48.7033 322.199 48.95C322.826 49.1967 323.359 49.5467 323.799 50C324.246 50.4533 324.589 51.0067 324.829 51.66C325.069 52.3133 325.189 53.0433 325.189 53.85C325.189 54.6633 325.069 55.3967 324.829 56.05C324.589 56.7033 324.246 57.26 323.799 57.72C323.359 58.18 322.826 58.5333 322.199 58.78C321.579 59.0267 320.889 59.15 320.129 59.15C319.362 59.15 318.666 59.0267 318.039 58.78C317.412 58.5333 316.876 58.18 316.429 57.72C315.989 57.26 315.646 56.7033 315.399 56.05C315.159 55.3967 315.039 54.6633 315.039 53.85C315.039 53.0433 315.159 52.3133 315.399 51.66C315.646 51.0067 315.989 50.4533 316.429 50C316.876 49.5467 317.412 49.1967 318.039 48.95C318.666 48.7033 319.362 48.58 320.129 48.58ZM320.129 57.25C320.982 57.25 321.612 56.9633 322.019 56.39C322.432 55.8167 322.639 54.9767 322.639 53.87C322.639 52.7633 322.432 51.92 322.019 51.34C321.612 50.76 320.982 50.47 320.129 50.47C319.262 50.47 318.619 50.7633 318.199 51.35C317.786 51.93 317.579 52.77 317.579 53.87C317.579 54.97 317.786 55.81 318.199 56.39C318.619 56.9633 319.262 57.25 320.129 57.25ZM329.384 50C329.59 49.7933 329.807 49.6033 330.034 49.43C330.267 49.25 330.51 49.1 330.764 48.98C331.024 48.8533 331.3 48.7567 331.594 48.69C331.887 48.6167 332.207 48.58 332.554 48.58C333.114 48.58 333.61 48.6767 334.044 48.87C334.477 49.0567 334.837 49.3233 335.124 49.67C335.417 50.01 335.637 50.42 335.784 50.9C335.937 51.3733 336.014 51.8967 336.014 52.47V59H333.544V52.47C333.544 51.8433 333.4 51.36 333.114 51.02C332.827 50.6733 332.39 50.5 331.804 50.5C331.377 50.5 330.977 50.5967 330.604 50.79C330.23 50.9833 329.877 51.2467 329.544 51.58V59H327.074V48.74H328.584C328.904 48.74 329.114 48.89 329.214 49.19L329.384 50ZM343.783 54.62C343.069 54.6533 342.469 54.7167 341.983 54.81C341.496 54.8967 341.106 55.01 340.813 55.15C340.519 55.29 340.309 55.4533 340.183 55.64C340.056 55.8267 339.993 56.03 339.993 56.25C339.993 56.6833 340.119 56.9933 340.373 57.18C340.633 57.3667 340.969 57.46 341.383 57.46C341.889 57.46 342.326 57.37 342.693 57.19C343.066 57.0033 343.429 56.7233 343.783 56.35V54.62ZM338.123 50.17C339.303 49.09 340.723 48.55 342.383 48.55C342.983 48.55 343.519 48.65 343.993 48.85C344.466 49.0433 344.866 49.3167 345.193 49.67C345.519 50.0167 345.766 50.4333 345.933 50.92C346.106 51.4067 346.193 51.94 346.193 52.52V59H345.073C344.839 59 344.659 58.9667 344.533 58.9C344.406 58.8267 344.306 58.6833 344.233 58.47L344.013 57.73C343.753 57.9633 343.499 58.17 343.253 58.35C343.006 58.5233 342.749 58.67 342.483 58.79C342.216 58.91 341.929 59 341.623 59.06C341.323 59.1267 340.989 59.16 340.623 59.16C340.189 59.16 339.789 59.1033 339.423 58.99C339.056 58.87 338.739 58.6933 338.473 58.46C338.206 58.2267 337.999 57.9367 337.853 57.59C337.706 57.2433 337.633 56.84 337.633 56.38C337.633 56.12 337.676 55.8633 337.763 55.61C337.849 55.35 337.989 55.1033 338.183 54.87C338.383 54.6367 338.639 54.4167 338.953 54.21C339.266 54.0033 339.649 53.8233 340.103 53.67C340.563 53.5167 341.096 53.3933 341.703 53.3C342.309 53.2 343.003 53.14 343.783 53.12V52.52C343.783 51.8333 343.636 51.3267 343.343 51C343.049 50.6667 342.626 50.5 342.073 50.5C341.673 50.5 341.339 50.5467 341.073 50.64C340.813 50.7333 340.583 50.84 340.383 50.96C340.183 51.0733 339.999 51.1767 339.833 51.27C339.673 51.3633 339.493 51.41 339.293 51.41C339.119 51.41 338.973 51.3667 338.853 51.28C338.733 51.1867 338.636 51.08 338.563 50.96L338.123 50.17ZM362.222 48.74V59H360.712C360.385 59 360.179 58.85 360.092 58.55L359.922 57.73C359.502 58.1567 359.039 58.5033 358.532 58.77C358.025 59.03 357.429 59.16 356.742 59.16C356.182 59.16 355.685 59.0667 355.252 58.88C354.825 58.6867 354.465 58.4167 354.172 58.07C353.879 57.7233 353.655 57.3133 353.502 56.84C353.355 56.36 353.282 55.8333 353.282 55.26V48.74H355.752V55.26C355.752 55.8867 355.895 56.3733 356.182 56.72C356.475 57.06 356.912 57.23 357.492 57.23C357.919 57.23 358.319 57.1367 358.692 56.95C359.065 56.7567 359.419 56.4933 359.752 56.16V48.74H362.222ZM370.931 50.74C370.865 50.8467 370.795 50.9233 370.721 50.97C370.648 51.01 370.555 51.03 370.441 51.03C370.321 51.03 370.191 50.9967 370.051 50.93C369.918 50.8633 369.761 50.79 369.581 50.71C369.401 50.6233 369.195 50.5467 368.961 50.48C368.735 50.4133 368.465 50.38 368.151 50.38C367.665 50.38 367.281 50.4833 367.001 50.69C366.728 50.8967 366.591 51.1667 366.591 51.5C366.591 51.72 366.661 51.9067 366.801 52.06C366.948 52.2067 367.138 52.3367 367.371 52.45C367.611 52.5633 367.881 52.6667 368.181 52.76C368.481 52.8467 368.785 52.9433 369.091 53.05C369.405 53.1567 369.711 53.28 370.011 53.42C370.311 53.5533 370.578 53.7267 370.811 53.94C371.051 54.1467 371.241 54.3967 371.381 54.69C371.528 54.9833 371.601 55.3367 371.601 55.75C371.601 56.2433 371.511 56.7 371.331 57.12C371.158 57.5333 370.898 57.8933 370.551 58.2C370.205 58.5 369.775 58.7367 369.261 58.91C368.755 59.0767 368.168 59.16 367.501 59.16C367.148 59.16 366.801 59.1267 366.461 59.06C366.128 59 365.805 58.9133 365.491 58.8C365.185 58.6867 364.898 58.5533 364.631 58.4C364.371 58.2467 364.141 58.08 363.941 57.9L364.511 56.96C364.585 56.8467 364.671 56.76 364.771 56.7C364.871 56.64 364.998 56.61 365.151 56.61C365.305 56.61 365.448 56.6533 365.581 56.74C365.721 56.8267 365.881 56.92 366.061 57.02C366.241 57.12 366.451 57.2133 366.691 57.3C366.938 57.3867 367.248 57.43 367.621 57.43C367.915 57.43 368.165 57.3967 368.371 57.33C368.585 57.2567 368.758 57.1633 368.891 57.05C369.031 56.9367 369.131 56.8067 369.191 56.66C369.258 56.5067 369.291 56.35 369.291 56.19C369.291 55.95 369.218 55.7533 369.071 55.6C368.931 55.4467 368.741 55.3133 368.501 55.2C368.268 55.0867 367.998 54.9867 367.691 54.9C367.391 54.8067 367.081 54.7067 366.761 54.6C366.448 54.4933 366.138 54.37 365.831 54.23C365.531 54.0833 365.261 53.9 365.021 53.68C364.788 53.46 364.598 53.19 364.451 52.87C364.311 52.55 364.241 52.1633 364.241 51.71C364.241 51.29 364.325 50.89 364.491 50.51C364.658 50.13 364.901 49.8 365.221 49.52C365.548 49.2333 365.951 49.0067 366.431 48.84C366.918 48.6667 367.478 48.58 368.111 48.58C368.818 48.58 369.461 48.6967 370.041 48.93C370.621 49.1633 371.105 49.47 371.491 49.85L370.931 50.74ZM378.88 54.62C378.167 54.6533 377.567 54.7167 377.08 54.81C376.594 54.8967 376.204 55.01 375.91 55.15C375.617 55.29 375.407 55.4533 375.28 55.64C375.154 55.8267 375.09 56.03 375.09 56.25C375.09 56.6833 375.217 56.9933 375.47 57.18C375.73 57.3667 376.067 57.46 376.48 57.46C376.987 57.46 377.424 57.37 377.79 57.19C378.164 57.0033 378.527 56.7233 378.88 56.35V54.62ZM373.22 50.17C374.4 49.09 375.82 48.55 377.48 48.55C378.08 48.55 378.617 48.65 379.09 48.85C379.564 49.0433 379.964 49.3167 380.29 49.67C380.617 50.0167 380.864 50.4333 381.03 50.92C381.204 51.4067 381.29 51.94 381.29 52.52V59H380.17C379.937 59 379.757 58.9667 379.63 58.9C379.504 58.8267 379.404 58.6833 379.33 58.47L379.11 57.73C378.85 57.9633 378.597 58.17 378.35 58.35C378.104 58.5233 377.847 58.67 377.58 58.79C377.314 58.91 377.027 59 376.72 59.06C376.42 59.1267 376.087 59.16 375.72 59.16C375.287 59.16 374.887 59.1033 374.52 58.99C374.154 58.87 373.837 58.6933 373.57 58.46C373.304 58.2267 373.097 57.9367 372.95 57.59C372.804 57.2433 372.73 56.84 372.73 56.38C372.73 56.12 372.774 55.8633 372.86 55.61C372.947 55.35 373.087 55.1033 373.28 54.87C373.48 54.6367 373.737 54.4167 374.05 54.21C374.364 54.0033 374.747 53.8233 375.2 53.67C375.66 53.5167 376.194 53.3933 376.8 53.3C377.407 53.2 378.1 53.14 378.88 53.12V52.52C378.88 51.8333 378.734 51.3267 378.44 51C378.147 50.6667 377.724 50.5 377.17 50.5C376.77 50.5 376.437 50.5467 376.17 50.64C375.91 50.7333 375.68 50.84 375.48 50.96C375.28 51.0733 375.097 51.1767 374.93 51.27C374.77 51.3633 374.59 51.41 374.39 51.41C374.217 51.41 374.07 51.3667 373.95 51.28C373.83 51.1867 373.734 51.08 373.66 50.96L373.22 50.17ZM389.876 50.74C389.81 50.8467 389.74 50.9233 389.666 50.97C389.593 51.01 389.5 51.03 389.386 51.03C389.266 51.03 389.136 50.9967 388.996 50.93C388.863 50.8633 388.706 50.79 388.526 50.71C388.346 50.6233 388.14 50.5467 387.906 50.48C387.68 50.4133 387.41 50.38 387.096 50.38C386.61 50.38 386.226 50.4833 385.946 50.69C385.673 50.8967 385.536 51.1667 385.536 51.5C385.536 51.72 385.606 51.9067 385.746 52.06C385.893 52.2067 386.083 52.3367 386.316 52.45C386.556 52.5633 386.826 52.6667 387.126 52.76C387.426 52.8467 387.73 52.9433 388.036 53.05C388.35 53.1567 388.656 53.28 388.956 53.42C389.256 53.5533 389.523 53.7267 389.756 53.94C389.996 54.1467 390.186 54.3967 390.326 54.69C390.473 54.9833 390.546 55.3367 390.546 55.75C390.546 56.2433 390.456 56.7 390.276 57.12C390.103 57.5333 389.843 57.8933 389.496 58.2C389.15 58.5 388.72 58.7367 388.206 58.91C387.7 59.0767 387.113 59.16 386.446 59.16C386.093 59.16 385.746 59.1267 385.406 59.06C385.073 59 384.75 58.9133 384.436 58.8C384.13 58.6867 383.843 58.5533 383.576 58.4C383.316 58.2467 383.086 58.08 382.886 57.9L383.456 56.96C383.53 56.8467 383.616 56.76 383.716 56.7C383.816 56.64 383.943 56.61 384.096 56.61C384.25 56.61 384.393 56.6533 384.526 56.74C384.666 56.8267 384.826 56.92 385.006 57.02C385.186 57.12 385.396 57.2133 385.636 57.3C385.883 57.3867 386.193 57.43 386.566 57.43C386.86 57.43 387.11 57.3967 387.316 57.33C387.53 57.2567 387.703 57.1633 387.836 57.05C387.976 56.9367 388.076 56.8067 388.136 56.66C388.203 56.5067 388.236 56.35 388.236 56.19C388.236 55.95 388.163 55.7533 388.016 55.6C387.876 55.4467 387.686 55.3133 387.446 55.2C387.213 55.0867 386.943 54.9867 386.636 54.9C386.336 54.8067 386.026 54.7067 385.706 54.6C385.393 54.4933 385.083 54.37 384.776 54.23C384.476 54.0833 384.206 53.9 383.966 53.68C383.733 53.46 383.543 53.19 383.396 52.87C383.256 52.55 383.186 52.1633 383.186 51.71C383.186 51.29 383.27 50.89 383.436 50.51C383.603 50.13 383.846 49.8 384.166 49.52C384.493 49.2333 384.896 49.0067 385.376 48.84C385.863 48.6667 386.423 48.58 387.056 48.58C387.763 48.58 388.406 48.6967 388.986 48.93C389.566 49.1633 390.05 49.47 390.436 49.85L389.876 50.74ZM399.769 44.14V59H397.299V44.14H399.769ZM407.65 54.62C406.936 54.6533 406.336 54.7167 405.85 54.81C405.363 54.8967 404.973 55.01 404.68 55.15C404.386 55.29 404.176 55.4533 404.05 55.64C403.923 55.8267 403.86 56.03 403.86 56.25C403.86 56.6833 403.986 56.9933 404.24 57.18C404.5 57.3667 404.836 57.46 405.25 57.46C405.756 57.46 406.193 57.37 406.56 57.19C406.933 57.0033 407.296 56.7233 407.65 56.35V54.62ZM401.99 50.17C403.17 49.09 404.59 48.55 406.25 48.55C406.85 48.55 407.386 48.65 407.86 48.85C408.333 49.0433 408.733 49.3167 409.06 49.67C409.386 50.0167 409.633 50.4333 409.8 50.92C409.973 51.4067 410.06 51.94 410.06 52.52V59H408.94C408.706 59 408.526 58.9667 408.4 58.9C408.273 58.8267 408.173 58.6833 408.1 58.47L407.88 57.73C407.62 57.9633 407.366 58.17 407.12 58.35C406.873 58.5233 406.616 58.67 406.35 58.79C406.083 58.91 405.796 59 405.49 59.06C405.19 59.1267 404.856 59.16 404.49 59.16C404.056 59.16 403.656 59.1033 403.29 58.99C402.923 58.87 402.606 58.6933 402.34 58.46C402.073 58.2267 401.866 57.9367 401.72 57.59C401.573 57.2433 401.5 56.84 401.5 56.38C401.5 56.12 401.543 55.8633 401.63 55.61C401.716 55.35 401.856 55.1033 402.05 54.87C402.25 54.6367 402.506 54.4167 402.82 54.21C403.133 54.0033 403.516 53.8233 403.97 53.67C404.43 53.5167 404.963 53.3933 405.57 53.3C406.176 53.2 406.87 53.14 407.65 53.12V52.52C407.65 51.8333 407.503 51.3267 407.21 51C406.916 50.6667 406.493 50.5 405.94 50.5C405.54 50.5 405.206 50.5467 404.94 50.64C404.68 50.7333 404.45 50.84 404.25 50.96C404.05 51.0733 403.866 51.1767 403.7 51.27C403.54 51.3633 403.36 51.41 403.16 51.41C402.986 51.41 402.84 51.3667 402.72 51.28C402.6 51.1867 402.503 51.08 402.43 50.96L401.99 50.17ZM418.646 50.74C418.579 50.8467 418.509 50.9233 418.436 50.97C418.363 51.01 418.269 51.03 418.156 51.03C418.036 51.03 417.906 50.9967 417.766 50.93C417.633 50.8633 417.476 50.79 417.296 50.71C417.116 50.6233 416.909 50.5467 416.676 50.48C416.449 50.4133 416.179 50.38 415.866 50.38C415.379 50.38 414.996 50.4833 414.716 50.69C414.443 50.8967 414.306 51.1667 414.306 51.5C414.306 51.72 414.376 51.9067 414.516 52.06C414.663 52.2067 414.853 52.3367 415.086 52.45C415.326 52.5633 415.596 52.6667 415.896 52.76C416.196 52.8467 416.499 52.9433 416.806 53.05C417.119 53.1567 417.426 53.28 417.726 53.42C418.026 53.5533 418.293 53.7267 418.526 53.94C418.766 54.1467 418.956 54.3967 419.096 54.69C419.243 54.9833 419.316 55.3367 419.316 55.75C419.316 56.2433 419.226 56.7 419.046 57.12C418.873 57.5333 418.613 57.8933 418.266 58.2C417.919 58.5 417.489 58.7367 416.976 58.91C416.469 59.0767 415.883 59.16 415.216 59.16C414.863 59.16 414.516 59.1267 414.176 59.06C413.843 59 413.519 58.9133 413.206 58.8C412.899 58.6867 412.613 58.5533 412.346 58.4C412.086 58.2467 411.856 58.08 411.656 57.9L412.226 56.96C412.299 56.8467 412.386 56.76 412.486 56.7C412.586 56.64 412.713 56.61 412.866 56.61C413.019 56.61 413.163 56.6533 413.296 56.74C413.436 56.8267 413.596 56.92 413.776 57.02C413.956 57.12 414.166 57.2133 414.406 57.3C414.653 57.3867 414.963 57.43 415.336 57.43C415.629 57.43 415.879 57.3967 416.086 57.33C416.299 57.2567 416.473 57.1633 416.606 57.05C416.746 56.9367 416.846 56.8067 416.906 56.66C416.973 56.5067 417.006 56.35 417.006 56.19C417.006 55.95 416.933 55.7533 416.786 55.6C416.646 55.4467 416.456 55.3133 416.216 55.2C415.983 55.0867 415.713 54.9867 415.406 54.9C415.106 54.8067 414.796 54.7067 414.476 54.6C414.163 54.4933 413.853 54.37 413.546 54.23C413.246 54.0833 412.976 53.9 412.736 53.68C412.503 53.46 412.313 53.19 412.166 52.87C412.026 52.55 411.956 52.1633 411.956 51.71C411.956 51.29 412.039 50.89 412.206 50.51C412.373 50.13 412.616 49.8 412.936 49.52C413.263 49.2333 413.666 49.0067 414.146 48.84C414.633 48.6667 415.193 48.58 415.826 48.58C416.533 48.58 417.176 48.6967 417.756 48.93C418.336 49.1633 418.819 49.47 419.206 49.85L418.646 50.74ZM428.368 50.52C428.688 49.9067 429.068 49.4267 429.508 49.08C429.948 48.7267 430.468 48.55 431.068 48.55C431.542 48.55 431.922 48.6533 432.208 48.86L432.048 50.71C432.015 50.83 431.965 50.9167 431.898 50.97C431.838 51.0167 431.755 51.04 431.648 51.04C431.548 51.04 431.398 51.0233 431.198 50.99C431.005 50.9567 430.815 50.94 430.628 50.94C430.355 50.94 430.112 50.98 429.898 51.06C429.685 51.14 429.492 51.2567 429.318 51.41C429.152 51.5567 429.002 51.7367 428.868 51.95C428.742 52.1633 428.622 52.4067 428.508 52.68V59H426.038V48.74H427.488C427.742 48.74 427.918 48.7867 428.018 48.88C428.118 48.9667 428.185 49.1267 428.218 49.36L428.368 50.52ZM439.816 52.69C439.816 52.37 439.77 52.07 439.676 51.79C439.59 51.5033 439.456 51.2533 439.276 51.04C439.096 50.8267 438.866 50.66 438.586 50.54C438.313 50.4133 437.993 50.35 437.626 50.35C436.913 50.35 436.35 50.5533 435.936 50.96C435.53 51.3667 435.27 51.9433 435.156 52.69H439.816ZM435.106 54.18C435.146 54.7067 435.24 55.1633 435.386 55.55C435.533 55.93 435.726 56.2467 435.966 56.5C436.206 56.7467 436.49 56.9333 436.816 57.06C437.15 57.18 437.516 57.24 437.916 57.24C438.316 57.24 438.66 57.1933 438.946 57.1C439.24 57.0067 439.493 56.9033 439.706 56.79C439.926 56.6767 440.116 56.5733 440.276 56.48C440.443 56.3867 440.603 56.34 440.756 56.34C440.963 56.34 441.116 56.4167 441.216 56.57L441.926 57.47C441.653 57.79 441.346 58.06 441.006 58.28C440.666 58.4933 440.31 58.6667 439.936 58.8C439.57 58.9267 439.193 59.0167 438.806 59.07C438.426 59.1233 438.056 59.15 437.696 59.15C436.983 59.15 436.32 59.0333 435.706 58.8C435.093 58.56 434.56 58.21 434.106 57.75C433.653 57.2833 433.296 56.71 433.036 56.03C432.776 55.3433 432.646 54.55 432.646 53.65C432.646 52.95 432.76 52.2933 432.986 51.68C433.213 51.06 433.536 50.5233 433.956 50.07C434.383 49.61 434.9 49.2467 435.506 48.98C436.12 48.7133 436.81 48.58 437.576 48.58C438.223 48.58 438.82 48.6833 439.366 48.89C439.913 49.0967 440.383 49.4 440.776 49.8C441.17 50.1933 441.476 50.68 441.696 51.26C441.923 51.8333 442.036 52.49 442.036 53.23C442.036 53.6033 441.996 53.8567 441.916 53.99C441.836 54.1167 441.683 54.18 441.456 54.18H435.106ZM450.33 51.36C450.05 51.02 449.743 50.78 449.41 50.64C449.083 50.5 448.73 50.43 448.35 50.43C447.977 50.43 447.64 50.5 447.34 50.64C447.04 50.78 446.783 50.9933 446.57 51.28C446.357 51.56 446.193 51.92 446.08 52.36C445.967 52.7933 445.91 53.3067 445.91 53.9C445.91 54.5 445.957 55.01 446.05 55.43C446.15 55.8433 446.29 56.1833 446.47 56.45C446.65 56.71 446.87 56.9 447.13 57.02C447.39 57.1333 447.68 57.19 448 57.19C448.513 57.19 448.95 57.0833 449.31 56.87C449.67 56.6567 450.01 56.3533 450.33 55.96V51.36ZM452.8 44.14V59H451.29C450.963 59 450.757 58.85 450.67 58.55L450.46 57.56C450.047 58.0333 449.57 58.4167 449.03 58.71C448.497 59.0033 447.873 59.15 447.16 59.15C446.6 59.15 446.087 59.0333 445.62 58.8C445.153 58.5667 444.75 58.23 444.41 57.79C444.077 57.3433 443.817 56.7933 443.63 56.14C443.45 55.4867 443.36 54.74 443.36 53.9C443.36 53.14 443.463 52.4333 443.67 51.78C443.877 51.1267 444.173 50.56 444.56 50.08C444.947 49.6 445.41 49.2267 445.95 48.96C446.49 48.6867 447.097 48.55 447.77 48.55C448.343 48.55 448.833 48.64 449.24 48.82C449.647 49 450.01 49.2433 450.33 49.55V44.14H452.8ZM461.848 52.69C461.848 52.37 461.801 52.07 461.708 51.79C461.621 51.5033 461.488 51.2533 461.308 51.04C461.128 50.8267 460.898 50.66 460.618 50.54C460.344 50.4133 460.024 50.35 459.658 50.35C458.944 50.35 458.381 50.5533 457.968 50.96C457.561 51.3667 457.301 51.9433 457.188 52.69H461.848ZM457.138 54.18C457.178 54.7067 457.271 55.1633 457.418 55.55C457.564 55.93 457.758 56.2467 457.998 56.5C458.238 56.7467 458.521 56.9333 458.848 57.06C459.181 57.18 459.548 57.24 459.948 57.24C460.348 57.24 460.691 57.1933 460.978 57.1C461.271 57.0067 461.524 56.9033 461.738 56.79C461.958 56.6767 462.148 56.5733 462.308 56.48C462.474 56.3867 462.634 56.34 462.788 56.34C462.994 56.34 463.148 56.4167 463.248 56.57L463.958 57.47C463.684 57.79 463.378 58.06 463.038 58.28C462.698 58.4933 462.341 58.6667 461.968 58.8C461.601 58.9267 461.224 59.0167 460.838 59.07C460.458 59.1233 460.088 59.15 459.728 59.15C459.014 59.15 458.351 59.0333 457.738 58.8C457.124 58.56 456.591 58.21 456.138 57.75C455.684 57.2833 455.328 56.71 455.068 56.03C454.808 55.3433 454.678 54.55 454.678 53.65C454.678 52.95 454.791 52.2933 455.018 51.68C455.244 51.06 455.568 50.5233 455.988 50.07C456.414 49.61 456.931 49.2467 457.538 48.98C458.151 48.7133 458.841 48.58 459.608 48.58C460.254 48.58 460.851 48.6833 461.398 48.89C461.944 49.0967 462.414 49.4 462.808 49.8C463.201 50.1933 463.508 50.68 463.728 51.26C463.954 51.8333 464.068 52.49 464.068 53.23C464.068 53.6033 464.028 53.8567 463.948 53.99C463.868 54.1167 463.714 54.18 463.488 54.18H457.138ZM472.181 50.74C472.115 50.8467 472.045 50.9233 471.971 50.97C471.898 51.01 471.805 51.03 471.691 51.03C471.571 51.03 471.441 50.9967 471.301 50.93C471.168 50.8633 471.011 50.79 470.831 50.71C470.651 50.6233 470.445 50.5467 470.211 50.48C469.985 50.4133 469.715 50.38 469.401 50.38C468.915 50.38 468.531 50.4833 468.251 50.69C467.978 50.8967 467.841 51.1667 467.841 51.5C467.841 51.72 467.911 51.9067 468.051 52.06C468.198 52.2067 468.388 52.3367 468.621 52.45C468.861 52.5633 469.131 52.6667 469.431 52.76C469.731 52.8467 470.035 52.9433 470.341 53.05C470.655 53.1567 470.961 53.28 471.261 53.42C471.561 53.5533 471.828 53.7267 472.061 53.94C472.301 54.1467 472.491 54.3967 472.631 54.69C472.778 54.9833 472.851 55.3367 472.851 55.75C472.851 56.2433 472.761 56.7 472.581 57.12C472.408 57.5333 472.148 57.8933 471.801 58.2C471.455 58.5 471.025 58.7367 470.511 58.91C470.005 59.0767 469.418 59.16 468.751 59.16C468.398 59.16 468.051 59.1267 467.711 59.06C467.378 59 467.055 58.9133 466.741 58.8C466.435 58.6867 466.148 58.5533 465.881 58.4C465.621 58.2467 465.391 58.08 465.191 57.9L465.761 56.96C465.835 56.8467 465.921 56.76 466.021 56.7C466.121 56.64 466.248 56.61 466.401 56.61C466.555 56.61 466.698 56.6533 466.831 56.74C466.971 56.8267 467.131 56.92 467.311 57.02C467.491 57.12 467.701 57.2133 467.941 57.3C468.188 57.3867 468.498 57.43 468.871 57.43C469.165 57.43 469.415 57.3967 469.621 57.33C469.835 57.2567 470.008 57.1633 470.141 57.05C470.281 56.9367 470.381 56.8067 470.441 56.66C470.508 56.5067 470.541 56.35 470.541 56.19C470.541 55.95 470.468 55.7533 470.321 55.6C470.181 55.4467 469.991 55.3133 469.751 55.2C469.518 55.0867 469.248 54.9867 468.941 54.9C468.641 54.8067 468.331 54.7067 468.011 54.6C467.698 54.4933 467.388 54.37 467.081 54.23C466.781 54.0833 466.511 53.9 466.271 53.68C466.038 53.46 465.848 53.19 465.701 52.87C465.561 52.55 465.491 52.1633 465.491 51.71C465.491 51.29 465.575 50.89 465.741 50.51C465.908 50.13 466.151 49.8 466.471 49.52C466.798 49.2333 467.201 49.0067 467.681 48.84C468.168 48.6667 468.728 48.58 469.361 48.58C470.068 48.58 470.711 48.6967 471.291 48.93C471.871 49.1633 472.355 49.47 472.741 49.85L472.181 50.74ZM328.685 74.74C328.618 74.8467 328.548 74.9233 328.475 74.97C328.402 75.01 328.308 75.03 328.195 75.03C328.075 75.03 327.945 74.9967 327.805 74.93C327.672 74.8633 327.515 74.79 327.335 74.71C327.155 74.6233 326.948 74.5467 326.715 74.48C326.488 74.4133 326.218 74.38 325.905 74.38C325.418 74.38 325.035 74.4833 324.755 74.69C324.482 74.8967 324.345 75.1667 324.345 75.5C324.345 75.72 324.415 75.9067 324.555 76.06C324.702 76.2067 324.892 76.3367 325.125 76.45C325.365 76.5633 325.635 76.6667 325.935 76.76C326.235 76.8467 326.538 76.9433 326.845 77.05C327.158 77.1567 327.465 77.28 327.765 77.42C328.065 77.5533 328.332 77.7267 328.565 77.94C328.805 78.1467 328.995 78.3967 329.135 78.69C329.282 78.9833 329.355 79.3367 329.355 79.75C329.355 80.2433 329.265 80.7 329.085 81.12C328.912 81.5333 328.652 81.8933 328.305 82.2C327.958 82.5 327.528 82.7367 327.015 82.91C326.508 83.0767 325.922 83.16 325.255 83.16C324.902 83.16 324.555 83.1267 324.215 83.06C323.882 83 323.558 82.9133 323.245 82.8C322.938 82.6867 322.652 82.5533 322.385 82.4C322.125 82.2467 321.895 82.08 321.695 81.9L322.265 80.96C322.338 80.8467 322.425 80.76 322.525 80.7C322.625 80.64 322.752 80.61 322.905 80.61C323.058 80.61 323.202 80.6533 323.335 80.74C323.475 80.8267 323.635 80.92 323.815 81.02C323.995 81.12 324.205 81.2133 324.445 81.3C324.692 81.3867 325.002 81.43 325.375 81.43C325.668 81.43 325.918 81.3967 326.125 81.33C326.338 81.2567 326.512 81.1633 326.645 81.05C326.785 80.9367 326.885 80.8067 326.945 80.66C327.012 80.5067 327.045 80.35 327.045 80.19C327.045 79.95 326.972 79.7533 326.825 79.6C326.685 79.4467 326.495 79.3133 326.255 79.2C326.022 79.0867 325.752 78.9867 325.445 78.9C325.145 78.8067 324.835 78.7067 324.515 78.6C324.202 78.4933 323.892 78.37 323.585 78.23C323.285 78.0833 323.015 77.9 322.775 77.68C322.542 77.46 322.352 77.19 322.205 76.87C322.065 76.55 321.995 76.1633 321.995 75.71C321.995 75.29 322.078 74.89 322.245 74.51C322.412 74.13 322.655 73.8 322.975 73.52C323.302 73.2333 323.705 73.0067 324.185 72.84C324.672 72.6667 325.232 72.58 325.865 72.58C326.572 72.58 327.215 72.6967 327.795 72.93C328.375 73.1633 328.858 73.47 329.245 73.85L328.685 74.74ZM335.754 72.58C336.514 72.58 337.204 72.7033 337.824 72.95C338.451 73.1967 338.984 73.5467 339.424 74C339.871 74.4533 340.214 75.0067 340.454 75.66C340.694 76.3133 340.814 77.0433 340.814 77.85C340.814 78.6633 340.694 79.3967 340.454 80.05C340.214 80.7033 339.871 81.26 339.424 81.72C338.984 82.18 338.451 82.5333 337.824 82.78C337.204 83.0267 336.514 83.15 335.754 83.15C334.987 83.15 334.291 83.0267 333.664 82.78C333.037 82.5333 332.501 82.18 332.054 81.72C331.614 81.26 331.271 80.7033 331.024 80.05C330.784 79.3967 330.664 78.6633 330.664 77.85C330.664 77.0433 330.784 76.3133 331.024 75.66C331.271 75.0067 331.614 74.4533 332.054 74C332.501 73.5467 333.037 73.1967 333.664 72.95C334.291 72.7033 334.987 72.58 335.754 72.58ZM335.754 81.25C336.607 81.25 337.237 80.9633 337.644 80.39C338.057 79.8167 338.264 78.9767 338.264 77.87C338.264 76.7633 338.057 75.92 337.644 75.34C337.237 74.76 336.607 74.47 335.754 74.47C334.887 74.47 334.244 74.7633 333.824 75.35C333.411 75.93 333.204 76.77 333.204 77.87C333.204 78.97 333.411 79.81 333.824 80.39C334.244 80.9633 334.887 81.25 335.754 81.25ZM350.049 74.91C349.975 75.0033 349.902 75.0767 349.829 75.13C349.762 75.1833 349.662 75.21 349.529 75.21C349.402 75.21 349.279 75.1733 349.159 75.1C349.039 75.02 348.895 74.9333 348.729 74.84C348.562 74.74 348.362 74.6533 348.129 74.58C347.902 74.5 347.619 74.46 347.279 74.46C346.845 74.46 346.465 74.54 346.139 74.7C345.812 74.8533 345.539 75.0767 345.319 75.37C345.105 75.6633 344.945 76.02 344.839 76.44C344.732 76.8533 344.679 77.3233 344.679 77.85C344.679 78.3967 344.735 78.8833 344.849 79.31C344.969 79.7367 345.139 80.0967 345.359 80.39C345.579 80.6767 345.845 80.8967 346.159 81.05C346.472 81.1967 346.825 81.27 347.219 81.27C347.612 81.27 347.929 81.2233 348.169 81.13C348.415 81.03 348.622 80.9233 348.789 80.81C348.955 80.69 349.099 80.5833 349.219 80.49C349.345 80.39 349.485 80.34 349.639 80.34C349.839 80.34 349.989 80.4167 350.089 80.57L350.799 81.47C350.525 81.79 350.229 82.06 349.909 82.28C349.589 82.4933 349.255 82.6667 348.909 82.8C348.569 82.9267 348.215 83.0167 347.849 83.07C347.489 83.1233 347.129 83.15 346.769 83.15C346.135 83.15 345.539 83.0333 344.979 82.8C344.419 82.56 343.929 82.2133 343.509 81.76C343.089 81.3067 342.755 80.7533 342.509 80.1C342.269 79.44 342.149 78.69 342.149 77.85C342.149 77.0967 342.255 76.4 342.469 75.76C342.689 75.1133 343.009 74.5567 343.429 74.09C343.849 73.6167 344.369 73.2467 344.989 72.98C345.609 72.7133 346.322 72.58 347.129 72.58C347.895 72.58 348.565 72.7033 349.139 72.95C349.719 73.1967 350.239 73.55 350.699 74.01L350.049 74.91ZM354.907 72.74V83H352.427V72.74H354.907ZM355.247 69.75C355.247 69.9633 355.204 70.1633 355.117 70.35C355.03 70.5367 354.914 70.7 354.767 70.84C354.627 70.98 354.46 71.0933 354.267 71.18C354.074 71.26 353.867 71.3 353.647 71.3C353.434 71.3 353.23 71.26 353.037 71.18C352.85 71.0933 352.687 70.98 352.547 70.84C352.407 70.7 352.294 70.5367 352.207 70.35C352.127 70.1633 352.087 69.9633 352.087 69.75C352.087 69.53 352.127 69.3233 352.207 69.13C352.294 68.9367 352.407 68.77 352.547 68.63C352.687 68.49 352.85 68.38 353.037 68.3C353.23 68.2133 353.434 68.17 353.647 68.17C353.867 68.17 354.074 68.2133 354.267 68.3C354.46 68.38 354.627 68.49 354.767 68.63C354.914 68.77 355.03 68.9367 355.117 69.13C355.204 69.3233 355.247 69.53 355.247 69.75ZM362.845 78.62C362.132 78.6533 361.532 78.7167 361.045 78.81C360.558 78.8967 360.168 79.01 359.875 79.15C359.582 79.29 359.372 79.4533 359.245 79.64C359.118 79.8267 359.055 80.03 359.055 80.25C359.055 80.6833 359.182 80.9933 359.435 81.18C359.695 81.3667 360.032 81.46 360.445 81.46C360.952 81.46 361.388 81.37 361.755 81.19C362.128 81.0033 362.492 80.7233 362.845 80.35V78.62ZM357.185 74.17C358.365 73.09 359.785 72.55 361.445 72.55C362.045 72.55 362.582 72.65 363.055 72.85C363.528 73.0433 363.928 73.3167 364.255 73.67C364.582 74.0167 364.828 74.4333 364.995 74.92C365.168 75.4067 365.255 75.94 365.255 76.52V83H364.135C363.902 83 363.722 82.9667 363.595 82.9C363.468 82.8267 363.368 82.6833 363.295 82.47L363.075 81.73C362.815 81.9633 362.562 82.17 362.315 82.35C362.068 82.5233 361.812 82.67 361.545 82.79C361.278 82.91 360.992 83 360.685 83.06C360.385 83.1267 360.052 83.16 359.685 83.16C359.252 83.16 358.852 83.1033 358.485 82.99C358.118 82.87 357.802 82.6933 357.535 82.46C357.268 82.2267 357.062 81.9367 356.915 81.59C356.768 81.2433 356.695 80.84 356.695 80.38C356.695 80.12 356.738 79.8633 356.825 79.61C356.912 79.35 357.052 79.1033 357.245 78.87C357.445 78.6367 357.702 78.4167 358.015 78.21C358.328 78.0033 358.712 77.8233 359.165 77.67C359.625 77.5167 360.158 77.3933 360.765 77.3C361.372 77.2 362.065 77.14 362.845 77.12V76.52C362.845 75.8333 362.698 75.3267 362.405 75C362.112 74.6667 361.688 74.5 361.135 74.5C360.735 74.5 360.402 74.5467 360.135 74.64C359.875 74.7333 359.645 74.84 359.445 74.96C359.245 75.0733 359.062 75.1767 358.895 75.27C358.735 75.3633 358.555 75.41 358.355 75.41C358.182 75.41 358.035 75.3667 357.915 75.28C357.795 75.1867 357.698 75.08 357.625 74.96L357.185 74.17ZM370.081 68.14V83H367.611V68.14H370.081ZM379.152 76.69C379.152 76.37 379.106 76.07 379.012 75.79C378.926 75.5033 378.792 75.2533 378.612 75.04C378.432 74.8267 378.202 74.66 377.922 74.54C377.649 74.4133 377.329 74.35 376.962 74.35C376.249 74.35 375.686 74.5533 375.272 74.96C374.866 75.3667 374.606 75.9433 374.492 76.69H379.152ZM374.442 78.18C374.482 78.7067 374.576 79.1633 374.722 79.55C374.869 79.93 375.062 80.2467 375.302 80.5C375.542 80.7467 375.826 80.9333 376.152 81.06C376.486 81.18 376.852 81.24 377.252 81.24C377.652 81.24 377.996 81.1933 378.282 81.1C378.576 81.0067 378.829 80.9033 379.042 80.79C379.262 80.6767 379.452 80.5733 379.612 80.48C379.779 80.3867 379.939 80.34 380.092 80.34C380.299 80.34 380.452 80.4167 380.552 80.57L381.262 81.47C380.989 81.79 380.682 82.06 380.342 82.28C380.002 82.4933 379.646 82.6667 379.272 82.8C378.906 82.9267 378.529 83.0167 378.142 83.07C377.762 83.1233 377.392 83.15 377.032 83.15C376.319 83.15 375.656 83.0333 375.042 82.8C374.429 82.56 373.896 82.21 373.442 81.75C372.989 81.2833 372.632 80.71 372.372 80.03C372.112 79.3433 371.982 78.55 371.982 77.65C371.982 76.95 372.096 76.2933 372.322 75.68C372.549 75.06 372.872 74.5233 373.292 74.07C373.719 73.61 374.236 73.2467 374.842 72.98C375.456 72.7133 376.146 72.58 376.912 72.58C377.559 72.58 378.156 72.6833 378.702 72.89C379.249 73.0967 379.719 73.4 380.112 73.8C380.506 74.1933 380.812 74.68 381.032 75.26C381.259 75.8333 381.372 76.49 381.372 77.23C381.372 77.6033 381.332 77.8567 381.252 77.99C381.172 78.1167 381.019 78.18 380.792 78.18H374.442ZM389.486 74.74C389.419 74.8467 389.349 74.9233 389.276 74.97C389.203 75.01 389.109 75.03 388.996 75.03C388.876 75.03 388.746 74.9967 388.606 74.93C388.473 74.8633 388.316 74.79 388.136 74.71C387.956 74.6233 387.749 74.5467 387.516 74.48C387.289 74.4133 387.019 74.38 386.706 74.38C386.219 74.38 385.836 74.4833 385.556 74.69C385.283 74.8967 385.146 75.1667 385.146 75.5C385.146 75.72 385.216 75.9067 385.356 76.06C385.503 76.2067 385.693 76.3367 385.926 76.45C386.166 76.5633 386.436 76.6667 386.736 76.76C387.036 76.8467 387.339 76.9433 387.646 77.05C387.959 77.1567 388.266 77.28 388.566 77.42C388.866 77.5533 389.133 77.7267 389.366 77.94C389.606 78.1467 389.796 78.3967 389.936 78.69C390.083 78.9833 390.156 79.3367 390.156 79.75C390.156 80.2433 390.066 80.7 389.886 81.12C389.713 81.5333 389.453 81.8933 389.106 82.2C388.759 82.5 388.329 82.7367 387.816 82.91C387.309 83.0767 386.723 83.16 386.056 83.16C385.703 83.16 385.356 83.1267 385.016 83.06C384.683 83 384.359 82.9133 384.046 82.8C383.739 82.6867 383.453 82.5533 383.186 82.4C382.926 82.2467 382.696 82.08 382.496 81.9L383.066 80.96C383.139 80.8467 383.226 80.76 383.326 80.7C383.426 80.64 383.553 80.61 383.706 80.61C383.859 80.61 384.003 80.6533 384.136 80.74C384.276 80.8267 384.436 80.92 384.616 81.02C384.796 81.12 385.006 81.2133 385.246 81.3C385.493 81.3867 385.803 81.43 386.176 81.43C386.469 81.43 386.719 81.3967 386.926 81.33C387.139 81.2567 387.313 81.1633 387.446 81.05C387.586 80.9367 387.686 80.8067 387.746 80.66C387.813 80.5067 387.846 80.35 387.846 80.19C387.846 79.95 387.773 79.7533 387.626 79.6C387.486 79.4467 387.296 79.3133 387.056 79.2C386.823 79.0867 386.553 78.9867 386.246 78.9C385.946 78.8067 385.636 78.7067 385.316 78.6C385.003 78.4933 384.693 78.37 384.386 78.23C384.086 78.0833 383.816 77.9 383.576 77.68C383.343 77.46 383.153 77.19 383.006 76.87C382.866 76.55 382.796 76.1633 382.796 75.71C382.796 75.29 382.879 74.89 383.046 74.51C383.213 74.13 383.456 73.8 383.776 73.52C384.103 73.2333 384.506 73.0067 384.986 72.84C385.473 72.6667 386.033 72.58 386.666 72.58C387.373 72.58 388.016 72.6967 388.596 72.93C389.176 73.1633 389.659 73.47 390.046 73.85L389.486 74.74Z" fill="white"/>
</svg>
