<svg width="190" height="77" viewBox="0 0 190 77" fill="none" xmlns="http://www.w3.org/2000/svg">
<rect width="189.958" height="76.0968" rx="15" fill="#F484DC"/>
<path d="M38.4367 30.508C38.3047 30.724 38.1667 30.886 38.0227 30.994C37.8787 31.09 37.6987 31.138 37.4827 31.138C37.2547 31.138 36.9967 31.042 36.7087 30.85C36.4327 30.658 36.0847 30.448 35.6647 30.22C35.2567 29.98 34.7707 29.764 34.2067 29.572C33.6427 29.368 32.9707 29.266 32.1907 29.266C31.4707 29.266 30.8347 29.356 30.2827 29.536C29.7427 29.716 29.2867 29.968 28.9147 30.292C28.5427 30.616 28.2607 31 28.0687 31.444C27.8887 31.876 27.7987 32.35 27.7987 32.866C27.7987 33.526 27.9727 34.078 28.3207 34.522C28.6687 34.954 29.1247 35.326 29.6887 35.638C30.2647 35.95 30.9187 36.226 31.6507 36.466C32.3827 36.694 33.1267 36.94 33.8827 37.204C34.6507 37.468 35.4007 37.768 36.1327 38.104C36.8647 38.44 37.5127 38.866 38.0767 39.382C38.6527 39.898 39.1147 40.528 39.4627 41.272C39.8107 42.016 39.9847 42.922 39.9847 43.99C39.9847 45.142 39.7867 46.222 39.3907 47.23C38.9947 48.238 38.4187 49.12 37.6627 49.876C36.9187 50.62 35.9947 51.208 34.8907 51.64C33.7987 52.072 32.5507 52.288 31.1467 52.288C30.3187 52.288 29.5087 52.204 28.7167 52.036C27.9367 51.88 27.1867 51.658 26.4667 51.37C25.7587 51.07 25.0927 50.71 24.4687 50.29C23.8447 49.87 23.2867 49.402 22.7947 48.886L24.0187 46.87C24.1267 46.702 24.2647 46.57 24.4327 46.474C24.6007 46.378 24.7867 46.33 24.9907 46.33C25.2667 46.33 25.5727 46.462 25.9087 46.726C26.2447 46.978 26.6467 47.26 27.1147 47.572C27.5947 47.872 28.1707 48.154 28.8427 48.418C29.5147 48.67 30.3187 48.796 31.2547 48.796C32.7787 48.796 33.9547 48.424 34.7827 47.68C35.6227 46.936 36.0427 45.91 36.0427 44.602C36.0427 43.87 35.8687 43.276 35.5207 42.82C35.1727 42.352 34.7107 41.962 34.1347 41.65C33.5707 41.338 32.9227 41.074 32.1907 40.858C31.4587 40.642 30.7147 40.414 29.9587 40.174C29.2027 39.922 28.4587 39.634 27.7267 39.31C26.9947 38.974 26.3407 38.542 25.7647 38.014C25.2007 37.474 24.7447 36.814 24.3967 36.034C24.0487 35.242 23.8747 34.258 23.8747 33.082C23.8747 32.146 24.0547 31.24 24.4147 30.364C24.7867 29.488 25.3207 28.714 26.0167 28.042C26.7247 27.358 27.5947 26.812 28.6267 26.404C29.6587 25.996 30.8347 25.792 32.1547 25.792C33.6427 25.792 35.0047 26.026 36.2407 26.494C37.4887 26.962 38.5627 27.628 39.4627 28.492L38.4367 30.508ZM47.0815 36.07C47.4775 35.662 47.8855 35.296 48.3055 34.972C48.7375 34.636 49.1935 34.348 49.6735 34.108C50.1535 33.868 50.6635 33.682 51.2035 33.55C51.7435 33.418 52.3315 33.352 52.9675 33.352C53.9755 33.352 54.8575 33.52 55.6135 33.856C56.3815 34.192 57.0235 34.666 57.5395 35.278C58.0675 35.89 58.4635 36.628 58.7275 37.492C58.9915 38.344 59.1235 39.286 59.1235 40.318V52H55.2715V40.318C55.2715 39.082 54.9835 38.122 54.4075 37.438C53.8435 36.754 52.9795 36.412 51.8155 36.412C50.9515 36.412 50.1475 36.61 49.4035 37.006C48.6715 37.402 47.9815 37.942 47.3335 38.626V52H43.4635V33.64H45.8035C46.3315 33.64 46.6675 33.886 46.8115 34.378L47.0815 36.07ZM73.4532 43.972C72.0732 44.02 70.9092 44.134 69.9612 44.314C69.0132 44.482 68.2452 44.704 67.6572 44.98C67.0692 45.244 66.6432 45.562 66.3792 45.934C66.1272 46.306 66.0012 46.714 66.0012 47.158C66.0012 47.59 66.0672 47.962 66.1992 48.274C66.3432 48.574 66.5352 48.826 66.7752 49.03C67.0272 49.222 67.3152 49.366 67.6392 49.462C67.9752 49.546 68.3412 49.588 68.7372 49.588C69.7452 49.588 70.6092 49.402 71.3292 49.03C72.0612 48.646 72.7692 48.094 73.4532 47.374V43.972ZM63.1932 36.196C65.2692 34.264 67.7412 33.298 70.6092 33.298C71.6652 33.298 72.6012 33.472 73.4172 33.82C74.2452 34.156 74.9352 34.636 75.4872 35.26C76.0512 35.884 76.4772 36.628 76.7652 37.492C77.0652 38.344 77.2152 39.292 77.2152 40.336V52H75.4872C75.1152 52 74.8332 51.946 74.6412 51.838C74.4492 51.718 74.2872 51.484 74.1552 51.136L73.7772 49.642C73.3092 50.062 72.8472 50.44 72.3912 50.776C71.9352 51.1 71.4612 51.376 70.9692 51.604C70.4892 51.832 69.9672 52 69.4032 52.108C68.8512 52.228 68.2392 52.288 67.5672 52.288C66.8232 52.288 66.1272 52.186 65.4792 51.982C64.8432 51.778 64.2912 51.472 63.8232 51.064C63.3552 50.644 62.9832 50.128 62.7072 49.516C62.4432 48.904 62.3112 48.184 62.3112 47.356C62.3112 46.648 62.4972 45.958 62.8692 45.286C63.2532 44.614 63.8772 44.014 64.7412 43.486C65.6172 42.946 66.7632 42.502 68.1792 42.154C69.6072 41.806 71.3652 41.608 73.4532 41.56V40.336C73.4532 39.016 73.1712 38.032 72.6072 37.384C72.0432 36.736 71.2152 36.412 70.1232 36.412C69.3792 36.412 68.7552 36.508 68.2512 36.7C67.7472 36.88 67.3092 37.078 66.9372 37.294C66.5652 37.51 66.2352 37.714 65.9472 37.906C65.6592 38.086 65.3532 38.176 65.0292 38.176C64.7652 38.176 64.5372 38.11 64.3452 37.978C64.1652 37.834 64.0152 37.66 63.8952 37.456L63.1932 36.196ZM85.6186 47.392C86.1586 48.088 86.7466 48.58 87.3826 48.868C88.0306 49.144 88.7446 49.282 89.5246 49.282C91.0366 49.282 92.2126 48.73 93.0526 47.626C93.9046 46.522 94.3306 44.878 94.3306 42.694C94.3306 41.566 94.2346 40.606 94.0426 39.814C93.8506 39.01 93.5746 38.356 93.2146 37.852C92.8546 37.348 92.4166 36.982 91.9006 36.754C91.3846 36.526 90.8026 36.412 90.1546 36.412C89.1706 36.412 88.3186 36.628 87.5986 37.06C86.8906 37.48 86.2306 38.086 85.6186 38.878V47.392ZM85.4206 36.304C86.1886 35.404 87.0586 34.678 88.0306 34.126C89.0146 33.574 90.1546 33.298 91.4506 33.298C92.4826 33.298 93.4186 33.508 94.2586 33.928C95.0986 34.336 95.8186 34.936 96.4186 35.728C97.0186 36.52 97.4806 37.504 97.8046 38.68C98.1406 39.844 98.3086 41.182 98.3086 42.694C98.3086 44.05 98.1226 45.316 97.7506 46.492C97.3906 47.656 96.8686 48.67 96.1846 49.534C95.5006 50.386 94.6726 51.058 93.7006 51.55C92.7286 52.03 91.6306 52.27 90.4066 52.27C89.3266 52.27 88.4086 52.096 87.6526 51.748C86.9086 51.4 86.2306 50.92 85.6186 50.308V58.102H81.7486V33.64H84.0886C84.6166 33.64 84.9526 33.886 85.0966 34.378L85.4206 36.304ZM115.047 37.24C114.927 37.396 114.813 37.516 114.705 37.6C114.597 37.684 114.441 37.726 114.237 37.726C114.033 37.726 113.817 37.654 113.589 37.51C113.373 37.366 113.109 37.21 112.797 37.042C112.497 36.862 112.131 36.7 111.699 36.556C111.267 36.412 110.727 36.34 110.079 36.34C109.239 36.34 108.501 36.49 107.865 36.79C107.241 37.09 106.713 37.522 106.281 38.086C105.861 38.638 105.543 39.316 105.327 40.12C105.123 40.912 105.021 41.806 105.021 42.802C105.021 43.834 105.135 44.752 105.363 45.556C105.591 46.36 105.915 47.038 106.335 47.59C106.767 48.142 107.283 48.562 107.883 48.85C108.495 49.138 109.179 49.282 109.935 49.282C110.679 49.282 111.285 49.192 111.753 49.012C112.221 48.832 112.611 48.634 112.923 48.418C113.235 48.202 113.499 48.004 113.715 47.824C113.943 47.644 114.183 47.554 114.435 47.554C114.747 47.554 114.987 47.674 115.155 47.914L116.253 49.336C115.809 49.876 115.317 50.332 114.777 50.704C114.237 51.076 113.667 51.382 113.067 51.622C112.467 51.85 111.843 52.012 111.195 52.108C110.547 52.216 109.893 52.27 109.233 52.27C108.093 52.27 107.025 52.06 106.029 51.64C105.045 51.208 104.181 50.59 103.437 49.786C102.705 48.97 102.123 47.98 101.691 46.816C101.271 45.64 101.061 44.302 101.061 42.802C101.061 41.446 101.253 40.192 101.637 39.04C102.021 37.876 102.579 36.874 103.311 36.034C104.055 35.194 104.973 34.54 106.065 34.072C107.157 33.592 108.417 33.352 109.845 33.352C111.177 33.352 112.347 33.568 113.355 34C114.375 34.432 115.281 35.044 116.073 35.836L115.047 37.24ZM123.236 35.818C123.992 35.074 124.82 34.48 125.72 34.036C126.62 33.58 127.67 33.352 128.87 33.352C129.878 33.352 130.76 33.52 131.516 33.856C132.284 34.192 132.926 34.666 133.442 35.278C133.97 35.89 134.366 36.628 134.63 37.492C134.894 38.344 135.026 39.286 135.026 40.318V52H131.174V40.318C131.174 39.082 130.886 38.122 130.31 37.438C129.746 36.754 128.882 36.412 127.718 36.412C126.854 36.412 126.05 36.61 125.306 37.006C124.574 37.402 123.884 37.942 123.236 38.626V52H119.366V25.36H123.236V35.818ZM149.356 43.972C147.976 44.02 146.812 44.134 145.864 44.314C144.916 44.482 144.148 44.704 143.56 44.98C142.972 45.244 142.546 45.562 142.282 45.934C142.03 46.306 141.904 46.714 141.904 47.158C141.904 47.59 141.97 47.962 142.102 48.274C142.246 48.574 142.438 48.826 142.678 49.03C142.93 49.222 143.218 49.366 143.542 49.462C143.878 49.546 144.244 49.588 144.64 49.588C145.648 49.588 146.512 49.402 147.232 49.03C147.964 48.646 148.672 48.094 149.356 47.374V43.972ZM139.096 36.196C141.172 34.264 143.644 33.298 146.512 33.298C147.568 33.298 148.504 33.472 149.32 33.82C150.148 34.156 150.838 34.636 151.39 35.26C151.954 35.884 152.38 36.628 152.668 37.492C152.968 38.344 153.118 39.292 153.118 40.336V52H151.39C151.018 52 150.736 51.946 150.544 51.838C150.352 51.718 150.19 51.484 150.058 51.136L149.68 49.642C149.212 50.062 148.75 50.44 148.294 50.776C147.838 51.1 147.364 51.376 146.872 51.604C146.392 51.832 145.87 52 145.306 52.108C144.754 52.228 144.142 52.288 143.47 52.288C142.726 52.288 142.03 52.186 141.382 51.982C140.746 51.778 140.194 51.472 139.726 51.064C139.258 50.644 138.886 50.128 138.61 49.516C138.346 48.904 138.214 48.184 138.214 47.356C138.214 46.648 138.4 45.958 138.772 45.286C139.156 44.614 139.78 44.014 140.644 43.486C141.52 42.946 142.666 42.502 144.082 42.154C145.51 41.806 147.268 41.608 149.356 41.56V40.336C149.356 39.016 149.074 38.032 148.51 37.384C147.946 36.736 147.118 36.412 146.026 36.412C145.282 36.412 144.658 36.508 144.154 36.7C143.65 36.88 143.212 37.078 142.84 37.294C142.468 37.51 142.138 37.714 141.85 37.906C141.562 38.086 141.256 38.176 140.932 38.176C140.668 38.176 140.44 38.11 140.248 37.978C140.068 37.834 139.918 37.66 139.798 37.456L139.096 36.196ZM163.291 52.288C161.767 52.288 160.591 51.862 159.763 51.01C158.947 50.146 158.539 48.934 158.539 47.374V36.682H156.523C156.307 36.682 156.121 36.616 155.965 36.484C155.809 36.34 155.731 36.13 155.731 35.854V34.288L158.701 33.856L159.547 28.546C159.607 28.342 159.709 28.18 159.853 28.06C159.997 27.928 160.189 27.862 160.429 27.862H162.409V33.892H167.503V36.682H162.409V47.104C162.409 47.764 162.571 48.268 162.895 48.616C163.219 48.964 163.651 49.138 164.191 49.138C164.491 49.138 164.749 49.102 164.965 49.03C165.181 48.946 165.367 48.862 165.523 48.778C165.679 48.682 165.811 48.598 165.919 48.526C166.039 48.442 166.153 48.4 166.261 48.4C166.477 48.4 166.651 48.52 166.783 48.76L167.935 50.65C167.335 51.178 166.627 51.586 165.811 51.874C164.995 52.15 164.155 52.288 163.291 52.288Z" fill="white"/>
</svg>
