<svg width="150" height="53" viewBox="0 0 150 53" fill="none" xmlns="http://www.w3.org/2000/svg">
<path d="M0 15C0 6.71573 6.71573 0 15 0H135C143.284 0 150 6.71573 150 15V38C150 46.2843 143.284 53 135 53H15C6.71573 53 0 46.2843 0 38V15Z" fill="#FFD76F"/>
<path d="M26.8 19.97C26.7 20.14 26.595 20.265 26.485 20.345C26.375 20.425 26.235 20.465 26.065 20.465C25.885 20.465 25.68 20.385 25.45 20.225C25.22 20.055 24.93 19.87 24.58 19.67C24.24 19.46 23.83 19.275 23.35 19.115C22.87 18.945 22.295 18.86 21.625 18.86C20.995 18.86 20.44 18.945 19.96 19.115C19.49 19.275 19.095 19.5 18.775 19.79C18.455 20.07 18.21 20.405 18.04 20.795C17.88 21.175 17.8 21.59 17.8 22.04C17.8 22.62 17.945 23.1 18.235 23.48C18.535 23.86 18.925 24.185 19.405 24.455C19.885 24.725 20.43 24.96 21.04 25.16C21.65 25.36 22.275 25.57 22.915 25.79C23.555 26 24.18 26.245 24.79 26.525C25.4 26.805 25.945 27.16 26.425 27.59C26.905 28.01 27.29 28.53 27.58 29.15C27.88 29.76 28.03 30.51 28.03 31.4C28.03 32.35 27.865 33.24 27.535 34.07C27.215 34.9 26.745 35.625 26.125 36.245C25.505 36.865 24.74 37.355 23.83 37.715C22.93 38.065 21.905 38.24 20.755 38.24C20.065 38.24 19.395 38.17 18.745 38.03C18.095 37.9 17.48 37.715 16.9 37.475C16.32 37.225 15.775 36.93 15.265 36.59C14.765 36.24 14.315 35.85 13.915 35.42L14.83 33.89C14.92 33.77 15.025 33.67 15.145 33.59C15.275 33.51 15.42 33.47 15.58 33.47C15.79 33.47 16.03 33.58 16.3 33.8C16.58 34.02 16.92 34.265 17.32 34.535C17.73 34.795 18.215 35.035 18.775 35.255C19.345 35.475 20.035 35.585 20.845 35.585C21.505 35.585 22.095 35.5 22.615 35.33C23.135 35.15 23.57 34.9 23.92 34.58C24.28 34.25 24.555 33.855 24.745 33.395C24.935 32.935 25.03 32.425 25.03 31.865C25.03 31.235 24.885 30.72 24.595 30.32C24.305 29.92 23.92 29.585 23.44 29.315C22.96 29.045 22.415 28.815 21.805 28.625C21.195 28.435 20.57 28.24 19.93 28.04C19.29 27.83 18.665 27.59 18.055 27.32C17.445 27.05 16.9 26.7 16.42 26.27C15.94 25.83 15.555 25.285 15.265 24.635C14.975 23.975 14.83 23.165 14.83 22.205C14.83 21.435 14.98 20.69 15.28 19.97C15.58 19.25 16.015 18.615 16.585 18.065C17.165 17.505 17.875 17.06 18.715 16.73C19.555 16.39 20.515 16.22 21.595 16.22C22.805 16.22 23.915 16.415 24.925 16.805C25.945 17.185 26.83 17.735 27.58 18.455L26.8 19.97ZM34.3162 22.76V38H31.3912V22.76H34.3162ZM34.8712 18.05C34.8712 18.32 34.8162 18.58 34.7062 18.83C34.5962 19.07 34.4462 19.285 34.2562 19.475C34.0762 19.655 33.8612 19.8 33.6112 19.91C33.3612 20.01 33.1012 20.06 32.8312 20.06C32.5612 20.06 32.3062 20.01 32.0662 19.91C31.8262 19.8 31.6112 19.655 31.4212 19.475C31.2412 19.285 31.0962 19.07 30.9862 18.83C30.8862 18.58 30.8362 18.32 30.8362 18.05C30.8362 17.77 30.8862 17.51 30.9862 17.27C31.0962 17.02 31.2412 16.805 31.4212 16.625C31.6112 16.435 31.8262 16.29 32.0662 16.19C32.3062 16.08 32.5612 16.025 32.8312 16.025C33.1012 16.025 33.3612 16.08 33.6112 16.19C33.8612 16.29 34.0762 16.435 34.2562 16.625C34.4462 16.805 34.5962 17.02 34.7062 17.27C34.8162 17.51 34.8712 17.77 34.8712 18.05ZM43.9061 30.395C44.4261 30.395 44.8811 30.325 45.2711 30.185C45.6711 30.045 46.0011 29.85 46.2611 29.6C46.5311 29.34 46.7311 29.03 46.8611 28.67C47.0011 28.31 47.0711 27.915 47.0711 27.485C47.0711 26.605 46.8011 25.905 46.2611 25.385C45.7311 24.855 44.9461 24.59 43.9061 24.59C42.8761 24.59 42.0911 24.855 41.5511 25.385C41.0211 25.905 40.7561 26.605 40.7561 27.485C40.7561 27.915 40.8211 28.31 40.9511 28.67C41.0911 29.02 41.2911 29.325 41.5511 29.585C41.8211 29.835 42.1511 30.035 42.5411 30.185C42.9411 30.325 43.3961 30.395 43.9061 30.395ZM48.5711 38.795C48.5711 38.435 48.4711 38.15 48.2711 37.94C48.0711 37.72 47.7961 37.55 47.4461 37.43C47.1061 37.3 46.7061 37.21 46.2461 37.16C45.7861 37.1 45.3011 37.055 44.7911 37.025C44.2911 36.995 43.7761 36.97 43.2461 36.95C42.7161 36.92 42.2061 36.87 41.7161 36.8C41.1961 37.06 40.7661 37.375 40.4261 37.745C40.0961 38.115 39.9311 38.55 39.9311 39.05C39.9311 39.37 40.0111 39.67 40.1711 39.95C40.3411 40.23 40.5961 40.47 40.9361 40.67C41.2861 40.88 41.7211 41.04 42.2411 41.15C42.7711 41.27 43.4011 41.33 44.1311 41.33C44.8511 41.33 45.4861 41.265 46.0361 41.135C46.5861 41.015 47.0461 40.84 47.4161 40.61C47.7961 40.39 48.0811 40.125 48.2711 39.815C48.4711 39.505 48.5711 39.165 48.5711 38.795ZM51.5411 23.33V24.425C51.5411 24.785 51.3161 25.01 50.8661 25.1L49.2311 25.34C49.3711 25.65 49.4811 25.98 49.5611 26.33C49.6411 26.67 49.6811 27.03 49.6811 27.41C49.6811 28.16 49.5361 28.84 49.2461 29.45C48.9561 30.05 48.5561 30.565 48.0461 30.995C47.5361 31.425 46.9261 31.755 46.2161 31.985C45.5161 32.215 44.7461 32.33 43.9061 32.33C43.2161 32.33 42.5711 32.255 41.9711 32.105C41.6711 32.285 41.4411 32.485 41.2811 32.705C41.1311 32.915 41.0561 33.125 41.0561 33.335C41.0561 33.685 41.2011 33.945 41.4911 34.115C41.7911 34.285 42.1761 34.41 42.6461 34.49C43.1261 34.56 43.6711 34.605 44.2811 34.625C44.9011 34.645 45.5261 34.68 46.1561 34.73C46.7961 34.77 47.4211 34.85 48.0311 34.97C48.6511 35.08 49.1961 35.265 49.6661 35.525C50.1461 35.775 50.5311 36.125 50.8211 36.575C51.1211 37.015 51.2711 37.59 51.2711 38.3C51.2711 38.96 51.1061 39.6 50.7761 40.22C50.4561 40.84 49.9861 41.39 49.3661 41.87C48.7461 42.35 47.9911 42.735 47.1011 43.025C46.2111 43.315 45.2011 43.46 44.0711 43.46C42.9411 43.46 41.9561 43.35 41.1161 43.13C40.2861 42.91 39.5911 42.615 39.0311 42.245C38.4811 41.875 38.0661 41.445 37.7861 40.955C37.5161 40.465 37.3811 39.955 37.3811 39.425C37.3811 38.685 37.6111 38.06 38.0711 37.55C38.5311 37.03 39.1661 36.625 39.9761 36.335C39.5361 36.135 39.1861 35.865 38.9261 35.525C38.6661 35.175 38.5361 34.715 38.5361 34.145C38.5361 33.925 38.5761 33.7 38.6561 33.47C38.7361 33.23 38.8561 32.995 39.0161 32.765C39.1861 32.525 39.3911 32.3 39.6311 32.09C39.8811 31.88 40.1661 31.69 40.4861 31.52C39.7361 31.1 39.1461 30.545 38.7161 29.855C38.2861 29.155 38.0711 28.34 38.0711 27.41C38.0711 26.66 38.2161 25.985 38.5061 25.385C38.7961 24.785 39.1961 24.27 39.7061 23.84C40.2261 23.41 40.8411 23.08 41.5511 22.85C42.2711 22.62 43.0561 22.505 43.9061 22.505C45.2261 22.505 46.3611 22.78 47.3111 23.33H51.5411ZM66.8999 22.76V38H65.1449C64.7449 38 64.4849 37.805 64.3649 37.415L64.1549 35.885C63.8249 36.235 63.4799 36.555 63.1199 36.845C62.7599 37.135 62.3749 37.385 61.9649 37.595C61.5549 37.795 61.1199 37.95 60.6599 38.06C60.1999 38.18 59.7049 38.24 59.1749 38.24C58.3349 38.24 57.5949 38.1 56.9549 37.82C56.3249 37.54 55.7949 37.15 55.3649 36.65C54.9349 36.14 54.6099 35.53 54.3899 34.82C54.1699 34.11 54.0599 33.325 54.0599 32.465V22.76H56.9999V32.465C56.9999 33.555 57.2499 34.405 57.7499 35.015C58.2499 35.615 59.0149 35.915 60.0449 35.915C60.7949 35.915 61.4949 35.74 62.1449 35.39C62.7949 35.03 63.4049 34.54 63.9749 33.92V22.76H66.8999ZM74.0427 22.76V38H71.1177V22.76H74.0427ZM74.5977 18.05C74.5977 18.32 74.5427 18.58 74.4327 18.83C74.3227 19.07 74.1727 19.285 73.9827 19.475C73.8027 19.655 73.5877 19.8 73.3377 19.91C73.0877 20.01 72.8277 20.06 72.5577 20.06C72.2877 20.06 72.0327 20.01 71.7927 19.91C71.5527 19.8 71.3377 19.655 71.1477 19.475C70.9677 19.285 70.8227 19.07 70.7127 18.83C70.6127 18.58 70.5627 18.32 70.5627 18.05C70.5627 17.77 70.6127 17.51 70.7127 17.27C70.8227 17.02 70.9677 16.805 71.1477 16.625C71.3377 16.435 71.5527 16.29 71.7927 16.19C72.0327 16.08 72.2877 16.025 72.5577 16.025C72.8277 16.025 73.0877 16.08 73.3377 16.19C73.5877 16.29 73.8027 16.435 73.9827 16.625C74.1727 16.805 74.3227 17.02 74.4327 17.27C74.5427 17.51 74.5977 17.77 74.5977 18.05ZM88.3727 28.685C88.3727 28.105 88.2877 27.57 88.1177 27.08C87.9577 26.59 87.7177 26.165 87.3977 25.805C87.0777 25.445 86.6877 25.165 86.2277 24.965C85.7677 24.765 85.2377 24.665 84.6377 24.665C83.4077 24.665 82.4377 25.02 81.7277 25.73C81.0277 26.44 80.5827 27.425 80.3927 28.685H88.3727ZM90.7877 35.825C90.4277 36.245 90.0127 36.61 89.5427 36.92C89.0727 37.22 88.5727 37.465 88.0427 37.655C87.5127 37.845 86.9627 37.985 86.3927 38.075C85.8327 38.165 85.2777 38.21 84.7277 38.21C83.6777 38.21 82.7027 38.035 81.8027 37.685C80.9127 37.325 80.1377 36.805 79.4777 36.125C78.8277 35.435 78.3177 34.585 77.9477 33.575C77.5877 32.555 77.4077 31.385 77.4077 30.065C77.4077 29.005 77.5727 28.02 77.9027 27.11C78.2327 26.19 78.7027 25.39 79.3127 24.71C79.9327 24.03 80.6877 23.495 81.5777 23.105C82.4677 22.715 83.4677 22.52 84.5777 22.52C85.5077 22.52 86.3627 22.675 87.1427 22.985C87.9327 23.285 88.6127 23.725 89.1827 24.305C89.7527 24.885 90.1977 25.6 90.5177 26.45C90.8477 27.3 91.0127 28.27 91.0127 29.36C91.0127 29.81 90.9627 30.115 90.8627 30.275C90.7627 30.425 90.5777 30.5 90.3077 30.5H80.3177C80.3477 31.41 80.4777 32.205 80.7077 32.885C80.9377 33.555 81.2527 34.115 81.6527 34.565C82.0627 35.015 82.5477 35.35 83.1077 35.57C83.6677 35.79 84.2927 35.9 84.9827 35.9C85.6327 35.9 86.1927 35.825 86.6627 35.675C87.1427 35.525 87.5527 35.365 87.8927 35.195C88.2427 35.015 88.5327 34.85 88.7627 34.7C89.0027 34.55 89.2127 34.475 89.3927 34.475C89.6327 34.475 89.8177 34.565 89.9477 34.745L90.7877 35.825ZM96.9016 24.875C97.2316 24.525 97.5766 24.205 97.9366 23.915C98.2966 23.625 98.6766 23.38 99.0766 23.18C99.4866 22.97 99.9216 22.81 100.382 22.7C100.852 22.58 101.352 22.52 101.882 22.52C102.722 22.52 103.457 22.66 104.087 22.94C104.727 23.22 105.262 23.615 105.692 24.125C106.122 24.625 106.447 25.23 106.667 25.94C106.887 26.65 106.997 27.435 106.997 28.295V38H104.057V28.295C104.057 27.205 103.807 26.36 103.307 25.76C102.807 25.15 102.042 24.845 101.012 24.845C100.262 24.845 99.5566 25.025 98.8966 25.385C98.2466 25.735 97.6416 26.215 97.0816 26.825V38H94.1566V22.76H95.9116C96.3216 22.76 96.5766 22.955 96.6766 23.345L96.9016 24.875ZM115.509 38.24C114.279 38.24 113.329 37.895 112.659 37.205C111.999 36.515 111.669 35.53 111.669 34.25V25.13H109.899C109.729 25.13 109.584 25.08 109.464 24.98C109.354 24.87 109.299 24.71 109.299 24.5V23.315L111.774 22.97L112.434 18.425C112.474 18.255 112.549 18.125 112.659 18.035C112.779 17.935 112.929 17.885 113.109 17.885H114.594V23H118.914V25.13H114.594V34.055C114.594 34.655 114.739 35.105 115.029 35.405C115.329 35.695 115.709 35.84 116.169 35.84C116.439 35.84 116.669 35.805 116.859 35.735C117.059 35.665 117.229 35.59 117.369 35.51C117.509 35.42 117.629 35.34 117.729 35.27C117.829 35.2 117.919 35.165 117.999 35.165C118.099 35.165 118.174 35.19 118.224 35.24C118.284 35.28 118.344 35.35 118.404 35.45L119.274 36.86C118.794 37.3 118.224 37.64 117.564 37.88C116.904 38.12 116.219 38.24 115.509 38.24ZM131.615 28.685C131.615 28.105 131.53 27.57 131.36 27.08C131.2 26.59 130.96 26.165 130.64 25.805C130.32 25.445 129.93 25.165 129.47 24.965C129.01 24.765 128.48 24.665 127.88 24.665C126.65 24.665 125.68 25.02 124.97 25.73C124.27 26.44 123.825 27.425 123.635 28.685H131.615ZM134.03 35.825C133.67 36.245 133.255 36.61 132.785 36.92C132.315 37.22 131.815 37.465 131.285 37.655C130.755 37.845 130.205 37.985 129.635 38.075C129.075 38.165 128.52 38.21 127.97 38.21C126.92 38.21 125.945 38.035 125.045 37.685C124.155 37.325 123.38 36.805 122.72 36.125C122.07 35.435 121.56 34.585 121.19 33.575C120.83 32.555 120.65 31.385 120.65 30.065C120.65 29.005 120.815 28.02 121.145 27.11C121.475 26.19 121.945 25.39 122.555 24.71C123.175 24.03 123.93 23.495 124.82 23.105C125.71 22.715 126.71 22.52 127.82 22.52C128.75 22.52 129.605 22.675 130.385 22.985C131.175 23.285 131.855 23.725 132.425 24.305C132.995 24.885 133.44 25.6 133.76 26.45C134.09 27.3 134.255 28.27 134.255 29.36C134.255 29.81 134.205 30.115 134.105 30.275C134.005 30.425 133.82 30.5 133.55 30.5H123.56C123.59 31.41 123.72 32.205 123.95 32.885C124.18 33.555 124.495 34.115 124.895 34.565C125.305 35.015 125.79 35.35 126.35 35.57C126.91 35.79 127.535 35.9 128.225 35.9C128.875 35.9 129.435 35.825 129.905 35.675C130.385 35.525 130.795 35.365 131.135 35.195C131.485 35.015 131.775 34.85 132.005 34.7C132.245 34.55 132.455 34.475 132.635 34.475C132.875 34.475 133.06 34.565 133.19 34.745L134.03 35.825Z" fill="black"/>
</svg>
