<svg width="550" height="550" viewBox="0 0 550 550" fill="none" xmlns="http://www.w3.org/2000/svg">
<rect width="550" height="550" fill="#6D81D4"/>
<path d="M166.72 279.66C166.72 272.28 140.5 279.18 140.5 262.2C140.5 252.24 149.8 248.58 160.12 248.58C164.74 248.58 177.16 249.9 177.16 257.64C177.16 259.8 176.44 261.66 173.92 262.26C172.36 254.4 152.02 254.4 152.02 261.36C152.02 269.1 178.6 262.26 178.6 278.58C178.6 288.24 168.52 291.48 158.26 291.48C150.52 291.48 140.14 289.08 140.14 283.08C140.14 281.28 140.8 278.76 142.72 278.34C144.46 285.9 166.72 285.9 166.72 279.66ZM180.863 270.3C180.863 255.18 186.443 248.28 201.323 248.28C216.083 248.28 222.083 255.18 222.083 270.24C222.083 285.24 216.083 291.66 201.323 291.66C186.443 291.66 180.863 285.3 180.863 270.3ZM190.943 270.48C190.943 279.54 193.763 283.38 201.323 283.38C209.123 283.38 211.943 279.54 211.943 270.48C211.943 261.24 209.123 257.34 201.323 257.34C193.763 257.34 190.943 261.36 190.943 270.48ZM224.339 291V249H228.239C232.439 249 234.239 249.3 234.239 253.5V283.2H254.339V291H224.339ZM256.566 291V249H289.386C289.986 251.58 290.286 257.16 284.466 257.16H266.466V265.5H287.166V272.64H266.466V283.2H284.286C290.766 283.2 290.886 288.54 290.166 291H256.566ZM309.337 291.24C306.757 291.24 292.777 291 292.777 291V249.3C296.137 249.18 303.577 248.94 309.097 248.94C326.137 248.94 330.937 259.98 330.937 270.3C330.937 280.68 327.097 291.24 309.337 291.24ZM302.677 257.46V283.2C311.557 283.2 321.277 284.46 321.157 270.36C321.037 256.38 312.277 257.46 302.677 257.46ZM358.755 291L356.715 285H340.515L338.775 291H328.695L341.055 250.2C343.215 248.34 354.315 247.08 356.115 252.36L369.315 291H358.755ZM348.315 259.5L342.615 277.5H354.375L348.315 259.5ZM387.091 291.24C384.511 291.24 370.531 291 370.531 291V249.3C373.891 249.18 381.331 248.94 386.851 248.94C403.891 248.94 408.691 259.98 408.691 270.3C408.691 280.68 404.851 291.24 387.091 291.24ZM380.431 257.46V283.2C389.311 283.2 399.031 284.46 398.911 270.36C398.791 256.38 390.031 257.46 380.431 257.46Z" fill="white"/>
</svg>
