<svg width="190" height="77" viewBox="0 0 190 77" fill="none" xmlns="http://www.w3.org/2000/svg">
<rect width="189.958" height="76.0968" rx="15" fill="#D79EF3"/>
<path d="M64.7461 29.59H56.6641V52H52.4701V29.59H44.3701V26.08H64.7461V29.59ZM71.5248 33.64V52H67.6548V33.64H71.5248ZM72.1728 28.096C72.1728 28.444 72.1008 28.774 71.9568 29.086C71.8248 29.398 71.6388 29.674 71.3988 29.914C71.1588 30.142 70.8768 30.328 70.5528 30.472C70.2408 30.604 69.9048 30.67 69.5448 30.67C69.1968 30.67 68.8668 30.604 68.5548 30.472C68.2548 30.328 67.9908 30.142 67.7628 29.914C67.5348 29.674 67.3488 29.398 67.2048 29.086C67.0728 28.774 67.0068 28.444 67.0068 28.096C67.0068 27.736 67.0728 27.4 67.2048 27.088C67.3488 26.776 67.5348 26.506 67.7628 26.278C67.9908 26.038 68.2548 25.852 68.5548 25.72C68.8668 25.576 69.1968 25.504 69.5448 25.504C69.9048 25.504 70.2408 25.576 70.5528 25.72C70.8768 25.852 71.1588 26.038 71.3988 26.278C71.6388 26.506 71.8248 26.776 71.9568 27.088C72.1008 27.4 72.1728 27.736 72.1728 28.096ZM80.2573 25.36V40.804H81.0853C81.3493 40.804 81.5653 40.768 81.7333 40.696C81.9013 40.624 82.0753 40.474 82.2553 40.246L87.4033 34.36C87.5833 34.12 87.7813 33.94 87.9973 33.82C88.2133 33.7 88.4893 33.64 88.8253 33.64H92.3353L86.1433 40.624C85.7833 41.092 85.3873 41.464 84.9553 41.74C85.1953 41.908 85.4053 42.1 85.5853 42.316C85.7653 42.52 85.9393 42.754 86.1073 43.018L92.7133 52H89.2573C88.9453 52 88.6753 51.952 88.4473 51.856C88.2313 51.748 88.0393 51.556 87.8713 51.28L82.5613 44.08C82.3813 43.804 82.2013 43.63 82.0213 43.558C81.8413 43.474 81.5713 43.432 81.2113 43.432H80.2573V52H76.3873V25.36H80.2573ZM110.625 29.59H102.543V52H98.349V29.59H90.249V26.08H110.625V29.59ZM117.091 33.352C118.447 33.352 119.671 33.574 120.763 34.018C121.867 34.462 122.803 35.092 123.571 35.908C124.351 36.724 124.951 37.714 125.371 38.878C125.791 40.042 126.001 41.35 126.001 42.802C126.001 44.254 125.791 45.562 125.371 46.726C124.951 47.89 124.351 48.886 123.571 49.714C122.803 50.53 121.867 51.16 120.763 51.604C119.671 52.048 118.447 52.27 117.091 52.27C115.723 52.27 114.487 52.048 113.383 51.604C112.291 51.16 111.355 50.53 110.575 49.714C109.795 48.886 109.195 47.89 108.775 46.726C108.355 45.562 108.145 44.254 108.145 42.802C108.145 41.35 108.355 40.042 108.775 38.878C109.195 37.714 109.795 36.724 110.575 35.908C111.355 35.092 112.291 34.462 113.383 34.018C114.487 33.574 115.723 33.352 117.091 33.352ZM117.091 49.246C118.747 49.246 119.977 48.694 120.781 47.59C121.597 46.474 122.005 44.884 122.005 42.82C122.005 40.756 121.597 39.166 120.781 38.05C119.977 36.922 118.747 36.358 117.091 36.358C115.411 36.358 114.163 36.922 113.347 38.05C112.531 39.166 112.123 40.756 112.123 42.82C112.123 44.884 112.531 46.474 113.347 47.59C114.163 48.694 115.411 49.246 117.091 49.246ZM133.589 25.36V40.804H134.417C134.681 40.804 134.897 40.768 135.065 40.696C135.233 40.624 135.407 40.474 135.587 40.246L140.735 34.36C140.915 34.12 141.113 33.94 141.329 33.82C141.545 33.7 141.821 33.64 142.157 33.64H145.667L139.475 40.624C139.115 41.092 138.719 41.464 138.287 41.74C138.527 41.908 138.737 42.1 138.917 42.316C139.097 42.52 139.271 42.754 139.439 43.018L146.045 52H142.589C142.277 52 142.007 51.952 141.779 51.856C141.563 51.748 141.371 51.556 141.203 51.28L135.893 44.08C135.713 43.804 135.533 43.63 135.353 43.558C135.173 43.474 134.903 43.432 134.543 43.432H133.589V52H129.719V25.36H133.589Z" fill="white"/>
</svg>
