<svg width="190" height="77" viewBox="0 0 190 77" fill="none" xmlns="http://www.w3.org/2000/svg">
<rect width="189.958" height="76.0968" rx="15" fill="#FE9359"/>
<path d="M47.5133 26.08L39.4493 52H35.6513L29.5673 33.388C29.4953 33.184 29.4233 32.962 29.3513 32.722C29.2913 32.482 29.2313 32.224 29.1713 31.948C29.1113 32.224 29.0453 32.482 28.9733 32.722C28.9133 32.962 28.8473 33.184 28.7753 33.388L22.6373 52H18.8393L10.7753 26.08H14.3033C14.6633 26.08 14.9633 26.17 15.2033 26.35C15.4553 26.518 15.6233 26.752 15.7073 27.052L20.5673 43.666C20.6633 44.026 20.7533 44.416 20.8373 44.836C20.9213 45.256 21.0053 45.694 21.0893 46.15C21.1733 45.694 21.2633 45.256 21.3593 44.836C21.4673 44.404 21.5813 44.014 21.7013 43.666L27.2633 27.052C27.3473 26.812 27.5153 26.59 27.7673 26.386C28.0193 26.182 28.3193 26.08 28.6673 26.08H29.8913C30.2633 26.08 30.5633 26.176 30.7913 26.368C31.0193 26.548 31.1933 26.776 31.3133 27.052L36.8573 43.666C36.9773 44.014 37.0853 44.392 37.1813 44.8C37.2893 45.196 37.3853 45.616 37.4693 46.06C37.5533 45.616 37.6313 45.196 37.7033 44.8C37.7873 44.392 37.8773 44.014 37.9733 43.666L42.8153 27.052C42.8873 26.788 43.0493 26.56 43.3013 26.368C43.5653 26.176 43.8713 26.08 44.2193 26.08H47.5133ZM53.9253 35.818C54.6813 35.074 55.5093 34.48 56.4093 34.036C57.3093 33.58 58.3593 33.352 59.5593 33.352C60.5673 33.352 61.4493 33.52 62.2053 33.856C62.9733 34.192 63.6153 34.666 64.1313 35.278C64.6593 35.89 65.0553 36.628 65.3193 37.492C65.5833 38.344 65.7153 39.286 65.7153 40.318V52H61.8633V40.318C61.8633 39.082 61.5753 38.122 60.9993 37.438C60.4353 36.754 59.5713 36.412 58.4073 36.412C57.5433 36.412 56.7393 36.61 55.9953 37.006C55.2633 37.402 54.5733 37.942 53.9253 38.626V52H50.0553V25.36H53.9253V35.818ZM80.045 43.972C78.665 44.02 77.501 44.134 76.553 44.314C75.605 44.482 74.837 44.704 74.249 44.98C73.661 45.244 73.235 45.562 72.971 45.934C72.719 46.306 72.593 46.714 72.593 47.158C72.593 47.59 72.659 47.962 72.791 48.274C72.935 48.574 73.127 48.826 73.367 49.03C73.619 49.222 73.907 49.366 74.231 49.462C74.567 49.546 74.933 49.588 75.329 49.588C76.337 49.588 77.201 49.402 77.921 49.03C78.653 48.646 79.361 48.094 80.045 47.374V43.972ZM69.785 36.196C71.861 34.264 74.333 33.298 77.201 33.298C78.257 33.298 79.193 33.472 80.009 33.82C80.837 34.156 81.527 34.636 82.079 35.26C82.643 35.884 83.069 36.628 83.357 37.492C83.657 38.344 83.807 39.292 83.807 40.336V52H82.079C81.707 52 81.425 51.946 81.233 51.838C81.041 51.718 80.879 51.484 80.747 51.136L80.369 49.642C79.901 50.062 79.439 50.44 78.983 50.776C78.527 51.1 78.053 51.376 77.561 51.604C77.081 51.832 76.559 52 75.995 52.108C75.443 52.228 74.831 52.288 74.159 52.288C73.415 52.288 72.719 52.186 72.071 51.982C71.435 51.778 70.883 51.472 70.415 51.064C69.947 50.644 69.575 50.128 69.299 49.516C69.035 48.904 68.903 48.184 68.903 47.356C68.903 46.648 69.089 45.958 69.461 45.286C69.845 44.614 70.469 44.014 71.333 43.486C72.209 42.946 73.355 42.502 74.771 42.154C76.199 41.806 77.957 41.608 80.045 41.56V40.336C80.045 39.016 79.763 38.032 79.199 37.384C78.635 36.736 77.807 36.412 76.715 36.412C75.971 36.412 75.347 36.508 74.843 36.7C74.339 36.88 73.901 37.078 73.529 37.294C73.157 37.51 72.827 37.714 72.539 37.906C72.251 38.086 71.945 38.176 71.621 38.176C71.357 38.176 71.129 38.11 70.937 37.978C70.757 37.834 70.607 37.66 70.487 37.456L69.785 36.196ZM93.9803 52.288C92.4563 52.288 91.2803 51.862 90.4523 51.01C89.6363 50.146 89.2283 48.934 89.2283 47.374V36.682H87.2123C86.9963 36.682 86.8103 36.616 86.6543 36.484C86.4983 36.34 86.4203 36.13 86.4203 35.854V34.288L89.3903 33.856L90.2363 28.546C90.2963 28.342 90.3983 28.18 90.5423 28.06C90.6863 27.928 90.8783 27.862 91.1183 27.862H93.0983V33.892H98.1923V36.682H93.0983V47.104C93.0983 47.764 93.2603 48.268 93.5843 48.616C93.9083 48.964 94.3403 49.138 94.8803 49.138C95.1803 49.138 95.4383 49.102 95.6543 49.03C95.8703 48.946 96.0563 48.862 96.2123 48.778C96.3683 48.682 96.5003 48.598 96.6083 48.526C96.7283 48.442 96.8423 48.4 96.9503 48.4C97.1663 48.4 97.3403 48.52 97.4723 48.76L98.6243 50.65C98.0243 51.178 97.3163 51.586 96.5003 51.874C95.6843 52.15 94.8443 52.288 93.9803 52.288ZM112.205 36.97C112.109 37.138 112.001 37.258 111.881 37.33C111.761 37.402 111.611 37.438 111.431 37.438C111.227 37.438 111.005 37.378 110.765 37.258C110.525 37.126 110.243 36.982 109.919 36.826C109.595 36.67 109.211 36.532 108.767 36.412C108.335 36.28 107.825 36.214 107.237 36.214C106.757 36.214 106.319 36.274 105.923 36.394C105.539 36.502 105.209 36.664 104.933 36.88C104.669 37.084 104.465 37.33 104.321 37.618C104.177 37.894 104.105 38.194 104.105 38.518C104.105 38.95 104.237 39.31 104.501 39.598C104.765 39.886 105.113 40.138 105.545 40.354C105.977 40.558 106.469 40.744 107.021 40.912C107.573 41.08 108.137 41.26 108.713 41.452C109.289 41.644 109.853 41.866 110.405 42.118C110.957 42.37 111.449 42.682 111.881 43.054C112.313 43.414 112.661 43.858 112.925 44.386C113.189 44.902 113.321 45.532 113.321 46.276C113.321 47.14 113.165 47.938 112.853 48.67C112.541 49.402 112.085 50.038 111.485 50.578C110.885 51.118 110.135 51.538 109.235 51.838C108.347 52.138 107.327 52.288 106.175 52.288C105.539 52.288 104.921 52.228 104.321 52.108C103.733 52 103.169 51.85 102.629 51.658C102.101 51.454 101.603 51.214 101.135 50.938C100.679 50.662 100.271 50.362 99.9108 50.038L100.811 48.562C100.919 48.382 101.051 48.244 101.207 48.148C101.375 48.04 101.579 47.986 101.819 47.986C102.071 47.986 102.317 48.07 102.557 48.238C102.809 48.394 103.097 48.568 103.421 48.76C103.757 48.952 104.159 49.132 104.627 49.3C105.095 49.456 105.677 49.534 106.373 49.534C106.949 49.534 107.447 49.468 107.867 49.336C108.287 49.192 108.635 49 108.911 48.76C109.187 48.52 109.391 48.25 109.523 47.95C109.655 47.638 109.721 47.308 109.721 46.96C109.721 46.492 109.589 46.108 109.325 45.808C109.061 45.508 108.707 45.25 108.263 45.034C107.831 44.818 107.333 44.626 106.769 44.458C106.217 44.29 105.653 44.11 105.077 43.918C104.501 43.726 103.931 43.504 103.367 43.252C102.815 43 102.317 42.682 101.873 42.298C101.441 41.902 101.093 41.428 100.829 40.876C100.565 40.312 100.433 39.628 100.433 38.824C100.433 38.092 100.577 37.396 100.865 36.736C101.165 36.076 101.597 35.494 102.161 34.99C102.737 34.486 103.439 34.09 104.267 33.802C105.107 33.502 106.073 33.352 107.165 33.352C108.401 33.352 109.523 33.55 110.531 33.946C111.539 34.342 112.385 34.882 113.069 35.566L112.205 36.97ZM131.148 42.28L127.584 32.812C127.296 32.08 127.002 31.15 126.702 30.022C126.57 30.586 126.426 31.108 126.27 31.588C126.114 32.056 125.97 32.47 125.838 32.83L122.274 42.28H131.148ZM139.122 52H135.864C135.492 52 135.192 51.91 134.964 51.73C134.736 51.538 134.562 51.304 134.442 51.028L132.282 45.304H121.122L118.962 51.028C118.866 51.268 118.698 51.49 118.458 51.694C118.218 51.898 117.918 52 117.558 52H114.3L124.578 26.08H128.844L139.122 52ZM145.226 47.392C145.766 48.088 146.354 48.58 146.99 48.868C147.638 49.144 148.352 49.282 149.132 49.282C150.644 49.282 151.82 48.73 152.66 47.626C153.512 46.522 153.938 44.878 153.938 42.694C153.938 41.566 153.842 40.606 153.65 39.814C153.458 39.01 153.182 38.356 152.822 37.852C152.462 37.348 152.024 36.982 151.508 36.754C150.992 36.526 150.41 36.412 149.762 36.412C148.778 36.412 147.926 36.628 147.206 37.06C146.498 37.48 145.838 38.086 145.226 38.878V47.392ZM145.028 36.304C145.796 35.404 146.666 34.678 147.638 34.126C148.622 33.574 149.762 33.298 151.058 33.298C152.09 33.298 153.026 33.508 153.866 33.928C154.706 34.336 155.426 34.936 156.026 35.728C156.626 36.52 157.088 37.504 157.412 38.68C157.748 39.844 157.916 41.182 157.916 42.694C157.916 44.05 157.73 45.316 157.358 46.492C156.998 47.656 156.476 48.67 155.792 49.534C155.108 50.386 154.28 51.058 153.308 51.55C152.336 52.03 151.238 52.27 150.014 52.27C148.934 52.27 148.016 52.096 147.26 51.748C146.516 51.4 145.838 50.92 145.226 50.308V58.102H141.356V33.64H143.696C144.224 33.64 144.56 33.886 144.704 34.378L145.028 36.304ZM165.546 47.392C166.086 48.088 166.674 48.58 167.31 48.868C167.958 49.144 168.672 49.282 169.452 49.282C170.964 49.282 172.14 48.73 172.98 47.626C173.832 46.522 174.258 44.878 174.258 42.694C174.258 41.566 174.162 40.606 173.97 39.814C173.778 39.01 173.502 38.356 173.142 37.852C172.782 37.348 172.344 36.982 171.828 36.754C171.312 36.526 170.73 36.412 170.082 36.412C169.098 36.412 168.246 36.628 167.526 37.06C166.818 37.48 166.158 38.086 165.546 38.878V47.392ZM165.348 36.304C166.116 35.404 166.986 34.678 167.958 34.126C168.942 33.574 170.082 33.298 171.378 33.298C172.41 33.298 173.346 33.508 174.186 33.928C175.026 34.336 175.746 34.936 176.346 35.728C176.946 36.52 177.408 37.504 177.732 38.68C178.068 39.844 178.236 41.182 178.236 42.694C178.236 44.05 178.05 45.316 177.678 46.492C177.318 47.656 176.796 48.67 176.112 49.534C175.428 50.386 174.6 51.058 173.628 51.55C172.656 52.03 171.558 52.27 170.334 52.27C169.254 52.27 168.336 52.096 167.58 51.748C166.836 51.4 166.158 50.92 165.546 50.308V58.102H161.676V33.64H164.016C164.544 33.64 164.88 33.886 165.024 34.378L165.348 36.304Z" fill="white"/>
</svg>
